<svg width="305" height="93" viewBox="0 0 305 93" fill="none" xmlns="http://www.w3.org/2000/svg">
<g filter="url(#filter0_d_374_206)">
<rect y="10.3984" width="297.948" height="78.39" transform="rotate(-2 0 10.3984)" fill="#1B75B3" shape-rendering="crispEdges"/>
<rect x="2.06858" y="12.3274" width="293.948" height="74.39" transform="rotate(-2 2.06858 12.3274)" stroke="#0A0A0A" stroke-width="4" shape-rendering="crispEdges"/>
<path d="M47.5415 58.7729L46.7597 36.3866L58.7205 35.9689C61.8119 35.8609 64.1124 36.3303 65.6218 37.3769C67.1312 38.4235 67.9157 39.7997 67.9753 41.5053C68.0148 42.6353 67.7355 43.6536 67.1374 44.5604C66.5394 45.4671 65.6523 46.1972 64.4762 46.7506C63.3002 47.304 61.838 47.6112 60.0897 47.6722L60.669 45.923C62.4173 45.8619 63.9343 46.0544 65.22 46.5005C66.5056 46.9466 67.5111 47.6212 68.2364 48.5244C68.9617 49.4277 69.3471 50.5296 69.3925 51.8301C69.4603 53.7703 68.7083 55.3121 67.1366 56.4557C65.5648 57.5992 63.2333 58.225 60.1418 58.3329L47.5415 58.7729ZM54.7767 53.2371L59.3179 53.0785C60.1494 53.0494 60.7678 52.8784 61.1732 52.5654C61.5785 52.2524 61.7711 51.8081 61.751 51.2324C61.7309 50.6568 61.5078 50.227 61.0816 49.943C60.6554 49.659 60.0266 49.5316 59.1951 49.5606L54.1422 49.7371L53.9679 44.7481L57.9975 44.6074C58.8503 44.5776 59.4689 44.4119 59.8533 44.1103C60.2377 43.8087 60.4205 43.3914 60.4019 42.8584C60.3826 42.3041 60.1708 41.8952 59.7667 41.6318C59.3626 41.3684 58.7342 41.2516 57.8813 41.2814L54.3635 41.4043L54.7767 53.2371ZM72.2624 57.9097L71.4807 35.5233L79.0281 35.2597L79.8098 57.6461L72.2624 57.9097ZM83.4556 57.5188L82.6739 35.1324L94.6346 34.7147C97.726 34.6068 100.026 35.0761 101.536 36.1228C103.045 37.1694 103.83 38.5455 103.889 40.2511C103.929 41.3811 103.65 42.3995 103.052 43.3062C102.453 44.213 101.566 44.9431 100.39 45.4964C99.2143 46.0498 97.7521 46.357 96.0038 46.4181L96.5832 44.6688C98.3314 44.6078 99.8484 44.8003 101.134 45.2463C102.42 45.6924 103.425 46.3671 104.151 47.2703C104.876 48.1735 105.261 49.2754 105.307 50.576C105.374 52.5161 104.622 54.058 103.051 55.2015C101.479 56.3451 99.1474 56.9708 96.0559 57.0788L83.4556 57.5188ZM90.6908 51.9829L95.2321 51.8243C96.0635 51.7953 96.682 51.6243 97.0873 51.3113C97.4926 50.9983 97.6852 50.5539 97.6651 49.9783C97.645 49.4026 97.4219 48.9728 96.9957 48.6889C96.5695 48.4049 95.9407 48.2774 95.1092 48.3065L90.0563 48.4829L89.8821 43.494L93.9116 43.3532C94.7644 43.3235 95.383 43.1578 95.7674 42.8562C96.1518 42.5546 96.3347 42.1373 96.316 41.6043C96.2967 41.0499 96.0849 40.6411 95.6808 40.3777C95.2767 40.1143 94.6483 39.9975 93.7955 40.0273L90.2776 40.1501L90.6908 51.9829ZM108.177 56.6555L107.395 34.2692L114.942 34.0056L115.52 50.5395L125.625 50.1866L125.83 56.039L108.177 56.6555ZM127.909 55.9665L127.127 33.5801L134.674 33.3165L135.456 55.7029L127.909 55.9665ZM150.888 55.6763C149.055 55.7403 147.355 55.5115 145.789 54.9898C144.224 54.4682 142.857 53.6994 141.69 52.6835C140.524 51.6676 139.601 50.4564 138.922 49.0499C138.243 47.6434 137.874 46.098 137.815 44.4137C137.756 42.708 138.016 41.1353 138.595 39.6956C139.175 38.2558 140.011 36.9885 141.104 35.8937C142.197 34.7989 143.507 33.9367 145.032 33.307C146.558 32.6774 148.227 32.331 150.039 32.2677C151.872 32.2036 153.567 32.4327 155.122 32.9547C156.677 33.4767 158.038 34.2457 159.205 35.2616C160.372 36.2775 161.294 37.4834 161.973 38.8792C162.651 40.2751 163.02 41.8258 163.08 43.5314C163.139 45.2157 162.879 46.7831 162.3 48.2335C161.721 49.6839 160.884 50.9566 159.791 52.0514C158.698 53.1462 157.394 54.0082 155.879 54.6375C154.364 55.2667 152.701 55.613 150.888 55.6763ZM150.643 49.5691C151.347 49.5446 151.998 49.3937 152.597 49.1167C153.195 48.8396 153.715 48.4532 154.157 47.9575C154.599 47.4618 154.935 46.863 155.167 46.1612C155.399 45.4593 155.499 44.6713 155.469 43.7972C155.438 42.9231 155.283 42.144 155.003 41.46C154.723 40.7761 154.345 40.2022 153.87 39.7385C153.395 39.2748 152.849 38.9257 152.232 38.691C151.616 38.4564 150.956 38.3514 150.252 38.376C149.549 38.4005 148.898 38.5513 148.299 38.8284C147.7 39.1055 147.18 39.4919 146.738 39.9876C146.297 40.4833 145.96 41.0821 145.728 41.7839C145.497 42.4858 145.396 43.2737 145.427 44.1479C145.457 45.022 145.613 45.8011 145.893 46.485C146.173 47.169 146.55 47.7429 147.025 48.2066C147.5 48.6703 148.046 49.0194 148.663 49.254C149.279 49.4887 149.94 49.5937 150.643 49.5691ZM170.762 54.47L170.185 37.936L163.629 38.165L163.425 32.3125L184.084 31.5911L184.288 37.4435L177.732 37.6725L178.31 54.2064L170.762 54.47ZM186.817 53.9093L186.035 31.523L204.232 30.8875L204.431 36.5801L193.653 36.9564L194.037 47.9577L205.23 47.5668L205.429 53.2594L186.817 53.9093ZM193.423 45.0334L193.233 39.5967L203.211 39.2483L203.401 44.6849L193.423 45.0334ZM219.934 53.2652C218.143 53.3277 216.476 53.1031 214.932 52.5913C213.388 52.0796 212.038 51.3209 210.882 50.3153C209.726 49.3097 208.814 48.1034 208.146 46.6966C207.478 45.2897 207.113 43.7228 207.053 41.9958C206.993 40.2689 207.247 38.6804 207.815 37.2303C208.384 35.7803 209.209 34.5134 210.292 33.4296C211.375 32.3458 212.669 31.4948 214.173 30.8766C215.678 30.2583 217.326 29.918 219.117 29.8554C221.313 29.7787 223.272 30.0946 224.993 30.8029C226.715 31.5112 228.156 32.571 229.315 33.982L224.699 38.4018C224.009 37.5934 223.256 36.974 222.44 36.5435C221.625 36.113 220.716 35.9153 219.714 35.9503C218.925 35.9778 218.215 36.1307 217.585 36.4089C216.954 36.6871 216.418 37.0793 215.977 37.5857C215.535 38.0921 215.199 38.6962 214.967 39.3981C214.736 40.0999 214.635 40.8772 214.665 41.73C214.694 42.5829 214.849 43.3512 215.129 44.0352C215.409 44.7192 215.787 45.2984 216.263 45.7727C216.738 46.2471 217.3 46.601 217.949 46.8345C218.597 47.068 219.316 47.171 220.105 47.1435C221.107 47.1085 222 46.8478 222.783 46.3615C223.567 45.8752 224.274 45.2048 224.906 44.3502L229.82 48.4372C228.761 49.9044 227.398 51.0567 225.73 51.8941C224.062 52.7314 222.13 53.1885 219.934 53.2652ZM229.159 52.4307L238.163 29.7026L245.583 29.4435L256.15 51.4882L248.347 51.7606L240.463 33.2085L243.405 33.1058L236.834 52.1627L229.159 52.4307ZM234.843 48.3258L236.572 42.8221L246.87 42.4625L248.978 47.8322L234.843 48.3258Z" fill="white"/>
</g>
<defs>
<filter id="filter0_d_374_206" x="0" y="0" width="304.502" height="92.7402" filterUnits="userSpaceOnUse" color-interpolation-filters="sRGB">
<feFlood flood-opacity="0" result="BackgroundImageFix"/>
<feColorMatrix in="SourceAlpha" type="matrix" values="0 0 0 0 0 0 0 0 0 0 0 0 0 0 0 0 0 0 127 0" result="hardAlpha"/>
<feOffset dx="4" dy="4"/>
<feComposite in2="hardAlpha" operator="out"/>
<feColorMatrix type="matrix" values="0 0 0 0 0.0392157 0 0 0 0 0.0392157 0 0 0 0 0.0392157 0 0 0 1 0"/>
<feBlend mode="normal" in2="BackgroundImageFix" result="effect1_dropShadow_374_206"/>
<feBlend mode="normal" in="SourceGraphic" in2="effect1_dropShadow_374_206" result="shape"/>
</filter>
</defs>
</svg>
