<svg width="225" height="1039" viewBox="0 0 225 1039" fill="none" xmlns="http://www.w3.org/2000/svg">
<path d="M24.4399 33L18.4399 30.9L13.7899 32.7C13.4566 32.8333 13.1483 32.7958 12.8649 32.5875C12.5816 32.3792 12.4399 32.1 12.4399 31.75V17.75C12.4399 17.5333 12.5024 17.3417 12.6274 17.175C12.7524 17.0083 12.9233 16.8833 13.1399 16.8L18.4399 15L24.4399 17.1L29.0899 15.3C29.4233 15.1667 29.7316 15.2042 30.0149 15.4125C30.2983 15.6208 30.4399 15.9 30.4399 16.25V30.25C30.4399 30.4667 30.3774 30.6583 30.2524 30.825C30.1274 30.9917 29.9566 31.1167 29.7399 31.2L24.4399 33V33M23.4399 30.55V18.85L19.4399 17.45V29.15L23.4399 30.55V30.55M25.4399 30.55L28.4399 29.55V17.7L25.4399 18.85V30.55V30.55M14.4399 30.3L17.4399 29.15V17.45L14.4399 18.45V30.3V30.3M25.4399 18.85V18.85V30.55V30.55V18.85V18.85M17.4399 17.45V17.45V29.15V29.15V17.45V17.45" fill="#94A3B8"/>
<path d="M43.1899 30V18.3594H48.1743L49.2212 22C49.3097 22.3125 49.4113 22.7266 49.5259 23.2422C49.6405 23.7578 49.7537 24.3112 49.8657 24.9023C49.9777 25.4935 50.0806 26.0612 50.1743 26.6055C50.2681 27.1497 50.341 27.6094 50.3931 27.9844H49.8071C49.8592 27.6094 49.9308 27.1497 50.022 26.6055C50.1131 26.0612 50.2147 25.4935 50.3267 24.9023C50.4386 24.3112 50.5506 23.7578 50.6626 23.2422C50.7746 22.7266 50.8748 22.3125 50.9634 22L51.9946 18.3594H56.9868V30H53.7993V25.5C53.7993 25.2344 53.8058 24.8815 53.8188 24.4414C53.8319 24.0013 53.8462 23.5182 53.8618 22.9922C53.8774 22.4661 53.8918 21.9375 53.9048 21.4062C53.9178 20.875 53.9243 20.3854 53.9243 19.9375H54.104C54.0103 20.4323 53.9035 20.9466 53.7837 21.4805C53.6639 22.0143 53.5415 22.5352 53.4165 23.043C53.2915 23.5508 53.1717 24.0169 53.0571 24.4414C52.9425 24.8659 52.8436 25.2188 52.7603 25.5L51.4087 30H48.7837L47.4087 25.5C47.3254 25.2188 47.2251 24.8659 47.1079 24.4414C46.9907 24.0169 46.867 23.5508 46.7368 23.043C46.6066 22.5352 46.4803 22.0143 46.3579 21.4805C46.2355 20.9466 46.1248 20.4323 46.0259 19.9375H46.2524C46.2524 20.3854 46.259 20.875 46.272 21.4062C46.285 21.9375 46.2993 22.4661 46.3149 22.9922C46.3306 23.5182 46.3449 24.0013 46.3579 24.4414C46.3709 24.8815 46.3774 25.2344 46.3774 25.5V30H43.1899ZM58.0962 30L61.8696 18.3594H66.1821L70.0962 30H66.5181L65.1665 25.4844C64.8748 24.5052 64.6014 23.4883 64.3462 22.4336C64.091 21.3789 63.8488 20.3307 63.6196 19.2891H64.3384C64.1196 20.3307 63.8983 21.3789 63.6743 22.4336C63.4504 23.4883 63.1978 24.5052 62.9165 25.4844L61.6274 30H58.0962ZM60.8931 27.7656V25.4062H67.2993V27.7656H60.8931ZM71.2056 30V18.3594H76.2212C77.0858 18.3594 77.8423 18.5299 78.4907 18.8711C79.1392 19.2122 79.6444 19.6927 80.0063 20.3125C80.3683 20.9323 80.5493 21.6562 80.5493 22.4844C80.5493 23.3177 80.3644 24.0378 79.9946 24.6445C79.6248 25.2513 79.1066 25.7201 78.4399 26.0508C77.7733 26.3815 76.9972 26.5469 76.1118 26.5469H73.1118V24.0938H75.4712C75.8462 24.0938 76.1665 24.0273 76.4321 23.8945C76.6978 23.7617 76.9009 23.5755 77.0415 23.3359C77.1821 23.0964 77.2524 22.8125 77.2524 22.4844C77.2524 22.1458 77.1821 21.8581 77.0415 21.6211C76.9009 21.3841 76.6978 21.2031 76.4321 21.0781C76.1665 20.9531 75.8462 20.8906 75.4712 20.8906H74.3618V30H71.2056ZM79.8618 30L83.6353 18.3594H87.9478L91.8618 30H88.2837L86.9321 25.4844C86.6405 24.5052 86.367 23.4883 86.1118 22.4336C85.8566 21.3789 85.6144 20.3307 85.3853 19.2891H86.104C85.8853 20.3307 85.6639 21.3789 85.4399 22.4336C85.216 23.4883 84.9634 24.5052 84.6821 25.4844L83.3931 30H79.8618ZM82.6587 27.7656V25.4062H89.0649V27.7656H82.6587Z" fill="#94A3B8"/>
<g filter="url(#filter0_d_154_1396)">
<rect y="61.92" width="220" height="52" transform="rotate(-0.999999 0 61.92)" fill="#2563EB" shape-rendering="crispEdges"/>
<rect x="1.0173" y="62.9024" width="218" height="50" transform="rotate(-0.999999 1.0173 62.9024)" stroke="black" stroke-width="2" shape-rendering="crispEdges"/>
<path d="M16.6258 97.6353C16.0759 97.6449 15.6017 97.4573 15.2033 97.0725C14.8049 96.6878 14.6008 96.2204 14.5912 95.6705L14.3469 81.6726C14.3373 81.1227 14.5249 80.6485 14.9097 80.2501C15.2944 79.8516 15.7618 79.6476 16.3117 79.638L20.5111 79.5647C20.7172 78.961 21.0712 78.4714 21.5731 78.096C22.0749 77.7205 22.6425 77.5272 23.2757 77.5162C23.909 77.5051 24.4829 77.6785 24.9976 78.0362C25.5122 78.3939 25.8831 78.8709 26.1102 79.467L30.3096 79.3937C30.8595 79.3841 31.3337 79.5717 31.7321 79.9564C32.1306 80.3412 32.3346 80.8086 32.3442 81.3585L32.5885 95.3564C32.5981 95.9063 32.4105 96.3805 32.0257 96.7789C31.641 97.1773 31.1736 97.3814 30.6237 97.391L16.6258 97.6353V97.6353M16.5909 95.6356L30.5888 95.3913V95.3913V95.3913L30.3445 81.3934V81.3934V81.3934L16.3466 81.6377V81.6377V81.6377L16.5909 95.6356V95.6356V95.6356V95.6356M18.5557 93.601L25.5547 93.4788L25.5198 91.4791L18.5208 91.6013L18.5557 93.601V93.601M18.4859 89.6016L28.4844 89.4271L28.4495 87.4274L18.451 87.6019L18.4859 89.6016V89.6016M18.4161 85.6022L28.4146 85.4277L28.3797 83.428L18.3812 83.6025L18.4161 85.6022V85.6022M23.3325 80.7657C23.5491 80.7619 23.727 80.6879 23.8662 80.5438C24.0053 80.3997 24.073 80.2193 24.0692 80.0027C24.0655 79.7861 23.9915 79.6082 23.8474 79.469C23.7033 79.3298 23.5229 79.2621 23.3063 79.2659C23.0896 79.2697 22.9117 79.3436 22.7726 79.4877C22.6334 79.6319 22.5657 79.8122 22.5695 80.0289C22.5733 80.2455 22.6472 80.4234 22.7913 80.5626C22.9354 80.7018 23.1158 80.7694 23.3325 80.7657V80.7657M16.5909 95.6356V95.6356V95.6356L16.3466 81.6377V81.6377V81.6377V81.6377V81.6377V81.6377L16.5909 95.6356V95.6356V95.6356V95.6356V95.6356" fill="white"/>
<path d="M45.0956 81.4996L49.0268 81.431L51.8459 87.9737L51.9823 87.9713L54.5714 81.3342L58.5026 81.2656L58.7057 92.9002L55.6153 92.9541L55.4979 86.2279L55.407 86.2295L52.9323 92.91L51.0689 92.9426L48.3618 86.307L48.2709 86.3086L48.3891 93.0803L45.2986 93.1342L45.0956 81.4996ZM63.1582 81.1843L63.3612 92.8189L60.2026 92.874L59.9996 81.2395L63.1582 81.1843ZM70.9903 84.6845C70.9534 84.3063 70.8062 84.0134 70.5488 83.8057C70.2951 83.598 69.9126 83.4986 69.4014 83.5075C69.0757 83.5132 68.8093 83.5576 68.6024 83.6408C68.3992 83.7201 68.2496 83.8269 68.1534 83.9612C68.0573 84.0955 68.0088 84.2479 68.008 84.4184C68.0028 84.5586 68.0297 84.6851 68.0885 84.7977C68.151 84.9065 68.2474 85.0052 68.3778 85.0938C68.508 85.1787 68.6742 85.2553 68.8762 85.3238C69.0781 85.3923 69.3179 85.4525 69.5953 85.5045L70.5533 85.6923C71.1995 85.8174 71.7537 85.9877 72.2159 86.2031C72.678 86.4186 73.0576 86.6753 73.3545 86.9732C73.6513 87.2673 73.8712 87.6006 74.0141 87.9732C74.1608 88.3457 74.2399 88.7534 74.2514 89.1965C74.261 89.9616 74.081 90.6126 73.7115 91.1494C73.3421 91.6862 72.8075 92.099 72.1079 92.3878C71.4121 92.6765 70.5718 92.8294 69.5871 92.8466C68.5759 92.8643 67.6908 92.7301 66.932 92.444C66.1768 92.1579 65.5856 91.708 65.1581 91.0941C64.7344 90.4764 64.5121 89.6809 64.4914 88.7077L67.4909 88.6553C67.5161 89.011 67.6103 89.3086 67.7736 89.5482C67.9369 89.7878 68.1635 89.9676 68.4536 90.0876C68.7474 90.2075 69.095 90.2639 69.4964 90.2569C69.8335 90.251 70.1149 90.2044 70.3407 90.1171C70.5665 90.0299 70.7368 89.9113 70.8516 89.7616C70.9665 89.6118 71.0241 89.4422 71.0246 89.2528C71.0177 89.0749 70.9563 88.9206 70.8404 88.79C70.7282 88.6556 70.5442 88.5376 70.2886 88.436C70.033 88.3306 69.6884 88.2343 69.255 88.1472L68.0918 87.9174C67.0577 87.712 66.2388 87.3531 65.6351 86.8408C65.0351 86.3247 64.729 85.6121 64.717 84.7031C64.7003 83.9646 64.886 83.3155 65.274 82.7556C65.6657 82.1918 66.213 81.7485 66.9158 81.4256C67.6224 81.1026 68.4358 80.9331 69.3561 80.917C70.2954 80.9006 71.1105 81.0436 71.8015 81.346C72.4925 81.6484 73.0286 82.0823 73.4097 82.6477C73.7946 83.2092 73.9955 83.8706 74.0126 84.6318L70.9903 84.6845ZM78.4683 80.9171L78.6714 92.5517L75.5128 92.6068L75.3097 80.9722L78.4683 80.9171ZM91.3378 86.5115C91.3604 87.8068 91.1276 88.9038 90.6395 89.8026C90.1512 90.6976 89.4831 91.3817 88.6352 91.855C87.7872 92.3244 86.8368 92.5683 85.7839 92.5866C84.7235 92.6052 83.7613 92.3927 82.8973 91.9494C82.0371 91.5022 81.3474 90.8399 80.8283 89.9625C80.3128 89.0812 80.0438 87.9967 80.0214 86.709C79.9988 85.4138 80.2297 84.3187 80.7141 83.4237C81.2023 82.5249 81.8685 81.8408 82.7127 81.3715C83.5606 80.8983 84.5148 80.6524 85.5753 80.6339C86.6281 80.6155 87.5865 80.828 88.4505 81.2713C89.3143 81.7109 90.0059 82.3712 90.5251 83.2525C91.0443 84.1299 91.3152 85.2163 91.3378 86.5115ZM88.0883 86.5682C88.0762 85.8714 87.9731 85.286 87.7792 84.812C87.589 84.3342 87.3119 83.9753 86.9478 83.7354C86.5874 83.4917 86.1459 83.3744 85.6233 83.3835C85.1006 83.3926 84.6616 83.5253 84.3061 83.7815C83.9544 84.0339 83.69 84.4022 83.5128 84.8865C83.3393 85.3668 83.2587 85.9555 83.2709 86.6523C83.283 87.3492 83.3842 87.9365 83.5744 88.4143C83.7683 88.8883 84.0454 89.2472 84.4058 89.4909C84.7699 89.7308 85.2133 89.8462 85.7359 89.8371C86.2586 89.8279 86.6957 89.6972 87.0474 89.4448C87.4029 89.1886 87.6673 88.8202 87.8408 88.3399C88.018 87.8556 88.1005 87.2651 88.0883 86.5682ZM102.764 80.493L102.967 92.1276L100.331 92.1736L96.0209 86.1343L95.9527 86.1355L96.0594 92.2482L92.9008 92.3033L92.6977 80.6687L95.3791 80.6219L99.6212 86.6397L99.712 86.6381L99.6057 80.5481L102.764 80.493ZM104.462 92.1015L104.258 80.4669L112.644 80.3206L112.688 82.8656L107.461 82.9568L107.496 84.9565L112.291 84.8729L112.336 87.4179L107.541 87.5016L107.576 89.5013L112.779 89.4105L112.824 91.9555L104.462 92.1015ZM120.545 83.8195C120.508 83.4413 120.361 83.1484 120.104 82.9408C119.85 82.733 119.468 82.6336 118.956 82.6425C118.631 82.6482 118.364 82.6927 118.157 82.7758C117.954 82.8551 117.805 82.9619 117.708 83.0962C117.612 83.2305 117.564 83.3829 117.563 83.5534C117.558 83.6936 117.585 83.8201 117.643 83.9327C117.706 84.0415 117.802 84.1402 117.933 84.2288C118.063 84.3137 118.229 84.3904 118.431 84.4588C118.633 84.5273 118.873 84.5875 119.15 84.6395L120.108 84.8273C120.754 84.9524 121.309 85.1227 121.771 85.3382C122.233 85.5536 122.613 85.8103 122.909 86.1082C123.206 86.4023 123.426 86.7356 123.569 87.1082C123.716 87.4807 123.795 87.8885 123.806 88.3315C123.816 89.0966 123.636 89.7476 123.266 90.2844C122.897 90.8212 122.362 91.234 121.663 91.5228C120.967 91.8115 120.127 91.9645 119.142 91.9816C118.131 91.9993 117.246 91.8651 116.487 91.5791C115.732 91.2929 115.141 90.843 114.713 90.2291C114.289 89.6114 114.067 88.8159 114.046 87.8427L117.046 87.7903C117.071 88.146 117.165 88.4436 117.329 88.6832C117.492 88.9229 117.719 89.1026 118.009 89.2226C118.302 89.3425 118.65 89.3989 119.051 89.3919C119.388 89.386 119.67 89.3395 119.896 89.2522C120.121 89.1649 120.292 89.0464 120.407 88.8966C120.521 88.7468 120.579 88.5773 120.58 88.3878C120.573 88.2099 120.511 88.0556 120.395 87.9251C120.283 87.7906 120.099 87.6726 119.844 87.571C119.588 87.4656 119.243 87.3693 118.81 87.2822L117.647 87.0524C116.613 86.847 115.794 86.4881 115.19 85.9758C114.59 85.4597 114.284 84.7471 114.272 83.8381C114.255 83.0997 114.441 82.4505 114.829 81.8906C115.221 81.3269 115.768 80.8835 116.471 80.5606C117.177 80.2376 117.991 80.0681 118.911 80.052C119.85 80.0356 120.665 80.1786 121.356 80.481C122.047 80.7834 122.584 81.2173 122.965 81.7827C123.35 82.3442 123.55 83.0056 123.568 83.7668L120.545 83.8195Z" fill="white"/>
</g>
<path d="M14.4399 158C13.8899 158 13.4191 157.804 13.0274 157.413C12.6358 157.021 12.4399 156.55 12.4399 156V144C12.4399 143.067 12.7233 142.25 13.2899 141.55C13.8566 140.85 14.5733 140.383 15.4399 140.15V138H18.4399V140H22.4399V138H25.4399V140.15C26.3066 140.383 27.0233 140.85 27.5899 141.55C28.1566 142.25 28.4399 143.067 28.4399 144V156C28.4399 156.55 28.2441 157.021 27.8524 157.413C27.4608 157.804 26.9899 158 26.4399 158H14.4399V158M14.4399 156H26.4399V156V156V144C26.4399 143.45 26.2441 142.979 25.8524 142.588C25.4608 142.196 24.9899 142 24.4399 142H16.4399C15.8899 142 15.4191 142.196 15.0274 142.588C14.6358 142.979 14.4399 143.45 14.4399 144V156V156V156V156M22.9399 152H24.9399V148H15.9399V150H22.9399V152V152M20.4399 149V149V149V149V149V149V149V149V149V149V149V149V149V149" fill="#94A3B8"/>
<path d="M41.1899 142.364H45.1218L47.8263 148.955H47.9627L50.6672 142.364H54.599V154H51.5081V147.273H51.4172L48.8263 153.909H46.9627L44.3718 147.227H44.2809V154H41.1899V142.364ZM67.3689 148.182C67.3689 149.477 67.117 150.57 66.6132 151.46C66.1094 152.347 65.4295 153.019 64.5735 153.477C63.7174 153.932 62.7629 154.159 61.7098 154.159C60.6492 154.159 59.6909 153.93 58.8348 153.472C57.9826 153.009 57.3045 152.335 56.8007 151.449C56.3007 150.559 56.0507 149.47 56.0507 148.182C56.0507 146.886 56.3007 145.795 56.8007 144.909C57.3045 144.019 57.9826 143.347 58.8348 142.892C59.6909 142.434 60.6492 142.205 61.7098 142.205C62.7629 142.205 63.7174 142.434 64.5735 142.892C65.4295 143.347 66.1094 144.019 66.6132 144.909C67.117 145.795 67.3689 146.886 67.3689 148.182ZM64.1189 148.182C64.1189 147.485 64.0261 146.898 63.8405 146.42C63.6587 145.939 63.3879 145.576 63.028 145.33C62.6719 145.08 62.2326 144.955 61.7098 144.955C61.1871 144.955 60.7458 145.08 60.386 145.33C60.0299 145.576 59.7591 145.939 59.5735 146.42C59.3916 146.898 59.3007 147.485 59.3007 148.182C59.3007 148.879 59.3916 149.468 59.5735 149.949C59.7591 150.426 60.0299 150.79 60.386 151.04C60.7458 151.286 61.1871 151.409 61.7098 151.409C62.2326 151.409 62.6719 151.286 63.028 151.04C63.3879 150.79 63.6587 150.426 63.8405 149.949C64.0261 149.468 64.1189 148.879 64.1189 148.182ZM79.6942 146.727H76.4897C76.4669 146.462 76.4063 146.222 76.3078 146.006C76.2131 145.79 76.0806 145.604 75.9101 145.449C75.7434 145.29 75.5408 145.169 75.3022 145.085C75.0635 144.998 74.7927 144.955 74.4897 144.955C73.9594 144.955 73.5105 145.083 73.1431 145.341C72.7794 145.598 72.5029 145.968 72.3135 146.449C72.1279 146.93 72.0351 147.508 72.0351 148.182C72.0351 148.894 72.1298 149.491 72.3192 149.972C72.5124 150.449 72.7908 150.809 73.1544 151.051C73.5181 151.29 73.9556 151.409 74.4669 151.409C74.7586 151.409 75.02 151.373 75.251 151.301C75.4821 151.225 75.6828 151.117 75.8533 150.977C76.0237 150.837 76.162 150.669 76.2681 150.472C76.3779 150.271 76.4518 150.045 76.4897 149.795L79.6942 149.818C79.6563 150.311 79.5181 150.812 79.2794 151.324C79.0408 151.831 78.7018 152.301 78.2624 152.733C77.8268 153.161 77.287 153.506 76.6431 153.767C75.9991 154.028 75.251 154.159 74.3987 154.159C73.3306 154.159 72.3722 153.93 71.5237 153.472C70.6791 153.013 70.0105 152.339 69.5181 151.449C69.0294 150.559 68.7851 149.47 68.7851 148.182C68.7851 146.886 69.0351 145.795 69.5351 144.909C70.0351 144.019 70.7094 143.347 71.5578 142.892C72.4063 142.434 73.3533 142.205 74.3987 142.205C75.1336 142.205 75.8097 142.305 76.4272 142.506C77.0446 142.706 77.5862 143 78.0522 143.386C78.5181 143.769 78.8931 144.241 79.1772 144.801C79.4612 145.362 79.6336 146.004 79.6942 146.727ZM81.1274 154V142.364H84.2865V146.909H88.4684V142.364H91.6274V154H88.4684V149.455H84.2865V154H81.1274ZM96.2865 142.364V154H93.1274V142.364H96.2865ZM97.7837 154V142.364H100.943V151.455H105.647V154H97.7837ZM109.947 154H106.538L110.379 142.364H114.697L118.538 154H115.129L112.583 145.568H112.492L109.947 154ZM109.311 149.409H115.72V151.773H109.311V149.409Z" fill="#94A3B8"/>
<path d="M25.4399 205.9V204.2C25.9899 203.967 26.5524 203.792 27.1274 203.675C27.7024 203.558 28.3066 203.5 28.9399 203.5C29.3733 203.5 29.7983 203.533 30.2149 203.6C30.6316 203.667 31.0399 203.75 31.4399 203.85V205.45C31.0399 205.3 30.6358 205.188 30.2274 205.113C29.8191 205.038 29.3899 205 28.9399 205C28.3066 205 27.6983 205.079 27.1149 205.238C26.5316 205.396 25.9733 205.617 25.4399 205.9V205.9M25.4399 211.4V209.7C25.9899 209.467 26.5524 209.292 27.1274 209.175C27.7024 209.058 28.3066 209 28.9399 209C29.3733 209 29.7983 209.033 30.2149 209.1C30.6316 209.167 31.0399 209.25 31.4399 209.35V210.95C31.0399 210.8 30.6358 210.688 30.2274 210.613C29.8191 210.538 29.3899 210.5 28.9399 210.5C28.3066 210.5 27.6983 210.575 27.1149 210.725C26.5316 210.875 25.9733 211.1 25.4399 211.4V211.4M25.4399 208.65V206.95C25.9899 206.717 26.5524 206.542 27.1274 206.425C27.7024 206.308 28.3066 206.25 28.9399 206.25C29.3733 206.25 29.7983 206.283 30.2149 206.35C30.6316 206.417 31.0399 206.5 31.4399 206.6V208.2C31.0399 208.05 30.6358 207.938 30.2274 207.863C29.8191 207.788 29.3899 207.75 28.9399 207.75C28.3066 207.75 27.6983 207.829 27.1149 207.988C26.5316 208.146 25.9733 208.367 25.4399 208.65V208.65M17.9399 212C18.7233 212 19.4858 212.087 20.2274 212.262C20.9691 212.437 21.7066 212.7 22.4399 213.05V203.2C21.7566 202.8 21.0316 202.5 20.2649 202.3C19.4983 202.1 18.7233 202 17.9399 202C17.3399 202 16.7441 202.058 16.1524 202.175C15.5608 202.292 14.9899 202.467 14.4399 202.7V202.7V202.7V212.6V212.6V212.6C15.0233 212.4 15.6024 212.25 16.1774 212.15C16.7524 212.05 17.3399 212 17.9399 212V212M24.4399 213.05C25.1733 212.7 25.9108 212.437 26.6524 212.262C27.3941 212.087 28.1566 212 28.9399 212C29.5399 212 30.1274 212.05 30.7024 212.15C31.2774 212.25 31.8566 212.4 32.4399 212.6V212.6V212.6V202.7V202.7V202.7C31.8899 202.467 31.3191 202.292 30.7274 202.175C30.1358 202.058 29.5399 202 28.9399 202C28.1566 202 27.3816 202.1 26.6149 202.3C25.8483 202.5 25.1233 202.8 24.4399 203.2V213.05V213.05M23.4399 216C22.6399 215.367 21.7733 214.875 20.8399 214.525C19.9066 214.175 18.9399 214 17.9399 214C17.2399 214 16.5524 214.092 15.8774 214.275C15.2024 214.458 14.5566 214.717 13.9399 215.05C13.5899 215.233 13.2524 215.225 12.9274 215.025C12.6024 214.825 12.4399 214.533 12.4399 214.15V202.1C12.4399 201.917 12.4858 201.742 12.5774 201.575C12.6691 201.408 12.8066 201.283 12.9899 201.2C13.7566 200.8 14.5566 200.5 15.3899 200.3C16.2233 200.1 17.0733 200 17.9399 200C18.9066 200 19.8524 200.125 20.7774 200.375C21.7024 200.625 22.5899 201 23.4399 201.5C24.2899 201 25.1774 200.625 26.1024 200.375C27.0274 200.125 27.9733 200 28.9399 200C29.8066 200 30.6566 200.1 31.4899 200.3C32.3233 200.5 33.1233 200.8 33.8899 201.2C34.0733 201.283 34.2108 201.408 34.3024 201.575C34.3941 201.742 34.4399 201.917 34.4399 202.1V214.15C34.4399 214.533 34.2774 214.825 33.9524 215.025C33.6274 215.225 33.2899 215.233 32.9399 215.05C32.3233 214.717 31.6774 214.458 31.0024 214.275C30.3274 214.092 29.6399 214 28.9399 214C27.9399 214 26.9733 214.175 26.0399 214.525C25.1066 214.875 24.2399 215.367 23.4399 216V216M18.4399 207.65V207.65V207.65V207.65V207.65V207.65V207.65V207.65V207.65V207.65V207.65V207.65V207.65V207.65V207.65V207.65" fill="#94A3B8"/>
<path d="M47.1899 214V202.364H52.2354C53.1218 202.364 53.8661 202.483 54.4684 202.722C55.0744 202.96 55.5309 203.297 55.8377 203.733C56.1483 204.169 56.3036 204.682 56.3036 205.273C56.3036 205.701 56.2089 206.091 56.0195 206.443C55.8339 206.795 55.5725 207.091 55.2354 207.33C54.8983 207.564 54.5043 207.727 54.0536 207.818V207.932C54.5536 207.951 55.0081 208.078 55.4172 208.312C55.8263 208.544 56.1521 208.864 56.3945 209.273C56.6369 209.678 56.7581 210.155 56.7581 210.705C56.7581 211.341 56.5915 211.907 56.2581 212.403C55.9286 212.9 55.4589 213.29 54.849 213.574C54.2392 213.858 53.5119 214 52.6672 214H47.1899ZM50.349 211.477H51.8263C52.3566 211.477 52.7543 211.379 53.0195 211.182C53.2846 210.981 53.4172 210.686 53.4172 210.295C53.4172 210.023 53.3547 209.792 53.2297 209.602C53.1047 209.413 52.9267 209.269 52.6956 209.17C52.4684 209.072 52.1937 209.023 51.8718 209.023H50.349V211.477ZM50.349 207.068H51.6445C51.921 207.068 52.1653 207.025 52.3774 206.938C52.5896 206.85 52.7543 206.725 52.8718 206.562C52.993 206.396 53.0536 206.193 53.0536 205.955C53.0536 205.595 52.9248 205.32 52.6672 205.131C52.4096 204.938 52.0839 204.841 51.6899 204.841H50.349V207.068ZM61.0365 202.364V214H57.8774V202.364H61.0365ZM62.2155 204.909V202.364H72.3291V204.909H68.8291V214H65.7155V204.909H62.2155ZM75.072 214H71.663L75.5039 202.364H79.822L83.663 214H80.2539L77.7084 205.568H77.6175L75.072 214ZM74.4357 209.409H80.8448V211.773H74.4357V209.409ZM76.6175 201.273L77.7084 198.727H80.3902L78.6857 201.273H76.6175ZM95.1005 206.727H91.8959C91.8732 206.462 91.8126 206.222 91.7141 206.006C91.6194 205.79 91.4868 205.604 91.3164 205.449C91.1497 205.29 90.947 205.169 90.7084 205.085C90.4698 204.998 90.1989 204.955 89.8959 204.955C89.3656 204.955 88.9167 205.083 88.5493 205.341C88.1857 205.598 87.9092 205.968 87.7198 206.449C87.5342 206.93 87.4414 207.508 87.4414 208.182C87.4414 208.894 87.5361 209.491 87.7255 209.972C87.9186 210.449 88.197 210.809 88.5607 211.051C88.9243 211.29 89.3618 211.409 89.8732 211.409C90.1648 211.409 90.4262 211.373 90.6573 211.301C90.8883 211.225 91.0891 211.117 91.2595 210.977C91.43 210.837 91.5683 210.669 91.6743 210.472C91.7842 210.271 91.858 210.045 91.8959 209.795L95.1005 209.818C95.0626 210.311 94.9243 210.812 94.6857 211.324C94.447 211.831 94.108 212.301 93.6686 212.733C93.233 213.161 92.6933 213.506 92.0493 213.767C91.4054 214.028 90.6573 214.159 89.805 214.159C88.7368 214.159 87.7785 213.93 86.93 213.472C86.0853 213.013 85.4167 212.339 84.9243 211.449C84.4357 210.559 84.1914 209.47 84.1914 208.182C84.1914 206.886 84.4414 205.795 84.9414 204.909C85.4414 204.019 86.1156 203.347 86.9641 202.892C87.8126 202.434 88.7595 202.205 89.805 202.205C90.5398 202.205 91.216 202.305 91.8334 202.506C92.4508 202.706 92.9925 203 93.4584 203.386C93.9243 203.769 94.2993 204.241 94.5834 204.801C94.8675 205.362 95.0398 206.004 95.1005 206.727ZM107.806 208.182C107.806 209.477 107.555 210.57 107.051 211.46C106.547 212.347 105.867 213.019 105.011 213.477C104.155 213.932 103.2 214.159 102.147 214.159C101.087 214.159 100.128 213.93 99.2723 213.472C98.4201 213.009 97.742 212.335 97.2382 211.449C96.7382 210.559 96.4882 209.47 96.4882 208.182C96.4882 206.886 96.7382 205.795 97.2382 204.909C97.742 204.019 98.4201 203.347 99.2723 202.892C100.128 202.434 101.087 202.205 102.147 202.205C103.2 202.205 104.155 202.434 105.011 202.892C105.867 203.347 106.547 204.019 107.051 204.909C107.555 205.795 107.806 206.886 107.806 208.182ZM104.556 208.182C104.556 207.485 104.464 206.898 104.278 206.42C104.096 205.939 103.825 205.576 103.466 205.33C103.109 205.08 102.67 204.955 102.147 204.955C101.625 204.955 101.183 205.08 100.823 205.33C100.467 205.576 100.197 205.939 100.011 206.42C99.8291 206.898 99.7382 207.485 99.7382 208.182C99.7382 208.879 99.8291 209.468 100.011 209.949C100.197 210.426 100.467 210.79 100.823 211.04C101.183 211.286 101.625 211.409 102.147 211.409C102.67 211.409 103.109 211.286 103.466 211.04C103.825 210.79 104.096 210.426 104.278 209.949C104.464 209.468 104.556 208.879 104.556 208.182ZM109.268 214V202.364H114.291C115.154 202.364 115.91 202.521 116.558 202.835C117.206 203.15 117.709 203.602 118.069 204.193C118.429 204.784 118.609 205.492 118.609 206.318C118.609 207.152 118.423 207.854 118.052 208.426C117.685 208.998 117.168 209.43 116.501 209.722C115.838 210.013 115.064 210.159 114.177 210.159H111.177V207.705H113.541C113.912 207.705 114.228 207.659 114.49 207.568C114.755 207.473 114.957 207.324 115.098 207.119C115.242 206.915 115.314 206.648 115.314 206.318C115.314 205.985 115.242 205.714 115.098 205.506C114.957 205.294 114.755 205.138 114.49 205.04C114.228 204.937 113.912 204.886 113.541 204.886H112.427V214H109.268ZM116.086 208.659L118.995 214H115.564L112.723 208.659H116.086ZM122.978 214H119.569L123.41 202.364H127.728L131.569 214H128.16L125.615 205.568H125.524L122.978 214ZM122.342 209.409H128.751V211.773H122.342V209.409Z" fill="#94A3B8"/>
<defs>
<filter id="filter0_d_154_1396" x="0" y="58.0805" width="224.874" height="59.8316" filterUnits="userSpaceOnUse" color-interpolation-filters="sRGB">
<feFlood flood-opacity="0" result="BackgroundImageFix"/>
<feColorMatrix in="SourceAlpha" type="matrix" values="0 0 0 0 0 0 0 0 0 0 0 0 0 0 0 0 0 0 127 0" result="hardAlpha"/>
<feOffset dx="4" dy="4"/>
<feComposite in2="hardAlpha" operator="out"/>
<feColorMatrix type="matrix" values="0 0 0 0 0 0 0 0 0 0 0 0 0 0 0 0 0 0 1 0"/>
<feBlend mode="normal" in2="BackgroundImageFix" result="effect1_dropShadow_154_1396"/>
<feBlend mode="normal" in="SourceGraphic" in2="effect1_dropShadow_154_1396" result="shape"/>
</filter>
</defs>
</svg>
