<svg width="57" height="20" viewBox="0 0 57 20" fill="none" xmlns="http://www.w3.org/2000/svg">
<path d="M3.85 15.1C4.7 14.45 5.65 13.9375 6.7 13.5625C7.75 13.1875 8.85 13 10 13C11.15 13 12.25 13.1875 13.3 13.5625C14.35 13.9375 15.3 14.45 16.15 15.1C16.7333 14.4167 17.1875 13.6417 17.5125 12.775C17.8375 11.9083 18 10.9833 18 10C18 7.78333 17.2208 5.89583 15.6625 4.3375C14.1042 2.77917 12.2167 2 10 2C7.78333 2 5.89583 2.77917 4.3375 4.3375C2.77917 5.89583 2 7.78333 2 10C2 10.9833 2.1625 11.9083 2.4875 12.775C2.8125 13.6417 3.26667 14.4167 3.85 15.1V15.1M10 11C9.01667 11 8.1875 10.6625 7.5125 9.9875C6.8375 9.3125 6.5 8.48333 6.5 7.5C6.5 6.51667 6.8375 5.6875 7.5125 5.0125C8.1875 4.3375 9.01667 4 10 4C10.9833 4 11.8125 4.3375 12.4875 5.0125C13.1625 5.6875 13.5 6.51667 13.5 7.5C13.5 8.48333 13.1625 9.3125 12.4875 9.9875C11.8125 10.6625 10.9833 11 10 11V11M10 20C8.61667 20 7.31667 19.7375 6.1 19.2125C4.88333 18.6875 3.825 17.975 2.925 17.075C2.025 16.175 1.3125 15.1167 0.7875 13.9C0.2625 12.6833 0 11.3833 0 10C0 8.61667 0.2625 7.31667 0.7875 6.1C1.3125 4.88333 2.025 3.825 2.925 2.925C3.825 2.025 4.88333 1.3125 6.1 0.7875C7.31667 0.2625 8.61667 0 10 0C11.3833 0 12.6833 0.2625 13.9 0.7875C15.1167 1.3125 16.175 2.025 17.075 2.925C17.975 3.825 18.6875 4.88333 19.2125 6.1C19.7375 7.31667 20 8.61667 20 10C20 11.3833 19.7375 12.6833 19.2125 13.9C18.6875 15.1167 17.975 16.175 17.075 17.075C16.175 17.975 15.1167 18.6875 13.9 19.2125C12.6833 19.7375 11.3833 20 10 20V20M10 18C10.8833 18 11.7167 17.8708 12.5 17.6125C13.2833 17.3542 14 16.9833 14.65 16.5C14 16.0167 13.2833 15.6458 12.5 15.3875C11.7167 15.1292 10.8833 15 10 15C9.11667 15 8.28333 15.1292 7.5 15.3875C6.71667 15.6458 6 16.0167 5.35 16.5C6 16.9833 6.71667 17.3542 7.5 17.6125C8.28333 17.8708 9.11667 18 10 18V18M10 9C10.4333 9 10.7917 8.85833 11.075 8.575C11.3583 8.29167 11.5 7.93333 11.5 7.5C11.5 7.06667 11.3583 6.70833 11.075 6.425C10.7917 6.14167 10.4333 6 10 6C9.56667 6 9.20833 6.14167 8.925 6.425C8.64167 6.70833 8.5 7.06667 8.5 7.5C8.5 7.93333 8.64167 8.29167 8.925 8.575C9.20833 8.85833 9.56667 9 10 9V9M10 7.5V7.5V7.5V7.5V7.5V7.5V7.5V7.5V7.5V7.5M10 16.5V16.5V16.5V16.5V16.5V16.5V16.5V16.5V16.5V16.5" fill="white"/>
<path d="M43.29 20L42.89 16.8C42.6733 16.7167 42.4692 16.6167 42.2775 16.5C42.0858 16.3833 41.8983 16.2583 41.715 16.125L38.74 17.375L35.99 12.625L38.565 10.675C38.5483 10.5583 38.54 10.4458 38.54 10.3375C38.54 10.2292 38.54 10.1167 38.54 10C38.54 9.88333 38.54 9.77083 38.54 9.6625C38.54 9.55417 38.5483 9.44167 38.565 9.325L35.99 7.375L38.74 2.625L41.715 3.875C41.8983 3.74167 42.09 3.61667 42.29 3.5C42.49 3.38333 42.69 3.28333 42.89 3.2L43.29 0H48.79L49.19 3.2C49.4067 3.28333 49.6108 3.38333 49.8025 3.5C49.9942 3.61667 50.1817 3.74167 50.365 3.875L53.34 2.625L56.09 7.375L53.515 9.325C53.5317 9.44167 53.54 9.55417 53.54 9.6625C53.54 9.77083 53.54 9.88333 53.54 10C53.54 10.1167 53.54 10.2292 53.54 10.3375C53.54 10.4458 53.5233 10.5583 53.49 10.675L56.065 12.625L53.315 17.375L50.365 16.125C50.1817 16.2583 49.99 16.3833 49.79 16.5C49.59 16.6167 49.39 16.7167 49.19 16.8L48.79 20H43.29V20M45.04 18H47.015L47.365 15.35C47.8817 15.2167 48.3608 15.0208 48.8025 14.7625C49.2442 14.5042 49.6483 14.1917 50.015 13.825L52.49 14.85L53.465 13.15L51.315 11.525C51.3983 11.2917 51.4567 11.0458 51.49 10.7875C51.5233 10.5292 51.54 10.2667 51.54 10C51.54 9.73333 51.5233 9.47083 51.49 9.2125C51.4567 8.95417 51.3983 8.70833 51.315 8.475L53.465 6.85L52.49 5.15L50.015 6.2C49.6483 5.81667 49.2442 5.49583 48.8025 5.2375C48.3608 4.97917 47.8817 4.78333 47.365 4.65L47.04 2H45.065L44.715 4.65C44.1983 4.78333 43.7192 4.97917 43.2775 5.2375C42.8358 5.49583 42.4317 5.80833 42.065 6.175L39.59 5.15L38.615 6.85L40.765 8.45C40.6817 8.7 40.6233 8.95 40.59 9.2C40.5567 9.45 40.54 9.71667 40.54 10C40.54 10.2667 40.5567 10.525 40.59 10.775C40.6233 11.025 40.6817 11.275 40.765 11.525L38.615 13.15L39.59 14.85L42.065 13.8C42.4317 14.1833 42.8358 14.5042 43.2775 14.7625C43.7192 15.0208 44.1983 15.2167 44.715 15.35L45.04 18V18M46.09 13.5C47.0567 13.5 47.8817 13.1583 48.565 12.475C49.2483 11.7917 49.59 10.9667 49.59 10C49.59 9.03333 49.2483 8.20833 48.565 7.525C47.8817 6.84167 47.0567 6.5 46.09 6.5C45.1067 6.5 44.2775 6.84167 43.6025 7.525C42.9275 8.20833 42.59 9.03333 42.59 10C42.59 10.9667 42.9275 11.7917 43.6025 12.475C44.2775 13.1583 45.1067 13.5 46.09 13.5V13.5M46.04 10V10V10V10V10V10V10V10V10V10V10V10V10V10V10V10V10V10V10V10V10V10V10V10V10V10V10V10V10V10V10V10V10V10V10V10" fill="white"/>
</svg>
