<svg width="861" height="47" viewBox="0 0 861 47" fill="none" xmlns="http://www.w3.org/2000/svg">
<path d="M14.4137 21.8586L8.84659 21.9557L9.9901 20.7716L6.66445 37.8962L4.62476 37.9318L7.95041 20.8072L8.65462 21.9591L3.09946 22.056L3.45199 20.2496L14.7663 20.0521L14.4137 21.8586ZM17.1672 37.941C16.2074 37.9577 15.4405 37.7991 14.8666 37.465C14.2925 37.123 13.8767 36.6822 13.6193 36.1426C13.3617 35.595 13.2277 35.0213 13.2172 34.4214C13.2092 33.9654 13.2411 33.4968 13.3127 33.0155C13.3921 32.526 13.5127 31.8678 13.6743 31.0409L14.8531 25.0074L16.9048 24.9716L15.7813 30.74C15.6269 31.5189 15.51 32.157 15.4307 32.6545C15.3512 33.1439 15.3148 33.5806 15.3215 33.9646C15.3323 34.5805 15.5331 35.085 15.924 35.4783C16.315 35.8715 16.9384 36.0607 17.7942 36.0457C18.5301 36.0329 19.2182 35.8008 19.8584 35.3496C20.5065 34.8902 21.0527 34.3246 21.497 33.6527C21.9412 32.9729 22.2255 32.2998 22.3499 31.6335L23.5703 32.1043C23.4306 32.8109 23.1708 33.5075 22.7907 34.1942C22.4185 34.8728 21.9452 35.4932 21.3709 36.0553C20.8047 36.6173 20.1644 37.0685 19.4503 37.409C18.7361 37.7495 17.9751 37.9269 17.1672 37.941ZM21.1706 37.643L23.6598 24.8536L25.6995 24.818L23.2103 37.6074L21.1706 37.643ZM31.6655 37.6999C30.9776 37.7119 30.3405 37.651 29.754 37.5172C29.1676 37.3834 28.6561 37.1883 28.2196 36.9319C27.7829 36.6675 27.4413 36.3494 27.1948 35.9776C26.9483 35.6059 26.821 35.1881 26.8129 34.7241C26.8101 34.5641 26.8228 34.3799 26.8512 34.1714C26.8874 33.9547 26.9206 33.7901 26.9506 33.6776L29.0023 33.6417C28.9796 33.7142 28.9574 33.8186 28.9358 33.955C28.9221 34.0912 28.916 34.1993 28.9174 34.2793C28.9266 34.8072 29.1936 35.2066 29.7184 35.4775C30.2431 35.7404 30.9774 35.8636 31.9212 35.8471C32.5211 35.8367 33.104 35.7665 33.6698 35.6366C34.2435 35.4986 34.7157 35.2783 35.0865 34.9758C35.4573 34.6733 35.6381 34.258 35.6289 33.7301C35.6192 33.1782 35.3681 32.7745 34.8756 32.5191C34.3911 32.2635 33.5953 32.0573 32.4884 31.9006C31.7023 31.7863 30.9832 31.6109 30.3309 31.3742C29.6866 31.1294 29.1686 30.7904 28.7769 30.3572C28.3932 29.9158 28.1953 29.3512 28.1833 28.6633C28.1711 27.9674 28.3246 27.3606 28.6436 26.843C28.9626 26.3253 29.3951 25.8937 29.9412 25.5481C30.4952 25.2024 31.1148 24.9436 31.7999 24.7716C32.4929 24.5914 33.2033 24.495 33.9312 24.4823C34.7631 24.4678 35.5292 24.5825 36.2296 24.8263C36.9299 25.0701 37.4922 25.4243 37.9164 25.889C38.3404 26.3457 38.5579 26.8899 38.569 27.5219C38.5729 27.7458 38.564 27.926 38.5424 28.0624C38.5288 28.1987 38.5031 28.3311 38.4653 28.4598L36.4256 28.4954C36.4557 28.3829 36.474 28.2905 36.4808 28.2184C36.4874 28.1383 36.4898 28.0462 36.488 27.9422C36.4813 27.5583 36.3478 27.2486 36.0877 27.0131C35.8354 26.7694 35.5042 26.5912 35.0942 26.4783C34.6842 26.3655 34.2352 26.3133 33.7473 26.3218C33.1714 26.3319 32.6126 26.4096 32.0711 26.5551C31.5294 26.6926 31.0851 26.9084 30.7382 27.2025C30.3911 27.4886 30.2215 27.8556 30.2293 28.3035C30.2392 28.8714 30.5145 29.2827 31.055 29.5373C31.5954 29.7839 32.3512 29.9947 33.3224 30.1698C33.9164 30.2795 34.4747 30.4097 34.9974 30.5606C35.5202 30.7115 35.9796 30.9076 36.3759 31.1487C36.7722 31.3898 37.0815 31.6924 37.3039 32.0566C37.5342 32.4127 37.6539 32.8546 37.6631 33.3826C37.6764 34.1424 37.5157 34.7933 37.1811 35.3353C36.8465 35.8772 36.3902 36.3212 35.8121 36.6674C35.242 37.0054 34.5982 37.2566 33.881 37.4212C33.1639 37.5937 32.4254 37.6866 31.6655 37.6999ZM51.4991 37.3537C50.1313 37.3776 49.016 36.969 48.1532 36.1279C47.2902 35.2788 46.8444 34.0344 46.8158 32.3947C46.7965 31.2908 46.9504 30.248 47.2773 29.2661C47.6121 28.2761 48.0888 27.3997 48.7076 26.6368C49.3344 25.8737 50.08 25.2726 50.9445 24.8335C51.8168 24.3862 52.7769 24.1534 53.8247 24.1351C54.6886 24.12 55.4717 24.2904 56.174 24.6462C56.8762 24.994 57.437 25.4923 57.8564 26.141C58.2756 26.7818 58.4929 27.5421 58.5083 28.422C58.5116 28.614 58.4995 28.8342 58.4718 29.0827C58.4441 29.3313 58.408 29.5519 58.3633 29.7447L57.0086 29.8284C57.0385 29.7078 57.0599 29.5595 57.0728 29.3832C57.0937 29.2068 57.1032 29.0626 57.1013 28.9506C57.0912 28.3747 56.9423 27.8652 56.6545 27.4222C56.3666 26.9712 55.9805 26.6218 55.4961 26.3743C55.0115 26.1187 54.4693 25.9961 53.8694 26.0066C53.0615 26.0207 52.3445 26.1972 51.7183 26.5362C51.1 26.8671 50.5798 27.3202 50.1578 27.8957C49.7356 28.4631 49.419 29.1167 49.2079 29.8565C48.9966 30.5883 48.898 31.3582 48.9121 32.166C48.9316 33.2779 49.222 34.1009 49.7834 34.6352C50.3448 35.1695 51.0974 35.4284 52.0413 35.4119C52.7532 35.3995 53.4341 35.2156 54.084 34.8602C54.7419 34.5047 55.3057 34.0347 55.7756 33.4505C56.2453 32.8582 56.5499 32.2008 56.6893 31.4782L58.2737 31.4866C58.0607 32.5784 57.6179 33.5663 56.9452 34.4502C56.2724 35.3261 55.4565 36.0244 54.4974 36.5452C53.5464 37.0659 52.5469 37.3354 51.4991 37.3537ZM55.5983 37.0421L59.2543 18.2194L61.306 18.1836L57.65 37.0063L55.5983 37.0421ZM62.9979 31.3561L63.35 29.5257L73.2005 29.3537L72.851 29.9599C72.8961 29.7911 72.9291 29.6185 72.95 29.4421C72.9789 29.2656 72.9906 29.0173 72.985 28.6974C72.975 28.1215 72.842 27.6077 72.5861 27.1561C72.33 26.6965 71.9437 26.3392 71.4272 26.0842C70.9185 25.821 70.2682 25.6963 69.4764 25.7102C68.6125 25.7252 67.8353 25.8908 67.1447 26.2069C66.4539 26.515 65.8614 26.9454 65.3669 27.4982C64.8805 28.0507 64.5077 28.6933 64.2484 29.426C63.9972 30.1585 63.879 30.9527 63.8939 31.8085C63.9065 32.5284 64.0493 33.146 64.3223 33.6613C64.6034 34.1765 65.0183 34.5693 65.5671 34.8398C66.1238 35.1021 66.818 35.226 67.6499 35.2115C68.3538 35.1992 68.9645 35.1205 69.4821 34.9755C70.0075 34.8223 70.4481 34.6266 70.804 34.3883C71.1678 34.1419 71.4552 33.8769 71.6663 33.5932C71.8854 33.3093 72.0364 33.0266 72.1195 32.7451L74.1832 32.7091C74.0802 33.223 73.8491 33.7351 73.4899 34.2454C73.1308 34.7558 72.6589 35.2241 72.0742 35.6503C71.4895 36.0686 70.8033 36.4086 70.0157 36.6704C69.2282 36.9322 68.3505 37.0716 67.3826 37.0884C66.2548 37.1081 65.2871 36.905 64.4795 36.479C63.6718 36.045 63.0491 35.4358 62.6114 34.6513C62.1735 33.8589 61.9453 32.9347 61.9269 31.8789C61.9073 30.759 62.0892 29.7197 62.4725 28.7609C62.8637 27.7939 63.413 26.9482 64.1205 26.2237C64.8278 25.4913 65.654 24.9208 66.599 24.5122C67.5439 24.0956 68.5602 23.8779 69.6481 23.8589C70.7599 23.8395 71.7077 24.047 72.4914 24.4814C73.2751 24.9157 73.8776 25.5133 74.2989 26.2741C74.7203 27.0349 74.9394 27.8992 74.9563 28.867C74.9623 29.211 74.9333 29.6115 74.8693 30.0687C74.8051 30.5179 74.7314 30.8792 74.6481 31.1527L62.9979 31.3561ZM82.9071 36.8055C81.2834 36.8338 79.9794 36.3885 78.9952 35.4695C78.0109 34.5426 77.5042 33.2472 77.4751 31.5835C77.4553 30.4476 77.6371 29.4003 78.0204 28.4415C78.4116 27.4745 78.957 26.6328 79.6566 25.9165C80.364 25.1921 81.1944 24.6295 82.1475 24.2288C83.1005 23.8201 84.1329 23.6061 85.2448 23.5866C86.3566 23.5672 87.2882 23.763 88.0394 24.174C88.7906 24.5769 89.3558 25.0991 89.7351 25.7406C90.1223 26.3819 90.3219 27.0466 90.3339 27.7345C90.3367 27.8944 90.335 28.0265 90.3289 28.1306C90.3227 28.2347 90.3121 28.3189 90.2973 28.3832L88.2576 28.4188C88.2649 28.3787 88.2681 28.3346 88.2673 28.2866C88.2743 28.2305 88.2773 28.1744 88.2763 28.1184C88.2663 27.5425 88.1338 27.0568 87.8788 26.6611C87.6237 26.2575 87.2544 25.9559 86.7709 25.7563C86.2872 25.5488 85.6934 25.4511 84.9895 25.4634C84.1576 25.4779 83.4003 25.6392 82.7176 25.9471C82.0427 26.2469 81.4659 26.6651 80.9872 27.2015C80.5084 27.7299 80.1432 28.3564 79.8918 29.0809C79.6403 29.7974 79.522 30.5836 79.537 31.4395C79.5575 32.6153 79.8889 33.4976 80.5313 34.0865C81.1815 34.6673 82.0506 34.9481 83.1384 34.9291C84.0423 34.9134 84.7998 34.7641 85.4109 34.4814C86.0221 34.1987 86.5037 33.8302 86.8559 33.376C87.2159 32.9137 87.4633 32.4213 87.5982 31.8988L89.6259 31.8634C89.5325 32.4732 89.3149 33.0691 88.973 33.6511C88.6311 34.2332 88.1722 34.7573 87.5962 35.2234C87.0283 35.6894 86.3507 36.0653 85.5636 36.351C84.7765 36.6368 83.891 36.7883 82.9071 36.8055ZM92.0422 36.406L94.5193 23.6168L96.547 23.5814L94.0699 36.3706L92.0422 36.406ZM96.304 20.6572C95.944 20.6635 95.6344 20.5729 95.3751 20.3854C95.1156 20.1899 94.9829 19.9201 94.9769 19.5762C94.9723 19.3122 95.0364 19.0871 95.1691 18.9007C95.3018 18.7064 95.4792 18.5593 95.7015 18.4594C95.9317 18.3513 96.1747 18.2951 96.4307 18.2906C96.7826 18.2845 97.0883 18.3792 97.3478 18.5747C97.6071 18.7622 97.7397 19.0239 97.7455 19.3598C97.7501 19.6238 97.6861 19.8529 97.5535 20.0473C97.4207 20.2336 97.2433 20.3808 97.0211 20.4886C96.799 20.5965 96.5599 20.6527 96.304 20.6572ZM102.858 36.4572C102.17 36.4692 101.533 36.4083 100.946 36.2746C100.36 36.1408 99.8484 35.9457 99.4119 35.6892C98.9752 35.4248 98.6336 35.1067 98.3871 34.735C98.1406 34.3632 98.0133 33.9454 98.0052 33.4815C98.0024 33.3215 98.0152 33.1372 98.0435 32.9287C98.0797 32.712 98.1129 32.5474 98.1429 32.4349L100.195 32.3991C100.172 32.4715 100.15 32.5759 100.128 32.7123C100.114 32.8486 100.108 32.9567 100.11 33.0367C100.119 33.5646 100.386 33.964 100.911 34.2349C101.435 34.4977 102.17 34.621 103.114 34.6045C103.713 34.594 104.296 34.5238 104.862 34.3939C105.436 34.2559 105.908 34.0356 106.279 33.7331C106.65 33.4306 106.83 33.0154 106.821 32.4874C106.812 31.9355 106.56 31.5319 106.068 31.2764C105.583 31.0208 104.788 30.8147 103.681 30.658C102.895 30.5437 102.175 30.3682 101.523 30.1315C100.879 29.8868 100.361 29.5477 99.9692 29.1145C99.5855 28.6731 99.3876 28.1085 99.3756 27.4206C99.3634 26.7247 99.5169 26.118 99.8359 25.6003C100.155 25.0827 100.587 24.651 101.133 24.3055C101.688 23.9597 102.307 23.7009 102.992 23.5289C103.685 23.3488 104.396 23.2524 105.124 23.2397C105.955 23.2251 106.721 23.3398 107.422 23.5836C108.122 23.8274 108.684 24.1817 109.109 24.6463C109.533 25.103 109.75 25.6473 109.761 26.2792C109.765 26.5032 109.756 26.6833 109.735 26.8197C109.721 26.956 109.695 27.0885 109.658 27.2171L107.618 27.2527C107.648 27.1402 107.666 27.0479 107.673 26.9757C107.68 26.8956 107.682 26.8036 107.68 26.6996C107.674 26.3156 107.54 26.0059 107.28 25.7704C107.028 25.5268 106.697 25.3485 106.287 25.2357C105.876 25.1228 105.428 25.0706 104.94 25.0792C104.364 25.0892 103.805 25.167 103.263 25.3124C102.722 25.4499 102.277 25.6657 101.93 25.9598C101.583 26.2459 101.414 26.6129 101.422 27.0609C101.432 27.6288 101.707 28.04 102.247 28.2946C102.788 28.5412 103.543 28.7521 104.515 28.9272C105.109 29.0368 105.667 29.1671 106.19 29.318C106.712 29.4689 107.172 29.6649 107.568 29.906C107.964 30.1471 108.274 30.4498 108.496 30.814C108.726 31.17 108.846 31.612 108.855 32.1399C108.869 32.8998 108.708 33.5507 108.373 34.0926C108.039 34.6345 107.582 35.0786 107.004 35.4247C106.434 35.7627 105.791 36.014 105.073 36.1785C104.356 36.3511 103.618 36.444 102.858 36.4572ZM111.469 36.0669L113.946 23.2777L115.974 23.2423L113.497 36.0315L111.469 36.0669ZM115.731 20.3181C115.371 20.3244 115.061 20.2338 114.802 20.0463C114.542 19.8508 114.41 19.581 114.404 19.2371C114.399 18.9731 114.463 18.748 114.596 18.5616C114.728 18.3673 114.906 18.2202 115.128 18.1203C115.358 18.0122 115.601 17.956 115.857 17.9515C116.209 17.9454 116.515 18.0401 116.775 18.2356C117.034 18.4231 117.166 18.6848 117.172 19.0207C117.177 19.2847 117.113 19.5139 116.98 19.7082C116.847 19.8945 116.67 20.0417 116.448 20.1496C116.226 20.2574 115.987 20.3136 115.731 20.3181ZM123.472 36.0974C122.353 36.1169 121.385 35.9138 120.569 35.488C119.754 35.0621 119.123 34.461 118.678 33.6847C118.232 32.9084 118 32.0003 117.982 30.9604C117.962 29.8326 118.14 28.7813 118.515 27.8066C118.898 26.8318 119.439 25.9822 120.139 25.2579C120.838 24.5256 121.656 23.9512 122.593 23.5348C123.538 23.1183 124.562 22.9004 125.666 22.8811C126.794 22.8614 127.766 23.0685 128.581 23.5023C129.397 23.9361 130.028 24.5412 130.473 25.3176C130.919 26.0859 131.15 26.97 131.168 27.9699C131.188 29.1457 131.003 30.2251 130.612 31.208C130.221 32.191 129.672 33.0447 128.965 33.7692C128.265 34.4935 127.443 35.0599 126.498 35.4685C125.561 35.8689 124.552 36.0785 123.472 36.0974ZM123.609 34.2707C124.656 34.2524 125.596 33.988 126.427 33.4774C127.266 32.9587 127.926 32.2471 128.406 31.3426C128.886 30.438 129.116 29.3859 129.095 28.1861C129.082 27.4502 128.935 26.8206 128.654 26.2975C128.381 25.7742 127.982 25.3771 127.457 25.1062C126.94 24.8272 126.302 24.6943 125.542 24.7075C124.726 24.7218 123.981 24.8868 123.306 25.2026C122.631 25.5105 122.047 25.9367 121.552 26.4814C121.066 27.026 120.689 27.6607 120.421 28.3855C120.162 29.1101 120.04 29.8964 120.054 30.7442C120.074 31.8801 120.386 32.7588 120.989 33.3803C121.599 33.9938 122.473 34.2906 123.609 34.2707ZM142.167 35.531L143.393 29.4007C143.533 28.7102 143.635 28.1563 143.7 27.7391C143.772 27.3138 143.806 26.9371 143.8 26.6092C143.789 25.9613 143.552 25.4533 143.089 25.0854C142.635 24.7172 141.952 24.5411 141.04 24.557C140.36 24.5689 139.695 24.7565 139.045 25.1199C138.395 25.4753 137.84 25.9531 137.378 26.5533C136.916 27.1454 136.612 27.8068 136.464 28.5375L135.281 28.1141C135.428 27.3594 135.711 26.6544 136.132 25.9989C136.561 25.3353 137.078 24.7542 137.686 24.2555C138.301 23.7487 138.966 23.349 139.681 23.0565C140.396 22.764 141.118 22.6114 141.846 22.5987C143.085 22.577 144.074 22.8558 144.813 23.435C145.551 24.0062 145.929 24.8238 145.948 25.8876C145.955 26.3275 145.912 26.8364 145.818 27.4141C145.724 27.9838 145.589 28.6983 145.412 29.5575L144.207 35.4954L142.167 35.531ZM133.049 35.6902L135.538 22.9008L137.578 22.8652L135.088 35.6546L133.049 35.6902ZM149.493 29.8463L149.845 28.0159L159.695 27.844L159.346 28.4502C159.391 28.2813 159.424 28.1087 159.445 27.9323C159.474 27.7558 159.485 27.5076 159.48 27.1876C159.47 26.6117 159.337 26.098 159.081 25.6463C158.825 25.1867 158.438 24.8294 157.922 24.5744C157.413 24.3112 156.763 24.1866 155.971 24.2004C155.107 24.2155 154.33 24.3811 153.639 24.6972C152.949 25.0053 152.356 25.4357 151.862 25.9884C151.375 26.541 151.002 27.1836 150.743 27.9162C150.492 28.6487 150.374 29.4429 150.389 30.2988C150.401 31.0186 150.544 31.6362 150.817 32.1516C151.098 32.6667 151.513 33.0596 152.062 33.33C152.618 33.5923 153.313 33.7162 154.145 33.7017C154.848 33.6894 155.459 33.6108 155.977 33.4657C156.502 33.3125 156.943 33.1168 157.299 32.8786C157.662 32.6322 157.95 32.3671 158.161 32.0834C158.38 31.7995 158.531 31.5168 158.614 31.2353L160.678 31.1993C160.575 31.7132 160.344 32.2253 159.985 32.7357C159.625 33.246 159.154 33.7143 158.569 34.1406C157.984 34.5588 157.298 34.8989 156.51 35.1607C155.723 35.4224 154.845 35.5618 153.877 35.5787C152.749 35.5984 151.782 35.3952 150.974 34.9692C150.167 34.5353 149.544 33.9261 149.106 33.1416C148.668 32.3491 148.44 31.4249 148.422 30.3691C148.402 29.2493 148.584 28.2099 148.967 27.2511C149.358 26.2841 149.908 25.4384 150.615 24.7139C151.322 23.9815 152.149 23.411 153.094 23.0024C154.039 22.5859 155.055 22.3681 156.143 22.3491C157.255 22.3297 158.202 22.5372 158.986 22.9716C159.77 23.406 160.372 24.0036 160.794 24.7643C161.215 25.5251 161.434 26.3894 161.451 27.3572C161.457 27.7012 161.428 28.1018 161.364 28.5589C161.3 29.0081 161.226 29.3695 161.143 29.643L149.493 29.8463ZM168.262 35.3156C167.574 35.3276 166.937 35.2667 166.35 35.1329C165.764 34.9991 165.253 34.804 164.816 34.5476C164.379 34.2832 164.038 33.9651 163.791 33.5934C163.545 33.2216 163.417 32.8038 163.409 32.3398C163.406 32.1799 163.419 31.9956 163.448 31.7871C163.484 31.5704 163.517 31.4058 163.547 31.2933L165.599 31.2574C165.576 31.3299 165.554 31.4343 165.532 31.5707C165.519 31.7069 165.512 31.815 165.514 31.895C165.523 32.4229 165.79 32.8223 166.315 33.0932C166.84 33.3561 167.574 33.4793 168.518 33.4628C169.118 33.4524 169.7 33.3822 170.266 33.2523C170.84 33.1143 171.312 32.894 171.683 32.5915C172.054 32.289 172.234 31.8737 172.225 31.3458C172.216 30.7939 171.965 30.3902 171.472 30.1348C170.987 29.8792 170.192 29.673 169.085 29.5163C168.299 29.402 167.58 29.2266 166.927 28.9899C166.283 28.7451 165.765 28.4061 165.373 27.9729C164.99 27.5315 164.792 26.9669 164.78 26.279C164.768 25.5831 164.921 24.9763 165.24 24.4587C165.559 23.941 165.992 23.5094 166.538 23.1638C167.092 22.8181 167.711 22.5593 168.396 22.3873C169.089 22.2071 169.8 22.1107 170.528 22.098C171.359 22.0835 172.126 22.1982 172.826 22.442C173.526 22.6858 174.089 23.04 174.513 23.5047C174.937 23.9614 175.154 24.5057 175.165 25.1376C175.169 25.3615 175.16 25.5417 175.139 25.6781C175.125 25.8144 175.099 25.9468 175.062 26.0755L173.022 26.1111C173.052 25.9986 173.07 25.9062 173.077 25.8341C173.084 25.754 173.086 25.6619 173.084 25.5579C173.078 25.174 172.944 24.8643 172.684 24.6288C172.432 24.3851 172.101 24.2069 171.691 24.094C171.281 23.9812 170.832 23.929 170.344 23.9375C169.768 23.9476 169.209 24.0253 168.668 24.1708C168.126 24.3083 167.682 24.5241 167.335 24.8182C166.988 25.1043 166.818 25.4713 166.826 25.9192C166.836 26.4871 167.111 26.8984 167.651 27.153C168.192 27.3996 168.948 27.6104 169.919 27.7855C170.513 27.8952 171.071 28.0254 171.594 28.1763C172.117 28.3273 172.576 28.5233 172.972 28.7644C173.369 29.0055 173.678 29.3082 173.9 29.6723C174.131 30.0284 174.25 30.4703 174.26 30.9983C174.273 31.7581 174.112 32.409 173.778 32.951C173.443 33.4929 172.987 33.9369 172.409 34.2831C171.838 34.6211 171.195 34.8723 170.477 35.0369C169.76 35.2094 169.022 35.3023 168.262 35.3156ZM188.095 34.9694C186.728 34.9933 185.612 34.5847 184.75 33.7436C183.887 32.8945 183.441 31.6501 183.412 30.0104C183.393 28.9065 183.547 27.8637 183.874 26.8818C184.208 25.8918 184.685 25.0154 185.304 24.2525C185.931 23.4894 186.676 22.8883 187.541 22.4492C188.413 22.0019 189.373 21.7691 190.421 21.7508C191.285 21.7357 192.068 21.9061 192.77 22.2619C193.473 22.6097 194.033 23.108 194.453 23.7567C194.872 24.3975 195.089 25.1578 195.105 26.0377C195.108 26.2297 195.096 26.4499 195.068 26.6984C195.041 26.947 195.004 27.1676 194.96 27.3604L193.605 27.4441C193.635 27.3236 193.656 27.1752 193.669 26.9989C193.69 26.8225 193.7 26.6783 193.698 26.5663C193.688 25.9904 193.539 25.4809 193.251 25.0379C192.963 24.5869 192.577 24.2375 192.092 23.99C191.608 23.7344 191.066 23.6118 190.466 23.6223C189.658 23.6364 188.941 23.8129 188.315 24.1519C187.696 24.4828 187.176 24.9359 186.754 25.5114C186.332 26.0788 186.015 26.7324 185.804 27.4722C185.593 28.204 185.494 28.9739 185.509 29.7818C185.528 30.8936 185.818 31.7166 186.38 32.2509C186.941 32.7852 187.694 33.0441 188.638 33.0276C189.35 33.0152 190.03 32.8313 190.68 32.4759C191.338 32.1204 191.902 31.6505 192.372 31.0662C192.842 30.4739 193.146 29.8165 193.286 29.0939L194.87 29.1023C194.657 30.1941 194.214 31.182 193.542 32.0659C192.869 32.9418 192.053 33.6401 191.094 34.1609C190.143 34.6816 189.143 34.9511 188.095 34.9694ZM192.195 34.6578L195.851 15.8351L197.902 15.7993L194.246 34.622L192.195 34.6578ZM199.594 28.9718L199.946 27.1414L209.797 26.9694L209.447 27.5756C209.493 27.4068 209.526 27.2342 209.546 27.0578C209.575 26.8813 209.587 26.633 209.581 26.3131C209.571 25.7372 209.438 25.2234 209.182 24.7718C208.926 24.3122 208.54 23.9549 208.024 23.6999C207.515 23.4367 206.865 23.312 206.073 23.3259C205.209 23.3409 204.432 23.5065 203.741 23.8226C203.05 24.1307 202.458 24.5611 201.963 25.1139C201.477 25.6664 201.104 26.309 200.845 27.0417C200.594 27.7742 200.475 28.5684 200.49 29.4242C200.503 30.1441 200.646 30.7617 200.919 31.277C201.2 31.7922 201.615 32.185 202.164 32.4555C202.72 32.7178 203.414 32.8417 204.246 32.8272C204.95 32.8149 205.561 32.7362 206.078 32.5912C206.604 32.438 207.045 32.2423 207.4 32.004C207.764 31.7576 208.052 31.4926 208.263 31.2089C208.482 30.925 208.633 30.6423 208.716 30.3608L210.78 30.3248C210.677 30.8387 210.446 31.3508 210.086 31.8611C209.727 32.3715 209.255 32.8398 208.671 33.266C208.086 33.6843 207.4 34.0243 206.612 34.2861C205.825 34.5479 204.947 34.6873 203.979 34.7041C202.851 34.7238 201.884 34.5207 201.076 34.0947C200.268 33.6608 199.646 33.0515 199.208 32.267C198.77 31.4746 198.542 30.5504 198.523 29.4946C198.504 28.3747 198.686 27.3354 199.069 26.3766C199.46 25.4096 200.009 24.5639 200.717 23.8394C201.424 23.107 202.25 22.5365 203.195 22.1279C204.14 21.7113 205.157 21.4936 206.245 21.4746C207.356 21.4552 208.304 21.6627 209.088 22.0971C209.872 22.5315 210.474 23.129 210.895 23.8898C211.317 24.6506 211.536 25.5149 211.553 26.4827C211.559 26.8267 211.53 27.2272 211.466 27.6844C211.402 28.1336 211.328 28.4949 211.245 28.7684L199.594 28.9718ZM214.8 34.2632L216.937 23.2803L214.153 23.3288L214.506 21.5224L217.289 21.4738L217.608 19.824C217.748 19.1095 217.973 18.4694 218.283 17.9039C218.601 17.3303 218.989 16.8435 219.446 16.4434C219.911 16.0433 220.438 15.738 221.026 15.5277C221.614 15.3094 222.248 15.1943 222.928 15.1825C223.32 15.1756 223.625 15.1943 223.841 15.2385C224.058 15.2828 224.207 15.3242 224.288 15.3628L223.935 17.1692C223.847 17.1387 223.694 17.1054 223.477 17.0692C223.261 17.0329 223.024 17.0171 222.768 17.0215C222.04 17.0342 221.463 17.1923 221.036 17.4958C220.609 17.7913 220.288 18.177 220.072 18.6528C219.856 19.1207 219.693 19.6236 219.583 20.1616L219.329 21.4382L223.048 21.3733L222.696 23.1797L218.976 23.2447L216.84 34.2276L214.8 34.2632ZM223.091 34.1185L225.568 21.3293L227.596 21.2939L225.118 34.0831L223.091 34.1185ZM227.353 18.3697C226.993 18.376 226.683 18.2854 226.424 18.0979C226.164 17.9024 226.031 17.6327 226.025 17.2887C226.021 17.0248 226.085 16.7996 226.218 16.6133C226.35 16.4189 226.528 16.2718 226.75 16.1719C226.98 16.0639 227.223 16.0076 227.479 16.0032C227.831 15.997 228.137 16.0917 228.396 16.2872C228.656 16.4747 228.788 16.7364 228.794 17.0724C228.799 17.3363 228.735 17.5655 228.602 17.7598C228.469 17.9462 228.292 18.0933 228.07 18.2012C227.848 18.3091 227.608 18.3653 227.353 18.3697ZM238.059 33.8572L239.284 27.7269C239.424 27.0364 239.527 26.4825 239.591 26.0653C239.664 25.64 239.697 25.2633 239.692 24.9354C239.68 24.2875 239.443 23.7795 238.981 23.4116C238.526 23.0434 237.843 22.8673 236.931 22.8832C236.251 22.8951 235.587 23.0827 234.937 23.4461C234.287 23.8015 233.731 24.2793 233.27 24.8795C232.808 25.4716 232.503 26.133 232.356 26.8637L231.173 26.4403C231.319 25.6856 231.603 24.9806 232.024 24.3251C232.452 23.6615 232.97 23.0804 233.578 22.5817C234.193 22.0749 234.858 21.6752 235.573 21.3827C236.288 21.0902 237.009 20.9376 237.737 20.9249C238.977 20.9032 239.966 21.182 240.704 21.7612C241.442 22.3324 241.821 23.15 241.839 24.2138C241.847 24.6537 241.804 25.1626 241.71 25.7403C241.616 26.31 241.48 27.0245 241.303 27.8837L240.099 33.8216L238.059 33.8572ZM228.94 34.0164L231.43 21.227L233.469 21.1914L230.98 33.9808L228.94 34.0164ZM243.753 33.7578L246.231 20.9687L248.258 20.9333L245.781 33.7225L243.753 33.7578ZM248.015 18.0091C247.655 18.0153 247.346 17.9247 247.086 17.7372C246.827 17.5417 246.694 17.272 246.688 16.9281C246.684 16.6641 246.748 16.4389 246.88 16.2526C247.013 16.0583 247.191 15.9111 247.413 15.8112C247.643 15.7032 247.886 15.647 248.142 15.6425C248.494 15.6363 248.8 15.731 249.059 15.9265C249.318 16.114 249.451 16.3758 249.457 16.7117C249.461 16.9757 249.397 17.2048 249.265 17.3992C249.132 17.5855 248.955 17.7326 248.732 17.8405C248.51 17.9484 248.271 18.0046 248.015 18.0091ZM249.586 33.656L252.075 20.8666L254.115 20.831L253.355 24.7569L252.607 24.5299C252.751 24.0553 252.967 23.5875 253.255 23.1264C253.55 22.6572 253.915 22.2347 254.349 21.8591C254.782 21.4755 255.281 21.1707 255.845 20.9449C256.409 20.711 257.035 20.588 257.723 20.576C258.235 20.5671 258.643 20.604 258.949 20.6867C259.262 20.7612 259.451 20.8219 259.516 20.8688L258.591 22.8892C258.526 22.8344 258.377 22.765 258.143 22.681C257.918 22.5969 257.581 22.5588 257.133 22.5666C256.469 22.5782 255.896 22.7082 255.412 22.9567C254.928 23.2052 254.522 23.5324 254.193 23.9382C253.872 24.3358 253.611 24.7684 253.411 25.236C253.219 25.7034 253.08 26.1659 252.991 26.6235L251.625 33.6204L249.586 33.656ZM264.853 33.6296C263.926 33.6458 263.075 33.4766 262.3 33.1221C261.526 32.7675 260.9 32.2104 260.423 31.4506C259.953 30.6906 259.708 29.7188 259.688 28.535C259.668 27.3991 259.838 26.344 260.197 25.3696C260.564 24.395 261.081 23.5419 261.748 22.8101C262.423 22.0702 263.221 21.4922 264.142 21.0761C265.071 20.6518 266.087 20.43 267.191 20.4108C268.047 20.3958 268.81 20.5385 269.479 20.8389C270.148 21.1393 270.676 21.6021 271.063 22.2275C271.458 22.8447 271.664 23.6212 271.68 24.5571C271.684 24.789 271.669 25.0733 271.635 25.41C271.609 25.7385 271.566 26.0193 271.506 26.2524L270.306 26.2733C270.344 26.1366 270.372 25.9521 270.392 25.7197C270.412 25.4873 270.421 25.2991 270.418 25.1552C270.407 24.5153 270.254 23.9779 269.958 23.543C269.671 23.1079 269.281 22.7827 268.789 22.5672C268.305 22.3516 267.767 22.249 267.175 22.2593C266.312 22.2744 265.546 22.4398 264.88 22.7555C264.213 23.0631 263.648 23.4931 263.186 24.0452C262.731 24.5892 262.386 25.2274 262.151 25.9596C261.924 26.6836 261.817 27.4656 261.832 28.3055C261.846 29.1294 262.006 29.7987 262.311 30.3134C262.624 30.8281 263.039 31.2049 263.555 31.4439C264.079 31.6748 264.669 31.7845 265.325 31.7731C266.021 31.7609 266.694 31.5931 267.345 31.2697C268.003 30.9462 268.575 30.4801 269.061 29.8716C269.546 29.263 269.869 28.5333 270.03 27.6823L271.412 27.7422C271.162 29.0428 270.705 30.1269 270.04 30.9947C269.383 31.8623 268.603 32.516 267.698 32.9558C266.802 33.3875 265.853 33.6121 264.853 33.6296ZM270.98 33.2826L268.929 33.3184L271.406 20.5292L273.458 20.4934L270.98 33.2826ZM266.523 18.5741L269.352 15.6083L271.235 15.5754L268.191 18.545L266.523 18.5741ZM283.568 33.0629L284.793 26.9326C284.933 26.242 285.035 25.6881 285.1 25.271C285.173 24.8456 285.206 24.469 285.2 24.141C285.189 23.4931 284.952 22.9852 284.49 22.6172C284.035 22.2491 283.352 22.073 282.44 22.0889C281.76 22.1008 281.095 22.2884 280.446 22.6518C279.796 23.0072 279.24 23.485 278.778 24.0851C278.317 24.6772 278.012 25.3387 277.865 26.0693L276.681 25.6459C276.828 24.8913 277.112 24.1862 277.532 23.5308C277.961 22.8672 278.479 22.2861 279.086 21.7874C279.702 21.2806 280.367 20.8809 281.082 20.5884C281.797 20.2958 282.518 20.1432 283.246 20.1305C284.486 20.1089 285.475 20.3877 286.213 20.9669C286.951 21.5381 287.329 22.3556 287.348 23.4194C287.356 23.8594 287.313 24.3682 287.219 24.9459C287.125 25.5157 286.989 26.2301 286.812 27.0894L285.607 33.0273L283.568 33.0629ZM274.449 33.2221L276.938 20.4327L278.978 20.3971L276.489 33.1864L274.449 33.2221ZM300.28 32.9632C299.944 32.9691 299.615 32.9428 299.294 32.8844C298.973 32.834 298.68 32.7311 298.413 32.5757C298.154 32.4202 297.946 32.1998 297.789 31.9145C297.632 31.6292 297.55 31.2626 297.542 30.8147C297.537 30.5427 297.564 30.2342 297.622 29.8891C297.68 29.5441 297.753 29.1507 297.841 28.7091L299.186 21.8446L296.078 21.8988L296.431 20.0924L298.518 20.056C298.774 20.0515 298.974 20.032 299.117 19.9975C299.261 19.963 299.372 19.9011 299.45 19.8117C299.529 19.7143 299.594 19.5691 299.647 19.3762C299.699 19.1832 299.755 18.9302 299.813 18.6172L300.352 15.7993L302.404 15.7635L301.59 20.0024L305.573 19.9328L305.221 21.7393L301.237 21.8088L300.025 28.0109C299.93 28.5246 299.85 28.9581 299.784 29.3113C299.726 29.6644 299.699 29.9529 299.703 30.1768C299.709 30.4968 299.781 30.7436 299.92 30.9172C300.067 31.0826 300.312 31.1624 300.656 31.1564C300.888 31.1523 301.132 31.1281 301.387 31.0836C301.642 31.0391 301.826 30.9959 301.937 30.954L301.596 32.7362C301.445 32.7868 301.262 32.834 301.046 32.8778C300.839 32.9294 300.584 32.9579 300.28 32.9632ZM310.49 32.821C309.53 32.8377 308.763 32.6791 308.189 32.3451C307.615 32.003 307.199 31.5622 306.942 31.0226C306.684 30.4751 306.55 29.9013 306.54 29.3014C306.532 28.8455 306.564 28.3768 306.635 27.8955C306.715 27.4061 306.835 26.7478 306.997 25.9209L308.176 19.8874L310.227 19.8516L309.104 25.6201C308.949 26.3989 308.833 27.037 308.753 27.5345C308.674 28.024 308.637 28.4607 308.644 28.8446C308.655 29.4605 308.856 29.9651 309.247 30.3583C309.638 30.7516 310.261 30.9407 311.117 30.9258C311.853 30.9129 312.541 30.6809 313.181 30.2296C313.829 29.7702 314.375 29.2046 314.82 28.5328C315.264 27.8529 315.548 27.1799 315.673 26.5136L316.893 26.9844C316.753 27.6909 316.493 28.3875 316.113 29.0743C315.741 29.7529 315.268 30.3732 314.694 30.9353C314.127 31.4973 313.487 31.9486 312.773 32.2891C312.059 32.6296 311.298 32.8069 310.49 32.821ZM314.493 32.5231L316.982 19.7337L319.022 19.6981L316.533 32.4875L314.493 32.5231ZM332.127 32.4553C330.503 32.4837 329.199 32.0383 328.215 31.1194C327.231 30.1924 326.724 28.8971 326.695 27.2333C326.675 26.0975 326.857 25.0502 327.24 24.0913C327.632 23.1243 328.177 22.2827 328.877 21.5664C329.584 20.8419 330.414 20.2793 331.367 19.8787C332.32 19.47 333.353 19.2559 334.465 19.2365C335.577 19.2171 336.508 19.4129 337.259 19.8238C338.011 20.2268 338.576 20.749 338.955 21.3905C339.342 22.0318 339.542 22.6964 339.554 23.3843C339.557 23.5443 339.555 23.6763 339.549 23.7805C339.543 23.8846 339.532 23.9688 339.517 24.0331L337.477 24.0687C337.485 24.0285 337.488 23.9845 337.487 23.9365C337.494 23.8803 337.497 23.8243 337.496 23.7683C337.486 23.1924 337.354 22.7066 337.099 22.311C336.844 21.9074 336.474 21.6058 335.991 21.4062C335.507 21.1986 334.913 21.101 334.209 21.1132C333.378 21.1278 332.62 21.289 331.938 21.597C331.263 21.8968 330.686 22.3149 330.207 22.8514C329.728 23.3798 329.363 24.0063 329.112 24.7308C328.86 25.4473 328.742 26.2334 328.757 27.0893C328.777 28.2651 329.109 29.1475 329.751 29.7364C330.401 30.3171 331.27 30.598 332.358 30.579C333.262 30.5632 334.02 30.414 334.631 30.1313C335.242 29.8486 335.724 29.4801 336.076 29.0259C336.436 28.5635 336.683 28.0711 336.818 27.5487L338.846 27.5133C338.752 28.123 338.535 28.7189 338.193 29.301C337.851 29.883 337.392 30.4071 336.816 30.8732C336.248 31.3392 335.571 31.7151 334.784 32.0009C333.996 32.2867 333.111 32.4381 332.127 32.4553ZM346.989 32.1959C346.062 32.2121 345.21 32.0429 344.436 31.6884C343.662 31.3338 343.036 30.7767 342.559 30.0169C342.089 29.257 341.844 28.2851 341.824 27.1013C341.804 25.9654 341.973 24.9103 342.333 23.9359C342.7 22.9614 343.217 22.1082 343.884 21.3764C344.559 20.6365 345.357 20.0585 346.278 19.6424C347.207 19.2181 348.223 18.9963 349.327 18.9771C350.183 18.9621 350.946 19.1048 351.615 19.4052C352.284 19.7056 352.812 20.1684 353.199 20.7938C353.594 21.411 353.8 22.1875 353.816 23.1234C353.82 23.3553 353.805 23.6396 353.771 23.9763C353.745 24.3048 353.702 24.5856 353.642 24.8187L352.442 24.8396C352.479 24.7029 352.508 24.5184 352.528 24.286C352.548 24.0536 352.557 23.8655 352.554 23.7215C352.543 23.0816 352.39 22.5442 352.094 22.1093C351.807 21.6742 351.417 21.349 350.925 21.1335C350.441 20.9179 349.903 20.8153 349.311 20.8256C348.447 20.8407 347.682 21.0061 347.016 21.3218C346.349 21.6295 345.784 22.0594 345.322 22.6115C344.867 23.1555 344.522 23.7937 344.287 24.5259C344.06 25.25 343.953 26.0319 343.968 26.8718C343.982 27.6957 344.142 28.365 344.447 28.8798C344.76 29.3944 345.175 29.7712 345.691 30.0102C346.215 30.2411 346.805 30.3508 347.461 30.3394C348.157 30.3272 348.83 30.1595 349.481 29.8361C350.139 29.5125 350.711 29.0465 351.196 28.4379C351.682 27.8293 352.005 27.0996 352.166 26.2486L353.548 26.3085C353.298 27.6091 352.841 28.6932 352.176 29.561C351.519 30.4286 350.739 31.0823 349.834 31.5221C348.937 31.9539 347.989 32.1784 346.989 32.1959ZM353.116 31.8489L351.065 31.8847L353.542 19.0955L355.593 19.0597L353.116 31.8489ZM364.42 31.6516L365.545 26.0031C365.73 25.0877 365.869 24.3532 365.963 23.7995C366.057 23.2377 366.102 22.7969 366.096 22.477C366.09 22.157 366.029 21.858 365.912 21.58C365.795 21.302 365.588 21.0776 365.288 20.9068C364.997 20.7359 364.58 20.6551 364.036 20.6646C363.428 20.6752 362.89 20.8046 362.423 21.0528C361.963 21.2929 361.568 21.6078 361.239 21.9976C360.91 22.3875 360.641 22.8162 360.433 23.2839C360.233 23.7435 360.089 24.198 360.001 24.6477L358.937 24.1982C359.128 23.2347 359.493 22.3402 360.03 21.5147C360.576 20.689 361.248 20.0212 362.048 19.5112C362.855 18.993 363.746 18.7254 364.722 18.7084C365.514 18.6945 366.164 18.8152 366.673 19.0704C367.181 19.3255 367.56 19.691 367.808 20.1667C368.064 20.6343 368.198 21.1921 368.209 21.84C368.214 22.1039 368.188 22.4364 368.131 22.8375C368.081 23.2304 368.006 23.7038 367.903 24.2577C367.801 24.8036 367.676 25.4418 367.529 26.1725L366.448 31.6162L364.42 31.6516ZM356.585 31.7884L359.074 18.999L361.114 18.9634L358.625 31.7528L356.585 31.7884ZM372.231 31.5153L373.417 25.8897C373.564 25.135 373.673 24.537 373.745 24.0957C373.818 23.6464 373.863 23.2895 373.883 23.0251C373.91 22.7526 373.922 22.5124 373.918 22.3044C373.913 21.9845 373.851 21.6895 373.735 21.4195C373.618 21.1495 373.406 20.9331 373.099 20.7705C372.8 20.5997 372.367 20.5192 371.799 20.5291C371.183 20.5399 370.645 20.6653 370.185 20.9053C369.725 21.1454 369.335 21.4563 369.013 21.8379C368.7 22.2195 368.447 22.6319 368.255 23.0754C368.07 23.5107 367.938 23.929 367.857 24.3305L366.793 23.905C366.969 22.9898 367.318 22.1316 367.84 21.3303C368.37 20.521 369.031 19.8653 369.822 19.3634C370.621 18.8534 371.513 18.5898 372.497 18.5726C373.265 18.5592 373.911 18.676 374.435 18.9229C374.96 19.1698 375.358 19.5269 375.63 19.9942C375.902 20.4535 376.044 21.0111 376.055 21.667C376.06 21.955 376.042 22.2873 376.001 22.6641C375.959 23.0329 375.895 23.4781 375.808 23.9997C375.721 24.5213 375.604 25.1554 375.457 25.9021L374.27 31.4797L372.231 31.5153ZM377.96 31.4153L380.437 18.6261L382.465 18.5907L379.987 31.3799L377.96 31.4153ZM382.221 15.6665C381.861 15.6728 381.552 15.5822 381.293 15.3947C381.033 15.1992 380.9 14.9294 380.894 14.5855C380.89 14.3215 380.954 14.0964 381.087 13.91C381.219 13.7157 381.397 13.5686 381.619 13.4687C381.849 13.3606 382.092 13.3044 382.348 13.2999C382.7 13.2938 383.006 13.3884 383.265 13.584C383.525 13.7715 383.657 14.0332 383.663 14.3691C383.668 14.6331 383.604 14.8622 383.471 15.0566C383.338 15.2429 383.161 15.3901 382.939 15.4979C382.716 15.6058 382.477 15.662 382.221 15.6665ZM392.91 31.1543L394.136 25.024C394.276 24.3334 394.378 23.7796 394.443 23.3624C394.515 22.937 394.549 22.5604 394.543 22.2324C394.532 21.5845 394.295 21.0766 393.832 20.7086C393.378 20.3405 392.695 20.1644 391.783 20.1803C391.103 20.1922 390.438 20.3798 389.788 20.7432C389.138 21.0986 388.583 21.5764 388.121 22.1765C387.659 22.7687 387.355 23.4301 387.208 24.1608L386.024 23.7374C386.171 22.9827 386.455 22.2776 386.875 21.6222C387.304 20.9586 387.822 20.3775 388.429 19.8788C389.044 19.372 389.709 18.9723 390.424 18.6798C391.139 18.3873 391.861 18.2346 392.589 18.2219C393.829 18.2003 394.818 18.4791 395.556 19.0583C396.294 19.6295 396.672 20.447 396.691 21.5109C396.698 21.9508 396.655 22.4596 396.561 23.0373C396.467 23.6071 396.332 24.3215 396.155 25.1808L394.95 31.1187L392.91 31.1543ZM383.792 31.3135L386.281 18.5241L388.321 18.4885L385.832 31.2779L383.792 31.3135ZM404.656 31.1893C403.536 31.2089 402.569 31.0057 401.753 30.5799C400.938 30.1541 400.307 29.553 399.861 28.7766C399.416 28.0003 399.184 27.0922 399.166 26.0524C399.146 24.9245 399.324 23.8733 399.699 22.8986C400.082 21.9237 400.623 21.0742 401.323 20.3498C402.022 19.6175 402.84 19.0432 403.777 18.6267C404.722 18.2102 405.746 17.9923 406.85 17.973C407.978 17.9533 408.949 18.1604 409.765 18.5942C410.581 19.0281 411.212 19.6331 411.657 20.4095C412.103 21.1778 412.334 22.0619 412.352 23.0618C412.372 24.2376 412.187 25.317 411.796 26.3C411.405 27.2829 410.856 28.1367 410.148 28.8611C409.449 29.5854 408.627 30.1519 407.682 30.5604C406.745 30.9608 405.736 31.1705 404.656 31.1893ZM404.792 29.3627C405.84 29.3444 406.78 29.0799 407.611 28.5693C408.45 28.0506 409.11 27.339 409.59 26.4345C410.07 25.53 410.3 24.4778 410.279 23.278C410.266 22.5421 410.119 21.9126 409.838 21.3894C409.565 20.8661 409.166 20.469 408.641 20.1981C408.124 19.9191 407.486 19.7862 406.726 19.7995C405.91 19.8137 405.165 19.9787 404.49 20.2946C403.815 20.6024 403.231 21.0286 402.736 21.5734C402.25 22.1179 401.873 22.7526 401.605 23.4774C401.346 24.202 401.223 24.9883 401.238 25.8361C401.258 26.972 401.569 27.8507 402.172 28.4722C402.783 29.0857 403.657 29.3825 404.792 29.3627Z" fill="#0546ED"/>
</svg>
