<svg width="964" height="285" viewBox="0 0 964 285" fill="none" xmlns="http://www.w3.org/2000/svg">
<g filter="url(#filter0_d_156_1426)">
<rect y="40.2701" width="936" height="236" transform="rotate(-0.999999 0 40.2701)" fill="white" shape-rendering="crispEdges"/>
<rect x="3.0519" y="43.2172" width="930" height="230" transform="rotate(-0.999999 3.0519 43.2172)" stroke="#2D5BFF" stroke-width="6" shape-rendering="crispEdges"/>
<path d="M81.5995 107.146C81.2149 109.173 80.4655 111.222 79.3514 113.291C78.2374 115.361 76.7605 117.272 74.9208 119.025C73.0811 120.777 70.8806 122.201 68.3194 123.295C65.7581 124.39 62.8277 124.966 59.5282 125.024C55.6688 125.091 52.4854 124.352 49.978 122.805C47.4706 121.259 45.5929 119.116 44.345 116.378C43.097 113.639 42.4424 110.52 42.3814 107.021C42.3108 102.981 42.8662 99.2709 44.0474 95.8898C45.2285 92.5087 46.9226 89.5787 49.1297 87.0998C51.3368 84.6209 53.9684 82.6846 57.0246 81.2911C60.0807 79.8975 63.4485 79.1687 67.1279 79.1044C70.8874 79.0388 73.9635 79.6502 76.3564 80.9387C78.7492 82.2271 80.5239 83.9114 81.6803 85.9915C82.8368 88.0716 83.4357 90.2915 83.4768 92.6512C83.4877 93.2711 83.4683 93.8815 83.4188 94.4825C83.3693 95.0834 83.2798 95.6851 83.1503 96.2874L71.0021 96.4995C71.0762 96.1581 71.1339 95.7421 71.1754 95.2513C71.2168 94.7605 71.2345 94.3451 71.2286 94.0051C71.208 92.8253 71.0105 91.8236 70.6361 91C70.2616 90.1764 69.6956 89.5462 68.9378 89.1094C68.1801 88.6725 67.1913 88.4648 65.9715 88.4861C64.0318 88.5199 62.342 89.1195 60.9021 90.2848C59.4622 91.4501 58.2685 92.9662 57.3209 94.833C56.3734 96.6998 55.6788 98.7372 55.2373 100.945C54.7958 103.153 54.5933 105.307 54.63 107.407C54.676 110.046 55.2368 112.092 56.3123 113.543C57.3878 114.995 58.8454 115.705 60.6851 115.672C61.805 115.653 62.8462 115.43 63.8089 115.003C64.7716 114.576 65.6365 113.986 66.4034 113.232C67.1704 112.479 67.8152 111.602 68.3378 110.603C68.8605 109.604 69.2317 108.522 69.4514 107.358L81.5995 107.146ZM76.8519 123.942L95.7867 79.3543L115.014 79.0187L116.596 123.248L104.748 123.455L104.522 86.4329L104.582 86.4319L89.78 123.716L76.8519 123.942ZM87.668 114.451L89.459 105.329L111.296 104.948L109.505 114.07L87.668 114.451ZM130.184 123.011L118.066 123.222L126.712 78.8145L143.659 78.5187C146.759 78.4646 149.314 79.0001 151.324 80.1252C153.334 81.2503 154.84 82.7792 155.844 84.712C156.848 86.6448 157.371 88.781 157.411 91.1206C157.458 93.7802 156.965 96.2242 155.934 98.4525C154.903 100.681 153.466 102.616 151.625 104.259C149.783 105.901 147.66 107.183 145.256 108.105C142.852 109.027 140.31 109.512 137.63 109.559L132.801 109.643L130.184 123.011ZM133.487 106L129.075 100.737L138.134 100.578C139.613 100.553 140.887 100.175 141.954 99.4466C143.022 98.7179 143.835 97.7436 144.394 96.5236C144.953 95.3037 145.219 93.9438 145.193 92.4441C145.174 91.3842 144.978 90.4875 144.606 89.7539C144.233 89.0203 143.713 88.4693 143.047 88.1008C142.38 87.7324 141.587 87.5562 140.667 87.5723L131.608 87.7304L138.114 82.276L133.487 106ZM153.91 122.597L162.557 78.1888L174.675 77.9773L166.028 122.385L153.91 122.597ZM163.05 75.5398L170.942 68.681L179.97 68.5235L170.759 75.4053L163.05 75.5398ZM207.767 86.4011L191.929 86.6775L198.435 81.2231L190.505 121.958L178.416 122.169L186.347 81.4341L190.759 86.6979L174.952 86.9739L176.714 77.9417L209.529 77.3689L207.767 86.4011ZM241.192 105.321C240.128 110.84 237.841 115.011 234.329 117.832C230.818 120.654 226.513 122.109 221.414 122.198C216.474 122.285 212.647 121.321 209.931 119.308C207.216 117.295 205.823 114.279 205.753 110.26C205.73 108.96 205.822 107.658 206.03 106.354C206.237 105.051 206.542 103.355 206.946 101.268L211.719 77.3307L223.837 77.1192L218.707 102.953C218.505 103.956 218.345 104.804 218.227 105.496C218.109 106.189 218.024 106.8 217.974 107.331C217.923 107.862 217.902 108.408 217.912 108.967C217.934 110.247 218.282 111.221 218.953 111.89C219.625 112.558 220.721 112.879 222.241 112.852C224.28 112.817 225.81 112.2 226.829 111.002C227.848 109.804 228.578 108.081 229.019 105.833L234.636 76.9307L246.754 76.7192L241.192 105.321ZM241.707 121.064L250.353 76.6563L262.471 76.4448L254.543 117.269L250.237 111.284L271.474 110.913L269.603 120.577L241.707 121.064ZM289.893 121.003C286.594 121.061 283.587 120.423 280.873 119.09C278.16 117.757 275.989 115.745 274.362 113.053C272.735 110.361 271.886 107.015 271.816 103.016C271.748 99.1164 272.295 95.4913 273.457 92.1405C274.619 88.7897 276.308 85.8498 278.524 83.3207C280.74 80.7917 283.411 78.8047 286.536 77.36C289.661 75.9152 293.154 75.1591 297.013 75.0918C300.372 75.0331 303.404 75.6603 306.107 76.9733C308.811 78.2864 310.97 80.269 312.587 82.9212C314.204 85.5734 315.047 88.8892 315.116 92.8686C315.184 96.748 314.632 100.373 313.461 103.744C312.289 107.115 310.586 110.085 308.35 112.655C306.115 115.224 303.44 117.241 300.325 118.706C297.21 120.17 293.733 120.936 289.893 121.003ZM290.81 111.626C292.969 111.588 294.819 111.006 296.36 109.878C297.901 108.751 299.155 107.279 300.123 105.462C301.092 103.645 301.797 101.647 302.239 99.4693C302.681 97.2912 302.883 95.1224 302.846 92.9627C302.807 90.763 302.477 89.0435 301.856 87.8042C301.234 86.5649 300.424 85.6939 299.425 85.1912C298.426 84.6886 297.316 84.4479 296.097 84.4692C293.917 84.5073 292.056 85.0598 290.515 86.1269C288.973 87.1939 287.722 88.606 286.763 90.363C285.803 92.12 285.112 94.0724 284.69 96.2201C284.267 98.3678 284.075 100.551 284.114 102.771C284.173 106.171 284.844 108.504 286.127 109.772C287.409 111.04 288.97 111.658 290.81 111.626ZM352.548 74.8725L343.901 119.28L331.903 119.49L338.428 85.9206C338.091 86.1065 337.461 86.3476 336.536 86.6438C335.611 86.94 334.545 87.2186 333.34 87.4797C332.134 87.7408 330.932 87.9218 329.734 88.0227L331.524 78.8701C332.742 78.7488 333.988 78.482 335.261 78.0697C336.534 77.6574 337.671 77.1825 338.671 76.645C339.672 76.1074 340.368 75.5852 340.759 75.0783L352.548 74.8725ZM356.756 120.016C355.116 120.045 353.712 119.494 352.542 118.364C351.372 117.235 350.772 115.846 350.744 114.2C350.716 112.587 351.266 111.195 352.396 110.026C353.526 108.856 354.914 108.256 356.561 108.228C358.174 108.199 359.565 108.75 360.735 109.878C361.905 111.007 362.504 112.382 362.532 114.004C362.561 115.644 362.011 117.049 360.882 118.219C359.753 119.389 358.378 119.988 356.756 120.016ZM360.939 98.3697C359.299 98.3983 357.894 97.8477 356.725 96.718C355.555 95.5882 354.955 94.2001 354.927 92.5535C354.898 90.9406 355.449 89.5491 356.579 88.3792C357.709 87.2093 359.097 86.61 360.743 86.5813C362.356 86.5531 363.748 87.1034 364.918 88.2321C366.088 89.3609 366.687 90.7361 366.715 92.3579C366.744 93.9977 366.194 95.4025 365.065 96.5724C363.936 97.7423 362.561 98.3414 360.939 98.3697ZM416.835 82.7518L400.997 83.0282L407.503 77.5738L399.573 118.308L387.485 118.519L395.415 77.7848L399.828 83.0486L384.02 83.3246L385.783 74.2924L418.598 73.7196L416.835 82.7518ZM450.26 101.671C449.196 107.191 446.909 111.361 443.398 114.183C439.886 117.005 435.581 118.46 430.482 118.549C425.543 118.635 421.715 117.672 419 115.659C416.284 113.646 414.891 110.63 414.821 106.611C414.798 105.311 414.891 104.009 415.098 102.705C415.305 101.401 415.611 99.7057 416.014 97.6184L420.787 73.6814L432.905 73.4699L427.775 99.3034C427.573 100.307 427.413 101.155 427.295 101.847C427.177 102.539 427.093 103.151 427.042 103.682C426.991 104.213 426.971 104.758 426.98 105.318C427.003 106.598 427.35 107.572 428.022 108.24C428.693 108.909 429.789 109.23 431.309 109.203C433.348 109.168 434.878 108.551 435.897 107.353C436.916 106.155 437.647 104.432 438.087 102.184L443.704 73.2814L455.822 73.0699L450.26 101.671ZM474.891 116.994L462.773 117.205L471.42 72.7976L488.367 72.5018C491.467 72.4477 494.021 72.9832 496.031 74.1083C498.041 75.2334 499.548 76.7623 500.552 78.6951C501.556 80.6279 502.078 82.7641 502.119 85.1037C502.165 87.7633 501.673 90.2073 500.642 92.4356C499.61 94.664 498.174 96.5993 496.332 98.2417C494.491 99.8841 492.368 101.166 489.964 102.088C487.559 103.011 485.017 103.495 482.338 103.542L477.509 103.626L474.891 116.994ZM478.195 99.9835L473.783 94.7197L482.841 94.5616C484.321 94.5358 485.595 94.1585 486.662 93.4297C487.729 92.701 488.543 91.7267 489.101 90.5067C489.66 89.2868 489.926 87.9269 489.9 86.4272C489.882 85.3673 489.686 84.4706 489.313 83.737C488.94 83.0034 488.421 82.4524 487.754 82.084C487.088 81.7155 486.294 81.5394 485.375 81.5554L476.316 81.7135L482.822 76.2591L478.195 99.9835ZM498.828 116.576L507.474 72.1683L527.091 71.8259C531.51 71.7487 534.68 72.5735 536.601 74.3003C538.521 76.027 539.506 78.3202 539.556 81.1797C539.585 82.8195 539.343 84.444 538.831 86.0531C538.319 87.6623 537.585 89.1354 536.628 90.4723C535.671 91.8092 534.54 92.9091 533.235 93.772C531.93 94.6349 530.509 95.1398 528.971 95.2866C530.052 95.3278 531.046 95.5355 531.952 95.9097C532.859 96.2839 533.584 96.8764 534.129 97.687C534.673 98.4976 534.957 99.5828 534.98 100.943C534.992 101.603 534.93 102.369 534.796 103.241C534.661 104.114 534.492 105.042 534.289 106.025C534.086 107.009 533.878 107.993 533.665 108.977C533.453 109.961 533.279 110.894 533.144 111.776C533.01 112.659 532.948 113.43 532.96 114.09C532.967 114.49 533.003 114.854 533.069 115.183C533.134 115.512 533.229 115.775 533.353 115.973L521.234 116.185C521.027 115.768 520.916 115.15 520.902 114.33C520.891 113.71 520.944 113.019 521.061 112.257C521.178 111.495 521.319 110.703 521.484 109.88C521.65 109.057 521.821 108.238 521.997 107.425C522.172 106.612 522.319 105.844 522.437 105.122C522.554 104.4 522.608 103.759 522.598 103.199C522.58 102.159 522.221 101.36 521.521 100.803C520.821 100.245 519.781 99.9777 518.402 100.002L508.353 100.177L514.447 96.8904L510.646 116.37L498.828 116.576ZM514.969 94.1808L510.116 91.1451L520.584 90.9624C521.664 90.9435 522.68 90.6907 523.631 90.2041C524.583 89.7174 525.346 89.0339 525.921 88.1538C526.496 87.2736 526.772 86.2236 526.751 85.0038C526.731 83.844 526.384 82.8599 525.709 82.0515C525.035 81.2432 523.958 80.8519 522.478 80.8778L512.07 81.0594L518.576 75.6051L514.969 94.1808ZM535.542 115.935L544.189 71.5274L556.307 71.3159L547.66 115.724L535.542 115.935ZM591.461 70.7023L612.068 70.3426L603.422 114.75L591.934 114.951L599.313 77.0162L599.495 77.1331L585.275 115.067L569.857 115.336L570.158 77.5551L570.396 77.431L562.988 115.456L551.47 115.657L560.116 71.2494L580.243 70.8981L578.865 110.558L577.635 110.58L591.461 70.7023ZM620.924 79.1894L627.458 73.6145L624.069 90.9263L622.003 87.7219L637.901 87.4444L636.168 96.476L620.27 96.7535L623.574 93.4853L620.188 110.917L615.803 105.533L637.79 105.149L636.027 114.181L607.321 114.682L615.968 70.2745L644.673 69.7735L642.911 78.8056L620.924 79.1894ZM639.626 114.118L648.273 69.7106L667.89 69.3682C672.309 69.2911 675.479 70.1159 677.399 71.8426C679.32 73.5694 680.305 75.8625 680.355 78.7221C680.383 80.3619 680.142 81.9863 679.63 83.5955C679.118 85.2047 678.383 86.6777 677.427 88.0146C676.47 89.3515 675.339 90.4514 674.034 91.3143C672.729 92.1773 671.307 92.6821 669.769 92.829C670.85 92.8701 671.844 93.0778 672.751 93.4521C673.657 93.8263 674.383 94.4187 674.927 95.2293C675.471 96.04 675.755 97.1252 675.779 98.485C675.791 99.1449 675.729 99.9111 675.594 100.784C675.459 101.656 675.291 102.584 675.088 103.568C674.885 104.552 674.677 105.535 674.464 106.519C674.251 107.503 674.077 108.436 673.943 109.319C673.808 110.201 673.747 110.972 673.758 111.632C673.765 112.032 673.802 112.397 673.867 112.726C673.933 113.054 674.028 113.318 674.151 113.516L662.033 113.727C661.826 113.311 661.715 112.693 661.701 111.873C661.69 111.253 661.743 110.562 661.859 109.8C661.976 109.037 662.117 108.245 662.283 107.422C662.449 106.599 662.619 105.781 662.795 104.968C662.971 104.154 663.118 103.387 663.235 102.665C663.353 101.942 663.406 101.301 663.397 100.741C663.378 99.7016 663.019 98.9027 662.32 98.3449C661.62 97.787 660.58 97.5201 659.2 97.5442L649.152 97.7196L655.245 94.4327L651.445 113.912L639.626 114.118ZM655.768 91.7232L650.914 88.6874L661.383 88.5047C662.463 88.4859 663.478 88.2331 664.43 87.7464C665.382 87.2597 666.145 86.5763 666.719 85.6961C667.294 84.816 667.571 83.766 667.55 82.5462C667.529 81.3863 667.182 80.4023 666.508 79.5939C665.834 78.7855 664.757 78.3943 663.277 78.4201L652.869 78.6018L659.374 73.1474L655.768 91.7232Z" fill="black"/>
<path d="M40.4347 184.585L49.081 140.178L68.6981 139.835C73.1174 139.758 76.2873 140.583 78.2077 142.31C80.1281 144.037 81.1133 146.33 81.1632 149.189C81.1918 150.829 80.9501 152.453 80.4382 154.063C79.9262 155.672 79.1918 157.145 78.2349 158.482C77.2781 159.819 76.1472 160.919 74.842 161.782C73.5369 162.644 72.1155 163.149 70.5778 163.296C71.6587 163.337 72.6525 163.545 73.5591 163.919C74.4658 164.293 75.1912 164.886 75.7355 165.697C76.2797 166.507 76.5637 167.592 76.5874 168.952C76.5989 169.612 76.5373 170.378 76.4025 171.251C76.2677 172.123 76.0989 173.051 75.896 174.035C75.6932 175.019 75.4853 176.002 75.2724 176.986C75.0596 177.97 74.8858 178.903 74.7512 179.786C74.6166 180.668 74.555 181.44 74.5666 182.099C74.5735 182.499 74.6099 182.864 74.6757 183.193C74.7414 183.522 74.836 183.785 74.9595 183.983L62.8413 184.194C62.634 183.778 62.5232 183.16 62.5089 182.34C62.4981 181.72 62.5511 181.029 62.6678 180.267C62.7845 179.505 62.9257 178.712 63.0913 177.889C63.257 177.066 63.4277 176.248 63.6036 175.435C63.7794 174.622 63.926 173.854 64.0435 173.132C64.1609 172.41 64.2147 171.769 64.2049 171.209C64.1868 170.169 63.8278 169.37 63.1279 168.812C62.4281 168.254 61.3883 167.987 60.0085 168.011L49.96 168.187L56.0536 164.9L52.2529 184.379L40.4347 184.585ZM56.5764 162.19L51.7226 159.155L62.191 158.972C63.2709 158.953 64.2866 158.7 65.2383 158.214C66.1899 157.727 66.9531 157.043 67.5278 156.163C68.1026 155.283 68.3793 154.233 68.358 153.013C68.3378 151.854 67.9905 150.869 67.3163 150.061C66.6421 149.253 65.5651 148.861 64.0853 148.887L53.6769 149.069L60.1827 143.615L56.5764 162.19ZM90.9618 148.448L97.4955 142.873L94.1071 160.185L92.0408 156.981L107.938 156.703L106.206 165.735L90.3082 166.012L93.6117 162.744L90.2254 180.176L85.8407 174.792L107.827 174.408L106.065 183.44L77.3591 183.941L86.0054 139.533L114.711 139.032L112.948 148.064L90.9618 148.448ZM149.776 165.964C149.392 167.991 148.642 170.04 147.528 172.11C146.414 174.179 144.937 176.09 143.098 177.843C141.258 179.595 139.058 181.019 136.496 182.114C133.935 183.208 131.005 183.785 127.705 183.842C123.846 183.91 120.662 183.17 118.155 181.624C115.648 180.077 113.77 177.935 112.522 175.196C111.274 172.457 110.619 169.338 110.558 165.839C110.488 161.799 111.043 158.089 112.224 154.708C113.405 151.327 115.1 148.397 117.307 145.918C119.514 143.439 122.145 141.503 125.201 140.109C128.258 138.716 131.625 137.987 135.305 137.923C139.064 137.857 142.14 138.468 144.533 139.757C146.926 141.045 148.701 142.73 149.857 144.81C151.014 146.89 151.613 149.11 151.654 151.469C151.665 152.089 151.645 152.7 151.596 153.301C151.546 153.902 151.457 154.503 151.327 155.106L139.179 155.318C139.253 154.976 139.311 154.56 139.352 154.069C139.394 153.579 139.411 153.163 139.406 152.823C139.385 151.644 139.187 150.642 138.813 149.818C138.439 148.995 137.872 148.364 137.115 147.928C136.357 147.491 135.368 147.283 134.148 147.304C132.209 147.338 130.519 147.938 129.079 149.103C127.639 150.268 126.445 151.784 125.498 153.651C124.55 155.518 123.856 157.555 123.414 159.764C122.973 161.972 122.77 164.125 122.807 166.225C122.853 168.865 123.414 170.91 124.489 172.362C125.565 173.813 127.022 174.523 128.862 174.491C129.982 174.471 131.023 174.248 131.986 173.821C132.949 173.394 133.813 172.804 134.58 172.051C135.347 171.297 135.992 170.421 136.515 169.421C137.037 168.422 137.409 167.34 137.628 166.176L149.776 165.964ZM169.939 183.105C166.639 183.163 163.633 182.525 160.919 181.192C158.205 179.859 156.035 177.847 154.408 175.155C152.78 172.463 151.932 169.117 151.862 165.118C151.794 161.218 152.341 157.593 153.502 154.243C154.664 150.892 156.353 147.952 158.569 145.423C160.785 142.894 163.456 140.907 166.581 139.462C169.707 138.017 173.199 137.261 177.059 137.194C180.418 137.135 183.449 137.762 186.153 139.075C188.856 140.388 191.016 142.371 192.633 145.023C194.249 147.675 195.092 150.991 195.162 154.971C195.229 158.85 194.677 162.475 193.506 165.846C192.335 169.217 190.631 172.187 188.396 174.757C186.16 177.326 183.485 179.343 180.37 180.808C177.255 182.272 173.778 183.038 169.939 183.105ZM170.855 173.728C173.015 173.69 174.865 173.108 176.406 171.981C177.946 170.853 179.201 169.381 180.169 167.564C181.137 165.747 181.843 163.749 182.285 161.571C182.727 159.393 182.929 157.224 182.891 155.065C182.853 152.865 182.523 151.146 181.901 149.906C181.279 148.667 180.469 147.796 179.47 147.293C178.471 146.791 177.362 146.55 176.142 146.571C173.962 146.609 172.102 147.162 170.56 148.229C169.018 149.296 167.768 150.708 166.808 152.465C165.849 154.222 165.158 156.174 164.735 158.322C164.313 160.47 164.121 162.654 164.16 164.873C164.219 168.273 164.89 170.606 166.172 171.874C167.454 173.142 169.015 173.76 170.855 173.728ZM193.052 181.922L201.698 137.514L221.315 137.171C225.734 137.094 228.904 137.919 230.824 139.646C232.745 141.373 233.73 143.666 233.78 146.525C233.809 148.165 233.567 149.79 233.055 151.399C232.543 153.008 231.809 154.481 230.852 155.818C229.895 157.155 228.764 158.255 227.459 159.118C226.154 159.98 224.732 160.485 223.195 160.632C224.275 160.673 225.269 160.881 226.176 161.255C227.083 161.63 227.808 162.222 228.352 163.033C228.897 163.843 229.18 164.928 229.204 166.288C229.216 166.948 229.154 167.714 229.019 168.587C228.885 169.459 228.716 170.387 228.513 171.371C228.31 172.355 228.102 173.339 227.889 174.322C227.676 175.306 227.503 176.239 227.368 177.122C227.233 178.004 227.172 178.776 227.183 179.435C227.19 179.835 227.227 180.2 227.292 180.529C227.358 180.858 227.453 181.121 227.576 181.319L215.458 181.53C215.251 181.114 215.14 180.496 215.126 179.676C215.115 179.056 215.168 178.365 215.285 177.603C215.401 176.841 215.542 176.048 215.708 175.225C215.874 174.402 216.045 173.584 216.22 172.771C216.396 171.958 216.543 171.19 216.66 170.468C216.778 169.746 216.831 169.105 216.822 168.545C216.804 167.505 216.445 166.706 215.745 166.148C215.045 165.59 214.005 165.323 212.625 165.347L202.577 165.523L208.67 162.236L204.87 181.715L193.052 181.922ZM209.193 159.526L204.339 156.491L214.808 156.308C215.888 156.289 216.903 156.036 217.855 155.55C218.807 155.063 219.57 154.38 220.145 153.499C220.719 152.619 220.996 151.569 220.975 150.349C220.955 149.19 220.607 148.205 219.933 147.397C219.259 146.589 218.182 146.198 216.702 146.223L206.294 146.405L212.8 140.951L209.193 159.526ZM229.976 181.277L238.622 136.869L258.239 136.527C262.659 136.45 265.828 137.275 267.749 139.001C269.669 140.728 270.654 143.021 270.704 145.881C270.733 147.521 270.491 149.145 269.979 150.754C269.467 152.363 268.733 153.836 267.776 155.173C266.819 156.51 265.688 157.61 264.383 158.473C263.078 159.336 261.657 159.841 260.119 159.988C261.2 160.029 262.194 160.237 263.1 160.611C264.007 160.985 264.732 161.577 265.277 162.388C265.821 163.199 266.105 164.284 266.129 165.644C266.14 166.304 266.078 167.07 265.944 167.942C265.809 168.815 265.64 169.743 265.437 170.727C265.234 171.71 265.026 172.694 264.814 173.678C264.601 174.662 264.427 175.595 264.292 176.477C264.158 177.36 264.096 178.131 264.108 178.791C264.115 179.191 264.151 179.555 264.217 179.884C264.283 180.213 264.377 180.477 264.501 180.674L252.383 180.886C252.175 180.469 252.064 179.851 252.05 179.031C252.039 178.412 252.092 177.721 252.209 176.958C252.326 176.196 252.467 175.404 252.633 174.581C252.798 173.758 252.969 172.939 253.145 172.126C253.321 171.313 253.467 170.545 253.585 169.823C253.702 169.101 253.756 168.46 253.746 167.9C253.728 166.86 253.369 166.061 252.669 165.504C251.969 164.946 250.929 164.679 249.55 164.703L239.501 164.878L245.595 161.591L241.794 181.071L229.976 181.277ZM246.118 158.882L241.264 155.846L251.732 155.663C252.812 155.645 253.828 155.392 254.779 154.905C255.731 154.418 256.494 153.735 257.069 152.855C257.644 151.975 257.92 150.925 257.899 149.705C257.879 148.545 257.532 147.561 256.858 146.753C256.183 145.944 255.106 145.553 253.627 145.579L243.218 145.761L249.724 140.306L246.118 158.882ZM266.69 180.636L275.337 136.228L287.455 136.017L278.809 180.425L266.69 180.636ZM282.318 180.363L290.964 135.956L307.102 135.674C310.561 135.614 313.504 136.312 315.93 137.77C318.356 139.228 320.221 141.236 321.526 143.794C322.831 146.351 323.511 149.24 323.567 152.459C323.633 156.199 323.044 159.724 321.802 163.037C320.559 166.349 318.81 169.27 316.554 171.8C314.298 174.329 311.652 176.326 308.617 177.789C305.582 179.252 302.295 180.015 298.755 180.076L282.318 180.363ZM295.152 176.479L290.729 170.615L298.888 170.473C300.788 170.44 302.504 169.915 304.036 168.898C305.569 167.881 306.881 166.553 307.972 164.913C309.064 163.274 309.897 161.469 310.473 159.499C311.049 157.528 311.32 155.573 311.286 153.634C311.255 151.854 310.938 150.339 310.336 149.09C309.735 147.84 308.898 146.894 307.827 146.253C306.755 145.612 305.49 145.304 304.03 145.329L295.871 145.472L302.366 139.417L295.152 176.479ZM342.352 180.096C339.053 180.153 336.046 179.516 333.333 178.183C330.619 176.85 328.449 174.837 326.821 172.145C325.194 169.453 324.346 166.108 324.276 162.108C324.208 158.209 324.755 154.584 325.916 151.233C327.078 147.882 328.767 144.942 330.983 142.413C333.199 139.884 335.87 137.897 338.995 136.453C342.121 135.008 345.613 134.252 349.472 134.184C352.832 134.126 355.863 134.753 358.567 136.066C361.27 137.379 363.43 139.362 365.046 142.014C366.663 144.666 367.506 147.982 367.575 151.961C367.643 155.841 367.091 159.466 365.92 162.837C364.749 166.208 363.045 169.178 360.81 171.747C358.574 174.317 355.899 176.334 352.784 177.798C349.669 179.263 346.192 180.029 342.352 180.096ZM343.269 170.718C345.429 170.68 347.279 170.098 348.819 168.971C350.36 167.844 351.614 166.372 352.583 164.555C353.551 162.738 354.256 160.74 354.699 158.562C355.141 156.384 355.343 154.215 355.305 152.055C355.267 149.856 354.937 148.136 354.315 146.897C353.693 145.657 352.883 144.786 351.884 144.284C350.885 143.781 349.776 143.54 348.556 143.562C346.376 143.6 344.516 144.152 342.974 145.219C341.432 146.287 340.182 147.699 339.222 149.456C338.263 151.213 337.572 153.165 337.149 155.313C336.727 157.46 336.535 159.644 336.573 161.864C336.633 165.263 337.304 167.597 338.586 168.865C339.868 170.132 341.429 170.75 343.269 170.718Z" fill="black"/>
<path d="M55.305 212.431L49.7378 212.529L50.8813 211.344L47.5557 228.469L45.516 228.505L48.8416 211.38L49.5459 212.532L43.9907 212.629L44.3432 210.822L55.6575 210.625L55.305 212.431ZM58.0584 228.514C57.0986 228.531 56.3317 228.372 55.7578 228.038C55.1837 227.696 54.768 227.255 54.5105 226.715C54.2529 226.168 54.1189 225.594 54.1084 224.994C54.1005 224.538 54.1323 224.07 54.2039 223.588C54.2834 223.099 54.4039 222.441 54.5655 221.614L55.7444 215.58L57.7961 215.544L56.6726 221.313C56.5181 222.092 56.4012 222.73 56.3219 223.227C56.2424 223.717 56.2061 224.153 56.2128 224.537C56.2235 225.153 56.4244 225.658 56.8153 226.051C57.2062 226.444 57.8296 226.634 58.6855 226.619C59.4214 226.606 60.1094 226.374 60.7496 225.922C61.3977 225.463 61.9439 224.897 62.3883 224.226C62.8325 223.546 63.1168 222.873 63.2412 222.206L64.4616 222.677C64.3219 223.384 64.062 224.08 63.6819 224.767C63.3097 225.446 62.8365 226.066 62.2622 226.628C61.6959 227.19 61.0557 227.641 60.3415 227.982C59.6273 228.322 58.8663 228.5 58.0584 228.514ZM62.0619 228.216L64.551 215.427L66.5907 215.391L64.1015 228.18L62.0619 228.216ZM72.5568 228.273C71.8689 228.285 71.2317 228.224 70.6453 228.09C70.0589 227.956 69.5474 227.761 69.1108 227.505C68.6742 227.24 68.3326 226.922 68.086 226.551C67.8395 226.179 67.7122 225.761 67.7041 225.297C67.7013 225.137 67.7141 224.953 67.7424 224.744C67.7787 224.528 67.8118 224.363 67.8418 224.25L69.8935 224.215C69.8708 224.287 69.8486 224.391 69.827 224.528C69.8134 224.664 69.8073 224.772 69.8086 224.852C69.8179 225.38 70.0849 225.78 70.6097 226.05C71.1344 226.313 71.8686 226.436 72.8125 226.42C73.4124 226.41 73.9952 226.339 74.5611 226.209C75.1347 226.071 75.607 225.851 75.9777 225.549C76.3485 225.246 76.5293 224.831 76.5201 224.303C76.5105 223.751 76.2594 223.347 75.7668 223.092C75.2823 222.836 74.4866 222.63 73.3797 222.474C72.5936 222.359 71.8744 222.184 71.2222 221.947C70.5778 221.702 70.0598 221.363 69.6682 220.93C69.2844 220.489 69.0865 219.924 69.0745 219.236C69.0624 218.54 69.2158 217.933 69.5348 217.416C69.8538 216.898 70.2864 216.467 70.8324 216.121C71.3865 215.775 72.0061 215.516 72.6912 215.344C73.3841 215.164 74.0945 215.068 74.8224 215.055C75.6543 215.041 76.4204 215.155 77.1208 215.399C77.8211 215.643 78.3834 215.997 78.8076 216.462C79.2316 216.919 79.4492 217.463 79.4602 218.095C79.4641 218.319 79.4552 218.499 79.4336 218.635C79.42 218.772 79.3943 218.904 79.3565 219.033L77.3169 219.068C77.3469 218.956 77.3653 218.863 77.372 218.791C77.3786 218.711 77.381 218.619 77.3792 218.515C77.3725 218.131 77.2391 217.821 76.9789 217.586C76.7266 217.342 76.3955 217.164 75.9854 217.051C75.5754 216.938 75.1264 216.886 74.6385 216.895C74.0626 216.905 73.5039 216.983 72.9623 217.128C72.4206 217.265 71.9763 217.481 71.6294 217.775C71.2824 218.061 71.1127 218.428 71.1206 218.876C71.1305 219.444 71.4057 219.856 71.9462 220.11C72.4866 220.357 73.2424 220.568 74.2136 220.743C74.8076 220.852 75.366 220.983 75.8887 221.134C76.4114 221.284 76.8709 221.48 77.2671 221.722C77.6634 221.963 77.9727 222.265 78.1951 222.63C78.4254 222.986 78.5451 223.428 78.5543 223.955C78.5676 224.715 78.4069 225.366 78.0723 225.908C77.7377 226.45 77.2814 226.894 76.7034 227.24C76.1332 227.578 75.4895 227.83 74.7722 227.994C74.0551 228.167 73.3166 228.26 72.5568 228.273ZM92.3903 227.927C91.0225 227.95 89.9072 227.542 89.0444 226.701C88.1815 225.852 87.7357 224.607 87.7071 222.968C87.6878 221.864 87.8416 220.821 88.1685 219.839C88.5033 218.849 88.9801 217.973 89.5989 217.21C90.2256 216.447 90.9713 215.845 91.8357 215.406C92.708 214.959 93.6681 214.726 94.716 214.708C95.5798 214.693 96.3629 214.863 97.0652 215.219C97.7674 215.567 98.3282 216.065 98.7476 216.714C99.1668 217.355 99.3841 218.115 99.3995 218.995C99.4029 219.187 99.3907 219.407 99.363 219.656C99.3354 219.904 99.2992 220.125 99.2546 220.318L97.8998 220.401C97.9297 220.281 97.9511 220.132 97.9641 219.956C97.985 219.78 97.9945 219.635 97.9925 219.524C97.9825 218.948 97.8335 218.438 97.5458 217.995C97.2579 217.544 96.8717 217.195 96.3873 216.947C95.9028 216.692 95.3605 216.569 94.7606 216.579C93.9528 216.594 93.2357 216.77 92.6096 217.109C91.9912 217.44 91.4711 217.893 91.049 218.469C90.6269 219.036 90.3102 219.69 90.0991 220.429C89.8879 221.161 89.7893 221.931 89.8034 222.739C89.8228 223.851 90.1132 224.674 90.6746 225.208C91.236 225.742 91.9887 226.001 92.9325 225.985C93.6444 225.972 94.3253 225.788 94.9752 225.433C95.6331 225.078 96.197 224.608 96.6668 224.023C97.1366 223.431 97.4412 222.774 97.5806 222.051L99.165 222.059C98.952 223.151 98.5091 224.139 97.8365 225.023C97.1637 225.899 96.3477 226.597 95.3887 227.118C94.4376 227.639 93.4382 227.908 92.3903 227.927ZM96.4895 227.615L100.146 208.792L102.197 208.756L98.5412 227.579L96.4895 227.615ZM103.889 221.929L104.241 220.099L114.092 219.927L113.742 220.533C113.787 220.364 113.82 220.191 113.841 220.015C113.87 219.838 113.882 219.59 113.876 219.27C113.866 218.694 113.733 218.181 113.477 217.729C113.221 217.269 112.835 216.912 112.318 216.657C111.81 216.394 111.159 216.269 110.368 216.283C109.504 216.298 108.727 216.464 108.036 216.78C107.345 217.088 106.753 217.518 106.258 218.071C105.772 218.624 105.399 219.266 105.14 219.999C104.888 220.731 104.77 221.526 104.785 222.381C104.798 223.101 104.941 223.719 105.214 224.234C105.495 224.749 105.91 225.142 106.458 225.413C107.015 225.675 107.709 225.799 108.541 225.784C109.245 225.772 109.856 225.693 110.373 225.548C110.899 225.395 111.339 225.199 111.695 224.961C112.059 224.715 112.346 224.45 112.558 224.166C112.777 223.882 112.928 223.599 113.011 223.318L115.074 223.282C114.971 223.796 114.74 224.308 114.381 224.818C114.022 225.329 113.55 225.797 112.965 226.223C112.381 226.641 111.695 226.982 110.907 227.243C110.119 227.505 109.242 227.644 108.274 227.661C107.146 227.681 106.178 227.478 105.371 227.052C104.563 226.618 103.94 226.009 103.503 225.224C103.065 224.432 102.837 223.508 102.818 222.452C102.799 221.332 102.98 220.293 103.364 219.334C103.755 218.367 104.304 217.521 105.012 216.797C105.719 216.064 106.545 215.494 107.49 215.085C108.435 214.669 109.451 214.451 110.539 214.432C111.651 214.412 112.599 214.62 113.383 215.054C114.166 215.489 114.769 216.086 115.19 216.847C115.612 217.608 115.831 218.472 115.848 219.44C115.854 219.784 115.825 220.184 115.76 220.642C115.696 221.091 115.623 221.452 115.539 221.726L103.889 221.929ZM123.798 227.378C122.175 227.407 120.871 226.961 119.886 226.042C118.902 225.115 118.395 223.82 118.366 222.156C118.347 221.021 118.528 219.973 118.912 219.014C119.303 218.047 119.848 217.206 120.548 216.489C121.255 215.765 122.086 215.202 123.039 214.802C123.992 214.393 125.024 214.179 126.136 214.16C127.248 214.14 128.179 214.336 128.931 214.747C129.682 215.15 130.247 215.672 130.626 216.313C131.014 216.955 131.213 217.619 131.225 218.307C131.228 218.467 131.226 218.599 131.22 218.703C131.214 218.808 131.203 218.892 131.188 218.956L129.149 218.992C129.156 218.952 129.159 218.907 129.158 218.859C129.166 218.803 129.169 218.747 129.168 218.691C129.158 218.115 129.025 217.63 128.77 217.234C128.515 216.83 128.146 216.529 127.662 216.329C127.178 216.122 126.585 216.024 125.881 216.036C125.049 216.051 124.292 216.212 123.609 216.52C122.934 216.82 122.357 217.238 121.878 217.774C121.4 218.303 121.034 218.929 120.783 219.654C120.532 220.37 120.413 221.156 120.428 222.012C120.449 223.188 120.78 224.071 121.423 224.659C122.073 225.24 122.942 225.521 124.03 225.502C124.934 225.486 125.691 225.337 126.302 225.054C126.913 224.772 127.395 224.403 127.747 223.949C128.107 223.487 128.355 222.994 128.489 222.472L130.517 222.436C130.424 223.046 130.206 223.642 129.864 224.224C129.522 224.806 129.063 225.33 128.487 225.796C127.92 226.262 127.242 226.638 126.455 226.924C125.668 227.21 124.782 227.361 123.798 227.378ZM132.933 226.979L135.411 214.19L137.438 214.154L134.961 226.943L132.933 226.979ZM137.195 211.23C136.835 211.236 136.526 211.146 136.266 210.958C136.007 210.763 135.874 210.493 135.868 210.149C135.864 209.885 135.928 209.66 136.06 209.474C136.193 209.279 136.37 209.132 136.593 209.032C136.823 208.924 137.066 208.868 137.322 208.863C137.674 208.857 137.98 208.952 138.239 209.148C138.498 209.335 138.631 209.597 138.637 209.933C138.641 210.197 138.577 210.426 138.445 210.62C138.312 210.807 138.135 210.954 137.912 211.062C137.69 211.169 137.451 211.226 137.195 211.23ZM143.749 227.03C143.061 227.042 142.424 226.981 141.838 226.847C141.251 226.714 140.74 226.519 140.303 226.262C139.866 225.998 139.525 225.68 139.278 225.308C139.032 224.936 138.904 224.518 138.896 224.054C138.894 223.894 138.906 223.71 138.935 223.502C138.971 223.285 139.004 223.12 139.034 223.008L141.086 222.972C141.063 223.044 141.041 223.149 141.019 223.285C141.006 223.421 141 223.53 141.001 223.61C141.01 224.137 141.277 224.537 141.802 224.808C142.327 225.071 143.061 225.194 144.005 225.177C144.605 225.167 145.188 225.097 145.753 224.967C146.327 224.829 146.799 224.608 147.17 224.306C147.541 224.003 147.722 223.588 147.712 223.06C147.703 222.508 147.452 222.105 146.959 221.849C146.475 221.594 145.679 221.388 144.572 221.231C143.786 221.117 143.067 220.941 142.414 220.704C141.77 220.46 141.252 220.121 140.86 219.687C140.477 219.246 140.279 218.681 140.267 217.993C140.255 217.298 140.408 216.691 140.727 216.173C141.046 215.656 141.479 215.224 142.025 214.878C142.579 214.533 143.198 214.274 143.883 214.102C144.576 213.922 145.287 213.825 146.015 213.813C146.847 213.798 147.613 213.913 148.313 214.156C149.013 214.4 149.576 214.755 150 215.219C150.424 215.676 150.641 216.22 150.652 216.852C150.656 217.076 150.648 217.256 150.626 217.393C150.612 217.529 150.587 217.661 150.549 217.79L148.509 217.826C148.539 217.713 148.558 217.621 148.564 217.549C148.571 217.468 148.573 217.376 148.572 217.272C148.565 216.889 148.431 216.579 148.171 216.343C147.919 216.1 147.588 215.921 147.178 215.809C146.768 215.696 146.319 215.644 145.831 215.652C145.255 215.662 144.696 215.74 144.155 215.885C143.613 216.023 143.169 216.239 142.822 216.533C142.475 216.819 142.305 217.186 142.313 217.634C142.323 218.202 142.598 218.613 143.139 218.868C143.679 219.114 144.435 219.325 145.406 219.5C146 219.61 146.558 219.74 147.081 219.891C147.604 220.042 148.063 220.238 148.459 220.479C148.856 220.72 149.165 221.023 149.387 221.387C149.618 221.743 149.737 222.185 149.747 222.713C149.76 223.473 149.599 224.124 149.265 224.665C148.93 225.207 148.474 225.651 147.896 225.998C147.325 226.336 146.682 226.587 145.965 226.751C145.247 226.924 144.509 227.017 143.749 227.03ZM152.36 226.64L154.837 213.851L156.865 213.815L154.388 226.604L152.36 226.64ZM156.622 210.891C156.262 210.897 155.952 210.807 155.693 210.619C155.434 210.424 155.301 210.154 155.295 209.81C155.29 209.546 155.354 209.321 155.487 209.135C155.62 208.94 155.797 208.793 156.019 208.693C156.25 208.585 156.493 208.529 156.749 208.524C157.101 208.518 157.406 208.613 157.666 208.808C157.925 208.996 158.058 209.258 158.064 209.594C158.068 209.858 158.004 210.087 157.871 210.281C157.739 210.467 157.561 210.615 157.339 210.722C157.117 210.83 156.878 210.887 156.622 210.891ZM164.364 226.67C163.244 226.69 162.276 226.487 161.461 226.061C160.645 225.635 160.014 225.034 159.569 224.258C159.123 223.481 158.891 222.573 158.873 221.533C158.853 220.405 159.031 219.354 159.406 218.38C159.789 217.405 160.33 216.555 161.03 215.831C161.729 215.098 162.547 214.524 163.484 214.108C164.429 213.691 165.453 213.473 166.557 213.454C167.685 213.434 168.657 213.641 169.473 214.075C170.288 214.509 170.919 215.114 171.365 215.89C171.81 216.659 172.041 217.543 172.059 218.543C172.079 219.719 171.894 220.798 171.503 221.781C171.112 222.764 170.563 223.618 169.856 224.342C169.156 225.066 168.334 225.633 167.389 226.041C166.452 226.442 165.443 226.651 164.364 226.67ZM164.5 224.844C165.548 224.825 166.487 224.561 167.318 224.05C168.157 223.532 168.817 222.82 169.297 221.915C169.778 221.011 170.007 219.959 169.986 218.759C169.974 218.023 169.827 217.394 169.545 216.87C169.272 216.347 168.873 215.95 168.348 215.679C167.831 215.4 167.193 215.267 166.433 215.28C165.617 215.295 164.872 215.46 164.197 215.776C163.523 216.083 162.938 216.51 162.444 217.054C161.957 217.599 161.58 218.234 161.313 218.958C161.053 219.683 160.931 220.469 160.946 221.317C160.966 222.453 161.277 223.332 161.88 223.953C162.491 224.567 163.364 224.863 164.5 224.844ZM183.059 226.104L184.284 219.974C184.424 219.283 184.526 218.729 184.591 218.312C184.663 217.887 184.697 217.51 184.691 217.182C184.68 216.534 184.443 216.026 183.98 215.658C183.526 215.29 182.843 215.114 181.931 215.13C181.251 215.142 180.586 215.329 179.936 215.693C179.287 216.048 178.731 216.526 178.269 217.126C177.807 217.718 177.503 218.38 177.356 219.11L176.172 218.687C176.319 217.932 176.603 217.227 177.023 216.572C177.452 215.908 177.97 215.327 178.577 214.828C179.192 214.322 179.857 213.922 180.573 213.629C181.288 213.337 182.009 213.184 182.737 213.172C183.977 213.15 184.966 213.429 185.704 214.008C186.442 214.579 186.82 215.397 186.839 216.46C186.847 216.9 186.803 217.409 186.709 217.987C186.615 218.557 186.48 219.271 186.303 220.13L185.098 226.068L183.059 226.104ZM173.94 226.263L176.429 213.474L178.469 213.438L175.98 226.227L173.94 226.263ZM190.384 220.419L190.736 218.589L200.586 218.417L200.237 219.023C200.282 218.854 200.315 218.682 200.336 218.505C200.365 218.329 200.377 218.08 200.371 217.761C200.361 217.185 200.228 216.671 199.972 216.219C199.716 215.76 199.33 215.402 198.813 215.147C198.304 214.884 197.654 214.759 196.862 214.773C195.998 214.788 195.221 214.954 194.531 215.27C193.84 215.578 193.247 216.009 192.753 216.561C192.266 217.114 191.894 217.756 191.634 218.489C191.383 219.222 191.265 220.016 191.28 220.872C191.292 221.592 191.435 222.209 191.708 222.724C191.989 223.24 192.404 223.632 192.953 223.903C193.51 224.165 194.204 224.289 195.036 224.275C195.74 224.262 196.35 224.184 196.868 224.039C197.393 223.885 197.834 223.69 198.19 223.451C198.554 223.205 198.841 222.94 199.052 222.656C199.271 222.372 199.422 222.09 199.505 221.808L201.569 221.772C201.466 222.286 201.235 222.798 200.876 223.309C200.517 223.819 200.045 224.287 199.46 224.713C198.875 225.132 198.189 225.472 197.402 225.734C196.614 225.995 195.736 226.135 194.769 226.152C193.641 226.171 192.673 225.968 191.865 225.542C191.058 225.108 190.435 224.499 189.997 223.714C189.559 222.922 189.331 221.998 189.313 220.942C189.293 219.822 189.475 218.783 189.858 217.824C190.25 216.857 190.799 216.011 191.506 215.287C192.214 214.554 193.04 213.984 193.985 213.575C194.93 213.159 195.946 212.941 197.034 212.922C198.146 212.903 199.094 213.11 199.877 213.544C200.661 213.979 201.263 214.576 201.685 215.337C202.106 216.098 202.325 216.962 202.342 217.93C202.348 218.274 202.319 218.675 202.255 219.132C202.191 219.581 202.117 219.942 202.034 220.216L190.384 220.419ZM209.153 225.888C208.465 225.9 207.828 225.84 207.242 225.706C206.655 225.572 206.144 225.377 205.707 225.12C205.271 224.856 204.929 224.538 204.682 224.166C204.436 223.794 204.309 223.377 204.301 222.913C204.298 222.753 204.311 222.568 204.339 222.36C204.375 222.143 204.408 221.979 204.438 221.866L206.49 221.83C206.467 221.903 206.445 222.007 206.423 222.144C206.41 222.28 206.404 222.388 206.405 222.468C206.414 222.996 206.681 223.395 207.206 223.666C207.731 223.929 208.465 224.052 209.409 224.036C210.009 224.025 210.592 223.955 211.157 223.825C211.731 223.687 212.203 223.467 212.574 223.164C212.945 222.862 213.126 222.447 213.117 221.919C213.107 221.367 212.856 220.963 212.363 220.708C211.879 220.452 211.083 220.246 209.976 220.089C209.19 219.975 208.471 219.799 207.819 219.563C207.174 219.318 206.656 218.979 206.265 218.546C205.881 218.104 205.683 217.54 205.671 216.852C205.659 216.156 205.812 215.549 206.131 215.032C206.45 214.514 206.883 214.082 207.429 213.737C207.983 213.391 208.602 213.132 209.288 212.96C209.981 212.78 210.691 212.684 211.419 212.671C212.251 212.656 213.017 212.771 213.717 213.015C214.418 213.259 214.98 213.613 215.404 214.078C215.828 214.534 216.046 215.079 216.057 215.71C216.061 215.934 216.052 216.115 216.03 216.251C216.016 216.387 215.991 216.52 215.953 216.648L213.913 216.684C213.943 216.571 213.962 216.479 213.968 216.407C213.975 216.327 213.977 216.235 213.976 216.131C213.969 215.747 213.836 215.437 213.575 215.202C213.323 214.958 212.992 214.78 212.582 214.667C212.172 214.554 211.723 214.502 211.235 214.51C210.659 214.52 210.1 214.598 209.559 214.744C209.017 214.881 208.573 215.097 208.226 215.391C207.879 215.677 207.709 216.044 207.717 216.492C207.727 217.06 208.002 217.471 208.543 217.726C209.083 217.972 209.839 218.183 210.81 218.358C211.404 218.468 211.962 218.598 212.485 218.749C213.008 218.9 213.467 219.096 213.864 219.337C214.26 219.578 214.569 219.881 214.792 220.245C215.022 220.601 215.142 221.043 215.151 221.571C215.164 222.331 215.003 222.982 214.669 223.524C214.334 224.066 213.878 224.51 213.3 224.856C212.73 225.194 212.086 225.445 211.369 225.61C210.652 225.782 209.913 225.875 209.153 225.888ZM228.987 225.542C227.619 225.566 226.504 225.158 225.641 224.316C224.778 223.467 224.332 222.223 224.303 220.583C224.284 219.479 224.438 218.437 224.765 217.455C225.1 216.465 225.576 215.588 226.195 214.825C226.822 214.062 227.568 213.461 228.432 213.022C229.304 212.575 230.265 212.342 231.312 212.324C232.176 212.309 232.959 212.479 233.662 212.835C234.364 213.183 234.925 213.681 235.344 214.33C235.763 214.97 235.981 215.731 235.996 216.611C235.999 216.803 235.987 217.023 235.959 217.271C235.932 217.52 235.896 217.741 235.851 217.933L234.496 218.017C234.526 217.896 234.548 217.748 234.56 217.572C234.581 217.395 234.591 217.251 234.589 217.139C234.579 216.563 234.43 216.054 234.142 215.611C233.854 215.16 233.468 214.81 232.984 214.563C232.499 214.307 231.957 214.185 231.357 214.195C230.549 214.209 229.832 214.386 229.206 214.725C228.588 215.056 228.067 215.509 227.645 216.084C227.223 216.652 226.907 217.305 226.696 218.045C226.484 218.777 226.386 219.547 226.4 220.355C226.419 221.466 226.71 222.29 227.271 222.824C227.832 223.358 228.585 223.617 229.529 223.601C230.241 223.588 230.922 223.404 231.572 223.049C232.23 222.693 232.793 222.223 233.263 221.639C233.733 221.047 234.038 220.389 234.177 219.667L235.761 219.675C235.548 220.767 235.106 221.755 234.433 222.639C233.76 223.515 232.944 224.213 231.985 224.734C231.034 225.254 230.035 225.524 228.987 225.542ZM233.086 225.231L236.742 206.408L238.794 206.372L235.138 225.195L233.086 225.231ZM240.486 219.545L240.838 217.714L250.688 217.542L250.339 218.149C250.384 217.98 250.417 217.807 250.438 217.631C250.467 217.454 250.478 217.206 250.473 216.886C250.463 216.31 250.33 215.796 250.074 215.345C249.818 214.885 249.431 214.528 248.915 214.273C248.406 214.01 247.756 213.885 246.964 213.899C246.1 213.914 245.323 214.079 244.632 214.396C243.942 214.704 243.349 215.134 242.855 215.687C242.368 216.239 241.995 216.882 241.736 217.615C241.485 218.347 241.367 219.141 241.382 219.997C241.394 220.717 241.537 221.335 241.81 221.85C242.091 222.365 242.506 222.758 243.055 223.028C243.611 223.291 244.306 223.415 245.138 223.4C245.841 223.388 246.452 223.309 246.97 223.164C247.495 223.011 247.936 222.815 248.292 222.577C248.655 222.331 248.943 222.065 249.154 221.782C249.373 221.498 249.524 221.215 249.607 220.934L251.671 220.898C251.568 221.412 251.337 221.924 250.978 222.434C250.618 222.944 250.147 223.413 249.562 223.839C248.977 224.257 248.291 224.597 247.503 224.859C246.716 225.121 245.838 225.26 244.87 225.277C243.742 225.297 242.775 225.094 241.967 224.668C241.16 224.234 240.537 223.624 240.099 222.84C239.661 222.047 239.433 221.123 239.415 220.067C239.395 218.948 239.577 217.908 239.96 216.949C240.351 215.982 240.901 215.137 241.608 214.412C242.315 213.68 243.142 213.109 244.087 212.701C245.032 212.284 246.048 212.066 247.136 212.047C248.248 212.028 249.195 212.236 249.979 212.67C250.763 213.104 251.365 213.702 251.787 214.463C252.208 215.223 252.427 216.088 252.444 217.056C252.45 217.4 252.421 217.8 252.357 218.257C252.293 218.706 252.219 219.068 252.136 219.341L240.486 219.545ZM255.691 224.836L257.828 213.853L255.044 213.902L255.397 212.095L258.18 212.047L258.5 210.397C258.639 209.682 258.864 209.042 259.174 208.477C259.492 207.903 259.88 207.416 260.337 207.016C260.802 206.616 261.329 206.311 261.917 206.101C262.505 205.882 263.14 205.767 263.819 205.755C264.211 205.748 264.516 205.767 264.733 205.811C264.949 205.856 265.098 205.897 265.179 205.936L264.826 207.742C264.738 207.712 264.585 207.678 264.368 207.642C264.152 207.606 263.916 207.59 263.66 207.594C262.932 207.607 262.354 207.765 261.928 208.069C261.501 208.364 261.179 208.75 260.964 209.226C260.748 209.694 260.584 210.196 260.474 210.734L260.22 212.011L263.94 211.946L263.587 213.753L259.868 213.818L257.731 224.801L255.691 224.836ZM263.982 224.691L266.459 211.902L268.487 211.867L266.01 224.656L263.982 224.691ZM268.244 208.943C267.884 208.949 267.574 208.858 267.315 208.671C267.055 208.475 266.923 208.206 266.917 207.862C266.912 207.598 266.976 207.372 267.109 207.186C267.242 206.992 267.419 206.845 267.641 206.745C267.871 206.637 268.115 206.581 268.37 206.576C268.722 206.57 269.028 206.665 269.288 206.86C269.547 207.048 269.679 207.309 269.685 207.645C269.69 207.909 269.626 208.138 269.493 208.333C269.361 208.519 269.183 208.666 268.961 208.774C268.739 208.882 268.5 208.938 268.244 208.943ZM278.95 224.43L280.175 218.3C280.315 217.609 280.418 217.055 280.483 216.638C280.555 216.213 280.589 215.836 280.583 215.508C280.571 214.86 280.335 214.352 279.872 213.984C279.418 213.616 278.734 213.44 277.823 213.456C277.143 213.468 276.478 213.656 275.828 214.019C275.178 214.374 274.622 214.852 274.161 215.452C273.699 216.044 273.395 216.706 273.247 217.437L272.064 217.013C272.211 216.258 272.494 215.553 272.915 214.898C273.343 214.234 273.861 213.653 274.469 213.155C275.084 212.648 275.749 212.248 276.464 211.956C277.179 211.663 277.901 211.51 278.629 211.498C279.868 211.476 280.857 211.755 281.596 212.334C282.334 212.905 282.712 213.723 282.731 214.787C282.738 215.227 282.695 215.735 282.601 216.313C282.507 216.883 282.372 217.597 282.195 218.457L280.99 224.395L278.95 224.43ZM269.832 224.589L272.321 211.8L274.361 211.764L271.871 224.554L269.832 224.589ZM284.645 224.331L287.122 211.542L289.15 211.506L286.672 224.295L284.645 224.331ZM288.907 208.582C288.547 208.588 288.237 208.498 287.978 208.31C287.718 208.115 287.585 207.845 287.579 207.501C287.575 207.237 287.639 207.012 287.772 206.825C287.904 206.631 288.082 206.484 288.304 206.384C288.534 206.276 288.777 206.22 289.033 206.215C289.385 206.209 289.691 206.304 289.95 206.499C290.21 206.687 290.342 206.949 290.348 207.285C290.353 207.549 290.289 207.778 290.156 207.972C290.023 208.158 289.846 208.306 289.624 208.413C289.402 208.521 289.162 208.577 288.907 208.582ZM290.477 224.229L292.966 211.44L295.006 211.404L294.246 215.33L293.498 215.103C293.642 214.628 293.858 214.16 294.146 213.699C294.442 213.23 294.806 212.808 295.24 212.432C295.673 212.048 296.172 211.744 296.736 211.518C297.3 211.284 297.926 211.161 298.614 211.149C299.126 211.14 299.535 211.177 299.84 211.26C300.153 211.334 300.342 211.395 300.407 211.442L299.482 213.462C299.417 213.407 299.268 213.338 299.035 213.254C298.809 213.17 298.472 213.132 298.025 213.14C297.361 213.151 296.787 213.281 296.303 213.53C295.819 213.778 295.413 214.105 295.084 214.511C294.763 214.909 294.502 215.341 294.303 215.809C294.111 216.276 293.971 216.739 293.883 217.196L292.517 224.193L290.477 224.229ZM305.745 224.202C304.817 224.219 303.966 224.049 303.191 223.695C302.417 223.34 301.791 222.783 301.314 222.023C300.845 221.264 300.6 220.292 300.579 219.108C300.559 217.972 300.729 216.917 301.088 215.942C301.455 214.968 301.972 214.115 302.639 213.383C303.315 212.643 304.113 212.065 305.033 211.649C305.962 211.225 306.979 211.003 308.082 210.984C308.938 210.969 309.701 211.111 310.37 211.412C311.04 211.712 311.568 212.175 311.955 212.8C312.349 213.418 312.555 214.194 312.571 215.13C312.575 215.362 312.56 215.646 312.526 215.983C312.5 216.311 312.457 216.592 312.397 216.825L311.197 216.846C311.235 216.71 311.264 216.525 311.283 216.293C311.303 216.06 311.312 215.872 311.31 215.728C311.298 215.088 311.145 214.551 310.849 214.116C310.562 213.681 310.172 213.356 309.68 213.14C309.196 212.924 308.659 212.822 308.067 212.832C307.203 212.847 306.438 213.013 305.771 213.328C305.104 213.636 304.54 214.066 304.077 214.618C303.623 215.162 303.278 215.8 303.042 216.532C302.815 217.257 302.709 218.039 302.723 218.878C302.738 219.702 302.897 220.372 303.202 220.886C303.515 221.401 303.93 221.778 304.446 222.017C304.97 222.248 305.56 222.357 306.216 222.346C306.912 222.334 307.585 222.166 308.236 221.843C308.894 221.519 309.466 221.053 309.952 220.444C310.437 219.836 310.761 219.106 310.922 218.255L312.303 218.315C312.054 219.616 311.596 220.7 310.931 221.568C310.275 222.435 309.494 223.089 308.589 223.529C307.693 223.96 306.745 224.185 305.745 224.202ZM311.872 223.855L309.82 223.891L312.297 211.102L314.349 211.066L311.872 223.855ZM307.414 209.147L310.243 206.181L312.127 206.148L309.082 209.118L307.414 209.147ZM324.459 223.636L325.684 217.505C325.824 216.815 325.926 216.261 325.991 215.844C326.064 215.419 326.097 215.042 326.092 214.714C326.08 214.066 325.843 213.558 325.381 213.19C324.926 212.822 324.243 212.646 323.331 212.662C322.651 212.674 321.987 212.861 321.337 213.225C320.687 213.58 320.131 214.058 319.67 214.658C319.208 215.25 318.903 215.912 318.756 216.642L317.572 216.219C317.719 215.464 318.003 214.759 318.424 214.104C318.852 213.44 319.37 212.859 319.978 212.36C320.593 211.853 321.258 211.454 321.973 211.161C322.688 210.869 323.409 210.716 324.137 210.703C325.377 210.682 326.366 210.961 327.104 211.54C327.842 212.111 328.221 212.928 328.239 213.992C328.247 214.432 328.204 214.941 328.11 215.519C328.016 216.089 327.88 216.803 327.703 217.662L326.499 223.6L324.459 223.636ZM315.34 223.795L317.83 211.006L319.869 210.97L317.38 223.759L315.34 223.795ZM341.171 223.536C340.835 223.542 340.507 223.516 340.186 223.457C339.865 223.407 339.571 223.304 339.304 223.149C339.045 222.993 338.837 222.773 338.68 222.487C338.523 222.202 338.441 221.835 338.433 221.388C338.428 221.116 338.455 220.807 338.513 220.462C338.571 220.117 338.644 219.724 338.732 219.282L340.077 212.417L336.969 212.472L337.322 210.665L339.41 210.629C339.666 210.624 339.865 210.605 340.009 210.57C340.152 210.536 340.263 210.474 340.341 210.385C340.42 210.287 340.485 210.142 340.538 209.949C340.591 209.756 340.646 209.503 340.705 209.19L341.244 206.372L343.295 206.336L342.481 210.575L346.464 210.506L346.112 212.312L342.129 212.382L340.917 218.584C340.822 219.098 340.741 219.531 340.675 219.884C340.617 220.237 340.59 220.526 340.594 220.75C340.6 221.07 340.672 221.316 340.811 221.49C340.958 221.656 341.204 221.735 341.548 221.729C341.78 221.725 342.023 221.701 342.278 221.656C342.534 221.612 342.717 221.569 342.828 221.527L342.487 223.309C342.336 223.36 342.153 223.407 341.938 223.451C341.731 223.502 341.475 223.531 341.171 223.536ZM351.381 223.394C350.421 223.411 349.654 223.252 349.08 222.918C348.506 222.576 348.091 222.135 347.833 221.596C347.576 221.048 347.441 220.474 347.431 219.874C347.423 219.418 347.455 218.95 347.526 218.468C347.606 217.979 347.726 217.321 347.888 216.494L349.067 210.46L351.119 210.424L349.995 216.193C349.841 216.972 349.724 217.61 349.645 218.107C349.565 218.597 349.529 219.034 349.535 219.417C349.546 220.033 349.747 220.538 350.138 220.931C350.529 221.324 351.152 221.514 352.008 221.499C352.744 221.486 353.432 221.254 354.072 220.803C354.72 220.343 355.267 219.778 355.711 219.106C356.155 218.426 356.439 217.753 356.564 217.086L357.784 217.557C357.644 218.264 357.385 218.96 357.005 219.647C356.632 220.326 356.159 220.946 355.585 221.508C355.018 222.07 354.378 222.521 353.664 222.862C352.95 223.202 352.189 223.38 351.381 223.394ZM355.384 223.096L357.874 210.307L359.913 210.271L357.424 223.06L355.384 223.096ZM373.018 223.028C371.395 223.057 370.091 222.611 369.106 221.692C368.122 220.765 367.615 219.47 367.586 217.806C367.566 216.67 367.748 215.623 368.132 214.664C368.523 213.697 369.068 212.856 369.768 212.139C370.475 211.415 371.306 210.852 372.259 210.452C373.212 210.043 374.244 209.829 375.356 209.809C376.468 209.79 377.399 209.986 378.151 210.397C378.902 210.8 379.467 211.322 379.846 211.963C380.233 212.605 380.433 213.269 380.445 213.957C380.448 214.117 380.446 214.249 380.44 214.353C380.434 214.457 380.423 214.542 380.408 214.606L378.369 214.642C378.376 214.601 378.379 214.557 378.378 214.509C378.385 214.453 378.388 214.397 378.387 214.341C378.377 213.765 378.245 213.279 377.99 212.884C377.735 212.48 377.366 212.179 376.882 211.979C376.398 211.771 375.805 211.674 375.101 211.686C374.269 211.701 373.511 211.862 372.829 212.17C372.154 212.47 371.577 212.888 371.098 213.424C370.62 213.953 370.254 214.579 370.003 215.304C369.751 216.02 369.633 216.806 369.648 217.662C369.669 218.838 370 219.72 370.642 220.309C371.293 220.89 372.162 221.171 373.25 221.152C374.153 221.136 374.911 220.987 375.522 220.704C376.133 220.421 376.615 220.053 376.967 219.599C377.327 219.136 377.574 218.644 377.709 218.122L379.737 218.086C379.644 218.696 379.426 219.292 379.084 219.874C378.742 220.456 378.283 220.98 377.707 221.446C377.139 221.912 376.462 222.288 375.675 222.574C374.888 222.86 374.002 223.011 373.018 223.028ZM387.881 222.769C386.953 222.785 386.102 222.616 385.327 222.261C384.553 221.907 383.927 221.35 383.45 220.59C382.981 219.83 382.736 218.858 382.715 217.674C382.695 216.538 382.865 215.483 383.224 214.509C383.591 213.534 384.108 212.681 384.775 211.949C385.451 211.209 386.249 210.631 387.169 210.215C388.098 209.791 389.114 209.569 390.218 209.55C391.074 209.535 391.837 209.678 392.506 209.978C393.175 210.278 393.704 210.741 394.091 211.367C394.485 211.984 394.691 212.76 394.707 213.696C394.711 213.928 394.696 214.213 394.662 214.549C394.636 214.878 394.593 215.158 394.533 215.392L393.333 215.412C393.371 215.276 393.399 215.091 393.419 214.859C393.439 214.627 393.448 214.438 393.446 214.294C393.434 213.654 393.281 213.117 392.985 212.682C392.698 212.247 392.308 211.922 391.816 211.706C391.332 211.491 390.794 211.388 390.203 211.399C389.339 211.414 388.573 211.579 387.907 211.895C387.24 212.202 386.676 212.632 386.213 213.184C385.759 213.728 385.414 214.367 385.178 215.099C384.951 215.823 384.845 216.605 384.859 217.445C384.874 218.269 385.033 218.938 385.338 219.453C385.651 219.967 386.066 220.344 386.582 220.583C387.106 220.814 387.696 220.924 388.352 220.912C389.048 220.9 389.721 220.732 390.372 220.409C391.03 220.085 391.602 219.619 392.088 219.011C392.573 218.402 392.896 217.672 393.058 216.822L394.439 216.881C394.19 218.182 393.732 219.266 393.067 220.134C392.41 221.001 391.63 221.655 390.725 222.095C389.829 222.527 388.88 222.751 387.881 222.769ZM394.008 222.422L391.956 222.458L394.433 209.668L396.485 209.633L394.008 222.422ZM405.311 222.224L406.437 216.576C406.621 215.661 406.76 214.926 406.854 214.372C406.949 213.811 406.993 213.37 406.987 213.05C406.982 212.73 406.92 212.431 406.804 212.153C406.687 211.875 406.479 211.65 406.18 211.48C405.889 211.309 405.471 211.228 404.927 211.238C404.319 211.248 403.782 211.378 403.314 211.626C402.854 211.866 402.459 212.181 402.13 212.571C401.801 212.96 401.532 213.389 401.324 213.857C401.124 214.316 400.98 214.771 400.892 215.221L399.828 214.771C400.019 213.808 400.384 212.913 400.922 212.088C401.467 211.262 402.14 210.594 402.939 210.084C403.746 209.566 404.637 209.298 405.613 209.281C406.405 209.267 407.055 209.388 407.564 209.643C408.072 209.898 408.451 210.264 408.699 210.74C408.955 211.207 409.089 211.765 409.1 212.413C409.105 212.677 409.079 213.009 409.022 213.41C408.973 213.803 408.897 214.277 408.795 214.831C408.692 215.376 408.567 216.015 408.42 216.745L407.339 222.189L405.311 222.224ZM397.476 222.361L399.965 209.572L402.005 209.536L399.516 222.326L397.476 222.361ZM413.122 222.088L414.308 216.463C414.455 215.708 414.564 215.11 414.637 214.669C414.709 214.219 414.755 213.862 414.774 213.598C414.801 213.326 414.813 213.085 414.809 212.877C414.804 212.557 414.743 212.262 414.626 211.992C414.509 211.722 414.297 211.506 413.991 211.343C413.692 211.173 413.258 211.092 412.69 211.102C412.074 211.113 411.536 211.238 411.076 211.478C410.617 211.718 410.226 212.029 409.905 212.411C409.591 212.792 409.338 213.205 409.146 213.648C408.962 214.084 408.829 214.502 408.748 214.903L407.684 214.478C407.86 213.563 408.209 212.704 408.732 211.903C409.261 211.094 409.922 210.438 410.713 209.936C411.513 209.426 412.404 209.163 413.388 209.146C414.156 209.132 414.802 209.249 415.326 209.496C415.851 209.743 416.249 210.1 416.521 210.567C416.793 211.026 416.935 211.584 416.947 212.24C416.952 212.528 416.933 212.86 416.892 213.237C416.85 213.606 416.786 214.051 416.699 214.573C416.612 215.094 416.495 215.728 416.348 216.475L415.162 222.053L413.122 222.088ZM418.851 221.988L421.328 209.199L423.356 209.164L420.879 221.953L418.851 221.988ZM423.113 206.239C422.753 206.246 422.443 206.155 422.184 205.968C421.924 205.772 421.792 205.502 421.786 205.158C421.781 204.894 421.845 204.669 421.978 204.483C422.11 204.289 422.288 204.141 422.51 204.042C422.74 203.934 422.983 203.877 423.239 203.873C423.591 203.867 423.897 203.961 424.156 204.157C424.416 204.344 424.548 204.606 424.554 204.942C424.559 205.206 424.495 205.435 424.362 205.629C424.229 205.816 424.052 205.963 423.83 206.071C423.608 206.179 423.369 206.235 423.113 206.239ZM433.802 221.727L435.027 215.597C435.167 214.906 435.269 214.352 435.334 213.935C435.407 213.51 435.44 213.133 435.434 212.805C435.423 212.157 435.186 211.649 434.724 211.281C434.269 210.913 433.586 210.737 432.674 210.753C431.994 210.765 431.329 210.953 430.68 211.316C430.03 211.671 429.474 212.149 429.012 212.749C428.551 213.342 428.246 214.003 428.099 214.734L426.915 214.31C427.062 213.556 427.346 212.85 427.766 212.195C428.195 211.531 428.713 210.95 429.32 210.452C429.936 209.945 430.601 209.545 431.316 209.253C432.031 208.96 432.752 208.808 433.48 208.795C434.72 208.773 435.709 209.052 436.447 209.631C437.185 210.202 437.563 211.02 437.582 212.084C437.59 212.524 437.547 213.032 437.453 213.61C437.359 214.18 437.223 214.894 437.046 215.754L435.841 221.692L433.802 221.727ZM424.683 221.886L427.172 209.097L429.212 209.061L426.723 221.851L424.683 221.886ZM445.547 221.762C444.428 221.782 443.46 221.579 442.644 221.153C441.829 220.727 441.198 220.126 440.753 219.35C440.307 218.573 440.075 217.665 440.057 216.625C440.037 215.497 440.215 214.446 440.59 213.471C440.973 212.497 441.514 211.647 442.214 210.923C442.913 210.19 443.731 209.616 444.668 209.2C445.613 208.783 446.637 208.565 447.741 208.546C448.869 208.526 449.841 208.733 450.656 209.167C451.472 209.601 452.103 210.206 452.548 210.982C452.994 211.751 453.225 212.635 453.243 213.635C453.263 214.81 453.078 215.89 452.687 216.873C452.296 217.856 451.747 218.71 451.04 219.434C450.34 220.158 449.518 220.725 448.573 221.133C447.636 221.534 446.627 221.743 445.547 221.762ZM445.684 219.936C446.731 219.917 447.671 219.653 448.502 219.142C449.341 218.624 450.001 217.912 450.481 217.007C450.961 216.103 451.191 215.051 451.17 213.851C451.157 213.115 451.01 212.485 450.729 211.962C450.456 211.439 450.057 211.042 449.532 210.771C449.015 210.492 448.377 210.359 447.617 210.372C446.801 210.387 446.056 210.552 445.381 210.867C444.707 211.175 444.122 211.602 443.627 212.146C443.141 212.691 442.764 213.325 442.496 214.05C442.237 214.775 442.115 215.561 442.129 216.409C442.149 217.545 442.461 218.424 443.064 219.045C443.674 219.659 444.548 219.955 445.684 219.936Z" fill="#0546ED"/>
<g filter="url(#filter1_d_156_1426)">
<rect x="792.563" width="163.61" height="44" transform="rotate(4.99997 792.563 0)" fill="#0546ED" shape-rendering="crispEdges"/>
<rect x="794.381" y="2.1667" width="159.61" height="40" transform="rotate(4.99997 794.381 2.1667)" stroke="white" stroke-width="4" shape-rendering="crispEdges"/>
<path d="M818.957 28.4085L819.857 18.1228L824.418 18.5218C825.589 18.6243 826.433 18.9592 826.947 19.5266C827.462 20.094 827.679 20.8402 827.598 21.7653C827.553 22.286 827.414 22.7213 827.182 23.071C826.95 23.4208 826.676 23.6826 826.361 23.8565C826.046 24.0304 825.741 24.1161 825.446 24.1137C825.747 24.1588 826.022 24.2554 826.271 24.4037C826.521 24.552 826.713 24.7715 826.85 25.0621C826.986 25.3528 827.033 25.7329 826.992 26.2024C826.966 26.4999 826.941 26.7835 826.918 27.0532C826.894 27.3228 826.869 27.6064 826.843 27.9039C826.822 28.1503 826.821 28.3856 826.841 28.6099C826.862 28.8342 826.909 29.0011 826.984 29.1107L824.167 28.8643C824.102 28.7415 824.06 28.5715 824.039 28.3542C824.018 28.1369 824.019 27.9051 824.04 27.6587C824.062 27.403 824.083 27.1729 824.101 26.9683C824.118 26.7637 824.139 26.5336 824.161 26.2779C824.193 25.906 824.14 25.6051 824.001 25.3751C823.862 25.1451 823.585 25.012 823.172 24.9758L821.303 24.8123L822.11 24.0186L821.705 28.6489L818.957 28.4085ZM822.132 23.7676L821.486 22.7202L823.383 22.8862C823.62 22.9069 823.832 22.8763 824.019 22.7944C824.207 22.7124 824.359 22.584 824.475 22.4091C824.591 22.2342 824.66 22.0235 824.681 21.7772C824.708 21.475 824.622 21.2029 824.426 20.9608C824.229 20.7187 823.945 20.5814 823.573 20.5489L821.62 20.3781L822.496 19.6114L822.132 23.7676ZM836.704 26.2721C836.592 27.5506 836.142 28.4785 835.354 29.056C834.566 29.6335 833.544 29.8674 832.289 29.7575C831.033 29.6477 830.07 29.2402 829.399 28.535C828.727 27.8298 828.447 26.838 828.559 25.5595C828.573 25.3968 828.588 25.226 828.604 25.047C828.62 24.868 828.636 24.6832 828.653 24.4926L829.139 18.9348L831.956 19.1813L831.431 25.1784C831.42 25.3086 831.409 25.4318 831.399 25.548C831.389 25.6642 831.379 25.7735 831.37 25.8758C831.325 26.3964 831.38 26.8017 831.535 27.0917C831.69 27.3816 832.004 27.5473 832.478 27.5888C832.953 27.6303 833.293 27.5219 833.501 27.2637C833.709 27.0055 833.835 26.6161 833.881 26.0954L834.466 19.401L837.284 19.6474L836.704 26.2721ZM845.915 22.5106L842.233 22.1885L843.613 21.0303L842.785 30.4932L839.975 30.2473L840.803 20.7845L841.961 22.1647L838.286 21.8432L838.469 19.7511L846.098 20.4186L845.915 22.5106ZM844.85 30.6738L848.141 20.5973L852.611 20.9884L854.089 31.4822L851.209 31.2302L850.226 22.4731L850.24 22.4744L847.73 30.9258L844.85 30.6738ZM847.131 28.6951L847.316 26.5821L852.392 27.0263L852.207 29.1392L847.131 28.6951ZM866.934 22.2415L871.669 22.6558L870.77 32.9415L868.099 32.7078L868.867 23.9214L868.914 23.9535L866.551 32.5724L862.966 32.2588L862.089 23.3353L862.14 23.3117L861.369 32.1191L858.692 31.8848L859.592 21.5991L864.326 22.0133L864.957 31.3508L864.671 31.3258L866.934 22.2415ZM871.885 33.0391L875.177 22.9626L879.647 23.3537L881.125 33.8475L878.245 33.5955L877.261 24.8384L877.275 24.8397L874.765 33.2911L871.885 33.0391ZM874.166 31.0604L874.351 28.9474L879.428 29.3916L879.243 31.5045L874.166 31.0604ZM882.171 33.939L883.071 23.6533L887.631 24.0523C888.803 24.1548 889.646 24.4897 890.161 25.057C890.676 25.6244 890.893 26.3707 890.812 27.2958C890.766 27.8165 890.628 28.2517 890.395 28.6015C890.163 28.9512 889.89 29.2131 889.575 29.3869C889.26 29.5608 888.955 29.6466 888.66 29.6442C888.961 29.6892 889.235 29.7859 889.485 29.9342C889.734 30.0825 889.927 30.3019 890.063 30.5926C890.199 30.8832 890.247 31.2633 890.206 31.7329C890.18 32.0304 890.155 32.314 890.131 32.5836C890.108 32.8532 890.083 33.1368 890.057 33.4344C890.035 33.6808 890.035 33.9161 890.055 34.1404C890.075 34.3646 890.123 34.5316 890.197 34.6412L887.38 34.3947C887.316 34.272 887.273 34.102 887.253 33.8847C887.232 33.6673 887.232 33.4355 887.254 33.1891C887.276 32.9334 887.296 32.7033 887.314 32.4987C887.332 32.2942 887.352 32.0641 887.374 31.8084C887.407 31.4365 887.354 31.1355 887.215 30.9055C887.075 30.6755 886.799 30.5424 886.385 30.5062L884.516 30.3427L885.324 29.549L884.918 34.1793L882.171 33.939ZM885.346 29.298L884.699 28.2507L886.596 28.4166C886.833 28.4374 887.046 28.4068 887.233 28.3248C887.421 28.2428 887.572 28.1144 887.688 27.9395C887.804 27.7646 887.873 27.554 887.895 27.3076C887.921 27.0054 887.836 26.7333 887.639 26.4912C887.443 26.2492 887.158 26.1119 886.787 26.0793L884.834 25.9085L885.709 25.1419L885.346 29.298ZM891.418 34.7479L892.318 24.4622L895.093 24.705L894.193 34.9908L891.418 34.7479ZM895.204 35.0792L898.496 25.0028L902.966 25.3938L904.444 35.8876L901.564 35.6356L900.58 26.8786L900.594 26.8798L898.084 35.3312L895.204 35.0792ZM897.485 33.1005L897.67 30.9876L902.747 31.4317L902.562 33.5447L897.485 33.1005ZM908.23 36.2189L905.49 35.9791L906.39 25.6934L910.685 26.0692L912.697 35.7594L912.144 35.8234L912.98 26.2699L915.72 26.5097L914.82 36.7954L910.49 36.4165L908.475 26.7612L909.063 26.7002L908.23 36.2189ZM915.866 36.8869L919.158 26.8105L923.628 27.2015L925.106 37.6953L922.226 37.4433L921.242 28.6863L921.256 28.6875L918.746 37.1389L915.866 36.8869ZM918.147 34.9082L918.332 32.7953L923.409 33.2394L923.224 35.3523L918.147 34.9082Z" fill="white"/>
</g>
</g>
<defs>
<filter id="filter0_d_156_1426" x="0" y="0" width="963.55" height="284.234" filterUnits="userSpaceOnUse" color-interpolation-filters="sRGB">
<feFlood flood-opacity="0" result="BackgroundImageFix"/>
<feColorMatrix in="SourceAlpha" type="matrix" values="0 0 0 0 0 0 0 0 0 0 0 0 0 0 0 0 0 0 127 0" result="hardAlpha"/>
<feOffset dx="8" dy="8"/>
<feComposite in2="hardAlpha" operator="out"/>
<feColorMatrix type="matrix" values="0 0 0 0 0 0 0 0 0 0 0 0 0 0 0 0 0 0 1 0"/>
<feBlend mode="normal" in2="BackgroundImageFix" result="effect1_dropShadow_156_1426"/>
<feBlend mode="normal" in="SourceGraphic" in2="effect1_dropShadow_156_1426" result="shape"/>
</filter>
<filter id="filter1_d_156_1426" x="788.728" y="0" width="170.822" height="62.0921" filterUnits="userSpaceOnUse" color-interpolation-filters="sRGB">
<feFlood flood-opacity="0" result="BackgroundImageFix"/>
<feColorMatrix in="SourceAlpha" type="matrix" values="0 0 0 0 0 0 0 0 0 0 0 0 0 0 0 0 0 0 127 0" result="hardAlpha"/>
<feOffset dx="4" dy="4"/>
<feComposite in2="hardAlpha" operator="out"/>
<feColorMatrix type="matrix" values="0 0 0 0 0 0 0 0 0 0 0 0 0 0 0 0 0 0 1 0"/>
<feBlend mode="normal" in2="BackgroundImageFix" result="effect1_dropShadow_156_1426"/>
<feBlend mode="normal" in="SourceGraphic" in2="effect1_dropShadow_156_1426" result="shape"/>
</filter>
</defs>
</svg>
