<svg width="862" height="138" viewBox="0 0 862 138" fill="none" xmlns="http://www.w3.org/2000/svg">
<path d="M42.9422 47.3512C42.5575 49.3782 41.8081 51.4266 40.6941 53.4963C39.58 55.5661 38.1032 57.4772 36.2635 59.2295C34.4238 60.9819 32.2233 62.4055 29.662 63.5004C27.1007 64.5953 24.1703 65.1715 20.8708 65.2291C17.0114 65.2965 13.828 64.5569 11.3207 63.0104C8.81328 61.464 6.9356 59.3214 5.68761 56.5828C4.43963 53.8441 3.78509 50.7251 3.72401 47.2256C3.6535 43.1862 4.20883 39.476 5.39 36.0948C6.57118 32.7137 8.2653 29.7837 10.4724 27.3048C12.6794 24.8259 15.3111 22.8897 18.3672 21.4961C21.4233 20.1026 24.7911 19.3737 28.4706 19.3095C32.23 19.2438 35.3062 19.8552 37.699 21.1437C40.0919 22.4321 41.8665 24.1164 43.023 26.1965C44.1795 28.2767 44.7783 30.4966 44.8195 32.8562C44.8303 33.4761 44.811 34.0865 44.7615 34.6875C44.7119 35.2884 44.6224 35.8901 44.4929 36.4925L32.3448 36.7045C32.4188 36.3632 32.4766 35.9471 32.518 35.4563C32.5594 34.9655 32.5772 34.5501 32.5713 34.2102C32.5507 33.0303 32.3532 32.0286 31.9787 31.205C31.6043 30.3815 31.0382 29.7512 30.2805 29.3144C29.5227 28.8776 28.534 28.6698 27.3141 28.6911C25.3744 28.7249 23.6846 29.3245 22.2448 30.4898C20.8049 31.6551 19.6112 33.1712 18.6636 35.038C17.716 36.9048 17.0215 38.9423 16.5799 41.1503C16.1384 43.3584 15.936 45.5122 15.9726 47.6119C16.0187 50.2515 16.5795 52.297 17.655 53.7485C18.7305 55.1999 20.1881 55.9096 22.0278 55.8775C23.1476 55.8579 24.1889 55.6347 25.1516 55.2079C26.1143 54.781 26.9791 54.1908 27.7461 53.4373C28.5131 52.6838 29.1579 51.8074 29.6805 50.8081C30.2031 49.8089 30.5743 48.7272 30.794 47.5632L42.9422 47.3512ZM38.1946 64.1466L57.1293 19.5593L76.3564 19.2237L77.9385 63.4529L66.0903 63.6597L65.8642 26.638L65.9242 26.6369L51.1226 63.9209L38.1946 64.1466ZM49.0106 54.6564L50.8017 45.5337L72.6383 45.1526L70.8473 54.2752L49.0106 54.6564ZM91.5265 63.2157L79.4083 63.4272L88.0546 19.0195L105.002 18.7237C108.102 18.6696 110.656 19.2051 112.666 20.3302C114.676 21.4553 116.183 22.9842 117.187 24.917C118.191 26.8498 118.713 28.986 118.754 31.3256C118.8 33.9852 118.308 36.4292 117.277 38.6575C116.246 40.8859 114.809 42.8212 112.967 44.4636C111.126 46.106 109.003 47.3883 106.599 48.3104C104.194 49.2325 101.652 49.7169 98.9728 49.7637L94.1436 49.848L91.5265 63.2157ZM94.8301 46.2054L90.4176 40.9416L99.4762 40.7835C100.956 40.7577 102.23 40.3804 103.297 39.6517C104.364 38.9229 105.178 37.9486 105.736 36.7286C106.295 35.5087 106.561 34.1488 106.535 32.6491C106.517 31.5892 106.321 30.6925 105.948 29.9589C105.575 29.2253 105.056 28.6743 104.389 28.3059C103.723 27.9374 102.929 27.7613 102.01 27.7773L92.951 27.9354L99.4568 22.4811L94.8301 46.2054ZM115.253 62.8015L123.899 18.3939L136.017 18.1823L127.371 62.59L115.253 62.8015ZM124.393 15.7448L132.285 8.88607L141.313 8.72847L132.102 15.6103L124.393 15.7448ZM169.109 26.6061L153.272 26.8825L159.778 21.4282L151.847 62.1628L139.759 62.3738L147.689 21.6392L152.102 26.903L136.294 27.1789L138.057 18.1467L170.872 17.5739L169.109 26.6061ZM202.535 45.5256C201.471 51.045 199.183 55.2156 195.672 58.0373C192.161 60.859 187.855 62.3144 182.756 62.4034C177.817 62.4896 173.99 61.5262 171.274 59.5133C168.558 57.5004 167.166 54.4843 167.095 50.4649C167.073 49.1651 167.165 47.8633 167.372 46.5594C167.58 45.2556 167.885 43.56 168.289 41.4727L173.062 17.5357L185.18 17.3242L180.05 43.1577C179.847 44.1614 179.687 45.0093 179.569 45.7015C179.451 46.3936 179.367 47.0052 179.316 47.5361C179.265 48.0671 179.245 48.6126 179.255 49.1725C179.277 50.4523 179.624 51.4264 180.296 52.0947C180.968 52.7631 182.063 53.084 183.583 53.0575C185.623 53.0219 187.152 52.4051 188.172 51.2072C189.191 50.0092 189.921 48.2862 190.362 46.0381L195.978 17.1357L208.096 16.9242L202.535 45.5256ZM203.05 61.269L211.696 16.8614L223.814 16.6498L215.885 57.4744L211.58 51.4887L232.817 51.118L230.945 60.7821L203.05 61.269ZM251.236 61.2081C247.936 61.2657 244.93 60.628 242.216 59.2952C239.502 57.9623 237.332 55.9499 235.705 53.2579C234.077 50.5659 233.229 47.2202 233.159 43.2208C233.091 39.3214 233.638 35.6963 234.8 32.3455C235.961 28.9947 237.65 26.0548 239.866 23.5257C242.083 20.9967 244.753 19.0098 247.879 17.565C251.004 16.1202 254.496 15.3642 258.356 15.2968C261.715 15.2382 264.747 15.8654 267.45 17.1784C270.153 18.4914 272.313 20.474 273.93 23.1262C275.546 25.7784 276.389 29.0942 276.459 33.0736C276.526 36.953 275.975 40.5782 274.803 43.9491C273.632 47.3201 271.928 50.2903 269.693 52.8597C267.457 55.4291 264.782 57.4461 261.667 58.9107C258.552 60.3752 255.075 61.141 251.236 61.2081ZM252.152 51.8306C254.312 51.7929 256.162 51.2106 257.703 50.0835C259.243 48.9564 260.498 47.4843 261.466 45.6671C262.435 43.85 263.14 41.8524 263.582 39.6743C264.024 37.4963 264.226 35.3274 264.188 33.1677C264.15 30.9681 263.82 29.2486 263.198 28.0092C262.577 26.7699 261.766 25.8989 260.767 25.3963C259.768 24.8936 258.659 24.6529 257.439 24.6742C255.259 24.7123 253.399 25.2648 251.857 26.3319C250.316 27.399 249.065 28.811 248.106 30.568C247.146 32.325 246.455 34.2774 246.032 36.4251C245.61 38.5728 245.418 40.7565 245.457 42.9761C245.516 46.3756 246.187 48.7093 247.469 49.9771C248.752 51.2449 250.313 51.8628 252.152 51.8306ZM313.89 15.0776L305.244 59.4852L293.246 59.6947L299.771 26.1257C299.434 26.3116 298.803 26.5526 297.878 26.8488C296.953 27.145 295.888 27.4236 294.682 27.6847C293.477 27.9458 292.275 28.1268 291.076 28.2277L292.867 19.0751C294.085 18.9538 295.33 18.687 296.603 18.2747C297.876 17.8625 299.013 17.3875 300.014 16.85C301.015 16.3124 301.711 15.7902 302.102 15.2833L313.89 15.0776ZM318.099 60.221C316.459 60.2496 315.054 59.6991 313.884 58.5693C312.714 57.4395 312.115 56.0514 312.086 54.4048C312.058 52.7919 312.609 51.4005 313.739 50.2306C314.869 49.0607 316.257 48.4614 317.903 48.4326C319.516 48.4045 320.908 48.9547 322.077 50.0835C323.247 51.2122 323.846 52.5875 323.875 54.2093C323.903 55.849 323.353 57.2538 322.225 58.4237C321.096 59.5936 319.721 60.1927 318.099 60.221ZM322.282 38.5747C320.642 38.6033 319.237 38.0527 318.067 36.923C316.897 35.7932 316.298 34.4051 316.269 32.7585C316.241 31.1456 316.792 29.7542 317.922 28.5843C319.051 27.4144 320.44 26.815 322.086 26.7863C323.699 26.7581 325.09 27.3084 326.26 28.4372C327.43 29.5659 328.029 30.9411 328.058 32.563C328.086 34.2027 327.536 35.6075 326.407 36.7774C325.279 37.9473 323.903 38.5464 322.282 38.5747ZM378.178 22.9568L362.34 23.2332L368.846 17.7789L360.916 58.5135L348.827 58.7245L356.758 17.9899L361.17 23.2537L345.363 23.5296L347.125 14.4974L379.94 13.9246L378.178 22.9568ZM411.603 41.8763C410.539 47.3957 408.252 51.5663 404.74 54.388C401.229 57.2097 396.924 58.6651 391.824 58.7541C386.885 58.8403 383.058 57.8769 380.342 55.864C377.627 53.8511 376.234 50.835 376.164 46.8156C376.141 45.5158 376.233 44.214 376.441 42.9102C376.648 41.6063 376.953 39.9107 377.357 37.8234L382.13 13.8864L394.248 13.6749L389.118 39.5084C388.916 40.5121 388.755 41.36 388.637 42.0522C388.52 42.7443 388.435 43.3559 388.384 43.8869C388.334 44.4178 388.313 44.9633 388.323 45.5232C388.345 46.803 388.692 47.7771 389.364 48.4454C390.036 49.1138 391.132 49.4348 392.651 49.4082C394.691 49.3726 396.221 48.7558 397.24 47.5579C398.259 46.3599 398.989 44.6369 399.43 42.3889L405.046 13.4864L417.165 13.2749L411.603 41.8763ZM436.234 57.1988L424.116 57.4103L432.762 13.0026L449.71 12.7068C452.809 12.6527 455.364 13.1882 457.374 14.3133C459.384 15.4384 460.891 16.9673 461.895 18.9001C462.898 20.8329 463.421 22.9691 463.462 25.3087C463.508 27.9683 463.016 30.4123 461.984 32.6406C460.953 34.869 459.517 36.8043 457.675 38.4467C455.833 40.0891 453.711 41.3714 451.306 42.2935C448.902 43.2156 446.36 43.7 443.68 43.7468L438.851 43.8311L436.234 57.1988ZM439.538 40.1885L435.125 34.9247L444.184 34.7666C445.664 34.7408 446.937 34.3635 448.005 33.6348C449.072 32.906 449.885 31.9317 450.444 30.7118C451.003 29.4918 451.269 28.132 451.243 26.6322C451.224 25.5723 451.029 24.6756 450.656 23.942C450.283 23.2084 449.763 22.6574 449.097 22.289C448.43 21.9206 447.637 21.7444 446.717 21.7604L437.659 21.9185L444.164 16.4642L439.538 40.1885ZM460.17 56.781L468.817 12.3733L488.434 12.0309C492.853 11.9537 496.023 12.7786 497.943 14.5053C499.864 16.232 500.849 18.5252 500.899 21.3848C500.928 23.0245 500.686 24.649 500.174 26.2582C499.662 27.8673 498.927 29.3404 497.971 30.6773C497.014 32.0142 495.883 33.1141 494.578 33.977C493.273 34.8399 491.851 35.3448 490.313 35.4917C491.394 35.5328 492.388 35.7405 493.295 36.1147C494.201 36.489 494.927 37.0814 495.471 37.892C496.015 38.7026 496.299 39.7879 496.323 41.1476C496.335 41.8075 496.273 42.5737 496.138 43.4462C496.003 44.3187 495.835 45.2468 495.632 46.2305C495.429 47.2142 495.221 48.198 495.008 49.1818C494.795 50.1657 494.622 51.0989 494.487 51.9813C494.352 52.8638 494.291 53.635 494.302 54.2949C494.309 54.6949 494.346 55.0593 494.411 55.3882C494.477 55.7171 494.572 55.9805 494.695 56.1783L482.577 56.3899C482.37 55.9734 482.259 55.3553 482.245 54.5354C482.234 53.9155 482.287 53.2245 482.403 52.4623C482.52 51.7001 482.661 50.9076 482.827 50.0845C482.993 49.2615 483.163 48.4434 483.339 47.6302C483.515 46.817 483.662 46.0494 483.779 45.3272C483.897 44.605 483.95 43.964 483.941 43.4041C483.922 42.3643 483.563 41.5654 482.864 41.0075C482.164 40.4497 481.124 40.1828 479.744 40.2068L469.696 40.3822L475.789 37.0954L471.989 56.5747L460.17 56.781ZM476.312 34.3859L471.458 31.3501L481.927 31.1674C483.007 31.1485 484.022 30.8958 484.974 30.4091C485.926 29.9224 486.689 29.239 487.264 28.3588C487.838 27.4786 488.115 26.4286 488.094 25.2088C488.073 24.049 487.726 23.0649 487.052 22.2566C486.378 21.4482 485.301 21.0569 483.821 21.0828L473.413 21.2645L479.918 15.8101L476.312 34.3859ZM496.885 56.1401L505.531 11.7325L517.649 11.5209L509.003 55.9286L496.885 56.1401ZM552.804 10.9073L573.411 10.5476L564.765 54.9553L553.276 55.1558L560.655 17.2212L560.837 17.3381L546.617 55.272L531.2 55.5412L531.5 17.7602L531.738 17.636L524.331 55.6611L512.812 55.8621L521.459 11.4544L541.586 11.1031L540.208 50.7632L538.978 50.7847L552.804 10.9073ZM582.267 19.3944L588.8 13.8195L585.412 31.1313L583.346 27.9269L599.243 27.6494L597.511 36.681L581.613 36.9585L584.917 33.6903L581.53 51.1221L577.146 45.7378L599.132 45.354L597.37 54.3862L568.664 54.8872L577.31 10.4795L606.016 9.97849L604.253 19.0106L582.267 19.3944ZM600.969 54.3233L609.615 9.91566L629.232 9.57324C633.652 9.4961 636.822 10.3209 638.742 12.0477C640.662 13.7744 641.648 16.0676 641.698 18.9271C641.726 20.5669 641.484 22.1913 640.972 23.8005C640.46 25.4097 639.726 26.8827 638.769 28.2196C637.812 29.5565 636.681 30.6565 635.376 31.5194C634.071 32.3823 632.65 32.8872 631.112 33.034C632.193 33.0752 633.187 33.2828 634.093 33.6571C635 34.0313 635.726 34.6237 636.27 35.4344C636.814 36.245 637.098 37.3302 637.122 38.69C637.133 39.3499 637.072 40.1161 636.937 40.9886C636.802 41.8611 636.633 42.7891 636.43 43.7728C636.227 44.7565 636.02 45.7403 635.807 46.7242C635.594 47.708 635.42 48.6412 635.286 49.5237C635.151 50.4062 635.089 51.1774 635.101 51.8373C635.108 52.2372 635.144 52.6016 635.21 52.9305C635.276 53.2594 635.37 53.5228 635.494 53.7207L623.376 53.9322C623.168 53.5158 623.058 52.8976 623.043 52.0777C623.032 51.4578 623.085 50.7668 623.202 50.0047C623.319 49.2425 623.46 48.4499 623.626 47.6269C623.791 46.8039 623.962 45.9858 624.138 45.1726C624.314 44.3594 624.46 43.5917 624.578 42.8696C624.695 42.1474 624.749 41.5064 624.739 40.9464C624.721 39.9066 624.362 39.1077 623.662 38.5499C622.962 37.992 621.923 37.7251 620.543 37.7492L610.494 37.9246L616.588 34.6377L612.787 54.117L600.969 54.3233ZM617.111 31.9282L612.257 28.8925L622.725 28.7097C623.805 28.6909 624.821 28.4381 625.773 27.9514C626.724 27.4647 627.487 26.7813 628.062 25.9012C628.637 25.021 628.914 23.971 628.892 22.7512C628.872 21.5914 628.525 20.6073 627.851 19.7989C627.176 18.9906 626.099 18.5993 624.62 18.6251L614.211 18.8068L620.717 13.3524L617.111 31.9282Z" fill="black"/>
<path d="M1.7774 124.791L10.4237 80.3828L30.0407 80.0404C34.46 79.9633 37.6299 80.7881 39.5504 82.5148C41.4708 84.2416 42.4559 86.5347 42.5059 89.3943C42.5345 91.034 42.2928 92.6585 41.7808 94.2677C41.2688 95.8769 40.5344 97.3499 39.5776 98.6868C38.6208 100.024 37.4898 101.124 36.1847 101.987C34.8795 102.849 33.4581 103.354 31.9204 103.501C33.0013 103.542 33.9951 103.75 34.9018 104.124C35.8084 104.498 36.5339 105.091 37.0781 105.902C37.6224 106.712 37.9063 107.797 37.9301 109.157C37.9416 109.817 37.88 110.583 37.7452 111.456C37.6104 112.328 37.4415 113.256 37.2387 114.24C37.0358 115.224 36.828 116.207 36.6151 117.191C36.4022 118.175 36.2285 119.108 36.0939 119.991C35.9592 120.873 35.8977 121.645 35.9092 122.304C35.9162 122.704 35.9526 123.069 36.0183 123.398C36.0841 123.727 36.1787 123.99 36.3021 124.188L24.184 124.399C23.9767 123.983 23.8659 123.365 23.8516 122.545C23.8408 121.925 23.8937 121.234 24.0104 120.472C24.1271 119.71 24.2683 118.917 24.434 118.094C24.5996 117.271 24.7704 116.453 24.9462 115.64C25.1221 114.827 25.2687 114.059 25.3861 113.337C25.5035 112.615 25.5573 111.974 25.5476 111.414C25.5294 110.374 25.1704 109.575 24.4706 109.017C23.7707 108.459 22.7309 108.192 21.3511 108.216L11.3027 108.392L17.3962 105.105L13.5956 124.584L1.7774 124.791ZM17.919 102.395L13.0653 99.3596L23.5337 99.1769C24.6135 99.158 25.6293 98.9053 26.5809 98.4186C27.5326 97.9319 28.2958 97.2485 28.8705 96.3683C29.4452 95.4882 29.7219 94.4382 29.7006 93.2184C29.6804 92.0585 29.3332 91.0744 28.659 90.2661C27.9848 89.4577 26.9078 89.0665 25.428 89.0923L15.0196 89.274L21.5254 83.8196L17.919 102.395ZM52.3044 88.6532L58.8381 83.0783L55.4497 100.39L53.3835 97.1856L69.2811 96.9081L67.5484 105.94L51.6509 106.217L54.9543 102.949L51.568 120.381L47.1834 114.997L69.1701 114.613L67.4074 123.645L38.7018 124.146L47.3481 79.7383L76.0537 79.2372L74.2911 88.2694L52.3044 88.6532ZM111.119 106.169C110.734 108.196 109.985 110.245 108.871 112.315C107.757 114.384 106.28 116.295 104.44 118.048C102.601 119.8 100.4 121.224 97.8389 122.319C95.2776 123.413 92.3472 123.99 89.0477 124.047C85.1883 124.115 82.0049 123.375 79.4976 121.829C76.9902 120.282 75.1125 118.14 73.8645 115.401C72.6165 112.662 71.962 109.543 71.9009 106.044C71.8304 102.004 72.3857 98.2942 73.5669 94.913C74.7481 91.5319 76.4422 88.6019 78.6493 86.123C80.8564 83.6441 83.488 81.7079 86.5441 80.3143C89.6003 78.9208 92.9681 78.1919 96.6475 78.1277C100.407 78.062 103.483 78.6735 105.876 79.9619C108.269 81.2503 110.043 82.9346 111.2 85.0147C112.356 87.0949 112.955 89.3148 112.996 91.6744C113.007 92.2943 112.988 92.9047 112.938 93.5057C112.889 94.1067 112.799 94.7083 112.67 95.3107L100.522 95.5227C100.596 95.1814 100.653 94.7653 100.695 94.2745C100.736 93.7837 100.754 93.3683 100.748 93.0284C100.728 91.8486 100.53 90.8469 100.156 90.0233C99.7812 89.1997 99.2151 88.5695 98.4574 88.1326C97.6996 87.6958 96.7109 87.488 95.4911 87.5093C93.5513 87.5431 91.8616 88.1427 90.4217 89.308C88.9818 90.4733 87.7881 91.9894 86.8405 93.8562C85.8929 95.723 85.1984 97.7605 84.7569 99.9685C84.3153 102.177 84.1129 104.33 84.1495 106.43C84.1956 109.07 84.7564 111.115 85.8319 112.567C86.9074 114.018 88.365 114.728 90.2047 114.696C91.3245 114.676 92.3658 114.453 93.3285 114.026C94.2912 113.599 95.156 113.009 95.923 112.256C96.69 111.502 97.3348 110.626 97.8574 109.626C98.38 108.627 98.7512 107.545 98.9709 106.381L111.119 106.169ZM131.281 123.31C127.982 123.368 124.975 122.73 122.262 121.397C119.548 120.064 117.377 118.052 115.75 115.36C114.123 112.668 113.274 109.322 113.205 105.323C113.137 101.423 113.683 97.7984 114.845 94.4476C116.007 91.0968 117.696 88.1569 119.912 85.6278C122.128 83.0987 124.799 81.1118 127.924 79.6671C131.049 78.2223 134.542 77.4662 138.401 77.3989C141.761 77.3402 144.792 77.9674 147.495 79.2804C150.199 80.5934 152.359 82.5761 153.975 85.2282C155.592 87.8804 156.435 91.1962 156.504 95.1756C156.572 99.055 156.02 102.68 154.849 106.051C153.677 109.422 151.974 112.392 149.738 114.962C147.503 117.531 144.828 119.548 141.713 121.013C138.598 122.477 135.121 123.243 131.281 123.31ZM132.198 113.933C134.357 113.895 136.208 113.313 137.748 112.186C139.289 111.059 140.543 109.586 141.512 107.769C142.48 105.952 143.185 103.954 143.627 101.776C144.069 99.5983 144.272 97.4295 144.234 95.2698C144.196 93.0701 143.865 91.3506 143.244 90.1113C142.622 88.8719 141.812 88.001 140.813 87.4983C139.814 86.9957 138.704 86.755 137.485 86.7763C135.305 86.8143 133.444 87.3669 131.903 88.434C130.361 89.501 129.111 90.9131 128.151 92.6701C127.192 94.4271 126.501 96.3794 126.078 98.5272C125.655 100.675 125.464 102.859 125.502 105.078C125.562 108.478 126.232 110.811 127.515 112.079C128.797 113.347 130.358 113.965 132.198 113.933ZM154.394 122.127L163.04 77.7189L182.658 77.3765C187.077 77.2993 190.247 78.1241 192.167 79.8509C194.088 81.5776 195.073 83.8708 195.123 86.7304C195.151 88.3701 194.91 89.9946 194.398 91.6038C193.886 93.2129 193.151 94.686 192.194 96.0229C191.238 97.3598 190.107 98.4597 188.801 99.3226C187.496 100.186 186.075 100.69 184.537 100.837C185.618 100.878 186.612 101.086 187.519 101.46C188.425 101.835 189.151 102.427 189.695 103.238C190.239 104.048 190.523 105.133 190.547 106.493C190.558 107.153 190.497 107.919 190.362 108.792C190.227 109.664 190.058 110.592 189.855 111.576C189.653 112.56 189.445 113.544 189.232 114.527C189.019 115.511 188.845 116.444 188.711 117.327C188.576 118.209 188.514 118.981 188.526 119.641C188.533 120.04 188.569 120.405 188.635 120.734C188.701 121.063 188.795 121.326 188.919 121.524L176.801 121.735C176.593 121.319 176.483 120.701 176.468 119.881C176.458 119.261 176.511 118.57 176.627 117.808C176.744 117.046 176.885 116.253 177.051 115.43C177.216 114.607 177.387 113.789 177.563 112.976C177.739 112.163 177.885 111.395 178.003 110.673C178.12 109.951 178.174 109.31 178.164 108.75C178.146 107.71 177.787 106.911 177.087 106.353C176.388 105.795 175.348 105.528 173.968 105.552L163.919 105.728L170.013 102.441L166.212 121.92L154.394 122.127ZM170.536 99.7314L165.682 96.6957L176.15 96.513C177.23 96.4941 178.246 96.2413 179.198 95.7547C180.149 95.268 180.913 94.5846 181.487 93.7044C182.062 92.8242 182.339 91.7742 182.317 90.5544C182.297 89.3946 181.95 88.4105 181.276 87.6022C180.602 86.7938 179.525 86.4025 178.045 86.4284L167.636 86.61L174.142 81.1557L170.536 99.7314ZM191.319 121.482L199.965 77.0744L219.582 76.732C224.001 76.6548 227.171 77.4796 229.092 79.2064C231.012 80.9331 231.997 83.2263 232.047 86.0858C232.076 87.7256 231.834 89.3501 231.322 90.9592C230.81 92.5684 230.076 94.0415 229.119 95.3784C228.162 96.7153 227.031 97.8152 225.726 98.6781C224.421 99.541 222.999 100.046 221.462 100.193C222.543 100.234 223.536 100.442 224.443 100.816C225.35 101.19 226.075 101.782 226.619 102.593C227.164 103.404 227.448 104.489 227.471 105.849C227.483 106.509 227.421 107.275 227.286 108.147C227.152 109.02 226.983 109.948 226.78 110.932C226.577 111.915 226.369 112.899 226.156 113.883C225.943 114.867 225.77 115.8 225.635 116.682C225.5 117.565 225.439 118.336 225.45 118.996C225.457 119.396 225.494 119.76 225.56 120.089C225.625 120.418 225.72 120.682 225.843 120.879L213.725 121.091C213.518 120.674 213.407 120.056 213.393 119.236C213.382 118.617 213.435 117.926 213.552 117.163C213.668 116.401 213.81 115.609 213.975 114.786C214.141 113.963 214.312 113.144 214.487 112.331C214.663 111.518 214.81 110.75 214.927 110.028C215.045 109.306 215.099 108.665 215.089 108.105C215.071 107.065 214.712 106.266 214.012 105.709C213.312 105.151 212.272 104.884 210.892 104.908L200.844 105.083L206.937 101.796L203.137 121.276L191.319 121.482ZM207.46 99.0869L202.606 96.0512L213.075 95.8684C214.155 95.8496 215.17 95.5968 216.122 95.1101C217.074 94.6235 217.837 93.94 218.412 93.0599C218.986 92.1797 219.263 91.1297 219.242 89.9099C219.222 88.7501 218.874 87.766 218.2 86.9576C217.526 86.1493 216.449 85.758 214.969 85.7838L204.561 85.9655L211.067 80.5111L207.46 99.0869ZM228.033 120.841L236.679 76.4335L248.797 76.222L240.151 120.63L228.033 120.841ZM243.661 120.568L252.307 76.1607L268.444 75.8791C271.904 75.8187 274.847 76.5174 277.272 77.9753C279.698 79.4332 281.564 81.4409 282.868 83.9986C284.173 86.5562 284.854 89.4447 284.91 92.6643C284.975 96.4037 284.387 99.9295 283.144 103.242C281.902 106.554 280.153 109.475 277.896 112.005C275.64 114.534 272.995 116.531 269.96 117.994C266.925 119.457 263.638 120.22 260.098 120.281L243.661 120.568ZM256.495 116.684L252.072 110.82L260.231 110.678C262.13 110.645 263.846 110.12 265.379 109.103C266.911 108.086 268.223 106.758 269.315 105.118C270.406 103.479 271.24 101.674 271.816 99.7039C272.391 97.7335 272.662 95.7785 272.629 93.8388C272.597 92.059 272.281 90.5443 271.679 89.2947C271.077 88.045 270.241 87.0994 269.169 86.458C268.098 85.8166 266.832 85.5087 265.373 85.5341L257.214 85.6766L263.709 79.6223L256.495 116.684ZM303.695 120.301C300.396 120.358 297.389 119.721 294.675 118.388C291.962 117.055 289.791 115.042 288.164 112.35C286.537 109.658 285.688 106.313 285.618 102.313C285.55 98.414 286.097 94.7889 287.259 91.4381C288.421 88.0873 290.11 85.1474 292.326 82.6183C294.542 80.0892 297.213 78.1023 300.338 76.6576C303.463 75.2128 306.956 74.4567 310.815 74.3894C314.174 74.3307 317.206 74.9579 319.909 76.2709C322.613 77.584 324.772 79.5666 326.389 82.2188C328.006 84.8709 328.849 88.1867 328.918 92.1661C328.986 96.0455 328.434 99.6707 327.263 103.042C326.091 106.413 324.388 109.383 322.152 111.952C319.917 114.522 317.242 116.539 314.127 118.003C311.012 119.468 307.535 120.234 303.695 120.301ZM304.612 110.923C306.771 110.886 308.621 110.303 310.162 109.176C311.703 108.049 312.957 106.577 313.925 104.76C314.894 102.943 315.599 100.945 316.041 98.7669C316.483 96.5888 316.685 94.42 316.648 92.2603C316.609 90.0606 316.279 88.3411 315.658 87.1018C315.036 85.8625 314.226 84.9915 313.227 84.4888C312.228 83.9862 311.118 83.7455 309.898 83.7668C307.719 83.8048 305.858 84.3574 304.317 85.4245C302.775 86.4915 301.524 87.9036 300.565 89.6606C299.605 91.4176 298.914 93.37 298.492 95.5177C298.069 97.6654 297.877 99.849 297.916 102.069C297.975 105.468 298.646 107.802 299.929 109.07C301.211 110.337 302.772 110.955 304.612 110.923Z" fill="black"/>
</svg>
