<svg width="936" height="98" viewBox="0 0 936 98" fill="none" xmlns="http://www.w3.org/2000/svg">
<g clip-path="url(#clip0_156_1418)">
<path d="M11.292 10.3L7.524 28H2.724L5.568 14.62C5.432 14.692 5.178 14.784 4.806 14.896C4.434 15.008 4.006 15.112 3.522 15.208C3.038 15.304 2.556 15.368 2.076 15.4L2.856 11.752C3.344 11.712 3.844 11.614 4.356 11.458C4.868 11.302 5.326 11.12 5.73 10.912C6.134 10.704 6.416 10.5 6.576 10.3H11.292ZM15.852 28L19.62 10.3H26.076C27.46 10.3 28.632 10.6 29.592 11.2C30.552 11.8 31.284 12.616 31.788 13.648C32.292 14.68 32.544 15.84 32.544 17.128C32.544 18.624 32.284 20.03 31.764 21.346C31.244 22.662 30.524 23.818 29.604 24.814C28.684 25.81 27.612 26.59 26.388 27.154C25.164 27.718 23.844 28 22.428 28H15.852ZM21.012 26.536L19.284 24.16H22.548C23.308 24.16 23.998 23.962 24.618 23.566C25.238 23.17 25.772 22.648 26.22 22C26.668 21.352 27.014 20.636 27.258 19.852C27.502 19.068 27.624 18.288 27.624 17.512C27.624 16.8 27.508 16.192 27.276 15.688C27.044 15.184 26.716 14.8 26.292 14.536C25.868 14.272 25.364 14.14 24.78 14.14H21.516L24.156 11.764L21.012 26.536ZM37.74 13.9L40.392 11.716L38.916 18.616L38.112 17.32H44.472L43.716 20.92H37.356L38.7 19.636L37.224 26.584L35.508 24.4H44.304L43.536 28H32.052L35.82 10.3H47.304L46.536 13.9H37.74ZM62.904 18.664C63.56 18.688 64.1 18.856 64.524 19.168C64.948 19.48 65.262 19.882 65.466 20.374C65.67 20.866 65.772 21.396 65.772 21.964C65.772 22.924 65.572 23.788 65.172 24.556C64.772 25.324 64.22 25.978 63.516 26.518C62.812 27.058 61.994 27.47 61.062 27.754C60.13 28.038 59.128 28.18 58.056 28.18C56.552 28.18 55.364 27.976 54.492 27.568C53.62 27.16 53 26.614 52.632 25.93C52.264 25.246 52.08 24.5 52.08 23.692C52.08 23.26 52.108 22.896 52.164 22.6C52.22 22.304 52.256 22.128 52.272 22.072H57.108C57.092 22.144 57.064 22.292 57.024 22.516C56.984 22.74 56.964 22.96 56.964 23.176C56.964 23.76 57.116 24.16 57.42 24.376C57.724 24.592 58.124 24.7 58.62 24.7C59.004 24.7 59.344 24.624 59.64 24.472C59.936 24.32 60.182 24.114 60.378 23.854C60.574 23.594 60.722 23.294 60.822 22.954C60.922 22.614 60.972 22.256 60.972 21.88C60.972 21.536 60.898 21.258 60.75 21.046C60.602 20.834 60.378 20.68 60.078 20.584C59.778 20.488 59.396 20.44 58.932 20.44H58.344L59.04 17.2H59.628C60.172 17.2 60.662 17.098 61.098 16.894C61.534 16.69 61.878 16.406 62.13 16.042C62.382 15.678 62.508 15.26 62.508 14.788C62.508 14.388 62.37 14.094 62.094 13.906C61.818 13.718 61.468 13.624 61.044 13.624C60.46 13.624 59.922 13.792 59.43 14.128C58.938 14.464 58.6 15.076 58.416 15.964H53.58C53.796 14.964 54.2 14.02 54.792 13.132C55.384 12.244 56.222 11.522 57.306 10.966C58.39 10.41 59.772 10.132 61.452 10.132C62.9 10.132 64.064 10.322 64.944 10.702C65.824 11.082 66.462 11.58 66.858 12.196C67.254 12.812 67.452 13.468 67.452 14.164C67.452 14.964 67.244 15.7 66.828 16.372C66.412 17.044 65.86 17.586 65.172 17.998C64.484 18.41 63.728 18.632 62.904 18.664ZM77.292 13.9L79.944 11.716L78.468 18.616L77.664 17.32H84.024L83.268 20.92H76.908L78.252 19.636L76.776 26.584L75.06 24.4H83.856L83.088 28H71.604L75.372 10.3H86.856L86.088 13.9H77.292ZM91.74 28.312C90.62 28.312 89.6 28.14 88.68 27.796C87.76 27.452 87.028 26.948 86.484 26.284C85.94 25.62 85.668 24.808 85.668 23.848C85.668 23.472 85.692 23.15 85.74 22.882C85.788 22.614 85.848 22.348 85.92 22.084H90.756C90.7 22.284 90.658 22.474 90.63 22.654C90.602 22.834 90.588 22.992 90.588 23.128C90.588 23.552 90.734 23.9 91.026 24.172C91.318 24.444 91.764 24.58 92.364 24.58C92.804 24.58 93.214 24.53 93.594 24.43C93.974 24.33 94.28 24.17 94.512 23.95C94.744 23.73 94.86 23.444 94.86 23.092C94.86 22.62 94.548 22.198 93.924 21.826C93.3 21.454 92.512 21.084 91.56 20.716C90.904 20.452 90.252 20.14 89.604 19.78C88.956 19.42 88.42 18.966 87.996 18.418C87.572 17.87 87.36 17.188 87.36 16.372C87.36 15.396 87.568 14.516 87.984 13.732C88.4 12.948 88.97 12.278 89.694 11.722C90.418 11.166 91.248 10.74 92.184 10.444C93.12 10.148 94.108 10 95.148 10C96.308 10 97.344 10.176 98.256 10.528C99.168 10.88 99.886 11.38 100.41 12.028C100.934 12.676 101.196 13.444 101.196 14.332C101.196 14.652 101.17 14.964 101.118 15.268C101.066 15.572 101.016 15.8 100.968 15.952H96.132C96.148 15.88 96.174 15.754 96.21 15.574C96.246 15.394 96.264 15.216 96.264 15.04C96.264 14.656 96.126 14.34 95.85 14.092C95.574 13.844 95.144 13.72 94.56 13.72C94.088 13.72 93.668 13.784 93.3 13.912C92.932 14.04 92.642 14.23 92.43 14.482C92.218 14.734 92.112 15.056 92.112 15.448C92.112 15.88 92.4 16.256 92.976 16.576C93.552 16.896 94.296 17.244 95.208 17.62C96.048 17.964 96.808 18.334 97.488 18.73C98.168 19.126 98.708 19.6 99.108 20.152C99.508 20.704 99.708 21.396 99.708 22.228C99.708 23.532 99.348 24.638 98.628 25.546C97.908 26.454 96.944 27.142 95.736 27.61C94.528 28.078 93.196 28.312 91.74 28.312ZM117.18 21.316C117.012 22.124 116.698 22.938 116.238 23.758C115.778 24.578 115.174 25.332 114.426 26.02C113.678 26.708 112.788 27.262 111.756 27.682C110.724 28.102 109.548 28.312 108.228 28.312C106.684 28.312 105.416 27.994 104.424 27.358C103.432 26.722 102.696 25.852 102.216 24.748C101.736 23.644 101.496 22.392 101.496 20.992C101.496 19.376 101.744 17.896 102.24 16.552C102.736 15.208 103.434 14.048 104.334 13.072C105.234 12.096 106.3 11.34 107.532 10.804C108.764 10.268 110.116 10 111.588 10C113.092 10 114.318 10.266 115.266 10.798C116.214 11.33 116.912 12.016 117.36 12.856C117.808 13.696 118.032 14.588 118.032 15.532C118.032 15.78 118.02 16.024 117.996 16.264C117.972 16.504 117.932 16.744 117.876 16.984H113.016C113.048 16.848 113.074 16.682 113.094 16.486C113.114 16.29 113.124 16.124 113.124 15.988C113.124 15.516 113.052 15.114 112.908 14.782C112.764 14.45 112.542 14.194 112.242 14.014C111.942 13.834 111.548 13.744 111.06 13.744C110.284 13.744 109.604 13.972 109.02 14.428C108.436 14.884 107.948 15.482 107.556 16.222C107.164 16.962 106.872 17.772 106.68 18.652C106.488 19.532 106.392 20.392 106.392 21.232C106.392 22.288 106.602 23.11 107.022 23.698C107.442 24.286 108.02 24.58 108.756 24.58C109.204 24.58 109.622 24.498 110.01 24.334C110.398 24.17 110.748 23.94 111.06 23.644C111.372 23.348 111.636 23.002 111.852 22.606C112.068 22.21 112.224 21.78 112.32 21.316H117.18ZM123 13.9L125.652 11.716L124.176 18.616L123.372 17.32H129.732L128.976 20.92H122.616L123.96 19.636L122.484 26.584L120.768 24.4H129.564L128.796 28H117.312L121.08 10.3H132.564L131.796 13.9H123ZM135.552 28H130.836L134.604 10.3H142.476L142.788 26.548L142.452 26.74L145.944 10.3H150.66L146.892 28H138.96L138.636 11.812L139.032 11.62L135.552 28ZM148.104 28L155.988 10.3H163.68L164.004 28H159.264L159.432 13.192H159.456L153.276 28H148.104ZM152.496 24.28L153.276 20.644H162.012L161.232 24.28H152.496ZM171.804 28.312C170.684 28.312 169.664 28.14 168.744 27.796C167.824 27.452 167.092 26.948 166.548 26.284C166.004 25.62 165.732 24.808 165.732 23.848C165.732 23.472 165.756 23.15 165.804 22.882C165.852 22.614 165.912 22.348 165.984 22.084H170.82C170.764 22.284 170.722 22.474 170.694 22.654C170.666 22.834 170.652 22.992 170.652 23.128C170.652 23.552 170.798 23.9 171.09 24.172C171.382 24.444 171.828 24.58 172.428 24.58C172.868 24.58 173.278 24.53 173.658 24.43C174.038 24.33 174.344 24.17 174.576 23.95C174.808 23.73 174.924 23.444 174.924 23.092C174.924 22.62 174.612 22.198 173.988 21.826C173.364 21.454 172.576 21.084 171.624 20.716C170.968 20.452 170.316 20.14 169.668 19.78C169.02 19.42 168.484 18.966 168.06 18.418C167.636 17.87 167.424 17.188 167.424 16.372C167.424 15.396 167.632 14.516 168.048 13.732C168.464 12.948 169.034 12.278 169.758 11.722C170.482 11.166 171.312 10.74 172.248 10.444C173.184 10.148 174.172 10 175.212 10C176.372 10 177.408 10.176 178.32 10.528C179.232 10.88 179.95 11.38 180.474 12.028C180.998 12.676 181.26 13.444 181.26 14.332C181.26 14.652 181.234 14.964 181.182 15.268C181.13 15.572 181.08 15.8 181.032 15.952H176.196C176.212 15.88 176.238 15.754 176.274 15.574C176.31 15.394 176.328 15.216 176.328 15.04C176.328 14.656 176.19 14.34 175.914 14.092C175.638 13.844 175.208 13.72 174.624 13.72C174.152 13.72 173.732 13.784 173.364 13.912C172.996 14.04 172.706 14.23 172.494 14.482C172.282 14.734 172.176 15.056 172.176 15.448C172.176 15.88 172.464 16.256 173.04 16.576C173.616 16.896 174.36 17.244 175.272 17.62C176.112 17.964 176.872 18.334 177.552 18.73C178.232 19.126 178.772 19.6 179.172 20.152C179.572 20.704 179.772 21.396 179.772 22.228C179.772 23.532 179.412 24.638 178.692 25.546C177.972 26.454 177.008 27.142 175.8 27.61C174.592 28.078 173.26 28.312 171.804 28.312ZM185.64 28L189.408 10.3H195.864C197.248 10.3 198.42 10.6 199.38 11.2C200.34 11.8 201.072 12.616 201.576 13.648C202.08 14.68 202.332 15.84 202.332 17.128C202.332 18.624 202.072 20.03 201.552 21.346C201.032 22.662 200.312 23.818 199.392 24.814C198.472 25.81 197.4 26.59 196.176 27.154C194.952 27.718 193.632 28 192.216 28H185.64ZM190.8 26.536L189.072 24.16H192.336C193.096 24.16 193.786 23.962 194.406 23.566C195.026 23.17 195.56 22.648 196.008 22C196.456 21.352 196.802 20.636 197.046 19.852C197.29 19.068 197.412 18.288 197.412 17.512C197.412 16.8 197.296 16.192 197.064 15.688C196.832 15.184 196.504 14.8 196.08 14.536C195.656 14.272 195.152 14.14 194.568 14.14H191.304L193.944 11.764L190.8 26.536ZM207.528 13.9L210.18 11.716L208.704 18.616L207.9 17.32H214.26L213.504 20.92H207.144L208.488 19.636L207.012 26.584L205.296 24.4H214.092L213.324 28H201.84L205.608 10.3H217.092L216.324 13.9H207.528ZM221.976 28.312C220.856 28.312 219.836 28.14 218.916 27.796C217.996 27.452 217.264 26.948 216.72 26.284C216.176 25.62 215.904 24.808 215.904 23.848C215.904 23.472 215.928 23.15 215.976 22.882C216.024 22.614 216.084 22.348 216.156 22.084H220.992C220.936 22.284 220.894 22.474 220.866 22.654C220.838 22.834 220.824 22.992 220.824 23.128C220.824 23.552 220.97 23.9 221.262 24.172C221.554 24.444 222 24.58 222.6 24.58C223.04 24.58 223.45 24.53 223.83 24.43C224.21 24.33 224.516 24.17 224.748 23.95C224.98 23.73 225.096 23.444 225.096 23.092C225.096 22.62 224.784 22.198 224.16 21.826C223.536 21.454 222.748 21.084 221.796 20.716C221.14 20.452 220.488 20.14 219.84 19.78C219.192 19.42 218.656 18.966 218.232 18.418C217.808 17.87 217.596 17.188 217.596 16.372C217.596 15.396 217.804 14.516 218.22 13.732C218.636 12.948 219.206 12.278 219.93 11.722C220.654 11.166 221.484 10.74 222.42 10.444C223.356 10.148 224.344 10 225.384 10C226.544 10 227.58 10.176 228.492 10.528C229.404 10.88 230.122 11.38 230.646 12.028C231.17 12.676 231.432 13.444 231.432 14.332C231.432 14.652 231.406 14.964 231.354 15.268C231.302 15.572 231.252 15.8 231.204 15.952H226.368C226.384 15.88 226.41 15.754 226.446 15.574C226.482 15.394 226.5 15.216 226.5 15.04C226.5 14.656 226.362 14.34 226.086 14.092C225.81 13.844 225.38 13.72 224.796 13.72C224.324 13.72 223.904 13.784 223.536 13.912C223.168 14.04 222.878 14.23 222.666 14.482C222.454 14.734 222.348 15.056 222.348 15.448C222.348 15.88 222.636 16.256 223.212 16.576C223.788 16.896 224.532 17.244 225.444 17.62C226.284 17.964 227.044 18.334 227.724 18.73C228.404 19.126 228.944 19.6 229.344 20.152C229.744 20.704 229.944 21.396 229.944 22.228C229.944 23.532 229.584 24.638 228.864 25.546C228.144 26.454 227.18 27.142 225.972 27.61C224.764 28.078 223.432 28.312 221.976 28.312ZM241.92 10.3C243.248 10.3 244.254 10.464 244.938 10.792C245.622 11.12 246.086 11.534 246.33 12.034C246.574 12.534 246.696 13.048 246.696 13.576C246.696 14.4 246.55 15.13 246.258 15.766C245.966 16.402 245.596 16.942 245.148 17.386C244.7 17.83 244.236 18.172 243.756 18.412C243.276 18.652 242.848 18.788 242.472 18.82C242.968 18.836 243.438 18.984 243.882 19.264C244.326 19.544 244.69 19.914 244.974 20.374C245.258 20.834 245.4 21.348 245.4 21.916C245.4 23.012 245.116 24.022 244.548 24.946C243.98 25.87 243.156 26.61 242.076 27.166C240.996 27.722 239.688 28 238.152 28H230.412L234.18 10.3H241.92ZM237.024 18.472L235.116 17.164H239.172C239.652 17.164 240.076 17.074 240.444 16.894C240.812 16.714 241.1 16.464 241.308 16.144C241.516 15.824 241.62 15.464 241.62 15.064C241.62 14.688 241.512 14.4 241.296 14.2C241.08 14 240.612 13.9 239.892 13.9H235.836L238.488 11.764L237.024 18.472ZM237.972 24.388C238.692 24.388 239.286 24.184 239.754 23.776C240.222 23.368 240.456 22.824 240.456 22.144C240.456 21.904 240.414 21.676 240.33 21.46C240.246 21.244 240.082 21.07 239.838 20.938C239.594 20.806 239.232 20.74 238.752 20.74H234.384L236.796 19.564L235.332 26.524L233.604 24.388H237.972ZM245.796 28L249.564 10.3H254.412L250.956 26.572L249.276 24.148H257.772L256.956 28H245.796ZM265.668 28.312C264.348 28.312 263.15 28.036 262.074 27.484C260.998 26.932 260.144 26.112 259.512 25.024C258.88 23.936 258.564 22.592 258.564 20.992C258.564 19.432 258.808 17.986 259.296 16.654C259.784 15.322 260.48 14.158 261.384 13.162C262.288 12.166 263.37 11.39 264.63 10.834C265.89 10.278 267.292 10 268.836 10C270.18 10 271.388 10.272 272.46 10.816C273.532 11.36 274.382 12.168 275.01 13.24C275.638 14.312 275.952 15.644 275.952 17.236C275.952 18.788 275.706 20.234 275.214 21.574C274.722 22.914 274.02 24.09 273.108 25.102C272.196 26.114 271.112 26.902 269.856 27.466C268.6 28.03 267.204 28.312 265.668 28.312ZM266.1 24.568C266.964 24.568 267.708 24.348 268.332 23.908C268.956 23.468 269.468 22.888 269.868 22.168C270.268 21.448 270.564 20.654 270.756 19.786C270.948 18.918 271.044 18.052 271.044 17.188C271.044 16.308 270.924 15.618 270.684 15.118C270.444 14.618 270.126 14.264 269.73 14.056C269.334 13.848 268.892 13.744 268.404 13.744C267.532 13.744 266.784 13.952 266.16 14.368C265.536 14.784 265.026 15.34 264.63 16.036C264.234 16.732 263.944 17.508 263.76 18.364C263.576 19.22 263.484 20.092 263.484 20.98C263.484 22.34 263.736 23.278 264.24 23.794C264.744 24.31 265.364 24.568 266.1 24.568ZM281.316 27.736H285.408C285.408 28.056 285.518 28.316 285.738 28.516C285.958 28.716 286.222 28.874 286.53 28.99C286.838 29.106 287.13 29.188 287.406 29.236C287.682 29.284 287.88 29.316 288 29.332L286.08 32.536C285.952 32.536 285.71 32.514 285.354 32.47C284.998 32.426 284.592 32.324 284.136 32.164C283.68 32.004 283.236 31.752 282.804 31.408C282.372 31.064 282.016 30.596 281.736 30.004C281.456 29.412 281.316 28.656 281.316 27.736ZM283.932 28.312C282.612 28.312 281.414 28.036 280.338 27.484C279.262 26.932 278.408 26.112 277.776 25.024C277.144 23.936 276.828 22.592 276.828 20.992C276.828 19.432 277.072 17.986 277.56 16.654C278.048 15.322 278.744 14.158 279.648 13.162C280.552 12.166 281.634 11.39 282.894 10.834C284.154 10.278 285.556 10 287.1 10C288.444 10 289.652 10.272 290.724 10.816C291.796 11.36 292.646 12.168 293.274 13.24C293.902 14.312 294.216 15.644 294.216 17.236C294.216 18.788 293.97 20.234 293.478 21.574C292.986 22.914 292.284 24.09 291.372 25.102C290.46 26.114 289.376 26.902 288.12 27.466C286.864 28.03 285.468 28.312 283.932 28.312ZM284.364 24.568C285.228 24.568 285.972 24.348 286.596 23.908C287.22 23.468 287.732 22.888 288.132 22.168C288.532 21.448 288.828 20.654 289.02 19.786C289.212 18.918 289.308 18.052 289.308 17.188C289.308 16.308 289.188 15.618 288.948 15.118C288.708 14.618 288.39 14.264 287.994 14.056C287.598 13.848 287.156 13.744 286.668 13.744C285.796 13.744 285.048 13.952 284.424 14.368C283.8 14.784 283.29 15.34 282.894 16.036C282.498 16.732 282.208 17.508 282.024 18.364C281.84 19.22 281.748 20.092 281.748 20.98C281.748 22.34 282 23.278 282.504 23.794C283.008 24.31 283.628 24.568 284.364 24.568ZM309.192 21.7C308.728 23.9 307.784 25.552 306.36 26.656C304.936 27.76 303.204 28.312 301.164 28.312C299.188 28.312 297.664 27.9 296.592 27.076C295.52 26.252 294.984 25.036 294.984 23.428C294.984 22.908 295.03 22.388 295.122 21.868C295.214 21.348 295.348 20.672 295.524 19.84L297.6 10.3H302.448L300.216 20.596C300.128 20.996 300.058 21.334 300.006 21.61C299.954 21.886 299.916 22.13 299.892 22.342C299.868 22.554 299.856 22.772 299.856 22.996C299.856 23.508 299.988 23.9 300.252 24.172C300.516 24.444 300.952 24.58 301.56 24.58C302.376 24.58 302.992 24.344 303.408 23.872C303.824 23.4 304.128 22.716 304.32 21.82L306.768 10.3H311.616L309.192 21.7ZM315.576 13.9L318.228 11.716L316.752 18.616L315.948 17.32H322.308L321.552 20.92H315.192L316.536 19.636L315.06 26.584L313.344 24.4H322.14L321.372 28H309.888L313.656 10.3H325.14L324.372 13.9H315.576ZM322.344 28L330.228 10.3H337.92L338.244 28H333.504L333.672 13.192H333.696L327.516 28H322.344ZM326.736 24.28L327.516 20.644H336.252L335.472 24.28H326.736ZM339.432 28L343.2 10.3H349.656C351.04 10.3 352.212 10.6 353.172 11.2C354.132 11.8 354.864 12.616 355.368 13.648C355.872 14.68 356.124 15.84 356.124 17.128C356.124 18.624 355.864 20.03 355.344 21.346C354.824 22.662 354.104 23.818 353.184 24.814C352.264 25.81 351.192 26.59 349.968 27.154C348.744 27.718 347.424 28 346.008 28H339.432ZM344.592 26.536L342.864 24.16H346.128C346.888 24.16 347.578 23.962 348.198 23.566C348.818 23.17 349.352 22.648 349.8 22C350.248 21.352 350.594 20.636 350.838 19.852C351.082 19.068 351.204 18.288 351.204 17.512C351.204 16.8 351.088 16.192 350.856 15.688C350.624 15.184 350.296 14.8 349.872 14.536C349.448 14.272 348.944 14.14 348.36 14.14H345.096L347.736 11.764L344.592 26.536ZM354.084 28L361.968 10.3H369.66L369.984 28H365.244L365.412 13.192H365.436L359.256 28H354.084ZM358.476 24.28L359.256 20.644H367.992L367.212 24.28H358.476ZM377.784 28.312C376.664 28.312 375.644 28.14 374.724 27.796C373.804 27.452 373.072 26.948 372.528 26.284C371.984 25.62 371.712 24.808 371.712 23.848C371.712 23.472 371.736 23.15 371.784 22.882C371.832 22.614 371.892 22.348 371.964 22.084H376.8C376.744 22.284 376.702 22.474 376.674 22.654C376.646 22.834 376.632 22.992 376.632 23.128C376.632 23.552 376.778 23.9 377.07 24.172C377.362 24.444 377.808 24.58 378.408 24.58C378.848 24.58 379.258 24.53 379.638 24.43C380.018 24.33 380.324 24.17 380.556 23.95C380.788 23.73 380.904 23.444 380.904 23.092C380.904 22.62 380.592 22.198 379.968 21.826C379.344 21.454 378.556 21.084 377.604 20.716C376.948 20.452 376.296 20.14 375.648 19.78C375 19.42 374.464 18.966 374.04 18.418C373.616 17.87 373.404 17.188 373.404 16.372C373.404 15.396 373.612 14.516 374.028 13.732C374.444 12.948 375.014 12.278 375.738 11.722C376.462 11.166 377.292 10.74 378.228 10.444C379.164 10.148 380.152 10 381.192 10C382.352 10 383.388 10.176 384.3 10.528C385.212 10.88 385.93 11.38 386.454 12.028C386.978 12.676 387.24 13.444 387.24 14.332C387.24 14.652 387.214 14.964 387.162 15.268C387.11 15.572 387.06 15.8 387.012 15.952H382.176C382.192 15.88 382.218 15.754 382.254 15.574C382.29 15.394 382.308 15.216 382.308 15.04C382.308 14.656 382.17 14.34 381.894 14.092C381.618 13.844 381.188 13.72 380.604 13.72C380.132 13.72 379.712 13.784 379.344 13.912C378.976 14.04 378.686 14.23 378.474 14.482C378.262 14.734 378.156 15.056 378.156 15.448C378.156 15.88 378.444 16.256 379.02 16.576C379.596 16.896 380.34 17.244 381.252 17.62C382.092 17.964 382.852 18.334 383.532 18.73C384.212 19.126 384.752 19.6 385.152 20.152C385.552 20.704 385.752 21.396 385.752 22.228C385.752 23.532 385.392 24.638 384.672 25.546C383.952 26.454 382.988 27.142 381.78 27.61C380.572 28.078 379.24 28.312 377.784 28.312Z" fill="white"/>
<path d="M905.13 21.22C905.703 21.24 906.222 21.4 906.685 21.7C907.148 22 907.515 22.4033 907.785 22.91C908.055 23.4167 908.19 23.9967 908.19 24.65C908.19 25.4433 907.997 26.1917 907.61 26.895C907.223 27.5983 906.617 28.1683 905.79 28.605C904.963 29.0417 903.893 29.26 902.58 29.26C901.44 29.26 900.5 29.1133 899.76 28.82C899.02 28.5267 898.44 28.1317 898.02 27.635C897.6 27.1383 897.305 26.585 897.135 25.975C896.965 25.365 896.88 24.74 896.88 24.1C896.88 24.0933 896.88 24.0867 896.88 24.08C896.88 24.0733 896.88 24.0667 896.88 24.06H900.91C900.91 24.0667 900.91 24.0733 900.91 24.08C900.91 24.0867 900.91 24.0933 900.91 24.1C900.91 24.6667 900.982 25.105 901.125 25.415C901.268 25.725 901.468 25.9417 901.725 26.065C901.982 26.1883 902.283 26.25 902.63 26.25C903.063 26.25 903.425 26.125 903.715 25.875C904.005 25.625 904.15 25.18 904.15 24.54C904.15 24.2067 904.11 23.9233 904.03 23.69C903.95 23.4567 903.83 23.2667 903.67 23.12C903.51 22.9733 903.303 22.8667 903.05 22.8C902.797 22.7333 902.493 22.7 902.14 22.7H901.65V20H902.14C902.493 20 902.797 19.9567 903.05 19.87C903.303 19.7833 903.512 19.6617 903.675 19.505C903.838 19.3483 903.958 19.1667 904.035 18.96C904.112 18.7533 904.15 18.5333 904.15 18.3C904.15 17.86 904.008 17.5367 903.725 17.33C903.442 17.1233 903.097 17.02 902.69 17.02C902.203 17.02 901.785 17.16 901.435 17.44C901.085 17.72 900.91 18.23 900.91 18.97H896.88C896.88 18.3433 896.983 17.735 897.19 17.145C897.397 16.555 897.723 16.0233 898.17 15.55C898.617 15.0767 899.207 14.7 899.94 14.42C900.673 14.14 901.563 14 902.61 14C903.937 14 905.008 14.2067 905.825 14.62C906.642 15.0333 907.24 15.5533 907.62 16.18C908 16.8067 908.19 17.44 908.19 18.08C908.19 18.6533 908.055 19.1733 907.785 19.64C907.515 20.1067 907.148 20.48 906.685 20.76C906.222 21.04 905.703 21.1933 905.13 21.22ZM918.32 21.22C918.893 21.24 919.412 21.4 919.875 21.7C920.338 22 920.705 22.4033 920.975 22.91C921.245 23.4167 921.38 23.9967 921.38 24.65C921.38 25.4433 921.187 26.1917 920.8 26.895C920.413 27.5983 919.807 28.1683 918.98 28.605C918.153 29.0417 917.083 29.26 915.77 29.26C914.63 29.26 913.69 29.1133 912.95 28.82C912.21 28.5267 911.63 28.1317 911.21 27.635C910.79 27.1383 910.495 26.585 910.325 25.975C910.155 25.365 910.07 24.74 910.07 24.1C910.07 24.0933 910.07 24.0867 910.07 24.08C910.07 24.0733 910.07 24.0667 910.07 24.06H914.1C914.1 24.0667 914.1 24.0733 914.1 24.08C914.1 24.0867 914.1 24.0933 914.1 24.1C914.1 24.6667 914.172 25.105 914.315 25.415C914.458 25.725 914.658 25.9417 914.915 26.065C915.172 26.1883 915.473 26.25 915.82 26.25C916.253 26.25 916.615 26.125 916.905 25.875C917.195 25.625 917.34 25.18 917.34 24.54C917.34 24.2067 917.3 23.9233 917.22 23.69C917.14 23.4567 917.02 23.2667 916.86 23.12C916.7 22.9733 916.493 22.8667 916.24 22.8C915.987 22.7333 915.683 22.7 915.33 22.7H914.84V20H915.33C915.683 20 915.987 19.9567 916.24 19.87C916.493 19.7833 916.702 19.6617 916.865 19.505C917.028 19.3483 917.148 19.1667 917.225 18.96C917.302 18.7533 917.34 18.5333 917.34 18.3C917.34 17.86 917.198 17.5367 916.915 17.33C916.632 17.1233 916.287 17.02 915.88 17.02C915.393 17.02 914.975 17.16 914.625 17.44C914.275 17.72 914.1 18.23 914.1 18.97H910.07C910.07 18.3433 910.173 17.735 910.38 17.145C910.587 16.555 910.913 16.0233 911.36 15.55C911.807 15.0767 912.397 14.7 913.13 14.42C913.863 14.14 914.753 14 915.8 14C917.127 14 918.198 14.2067 919.015 14.62C919.832 15.0333 920.43 15.5533 920.81 16.18C921.19 16.8067 921.38 17.44 921.38 18.08C921.38 18.6533 921.245 19.1733 920.975 19.64C920.705 20.1067 920.338 20.48 919.875 20.76C919.412 21.04 918.893 21.1933 918.32 21.22ZM935.65 15.52L924.4 28.74L923.03 27.58L934.28 14.36L935.65 15.52ZM925.91 19.44C925.397 19.44 924.915 19.3333 924.465 19.12C924.015 18.9067 923.653 18.6 923.38 18.2C923.107 17.8 922.97 17.33 922.97 16.79C922.97 16.2433 923.107 15.77 923.38 15.37C923.653 14.97 924.015 14.6617 924.465 14.445C924.915 14.2283 925.397 14.12 925.91 14.12C926.443 14.12 926.938 14.2283 927.395 14.445C927.852 14.6617 928.218 14.97 928.495 15.37C928.772 15.77 928.91 16.2433 928.91 16.79C928.91 17.33 928.772 17.8 928.495 18.2C928.218 18.6 927.852 18.9067 927.395 19.12C926.938 19.3333 926.443 19.44 925.91 19.44ZM925.91 17.83C926.11 17.83 926.3 17.7967 926.48 17.73C926.66 17.6633 926.808 17.5533 926.925 17.4C927.042 17.2467 927.1 17.0433 927.1 16.79C927.1 16.53 927.042 16.3233 926.925 16.17C926.808 16.0167 926.66 15.9067 926.48 15.84C926.3 15.7733 926.11 15.74 925.91 15.74C925.723 15.74 925.543 15.7733 925.37 15.84C925.197 15.9067 925.055 16.0167 924.945 16.17C924.835 16.3233 924.78 16.53 924.78 16.79C924.78 17.0433 924.835 17.2467 924.945 17.4C925.055 17.5533 925.197 17.6633 925.37 17.73C925.543 17.7967 925.723 17.83 925.91 17.83ZM932.51 29.01C931.997 29.01 931.515 28.9033 931.065 28.69C930.615 28.4767 930.253 28.17 929.98 27.77C929.707 27.37 929.57 26.9 929.57 26.36C929.57 25.8133 929.707 25.34 929.98 24.94C930.253 24.54 930.615 24.2317 931.065 24.015C931.515 23.7983 931.997 23.69 932.51 23.69C933.043 23.69 933.538 23.7983 933.995 24.015C934.452 24.2317 934.82 24.54 935.1 24.94C935.38 25.34 935.52 25.8133 935.52 26.36C935.52 26.9 935.38 27.37 935.1 27.77C934.82 28.17 934.452 28.4767 933.995 28.69C933.538 28.9033 933.043 29.01 932.51 29.01ZM932.51 27.4C932.71 27.4 932.9 27.3667 933.08 27.3C933.26 27.2333 933.408 27.1233 933.525 26.97C933.642 26.8167 933.7 26.6133 933.7 26.36C933.7 26.1 933.642 25.8933 933.525 25.74C933.408 25.5867 933.26 25.4767 933.08 25.41C932.9 25.3433 932.71 25.31 932.51 25.31C932.323 25.31 932.143 25.3433 931.97 25.41C931.797 25.4767 931.655 25.5867 931.545 25.74C931.435 25.8933 931.38 26.1 931.38 26.36C931.38 26.6133 931.435 26.8167 931.545 26.97C931.655 27.1233 931.797 27.2333 931.97 27.3C932.143 27.3667 932.323 27.4 932.51 27.4Z" fill="#0546ED"/>
<g filter="url(#filter0_d_156_1418)">
<rect y="53" width="936" height="40" fill="#DBDDE0" shape-rendering="crispEdges"/>
<rect x="3" y="56" width="930" height="34" stroke="white" stroke-width="6" shape-rendering="crispEdges"/>
<mask id="path-5-inside-1_156_1418" fill="white">
<path d="M6 59H313.98V87H6V59Z"/>
</mask>
<path d="M6 59H313.98V87H6V59Z" fill="url(#paint0_linear_156_1418)"/>
<path d="M313.98 59H307.98V87H313.98H319.98V59H313.98Z" fill="black" mask="url(#path-5-inside-1_156_1418)"/>
</g>
</g>
<defs>
<filter id="filter0_d_156_1418" x="0" y="52.9999" width="940" height="44.0001" filterUnits="userSpaceOnUse" color-interpolation-filters="sRGB">
<feFlood flood-opacity="0" result="BackgroundImageFix"/>
<feColorMatrix in="SourceAlpha" type="matrix" values="0 0 0 0 0 0 0 0 0 0 0 0 0 0 0 0 0 0 127 0" result="hardAlpha"/>
<feOffset dx="4" dy="4"/>
<feComposite in2="hardAlpha" operator="out"/>
<feColorMatrix type="matrix" values="0 0 0 0 0 0 0 0 0 0 0 0 0 0 0 0 0 0 1 0"/>
<feBlend mode="normal" in2="BackgroundImageFix" result="effect1_dropShadow_156_1418"/>
<feBlend mode="normal" in="SourceGraphic" in2="effect1_dropShadow_156_1418" result="shape"/>
</filter>
<linearGradient id="paint0_linear_156_1418" x1="75.8559" y1="155.495" x2="240.814" y2="-12.7406" gradientUnits="userSpaceOnUse">
<stop stop-color="#849AFF"/>
<stop offset="0.0428576" stop-color="#849AFF"/>
<stop offset="0.0428576" stop-color="#0546ED"/>
<stop offset="0.0857151" stop-color="#0546ED"/>
</linearGradient>
<clipPath id="clip0_156_1418">
<rect width="936" height="98" fill="white"/>
</clipPath>
</defs>
</svg>
