<svg width="226" height="32" viewBox="0 0 226 32" fill="none" xmlns="http://www.w3.org/2000/svg">
<g filter="url(#filter0_d_154_1388)">
<path d="M1.125 25V7.53906H13.7109V11.3594H5.85938V14.3125H13.0547V18.0391H5.85938V21.1797H13.6641V25H1.125ZM16.4461 25L23.9695 14.3242V17.9453L17.1492 7.53906H22.6453L24.0398 9.8125C24.3836 10.3672 24.6668 10.8965 24.8895 11.4004C25.1121 11.9043 25.3152 12.3809 25.4988 12.8301C25.6824 13.2793 25.8836 13.6992 26.1023 14.0898H24.6727C24.907 13.6992 25.118 13.2793 25.3055 12.8301C25.493 12.3809 25.7 11.9043 25.9266 11.4004C26.1531 10.8965 26.4383 10.3672 26.782 9.8125L28.2 7.53906H33.5555L26.9461 17.6641V14.2773L34.2352 25H28.575L26.6766 22C26.3641 21.5 26.1199 21.0801 25.9441 20.7402C25.7684 20.4004 25.616 20.0938 25.4871 19.8203C25.3582 19.5469 25.2 19.2617 25.0125 18.9648H25.6453C25.4656 19.2617 25.3094 19.5488 25.1766 19.8262C25.0437 20.1035 24.8895 20.4121 24.7137 20.752C24.5379 21.0918 24.2859 21.5078 23.9578 22L21.9539 25H16.4461ZM37.0992 25V7.53906H44.6227C45.9195 7.53906 47.0543 7.79492 48.027 8.30664C48.9996 8.81836 49.7574 9.53906 50.3004 10.4688C50.8434 11.3984 51.1148 12.4844 51.1148 13.7266C51.1148 14.9766 50.8375 16.0566 50.2828 16.9668C49.7281 17.877 48.9508 18.5801 47.9508 19.0762C46.9508 19.5723 45.7867 19.8203 44.4586 19.8203H39.9586V16.1406H43.4977C44.0602 16.1406 44.5406 16.041 44.9391 15.8418C45.3375 15.6426 45.6422 15.3633 45.8531 15.0039C46.0641 14.6445 46.1695 14.2188 46.1695 13.7266C46.1695 13.2188 46.0641 12.7871 45.8531 12.4316C45.6422 12.0762 45.3375 11.8047 44.9391 11.6172C44.5406 11.4297 44.0602 11.3359 43.4977 11.3359H41.8336V25H37.0992ZM54.0492 25V7.53906H66.6352V11.3594H58.7836V14.3125H65.9789V18.0391H58.7836V21.1797H66.5883V25H54.0492ZM76.6828 25H71.9016V20.9688H76.4953C77.3625 20.9688 78.1027 20.832 78.716 20.5586C79.3293 20.2852 79.7961 19.8066 80.1164 19.123C80.4367 18.4395 80.5969 17.4922 80.5969 16.2812C80.5969 15.0625 80.4328 14.1113 80.1047 13.4277C79.7766 12.7441 79.298 12.2637 78.6691 11.9863C78.0402 11.709 77.2688 11.5703 76.3547 11.5703H71.8313V7.53906H76.6125C78.4094 7.53906 79.9602 7.88867 81.2648 8.58789C82.5695 9.28711 83.5773 10.2891 84.2883 11.5938C84.9992 12.8984 85.3547 14.4609 85.3547 16.2812C85.3547 18.0938 85.0012 19.6523 84.2941 20.957C83.5871 22.2617 82.5852 23.2617 81.2883 23.957C79.9914 24.6523 78.4563 25 76.6828 25ZM74.6906 7.53906V25H69.9563V7.53906H74.6906ZM93.2344 7.53906V25H88.5V7.53906H93.2344ZM104.794 25.2344C103.2 25.2344 101.768 24.8906 100.499 24.2031C99.2293 23.5156 98.2254 22.5059 97.4871 21.1738C96.7488 19.8418 96.3797 18.2109 96.3797 16.2812C96.3797 14.3359 96.7547 12.6953 97.5047 11.3594C98.2547 10.0234 99.2664 9.01367 100.54 8.33008C101.813 7.64648 103.231 7.30469 104.794 7.30469C105.88 7.30469 106.882 7.45117 107.8 7.74414C108.718 8.03711 109.524 8.46484 110.22 9.02734C110.915 9.58984 111.477 10.2812 111.907 11.1016C112.337 11.9219 112.606 12.8594 112.716 13.9141H107.911C107.864 13.5391 107.764 13.1992 107.612 12.8945C107.46 12.5898 107.259 12.3281 107.009 12.1094C106.759 11.8906 106.46 11.7227 106.112 11.6055C105.764 11.4883 105.372 11.4297 104.934 11.4297C104.145 11.4297 103.475 11.623 102.925 12.0098C102.374 12.3965 101.958 12.9512 101.677 13.6738C101.395 14.3965 101.255 15.2656 101.255 16.2812C101.255 17.3438 101.399 18.2344 101.688 18.9531C101.977 19.6719 102.393 20.2109 102.936 20.5703C103.479 20.9297 104.137 21.1094 104.911 21.1094C105.348 21.1094 105.739 21.0508 106.083 20.9336C106.427 20.8164 106.727 20.6484 106.985 20.4297C107.243 20.2109 107.452 19.9492 107.612 19.6445C107.772 19.3398 107.88 19 107.934 18.625H112.739C112.684 19.3672 112.479 20.125 112.124 20.8984C111.768 21.6719 111.261 22.3867 110.6 23.043C109.94 23.6992 109.128 24.2285 108.163 24.6309C107.198 25.0332 106.075 25.2344 104.794 25.2344ZM120.56 7.53906V25H115.826V7.53906H120.56ZM132.19 25.2344C130.604 25.2344 129.168 24.8906 127.883 24.2031C126.598 23.5156 125.58 22.5059 124.83 21.1738C124.08 19.8418 123.705 18.2109 123.705 16.2812C123.705 14.3359 124.08 12.6953 124.83 11.3594C125.58 10.0234 126.598 9.01367 127.883 8.33008C129.168 7.64648 130.604 7.30469 132.19 7.30469C133.776 7.30469 135.209 7.64648 136.491 8.33008C137.772 9.01367 138.789 10.0234 139.543 11.3594C140.297 12.6953 140.674 14.3359 140.674 16.2812C140.674 18.2188 140.297 19.8535 139.543 21.1855C138.789 22.5176 137.772 23.5254 136.491 24.209C135.209 24.8926 133.776 25.2344 132.19 25.2344ZM132.19 21.1094C132.979 21.1094 133.641 20.9238 134.176 20.5527C134.711 20.1816 135.116 19.6367 135.389 18.918C135.662 18.1992 135.799 17.3203 135.799 16.2812C135.799 15.2344 135.662 14.3496 135.389 13.627C135.116 12.9043 134.711 12.3574 134.176 11.9863C133.641 11.6152 132.979 11.4297 132.19 11.4297C131.409 11.4297 130.75 11.6152 130.215 11.9863C129.68 12.3574 129.274 12.9043 128.996 13.627C128.719 14.3496 128.58 15.2344 128.58 16.2812C128.58 17.3203 128.719 18.1992 128.996 18.918C129.274 19.6367 129.68 20.1816 130.215 20.5527C130.75 20.9238 131.409 21.1094 132.19 21.1094ZM130.62 5.92188L132.237 2.10156H136.268L133.713 5.92188H130.62ZM143.82 25V7.53906H148.976L153.136 14.3945C153.495 14.9883 153.831 15.582 154.144 16.1758C154.456 16.7695 154.759 17.4238 155.052 18.1387C155.345 18.8535 155.644 19.6875 155.948 20.6406H155.538C155.499 20.0078 155.45 19.2754 155.392 18.4434C155.333 17.6113 155.28 16.791 155.234 15.9824C155.187 15.1738 155.163 14.4922 155.163 13.9375V7.53906H160.038V25H154.882L151.003 18.625C150.566 17.8984 150.181 17.2207 149.849 16.5918C149.517 15.9629 149.196 15.2969 148.888 14.5938C148.579 13.8906 148.226 13.0781 147.827 12.1562H148.32C148.382 12.9766 148.443 13.793 148.501 14.6055C148.56 15.418 148.607 16.1719 148.642 16.8672C148.677 17.5625 148.695 18.1484 148.695 18.625V25H143.82ZM176.993 25.2109C175.493 25.2109 174.179 24.9473 173.05 24.4199C171.921 23.8926 171.042 23.1426 170.413 22.1699C169.784 21.1973 169.47 20.0469 169.47 18.7188V7.53906H174.204V18.3203C174.204 18.8672 174.325 19.3496 174.567 19.7676C174.809 20.1855 175.139 20.5137 175.557 20.752C175.975 20.9902 176.454 21.1094 176.993 21.1094C177.54 21.1094 178.024 20.9902 178.446 20.752C178.868 20.5137 179.2 20.1855 179.442 19.7676C179.684 19.3496 179.805 18.8672 179.805 18.3203V7.53906H184.54V18.7188C184.54 20.0469 184.223 21.1973 183.591 22.1699C182.958 23.1426 182.075 23.8926 180.942 24.4199C179.809 24.9473 178.493 25.2109 176.993 25.2109ZM186.935 25L192.595 7.53906H199.064L204.935 25H199.568L197.541 18.2266C197.103 16.7578 196.693 15.2324 196.31 13.6504C195.927 12.0684 195.564 10.4961 195.22 8.93359H196.298C195.97 10.4961 195.638 12.0684 195.302 13.6504C194.966 15.2324 194.587 16.7578 194.166 18.2266L192.232 25H186.935ZM191.13 21.6484V18.1094H200.74V21.6484H191.13ZM214.807 25.2344C213.221 25.2344 211.786 24.8906 210.5 24.2031C209.215 23.5156 208.198 22.5059 207.448 21.1738C206.698 19.8418 206.323 18.2109 206.323 16.2812C206.323 14.3359 206.698 12.6953 207.448 11.3594C208.198 10.0234 209.215 9.01367 210.5 8.33008C211.786 7.64648 213.221 7.30469 214.807 7.30469C216.393 7.30469 217.827 7.64648 219.108 8.33008C220.389 9.01367 221.407 10.0234 222.161 11.3594C222.914 12.6953 223.291 14.3359 223.291 16.2812C223.291 18.2188 222.914 19.8535 222.161 21.1855C221.407 22.5176 220.389 23.5254 219.108 24.209C217.827 24.8926 216.393 25.2344 214.807 25.2344ZM214.807 21.1094C215.596 21.1094 216.258 20.9238 216.793 20.5527C217.329 20.1816 217.733 19.6367 218.006 18.918C218.28 18.1992 218.416 17.3203 218.416 16.2812C218.416 15.2344 218.28 14.3496 218.006 13.627C217.733 12.9043 217.329 12.3574 216.793 11.9863C216.258 11.6152 215.596 11.4297 214.807 11.4297C214.026 11.4297 213.368 11.6152 212.832 11.9863C212.297 12.3574 211.891 12.9043 211.614 13.627C211.336 14.3496 211.198 15.2344 211.198 16.2812C211.198 17.3203 211.336 18.1992 211.614 18.918C211.891 19.6367 212.297 20.1816 212.832 20.5527C213.368 20.9238 214.026 21.1094 214.807 21.1094Z" fill="#60A5FA"/>
</g>
<defs>
<filter id="filter0_d_154_1388" x="0" y="0" width="227.31" height="34" filterUnits="userSpaceOnUse" color-interpolation-filters="sRGB">
<feFlood flood-opacity="0" result="BackgroundImageFix"/>
<feColorMatrix in="SourceAlpha" type="matrix" values="0 0 0 0 0 0 0 0 0 0 0 0 0 0 0 0 0 0 127 0" result="hardAlpha"/>
<feOffset dx="2" dy="2"/>
<feComposite in2="hardAlpha" operator="out"/>
<feColorMatrix type="matrix" values="0 0 0 0 0 0 0 0 0 0 0 0 0 0 0 0 0 0 1 0"/>
<feBlend mode="normal" in2="BackgroundImageFix" result="effect1_dropShadow_154_1388"/>
<feBlend mode="normal" in="SourceGraphic" in2="effect1_dropShadow_154_1388" result="shape"/>
</filter>
</defs>
</svg>
