<svg width="171" height="63" viewBox="0 0 171 63" fill="none" xmlns="http://www.w3.org/2000/svg">
<g filter="url(#filter0_d_156_1432)">
<rect x="3.83483" width="163.61" height="44" transform="rotate(4.99997 3.83483 0)" fill="#0546ED" shape-rendering="crispEdges"/>
<rect x="5.65291" y="2.1667" width="159.61" height="40" transform="rotate(4.99997 5.65291 2.1667)" stroke="white" stroke-width="4" shape-rendering="crispEdges"/>
<path d="M30.2294 28.4085L31.1293 18.1228L35.6898 18.5218C36.8614 18.6243 37.7046 18.9592 38.2194 19.5266C38.7342 20.094 38.9512 20.8402 38.8703 21.7653C38.8247 22.286 38.6859 22.7213 38.4539 23.071C38.2218 23.4208 37.9483 23.6826 37.6333 23.8565C37.3183 24.0304 37.0133 24.1161 36.7184 24.1137C37.0189 24.1588 37.2939 24.2554 37.5433 24.4037C37.7926 24.552 37.9854 24.7715 38.1216 25.0621C38.2578 25.3528 38.3053 25.7329 38.2642 26.2024C38.2382 26.4999 38.2134 26.7835 38.1898 27.0532C38.1662 27.3228 38.1414 27.6064 38.1154 27.9039C38.0938 28.1503 38.0931 28.3856 38.1133 28.6099C38.1335 28.8342 38.181 29.0011 38.2557 29.1107L35.4385 28.8643C35.3743 28.7415 35.3318 28.5715 35.311 28.3542C35.2902 28.1369 35.2905 27.9051 35.3121 27.6587C35.3345 27.403 35.3546 27.1729 35.3725 26.9683C35.3904 26.7637 35.4105 26.5336 35.4329 26.2779C35.4654 25.906 35.4121 25.6051 35.273 25.3751C35.1338 25.1451 34.8574 25.012 34.4436 24.9758L32.5747 24.8123L33.382 24.0186L32.9769 28.6489L30.2294 28.4085ZM33.404 23.7676L32.7578 22.7202L34.6545 22.8862C34.8916 22.9069 35.1039 22.8763 35.2915 22.7944C35.479 22.7124 35.6308 22.584 35.7468 22.4091C35.8628 22.2342 35.9316 22.0235 35.9531 21.7772C35.9796 21.475 35.8945 21.2029 35.6978 20.9608C35.5012 20.7187 35.2169 20.5814 34.845 20.5489L32.8924 20.3781L33.7676 19.6114L33.404 23.7676ZM47.9761 26.2721C47.8643 27.5506 47.4142 28.4785 46.6259 29.056C45.8375 29.6335 44.8158 29.8674 43.5605 29.7575C42.3053 29.6477 41.342 29.2402 40.6706 28.535C39.9992 27.8298 39.7194 26.838 39.8312 25.5595C39.8455 25.3968 39.8604 25.226 39.8761 25.047C39.8917 24.868 39.9079 24.6832 39.9246 24.4926L40.4108 18.9348L43.2281 19.1813L42.7034 25.1784C42.692 25.3086 42.6812 25.4318 42.671 25.548C42.6609 25.6642 42.6513 25.7735 42.6424 25.8758C42.5968 26.3964 42.6515 26.8017 42.8065 27.0917C42.9615 27.3816 43.2761 27.5473 43.7503 27.5888C44.2245 27.6303 44.5654 27.5219 44.773 27.2637C44.9806 27.0055 45.1072 26.6161 45.1528 26.0954L45.7385 19.401L48.5557 19.6474L47.9761 26.2721ZM57.187 22.5106L53.5051 22.1885L54.8853 21.0303L54.0574 30.4932L51.2471 30.2473L52.075 20.7845L53.2331 22.1647L49.5582 21.8432L49.7412 19.7511L57.37 20.4186L57.187 22.5106ZM56.1215 30.6738L59.4132 20.5973L63.8832 20.9884L65.3612 31.4822L62.4812 31.2302L61.4977 22.4731L61.5116 22.4744L59.0015 30.9258L56.1215 30.6738ZM58.4026 28.6951L58.5875 26.5821L63.6641 27.0263L63.4792 29.1392L58.4026 28.6951ZM78.2065 22.2415L82.9414 22.6558L82.0415 32.9415L79.3707 32.7078L80.1394 23.9214L80.1858 23.9535L77.8226 32.5724L74.2383 32.2588L73.3607 23.3353L73.4119 23.3117L72.6414 32.1191L69.9636 31.8848L70.8635 21.5991L75.5984 22.0133L76.229 31.3508L75.9431 31.3258L78.2065 22.2415ZM83.1572 33.0391L86.449 22.9626L90.9189 23.3537L92.3969 33.8475L89.5169 33.5955L88.5334 24.8384L88.5474 24.8397L86.0372 33.2911L83.1572 33.0391ZM85.4384 31.0604L85.6232 28.9474L90.6998 29.3916L90.515 31.5045L85.4384 31.0604ZM93.4429 33.939L94.3428 23.6533L98.9034 24.0523C100.075 24.1548 100.918 24.4897 101.433 25.057C101.948 25.6244 102.165 26.3707 102.084 27.2958C102.038 27.8165 101.899 28.2517 101.667 28.6015C101.435 28.9512 101.162 29.2131 100.847 29.3869C100.532 29.5608 100.227 29.6466 99.932 29.6442C100.233 29.6892 100.507 29.7859 100.757 29.9342C101.006 30.0825 101.199 30.3019 101.335 30.5926C101.471 30.8832 101.519 31.2633 101.478 31.7329C101.452 32.0304 101.427 32.314 101.403 32.5836C101.38 32.8532 101.355 33.1368 101.329 33.4344C101.307 33.6808 101.307 33.9161 101.327 34.1404C101.347 34.3646 101.395 34.5316 101.469 34.6412L98.6521 34.3947C98.5878 34.272 98.5453 34.102 98.5245 33.8847C98.5037 33.6673 98.5041 33.4355 98.5256 33.1891C98.548 32.9334 98.5681 32.7033 98.586 32.4987C98.6039 32.2942 98.6241 32.0641 98.6464 31.8084C98.679 31.4365 98.6257 31.1355 98.4865 30.9055C98.3474 30.6755 98.0709 30.5424 97.6572 30.5062L95.7883 30.3427L96.5956 29.549L96.1905 34.1793L93.4429 33.939ZM96.6175 29.298L95.9713 28.2507L97.8681 28.4166C98.1052 28.4374 98.3175 28.4068 98.505 28.3248C98.6925 28.2428 98.8443 28.1144 98.9603 27.9395C99.0763 27.7646 99.1451 27.554 99.1667 27.3076C99.1931 27.0054 99.108 26.7333 98.9114 26.4912C98.7147 26.2492 98.4304 26.1119 98.0585 26.0793L96.106 25.9085L96.9811 25.1419L96.6175 29.298ZM102.69 34.7479L103.59 24.4622L106.365 24.705L105.465 34.9908L102.69 34.7479ZM106.476 35.0792L109.768 25.0028L114.238 25.3938L115.716 35.8876L112.836 35.6356L111.852 26.8786L111.866 26.8798L109.356 35.3312L106.476 35.0792ZM108.757 33.1005L108.942 30.9876L114.019 31.4317L113.834 33.5447L108.757 33.1005ZM119.502 36.2189L116.762 35.9791L117.662 25.6934L121.957 26.0692L123.969 35.7594L123.416 35.8234L124.252 26.2699L126.992 26.5097L126.092 36.7954L121.762 36.4165L119.747 26.7612L120.335 26.7002L119.502 36.2189ZM127.138 36.8869L130.43 26.8105L134.9 27.2015L136.378 37.6953L133.498 37.4433L132.514 28.6863L132.528 28.6875L130.018 37.1389L127.138 36.8869ZM129.419 34.9082L129.604 32.7953L134.681 33.2394L134.496 35.3523L129.419 34.9082Z" fill="white"/>
</g>
<defs>
<filter id="filter0_d_156_1432" x="0.000117272" y="0" width="170.822" height="62.0921" filterUnits="userSpaceOnUse" color-interpolation-filters="sRGB">
<feFlood flood-opacity="0" result="BackgroundImageFix"/>
<feColorMatrix in="SourceAlpha" type="matrix" values="0 0 0 0 0 0 0 0 0 0 0 0 0 0 0 0 0 0 127 0" result="hardAlpha"/>
<feOffset dx="4" dy="4"/>
<feComposite in2="hardAlpha" operator="out"/>
<feColorMatrix type="matrix" values="0 0 0 0 0 0 0 0 0 0 0 0 0 0 0 0 0 0 1 0"/>
<feBlend mode="normal" in2="BackgroundImageFix" result="effect1_dropShadow_156_1432"/>
<feBlend mode="normal" in="SourceGraphic" in2="effect1_dropShadow_156_1432" result="shape"/>
</filter>
</defs>
</svg>
