<?xml version="1.0" encoding="UTF-8"?>
<svg id="Capa_2" data-name="Capa 2" xmlns="http://www.w3.org/2000/svg" viewBox="0 0 878.19 877.6">
  <defs>
    <style>
      .cls-1 {
        fill: #f8d2b4;
      }

      .cls-2 {
        fill: #233d30;
      }

      .cls-3 {
        fill: #494e61;
      }

      .cls-4 {
        fill: #3e644b;
      }

      .cls-5 {
        fill: #010101;
      }

      .cls-6 {
        fill: #3c5e45;
      }

      .cls-7 {
        fill: #212b3d;
      }

      .cls-8 {
        fill: #6c788f;
      }

      .cls-9 {
        fill: #fcf9f8;
      }

      .cls-10 {
        fill: #393842;
      }

      .cls-11 {
        fill: #3e6748;
      }

      .cls-12 {
        fill: #e9e9e6;
      }

      .cls-13 {
        fill: #2b2a30;
      }

      .cls-14 {
        fill: #333345;
      }

      .cls-15 {
        fill: #dbdcd8;
      }

      .cls-16 {
        fill: #bc6e5e;
      }

      .cls-17 {
        fill: #242324;
      }

      .cls-18 {
        fill: #e8e7e6;
      }

      .cls-19 {
        fill: #222e45;
      }

      .cls-20 {
        fill: #2a272f;
      }

      .cls-21 {
        fill: #a8a475;
      }

      .cls-22 {
        fill: #efe5c4;
      }

      .cls-23 {
        fill: #bc6e5b;
      }

      .cls-24 {
        fill: #264031;
      }

      .cls-25 {
        fill: #9d9e9d;
      }

      .cls-26 {
        fill: #9f5f51;
      }

      .cls-27 {
        fill: #bc705c;
      }

      .cls-28 {
        fill: #3e6444;
      }

      .cls-29 {
        fill: #bbac6e;
      }

      .cls-30 {
        fill: #beae70;
      }

      .cls-31 {
        fill: #040408;
      }

      .cls-32 {
        fill: #3b6446;
      }

      .cls-33 {
        fill: #f8a893;
      }

      .cls-34 {
        fill: #606478;
      }

      .cls-35 {
        fill: #555666;
      }

      .cls-36 {
        fill: #696f85;
      }

      .cls-37 {
        fill: #242228;
      }

      .cls-38 {
        fill: #254534;
      }

      .cls-39 {
        fill: #3d5644;
      }

      .cls-40 {
        fill: #e6e5e1;
      }

      .cls-41 {
        fill: #1e1c28;
      }

      .cls-42 {
        fill: #636374;
      }

      .cls-43 {
        fill: #1e0e0e;
      }

      .cls-44 {
        fill: #c07663;
      }

      .cls-45 {
        fill: #86858a;
      }

      .cls-46 {
        fill: #1d0c0d;
      }

      .cls-47 {
        fill: #302f36;
      }

      .cls-48 {
        fill: #365840;
      }

      .cls-49 {
        fill: #e8e7e5;
      }

      .cls-50 {
        fill: #495062;
      }

      .cls-51 {
        fill: #638b6d;
      }

      .cls-52 {
        fill: #2a272c;
      }

      .cls-53 {
        fill: #efeee4;
      }

      .cls-54 {
        fill: #848383;
      }

      .cls-55 {
        fill: #242227;
      }

      .cls-56 {
        fill: #6d2818;
      }

      .cls-57 {
        fill: #eaa87f;
      }

      .cls-58 {
        fill: #bb6654;
      }

      .cls-59 {
        fill: #efe5c7;
      }

      .cls-60 {
        fill: #be735f;
      }

      .cls-61 {
        fill: #e9a382;
      }

      .cls-62 {
        fill: #2f3041;
      }

      .cls-63 {
        fill: #201f20;
      }

      .cls-64 {
        fill: #7d482b;
      }

      .cls-65 {
        fill: #264635;
      }

      .cls-66 {
        fill: #e38c6e;
      }

      .cls-67 {
        fill: #5b5b60;
      }

      .cls-68 {
        fill: #6e6f6c;
      }

      .cls-69 {
        fill: #191516;
      }

      .cls-70 {
        fill: #31303c;
      }

      .cls-71 {
        fill: #51505d;
      }

      .cls-72 {
        fill: #797b78;
      }

      .cls-73 {
        fill: #b2b3b3;
      }

      .cls-74 {
        fill: #53725a;
      }

      .cls-75 {
        fill: #5c5b62;
      }

      .cls-76 {
        fill: #565967;
      }

      .cls-77 {
        fill: #a33435;
      }

      .cls-78 {
        fill: #646f88;
      }

      .cls-79 {
        fill: #729b7a;
      }

      .cls-80 {
        fill: #5e5c68;
      }

      .cls-81 {
        fill: #71987b;
      }

      .cls-82 {
        fill: #5f2112;
      }

      .cls-83 {
        fill: #010000;
      }

      .cls-84 {
        fill: #3c6949;
      }

      .cls-85 {
        fill: #b8786a;
      }

      .cls-86 {
        fill: #cc7c67;
      }

      .cls-87 {
        fill: #f0aa80;
      }

      .cls-88 {
        fill: #4f1e14;
      }

      .cls-89 {
        fill: #667189;
      }

      .cls-90 {
        fill: #3a3c4d;
      }

      .cls-91 {
        fill: #634837;
      }

      .cls-92 {
        fill: #ca7f66;
      }

      .cls-93 {
        fill: #f9f2e9;
      }

      .cls-94 {
        fill: #faf9f8;
      }

      .cls-95 {
        fill: #658770;
      }

      .cls-96 {
        fill: #312f38;
      }

      .cls-97 {
        fill: #2a4433;
      }

      .cls-98 {
        fill: #67738d;
      }

      .cls-99 {
        fill: #2d4e39;
      }

      .cls-100 {
        fill: #2d2c32;
      }

      .cls-101 {
        fill: #b72022;
      }

      .cls-102 {
        fill: #252329;
      }

      .cls-103 {
        fill: #3c1310;
      }

      .cls-104 {
        fill: #511c12;
      }

      .cls-105 {
        fill: #686d7f;
      }

      .cls-106 {
        fill: #56565e;
      }

      .cls-107 {
        fill: #70788a;
      }

      .cls-108 {
        fill: #9e473b;
      }

      .cls-109 {
        fill: #3f6749;
      }

      .cls-110 {
        fill: #1e3429;
      }

      .cls-111 {
        fill: #fefefe;
      }

      .cls-112 {
        fill: #735d4d;
      }

      .cls-113 {
        fill: #272428;
      }

      .cls-114 {
        fill: #6c7483;
      }

      .cls-115 {
        fill: #e17f68;
      }

      .cls-116 {
        fill: #b07663;
      }

      .cls-117 {
        fill: #4e4c53;
      }

      .cls-118 {
        fill: #304036;
      }

      .cls-119 {
        fill: #d2bfb7;
      }

      .cls-120 {
        fill: #74927b;
      }

      .cls-121 {
        fill: #ee9b76;
      }

      .cls-122 {
        fill: #3b393e;
      }

      .cls-123 {
        fill: #46160d;
      }

      .cls-124 {
        fill: #f7f5ed;
      }

      .cls-125 {
        fill: #4d0f07;
      }

      .cls-126 {
        fill: #35333e;
      }

      .cls-127 {
        fill: #274232;
      }

      .cls-128 {
        fill: #e88566;
      }

      .cls-129 {
        fill: #264333;
      }
    </style>
  </defs>
  <g id="Capa_1-2" data-name="Capa 1">
    <g>
      <path class="cls-83" d="M471.92,0c55.6,5.83,109.25,18.76,159.36,43.7,79.39,38.93,143.95,100.25,188.37,176.5,19.08,32.76,32.88,67.33,43.08,103.96,11.83,42.46,17.62,95.73,14.73,139.66-2.27,34.43-7.71,67.95-17.78,101-14.11,46.32-35.24,89.2-63.54,128.23-5.39,7.43-10.3,14.2-16.1,21.08l-14.76,17.49c-66.95,79.34-191.65,141.6-295.5,145l-20.87.68c-8.13.27-15.82.46-23.99.06l-17.41-.86c-51.89-2.55-115.02-20.66-162.03-44.06-36.83-18.33-70.75-41.15-100.73-69.11l-8.45-7.89c-36.61-34.15-69.04-78.57-91.4-123.75C-40.56,459.02-1.28,249.43,139.34,118.47c31.3-29.15,66.25-54.23,104.68-73.16C300.35,17.56,344.92,7.3,405.92,0h66Z"/>
      <path class="cls-111" d="M514.78,848.92c-71.63,13.06-146.01,7.37-214.6-17.14-62.89-22.47-116.55-58.17-162.7-106.21-54.77-57.02-91.77-127.88-107.73-205.38-13.17-63.97-10.1-130.12,7.39-193.04,29.86-107.41,101.89-198.38,198.83-253.2C354.58,6.9,501.13,3.27,623.26,63.81c107.23,53.16,187.12,150.94,218.53,266.31,19.92,73.17,19.66,149.41-1.36,222.32-20.95,72.69-61.19,137.96-116.34,189.8-57.86,54.4-130.84,92.38-209.31,106.68Z"/>
      <g>
        <path class="cls-5" d="M630.24,767.43c-103.37,60.77-230.6,68.79-340.63,21.07-101.48-44.02-179.18-129.55-213.48-234.74-9.89-30.32-15.6-61.8-17.26-93.31-7.88-149.84,71.96-289.9,204.47-359.71,90.09-47.46,196.79-56.13,294.28-24.35,89.09,29.04,164.62,91.56,211.36,172.83,22.73,39.53,37.76,82.33,45.47,127.53,8.63,50.51,6.99,101.54-5.27,151.31-24.82,100.76-89.62,186.87-178.94,239.37Z"/>
        <g>
          <path class="cls-101" d="M663.92,722.83c-.76.22-1.95.42-2.19-.08-2.11-4.35-11.28-25.09-11.67-28.44l-.09-2.92c30.66-15.16,54.95-37.15,61.2-72.26s-10.1-64.74-29.74-92.06c-6.93-11.05-14.43-24.26-3.98-35.45,20.48-16.88,38.89-34.09,47.1-59.96,9.25-29.16,2.14-54.66-8.84-82.41-17.2-35.9-27.57-74.77-35.23-113.78-5.25-21.06-20.1-33.78-38.09-44.16-9.2-3.96-18.19-8.17-26.97-12.62-3.85-44.06-32.62-78.41-79.41-74.42-24.22,2.07-47.3,8.47-70.55,15.12-62.57-1.18-117.41,6.16-170.37,45.92-49.62,37.25-73.16,86.55-84.98,145.84-3.07,22.66-7.29,45.05-12.66,67.18-13.12,42.52-38.25,59.58-81.93,64.15-8.08.84-31.66,1.51-38.23-1.93-1-.52-1.57-1.57-2.01-2.58.67-71.07,21.41-140.03,60.37-198.95,14.53-21.99,33.53-45.9,52.73-63.81,38.21-35.65,82.26-63.61,131.99-80.8,45.63-15.78,95.02-22.21,143.14-18.87,69.2,4.8,131.78,27.23,187.86,67.91,66.52,48.25,113.6,115.53,136.88,194.44,8.24,27.92,12.4,55.78,14.21,84.89,1.24,19.85.26,38.72-2.01,58.48-7.74,67.47-36.69,134.28-79.66,186.51l-7.25,8.81-15.44,16.58c-4.62,4.96-9.31,9.25-14.35,13.7l-7.98,7.04c-3.88,3.43-6.96,7.68-11.85,8.93Z"/>
          <g>
            <g>
              <g>
                <path class="cls-84" d="M432.88,727.2c.49-.05.97-.07,1.41.04,1.08.28,5.65,18.42,6.25,21.04.05.24-.26.57-.67.91l.89.37,2.28,17.95c.36,5.57,1.27,8.1,2.71,7.57,1.46,8.85,3.82,17.87,3.67,27.31l-15.48.4c-1.74.05-3.51.64-4.13-.81.08-2.68.94-2.64,1.93-.18l1.78-1.95-3.04-21.67c.77-2.08,2.61-3.19,5.54-3.34-.47-7.79-1.9-15.22-4.29-22.29-24.54,3.41-36.82,5.12-36.82,5.12.76,7.39,2.03,14.68,3.81,21.89,2.7-.06,4.9.66,6.59,2.15.57.73,3.23,17.56,2.66,18.3-.29.37-.73.63-1.21.86-10.34-.16-20.55-2.43-30.81-3.85l-3.2-1.92c-3.33-19.19-9.37-38.28-15.96-56.46.92,12.25.78,24.41-.43,36.46-.89,3.85-2.57,5.48-5.04,4.89-5.38-15.73-10.54-31.44-19.13-46.29-11.41-19.72-27.8-41.34-48.76-50.79.86-1.47,1.3-3.25,2.3-4.03,5.44-5.42,11.48-10.28,18.13-14.55.74-1.86,4.3-3.81,6.26-3.97,6.96-.57,30.33,8.96,37.92,12.25,17.32,7.51,33.82,16.5,49.79,26.52,8,4.34,16.11,8.57,24.33,12.69,7.64,1.15,9.81,8.81,10.69,15.37Z"/>
                <path class="cls-45" d="M544,696.14c-1.68,6.95-5.73,11.58-11.44,15.57,3.58.45,5.72-2.25,7.48-4.58l6.04-8c5.49.11,9.76,8.96,10.7,14.02l2.42,1.57c13.69,16.33,26.44,32.97,38.25,49.92-.37,1.03-1.19,1.88-2.45,2.53-27.71,13.05-48.96,20.22-79.42,27.08-8.46-28.62-21.11-59.78-39.31-84.23,13.75,5.09,26.36,8.52,39.76,6.45-9.91-.51-34.16-5.17-41.46-10.1-3.88-3.27-5.64-9.09-8.92-13.56,23.05,8.84,61.99,23.41,71.58-7.96,5.49-1.92,7.68,6.63,6.78,11.29Z"/>
                <path class="cls-11" d="M267.92,683.09c-.06,6.03,5.05-.11,17.74,6.39,12.5,6.41,22.08,16.04,30.49,27.33,16.93,22.57,26.65,45,32.86,73.7-29.81-7.08-53.93-17.38-80.72-30.99-8.32-5.11-16.72-9.4-24.42-14.7,5.19-19.36,13.34-39.12,24.66-55.98-2.52.75-4.41.48-5.66-.81-.93-2.83,1.9-3.65,3.15-5.23,1.45-1.22,2.08-1.13,1.88.27Z"/>
                <path class="cls-32" d="M380.97,612.17c28.36,19.76,54.8,47.45,73.64,77.21,5.09,8.04,10.69,15.34,14.56,23.62-1.93,2.08-4.13.73-6.58-4.03-4.72-5.81-10.18-10.47-16.38-13.97l-1.12-2.06c-.77-8.09-9.78-13.4-17.82-10.48-1.13.41-2.69,1.71-3.12,2.51-1.26,2.36-2.56,3.08-3.91,2.16l-20.39-11.14c-30.79-19.69-63.38-36.57-98.91-46.14-3.04-.99-5.29-2.52-6.74-4.59l1.65-5.25c1.69-4.42,3.95-3.68,6.78,2.23,4.76,2.23,7.65-1.04,8.66-9.81l2.45-.51c2.48,4.38,40.62,17.9,48.39,20.88,17.05,6.54,31.16,16.36,45.73,27.62-5.17-8.76-14.39-12.27-21.13-18.59-7.61-5.48-15.17-11.14-22.66-16.97-20.9-19.83-7.87-34.32,11.93-15.56l4.98,2.86Z"/>
                <path class="cls-2" d="M532.92,613.27c-1.79,1.48-4.16,1.28-7.1-.59,11.11,13.01,20.46,27.37,29.35,41.94-3.07-7.76-5.58-15.66-7.52-23.7l2.3-.86c8.88,8.27,14.15,20.22,17.57,32.33l3.84,13.63c1.26-2.21.01-3.73.5-5.1,3.77,2.51,4.44,10.7,4.79,15.44,1.16,4.73.49,8.22-2.01,10.48-2.67-1.55-7.66-.76-9.78-3.98l-18.13-27.53c-3.22-4.89-7.23-8.88-10.07-14.02-5.32-9.63-8.64-20.42-17.69-27.72,3.64,8.39,10.31,13.95,12.22,22.82-11.89-10.35-22.77-19.76-35.1-28.4-.24-7.74.47-14.88,1.31-21.89,6.09,1.79,10.32,5.44,15.77,6.54,10.12,2.04,12.21,3.77,19.75,10.62Z"/>
                <path class="cls-99" d="M424.15,684.97c-1.15,2.14-2.96,6.75-1.49,9.84l-16.64-9.02-47.75-23.42c-13.82-6.78-27.13-14.06-42.55-16.93-8.32-1.55-17.45,2.18-24.39,6l-13.26,7.3c-1.73-.56-2.01-1.44-2.3-2.91-1.67-8.32,4.51-19.85,11.29-24.63,2.37-1.47,4.23-5.08,7.13-5.94,2.96-.46,5.7,2.34,8.67,3.16,23.09,6.42,44.59,15.31,65.67,26.64,12.79,6.87,24.07,14.78,36.72,21.66l13.66,7.43c1.97,1.07,3.48,2.31,5.24.82Z"/>
                <path class="cls-38" d="M380.97,612.17c-5.79.66-18.75-13.43-23.68-9.52-3.51,2.79-1.58,9,.88,12.35,6.37,8.68,14.43,15.5,23.83,20.69,2.88,1.59,3.46,4.08,4.72,6.14-.69-.23-1.79-.12-2.75-.78-13.81-9.43-28.61-16.24-44.39-21.74-6.66-2.32-12.93-4.37-19.28-8.18,6.59-7.34,11.93-14.27,16.61-22.2,3.55-6.02,9.33-9.23,15.83-11.24,11.5-3.56,22.98-5.54,34.97-6.61,3.36,12.04-5.18,4.96-19.41,10.28-4.54,1.7-6.8,5.52-5.54,10.79,2.18,9.18,13.05,14.53,18.22,20.03Z"/>
                <path class="cls-127" d="M406.96,693.74l1.73,1.54c-1.12,4.81,1.23,7.85,7.06,9.12,4.8,3.17,9.92,5.68,15.38,7.53l2.36,5.18c.08.27.13.57.24.83.73,3.11.91,6.03.53,8.76l-1.38.5-6.92-12.68c-31.18-12.13-51.3-29.82-82.88-41.71-10.94-4.12-21.4-8.69-32.71-10.53-9.55,4.1-16.87,10.64-24.61,16.6l-1.79.26.82-3.52,13.13-10.47c-2.89.37-5.22-.26-7.02-1.89,5.63-4.79,12.82-8.02,20.15-10.94,2.03-.81,5.5.93,7.11,1.45.66.21-.18,1.6.1,1.93.55.64,2.41-1.11,3-.92,13.86,4.56,26.41,10.85,39.61,17.11l46.1,21.85Z"/>
                <path class="cls-109" d="M620.92,685.91c2.26,8.26,4.84,29.83,4.68,38.86-4.13-3.56-4.3-8.82-8.35-13.36,1,6.59,3.72,12.27,5.98,18.4,3.29,8.91,14.73,16.34,6.65,17.19-2.64-4.66-5.85-9.26-9.23-13.62-4.87-6.28-25.23-36.85-25.15-43.41l.28-23.05c1.32-.24,2.69-.29,3.93.28,5.15,2.37,14.84,12.83,19,17.51.25,1.54.97,1.99,2.22,1.2Z"/>
                <path class="cls-48" d="M544.12,612.13c30.49,13.15,37.17,35.49,42.39,65.28l1.2,2.64c0,3.32,1.84,6.81-2.29,9.81l.45,10.81c-4.51.56-7.96-1.94-11.24-3.85,1.15-8.82-1.11-17.46-2.77-25.92-2.79-14.17-7.63-27.69-15.55-40.43-4.97-7.99-11.75-13.81-19.55-19.94,2.79-1.93,5.09,1.05,7.37,1.59Z"/>
                <path class="cls-12" d="M454.09,801.86c-2.87-28.02-7.74-54.89-15.02-81.99-2.59-9.65-6.88-18.73-8.74-28.26,2.28-2.57,6.73-.29,7.96,3.15,12.28,34.56,19.27,70.22,23.37,106.81-2.35.64-4.26.77-7.57.29Z"/>
                <path class="cls-65" d="M375.96,797.03c-3.12-.43-6.41-1.62-9.89-2.32-.85-3.02.63-5.41-.68-7.8-1.19,2.62.22,4.75-1.71,7.25-2.83-.89-7.83-.42-9.66-2.92-2.38-3.24-1.54-7.93-2.67-11.25,3.55-3.9,4.47-9.49,4.26-14.99l-1.34-35.11c4.12,5.5,5.51,11.23,7.6,17.11,5.12,14.4,9.03,28.87,12.3,43.91.52,2.39.16,4.66,1.8,6.12Z"/>
                <path class="cls-75" d="M594.99,767.17c.95-1.07.68-2.53-.37-3.9l-19.05-24.87c-5.85-7.64-11.8-14.75-17.83-22.32-.62-.78-1.89-1.08-2.77-1.56-.98-.54.25-1.95-.29-3.06-2.35-4.72-5.14-8.92-8.61-12.34l3.69-14.76,37.37,58.51c4.36,6.83,9.66,12.64,12.84,20.4.86,2.11-3.51,3.2-4.97,3.89Z"/>
                <path class="cls-129" d="M488.8,759.81c-.24,3.22-5.18,3.58-5.74.34l-2.21-.61c-.85-4.24-1.96-8.37-3.33-12.41,0,0-5.87.51-17.62,1.54.14,1.09-.56,1.87-2.09,2.34l-5.05-21.8c-1.27-5.5-2.79-10.35-3.92-16.41,6.56,1.41,13.76,2.69,19.14,6.27,8.58,12.87,14.62,26.95,20.82,40.75Z"/>
                <path class="cls-28" d="M488.8,759.81c5.31,11.84,10.07,23.85,13.57,37.28-9.03,1.44-17.2,3.24-25.46,3.59-1.31-1.46-.88-2.03.89-.98l1.41-1.85c-1.54-8.7-2.73-17.46-3.56-26.28,1.73-1.3,3.78-2.07,6.15-2.3l-.62-7.61,1.87-1.5c1.92.3,3.85.06,5.74-.34Z"/>
                <path class="cls-7" d="M475.68,800.49c-3.08.52-6.1.96-10.32.81l-6.64-46.14c5.24-2.58,11.37-.14,15.12-3.18.51-.15,1.01-.25,1.48-.16.86.16,3.01,13.26,2.37,14.95-2.22.25-4.82.63-5.36,3.14l4.34,29.76-1,.82Z"/>
                <path class="cls-79" d="M243.87,744.82c-1.81-1.25-3.98-1.9-5.9-4.17,2.65-8.63,19.03-49.93,24.9-52.61,2.86-1.31,6.39-1.58,9.61-.61-10.76,11.55-21.35,40.06-26.24,55.04-.46,1.41-1.19,2.47-2.38,2.36Z"/>
                <path class="cls-4" d="M532.92,613.27c4.74,3.08,8.34,7.92,13.15,11.49,1.99,1.47,2.55,4.05,3.88,5.29-2.6,2.82,10.86,26.24,7.82,33.08-11.37-19.52-22.39-36.79-36.9-53.09-.74-.83,3.4-2.63,4.13-1.24,1.76,3.35,5.67,3.01,7.92,4.46Z"/>
                <path class="cls-25" d="M504.46,796.5c-3.37-14.85-8.74-28.18-14.95-41.91-5.21-11.53-11.44-21.86-17.38-32.96-.57-1.07-1.17-2.64-.55-3.37s3.07-1.11,3.97.31c15,23.75,26.64,48.97,34.09,76.36-1.1,1.36-2.64,1.75-5.19,1.57Z"/>
                <path class="cls-49" d="M626.55,748.83c.87,1.3-4.39,4.28-5.23,3.04-8.07-12.01-16.03-23.41-23.41-35.74-4.71-7.86-8.04-17.01-8.75-26.75l15.95,27.49,21.43,31.96Z"/>
                <path class="cls-95" d="M587.72,680.05c-1.73-.03-2.51-2.04-2.86-3.98-5.32-29.57-10.79-43.16-36.34-60.53-1.73-1.18-3.5-1.92-4.4-3.41,14.85,3.52,27.22,12.69,35,26.77,6.93,12.53,8.63,27.24,8.6,41.15Z"/>
                <g>
                  <path class="cls-19" d="M425.8,778c-2.8,1.96,2.55,19.1,2.1,23.94-4.51-.04-8.51.23-12.81-.49-1.56-.26-.82-3.03-1.42-4.52-1.3.24-.72,1.45-.97,2.07l-1.39-.22c-1.33-6.85-2.48-13.75-3.46-20.72-1.38-1.49-3.62-2.17-6.73-2.06-.61-.53-2.89-15.17-2.53-15.89.71-1.43,30.08-5.03,31.59-4.49.75.27,2.73,15,2.48,15.76-1.84,1.28-3.76,2.11-5.75,2.48.47,2.02.1,3.4-1.1,4.14Z"/>
                  <path class="cls-30" d="M431.74,801.82c-.55-.02-.99-.06-1.01-.17-.64-3.38-4.58-26.38-3.98-27.64,3.15-.69,4.8-1.55,4.95-2.58,1.03-1-.86-14.05-1.35-14.65-.12-.15-1.51-1.06-1.83-1.2-1.4-.57-28.99,3.52-29.63,4.9-.15.32-.27.63-.29.95-.36,5.01,1.39,17.06,8,15.11.44.11.83.26,1.07.54.76.89,4.09,22.12,3.35,23.02-.3.37-.75.62-1.23.84l-3.01-.05-3.15-18.65-6.38-.83c-2.02-8.35-3.53-16.42-4.51-25.65l41.25-5.49c1.7,8.7,3.52,16.37,3.9,24.72.09,2.1-3.84,2.21-5.64,2.76l3.52,23.59c.17,1.15-2.97.55-4.02.5Z"/>
                  <path class="cls-59" d="M431.74,801.82c-.56-.03-1.33.16-1.93.18-1.4-7.98-3.44-15.92-4.01-24,.13-1.35-1.33-4.02-.14-5.19,1.42-1.39,4.12-.61,5.82-1.99l-2.08-13.97-29.43,4.04,2.03,14.03,6.44.15,4.26,23.93c-.1.68.16,1.86-.6,2.41-.71.51-1.64-.47-2.31-.48l-3.05-22.82-6.42-.72c-1.67-5.93-2.69-11.82-3.49-18.63l34.02-4.9,3.11,18.96c-1.89,1.18-3.59,1.14-5.83,1.95l3.61,27.06Z"/>
                </g>
                <path class="cls-99" d="M313.73,611.92c-1.97,2.87-1.74,13.6-8.12,13.15-9.47-.66-3.89-9.24-9.77-5.07,1.1-3.5,1.25-7.49,3.22-11.15,4.03-7.49,16.5-9.69,23.99-10.47-3.53,5.42-6.57,9.63-11.22,8.19.17,2.41,1.08,3.92,1.89,5.35Z"/>
                <path class="cls-110" d="M382.88,603.18c-6.07-2.98-11.49-6.26-16.05-10.95-7.4-7.61,16.14-12.76,20.59-11.81.26,7.91-1.39,14.72-4.54,22.77Z"/>
                <path class="cls-51" d="M283.97,679.15c-5.51,5.45-6.68,1.45-16.05,3.94l-1.88-.27c6.45-8.09,15.34-15.4,24.86-19.55,4.09-.33,8.66-.88,13.26-.55-7.16,6-14.19,10.49-20.19,16.43Z"/>
                <path class="cls-29" d="M483.06,760.15l1,10.65-6.98,1.57,4.09,26.98c-.32.96-2.55.34-3.36.33-.71-.59-1.29-1.2-1.42-1.9-.9-4.94-5.07-28.11-3.61-29.77l3.83-1.12c1.82-2.47.43-11.69-.99-14.55-1.85-3.71-15.54-1.34-16.43.68-1.12.04-1.21-1.31-1.38-2.03.06-.85-.15-2.64.51-3.89l21.05-2.18,3.69,15.23Z"/>
                <path class="cls-6" d="M644.87,737.86c-1.38,1.31-3.97,3.85-5.76,2.93-2.67-3.09-7.97-6.66-8.97-10.9-2.37-10.02-2.35-20.19-3.11-29.97l2.3.27,15.41,35.27c-.03.67.02,1.47.14,2.41Z"/>
                <path class="cls-24" d="M433.5,717.11c-4.17-6.34-8.42-3.95-13.83-7.96-3.72-2.75-8.4-4.87-12.52-6,.15-9.81.7.73-10.41-6.69,3.12-1.51,5.37.62,8.21.55,1.59-.04,1.82-2.37,2.01-3.28,7.88,3.74,16.38,7,23.49,12.67,2.31,2.82,2.14,7.63,3.05,10.69Z"/>
                <path class="cls-120" d="M644.87,737.86c-.4.17-.91.19-1.18-.01-.46-.33-.49-.93-.81-1.64l-15.85-36.29c-.08-4.28-2.64-7.55-1.64-11.81,5.53,5.52,22.88,45.47,21.96,47.84-.36.95-1.71,1.19-2.48,1.91Z"/>
                <path class="cls-39" d="M618.81,754.08c-2.15,2.23-4.43,3.11-7.6,4.56-7.08-9.46-12.48-20.78-13.3-33.1l12.3,15.19,8.61,13.35Z"/>
                <path class="cls-97" d="M469.17,713c.6,1.28.94,1.71-.55,2.53-.98.54-2.3.76-3.35.11-6.69-4.13-13.45-7.54-19.93-12.08-3.38-2.36-3.05-8.42-.24-10.61,5.18-.56,14.22,9.89,18.53,14.19,2.04,2.05,2.74,5.25,5.55,5.86Z"/>
                <path class="cls-81" d="M620.92,685.91c-.13,1.23.27,2.52-.3,4-7.48-8.63-15.53-16.86-24.85-22.98.12-2.09-.81-4.32-.02-6.7,8.23,3.22,14.2,9.11,20.37,14.5,3.85,3.36,3.7,7.16,4.8,11.19Z"/>
                <path class="cls-22" d="M477.81,799.69c-.38,0-1.03.53-.89.98-.4.02-.84-.25-1.24-.19l-5.14-33.23,6.29-1.64c-1.28-4.7-.35-9.79-2.99-13.64-4.93-.51-9.73.89-14.66,1.06-.02-.68-.36-1.72,0-2.34.4-.68,14.96-2.61,17.32-1.37l3.32,18.43c-1.66.33-6.31.14-6.15,2.18.81,10.35,2.69,20.09,4.14,29.76Z"/>
                <path class="cls-73" d="M599.77,747.69c-10.85-12.85-12.3-26.96-15.47-43.54,1.83-.54,3.2-.12,5.26.53.98,14.68,5.02,28.01,10.21,43.01Z"/>
                <path class="cls-74" d="M278.08,658.74c-1.92,1.05-3.11,3.92-6.39,4.12-1.58-16.82,2.61-23.74,15.37-31.67-6.22,7.74-10.6,17.07-8.99,27.55Z"/>
                <path class="cls-67" d="M544,696.14c-.83-4.27-3.12-8.88-6.78-11.29,1.23-5.76-.06-11.29.27-18.14,12.19,17.24,10.66,12.24,6.51,29.42Z"/>
                <path class="cls-118" d="M585.3,725.29c-3.96-4.47-6.28-9.8-9.3-15.21-1.47-2.62-3.9-4.79-3.69-7.91,2.24-1.73,8.53-1.23,9.66,1.13l3.34,21.98Z"/>
                <path class="cls-24" d="M441.83,749.83c-1.12,2.43-1.99,2.03-1.97-.63l-6.98-21.99.85-9.26c3.98,10.16,5.61,21.22,8.1,31.88Z"/>
                <path class="cls-21" d="M441.83,749.83c1.95,8.33,2.52,16.89,3.91,25.27-3.27,10.25-7.45-28.4-5.88-25.89l1.97.63Z"/>
                <path class="cls-68" d="M442.31,691.33c.6,4.31-2.83-4.35-9.86-3.7-2.99.28-5.41,2.49-6.51,6.02-1.29-2.11-.72-4.97.53-6.75,1.67-2.37,4.3-3.22,7.25-2.59,4.5.96,8.02,2.99,8.58,7.01Z"/>
                <path class="cls-72" d="M608.31,760.35c-2.49-.36-3.26-3.65-3.83-5.83,1.39,2,3.71,2.1,3.83,5.83Z"/>
              </g>
              <g>
                <path class="cls-57" d="M486.9,619.82c1.66,9.85,2.68,20.27,9.07,28.08.68-1.77,2.21-1.96,4.28-1.31,2.66.85,16.28,10.91,16.01,12.7-.2,1.35-1.18,2.15-2.34,2.71.15,1.32-.67,2.64-2.45,3.95,1.86-2.72,3.65-3.68,5.39-2.88,4.72-4.79,11.44,7.43,12.81,11.62.96,2.94,1.35,6.28,1.38,9.38-5.56,20.97-36.72,14.97-52.45,8.03-29.91-13.19-15.38-5.4-31.38-25.92,3.05-1.41,3.28-2.04.71-1.88l-4.79-3.35-31.07-33.13c-.95-1.85-1.17-4.06-.65-6.64-3.14-18.74,4.26-46.79,26.08-23.8,13.58,10.65,29.72,19.41,47.22,20.43l2.19,2Z"/>
                <path class="cls-121" d="M420.92,413.92c1.29-.14,3.87.66,5.03,1.53,5.41,4.09,11.5,3.57,16.97,5.45,10.63.96,21.21,1.1,31.75.42l5.12-2.37c-1.39-3.59,8.34-5.21,9.28-2.04.71,1.31.66,2.74.21,4.01-.48,1.37-2.03,1.54-3.1,2.38-5.75,4.53-11.71,5.9-19.73,6.8,4.45,3.19,8.95,2.87,14.12,4.23,2.49,5.02,6.93,10.66,5.99,16.67-.51,3.29.4,7.01-.3,10.12-1.49,6.65-7.11,14.38-12.69,18.07-14.77,9.76,2.18,6.01-14.46,16.05-15.51,9.35-21.94,18-36.01,7.81-3.83-2.77-8.01-3.5-12.63-.85,2.86,2.62,1.89,5.65,2.47,8.6.66,3.32,1.26,6.78-2.12,7.92l-3.04-.26c-9.44-9.33-25.86-52.25-21.41-61.55.33-.69.78-1.32,1.27-1.93,0-3.99.52-9.64,4.75-4.7,3.74,13.18,9.2,20.34,24.21,18.23l7.31-2c33.58-2.71,27.45-34.02-3.82-34.94-14.2-1.53-20.09-18.62-2.32-19.41.28,1.26,1.33,1.83,3.15,1.73Z"/>
                <path class="cls-16" d="M404.78,397.11c3.34,3.45-1.74,7.69-5.09,9.45-9.39,11.55-10.3,28.33-10.16,42.93-1.6,1.19-2.23,3.03-1.89,5.51.33,14.27,3.93,27.95,9.81,41.48,3.56,8.19,7.15,16.27,13.38,22.25,1.86,3.24,4.44,6.06,7.59,8.91,19.12,17.28,40.08,31.51,62.63,44.02,5.13,2.85,10.4,4.84,13.69,9.18-3.91-1.64-7.84-2.38-12.31-4.43-30.11-13.81-58.42-30.56-83.54-52.18-10.53-9.05-17.12-20.33-22.17-32.83-2.48-6.15-3.88-12.15-7.01-18.06-4.34,7.15-9.51,10.61-16.87,9.44-17.2-2.73-31.84-14.71-36.88-31.1l18.03-9.64c8.96-4.73,11.3,4.49,5.35,11.08-2.32,5.61,5.88,16.54,10.41,8.92l3.63-1.19c-3.94-4.98-3.3-11.2,1.35-15.49-2.78-2.7-5.25-5.65-7.4-8.87-.99-2.37-1.29-3.86,1.51-4.62,1.13-3.2,3.87-6.01,6.48-8.44,3.7,6.58,6.25,13.49,11.2,19.3l15.56-40.65c2.13-5.56,9.17-8.44,12.15-13.28l10.55,8.3Z"/>
                <path class="cls-44" d="M486.9,619.82c-19.23.54-43.91-13.25-57.77-27.29-2.28-2.31-9.14-2.48-11.19.33-9.77,13.38-1.61,28.03-5.88,34.98l-21.85-18.23c6.6-13.71,8.68-29.1,7.72-44.66-.44-7.14-1.93-13.68-.79-21.45,21.74,19.94,43.25,38.37,67.09,54.89,7.19,4.98,14.55,8.61,22.25,11.62,1.14,3.6-.07,6.9.42,9.82Z"/>
                <path class="cls-115" d="M420.92,413.92c-3.22.35-7.06.31-10.32,1.97-2.14,1.09-1.81,4.96-1.26,6.97,1.6,5.88,14.01,7.47,19.53,8.15,3.9.48,7.2,2.52,10.69,4.39,7.59,4.07,11.64,13.79,7.21,21.89-1.63,2.98-5.85,5.64-8.58,7.75-4.71,3.66-10.98,2.23-16.04,4.04-6.43,2.29-11.34,2.36-17.77.27-11.68-3.79-8.11-7.06-14.5-19.59-2.28,1.24-2.01,3.41-2.25,5.24-.29-12.26-.47-25.16,3.81-37.23,7.07-19.95,9.84-9.09,13.33-20.66,2.25,1.77,5.81,2.25,6.89,5.88-.51.56-1.3,1.03-1.62,1.8,2.91,2.17,5.73,3.57,8.25,5.91.52.48-.54,2.25.22,2.47.91.25,1.77.28,2.41.76Z"/>
                <path class="cls-86" d="M470.73,347.93l1.68-1.41c9.97,5.04,20.1,9.73,30.38,14.08,2.65-.03,4.41.78,5.28,2.44-.81.6-1.28,1.49-1.1,2.33-.63-3.05,6.15,12.5,5.34,18.65-2.84,3.95-4.11,8.26-5.66,12.59-3.96,11.07-12.38,3.83-12.76,10.48-2.99-10.75-8.26-19.69-17.02-27.04-8.71-7.31-18.7-12.53-29.94-12.04-2.53-.02-2.56-1.82-.56-3.35,3.12-2.4,24.51,2.5,27.97,5.05l-7.25-3.4-1.24-2.4c-1.51-.51-2.5-1.61-2.98-3.32-6-6.91-20.49-4.35-28.58-2.73-7.06-.45-8.5-1.78-3.98-7.78-2.4-1.18-3.06-1.79-1.38-4.13,2.61-3.34,3.02-6.75,9.25-6.23,11.16.93,22.59,3.41,32.57,8.21Z"/>
                <path class="cls-61" d="M555.81,412.14c-.63,1.89-.3,4.08-1.05,6.77,1.31.09,1.98-1.8,2.75-1.23,2.21,1.66,3.88,3.69,5.62,5.5,2.54.91,3.17,2.13,1.89,3.65,2.49.74,3.66.35,3.49-1.18,8.1,1.57,16.04,1.68,23.84.34l3.55-2.11c.91-.33,1.96-.72,2.93-.79,2.69-.96,5.4-1.63,8.14-2.01.95.39,1.89.93,2.38,1.87,1.07,2.04,1.72,15.11-.7,16.95-1.83.56-3.9.04-6.22-1.54-5.59-1.11-26.95.1-30.15,4.06-10.77,13.29,14.98,43.11,30.76,37.56l2.03,1.21c2.06,3.26-1.79,14.72-4.03,17.47-.71.88-1.9,1.17-2.97,1.38-1.49,1.34-2.51,3.06-3.05,5.15,2.63,1.13,1.65,3.22-1.14,2.85-3.09.35-1.3-4.89-2.86-6.65-4.54-5.12-2.41,8.03-20.42-19.98-8.31-12.92-14,4.57-28.74,7.24-1.97.36-3.64-1.93-4.95-2.66l1.7-1.68c4.81.92,9.57-.56,14.28-4.43l.35-2.37c8.35-3.4,14.61-11.44,9.86-20.27-7.35-9.48-11.89-17.4-13.62-29.59-.35-2.46-1.22-10.78-.56-12.47.38-.96,1.22-1.6,2.09-2.1.28-5.62,2.19-7.46,5.74-5.52l-.94,4.6Z"/>
                <path class="cls-27" d="M547.01,250.13c-19.05-.53-37.93,1.78-54.11,13.98-8.72,6.57-13.24,16.69-17.94,26.11l-16.61,33.28c1.65.02,2.62,1.17,3.76,1.47-6.57-.64-12.79-1.94-20.33-.27,13.78-24.63,22.02-48.07,36.94-71.83,17.72-8.79,30.99-7.01,50.35-6.74-.48-2.25-3.15-.08-3.41-2.54,8.35-.53,15.48,2.48,21.34,6.53Z"/>
                <path class="cls-43" d="M472.92,328.12c7.82,2.86,40.93,13.72,42.53,22.25.88,4.71-1.83,9.88-4.55,13.08-1.19-.7-2.11-.49-2.83-.42-3.92.37-7.64-.82-11.44-2.65l-25.89-12.45c.45-10.69-15.31-10.99-7.86-18.52,3.11-3.14,8.07,1.19,10.05-1.29Z"/>
                <path class="cls-1" d="M549.77,570.94c-.96-1.29.41-3.27,1.56-4.66l20.77-25.18c5.03-6.1,19.51-27.44,21.78-33.08l1.14-2.85c.42-2.22,1.44-3.94,3.05-5.15,3.33-5.94,5.07-12.5,7-18.85-.9-4.13-.55-8.54,1.04-13.22.87-11.12,1.3-16.68,1.3-16.68-.77-4.26-.36-8.05,1.24-11.37-.79-6.21-.33-12.69-1.68-18.82-.15-.39.18-.74.99-1.06-.28-.79-1.16-1.25-1.41-2.19,1.71-.86,3.06-.54,5.42-1.02-.44-1.46-1.56-1.8-2.53-3.15,2-1.62,2.56-4.1,6.16-5.21-1.89,40.49,6.51,62.26-15.43,99.95-13.69,23.52-30.59,44.61-50.41,62.55Z"/>
                <path class="cls-46" d="M615.71,335.88c2.44-1.91,6.37,1.29,5.14,4.16-4.4.78.74,5.47-3.81,13.07-10.86-3.15-41.63,16.84-53,16.9-.39-2.33-.03-4.25-.06-6.05,2.13-4.71,4.13-10.83,8.75-13.3,12.74-6.81,29-17.68,42.98-14.78Z"/>
                <path class="cls-60" d="M620.85,340.04c-1.15-2.04-3.71-2.39-5.14-4.16-6.2-16.47-10.94-33.43-19.04-49.6-4.32-8.63-10.6-16.04-17.72-22.31-2.13-1.88-4.99-2.45-5.87-4.95,21.69-.11,34.53,14.5,39.93,35.04,3.84,14.61,6.76,28.97,9.08,44,.19,1.21-.58,1.85-1.26,1.97Z"/>
                <path class="cls-124" d="M491.88,411.92c.87,1.62-.82,4.58-2.81,4.99-3.1.64-6.47.25-9.28,2.04-1.75,1.57-3.68,2.65-4.77.02l-5.11,1.03c-6.7.66-13.37-.75-20-1,1.73-1.03,4.09-1.37,6.08-1.84,12.35-2.92,18.43-16.16,15.64-30.04,9.99,5.08,16.67,14.77,20.23,24.8Z"/>
                <path class="cls-26" d="M465.84,363.9l-2.96,1.43-14.23-1.03c-7.21,1.67-14.49,2.93-21.83,3.79-2.05-.44-4.31-.76-6.77-1.1-.53,2.38,1.37,3.03,1.34,4.67-4.12.17-7.82.38-10.51-2.58l18.04-23.14c-.35,1.85,2,1.87,4.12,2.43-.28,3.01-2.98,4.32-3.73,7.33,2.01-.07,4.22.48,6.28-.06,9.16-2.4,30.03-3.65,30.25,8.26Z"/>
                <path class="cls-116" d="M531.05,684.08c-.44-3.47-8.87-23.41-14.19-21-.96-.37-1.94-.73-2.94-1.07,4.8-1.61-12.6-12.61-14.38-13.57-1.23-.66-2.65.58-3.57-.54,2.56,2.09-.87-14.64.23-15.82,8.49,4.35,15.5,9.69,22.78,14.89,8.94,6.4,14.76,26.95,12.07,37.12Z"/>
                <path class="cls-103" d="M348.83,431.89c-2.03,5.72,8.61,10.89,8.13,14.14-3.89,3.31-5.6,7.41-2.99,12.12.96,1.74,2.36,2.76,2.58,5.44-4.96-2.28-7.21,1.34-9.4,3.95-4.45-.35-9.33-6.01-10.32-10.35-1.08-4.74,3.13-7.44,4.05-11.32.8-3.37-4.74-3.58-6.91-3.82-.06-1.23,13.6-12.58,14.85-10.16Z"/>
                <path class="cls-53" d="M605.52,395.84c3.41,6.73-1.74,15.41-6,20.1-5.44,5.99-12.85,8.8-20.77,7.4,14.12-5.11,19.14-20.36,12.69-33.86,4.29,0,11.71,1.67,14.08,6.35Z"/>
                <path class="cls-91" d="M560.18,413.11c-1.06-2.44,3.1-4.84,3.63-6.46,1.9,4.72,5.88,7.11,10.49,7.1,8.28,0,6.26-8.65,15.76-12.76.59,7.27-3.53,14.67-9.81,17.96-6.72,3.53-16.23,1.13-20.07-5.84Z"/>
                <path class="cls-88" d="M465.84,363.9c11.05,2.58,20.37,12.06,25.14,22.09-8.63-10.24-19.41-17.61-33.13-19.01-1.95-.2-12.51-2.99-10.93,1.02-9.22.4-13.25,1.54-20.1.09,11.65-5.03,26.07-7.22,39.02-4.19Z"/>
                <path class="cls-64" d="M447.22,666.19l-4.08-5.23c8.85,2.32,17.66,5.05,27.16,6.65s17,5.14,23.66,11.44c-6.4-3.01-11.99-5.98-18.96-7.19-9.71-1.09-18.69-4.01-27.78-5.67Z"/>
                <path class="cls-15" d="M428.86,408.05c.38,1.06.07,1.33-.93.82-5.15-3.75-8.96-9.25-11.65-15.89,2.48-2.01,5.05-4.13,8.62-4.93-1.45,7.47-.02,14.23,3.97,19.99Z"/>
                <path class="cls-115" d="M479.79,418.95c-3.26,5.74-9.2,5.16-14.84,3.73-7.67-1.94-15.15.58-22.04-1.79,9-.42,18.33,1.38,27-.89l5.11-1.03c1.13-.7,3.61.51,4.77-.02Z"/>
                <path class="cls-128" d="M595.9,423.88c-2.87,5.08-8.86,4.18-14.55,3.6l-8.97-.91c-.68-.07-1.14-.81-1.81-.58-.83.28-.37,1.12.25,2.62-2.52.73-6.1.69-8.79-.76.5-1.71,2.95-3.01,1.1-4.67,10.59,3.66,22.18,4.49,32.77.7Z"/>
                <path class="cls-18" d="M585.21,401.52c-1.19,2.28-6.93,1.59-7.47-.89-.16-2.29,4.71-3.47,6.8-2.95,1.05.26,1.5,2.24.66,3.84Z"/>
                <path class="cls-54" d="M435.01,412.97c-.14.3.02.7-.07,1.02l-7.01-5.11c.42-.13.75-.42.93-.82,1.44,2.08,4.06,3.89,6.16,4.92Z"/>
                <path class="cls-128" d="M607.96,420.01c.22.61-.68.79-.99,1.06-2.23,1.99-5.29,1.79-8.14,2.01,2.57-1.87,5.92-2.77,9.13-3.07Z"/>
                <path class="cls-66" d="M551.71,444.17l2.6.24c2.1,3.16,7.22,13.71,7.49,17.1.17,2.15-.47,4.75-2.95,4.61-3.59,5.59-11.63,5.04-17.59,4.42-7.76-2.75-13.1-4.14-20.82-.26-3.56,1.24-5.98.72-7.25-1.56-1.53-1.47-1.29-3.7.72-6.7,3.75-12.17-7.03-15.04-2.04-37.01,1.22-5.37-.16-11.01,4.31-15.73,10.35,11.25,13.41,16.09,25.41,25.14,3.9,2.94,6.06,7.69,10.11,9.77Z"/>
                <path class="cls-23" d="M558.85,466.11l1.61,1.78c-2.04,4.66-5.52,8.26-10.44,10.8,1.27-.48,2,0,2.86,1.17-6.82,6.67-6.63,8.21-15.99,6.11l-17.9-9.97c1.72-3.05,5.39-3.26,8.5-3.15-3.43-.28-6.17.5-8.5,3.15-.68-.38-2.01-.68-2.8-1.07-1.11-.85-2.43-2.63-3.96-5.35l.97-.88c11.43,1.08,12.28-5.96,22.77-1.75,7.86,3.15,15.6,2.28,22.89-.85Z"/>
                <path class="cls-56" d="M551,413.06c-.69,12.84,1.14,27.42,10.03,37.66,5.91,6.81,8.33,14.81,1.67,22.66-2.35,2.77-6.45,4.92-9.83,6.48-2.6,1.19-5.87,1.66-8.5.99,4.94-5.51,12.98-7.1,14.47-14.75.44-2.27,1.83-4.67.15-7.63-2.6-4.56-4.23-10.31-7.29-14.31-4.69-14.08-7.58-28.03-2.13-43.37l6.31-17.8c.53-.21.94.23.79.89-2.23,9.9-5.15,19.42-5.67,29.18Z"/>
                <path class="cls-123" d="M516.87,663.08c-4.2,1.76-6.55,4.91-7.83,9-1.21,3.87-6.29,1.75,4.89-10.07,3.76-1.58,5.99-4.39,10.08-4.8-2.46,2.23-5.33,3.34-7.14,5.87Z"/>
                <path class="cls-128" d="M608.65,439.89c1.75,13.8.47,28.04-3.58,41.28-9.17,5.19-19.03-2.62-26.38-8.85-11.56-9.79-13.76-27.44-6.33-32.71,4.67-3.31,11-1.74,16.27-2.99,7.05-1.67,15.07-1.9,20.01,3.27Z"/>
                <path class="cls-87" d="M595.02,505.18c.34-.84-.65-2.21.05-3.43.48-.84,1.76-1.4,3-1.72-.97,1.73-.93,4.2-3.05,5.15Z"/>
                <g>
                  <path class="cls-85" d="M617.04,353.11c1.79.52,5.67,2.9,5.94,4.78.08,2.84-2.34,33.21-8.38,26.09.68-1.96,2.87-3.09,2.13-6.29-3.93,3.37-8.03,3.86-12.66,2.25-11.17-3.89-23.31-1.65-32.47,5.72-8.65,6.95-12.49,16.56-15.8,26.49-.23-.64.62-2.06.3-2.62-.56-.95-2.15-.4-2.78-.66-2.61-1.09-.7,5.58-2.32,4.2-2.01-3.19-1.99-7.17.07-11.93,2.03-6.1,3.63-12.15,4.82-18.13,1.76-4.95,4.09-9.19,6.76-14.25.72-1.36.77-3.55,1.33-4.79,1.29,1.24,2.12,2.49,2.48,3.77,14.86-6.06,29.87-11.64,45.03-16.73,3.58-.9,5.43-.2,5.55,2.12Z"/>
                  <path class="cls-104" d="M606.8,378.04c-20.22-10.72-33.9-.58-45.94,15,2.93-7.5,8.61-13.57,15.09-18.01,9.09-6.23,25.83-7.49,30.85,3.01Z"/>
                </g>
                <g>
                  <path class="cls-69" d="M466.9,400.09l-6.14,1.04c-7.55,8.66-15.95,8.58-23.93.98-5.07,6.72,9.76,10.2,14.84,9l1.38,1.88c1.35,1.65-7.58.52-8.01,1.5l-1.07,2.41,12.03.25-.27,1.21-5.82.63c-5.73-.21-10.27-1.59-14.98-5.02-.45-.34-.41-.68.07-1.02,1.06-2.34-3.06-2.38-3.75-4.55-.59-1.87.74-3.86-.11-5.78-2.23-5.02-3.85-11.23-.6-16.23,1.34-2.07,5.68-2.63,7.84-2.29,3.68.57,5.68-1.14,9.02-1.75,4.18-.76,10.82-.54,14.38,1.46,6.52,3.66,6.19,10.81,5.1,16.26Z"/>
                  <path class="cls-112" d="M466.9,400.09c-1.36,6.85-6.54,12.14-13.85,12.91s-15.9-.05-19.59-7.54c-.76-1.73,2.19-5.78,4.1-6.34,2.79,4.38,6.62,6.19,11,6.73,4.65.57,7.18-3.41,10.79-6.19,1.64-1.27,5.39.21,6.89-1.84.7,1.26.54,1.77.65,2.28Z"/>
                  <path class="cls-40" d="M462.9,387.29c.81,2.33,1.22,4.53-.57,5.65-1.52.95-3.85,1.31-5.27-.14-3.21-3.28-4.04,1.13-7.41-1.65-.48-.4-.1-1.36.74-1.97l1.38-1.01,2.75-.18c2.77-2,5.77-4.08,8.37-.7Z"/>
                  <path class="cls-5" d="M462.9,387.29c-1.79-.72-4.03-2.14-5.89-.28-.9.9-1.53,1.87-2.61,1.99-.9.09-1.85-.27-2.63-.83l7.1-3.19c2.48-.83,3.5.78,4.03,2.3Z"/>
                </g>
                <path class="cls-87" d="M475.03,418.97c-1.4,1.62-3.39.58-5.11,1.03,1.48-.15,3.24-2.01,5.11-1.03Z"/>
                <path class="cls-82" d="M518.99,476.01c.44-2.76,1.73-3.82,3.54-4.4,6.15-1.98,13.54.03,16.6,6.7-7.46-3.01-13.63-5-20.14-2.29Z"/>
                <g>
                  <path class="cls-87" d="M547.01,250.13l11.73,8.12c2.94,2.04,10.54.8,14.35.78,7.46,2.27,12.99,8.36,17.81,14.56,10.48,13.46,20.78,40.58,25.1,57.3.42,1.64.08,3.37-.29,4.99l-2.04,1.69c-4.79-.59-9.53.44-14.05,1.93-11.28,3.72-30.06,11.76-33.31,24.14l-2.32.31c-.63,2.37-.68,4.66-.16,6.86-.54,2.68-5.22,11.17-7.93,12.18l.21,1c-6.89,16.71-8.66,33.48-5.32,50.32,1.8,3.76,2.11,7.05.92,9.86l-2.13,1.06c-2.87-2.47-5.51-5.19-7.92-8.15-9.27-7.37-17.78-15.51-25.52-24.42-3.22,12.94-5.68,27.02.02,39.81,1.56,5.29.81,8.47-2.25,9.53-2.94,5.11-2.37,9.16,2.27,12.94,1.75-2.24,3.06-1.8,2.8,1.07,6.16,1.01,12.03,3.52,17.64,7.53l.27,2.44c5.85,2.94,11.55,1.25,17.09-5.07l9.54-6.16c2.51-.65,5.62,1.48,7.17,3.41,4.4,7.76,9.73,14.43,16,20,5.11-.48,7.5,2.81,7.18,9.87.79.42,1.48,1.1,1.32,1.93-.9,4.77-16.67,25.99-20.62,31.26-8.43,9.88-16.7,19.79-24.81,29.73-5.49,4.97-9.27,11.67-16.85,14.86-8.74,3.68-18,3.48-26.73-.17l-11.46-4.8c-29.76-15.46-61.71-33.78-84.58-59.4l.67-2.7c.61-4.08.49-8.33-.36-12.75-4.09-8.12,5.8-8.53,11.51-5.97,5.97,4.06,10.93,7.39,18.12,4.5,3.57-1.43,24.45-14.45,25.04-16.44.15-5.05,3.45-9.22,9.88-12.52,11.94-11.35,12.59-26.13,4.41-39.73-10.28-.09-22.51-6.73-4.4-9.21,5.45-1.61,11.97-4.49,14.05-9.69-.57-2.12,1.03-3.97,2.81-4.99.52,1.46,1.27,3.22,3.06,4.24-.03-3.55-.31-6.41-1.05-9.08l-.13-4.1c7.9-.99,12.6-6.06,14.11-15.23l2.63-4.45c-1.11-6.71-2.89-13.19-5.35-19.43l2.93-.84c.06-.86.33-1.81,1.09-2.07,3.81-1.28,6.05-8.98,2.8-12.58-11.54-7.87-24.25-13.81-38.13-17.81l-.91-2.45c-3.78-.17-7.16-2.17-10.8-3.15-3.07-.34-4.82-1.33-5.25-2.97l22.42-44.53c10.95-18.13,26.83-25.9,47.65-28.54,6.76-.86,13.66-1.64,20.08,1.19Z"/>
                  <path class="cls-82" d="M513.19,468.7c-.13,4.93,5.76,5.35,3,6.24-2.35-1.14-4.5-3.07-5.11-5.74s1-5.42,2.84-7.2c-.67,2.17-.67,4.53-.72,6.7Z"/>
                  <g>
                    <path class="cls-125" d="M545.71,547.14c-4.63,5.16-12.08,5.56-18.63,5.43-6.37-.12-16.75-1.02-20.22-6.41-15.1-8.92-23-21.32-33.03-36.14l-5.09,2.08c0-4.05,2.46-6.75,5.41-8,.96,3.69,3.89,3.46,6.69,2.71l34.61-9.27c16.4-4.39,18.36,4.45,31.75.61,6.68-1.92,15.11-.47,16.78,5.53,2.19,7.88-8.54,12.1-8.97,23.3-.16,4.17,1.92,8.62-1.03,12.35-1.84,2.32-4.76,6.33-8.27,7.79Z"/>
                    <path class="cls-92" d="M545.71,547.14c-6.54,12.79-22.35,12.22-34.88,5.03-2.48-1.42-4.91-2.97-3.97-6.01,12.8,5.3,26.57,6.1,38.85.98Z"/>
                    <path class="cls-108" d="M556.49,508.1c-7.43.35-14.38,3.19-21.53,2.57-7.85-.68-15.02-1.73-22.84-1.3s-15.35,1.08-23.54-.67l26.85-8.1c17.61-5.32,20.25,4.92,32.76.02,3.24-1.27,7-.71,9.34,1.57.98.96,1.19,2.27,1.18,3.17-.01.76-.49,2.66-2.23,2.74Z"/>
                    <path class="cls-93" d="M547.79,516.32c-5.19,14.08-34.15,5.92-43.74,1.7-.96-2.59.33-2.91,2.77-2.86,13.78.56,27.35.47,40.7-.28l.27,1.43Z"/>
                    <path class="cls-119" d="M547.79,516.32c-3.48-.97-6.98.75-10.88.74l-30.01-.09c-1.31,0-2.31.29-2.85,1.05-2.74-1.25-5.78-1.38-8.32-4.03,9.75-.29,18.65-1.76,27.78-.45,8,1.15,15.4,2.05,23.42-.62.79-.26,2.14.15,2.58.67.86.99-1.75,2.81-1.72,2.72Z"/>
                    <g>
                      <path class="cls-58" d="M550.83,535.82c-1.62,4.09-5.98,6.65-9.85,8.04-24.89,8.9-47.44-9.1-60.15-29.72,16.99,8.85,54.51,22.55,69.67,8.69,1.38,4.29,2.04,8.69.33,12.99Z"/>
                      <path class="cls-33" d="M533.1,536.21c-7.46,2.99-16.82,1.59-22.32-4.01,7.99-.07,14.69,1.4,22.32,4.01Z"/>
                    </g>
                  </g>
                </g>
              </g>
            </g>
            <g>
              <path class="cls-100" d="M563.01,127.18l-1.24,2.06c16.28,7.08,24.64,21.85,31.05,37.58,3.56,13.38,4.42,28.13,1.26,42.39-2.1,9.49-7.12,17.76-11.95,26.12,3.07-13.47,5.09-25.89,2.97-39.51-2.4-15.42-9.74-30.14-20.91-40.93-5.19-5.01-11.41-9.66-18.49-10.73-30.56-4.63-66.72,18.9-86.57,40.98-7.14,7.95-12.75,15.88-18.76,24.64-9.78,14.26-19.61,28.08-26.62,44.1-5.13,11.73-8.18,23.63-12.51,35.5-4.04,11.07-8.93,20.92-14.59,31.1-4.64,8.36-9.98,15-15.67,22.76-16.71,22.76-38.02,42.76-64.18,52.8-2.16,0-4.19.83-6.11,2.51-21.3-7.11,2.05-19.03,13.71-17.61-4.56-.9-7.53-3.68-2.41-6.61-5.37-1.24-7.51-3.21-6.43-5.92,2.3-1.5,4.31-3.26,6.04-5.26,22.22-14.81,52.15-46.82,62.4-73.53-13.15,17.17-25.93,32.74-41.55,46.98-5.36,4.88-9.98,9.81-15.88,14.04-9.9,7.1-18.75,15-29.47,21.77,7.79-25.11,17.89-47.81,29.69-70.54l15.25-29.38c-9.84,10.28-16.03,22.23-21.74,34.97l-31.88,71.19c-1.83,4.09-7.3,6-10.87,8.17l10.02-27.3c10.91-29.73,34.66-74.58,53.43-100.52,11.51-15.92,27.52-35.98,41.78-49.15,1.75-1.62,3.01-3.51,5.18-3.88l-2.13,5.51c-12.92,15.36-25.66,31.13-32.7,50.1l9.22-9.12c3.82-3.77,6.62-4.11,8.38-1l1.78,11.74c7.61-10.77,28.98-28.89,29.31-3.1l4.93-7.56c5.21-5.9,7.31-3.69,5.52,2.98,0,0,6.42-11.17,19.25-33.52-9.26,3.63-18.76,6.86-28.49,9.71l-2.02-2c-4.64,1.74-13.36,4.44-15.59-1.88-3.01-8.52,26.76-44.76,35.56-50.72.81-1.01.8-2.71,2.44-3.85,14.15-9.79,28.08-19.31,43.8-26.66s32.1-13.08,49.03-18.07c14.86-4.38,29.85-6.02,45.01-4.99,4.97.34,8.05,2.21,11.74,3.64Z"/>
              <path class="cls-9" d="M663.92,722.83c-1.57,2.84-3.95,4.58-6.67,5.22l-12.75-31.39-4.26-7.67c12.16-5.37,23.96-10.79,34.48-19.2,34.13-27.3,41.48-71.24,21.56-109.18-5.62-10.71-11.97-20.08-18.69-30.03-9.39-13.91-17.45-31.06-2.37-44.3l16.54-14.52c30.14-26.46,38.15-62.52,26.27-100.72-3.15-10.12-6.95-19.28-11.33-28.94-8.66-19.1-15.11-38.13-20.39-58.45-3.11-11.97-6.6-23.14-8.48-35.4-1.71-11.13-5.32-21.32-11.54-30.62-16.83-20.89-33.14-24.14-56.75-34.63.47-41.41-27.97-76.69-71.77-73.34-24.32,1.86-47.48,7.87-70.78,15.25-13.3.02-25.58-.37-38.7.43-54.15,3.34-88.92,13.48-132.58,46.32-25.29,19.02-44.32,43.64-58.38,72s-20.78,55.81-24.94,85.87c-3.82,27.55-10.44,69.09-30.23,89.84-24.72,25.92-73,34.51-106.51,26.13-.67-2.81-.26-5.19-.36-7.54,32.36,8.91,88.21-.42,107.33-31.13,29.93-48.07,12.35-102.44,53.9-177.43,13.05-23.54,29.87-44.1,51.07-60.85,22.93-18.12,47.88-32.46,76.02-40.68,45.77-13.36,96.89-9.13,101.92-10.54,24.74-6.92,49.39-14.26,75.35-15.35,44.25-1.86,73.37,33.54,76.1,75.79l20.89,9.16c23.1,10.14,41.44,28.34,45.89,54.03,3.35,19.32,8.47,37.29,14.04,56.07,4.09,13.8,8.34,26.37,14.47,39.41,6.78,14.42,12.14,28.81,15.82,44.21,7.87,32.96-1.27,65.64-24.65,89.88-6.93,7.19-14.11,13.71-21.88,19.99-7.47,6.04-9.3,13.97-5.14,23,10.53,22.84,24.05,31.4,33.91,62.71,11.7,37.14-1.42,76.65-32.07,100.05-8.36,6.38-16.68,11.12-26.87,15.89l12.57,30.63Z"/>
              <path class="cls-52" d="M104.12,578.85l1.16-1.85c5.58,1.22,11.15,1.81,16.73,1.77l18.97-5.08c18.06-2.58,35.56-5.89,51.51-15.27-4.08-4.22-8.03-8.46-11.76-12.97-6.36,2.34-12.66,4.93-18.92,7.77-5.63-.61-11.37-.59-17.21.08-3.95-.51-10.9-1.58-5.19-5.73,14.53-.87,43.89-3.83,26.09-23.85l-.37-3.18c3.45-6.68-.35-9.04-11.4-7.06-6.56,2.29-13.09,4.51-19.58,6.65-.32.6-.68,1.17-1.16,1.59-1.39,1.21-16.73,5.02-18.85,4.83-1.24-.11-2.3-.73-3.21-1.54-.89.46-1.19.08-1-1-.13-.77-.24-1.96.27-2.17,2.32-.95,18.37-5.73,19.56-5.1.41.22.72.63,1,1.09l2.45-2.9c13.34-4.93,25.67-12.58,36.43-21.85-12.11,4.27-23.88,8.85-35.32,13.72l-1.48-1.85c2.34-.76,4.3-3,6.43-4.46l18.23-12.49c7.13-4.88,16.87-3.96,24.48-9.23l12.09-8.39c1.64,1.61.48,3.34,1.71,5.3,6.74-1.87,2.21-8.08,8.32-12.39,2.3,3.54,1.63,7.1.62,10.67-3.52,12.51-3.13,25.01-2.4,37.76-.22,2.38-3.13,4.49-2.91,7.1,1.49.63,2.63-.59,4.01-.68,2.04,11.75,4.23,22.84,8.43,33.82,1.15,3-2.26,4.6-3.54,6.28-1.64,2.15-2.27,4.38-5.83,4.8.53,2.09,1.68,3.36,2.48,5.11,4.23-1.52,6.16-4.78,9.3-9.06l13.18,17.3c1.39,1.83,2.49,4.29,5.67,3.52-.8-6.88-2.66-12.85-2.29-19.52,30.34-3.25,58.65-24.64,75.15-48.28-5.63,23.67-18.39,44.24-35.94,60.97-7.64,7.28-14.31,15.33-23.78,20.27-24.15,12.59-46.29,11.86-72.29,12.59l-24.04.68c-10.51.3-20.35,1.33-30.42,4.14l-8.2-16.11c-.55-1.08-1.02-2.51.1-2.84.47-.14,31.84,7.69,41.48,2-16.28-1.46-30.71-4.98-45.32-10.35-2.9-1.07-2.32-2.88-3.44-4.63Z"/>
              <path class="cls-96" d="M444,292.96c-9.18,19.55-19.65,38.74-32.35,56.66-3.97,5.6-21.35,25.41-26.64,30.46l-20.49,19.52-8.46,7.62-8.89,5.86c-5.12,3.37-8.23,8.36-13.67,11.72-10.16,6.29-19.47,14.05-30.07,19.53-4.39,2.27-7.13,4.18-10.76,7.4-5.88,5.22-12.75,9.19-19.17,14.05-25.65,19.44-43.05,45.48-47.23,78.24-1.34,10.53.18,19.8,4.1,30.78-3.23-1.99-3.5-5.64-5.27-8.79-14.92-26.53-13.65-56.5,2.97-81.02l1.69,1.78c-2.36,7-4.53,14.06-6.51,21.18,11.63-31.17,33.85-55.72,62.7-71.92,22.57-11.15,44.28-23.63,65.13-37.46l9.91-8.74c-15.95,10.86-32.22,20.59-48.81,29.19l-2.25-1.04c-1.03-2.28-3.53-.17-5.31.68-11.94,5.77-23.76,10.04-34.97,17.06-16.84,10.55-31.02,23.48-42.61,39.17-.93.06-2.21.04-2.49-.64-2.9-6.9,15.87-31.14,21.1-36.74,9.49-10.17,19.65-19.32,33.1-23.43,13.9-4.75,27.79-9.74,40.95-17.31,44.49-25.61,73.17-69.84,90.05-116.69.88-2.83,2.34-4.26,4.36-4.28,1.91,3.11,2.57,6.77,1.98,10.98,2.21,3.4,4.14,6.92,5.79,10.55-2.83,12.39-2.42,15.12,1.21,8.2l5.86-1.85,7.71-13.38c3.71-3.25,5.89-2.82,6.8,2.07-1.96-.86-1.78-.67.55.57Z"/>
              <path class="cls-70" d="M388.97,178.11c-7.55,6.01-14.13,14.53-21.32,21.56l-21.32,20.81c-10.28,10.04-18.03,22.15-26.03,33.95-3.27,4.82-6.67,9-9.4,13.57-3.73,5.07-7.83,9.56-12.28,13.49-1.79,4.57-4.73,7.58-8.79,9.03-5.28,12.75-12.03,24.88-20.27,36.4-3.42,10.04-8.16,19.03-14.2,26.98-3.91-.42-4.65-3.52-2.22-9.32l7.34-22.43c-6.01,9.53-10.33,19.88-12.97,31.06-1.98,3.8-5.08,6.98-9.63,6.37-1.22,3.06-6.51,4.63-8.01,1.46-2.28-1.98-1.8-3.51,1.1-4.13,2.19-3,2.88-6.63,2.07-10.9l-1.56-2.51,7.99-39.74c1.98-7.15,4.19-14.24,6.63-21.26l1.7-1.62c-.22-.89-.4-1.78-.43-2.67-.26-6.52,11.38-25.11,15.74-31.42,3.16-4.58,26.32-33.38,31.79-34.3,2.81-.47,4.59-.77,4.02,2.21-5.36,8.2-10.07,16.71-14.15,25.55,4.41-4.96,19.52-18.16,15.68-4.59l-2.73,5.64c7.03-7.39,18.63-12.74,12.01,2.73l10.39-9.9c-4.43,1.33-5.27.31-3.61-4.06,5.86-8.79,12.38-17.06,19.56-24.81l-24.91,14.05c-2.11.51-3.34.36-3.98-1.78-1.29-4.3,6.64-17.42,9.39-21.29,3.49-4.91,24.26-27.44,28.79-27.89.93-.09,1.78.16,2.57.66,2.77-5.64,10.84-10.14,17.1-9.9,4.65-.6,12.55,4.65,16.48,7.76,1.92,1.53,6.39,6.87,7.81,9l-.34,2.24Z"/>
              <path class="cls-14" d="M104.12,578.85c-1.04-1.62-1.45-3.06-2.19-4.82-.53-1.1-.53-1.89,0-2.36l2.36-1.9,22.98,1.91c-4.67-1.76-7.83-7.46-2.03-9.4l21.5-3.37c-6.73-.5-13.47-1.07-20.17-1.94-.84-.11-1.65-.53-2.48-.98s-1.63-1.04-2.39-1.66c-4.54,2.52-25.66-3.16-26.41-6.15-.84-3.35,5.18-8.5,7.73-10.63,8.5-7.09,21.77-13.51,32.41-16.41,6.3-1.71,2.72.47-.39.15-.33-.03-.62-.54-.89-1.17-1.22-2.04,17.5-8.2,19.15-8.6.96-.24,12.03-1.52,14.19,1.64,3.54,5.15-4.05,6.27,2.02,13.28,2.84,3.28,5.63,8.84,2.64,12.77-6.64,8.75-23.57,9.87-34.11,10.43,6.68,3.25,13.33.82,19.88.83,3.82,2.04,5.71-.17,8.85-1.55l11.25-4.92c6.56-2.87,7.34,6.1,10.64,8.05,2.92,1.73,5.12,3.56,6.34,7.2-10.99,6.21-23.54,11.48-36.55,13.53-10.31,1.63-20.63,3-30.37,6.36-3.72,1.28-7.03,2.28-11.26,1.64l-12.72-1.94Z"/>
              <path class="cls-98" d="M342.85,160.87c3.63-2.24,8.23,6.16,5.07,8.14-13.92,9.36-36.85,30.57-39.02,49.28l34.56-19.49c-1.23,3.44-4.09,5.63-6.4,8.38-7.24,8.61-14.88,16.45-20.39,26.65,6.98-3.87,11.54-9.76,19.38-11.56-4.49,3.2-28.94,27.45-29.69,27.44-2.88-.02,4.72-10.48,3.46-14.41-6.12,2.3-9.62,7.25-15.41,11.03-.18-5.91,4.7-9.35,5.41-16.12-2.92,2.74-6.49,5.05-10.02,7.68s-4.77,6.68-9.12,8.38c3.37-12.67,10.4-22.36,17.24-33.29-7.68,4.31-12.57,10.63-18.35,16.7-14.23,14.95-24.9,32.12-31.78,51.17-2.81,3.44-4.44,7.72-4.9,12.84-3.01,5.72-8,2.85-7.17-2.79,10.34-37.78,31.63-74.21,61.32-100.79,13.9-12.45,29.64-21.57,45.8-29.25Z"/>
              <path class="cls-13" d="M164.17,636.99c8.97-7.85,18.73-10.99,28.74-15.1,18.07-7.43,36.57-12.61,54.24-21.57,26.63-13.5,45.17-28.68,61.39-53.37-1.9,15.24-8.61,27.65-16.56,40.8,25.3-21.62,40.83-63.15,43.65-96.49,2.07-.06,5.63,3.11,5.35,5.72-.91,8.43-1.3,16.57-3.58,24.7-4.2,14.98-10.09,29.1-18.85,42.09-17.32,25.67-40.95,46.24-69.72,57.92-26.88,10.91-55.6,8.71-84.66,15.32Z"/>
              <path class="cls-47" d="M491.86,204.98c-2.09-.67-2.14-2.36-.15-5.08-.58-3.08-.16-5.82,1.25-8.2,6.51-7.09,13.83-13.29,21.96-18.59-16.84,6.16-29.87,18.14-40.86,31.76-3.36,3.74-7.54,5.52-12.29,6.57-2.16,2.5-4.91,2.23-8.25-.81-2.21,3.79-3.31,7.6-3.32,11.45l-6.97,5.43c-1.46,5.07-8.05,6.97-9.17,1.59l-1.11-.31c1.44-2.17,2.47-4.44,3.12-6.81,6.22-9.41,12.27-18.65,20.39-27.5,14.63-15.95,31.23-28.24,51.39-36.42,26.49-10.75,44.95-9.93,60.47,16.53,9.93,16.93,12.05,36.64,7.64,56.08-1.67-7.49-.7-14.51-3.23-21.47-2.04-12.84-9.55-22.64-19.08-30.68-7.59-6.4-16.44-8.48-25.54-3.4-7.46,4.16-15.18,8.67-21.3,14.83l-14.94,15.03Z"/>
              <path class="cls-90" d="M491.86,204.98c-11.03,14.6-23.66,36.45-31.71,53.59l-16.15,34.39c-.57.03-1.06,1.06-1.45.84-1.07-.62-1.46-3.69-2.14-3.78-.8-.1-1.65.62-2.12,1.43l-8.04,13.99-6.14,1.76c-1.11.32-.74,2.56-1.3,3.16-.88.94-2.76,1.38-3.68.27-4.39-5.27,3.52-10.37-.23-15.57-8.19-11.38-2.96-6.06-5.57-17.89-2.37.44-2.41,2.25-3.58,2.93.67-1.85.75-4.59,2.24-6.06,1.51-3.22,14.97-22.31,20.59-20.88,1.95.5,2.68,3.54,2.9,5.39-.43,9.88-2.54,19.64-6.35,29.28,12.31-26.52,26.67-51.65,43.07-75.39-2.44,1.69-4.54,2.22-6.3,1.6-1.5.92-4.19,2.18-5.07-.09-1.45,2.05-2.81,3.08-4.09,3.1-.86-1.07-1.14-.77-.84.91.48.46.83.86.74,1.06-1.33,2.88-5.99,10.4-8.83,9.28-1.85.63-2.9,1.74-3.13,3.34.12.71.21,1.42.16,2.12-.19,2.83-14.77,19.28-17.81,20.85-2.36,1.22-2.61,1.08-3.21-1.43-1.4-5.87,5.31-18.05,8.54-23.4.25-.42.92-.59,1.71-.69,1.32.38,4.93,2.05,5.75.53,3.63-6.71,2.02-1.4,8.72-8.56,1.03-1.1-1.16-3.51-.35-4.54,1.75-2.22,2.74-4.15,3.65-6.72.54-1.52,3.05-1.31,3.98-.38.56.55,1.18,1.04,2.78,2.88,1.46-3.67,4.68-3.05,7.4-4.14,5.67-2.28,9.12-7.65,13.05-12.13,11.58-13.18,26.47-22.99,43.8-27.63-2.48,5.1-7.52,6.06-11.09,9.34-6.53,5.99-23.43,15.44-16.81,21.76-2.12,1.22-2.72,3.98-3.08,5.48Z"/>
              <path class="cls-55" d="M634.04,271.14c2.24-1.92,4.18-.51,5.84,4.22l1.95,5.78c9.04,15.69,18.42,31.23,28.14,46.64,19.07,36.84,39.39,79.16,24.76,121.32-5.36,7.07-11.25,14.04-18.86,19.56,18.88-30.16,17.69-62.64,2.11-92.69-11.35-21.89-23.6-42.24-37.51-62.57-5.69-8.32-11.72-16.01-15.79-25.26-3.06-6.95-5.58-13.66-9.6-20.07l19.02,14.67c-2.19-7.2-7.22-11.45-10.41-17.47-2.4-.34-1.8-1.43.23-1.3,4.15,2.23,6.13,6.42,10.13,7.17Z"/>
              <path class="cls-20" d="M648.23,635.71c1.54,1.37-1.38,3.53-.99,2.27,10.38-6.85,17.9-15.65,22.57-26.4l2.49-1.52c-1.38-2.38-1.33-4.82,1.74-5.12.82-2.29,1.61-3.14,3.86-1.73.82.71,1.7,1.54,1.93,2.65.58,2.87-1.08,10.77-1.85,14.03-2.89,12.12-10.36,23.03-18.02,32.49-.7,1.21-.28,6.6.3,6.54,2.42-.25,8.03-11.46,8.95-14.24,1.47-3.49,3.4-5.05,5.76-4.68l1.86,1.89c-1,2.98-1.7,5.99-2.11,9.04-10.27,12.32-23.24,22.33-39.85,26.28-2.37.56-5.14-.84-6.24-2.88-3.31-6.1-8.51-9.85-12.99-14.6-1.23-1.3-.46-4.73-4.35-4.19-1.15.16-3.22-.53-3.34-1.98s1.14-2.27,2.33-3.32l10.7-9.5c8.48-7.54,15.32-17,20.71-27.12,5.82-10.93,6.88-22.97,6.42-34.69.71-2.09,1.16-1.61,2.4-.04-.22,2.42.97,4,3.59,4.76,3.75,14.86.91,31.27-6.66,44.49,1.81,2.63,3.01,4.76.83,7.59Z"/>
              <path class="cls-89" d="M377.97,205.99c9.71-10.94,20.94-20.81,33.02-28.89-11.2,14.09-23.81,27.11-32.04,44.13-.96,1.99-2.79,6.79-.55,7.8,4.79,2.16,9.77-.81,14.59-1.99.73.72-.53,1.71.34,3.22,6.7-3.36,13.5-5.26,20.66-7.3,4.08-1.16,7.33-3.89,11.97-3.9-11.85,17.38-21.32,35.27-29.9,54.04l5.46-23.17c-5.41,5.64-7.66,12.26-11.94,17.82-.5-5.12,2.5-16.08-3.58-18.53-6.96-2.8-19.29,11.52-24.23,18.26-2.67-5.58-1.4-11.29-3.37-16.8-8.98,5.48-14.11,12.91-20.61,20.46,4.77-16.17,12.18-30.25,22.28-43.19,5.92-7.59,11.75-15.03,17.9-21.96Z"/>
              <path class="cls-122" d="M605.92,239.8c2.63-.63,5.38-.66,8,.06,8.61-.21,25.29,16.13,31.05,23.09,1.2,2.15,1.07,3.12-.39,2.92-2.14.85-4.47-.38-6.99-3.67,9.67,12.8,18.59,26.23,26.99,39.89,14.06,22.86,28.15,49.09,33.67,75.3-.49-3.6-.78-7.16-.79-10.77,0-.32.34-.65.77-.98s.96-.56,1.5-.75c11.47,25.66,13.34,60.05-4.99,84.2-2.72-.4,2.47-15.89,3.01-24.07.99-14.9-2.07-28.8-6.13-42.91-1.66-5.76-2.96-11-5.54-16.42l-15.55-32.58c-6.16-12.91-29.62-45.97-31.41-53.63-.56-2.4-2.43-7.85-5.06-8.35-6.06-14.54-21.04-28.75-39.24-27.27,3.58-2.12,7.2-4.27,11.12-4.07Z"/>
              <path class="cls-113" d="M651.67,500.86l.97.91c.32,7.59,1.66,15.2,4.02,22.83.06,2.96-.23,7.25-3.76,6.16-1.97.45-2.21-2.97-2.19-4.76-2.35-.06-3.62-1.88-3.81-5.46-.86-15.21-1.29-22.82-1.29-22.82-6.07,14.71-5.26,30.98-3.18,46.44l-1.63,2.84c-12.99-17.21-10.69-40.05-1.37-59.36,4.46-9.24,9.09-17.79,14.53-26.64,16.07-26.11,20.94-55.68,14.01-86.9,11.88,17.24,19.81,44.73,13.53,65.55-6.73,22.32-23.7,28.78-31.08,58.24-.37,1.48.03,2.75,1.25,2.97Z"/>
              <path class="cls-55" d="M636.72,210.83c-.3,1.84-1.24,2.13-2.89,1.61,6.45,1.78,12.58,5.81,14.14,12.62,2.13-.14,4.56,3.52,5.04,5.38,2.29,8.86-5.28,3.85-9.31.98-2.64-.57-4.26-1.71-4.88-3.43l-1.58,1.78-11.6-2.6c6.29,1.89,11.45,5.08,15.49,9.58l2.98.44c4.27,3.93,10.75,12.66,13.19,17.92,3.42,7.36,13.93,32.11,13.19,38.53-.1.87-.33,1.72-.6,2.57,1.97,3-.68,3.52-3.83.68-6.75-9.61-13.87-18.93-21.37-27.94l-.12-3.09.39-2.92c3.65,4.42,7.16,8.99,11.93,13.58-7.24-15.32-17.98-28.91-32.04-38.55-9.19-6.3-20.86-5.45-30.51-1.77l9.12-20.61c2.6-5.88,3.55-11.76,3.82-18.47,5.94,1.57,27.42,8.98,29.42,13.7Z"/>
              <path class="cls-126" d="M650.71,526c1.9,7.45,4.43,14.94,7.58,22.46,2.47,8.39,9.92,36.93,6.98,43.48-.34.75-.8,1.44-1.3,2.12,1.66,2.02,1.66,4.14,1.57,6.57-.35,8.91-7.92,30.77-15.68,35.34-.36.22-.97.03-1.63-.27.17-2.72-1.89-4.6-2.7-7.81,7.32-13.34,9.86-28.58,7.07-43.25-1.34-.57-3.21-.56-3.49-1.34-.53-1.5-.25-5.79-1.03-4.4-.65-16.66-6.28-24.84-7.27-31.92-2.51-17.94-4.05-37.64,5.47-55.53,2.39,4.62.77,9.55,1.17,14.3l.77,9.22c.36,4.36.92,7.57,2.5,11.01Z"/>
              <path class="cls-35" d="M228.05,485c12.49-21.87,33.32-39.8,54.58-52.14l19.08-11.08c2.73-1.58,5.86-2.13,8.21-3.78l27.58-15.25c12.16-6.82,22.62-14.85,34.44-23.03-15.82,23.46-45.12,36.78-69.66,49.56-41.4,21.55-65,42.87-80.85,89.52-3.09-12.05,5.11-24.51,6.63-33.8Z"/>
              <path class="cls-102" d="M388.97,178.11c-3.92-2.59-5.7-7.93-9.64-10.32l-14.31-8.68c.25-.7.54-1.38.93-1.99,3.86-5.96,38.41-15.07,47.96-17.23,11.1-1.11,22.29-1.96,33.99-1.62-8.17,5.09-16.79,9.19-24.95,14.96-11.64,8.23-23.16,16.27-33.99,24.88Z"/>
              <path class="cls-78" d="M411.98,274.04c3.6-19.16,13.48-36.01,24.09-52.06,2.22-1.24-2.78,8.39-2.01,7.12-4.49,7.37-7.49,15.65-9,25.29,7.1-7.91,14.18-14.62,19.62-22.74-.16-1.66.88-2.77,3.13-3.34,3.4-2.44,6.62-6.34,8.09-10.34-.42-.94-.14-1.24.84-.91,1.64-1.21,1.98-3.08,4.09-3.1.58,1.78,2.27,1.81,5.07.09,2.54-2.85,7.29-4.21,11.03-6.18-1.3,4.59-4.39,6.88-6.84,10.33-11.82,16.66-20.86,34.47-30,52.71-4.28,8.54-7.59,17.15-14.55,25.09-.6-9.37,12.32-31.21,6.65-41.31-8.74,4.55-15.81,16.53-19.13,19.67-.27.26-.81.55-1.08-.32Z"/>
              <path class="cls-42" d="M644.57,265.87c11.95,12.85,14.03,18.66,24.47,31.54.56-.14.71-.82.85-1.19,1.08-1.76,2.29-3.13,3.9-4.31,3.85,15.76,9.56,31.18,15.51,46.74,3.49,9.13,8.68,17.1,10.42,26.25-1.48,5.82,3.08,18.76-.39,27.57-3.64-17.26-6.39-34.35-14.81-49.74l-7.11-12.98c-5.29-9.67-9.81-19.11-15.7-28.49-8.41-13.4-16.77-26.08-26.26-38.67-3.95-5.25-8.12-9.26-13.48-13.71,1.76-2.68,23.08,17.51,22.6,16.99Z"/>
              <path class="cls-17" d="M592.12,641.26c-2.81-2.83-3.8-6.06-5.96-9.51,7.25-7.26,13.34-15.05,18.72-23.75,15.11-24.44,8.89-40.67,11.82-67.52,14.1,46.11,14.87,69.21-24.58,100.78Z"/>
              <path class="cls-126" d="M678.71,557.15c7.68,16.73,12.97,33.51,10.27,52.31-.96,6.69-2.95,17.67-9.14,20.56l-1.38-2.84c3.14-13.44,4.99-27.77.53-41.12l.9,13.98-2,3.16c-1.06,1.01-2.37,1.75-3.86,1.73l-1.6-3.14c.25-19.66-4.79-38.49-15.12-56.5l-5.18-13.47.77-1.07c5.88-6.85-5.03-20.25-1.24-29.9.02-.7.02-1.92,2.01-1.94.14,9.16,2.39,18.55,7.22,27.02l17.81,31.21Z"/>
              <path class="cls-76" d="M247.8,280.87c-5.68,15.72-11.48,47.87-14.76,65.13.86,4.41.17,8.04-2.07,10.9-.12,1.38-.9,2.74-1.1,4.13-2.27,15.23-9.12,36.36-21.63,45.07,8.04-17.45,13.87-35.69,16.28-55.4s5.87-40.27,11.21-59.77c.31,1.54,2.23,3.76,3.76,3.86,5.71.37.53-12.75,8.31-13.91Z"/>
              <path class="cls-41" d="M209.96,445.98c-1.58,1.94-2.47,4.33-4.81,6.36-11.26,9.78-24.23,17.78-39.35,20.45-23.26,4.1-46.17,2.06-69.19-2.23-4-.74-7.86-.69-10.85-2.56l2.83-2.03c15.18,1.41,30.38,1.36,45.61-.16l4.7,1.41c6.23-3.03,13.06-4.93,20.51-5.7,0,0,8.17-2.37,24.5-7.12,4.34-2.5,8.63-3.67,12.87-3.51,9.21,1.16,5.63-3.04,13.18-4.91Z"/>
              <path class="cls-10" d="M173.94,442.92c.5,3.13-5.31,6.3-8.12,7.81-3.68,1.98-7.03,3.37-11.13,4.17-3.39.82-3.94,2.22-1.65,4.18l.26,1.31c-4.91,1.67-9.71,3.95-14.42,6.83-12.61,1.78-25.58,2.43-38.69,1.37-5.11-.41-9.75-.71-14.44-.59-2.93.08-5.94-1.16-9.22-1.5-.75-3.68-.79-6.71-.46-11.05,33.4,8.46,66.83,1.16,97.85-12.53Z"/>
              <path class="cls-107" d="M673.79,291.91c-.1.97.41,2.3-.15,3.37-.58,1.13-2.54.85-3.75.94-4.04-13.09-7.92-26.29-13.86-39.13-3.71-8.02-9.62-13.93-14.9-20.33-3.05-2.02-8.1-8.48-2.31-8.77,4.92.18,8.35,3.31,13.08,6.35-.15-4.29-3.43-6.07-3.95-9.28-1.87-2.99-2.15-4.98-.82-5.98,9,6.69,13.17,17.68,15.93,28.98l10.71,43.84Z"/>
              <path class="cls-3" d="M101.92,571.66c-.76-.23-1.42-.79-2-1.69-1.17-4.79-3.36-9.32-4.88-13.99l1.53-1.41c8.38.93,16.75.85,25.13-.24,12.77,1.72,25.45,2.87,39.24,3.23-2.74,2.46-6.45,1.73-9.93,2.5-9.13,2-17.8,3.15-27.27,4.37.45,7.5,11.95,6.13,15.34,8.24-14.31,2.62-24.67-.62-37.14-1Z"/>
              <path class="cls-94" d="M81.02,504.97c-.7-2.67-.83-5.34-.39-8.02l16.08-4.34-16.78-3.21-1.04-2.24c-1-2.73-2.44-6.31-.27-8.22,18.74,4.86,37.17,7.56,56.16,8.98-11.74,7.16-23.73,11.26-36.45,14.16-5.89,1.34-11.84,4.31-17.29,2.88Z"/>
              <path class="cls-63" d="M233.11,548.85c2.64-20.44,15.41-44.55,31.31-57.19,5.77-4.59,10.36-10.11,17.82-12.95l-19.03,27.47c-9.87,14.25-18.23,28.74-30.09,42.67Z"/>
              <path class="cls-8" d="M121.69,554.33c.04,2.78-23.95,4.14-26.66,1.65-2.51-7.68-4.9-15.33-7.04-23.1,1.08-3.3,7.39-5.56,10.89-6.7,2.67-.87,6.73-1.87,8.94-.03-.04-1.05,2.07-1.49,3.09-1.14,7.64-.98,15.59-3.44,23.23-4.88,1.67-.31,3.87-.5,6.02.36-12.72,5.5-35.21,13.63-43.58,27.02,8.34,3.32,16.77,5.7,25.1,6.82Z"/>
              <path class="cls-50" d="M124.83,507.93c7.99-3.36,13.01,5.1,5.91,9.9l-20.83,6.17c.03.67-.67,1.38-2.09,2.14-2.59,1.44-5.74.85-8.79,2.11-3.91,1.62-7.37,3.51-11.04,4.62l-3.95-14.4c14.02-2.58,27.63-5.6,40.78-10.55Z"/>
              <path class="cls-34" d="M153.05,459.08c-1.75-.51-3.89.25-5.41-2.22,2.34-1.94,5.59-3.91,8.37-4.41,7.64-1.38,12.36-6.18,17.93-9.53,16.96-10.22,34.31-23.99,48.22-37.97,2.68-2.7,6.39-4.67,8.67-7.99,1.4,1.18,1.33,1.86.83,3.23-1.07,2.9-8.74,12.37-11.18,15.25-14.88,17.59-41.27,39.01-63.94,44.74l-3.49-1.09Z"/>
              <path class="cls-114" d="M674.69,650.92c-3.88-2.15.33-6.03.26-10.93-1.91-2.38,1.52-10.7,4.89-9.97,12.11-20.48,8.53-45.6-.08-67.56-.74-1.88-1.68-3.74-1.05-5.31,11.89,20.83,19.72,36.16,12.94,62.39-3.23,12.48-9.35,22.25-16.96,31.38Z"/>
              <path class="cls-14" d="M130.74,517.83c.96-2.29,1.81-4.74.84-7.52-2.21-1.43-4.44-2.65-6.75-2.38,2.6-.98,5.03-2.83,7.98-2.98,4.13-.21,7.39-2.96,11.4-4.54,10.58-4.18,20.59-8.24,32.46-11.54-11.13,12.36-31.44,24.67-45.92,28.96Z"/>
              <path class="cls-80" d="M413.92,139.89l-27.94,10.15c-7.52,2.73-14.32,5.54-20.96,9.07-5.83,3.1-11.58,6.19-17.1,9.9,1.02.5-4.76-10.23-5.07-8.14,22.41-10.65,46.25-18.51,71.07-20.98Z"/>
              <path class="cls-105" d="M563.01,127.18c6.17,2.39,11.98,5.52,16.52,11.14,6.9,8.56,10.61,18.39,13.3,28.51-.82-.08-1.21-.77-1.73-1.77-10.21-19.55-18.76-32.18-40.41-37.25l12.33-.62Z"/>
              <path class="cls-77" d="M81.02,504.97c-2.09-5.7-1.52-12.02-2.14-17.81l27.17,5.2-24.99,6.38c-.26,2.67-.18,4.42-.03,6.23Z"/>
              <path class="cls-106" d="M636.72,210.83c5.04.49,7.01,5.72,10.43,8.25.12,2.01.5,3.99.82,5.98-6.72-12.26-26.94-14.67-40.58-10.95,3.77-8.84,23.99-3.8,29.34-3.28Z"/>
              <path class="cls-55" d="M613.92,239.86c-2.7.06-5.31.08-8-.06,2.17-1.38,5.87-1.43,8,.06Z"/>
              <path class="cls-52" d="M101.92,571.66v2.36c-.6-1.42-1.58-2.33-2-4.05.97.05,1.59.87,2,1.69Z"/>
              <path class="cls-14" d="M110.92,525c-.6.99-2.28.69-3.09,1.14-1.03-.24-1.04-1-.34-1.15,1.07-.22,1.64-.76,2.43-.99.3.37.63.7,1,1Z"/>
              <path class="cls-37" d="M230.97,356.9c.33-3.7,1.38-7.25,2.07-10.9.47-.56,2.15,8,.77,9.41-.62.62-1.72,1.26-2.83,1.49Z"/>
              <path class="cls-62" d="M196.77,450.89c-16.96,8.81-38.96,13.66-57.88,16.33,2.07-1.37,3.45-5.37,6.14-6.06l8.01-2.08c9.29-2.41,17.52-6.83,26.31-11.7,19.5-10.8,35.45-25.61,47.58-44.31,1.54-2.37,3.42-3.57,3.89-6.12.56-3.05,3.73-5.4,7.68-6.47,1.52,13.16-14.45,32.53-22.73,43.36-5.45,7.13-11.51,12.82-19.01,17.05Z"/>
              <path class="cls-47" d="M465.89,214.04c-7.19,8.08-13.64,16.52-20.71,26.11.16-5.01,13.56-20.81,15.64-26.2,1.6-.02,3.43-1.74,5.07.09Z"/>
              <path class="cls-47" d="M447.81,228.31c-.22,1.72-2.34,2.17-3.13,3.34-.81-.8-.82-2.11-.3-2.76.9-1.14,2.59-.4,3.43-.58Z"/>
              <path class="cls-47" d="M456.74,217.06c-.27.2-.7.62-.84.91-.6-.29-1.29-.82-1.43-1.67-.07-.39.19-.86.65-1.77,1.23.31,1.64,1.37,1.62,2.53Z"/>
              <path class="cls-36" d="M652.9,530.76l10.66,23.54c7.8,17.21,13.28,32.42,10.47,50.64-.24,1.57-1.34,3.45-1.74,5.12-1.1,1.8-2.24,1.49-3.17-.26l-5.16-15.73c-.1-20.81-6-41.08-12.68-61.15-.83-2.48-1.81-5.1-.58-6.92l2.19,4.76Z"/>
              <path class="cls-31" d="M679.84,630.02c-2.2,3.34-2.96,7.26-4.89,9.97s-3.84,4.63-5.02,7.84c-2.16,5.84-5.55,11.02-11.5,14.96-2.07-15.7-.5-8.17,5.79-19.39,2.92-5.2,6.82-9.67,9-15.17,3.43-8.64,4.54-16.41,4.68-25.04.16-10.05-1.23-18.61-2.63-28.96,11.63,16.85,9.15,37.15,4.58,55.78Z"/>
              <path class="cls-71" d="M672.3,610.06c-2.61,11.08-11.1,19.86-20.77,26.35-1.8,1.21-2.93,3.21-5.52,2.42.7-1.23,1.4-2.34,2.22-3.13,9.89-9.37,15.8-29.52,15.74-41.64,5.49,2.7,4.99,15.47,8.33,15.99Z"/>
              <path class="cls-117" d="M638.83,227.99c-2.34,2.45,1.75,4.64,2.31,8.77-.45-.44-1.78-.07-2.51-.63-6.54-5.05-14.07-6.69-22.2-10.46,3.06-3.32,19.65,2.23,22.4,2.33Z"/>
              <g>
                <path class="cls-37" d="M310.9,268c-23.78,39.69-31.48,60.82-47.34,104.2-4.56,12.48-9.76,22.92-18.5,33.49,8.61-2.44,13.75-7.63,20.73-10.4,3.14-.94,6.77-.92,10.89.05,3.47,3.19,10.47,1.07,3.97-3.54-2.33-.77-3.91-1.99-4.74-3.65l23.5-16.86,12.2-8.13c-.06,2.05,2.04,2.69,4.43,3.12-1.16,1.63-2.88.69-4.55.25-1.4-.37-2.34.51-3.12.56-1.29.08-2.16,2.96-1.04,3.44,2.55,1.1,5.96.86,7.01,3.91.5,1.46-2.14,1.68-3.69,3.07,2.29,1.45,4.98.45,7.28,3.79-4.25,3.33-9.6,1.78-14.16,2.47.96-.15-9.21,3.79-9.81,7.77-.23,1.55,1.45,2.51,2.81,3.55,5.67,4.35,6.8-2.25,10.06.95-2.87,1.1-5.13,4.21-7.79,5.67-13.86,7.62-29.75,10.56-43.3,17.18l23.02-4.81c-10.22,7.75-11.18,4.84-22.04,15.73-3.36,3.37-7.06,5.95-10.19,9.77-4.42,5.39-24.24,29.6-19.48,35.32-10.28,13.9-15.62,29.44-17.44,47.69-4.25-20.26-.71-40.46,4.96-59.97,5.23-18.01,15.17-32.66,30.06-43.93,5.81-4.39,12.46-7.14,17.56-13.02-12.12,4.3-21.86,11.53-31.69,18.84-8.25,6.13-14.34,13.87-20.51,21.47l-8.03,6.82c-3.1.98-4.82.34-5.15-1.92l1.38-3.15c16.26-13.13,33.87-33.63,38.13-54.27-1.74,1.62-3.56,2.79-5.46,3.48-.6,1.43-6.75,8.58-7.32,8.53-.46-.04-.91-.26-1.36-.54-.57-4.51,8.41-11.13,7.04-15.81-7.98,11.53-17.04,20.69-27.1,28.59,1.26-5.31,4.54-8.17,6.13-11.64,10.07-12.72,16.85-27.26,19.34-43.38l2.29-1.68,5.27-.72c.81-.11.58-3.07,1.33-2.96l2.62.37c1.85.26,5.77-2.69,6.54-5.19l3.98-12.84c1.4-4.51,2.99-8.3,5.56-12.65l5.84-9.85c6.77.05-8.49,28.77-7.26,35.42,5.58-2.9,11.99-24.37,14.55-27.4,2.2-2.62,3.1-5.34,4.83-8.04,3.71-5.81,15.1-21.75,14.88-28.92,6.04.4,6.47-4.64,9.04-8.02,1.88-2.47,5.96-3.12,7.64-6.7,1.18-2.52,3.84-4.9,6.19-5.53Z"/>
                <path class="cls-100" d="M265.79,395.29c3.12-1.88,7.09-4.96,10.12-7.13,2.68-.88,10.03,4.33,9.9,6.33-.2,3.03-5.61,4.76-6.44,4.86-1.06.13-1.74-1.14-2.9-1.86-4.02-2.49-11.88.51-10.68-2.19Z"/>
                <path class="cls-100" d="M284.72,403.96c-1.16.21-.65-1.55-.45-2.28.18-.66,1.09-.99,2.33-1.2-.5.93-1.13,1.23-1.89,3.48Z"/>
              </g>
            </g>
          </g>
        </g>
      </g>
    </g>
  </g>
</svg>