<svg width="495" height="128" viewBox="0 0 495 128" fill="none" xmlns="http://www.w3.org/2000/svg">
<g filter="url(#filter0_d_370_330)">
<rect x="15.1797" y="8.2373" width="471.996" height="97.7995" rx="8" transform="rotate(-0.999999 15.1797 8.2373)" fill="#F7F1E3" shape-rendering="crispEdges"/>
<rect x="17.2143" y="10.2021" width="467.996" height="93.7995" rx="6" transform="rotate(-0.999999 17.2143 10.2021)" stroke="#0B0B0D" stroke-width="4" shape-rendering="crispEdges"/>
<path d="M37.6116 49.8523L37.3163 32.9349L45.0501 32.7999C46.3129 32.7778 47.3875 32.9734 48.2739 33.3865C49.1603 33.7996 49.8395 34.4041 50.3114 35.2001C50.7834 35.996 51.0294 36.9639 51.0493 38.1038C51.0689 39.2276 50.8568 40.1995 50.413 41.0195C49.9692 41.8394 49.3117 42.474 48.4404 42.9233C47.569 43.3726 46.5019 43.6083 45.2391 43.6303L41.2308 43.7003L41.3371 49.7873L37.6116 49.8523ZM41.1803 40.8031L44.5583 40.7441C45.5259 40.7272 46.2571 40.5018 46.7519 40.0677C47.2468 39.6337 47.487 38.9998 47.4724 38.1662C47.4578 37.3276 47.1957 36.704 46.6861 36.2955C46.1765 35.887 45.4379 35.6911 44.4704 35.708L41.0924 35.767L41.1803 40.8031ZM57.3682 49.7625C56.3723 49.7799 55.5462 49.6105 54.8899 49.2544C54.2336 48.8983 53.7405 48.3542 53.4106 47.6222C53.0808 46.8901 52.9062 45.9708 52.8869 44.8642L52.7638 37.8124L56.3872 37.7492L56.5117 44.879C56.5198 45.3427 56.5899 45.73 56.7221 46.0407C56.8542 46.3514 57.0572 46.5811 57.3308 46.7296C57.6045 46.8782 57.9471 46.9489 58.3586 46.9417C58.8228 46.9336 59.2281 46.8176 59.5746 46.5936C59.9211 46.3696 60.1918 46.0558 60.3868 45.6522C60.5817 45.2487 60.6745 44.7798 60.6651 44.2454L60.5505 37.6765L64.1739 37.6133L64.3794 49.385L60.843 49.4468L60.8027 47.142L61.1612 47.1357C60.8297 47.9655 60.3403 48.6068 59.6932 49.0596C59.046 49.5125 58.271 49.7467 57.3682 49.7625ZM73.3024 49.4844C71.9195 49.5085 70.7224 49.2789 69.7112 48.7954C68.7 48.312 67.9164 47.6153 67.3604 46.7053C66.8044 45.7954 66.5155 44.714 66.4936 43.4612C66.4724 42.2454 66.7132 41.1745 67.2162 40.2486C67.7191 39.3226 68.4225 38.5905 69.3263 38.0521C70.2301 37.5138 71.265 37.2344 72.4309 37.2141C73.5858 37.1939 74.5837 37.4215 75.4247 37.8969C76.2657 38.3724 76.9228 39.0548 77.3959 39.9442C77.8691 40.8336 78.1164 41.8938 78.1379 43.1246L78.1537 44.035L69.4945 44.1862L69.4619 42.3156L75.5058 42.2101L75.1351 42.5466C75.1181 41.569 74.8928 40.832 74.4592 40.3357C74.0256 39.8394 73.4159 39.5981 72.6303 39.6118C72.0436 39.622 71.543 39.7667 71.1284 40.0459C70.7138 40.3251 70.4008 40.7218 70.1893 41.2359C69.9778 41.75 69.8784 42.3715 69.8911 43.1002L69.8943 43.2832C69.9086 44.103 70.0438 44.7723 70.2999 45.2913C70.5559 45.8103 70.938 46.1906 71.4462 46.4322C71.9544 46.6738 72.5834 46.788 73.3332 46.7749C73.969 46.7638 74.6145 46.6563 75.2695 46.4524C75.9246 46.2484 76.5131 45.9459 77.0352 45.5448L78.0298 47.9347C77.4527 48.3938 76.7349 48.7631 75.8767 49.0427C75.0184 49.3222 74.1603 49.4694 73.3024 49.4844ZM84.934 49.2813C83.9202 49.299 83.0197 49.0667 82.2327 48.5844C81.4456 48.102 80.8268 47.4022 80.3762 46.4849C79.9257 45.5677 79.6894 44.4801 79.6674 43.2223C79.6452 41.9484 79.8433 40.852 80.2619 39.9331C80.6804 39.0141 81.2733 38.2999 82.0405 37.7904C82.8077 37.281 83.7008 37.0173 84.7196 36.9996C85.6504 36.9833 86.4773 37.1939 87.2006 37.6312C87.9238 38.0686 88.4172 38.647 88.6807 39.3664L88.4093 39.3711L88.2814 32.0453L91.9048 31.982L92.2001 48.8994L88.6637 48.9612L88.6232 46.6384L88.8391 46.6347C88.6228 47.4154 88.1557 48.0476 87.4381 48.5311C86.7204 49.0147 85.8857 49.2647 84.934 49.2813ZM85.9821 46.5541C86.7577 46.5406 87.3812 46.247 87.8527 45.6734C88.3241 45.0998 88.5496 44.2312 88.5293 43.0676C88.5088 41.893 88.2531 41.0328 87.7621 40.487C87.2712 39.9411 86.6379 39.675 85.8623 39.6885C85.0867 39.7021 84.4631 39.9901 83.9915 40.5528C83.5199 41.1154 83.2943 41.984 83.3148 43.1586C83.3351 44.3222 83.5909 45.1824 84.082 45.7392C84.5732 46.296 85.2065 46.5677 85.9821 46.5541ZM101.114 48.9989C99.7312 49.0231 98.5342 48.7934 97.523 48.31C96.5118 47.8265 95.7282 47.1298 95.1722 46.2199C94.6162 45.3099 94.3272 44.2285 94.3054 42.9757C94.2841 41.7599 94.525 40.689 95.028 39.7631C95.5309 38.8372 96.2343 38.105 97.1381 37.5667C98.0419 37.0283 99.0767 36.7489 100.243 36.7286C101.398 36.7084 102.395 36.9361 103.236 37.4115C104.077 37.8869 104.735 38.5693 105.208 39.4587C105.681 40.3482 105.928 41.4083 105.95 42.6391L105.966 43.5496L97.3063 43.7007L97.2736 41.8302L103.318 41.7247L102.947 42.0611C102.93 41.0835 102.705 40.3466 102.271 39.8502C101.837 39.3539 101.228 39.1126 100.442 39.1263C99.8554 39.1366 99.3547 39.2813 98.9402 39.5605C98.5256 39.8396 98.2126 40.2363 98.0011 40.7504C97.7896 41.2646 97.6902 41.886 97.7029 42.6148L97.7061 42.7978C97.7204 43.6175 97.8556 44.2869 98.1116 44.8059C98.3677 45.3249 98.7498 45.7051 99.258 45.9467C99.7662 46.1883 100.395 46.3026 101.145 46.2895C101.781 46.2784 102.426 46.1708 103.081 45.9669C103.736 45.763 104.325 45.4604 104.847 45.0594L105.842 47.4493C105.264 47.9084 104.547 48.2777 103.688 48.5572C102.83 48.8367 101.972 48.9839 101.114 48.9989ZM112.688 48.7969C111.997 48.809 111.331 48.7671 110.691 48.6713C110.05 48.5754 109.464 48.4347 108.931 48.2489C108.398 48.0632 107.927 47.8294 107.518 47.5476L108.343 45.1814C108.747 45.4103 109.189 45.6129 109.668 45.789C110.148 45.9652 110.644 46.098 111.157 46.1876C111.669 46.2772 112.171 46.3177 112.661 46.3091C113.343 46.2972 113.842 46.179 114.156 45.9546C114.471 45.7302 114.625 45.4421 114.619 45.0903C114.614 44.7825 114.504 44.5493 114.291 44.3906C114.078 44.2318 113.77 44.1205 113.368 44.0566L110.833 43.6523C109.838 43.4876 109.07 43.137 108.528 42.6004C107.986 42.0637 107.707 41.3589 107.692 40.486C107.678 39.688 107.889 38.9952 108.325 38.4074C108.762 37.8197 109.372 37.3607 110.156 37.0304C110.94 36.7002 111.842 36.5261 112.863 36.5083C113.428 36.4984 113.984 36.537 114.531 36.6239C115.079 36.7109 115.6 36.8463 116.095 37.0301C116.59 37.214 117.032 37.4601 117.419 37.7684L116.531 40.1131C116.223 39.8824 115.863 39.6837 115.45 39.5169C115.037 39.3502 114.614 39.2198 114.18 39.1258C113.747 39.0319 113.338 38.9883 112.953 38.995C112.229 39.0076 111.708 39.1289 111.388 39.3589C111.069 39.5889 110.913 39.8853 110.919 40.2481C110.924 40.5138 111.021 40.7371 111.21 40.9177C111.4 41.0983 111.687 41.2177 112.072 41.276L114.607 41.6803C115.645 41.8442 116.44 42.1824 116.993 42.6948C117.546 43.2073 117.83 43.908 117.845 44.7969C117.859 45.6209 117.655 46.3279 117.232 46.9179C116.808 47.5079 116.207 47.964 115.428 48.2862C114.649 48.6084 113.736 48.7786 112.688 48.7969ZM126.703 48.2972L126.497 36.5254L130.033 36.4637L130.072 38.6725L129.808 38.6771C130.012 38.1645 130.295 37.7219 130.657 37.349C131.018 36.9762 131.452 36.6851 131.958 36.4758C132.464 36.2664 133.024 36.1564 133.637 36.1457C134.541 36.1299 135.302 36.3331 135.92 36.7554C136.538 37.1776 136.985 37.8329 137.26 38.7211L136.924 38.727C137.255 37.9032 137.783 37.2497 138.508 36.7665C139.233 36.2833 140.063 36.0335 140.998 36.0172C141.904 36.0014 142.655 36.1681 143.25 36.5173C143.845 36.8664 144.294 37.4045 144.598 38.1313C144.901 38.8582 145.062 39.7831 145.082 40.906L145.205 47.9742L141.582 48.0375L141.46 41.0892C141.447 40.2936 141.311 39.7175 141.054 39.3611C140.797 39.0047 140.369 38.8317 139.77 38.8421C139.323 38.8499 138.936 38.9657 138.609 39.1893C138.281 39.413 138.036 39.732 137.873 40.1463C137.711 40.5606 137.634 41.0631 137.645 41.6538L137.757 48.1042L134.134 48.1675L134.013 41.2192C133.999 40.4236 133.863 39.8475 133.606 39.4911C133.349 39.1347 132.926 38.9616 132.339 38.9718C131.881 38.9798 131.491 39.0956 131.169 39.3192C130.847 39.5428 130.605 39.8617 130.442 40.276C130.279 40.6903 130.203 41.1928 130.213 41.7836L130.326 48.2339L126.703 48.2972ZM147.588 33.87L147.529 30.4914L151.444 30.4231L151.503 33.8016L147.588 33.87ZM147.987 47.9257L147.782 36.1539L151.405 36.0906L151.611 47.8624L147.987 47.9257ZM154.418 47.8134L154.213 36.0416L157.749 35.9799L157.799 38.849L157.559 38.8532C157.732 37.8901 158.138 37.1433 158.78 36.613C159.422 36.0827 160.281 35.7707 161.358 35.6769L162.396 35.5792L162.664 38.6302L160.646 38.8635C159.737 38.9654 159.065 39.2446 158.629 39.7011C158.194 40.1577 157.984 40.8068 157.998 41.6485L158.105 47.7491L154.418 47.8134ZM168.173 47.8284C167.295 47.8437 166.512 47.6909 165.825 47.3698C165.138 47.0487 164.598 46.6053 164.204 46.0396C163.811 45.4738 163.608 44.829 163.595 44.105C163.58 43.2412 163.792 42.5546 164.231 42.0454C164.67 41.5361 165.389 41.162 166.388 40.9231C167.387 40.6841 168.722 40.55 170.393 40.5209L171.653 40.4989L171.685 42.3694L170.434 42.3913C169.823 42.402 169.303 42.4378 168.875 42.4988C168.446 42.5597 168.099 42.6488 167.831 42.766C167.564 42.8831 167.371 43.0342 167.253 43.2193C167.136 43.4043 167.079 43.6262 167.084 43.8851C167.091 44.3378 167.256 44.7056 167.576 44.9885C167.896 45.2713 168.347 45.4077 168.928 45.3975C169.39 45.3895 169.8 45.2758 170.157 45.0567C170.513 44.8375 170.796 44.5389 171.004 44.1608C171.213 43.7827 171.312 43.3488 171.304 42.8591L171.256 40.092C171.243 39.3973 171.074 38.9057 170.747 38.6169C170.42 38.3282 169.868 38.1907 169.091 38.2042C168.455 38.2153 167.784 38.3246 167.077 38.5319C166.37 38.7393 165.668 39.0521 164.971 39.4703L163.952 37.0718C164.363 36.7766 164.863 36.5146 165.452 36.2857C166.042 36.0569 166.666 35.8755 167.326 35.7414C167.986 35.6074 168.606 35.5353 169.186 35.5252C170.418 35.5037 171.435 35.6682 172.238 36.0188C173.041 36.3694 173.646 36.9134 174.055 37.651C174.463 38.3885 174.678 39.3398 174.698 40.5047L174.82 47.4573L171.441 47.5163L171.399 45.1484L171.569 45.1455C171.481 45.682 171.286 46.1482 170.982 46.544C170.678 46.9399 170.289 47.2502 169.815 47.475C169.34 47.6998 168.793 47.8176 168.173 47.8284ZM177.551 47.4096L177.345 35.6378L180.882 35.5761L180.932 38.4453L180.692 38.4495C180.864 37.4863 181.271 36.7396 181.913 36.2092C182.555 35.6789 183.414 35.3669 184.49 35.2731L185.529 35.1754L185.796 38.2264L183.779 38.4597C182.87 38.5616 182.197 38.8408 181.762 39.2973C181.326 39.7539 181.116 40.403 181.131 41.2447L181.237 47.3453L177.551 47.4096ZM198.619 47.297C197.928 47.309 197.262 47.2671 196.622 47.1713C195.981 47.0755 195.395 46.9347 194.862 46.749C194.329 46.5633 193.858 46.3295 193.449 46.0476L194.274 43.6815C194.678 43.9104 195.119 44.113 195.599 44.2891C196.079 44.4652 196.575 44.5981 197.088 44.6877C197.6 44.7772 198.102 44.8177 198.592 44.8092C199.274 44.7973 199.773 44.6791 200.087 44.4547C200.402 44.2303 200.556 43.9422 200.55 43.5904C200.545 43.2826 200.435 43.0493 200.222 42.8906C200.009 42.7319 199.701 42.6206 199.299 42.5566L196.764 42.1524C195.769 41.9877 195.001 41.6371 194.459 41.1004C193.917 40.5638 193.638 39.859 193.623 38.9861C193.609 38.1881 193.82 37.4953 194.256 36.9075C194.693 36.3198 195.303 35.8608 196.087 35.5305C196.871 35.2002 197.773 35.0262 198.794 35.0084C199.359 34.9985 199.915 35.0371 200.462 35.124C201.009 35.2109 201.531 35.3464 202.026 35.5302C202.521 35.7141 202.963 35.9602 203.35 36.2684L202.462 38.6131C202.154 38.3825 201.794 38.1838 201.381 38.017C200.968 37.8502 200.545 37.7199 200.111 37.6259C199.678 37.532 199.269 37.4883 198.884 37.4951C198.16 37.5077 197.639 37.629 197.319 37.859C197 38.089 196.843 38.3854 196.85 38.7481C196.854 39.0139 196.952 39.2371 197.141 39.4178C197.331 39.5984 197.618 39.7178 198.003 39.7761L200.538 40.1804C201.576 40.3443 202.371 40.6824 202.924 41.1949C203.476 41.7073 203.761 42.408 203.776 43.297C203.79 44.1209 203.586 44.8279 203.163 45.418C202.739 46.008 202.138 46.4641 201.359 46.7863C200.58 47.1084 199.666 47.2787 198.619 47.297ZM205.515 32.8588L205.456 29.4803L209.371 29.4119L209.43 32.7905L205.515 32.8588ZM205.915 46.9145L205.709 35.1427L209.332 35.0795L209.538 46.8513L205.915 46.9145ZM212.346 46.8023L212.14 35.0305L215.676 34.9688L215.715 37.1776L215.451 37.1822C215.804 36.378 216.341 35.7584 217.063 35.3233C217.784 34.8882 218.607 34.6625 219.531 34.6464C220.475 34.6299 221.255 34.7955 221.872 35.1432C222.489 35.4909 222.954 36.0294 223.268 36.7587C223.582 37.488 223.749 38.4126 223.769 39.5325L223.892 46.6007L220.269 46.664L220.148 39.7548C220.139 39.207 220.065 38.7648 219.927 38.4283C219.789 38.0918 219.587 37.8463 219.321 37.692C219.055 37.5377 218.719 37.4641 218.312 37.4712C217.811 37.4799 217.373 37.596 216.999 37.8195C216.625 38.0429 216.338 38.3557 216.139 38.7577C215.94 39.1597 215.845 39.628 215.854 40.1626L215.969 46.739L212.346 46.8023ZM233.37 50.756L233.089 34.6648L236.625 34.6031L236.666 36.9094L236.433 36.9134C236.655 36.1436 237.126 35.5168 237.846 35.0332C238.567 34.5496 239.403 34.2995 240.355 34.2829C241.374 34.2651 242.276 34.4974 243.06 34.9798C243.845 35.4622 244.462 36.1553 244.912 37.0591C245.363 37.9629 245.599 39.0517 245.621 40.3255C245.643 41.5834 245.445 42.6785 245.027 43.611C244.608 44.5434 244.018 45.2643 243.257 45.7737C242.495 46.2831 241.599 46.5467 240.569 46.5647C239.639 46.581 238.809 46.3677 238.08 45.9249C237.351 45.4822 236.855 44.9011 236.591 44.1817L236.879 44.1767L236.993 50.6927L233.37 50.756ZM239.427 43.8757C240.202 43.8622 240.826 43.5686 241.297 42.995C241.769 42.4214 241.994 41.5528 241.974 40.3892C241.953 39.2146 241.698 38.3544 241.207 37.8086C240.716 37.2627 240.082 36.9966 239.307 37.0101C238.531 37.0237 237.908 37.3118 237.436 37.8744C236.964 38.437 236.739 39.3056 236.759 40.4802C236.78 41.6438 237.035 42.504 237.527 43.0608C238.018 43.6176 238.651 43.8893 239.427 43.8757ZM247.932 46.1811L247.727 34.4093L251.263 34.3476L251.313 37.2168L251.073 37.2209C251.245 36.2578 251.652 35.5111 252.294 34.9807C252.936 34.4504 253.795 34.1384 254.872 34.0446L255.91 33.9469L256.178 36.9979L254.16 37.2312C253.251 37.3331 252.579 37.6123 252.143 38.0688C251.708 38.5254 251.497 39.1745 251.512 40.0162L251.619 46.1168L247.932 46.1811ZM263.713 46.1607C262.331 46.1849 261.133 45.9552 260.122 45.4718C259.111 44.9884 258.327 44.2917 257.771 43.3817C257.215 42.4718 256.927 41.3904 256.905 40.1375C256.883 38.9217 257.124 37.8509 257.627 36.9249C258.13 35.999 258.834 35.2668 259.737 34.7285C260.641 34.1901 261.676 33.9108 262.842 33.8904C263.997 33.8703 264.995 34.0979 265.836 34.5733C266.677 35.0487 267.334 35.7311 267.807 36.6206C268.28 37.51 268.527 38.5701 268.549 39.801L268.565 40.7114L259.906 40.8625L259.873 38.992L265.917 38.8865L265.546 39.2229C265.529 38.2453 265.304 37.5084 264.87 37.0121C264.437 36.5157 263.827 36.2744 263.041 36.2881C262.455 36.2984 261.954 36.4431 261.539 36.7223C261.125 37.0015 260.812 37.3981 260.6 37.9123C260.389 38.4264 260.289 39.0478 260.302 39.7766L260.305 39.9596C260.32 40.7793 260.455 41.4487 260.711 41.9677C260.967 42.4867 261.349 42.867 261.857 43.1085C262.365 43.3501 262.994 43.4644 263.744 43.4513C264.38 43.4402 265.026 43.3327 265.681 43.1287C266.336 42.9248 266.924 42.6223 267.446 42.2212L268.441 44.6111C267.864 45.0702 267.146 45.4395 266.288 45.719C265.429 45.9985 264.571 46.1458 263.713 46.1607ZM275.287 45.9587C274.596 45.9708 273.93 45.9289 273.29 45.8331C272.65 45.7372 272.063 45.5965 271.53 45.4108C270.997 45.225 270.526 44.9912 270.117 44.7094L270.942 42.3432C271.346 42.5722 271.788 42.7747 272.268 42.9508C272.747 43.127 273.243 43.2598 273.756 43.3494C274.269 43.439 274.77 43.4795 275.26 43.4709C275.943 43.459 276.441 43.3408 276.756 43.1164C277.07 42.892 277.224 42.6039 277.218 42.2522C277.213 41.9444 277.104 41.7111 276.89 41.5524C276.677 41.3937 276.37 41.2823 275.968 41.2184L273.432 40.8141C272.437 40.6495 271.669 40.2988 271.127 39.7622C270.585 39.2255 270.306 38.5207 270.291 37.6478C270.277 36.8499 270.488 36.157 270.925 35.5693C271.361 34.9815 271.971 34.5225 272.755 34.1922C273.539 33.862 274.442 33.6879 275.463 33.6701C276.027 33.6603 276.584 33.6988 277.131 33.7858C277.678 33.8727 278.199 34.0081 278.694 34.192C279.19 34.3758 279.631 34.6219 280.019 34.9302L279.131 37.2749C278.823 37.0443 278.462 36.8456 278.049 36.6788C277.636 36.512 277.213 36.3816 276.78 36.2877C276.346 36.1937 275.937 36.1501 275.553 36.1568C274.829 36.1694 274.307 36.2908 273.988 36.5208C273.668 36.7508 273.512 37.0471 273.518 37.4099C273.523 37.6757 273.62 37.8989 273.809 38.0795C273.999 38.2601 274.286 38.3796 274.671 38.4378L277.206 38.8421C278.244 39.006 279.04 39.3442 279.592 39.8566C280.145 40.3691 280.429 41.0698 280.444 41.9587C280.459 42.7827 280.254 43.4897 279.831 44.0797C279.408 44.6697 278.806 45.1258 278.027 45.448C277.248 45.7702 276.335 45.9404 275.287 45.9587ZM282.183 31.5206L282.124 28.142L286.04 28.0737L286.099 31.4522L282.183 31.5206ZM282.583 45.5763L282.377 33.8045L286.001 33.7413L286.206 45.513L282.583 45.5763ZM294.678 45.6203C293.415 45.6423 292.312 45.4135 291.368 44.9339C290.424 44.4543 289.685 43.7567 289.151 42.841C288.616 41.9254 288.338 40.8385 288.316 39.5805C288.294 38.3175 288.534 37.2231 289.036 36.2971C289.539 35.3712 290.253 34.6521 291.18 34.1399C292.107 33.6276 293.201 33.3605 294.463 33.3385C295.731 33.3163 296.835 33.5451 297.776 34.0247C298.718 34.5044 299.456 35.1992 299.99 36.1091C300.525 37.019 300.803 38.1033 300.825 39.3619C300.847 40.62 300.607 41.7159 300.104 42.6497C299.602 43.5836 298.889 44.3066 297.965 44.8188C297.041 45.331 295.945 45.5981 294.678 45.6203ZM294.625 42.9123C295.404 42.8987 296.03 42.605 296.501 42.0314C296.972 41.4578 297.198 40.5865 297.177 39.4174C297.157 38.2483 296.901 37.3908 296.41 36.845C295.919 36.2992 295.284 36.033 294.505 36.0467C293.733 36.0601 293.111 36.3482 292.64 36.9108C292.168 37.4734 291.943 38.3393 291.963 39.5084C291.983 40.6775 292.239 41.5404 292.73 42.0972C293.221 42.6541 293.853 42.9257 294.625 42.9123ZM293.252 32.062L295.623 27.1177L299.094 27.0572L295.629 32.0205L293.252 32.062ZM303.148 45.2173L302.942 33.4455L306.479 33.3838L306.517 35.5926L306.253 35.5972C306.606 34.7931 307.144 34.1734 307.865 33.7383C308.587 33.3032 309.409 33.0776 310.333 33.0615C311.277 33.045 312.057 33.2106 312.674 33.5582C313.291 33.9059 313.756 34.4444 314.07 35.1737C314.385 35.903 314.551 36.8276 314.571 37.9476L314.694 45.0158L311.071 45.079L310.95 38.1698C310.941 37.622 310.867 37.1799 310.729 36.8433C310.591 36.5068 310.389 36.2614 310.124 36.107C309.858 35.9527 309.521 35.8791 309.114 35.8862C308.613 35.895 308.176 36.0111 307.801 36.2345C307.427 36.458 307.14 36.7707 306.941 37.1727C306.742 37.5748 306.647 38.0431 306.656 38.5776L306.771 45.1541L303.148 45.2173ZM317.192 44.9722L317.125 41.1256L321.018 41.0576L321.085 44.9042L317.192 44.9722ZM330.631 44.7376L330.336 27.8202L341.928 27.6178L341.979 30.5315L333.955 30.6716L334.024 34.6278L341.513 34.4971L341.564 37.4107L334.074 37.5415L334.148 41.7617L342.173 41.6216L342.224 44.5353L330.631 44.7376ZM349.292 44.667C348.601 44.679 347.935 44.6371 347.295 44.5413C346.654 44.4455 346.068 44.3047 345.535 44.119C345.002 43.9333 344.531 43.6995 344.122 43.4176L344.947 41.0515C345.351 41.2804 345.793 41.4829 346.272 41.6591C346.752 41.8352 347.248 41.9681 347.761 42.0576C348.273 42.1472 348.775 42.1877 349.265 42.1792C349.947 42.1673 350.446 42.0491 350.761 41.8247C351.075 41.6003 351.229 41.3122 351.223 40.9604C351.218 40.6526 351.108 40.4193 350.895 40.2606C350.682 40.1019 350.374 39.9906 349.972 39.9266L347.437 39.5223C346.442 39.3577 345.674 39.0071 345.132 38.4704C344.59 37.9338 344.311 37.229 344.296 36.3561C344.282 35.5581 344.493 34.8653 344.929 34.2775C345.366 33.6898 345.976 33.2308 346.76 32.9005C347.544 32.5702 348.446 32.3962 349.467 32.3784C350.032 32.3685 350.588 32.407 351.135 32.494C351.683 32.5809 352.204 32.7163 352.699 32.9002C353.194 33.0841 353.636 33.3301 354.023 33.6384L353.135 35.9831C352.827 35.7525 352.467 35.5538 352.054 35.387C351.641 35.2202 351.218 35.0898 350.784 34.9959C350.351 34.902 349.942 34.8583 349.557 34.8651C348.834 34.8777 348.312 34.999 347.993 35.229C347.673 35.459 347.517 35.7554 347.523 36.1181C347.528 36.3839 347.625 36.6071 347.814 36.7877C348.004 36.9684 348.291 37.0878 348.676 37.1461L351.211 37.5504C352.249 37.7143 353.044 38.0524 353.597 38.5649C354.15 39.0773 354.434 39.778 354.449 40.667C354.464 41.4909 354.259 42.1979 353.836 42.788C353.412 43.378 352.811 43.8341 352.032 44.1563C351.253 44.4784 350.34 44.6487 349.292 44.667ZM362.316 44.4396C361.039 44.4619 359.921 44.2306 358.963 43.7458C358.005 43.2609 357.259 42.5579 356.724 41.6366C356.189 40.7152 355.911 39.6257 355.889 38.3678C355.867 37.105 356.107 36.0134 356.61 35.0929C357.112 34.1725 357.834 33.4588 358.775 32.9518C359.716 32.4448 360.825 32.1801 362.102 32.1578C362.868 32.1444 363.633 32.2449 364.396 32.4591C365.158 32.6732 365.785 32.9821 366.277 33.3855L365.305 35.9043C364.914 35.5832 364.464 35.3361 363.956 35.1629C363.448 34.9898 362.964 34.9072 362.504 34.9153C361.559 34.9317 360.834 35.2346 360.329 35.8239C359.824 36.4131 359.581 37.245 359.6 38.3195C359.618 39.3781 359.89 40.2052 360.416 40.801C360.942 41.3967 361.677 41.6863 362.622 41.6698C363.071 41.662 363.549 41.5627 364.056 41.3718C364.563 41.1809 365.007 40.9127 365.387 40.5672L366.446 43.067C365.968 43.4713 365.349 43.7979 364.59 44.0467C363.83 44.2954 363.072 44.4264 362.316 44.4396ZM373.482 44.2447C372.219 44.2668 371.116 44.038 370.172 43.5584C369.228 43.0788 368.489 42.3811 367.955 41.4655C367.42 40.5498 367.142 39.463 367.12 38.205C367.098 36.942 367.338 35.8475 367.84 34.9216C368.343 33.9957 369.057 33.2766 369.984 32.7644C370.911 32.2521 372.005 31.985 373.267 31.9629C374.535 31.9408 375.639 32.1696 376.58 32.6492C377.522 33.1289 378.26 33.8236 378.794 34.7336C379.329 35.6435 379.607 36.7278 379.629 37.9864C379.651 39.2445 379.411 40.3404 378.908 41.2742C378.406 42.208 377.693 42.931 376.769 43.4432C375.845 43.9554 374.749 44.2226 373.482 44.2447ZM373.429 41.5367C374.208 41.5231 374.834 41.2295 375.305 40.6559C375.776 40.0823 376.002 39.2109 375.981 38.0418C375.961 36.8728 375.705 36.0153 375.214 35.4695C374.723 34.9236 374.088 34.6575 373.309 34.6711C372.537 34.6846 371.915 34.9726 371.444 35.5353C370.972 36.0979 370.747 36.9638 370.767 38.1329C370.787 39.3019 371.043 40.1649 371.534 40.7217C372.025 41.2785 372.657 41.5502 373.429 41.5367ZM387.691 48.3174C386.563 48.3371 385.501 48.2366 384.505 48.016C383.509 47.7953 382.641 47.4379 381.902 46.9438L382.836 44.4407C383.273 44.701 383.748 44.9217 384.26 45.1028C384.771 45.2839 385.289 45.4166 385.813 45.501C386.336 45.5853 386.839 45.6233 387.321 45.6149C388.353 45.5969 389.12 45.351 389.623 44.8773C390.125 44.4036 390.368 43.6924 390.352 42.7437L390.32 40.9073L390.528 40.9036C390.296 41.6536 389.811 42.2641 389.071 42.735C388.332 43.2059 387.505 43.4493 386.59 43.4653C385.539 43.4836 384.616 43.2557 383.821 42.7815C383.027 42.3073 382.404 41.6328 381.954 40.758C381.504 39.8832 381.269 38.8594 381.249 37.6866C381.228 36.5087 381.428 35.4776 381.847 34.5931C382.266 33.7087 382.864 33.0156 383.642 32.514C384.42 32.0123 385.334 31.7523 386.385 31.734C387.332 31.7174 388.174 31.9305 388.911 32.3731C389.647 32.8158 390.137 33.4024 390.378 34.1332L390.194 34.1364L390.155 31.9232L393.692 31.8615L393.873 42.262C393.896 43.576 393.675 44.6801 393.21 45.5744C392.745 46.4687 392.049 47.1435 391.122 47.5988C390.194 48.0541 389.051 48.2936 387.691 48.3174ZM387.614 40.7385C388.427 40.7243 389.069 40.4332 389.54 39.865C390.012 39.2969 390.239 38.5185 390.222 37.53C390.204 36.5414 389.95 35.7729 389.459 35.2246C388.968 34.6762 388.317 34.4092 387.504 34.4233C386.691 34.4375 386.049 34.7272 385.578 35.2923C385.106 35.8575 384.879 36.6343 384.896 37.6229C384.913 38.6115 385.168 39.3815 385.659 39.9328C386.15 40.4841 386.802 40.7527 387.614 40.7385ZM402.82 43.7326C401.437 43.7568 400.24 43.5271 399.229 43.0437C398.218 42.5602 397.434 41.8635 396.878 40.9536C396.322 40.0436 396.033 38.9622 396.011 37.7094C395.99 36.4936 396.231 35.4227 396.734 34.4968C397.237 33.5709 397.94 32.8387 398.844 32.3004C399.748 31.762 400.783 31.4826 401.949 31.4623C403.104 31.4421 404.102 31.6698 404.943 32.1452C405.784 32.6206 406.441 33.303 406.914 34.1924C407.387 35.0819 407.634 36.142 407.656 37.3728L407.672 38.2833L399.012 38.4344L398.98 36.5639L405.024 36.4584L404.653 36.7948C404.636 35.8172 404.411 35.0803 403.977 34.5839C403.543 34.0876 402.934 33.8463 402.148 33.86C401.562 33.8703 401.061 34.015 400.646 34.2942C400.232 34.5733 399.919 34.97 399.707 35.4841C399.496 35.9983 399.396 36.6197 399.409 37.3485L399.412 37.5315C399.427 38.3512 399.562 39.0206 399.818 39.5396C400.074 40.0586 400.456 40.4388 400.964 40.6804C401.472 40.922 402.101 41.0363 402.851 41.0232C403.487 41.0121 404.132 40.9045 404.787 40.7006C405.442 40.4967 406.031 40.1941 406.553 39.7931L407.548 42.183C406.971 42.6421 406.253 43.0114 405.395 43.2909C404.536 43.5704 403.678 43.7176 402.82 43.7326ZM420.543 43.4233C419.665 43.4386 418.882 43.2857 418.195 42.9647C417.508 42.6436 416.967 42.2002 416.574 41.6344C416.18 41.0687 415.977 40.4238 415.965 39.6999C415.95 38.836 416.162 38.1495 416.601 37.6403C417.04 37.131 417.759 36.7569 418.758 36.5179C419.757 36.279 421.092 36.1449 422.763 36.1158L424.022 36.0938L424.055 37.9643L422.804 37.9862C422.193 37.9968 421.673 38.0327 421.244 38.0936C420.816 38.1546 420.468 38.2437 420.201 38.3609C419.933 38.478 419.741 38.6291 419.623 38.8141C419.505 38.9992 419.449 39.2211 419.453 39.48C419.461 39.9327 419.625 40.3005 419.946 40.5834C420.266 40.8662 420.716 41.0025 421.297 40.9924C421.76 40.9843 422.17 40.8707 422.526 40.6515C422.883 40.4324 423.165 40.1337 423.374 39.7557C423.582 39.3776 423.682 38.9437 423.674 38.4539L423.625 35.6868C423.613 34.9922 423.444 34.5005 423.117 34.2118C422.789 33.9231 422.238 33.7855 421.461 33.7991C420.825 33.8102 420.154 33.9194 419.447 34.1268C418.739 34.3342 418.038 34.6469 417.341 35.0651L416.322 32.6667C416.733 32.3715 417.233 32.1094 417.822 31.8806C418.411 31.6518 419.036 31.4704 419.696 31.3363C420.355 31.2023 420.975 31.1302 421.555 31.1201C422.787 31.0986 423.805 31.2631 424.608 31.6137C425.41 31.9642 426.016 32.5083 426.425 33.2459C426.833 33.9834 427.047 34.9347 427.068 36.0996L427.189 43.0522L423.81 43.1112L423.769 40.7433L423.938 40.7404C423.851 41.2769 423.655 41.7431 423.352 42.1389C423.048 42.5347 422.659 42.845 422.184 43.0698C421.71 43.2946 421.162 43.4125 420.543 43.4233ZM442.377 43.0422C440.699 43.0714 439.445 42.6887 438.616 41.894C437.786 41.0993 437.357 39.9075 437.33 38.3185L437.251 33.7936L435.017 33.8326L434.97 31.141L437.204 31.102L437.143 27.6361L440.766 27.5729L440.827 31.0388L444.288 30.9783L444.335 33.6699L440.874 33.7304L440.95 38.1024C440.962 38.78 441.125 39.2831 441.439 39.6116C441.754 39.94 442.252 40.0983 442.933 40.0864C443.142 40.0827 443.364 40.0534 443.598 39.9983C443.832 39.9432 444.086 39.8788 444.361 39.8049L444.923 42.432C444.598 42.6128 444.204 42.7577 443.741 42.8668C443.278 42.9759 442.823 43.0344 442.377 43.0422ZM450.62 42.8983C449.625 42.9156 448.798 42.7463 448.142 42.3902C447.486 42.034 446.993 41.49 446.663 40.7579C446.333 40.0259 446.158 39.1065 446.139 37.9999L446.016 30.9482L449.639 30.8849L449.764 38.0147C449.772 38.4785 449.842 38.8657 449.974 39.1764C450.106 39.4872 450.309 39.7168 450.583 39.8654C450.857 40.014 451.199 40.0847 451.611 40.0775C452.075 40.0694 452.48 39.9533 452.827 39.7293C453.173 39.5053 453.444 39.1915 453.639 38.788C453.834 38.3844 453.927 37.9155 453.917 37.3812L453.803 30.8123L457.426 30.749L457.632 42.5208L454.095 42.5825L454.055 40.2777L454.413 40.2715C454.082 41.1013 453.593 41.7426 452.945 42.1954C452.298 42.6482 451.523 42.8825 450.62 42.8983Z" fill="#0B0B0D"/>
<path d="M37.8191 78.6524L37.6136 66.8806L41.15 66.8188L41.2001 69.688L40.9601 69.6922C41.1322 68.729 41.5392 67.9823 42.181 67.452C42.8229 66.9217 43.682 66.6096 44.7586 66.5158L45.7968 66.4182L46.0646 69.4691L44.0472 69.7025C43.138 69.8043 42.4657 70.0835 42.0302 70.5401C41.5947 70.9966 41.3843 71.6457 41.399 72.4874L41.5055 78.588L37.8191 78.6524ZM47.3058 64.4241L47.2468 61.0455L51.1625 60.9772L51.2215 64.3557L47.3058 64.4241ZM47.7056 78.4798L47.5001 66.708L51.1235 66.6447L51.329 78.4165L47.7056 78.4798ZM59.9221 78.5216C58.2441 78.5509 56.9903 78.1682 56.1607 77.3735C55.3311 76.5788 54.9024 75.387 54.8747 73.798L54.7957 69.2731L52.5626 69.3121L52.5156 66.6204L54.7487 66.5815L54.6882 63.1156L58.3116 63.0523L58.3721 66.5182L61.8334 66.4578L61.8804 69.1494L58.4191 69.2098L58.4954 73.5818C58.5073 74.2595 58.6703 74.7626 58.9845 75.091C59.2987 75.4195 59.7967 75.5778 60.4784 75.5659C60.6873 75.5622 60.9088 75.5328 61.1429 75.4778C61.377 75.4227 61.6314 75.3582 61.9062 75.2844L62.4683 77.9115C62.1433 78.0922 61.7492 78.2372 61.286 78.3463C60.8227 78.4554 60.3681 78.5138 59.9221 78.5216ZM63.8791 78.1975L63.6736 66.4257L67.21 66.364L67.2486 68.5728L66.9846 68.5774C67.1887 68.0648 67.4715 67.6221 67.8331 67.2493C68.1946 66.8765 68.6284 66.5854 69.1343 66.3761C69.6402 66.1667 70.2001 66.0567 70.814 66.046C71.7178 66.0302 72.4786 66.2334 73.0966 66.6557C73.7146 67.0779 74.1613 67.7332 74.4369 68.6214L74.101 68.6273C74.4317 67.8034 74.9597 67.1499 75.6848 66.6667C76.41 66.1836 77.24 65.9338 78.1748 65.9175C79.0807 65.9017 79.8312 66.0684 80.4264 66.4175C81.0216 66.7667 81.4708 67.3048 81.7741 68.0316C82.0773 68.7585 82.2387 69.6834 82.2583 70.8063L82.3817 77.8745L78.7583 77.9378L78.637 70.9895C78.6231 70.1939 78.4876 69.6178 78.2305 69.2614C77.9733 68.905 77.5454 68.732 76.9467 68.7424C76.4999 68.7502 76.1128 68.8659 75.7853 69.0896C75.4577 69.3133 75.2126 69.6323 75.0499 70.0466C74.8872 70.4608 74.811 70.9634 74.8213 71.5541L74.9339 78.0045L71.3105 78.0678L71.1892 71.1195C71.1753 70.3239 71.0398 69.7478 70.7826 69.3914C70.5255 69.035 70.1031 68.8619 69.5154 68.8721C69.0576 68.8801 68.6677 68.9959 68.3457 69.2195C68.0236 69.4431 67.7813 69.762 67.6185 70.1763C67.4558 70.5906 67.3796 71.0931 67.3899 71.6838L67.5025 78.1342L63.8791 78.1975ZM90.8277 77.9822C89.5654 78.0042 88.4623 77.7754 87.5184 77.2958C86.5745 76.8162 85.8352 76.1186 85.3006 75.2029C84.766 74.2873 84.4877 73.2005 84.4657 71.9425C84.4437 70.6794 84.6839 69.585 85.1863 68.6591C85.6888 67.7331 86.4034 67.0141 87.33 66.5018C88.2566 65.9896 89.351 65.7224 90.6133 65.7004C91.8806 65.6783 92.9849 65.907 93.9264 66.3867C94.8678 66.8663 95.6058 67.5611 96.1403 68.471C96.6748 69.3809 96.953 70.4652 96.975 71.7239C96.997 72.9819 96.7568 74.0779 96.2544 75.0117C95.7521 75.9455 95.0389 76.6685 94.1148 77.1807C93.1907 77.6929 92.095 77.96 90.8277 77.9822ZM90.7746 75.2742C91.5541 75.2606 92.1795 74.967 92.6509 74.3933C93.1224 73.8197 93.3479 72.9484 93.3275 71.7793C93.307 70.6102 93.0514 69.7527 92.5604 69.2069C92.0695 68.6611 91.4342 68.395 90.6548 68.4086C89.883 68.422 89.2614 68.7101 88.7898 69.2727C88.3182 69.8354 88.0926 70.7012 88.113 71.8703C88.1334 73.0394 88.3892 73.9023 88.8803 74.4592C89.3714 75.016 90.0029 75.2876 90.7746 75.2742ZM98.7039 77.5896L98.6367 73.743L102.53 73.675L102.597 77.5217L98.7039 77.5896Z" fill="#0B0B0D"/>
<mask id="path-5-inside-1_370_330" fill="white">
<path d="M64.5801 88.0073L81.8464 104.681L65.1775 121.942L47.9112 105.268L64.5801 88.0073Z"/>
</mask>
<path d="M64.5801 88.0073L81.8464 104.681L65.1775 121.942L47.9112 105.268L64.5801 88.0073Z" fill="#F7F1E3"/>
<path d="M65.1775 121.942L62.3989 124.82L65.2762 127.598L68.0549 124.721L65.1775 121.942ZM81.8464 104.681L78.969 101.903L62.3001 119.164L65.1775 121.942L68.0549 124.721L84.7237 107.46L81.8464 104.681ZM65.1775 121.942L67.9561 119.065L50.6899 102.391L47.9112 105.268L45.1326 108.146L62.3989 124.82L65.1775 121.942Z" fill="#0B0B0D" mask="url(#path-5-inside-1_370_330)"/>
</g>
<defs>
<filter id="filter0_d_370_330" x="15.1797" y="0" width="479.631" height="127.942" filterUnits="userSpaceOnUse" color-interpolation-filters="sRGB">
<feFlood flood-opacity="0" result="BackgroundImageFix"/>
<feColorMatrix in="SourceAlpha" type="matrix" values="0 0 0 0 0 0 0 0 0 0 0 0 0 0 0 0 0 0 127 0" result="hardAlpha"/>
<feOffset dx="6" dy="6"/>
<feComposite in2="hardAlpha" operator="out"/>
<feColorMatrix type="matrix" values="0 0 0 0 0 0 0 0 0 0 0 0 0 0 0 0 0 0 1 0"/>
<feBlend mode="normal" in2="BackgroundImageFix" result="effect1_dropShadow_370_330"/>
<feBlend mode="normal" in="SourceGraphic" in2="effect1_dropShadow_370_330" result="shape"/>
</filter>
</defs>
</svg>
