<?xml version="1.0" encoding="UTF-8"?>
<svg id="Capa_2" data-name="Capa 2" xmlns="http://www.w3.org/2000/svg" viewBox="0 0 1385.95 214.23">
  <defs>
    <style>
      .cls-1 {
        fill: #8a363c;
      }

      .cls-2 {
        fill: #ebaa6f;
      }

      .cls-3 {
        fill: #ecbe95;
      }

      .cls-4 {
        fill: #f3b564;
      }

      .cls-5 {
        fill: #c8c9c9;
      }

      .cls-5, .cls-6 {
        stroke: #000;
        stroke-miterlimit: 10;
        stroke-width: 3px;
      }

      .cls-6 {
        fill: #68ceec;
      }

      .cls-7 {
        fill: #e97f99;
      }

      .cls-8 {
        fill: #5e3c22;
      }

      .cls-9 {
        fill: #e1718c;
      }

      .cls-10 {
        fill: #883a1e;
      }
    </style>
  </defs>
  <g id="Capa_1-2" data-name="Capa 1">
    <g>
      <path class="cls-6" d="M1322.39,128.54c15.05.7,13.06,46.55,8.24,52.33-2.47,2.96-3.89,3.64-8.15,4.26l-1049.21,1.8c-7.77.01-12.9-4.48-13.35-10.38-1.03-13.61-1.28-26.88.5-40.47.57-4.36,6.11-5.36,8.19-7.83l1.94-1.94c350.14-.2,700.27-.08,1050.39.36l1.43,1.86Z"/>
      <path class="cls-5" d="M1374.7,186.04c-18.59,1.2-35.53-1.01-52.22-.98,9.12-4.4,8.76-39.64,4.59-50.42-1.27-3.28-4.65-5.31-4.68-8.42l50.25.23c6.49.03,11.64,4.99,11.67,11.31l.14,36.26c.02,6.05-4.18,11.66-9.75,12.02Z"/>
      <g>
        <path class="cls-3" d="M112.02,213.75l-84.96.46-1.2-3.43c15.55-34.65,12.01-61-11.94-89.12C-45.65-3.47,165.81-51.38,164.72,86.11c1.99,9.16,6.55,17.55,13.68,25.18,5.6,7.25,2.36,13.41-9.7,18.49-.45,10.3-2.42,20.34-5.92,30.11,1.76,14.35-2.6,22.54-13.09,24.58l-28.6-1.22c-3.02,10.57-6.04,20.74-9.07,30.5Z"/>
        <path class="cls-8" d="M112.02,213.75c-.98-10.04,2.95-19.78,5.41-30.24-10.1,0-40.06-16.64-29.34-25.96,10.25,20.62,44.8,25.65,62.5,23.93,12.49-1.21,6.92-16.78,9.06-23.27,3.3-9.99,6.3-19.46,4.56-30.38,5.04-3.61,10.39-3.98,14.47-8.44-8.04-21.14-17.66-16.23-16.76-40.89.6-16.43-4.94-33.91-15.42-46.77-15.31-18.8-38.51-26.1-62.55-25.81C49.22,6.34,19.65,26.81,9.28,60.16c-7.94,25.54-.25,52.23,15.76,73.54,7.41,9.87,13.87,20,13.34,32.75-.7,16.77-4.24,33.38-11.31,47.76-3.14.23-4.56-1.54-3.8-3.73,9.81-28.4,15.56-49.75-2.25-72.83C6.39,118.72-2.64,95.65.69,71.63,7.49,22.61,53.53-6.55,101.57,1.26c39.99,6.5,68.06,37.37,65.68,78.63-1.24,21.45,15.37,23.09,17.32,39.88.84,7.26-9.94,7.63-12.25,11.16-1.61,25.35-6.68,18.77-6.68,38.96,0,11.09-8,17.88-18.88,17.59-8-.22-15.5-1.99-23.24-1.04-8.02,13.21-2.69,27.27-11.5,27.32Z"/>
        <g>
          <path class="cls-1" d="M62.12,136.77c-3.27-6.09.47-11.11.11-18.16-16.92,4.19-23.67-7-32.08-15.27-8.95-8.8-11.17-13.38-10.95-26,.17-9.68,2.53-15.94,6.74-24.76,4.47-9.36,8.59-13.73,16.43-20.08,8.61-6.97,14.68-9.68,25.78-11.89,8.37-1.66,18.75-9.3,26.36,2.41,11.55-6.29,20.27,1.29,29.04,6.52s13.32,9.16,18.19,17.21c5.79,9.56,8.89,16.38,5.41,27.37s-15.62,11.24-23.38,17.37c-9.57,7.56-13.2,18.92-29.93,17.7-8.16,3.32-13.2,19-17.76,26.95-2.23,3.88-12.06,4.18-13.96.64Z"/>
          <path class="cls-7" d="M88.04,105.49c-5.27,1.54-6.02-.82-4-5.74-1.64-2.26-1.29-5.11,1.06-8.52-4.71-9.71-1.36-19.27,10.03-28.7,9.01-21.3-17.33-29-28.73-9.54-2.74,4.67.74,5.4,4.8,4.68,19.4-24.31,25.01-1.52,7.22,14.73l.03,11.68c.26,6.46-1.88,9.74-6.41,9.84,5.37,7.8-15.92,10.58-10.58.43-17.31-18.32-15.34,12.48-31.64,1.63-7.07-4.71-4.62-11.43-3.99-18.79.51-6-4.07-15.11,4.31-18.81,4.79-2.12,7.39,4.53,9.25,10,6.5-6.34-1.15-10.58-5.22-14.78-4.32-4.45,1.85-10.98,5.39-12.9,4.76-2.58,10.12-2.18,15.13,1.16,3.28-4.91-3.55-4.97-4.31-7.49-1.36-4.55,6.68-6.61,10.21-7.46,5.42-1.31,8.2,2.85,13.58,6.77,1.11-3.29-2.52-4.64-1.95-7.79,2.97-4.21,7.54-4.58,12.46-4.3,3.67.22,6.13,3.93,9.26,7.97,7.91-5.06,18.54-5.17,22.39,2.6-3.94,2.68-8.26,3.33-6.31,7.7,5.14-3.59,10.86-6.03,16.17-3.44,3.04,1.48,8.28,4.13,7.81,9.45-7.38.96-14.51,3.97-12.51,12.13,4.36-3.5,5.78-8.28,10.23-7.86,3.99.37,7.96,2.14,10.14,6.03,4.21,7.52,3.78,16.41-3.01,22.35-4.21,3.68-13.43,9.5-19.23,4.58-3.66-3.11-4.72-10.12-11.06-7.15,4.64,4.88,8.49,9.07,7.67,14.64-2.21,15.02-20.19,12.16-28.2,14.92Z"/>
          <path class="cls-9" d="M61.46,94.33c1.07,1.48,2.73,3.56,4.65,2.52,1.78-.96,5.26-1.18,5.93-2.95,4.13-3.16,10.16,1.57,12,5.84,1.56,1.75,3.02,3.61,4,5.74-7.49,7.74-15.46,33.15-21.61,28.45-3.18-2.43,3.01-15.48,1-21.84-11.33,4.14-24.66,3.59-30.17-9.28l13.27-8.05c3.17-1.92,7.92.3,10.93-.43Z"/>
          <g>
            <path class="cls-10" d="M84.04,99.74c-4.9.48-8.74-2.47-12-5.84,2.25-5.99,3.04-11.5,2.05-18.43-1.34-9.43,13.95-16.3,11.5-22.83-3.47-9.21-6.66,8.89-14.95,9.16-3.11.1-8.68-.1-8.89-4.77-.37-8.56,7.58-16.3,14.43-18.27,7.9-2.28,16.93-.47,22.14,6.16,5.91,7.52,3.58,17.26-3.1,23.86-20.96,20.71,3.7,16.46-11.18,30.96Z"/>
            <path class="cls-4" d="M78.39,71.41c2.98-5.4,8.15-7.86,10.32-12.68,1.83-4.06.89-8.64-2.65-10.4-10.83-5.38-14.2,17.77-19.51,8.3-2.53-4.5,2.7-9.91,5.54-12.34,3.92-3.36,10.36-3.93,15.59-2.39s8.74,5.5,9.94,9.2c4.13,12.68-9.93,14.99-15.91,30.47-4.08.11-5.74-5.76-3.32-10.17Z"/>
            <path class="cls-2" d="M77.96,88.56c2.4-2.71,5.34-1.2,6.58.92.72,1.23.39,3.05-.93,4.87-1.09,1.51-4.09,1.47-5.48.15-1.08-1.02-2.37-3.46-.17-5.94Z"/>
          </g>
        </g>
      </g>
    </g>
  </g>
</svg>