<?xml version="1.0" encoding="UTF-8"?>
<svg id="Capa_2" data-name="Capa 2" xmlns="http://www.w3.org/2000/svg" viewBox="0 0 776.2 905.03">
  <defs>
    <style>
      .cls-1 {
        fill: #1e0201;
      }

      .cls-2 {
        fill: #200302;
      }

      .cls-3 {
        fill: #1c0101;
      }

      .cls-4 {
        fill: #010101;
      }

      .cls-5 {
        fill: #1b0202;
      }

      .cls-6 {
        fill: #e9edf0;
      }

      .cls-7 {
        fill: #e1e7ea;
      }

      .cls-8 {
        fill: #1d0201;
      }

      .cls-9 {
        fill: #f6f6f6;
      }

      .cls-10 {
        fill: #160101;
      }

      .cls-11 {
        fill: #1d0101;
      }

      .cls-12 {
        fill: #dee7e9;
      }

      .cls-13 {
        fill: #200101;
      }

      .cls-14 {
        fill: #dae0e3;
      }

      .cls-15 {
        fill: #130000;
      }

      .cls-16 {
        fill: #1f0201;
      }

      .cls-17 {
        fill: #e2e6e9;
      }

      .cls-18 {
        fill: #1f0101;
      }

      .cls-19 {
        fill: #1c0202;
      }

      .cls-20 {
        fill: #240403;
      }

      .cls-21 {
        fill: #e4ebf0;
      }

      .cls-22 {
        fill: #1d0202;
      }

      .cls-23 {
        fill: #050202;
      }

      .cls-24 {
        fill: #e8edef;
      }

      .cls-25 {
        fill: #f9f9f9;
      }

      .cls-26 {
        fill: #180000;
      }

      .cls-27 {
        fill: #dfe8ec;
      }

      .cls-28 {
        fill: #310504;
      }

      .cls-29 {
        fill: #170102;
      }

      .cls-30 {
        fill: #200201;
      }

      .cls-31 {
        fill: #843836;
      }

      .cls-32 {
        fill: #250202;
      }

      .cls-33 {
        fill: #1e0202;
      }

      .cls-34 {
        fill: #210202;
      }

      .cls-35 {
        fill: #dce2e4;
      }

      .cls-36 {
        fill: #240201;
      }

      .cls-37 {
        fill: #e8edf0;
      }

      .cls-38 {
        fill: #dee8ea;
      }

      .cls-39 {
        fill: #220303;
      }

      .cls-40 {
        fill: #020101;
      }

      .cls-41 {
        fill: #260403;
      }

      .cls-42 {
        fill: #fefefe;
      }

      .cls-43 {
        fill: #dee6e9;
      }

      .cls-44 {
        fill: #dcdfe0;
      }

      .cls-45 {
        fill: #230302;
      }

      .cls-46 {
        fill: #cc362b;
      }

      .cls-47 {
        fill: #fdfdfd;
      }

      .cls-48 {
        fill: #340604;
      }

      .cls-49 {
        fill: #1c0201;
      }
    </style>
  </defs>
  <g id="Capa_1-2" data-name="Capa 1">
    <g>
      <g>
        <path class="cls-4" d="M662.24,865.4c-6.88,11.37-17.03,20.49-30.87,21.88-12.21,1.23-22.78-1.51-31.93-9.39-6.26-5.39-13.35-13.59-13.25-21.72-.94-4.58-.76-9.39,0-14,.35-1.01.69-3,1-4l2-5c1.41-1.62,2.6-4.68,4.13-6,2.21-4.83,4.76-7.45,7.67-7.87.63-2.79,6.49-4.97,9.51-5.25,1.22-1.53,3.77-2.28,5.8-1.85,16.31-2.85,51.13,8.66,48.21,34.18-.71,6.21,1.34,13.05-2.28,19.03Z"/>
        <path class="cls-42" d="M635.09,874.15c-10.48,3.4-20.6,1.02-27.82-5.62-7.31-6.72-11.37-16.76-8.17-26.86,3.71-11.7,14.93-18.91,26.61-18.89,11.66.03,23.26,6.85,27.1,18.46,4.62,13.97-3.71,28.36-17.72,32.91Z"/>
      </g>
      <g>
        <path class="cls-39" d="M686.2,856.16c3.48-1.03,6.82-.99,10,.12,9.5,2.8,17.34,10.58,18.76,19.8,1.69,10.93-3.4,19.86-11.77,25.97-2.99.05-6.12,2.46-9.14,2.8-13.86,1.58-24.84-7.48-26.85-19.69.3-.87.65-.86,1.05,0l2.27.93c18.72,40.07,65.59-8.51,24.8-25.65l-1.06-2.27c-2.29-1.01-4.82-.79-7.15-.1-.89,2.73-5.03,4.57-6.86,1.84-.94.62-1.64.68-2.1.18,1.38-.65,2.58-2.32,4.15-2.72,1.14-.29,2.7-1.39,3.89-1.21Z"/>
        <path class="cls-22" d="M678.15,860.09l2.1-.18-.14,2.6c-6.47,4.97-11.18,12.28-10.15,20.68l-1.71,1.97h-1.05c-1.59-9.68,1.06-20.42,10.96-25.07Z"/>
        <path class="cls-40" d="M687.11,858.07c2.31-.7,4.89-.92,7.15.1,6.22,1.12,12.32,5,16.01,10.91,5.84,9.34,2.97,21.62-5.2,29.05-6.3,5.72-14.78,6.46-23.3,3.3-6.08-2.26-12.01-8.62-13.52-16.26-2.07-10.5,3.62-19.27,12.01-25.25,2.34-.2,4.49-2.04,6.86-1.84Z"/>
        <path class="cls-22" d="M694.26,858.17c-2.27-.41-4.84.1-7.15-.1,1.83-1.54,5.39-1.54,7.15.1Z"/>
        <path class="cls-47" d="M679.36,888.37c-4.99-6.29-3.51-14.75,2.48-19.56s15.1-4.04,19.89,1.42c5.51,6.27,4.71,15.55-1.43,20.51s-15.34,4.69-20.95-2.36Z"/>
      </g>
      <g>
        <path class="cls-19" d="M757.25,884.58c.49,5.89-1.22,10.57-4.48,13.7-3.65,3.5-8.18,4.52-13.86,3.92-7.79-.82-13.18-8.81-12.65-16.5s7.13-14.02,14.6-14.38,15.67,4.47,16.39,13.26Z"/>
        <path class="cls-23" d="M750.83,876.96c2.78,2.68,4.95,5.52,5.18,8.8.25,3.59-1.54,7.04-3.74,9.95-4.77,6.32-13.24,6.4-18.6,2.32-6.61-5.04-7.46-13.44-2.34-19.6,5.19-6.24,13.38-7.36,19.51-1.46Z"/>
        <path class="cls-25" d="M738.99,880.78c4.05-1.85,7.95-.29,9.45,3.36,1.16,2.82.07,6.73-3.22,8.33-2.98,1.45-6.93.55-8.93-2.69-1.58-2.56-1.21-7.21,2.7-8.99Z"/>
      </g>
      <g>
        <path class="cls-4" d="M423.2,16.16c4.23,3.1,9.31,5.03,14.27,7.61,10.52,5.49,21.56,12.88,30.15,21.04l12.78,12.15,15.78,19.09c2.23.96,4.57.66,7.02-.9,1.3-2.02,4.64-1.7,6-3,2.24-.58,4.24-1.58,6-3,12.57-6.38,18.41-4.7,21.91-6.09,5.71-.77,11.41-.74,17.09.09h1l5.08,1.01c6.96.91,12.97,3.58,18.9,7.97,6.73,4.99,14.13,9.45,17.95,17.12l9.87,19.76,23.21.36c7.6.12,15.05,1.88,21.99,3.78,10.94,3,20.99,9.15,31.14,13.96.64,1.98,3.17,2.55,4.81,3.94,5.92,4.99,11.4,9.96,16.23,15.95,11.56,14.32,18.95,30.75,22.81,48.16,1.6,10.36,2.28,20.71,2.02,31.05-1.67.74,1.24,9.03-1.02,11.95l-1,7c0,.33-.02.67,0,1-2.2,5.13-2.81,10.19-1.83,15.16.61.6.4,2.18,1.63,2.96,11.78,7.41,19.45,18.37,25.76,30.33,3.55,6.74,7.58,12.94,9.54,20.46.42,1.6.25,3.82,1.86,4.18-.07,6.35,14.14,30.06,7.92,75.82-.24,3.57-.87,6.96-1.89,10.17-.47,2.18-.96,4.88-1.91,6.89l-4.08,15.13c-1.75,3.6-3.78,8.18-4.99,11.86l-2.04,4.12c-2.46,4.72-5.12,9.36-7.9,13.9-1.94,3.18-2.01,6.33-2.08,10.03-.39,10.44-2.06,20.77-5,31v1c-3.01.74-2.07,10.45-7.01,18.91-1.06,1.82-2.59,3.2-1.91,5.19l-12.14,20.9c-3.98,6.85-27.18,29.85-33.72,35.16-2.6,2.11-2.68,4.36-1.55,7.22l7.33,18.63c1.71,4.33,7.03,31.86,6.97,34.08-.32,13.07.74,25.68-.41,38.61-2.06,23.04-9.19,43.95-18.56,64.31-2.47,5.37-7.29,10.01-10.46,15.4-4.16,7.06-9.08,13.04-14.49,18.61-1.33.64-2.35,1.65-3.07,3.01-.51.64-.92,1.36-1.16,2.15-9.51,7.26-20.72,18.42-32.25,24.2-4.87,2.44-9.68,5.34-13.56,8.63-12.92,3.14-25.16,9.35-38.96,10.8-26.75,2.81-27.21,1.35-52.73-2.25-3.27-.46-8.75-3.68-11.61-.81-11.07,11.08-9.42,11.92-22.89,23.44-24.37,20.84-52.64,37.05-83.81,43.83l-6,1c-2.37,1.26-5.45.94-8,1l-12,2h-9c-5.75.84-12.2.8-18,0-.66,0-1.35.08-2,0-3.93-.37-7.93-.7-12-1-1.08-.65-2.96.16-4-1l-7-1c-14.11-2.14-28.13-6.72-40.95-13.06-5.4-2.67-27.34-15.12-32.1-18.79-3.08-2.38-5.94-4.13-8.89-5.91-3.16-1.91-5.65-5.4-8.16-8.04-1.95-1.44-3.64-3.17-5.07-5.17-1.95-.54-3.29-2.18-4.96-3.9-7.99-8.22-6.87-1.11-16.87-2.12l-8,1c-.32.05-.67.01-1,0-10.65,1.18-21.54.66-32-1-6.66.5-13.25-2.1-20.13-3.75-11.51-2.76-22.17-6.87-32.41-12.5l-12.37-6.8c-17.91-9.84-33.96-26.72-45.68-43.43-4.16-5.93-8.06-11.23-11.32-17.77l-6.91-13.83c-6.88-13.77-11.8-39.11-12.59-55.82-1.41-29.74,9.74-79.29,26.83-101.51l13.55-17.62c2.06-2.27,3.12-4.73,3.18-7.41-20.03-14.5-34.85-30.86-48.21-51.78-.41-.64-.61-1.18-.16-1.93-.74-.16-1.29-.65-1.67-1.3-10.12-17.06-13.19-50.88-9.1-69.56-.5-2.88,4.19-16.27,5.48-20.22,4.53-13.87,10.76-25.86,20.76-36.65,3.35-3.61,8.84-7.65,10.13-12.38.01-6.86-6.22-12.15-8.4-17.73-14.03-35.91-17.17-60.02-8.95-98.95,1.2-5.67,3.27-10.76,3.99-16.06.87-6.51,13.22-27.18,17.57-34.32,7.7-12.64,18.77-21.59,29.21-31.25,5.2-4.81,11.66-7.88,17.73-12.02,18.3-12.48,36.21-10.46,35.4-22.55-.69-10.15,8.94-32.85,15.17-40.98,2.14-.96,4.25-2.76,5.98-4.72,8.01-9.11,18.27-13.85,29.83-16.51,27.72-6.37,42.82,6.21,46.12,1.36.83-1.21,1.52-2.46,3-3l3-4c2.72-4.2,5.86-8.16,10-11l5-4.13c1.91-4.6,31.57-22.31,37.04-24.83,12.51-5.77,25.58-10.07,39.6-12.48,1.46-.25,2.76-.65,3.36-1.56,3.15.34,5.98-.31,9-1l.42-.65c29.45-2.4,61.8.27,89.58,13.65Z"/>
        <g>
          <path class="cls-16" d="M606.2,814.16c-.72,2.03-4.98,4.34-7.28,3.93.15,2.17-1.45,2.89-4.81,2.15-5.82,2.37-12.41,2.94-17.92,5.91h-1l-6,1h-4c-1.99.19-3.99.52-6,1-1.76.98-5.14.83-7,0-4.81.88-10.92.86-16,0-.66,0-1.34.07-2,0l-6-1h-2l-4.99-1.08-16.75-4.11c-17.74,23.95-44.3,43.45-70.71,56.04-19.93,9.5-40.63,15-62.83,16.74-10.83.85-21.64,1.07-32.4.05l-17.31-1.64c-14.4-3.11-28.15-7.78-42-13-2.31-.78-3.64-1.82-3.98-3.1.22-.48.9-.47,2.03.04l4.53-.05c10.45,4.8,21.45,8.37,32.76,10.47l3.66,2.64,7,1c1.84-1.91,3.61-1.97,4,1,4.05.35,8.05.68,12,1,.24-1.98,1.23-1.89,2,0,5.75.93,12.26.85,18,0,.45-3.07,8.22-2.98,9,0l12-2c.68-2.92,5.85-2.74,8-1l6-1,4.17-3.03c41.45-10.22,75.5-36.5,102.91-66.86l3.88-.49c32.14,8.75,64.26,7.06,95.74-5.84l3.29,1.21Z"/>
          <path class="cls-3" d="M160.2,833.16c10.55,1.66,21.37,2.18,32,1,.1-.89.45-.84,1,0l8-1,1.15-1.92c9.66-2.67,16.38-2.26,20.68,7.94l5.07,5.17c2.92-1.2,8.6,5.19,8.16,8.04.53.33.51.69-.02,1.07l-5.95-4.42c-5.78-4.29-10.97-9.57-15.61-15.15-1.87-2.25-3.36.3-4.48.27-3.48-.08-10.16,1.45-14.18,1.64-31.52,1.54-41.86.23-70.71-8.65-7.84-3.35-15.19-9.46-23.61-11.41l-2.5-.58c-5.82-1.35-10.53-7.09-15.95-11.15-23.21-17.39-41.55-40.54-52.28-66.76-.4-1.22-.26-1.94.4-2.16l2.28.09c22.34,51.2,69.28,88.24,124.74,96.05l1.81,1.94Z"/>
          <path class="cls-18" d="M652.04,782.27c-11.17,11.36-23.52,21.24-37.65,29-.37,1.3-2.62,2.02-3.91,1.69-.87,1.17-3.32,2.5-4.28,1.2-.15-1.65.17-3.09,1.64-3.83,14.78-8.2,28.44-17.68,41-29.06l3.17.06.04.94Z"/>
          <path class="cls-10" d="M277.24,877.1l-2.03-.04c-.51,1.01-1.7.98-3.56-.09l-8.46-4.84c-8.98-6.31-18.25-12.2-26.94-18.67l.02-1.07,2.81-.63c12.02,8.53,24.73,15.9,37.67,22.83l.5,2.5Z"/>
          <path class="cls-46" d="M350.2.16c-2.2,1.88-5.28.78-8,1,1.94-2.16,5.35-.55,8-1Z"/>
          <path class="cls-10" d="M361.2,893.16c.07.77-.91,1.02-1.95,1.02h-14.1c-1.04,0-2.03-.25-1.95-1.02h18Z"/>
          <path class="cls-10" d="M382.2,891.16c-3.51,2.04-7.98,2-12,2,3.55-1.74,8.02-1.9,12-2Z"/>
          <path class="cls-10" d="M341.2,893.16c-4.03-.5-8.34,1.19-12-1h10.06c1.04-.01,2.01.2,1.94,1Z"/>
          <path class="cls-10" d="M325.2,891.16c-2.39-.13-5.1.74-7-1,2.33.27,5.26-.94,7,1Z"/>
          <path class="cls-10" d="M396.2,889.16c-1.85.4-3.75,1.88-6,1,1.89-1,3.69-1.43,6-1Z"/>
          <path class="cls-10" d="M192.2,834.16c-.83,2.15-30.66.98-32-1,3.3-.25,6.45.39,10.1.75,7.52.75,14.8-.04,21.9.25Z"/>
          <g>
            <path class="cls-41" d="M736.05,522.16c-.23,2.43-3.16,4.42-2.96,6.92-1.27.55-1.87,1.96-2.68,3.4-12.48,22.02-25.09,33.15-44.34,50.03,3.54,7.66,6.63,14.94,8.13,22.65-.28.87-.62.86-1,0-.8.09-2,.21-2.28-.33-1.61-3.14-7.9-19.17-7.73-21.52.14-1.86.75-3.41,2.08-4.73,18.4-16.02,34.94-33.06,45.57-55.09l2.44-.23c.26-1.74,1.01-4.08,2.79-4.1,1.45.21,1.45,1.21-.02,3Z"/>
            <path class="cls-26" d="M26.2,226.16l1.61,2.5c-11.04,35.68-11.13,72.95,3.68,107.8l-.33,4.72c-.29.67-.62.66-.99,0-9.54-17.4-15.01-37.6-14.53-57.74l.25-10.32c.41-17,4.83-31.85,9.31-46.95.28-.87.62-.86,1,0Z"/>
            <path class="cls-2" d="M141.27,85.03l.9,2.15c-7.76,12.6-14.17,27.12-14.32,42.07-1.01,4.39-4.2,6.22-7.73,8.14-15.94,5.43-30.5,12.97-44.11,23.21h-3.04c-1.49,1.33-2.46,1.51-2.92.54,15.92-12.64,32.94-23.66,53.96-29.46-.92-13.34,6.96-39.83,17.28-47.44.7.14.66.41-.01.8Z"/>
            <path class="cls-30" d="M3.2,428.16c-.28.87-.62.86-1,0,.4-1.55-.59-3.73.27-5.66,2.22-5.02,2.08-10.76,3.79-15.34,6.82-18.32,17.11-34.56,32.82-48-4.19-6-5.88-12.48-8.9-17.99h.99s2.26.2,2.26.2c4.86,5.79,11.96,17.72,4.68,24-18.25,16.04-27.62,38.56-32.89,61.56l-2.01,1.24Z"/>
            <path class="cls-49" d="M221.2,65.16c1.32-1.23,1.99-1.23,2,0,1.08,2.47-.22,3.12-2.67,3.13-25.65-7.14-55.07-6.6-73.77,15.38-2.13,2.5-3.95,2.95-5.48,1.36v-.8c11.49-15.92,30.84-24.08,50.92-24.21,18.38-.12,23.99,5.14,29.01,5.14Z"/>
            <path class="cls-11" d="M26.2,226.16h-1c7.65-25.78,23.86-48.36,44.85-65.03,1.01.07,2.07.06,2.92-.54l-.9,3.54c-20.24,16.04-33.93,37.67-43.57,60.86l-2.31,1.17Z"/>
            <path class="cls-2" d="M278.13,18.24c1.42-.63,2.45-.64,3.11-.04l.34,1.31c-12.05,7.06-23.73,14.94-35.03,23.62l-2.35-.1-5,4.13c.01,2.24-1.23,4.23-3.72,5.96-1.72,3.08-3.81,4.76-6.28,5.04l-3,4c.99,2.36-.6,3.76-3,3h-2c14.75-20.07,34.4-36.34,56.93-46.92Z"/>
            <path class="cls-36" d="M320.2,4.16c1.91-1.06,3.25-1.06,4,0l.25,2.42c-13.05,2.66-25.79,6.52-38.23,11.58l-4.98.03-3.11.04c13.35-6.27,27.22-12.59,42.07-14.08Z"/>
            <path class="cls-28" d="M333.2,2.16c.87.28.86.62,0,1-.34,3.44-8.08,4.49-9,1-1.14-.12-2.85-.12-4,0,1.73-1.5,4.04-2,6-2h7Z"/>
            <path class="cls-33" d="M59.15,560.13l1.04,1.93c-39.14,44.65-50.18,114.76-27.95,170.21l-.87,2.82-.4,2.16c-6.31-15.42-12.51-30.62-13.37-48.47-1.67-34.4.57-45.49,9.61-77.61,5.29-12.28,9.76-25.14,17.85-35.81l7.89-10.41c2.19-2.89,4.46-5.45,6.89-7.62,1.75.12.58,1.96-.67,2.8Z"/>
            <path class="cls-13" d="M776.2,371.16c-1.17,5.46-.63,10.98-1.25,16.86-2,19.13-6.8,37.67-15.63,53.97l-.75-.08c-.46-.97.06-1.95.64-2.79-2.46-2.88,1.26-11.47,4.99-11.86l4.08-15.13c-2.32-1.5-.96-6.97,1.91-6.89,1.04-3.26,1.67-6.65,1.89-10.17l-1.49-4.21c3.31-24.13-.75-47.53-8.27-69.99l1.84-1.63c-.8-1.03-1.25-2.6.03-3.09,6.81,15.5,10.32,32.52,11.17,49.97.09,1.96-1.01,4.32.83,5.03Z"/>
            <path class="cls-30" d="M721.04,169.12c10.37,26.65,13.63,55.04,6.45,83.41-.8,3.15-1.62,5.98-1.07,8.78-.3.88-.65.86-1.06,0-1.01-4.98-.4-10.04,1.83-15.16-.9-.18-.87-.52,0-1l1-7c-1.64-2.2-2.98-12.46,1.02-11.95.29-10.31-.38-20.66-2.02-31.05l-2.85-3.36c-6.18-24.87-20.83-47.95-41.89-62.32l.89-2.36.82-.15c12.06,8.61,22.99,17.85,30.62,31.7,1.91,3.46,3.94,7.5,6.27,10.45Z"/>
            <path class="cls-16" d="M764.2,316.16l-.03,3.09c-.96,1.42-2.11,1.53-2.84.01-5.43-17.97-15.7-36.57-29.85-49.3-6.16-3.21-8.2-6.09-6.11-8.64h1.06c17.1,10.36,32.73,35.94,37.77,54.84Z"/>
            <path class="cls-20" d="M698.2,616.16c4.84,21.54,6.08,44.09,3,66,.07.32,0,.68,0,1-.37,2.44-.71,4.78-1,7-4.19,18.44-8.4,37.27-19,53v-1l.08-5.03c19.17-40.61,22.25-88.37,10.38-130.29l1.55-1.68h1c.68,3.49,2.9,7.52,4,11Z"/>
            <path class="cls-18" d="M589.17,77.1c1.96,1.19,3.63,2.9,5.03,5.12,5.21,6.26,9.07,13.35,12,20.95.45,1.16.45,2.89,1.26,3.44s3.51,1.26,4.98.97c13.55-2.69,27.28,1.63,39.75,4.59.87.28.86.62,0,1l-2.98,1.27c-14.19-2.64-28.55-3.92-43.06-3.82l-1.36-1.49c-8.08-20-20.34-36.87-42.62-42.62l-1.91-2.33-5.08-1.01c-.28.87-.62.86-1,0-5.66-.82-11.36-.85-17.09-.09l-.68,2.28c-6.41.65-12.72,1.74-18.55,4.72l-2.69-.91c-1.72,1.42-3.72,2.42-6,3,1.14,3.11-3.77,4.21-6,3-1.09.87-1.76.87-2,0-.87-.28-.86-.62,0-1l16.77-8.22c10.16-4.98,25.83-5.39,37.23-4.57,13.23.96,24.43,7.59,33.98,15.73Z"/>
            <path class="cls-45" d="M684.16,126.97l-.82.15-3.53.51c-8.2-4.51-16.67-8.42-25.4-11.72l-2.22-2.75v-1c11.79,2.8,21.98,7.68,31.96,14.81Z"/>
            <path class="cls-11" d="M425.24,16.07c5.42,1.72,10.72,4.41,15.82,7.12,6.61,3.51,12.19,8.92,18.98,12.09,13.83,11.68,26.2,24.36,37.08,38.87,2.67.67,2.62,1.02.08,2.02l-1.02-.1-2.28.38c-18.4-24.34-41.29-44.73-70.03-57.4l-.66-2.87c-.05-.67.63-.7,2.04-.09Z"/>
            <path class="cls-31" d="M501.2,74.16v1c-.44,1.72-2.69,2.01-4,1l-.08-2.02c1.21.87,2.81.64,4.08.02Z"/>
            <path class="cls-32" d="M749.34,460.24c.36,17.7-2.63,36.1-9.97,51.91-.14-4.2.8-8.53,2.83-12.99-.87-.28-.86-.62,0-1,2.56-10.31,4.99-20.57,5-31-3.61-.96-1.86-11.06,2.08-10.03,1.2-.23,1.22.81.06,3.11Z"/>
            <path class="cls-48" d="M749.34,460.24l-.06-3.11c.13-5.72,3.06-10.85,7.9-13.9.36-.79.82-1.23,1.4-1.33l.75.08c-3.27,6.04-5.71,12.68-9.98,18.25Z"/>
            <path class="cls-29" d="M739.36,512.15c-.05.95-.3,1.97-.24,2.91-1.45,1.12-1.5,3.04-3.06,4.1-1.33.91-2.01,2.75-2.79,4.1-1.45.09-2.45-.4-2.08-1.76,3.69-7.19,6.48-14.75,8.35-22.67.92-.46,1.8-.31,2.65.33,0,4.43-2.61,8.56-2.83,12.99Z"/>
            <path class="cls-34" d="M681.2,743.16c-1.2,3.49-3.1,6.96-5.03,10.17-6.62,10.97-15.32,19.99-24.12,28.94.05-.29-.12-.65-.04-.94-1.48-1.61-.99-2.51,1.16-2.15.75-1.25,1.57-2.6,3.07-3.01l.67-3.61c7.78-9.6,15.03-19.53,21.73-29.78l2.56-.62c-.07.31.1.7,0,1Z"/>
            <path class="cls-1" d="M380.2,2.16c15.3,3.69,31.34,5.95,45.04,13.91-.61-.19-1.41.23-2.04.09-20.27-7.22-39.51-12.74-62.03-13.29-5.5-.13-10.49-1.63-16.14.1-3.81,1.17-8.26-.63-11.83.18v-1c2.64-1.85,5.87-.75,9-1l8-1c6.03,1.66,12.35.66,19.02,1.09,3.89.25,7.45,1.52,10.98.91Z"/>
            <path class="cls-8" d="M59.15,560.13c.68-.79.41-1.92.67-2.8.43-1.42,2.09-2.16,2.42-4.34-19.53-13.1-35.48-29.41-47.49-49.34-1-1.67-2.04-2.88-1.86-4.6.29-.81.65-.8,1.07-.02,6.98,12.04,23.86,33.62,35.38,42.11,4.61,3.39,9.92,6.59,13.25,11.45,1.37,2-1.19,7.54-3.45,7.55Z"/>
            <path class="cls-49" d="M3.2,428.16c.46,2.62-.66,5.11-.83,8.08-.4,6.68-.18,13.16-.05,19.85.07,3.42,1.98,6.61,1.63,10.02-.5,4.96,7.29,28.19,10.02,32.9l-1.07.02c-.48-.18-.93-.43-1.37-.7-.58-3.56-6.35-10.25-6.33-16.18-3.6-18.52-7.89-35.03-3-54h1Z"/>
            <path class="cls-49" d="M244.2,43.03c-.88,2.1-2.72,3.91-5,4.13,1.14-1.91,2.64-3.96,5-4.13Z"/>
            <path class="cls-49" d="M226.2,62.16c0-1.88,1.32-3.31,3-4-.11,1.81-1.28,3.37-3,4Z"/>
            <path class="cls-10" d="M228.1,844.35c-2.49-.52-4.64-2.66-5.07-5.17,2.69.74,3.43,3.45,5.07,5.17Z"/>
            <path class="cls-10" d="M201.2,833.16c-1.94,2.16-5.35.56-8,1,1.88-1.65,5.42-1.26,8-1Z"/>
            <path class="cls-10" d="M764.2,427.25c-.48-4.2,2.31-11.36,4.08-15.13.69,2.48-3.04,12.98-4.08,15.13Z"/>
            <path class="cls-10" d="M770.19,405.24c.72-3.35.31-7.09,1.89-10.17-.46,3.41,1.06,7.56-1.89,10.17Z"/>
            <path class="cls-10" d="M758.57,441.91c-.37.54-.83,1.01-1.4,1.33.65-1.24.41-3.53,2.04-4.12-.02.97-.18,1.94-.64,2.79Z"/>
            <path class="cls-15" d="M729.21,226.21c-.17-9.51-2.14-21.61-2.02-31.05.3,1.36,1.06,2.76,1.25,5l.93,11.08c.43,5.08,2.46,10.65-.17,14.97Z"/>
            <path class="cls-15" d="M725.36,261.32c-2.62-2.59.21-15.13,1.83-15.16.28,4.95-3.08,8.71-1.83,15.16Z"/>
            <path class="cls-15" d="M727.2,245.16c0-2.55-.57-4.97,1-7-.35,2.32,1.05,5.4-1,7Z"/>
            <path class="cls-5" d="M554.2,63.16l-17.09-.09c3.14-1.24,17.29-1.65,17.09.09Z"/>
            <path class="cls-5" d="M503.2,75.16c-1.42,2.21-5.46,3.1-7.02.9l1.02.1c1.39.14,2.79-.28,4-1h2Z"/>
            <path class="cls-5" d="M515.2,69.16c-.99,2.3-3.63,3.04-6,3,1.87-1.79,3.85-1.91,6-3Z"/>
            <path class="cls-5" d="M560.27,64.17c-1.68-.22-4.14.8-5.08-1.01,1.69,0,4.01-.57,5.08,1.01Z"/>
            <path class="cls-29" d="M742.2,498.16c0-11.47,5.22-13.51,3.91-29.04-.08-1,.43-2.06,1.09-1.96-.07,3.68.56,7.89-.24,11.9-1.34,6.73-2.22,13.3-4.76,19.1Z"/>
            <path class="cls-18" d="M656.24,776.17c-.98,1.01-1.49,2.63-3.07,3.01.02-.95.22-1.99,1-2.57.6-.45,1.38-.49,2.08-.44Z"/>
            <path class="cls-42" d="M748,310.53c-.38,5.89.58,8.23,4.49,12.2,12.15,34.03,11.61,75.29-4.26,108.48l-.04,1.94c-3.56,7.44-7.23,15.71-11.93,23.05.44,47.19-23.66,93.21-62.93,118.96-2.92,1.91-2.44,4.28-1.3,6.97,4.05,9.55,8.68,18.48,11.47,28.76,7.85,28.95,7.99,59.89-.14,88.25l-1.2,1.11c-9.1,28.71-29.95,53.99-55.51,70.52-10.31,6.67-31.86,17.9-43.68,19.21-1.64.18-3.24-.22-4.75-.87-5.75,1.21-11.09,1.88-16.02,2.03l-1.04-.08c-.58.52-1.19,1.01-1.85,1.38-8.14,4.53-43.61-4.68-52.98-9.46l-5.02,2.34c.24.95-.09,1.23-.98.84l-2.68,5.18-1.49-.26c-.24,1.02-.51,2.02-.92,2.97s-.8,1.85-1.43,2.49c-10.84,11.04-22.95,22.28-35.74,31l-5.7,1.63c1.38,2.45-.91,3.35-3.07,2.97-.67,2.19-3.58,3.02-5.15,1.2-.47.83-.97,1.63-1.58,2.33s-1.18,1.36-1.91,1.72c-75.9,38.07-162.22,22.57-216.84-43.04-102.03,34.74-213.02-65.11-185.84-170.22,5.66-26.82,22.94-51.35,41.46-71.71,2.48-2.73,1.04-6.02-1.98-7.71-24.3-13.6-44.57-33.91-55.56-60.06-12.21-29.05-9.64-62.3,4.97-89.87,6.76-12.76,16.85-22.25,27.33-31.56,1.95-1.73,2.36-3.57.9-5.8-6.24-9.55-10.96-19.25-15.43-29.87-12.23-29.06-13.25-60.4-4.63-90.64,14.11-49.46,51.39-80.97,99.7-94.92,2.35-.68,2.97-2.48,2.84-4.84-.75-14.62,2.4-28.99,10.66-40.77,18.42-26.27,48.66-28.38,76.97-16.37,7.49-9.58,14.26-18.18,22.75-26.07,34.14-31.72,79.73-45.22,125.87-39.38,44.01,5.57,84.09,27.52,110.42,63.33,3.61,4.91,6.19,9.84,10.73,14.1,12.27-9.33,25.29-16.09,40.22-18.69,30.03-5.24,57.3,14.58,61.02,44.75.15,1.21,1.48,2.66,3.07,2.42,23.01-3.38,46.49-.6,67.2,10.66,48.03,26.13,61.47,81.74,43.8,132.47,17.53,11.68,29.56,28.3,37.68,46.91Z"/>
            <path class="cls-12" d="M683.37,699.16c-1.11,3.89-2.38,8.02-3.03,12l-4.11,10.21c-2.91,7.82-7.38,17.74-12.81,23.79-1.61.42-2.53,2.44-2.43,4-5.71,10.04-13.78,18.16-22.58,26.27-15.49,14.29-33.29,24.8-53.13,30.63-2.95-.18-5.15-2.51-6.61-6.98-3.75-4.11-9.27-5.89-16.57-5.32-1.3-.18-1.29-1.36-.95-2.68l1.04.08c5.42-.2,10.76-.88,16.02-2.03,39.72-9.42,73.96-33.52,93.78-69.97,3.23-5.94,6.71-11.02,8.88-17.47.32-.95.29-2,1-2.36.46-.24,1.03-.22,1.49-.17Z"/>
            <path class="cls-27" d="M561.15,791.08c3.21,2.84,13.48-1.62,19.18,6.88,1.82,2.71,2.63,6.08,4.95,8.1-2.58.76-5.66,1.18-8.08,2.05-5.73,0-11,1.02-15.81,3.08-14.95.97-29.68.02-44.19-2.84-1.1-.36-2.71-.93-3.82-1.13-.81-2.18-3.34-3.4-7.6-3.67,1.9.09,2.39.71,1.47,1.85-1.69-1.08-4.19-.71-6.06-1.25-3.85,2.8-4.79-4.07-.53-5.49.51-2.53.22-4.39-.89-5.59,1.66-2.9,2.17-5.48,1.52-7.73.47-1.39,1.08-3.07,2.13-3.68,1.19-.68,2.96-.97,4.5-.26,16.85,7.76,35.16,10.23,53.23,9.67Z"/>
            <path class="cls-43" d="M501.2,804.16c-11.39,15.74-24.83,29.77-40.73,40.78.05-1.1,1.37-1.42,1.77-2.77l-5.74,1.23c-2.33.5-5.6.96-4.99,3.52,2.36-1.05,3.53-.44,2.2,1.3-1.82-.21-2.77-.76-3.47-.38s-1.04,2.22-2.01,2.41c-2.26.44-4.64.71-7.21-.92,6.9-4.36,5.69-12.22,3.12-15.97,1.62-.86,3.16-1.88,5.15-1.2,6.11.35,7.15-.12,3.11-1.4l-.03-1.56c15.92-11.26,30.64-23.6,43.78-38.1,1.71-.73,3.1-2.37,4.17-4.91.38-.14.6-.67.98-.84,1.34.98,3.24-.24,4.6,1.56-1.71,2.25-4.47,3.28-4.49,5.5.58.65,2.91,1.36,2.38,2.17l-1.24,1.9c-.6.92.5,2.2.26,2.98-.31,1-1.73.92-2.6,1.7-1.02.91-.05,2.7.98,3Z"/>
            <path class="cls-9" d="M748.2,433.16c-.36-.5-.77-1.09-.81-1.66-.07-1,1.13-1.55,1.55-2.52,2.45-5.67,4.06-11.23,5.81-17.08,6.15-20.58,6.92-41.36,3.61-62.76-.59-3.82-3.55-20.73-5.02-21.55-.69-.39-2.95-.23-3.06-1.23-.15-1.34,1.64-1.84,1.64-2.7.02-2.15-3.93-2.1-5.26-4.56.03.06-.58-9.02,1.33-8.58l5.11,11.71c7.67,17.58,9.06,46.38,7.71,65.62-1.14,16.25-5.92,31.31-12.62,45.3Z"/>
            <path class="cls-17" d="M577.2,808.11c-15.99,5.73-44.13,5.5-60,.24,14.63-2.39,9.99,2.74,18.2,2.22,8.52-.53,17.08,1.58,25.75.29,1.64-6.46,9.38.83,9.84-5.11,1.68.57,2.01,1.93,2.87,2.02,1.01.1,1.71-1.49,2.69-2.65,1.18.63.88,1.94.65,2.98Z"/>
            <path class="cls-17" d="M513.38,807.22c-2.23-.4-4.17-.56-6.12-1.81-.46-.81-1.8-.81-2.09-2.57,10.64.93,3.1-2.48,12.02,2.94-1.87-.06-2.92.36-3.81,1.44Z"/>
            <path class="cls-6" d="M663.41,745.16c-.49,1.15-1.78,2.87-2.43,4-1.26-.44-.51-1.83-.05-2.69.51-.94,1.56-3.32,2.47-1.31Z"/>
            <path class="cls-44" d="M676.22,721.37c.41-3.54,1.6-7.64,4.11-10.21-.63,3.84-2.83,6.76-4.11,10.21Z"/>
            <path class="cls-38" d="M449.29,832.16c.26-1.72,1.89-2.13,3.07-2.97,1.09,1.05,2.66.25,4.26-.19,1.01,2.47.18,4.69-1.97,5.08-1.95.36-5.26.71-5.36-1.92Z"/>
            <path class="cls-27" d="M578.22,789.13c-4.83,2.68-10.63,2.42-16.02,2.03-3.11-.81,16-1.97,16.02-2.03Z"/>
            <path class="cls-27" d="M496.15,791.09c1.39-1.54,1.91-4.08,4.17-4.91-.83.8-.22,6.77-2.64,6.82-.58.01-.94-1.76-1.53-1.9Z"/>
            <g>
              <path class="cls-38" d="M444.14,833.36c5.91.06,4.67,11.44.92,15.23,2.51.01,4.38-1.66,5.62-5.02,3.76-2.6,17.02-5.53,9.79,1.37-6.74,4.67-18.77,13.68-26.27,16.05-2.11-.51-3.15-.05-3.14,1.38-2.14,2.08-7.98,3.67-10.77,4.93-34.45,12.94-72.08,15.38-107.17,6.96-14.11-2.5-27.4-8.51-39.98-15.14l.57-.54c-4.15-4.03-9.13-6.96-14.96-8.78-6.02-5.33-12.49-10.09-19.41-14.3-5.98-4.29-11.29-9.71-16.07-15.3-1.01-1.66-2.27-3.5-4.2-4.14-27.19,5.74-54.3,6.85-80.94-1.79-8.36-1.76-16.58-5.53-23.74-10.03.2-1.38-.82-1.77-3.06-1.17-60.03-31.36-92.45-99.18-76.6-166.39,1.08-4.6,1.04-8.93,3.27-12.51-.9,4.25-1.22,9.13-1.71,13.97-5.15,51.53,17.31,102.65,59.97,131.94,21.49,15.96,46.05,26.27,72.9,29.04,18.85,1.94,36.74-1.32,55.2-6.45,16.3,17.72,33.55,33.35,55,44.47,24.7,12.8,51.88,19.04,79.79,18.85,30.56-.21,58.79-8.71,85.01-22.6Z"/>
              <g>
                <path class="cls-7" d="M273.13,859.13c-12.12-6.39-24.56-13.42-33.8-23.63,5.15,2.46,7.87,1.8,10.62,5.06,1.76,2.09,5.15,2.93,7.1,4.89,1.1,1.11,1.18,3.14,2.75,3.72,2.11.78,3.52.58,5.12-1.13-.81,6.53,7.48,1.13,8.26,9.78,2.9.21,1.95,2.08-.05,1.3Z"/>
                <path class="cls-35" d="M420.28,867.31c-15.73,7.12-33.3,10.53-51.09,12-7.77.64-14.83,1.41-22.5.43-11.48-1.47-23.21-1.45-33.58-5.46-.99-.18,26.17,3.72,24.34,3.65l13.58.48c18.91.67,37.84-1.53,55.98-7.53,4.57-1.51,8.78-3.59,13.27-3.57Z"/>
                <path class="cls-14" d="M223.26,820.2c-1.2-1.41-3.37-2.53-4.82-3.93-26.12,6.63-56.63,7.25-80.33-2.01,16.92,3.56,33.91,7.27,51.6,5.53,10.11-.99,19.48-2.93,29.33-4.5,2.15-.34,4.14,3.58,4.21,4.9Z"/>
                <path class="cls-37" d="M114.37,804.23c-.82-.52-2.13-.68-3.06-1.17,1.45-.13,1.36-2.52,2.79-2.89s1.05,1.64,1.37,2.42c.23.55-.38,1.31-1.1,1.65Z"/>
                <path class="cls-24" d="M434.2,860.99c-.82.26-2.52.78-3.14,1.38-.91-.14-1.17-1.15-1.9-1.94,2.09-.47,4.08-.72,5.05.56Z"/>
                <path class="cls-21" d="M32.72,685.22c-.88-9.09-.85-18.17-.03-28.08.86,9.13.82,18.3.03,28.08Z"/>
              </g>
            </g>
          </g>
        </g>
      </g>
    </g>
  </g>
</svg>