<?xml version="1.0" encoding="UTF-8"?>
<svg id="Capa_2" data-name="Capa 2" xmlns="http://www.w3.org/2000/svg" viewBox="0 0 1427.23 194.69">
  <defs>
    <style>
      .cls-1 {
        fill: #73a071;
      }

      .cls-2 {
        fill: #4a715d;
      }

      .cls-3 {
        fill: #426c54;
      }

      .cls-4 {
        fill: #3a5e4d;
      }

      .cls-5 {
        fill: #25454f;
      }

      .cls-6 {
        fill: #467046;
      }

      .cls-7 {
        fill: #3a6851;
      }

      .cls-8 {
        fill: #71a45a;
      }

      .cls-9 {
        fill: #67a1b5;
      }

      .cls-10 {
        fill: #3a6747;
      }

      .cls-11 {
        fill: #8fbfc7;
      }

      .cls-12 {
        fill: #39604b;
      }

      .cls-13 {
        fill: #39624f;
      }

      .cls-14 {
        fill: #46715b;
      }

      .cls-15 {
        fill: #386569;
      }

      .cls-16 {
        fill: #85b66e;
      }

      .cls-17 {
        fill: #3b6554;
      }

      .cls-18 {
        fill: #426a58;
      }

      .cls-19 {
        fill: #82b664;
      }

      .cls-20 {
        fill: #7a9d85;
      }

      .cls-21 {
        fill: #83bcce;
      }

      .cls-22 {
        fill: #6a9e59;
      }

      .cls-23 {
        fill: #315c4f;
      }

      .cls-24 {
        fill: #7ca5a9;
      }

      .cls-25 {
        fill: #2a533b;
      }

      .cls-26 {
        fill: #456f6a;
      }

      .cls-27 {
        fill: #6d9d5e;
      }

      .cls-28 {
        fill: #84bcd0;
      }

      .cls-29 {
        fill: #436b5c;
      }

      .cls-30 {
        fill: #c8c9c9;
      }

      .cls-30, .cls-31 {
        stroke: #000;
        stroke-miterlimit: 10;
        stroke-width: 3px;
      }

      .cls-32 {
        fill: #3c6239;
      }

      .cls-33 {
        fill: #365f3f;
      }

      .cls-34 {
        fill: #426d60;
      }

      .cls-31 {
        fill: #ce4521;
      }

      .cls-35 {
        fill: #315f4a;
      }

      .cls-36 {
        fill: #84b171;
      }

      .cls-37 {
        fill: #39665c;
      }

      .cls-38 {
        fill: #46715c;
      }

      .cls-39 {
        fill: #618784;
      }

      .cls-40 {
        fill: #84b275;
      }
    </style>
  </defs>
  <g id="Capa_1-2" data-name="Capa 1">
    <g>
      <g>
        <polygon class="cls-5" points="167.23 194.69 76.2 173.09 .12 189.79 0 17.89 76.84 0 166.15 23.35 258.21 8.5 258.63 177.3 167.23 194.69"/>
        <g>
          <path class="cls-9" d="M170,27.33c-2.68,4.26-4.72,11.19.14,14.33-2.34,3.77-6.4,5.77-12.18,6.03-7.41,6.39-17.23,7.54-25.8,2.75-6.83.69-14.08,6.17-9.96,13.43-4.13,2.66-7.67,6.06-10.63,10.2,4.22,1.28,4,2.74,1.74,5.76.9,2.33-1.74,4.82-4.06,6.03-8.56,13.34-5.3,23.26,11.51,24.04,3.38,9.69,6.48,19.62,9.32,29.79,2.35,2.29,5.55,1.76,9.61-1.58l6.09-12.06c.71-1.71,1.4-1.64,2.07.14q3.6,1.53,0,0c-1.63-5.47-.21-11.48,4.26-18.04-1.98-4.63-.07-8.63,5.72-12.01-3.63-5.56,3.64-4.87,7.6-1.96,5.24-.3,5.5.25,2.2,4.31l-.05,87.76c0,2.29,4.16,2.6,4.76,2.4-3.49.63-5.32,1.74-9.18.8l-87.73-21.4c-4.91-2.07-4.56-10.73,1.03-11.59-3.54-1.59-4.34-3.66-.64-5.06,3.96-8.37,8.57-16.39,13.84-24.08,6.98-10.18,4.04-17.31-8.83-21.36-1.8,1.68-5.5-3.85-4.05-5.95l-4.44-1.57c-1.33-9.08-.59-17.21,2.24-24.38,3.33-3.86,6.84-7.43,10.53-10.7-1.5-5.03-1.48-5.04,3.73-3.51,1.07-2.35,3.81-4.4,8.22-6.13,4.08-1.22,7.68-3.4,10.78-6.54,6.59-7.79,1.99-11.06-13.8-9.83l-1.03-1.72c-6.37-.14-10.61,1.21-12.72,4.06l-3.5-3.82c-7.04-7.5-6.78-22.95.51-30.22,16.86,1.3,84.18,23.02,92.7,21.67Z"/>
          <path class="cls-28" d="M77.3,5.67c-1.2,10.02-1.38,20.16-.51,30.22,1.46.35,2.64.77,2.81,1.45.46,1.78.27,16.05-1.4,16.99-5.29,2.94-11.78,1.29-7.28-4.7-1.72,3.08-2.47,2.43-2.26-1.93-10.73.29-21.46-.31-32.2-1.81-11.47,2.21-20.33,12.83-4.52,11.62,4.15,4.67,4.94,11.81,2.37,21.41,2.19,10.73,10.65,17.34,20.53,21.08,5.77.34,11.09,2.45,5.88,7.99-1.34,3.43-1.8,6.8-.43,10.3,5.2-2.96,7.61,1.16,4.31,5.77,2.72,7.4,4.44,15.57,5.16,24.52,1.04,4.31,2.88,5.5,5.53,3.59l1.17,4.31c-.02,3.88.23,7.88-1.03,11.59L5.77,184.36c-1.61-5.41-1.94-10.46-1.95-16.21l-.14-118.33c-.01-10.4-.05-18.61,1.47-29.22L77.3,5.67Z"/>
          <g>
            <path class="cls-21" d="M172.34,188.66c-3.92.45-6.67.69-8.77-2.68-2.26-3.62-.48-74.71,0-85.08l4.06-2.4c2.49-2.82,3.8-1.66,2.01,1.63,4.19,5.92,7.06,5.86,8.61-.2,1.34-3.31,4.29-5.43,5.83-1.66,4.92-1.67,6.22.67,4.3,5.22,2.63,4.24,5.54,1.7,8.74-7.61,6.22-4.97,7.73-8.1,6.96-16.2,9.1-.28,9.2-6.99,6.28-13.9-8.64-3.76,6.12-10.16,8.55-1.94,11.74-12.06,8.16-13.48-6.8-15.82-15.56.63-29.55-1.49-41.97-6.36-9.51,3.99-9.74-14.87-.14-14.33l83.77-13.35.12,159.95-81.55,14.72Z"/>
            <g>
              <path class="cls-15" d="M241.94,145.4c.65,3.69-12.56,14.97-15.08,8.72,4.76-4.34,9.09-7.03,12.58-11.14,2.07,1.22,2.36,1.6,2.51,2.42Z"/>
              <g>
                <path class="cls-40" d="M222.6,126.35c5.85,5.51,5.75,11.41,2.33,15.78-.47.6-1.65,1.4-1.95,2.09-3.23,3.37-7.61,2.55-13.14-2.47-9.95,2.21-15.88-.12-9.26-10.12,3.19-4.82,18.18-12.79,22.02-5.28Z"/>
                <path class="cls-29" d="M188.38,103.49c-.11-2.55,2.07-.4,4.61-.28.44-6,3.13-9.38,7.82-12.89,3.77-2.83.53-8.58.8-12.09s5.17.04,6.89-.8c3.36-1.63,1.51-6.7,1.69-9.23-1.73-.96-1.73-1.7.17-2.42,4.7,1.34,2.3,6.34,2.67,10.59.28,3.2-7.5,4.24-7.49,6.96.07,16.94-9.91,1.83-11.14,32.45,4.15-2.19,1.51-6.82,4.61-8.13,1.89-.8,5.44-2.02,6.67.34s1.08,5.84-.86,8.7c-2.94,4.32-10.33,3.32-13.73.14-4.08-3.82-3.77-7.97-2.71-13.33Z"/>
                <path class="cls-3" d="M210.36,65.79l-.17,2.42c-2.1-.65-4.1-2.21-4.84-3.75-2.38-4.92,10.79-7.42,12.18-6.62,1.82,1.05.31,4.32,2.52,6.03,1.17-4.18,1.88-7.19,5.29-10.73-6.49-4.39-33.75-5.26-42.98-5.65-5.77-.24-11.95-4.61-15.91.22-.2,5.82-5.02,5.43-6.45,0h-2.03c4.09-1.96,8.19-3.84,12.18-6.03,4.62-2.53,9.18,3.78,13.9,3.92,15.57.44,30.11-1.5,44.07,5.73l-6.4,15.34-7.39-4.68c-1.59-1.01-3.68-.21-5.07.83-.77.57.5,1.95,1.11,2.99Z"/>
                <path class="cls-18" d="M222.6,126.35c-2.8,2.32-5.29.78-9-1.09-10.42,5.5-15.02,5.03-12.61,16.97,15.76-8.13,10.81,7.24,21.99,1.99-10.58,12.72-2.48-6.17-25.37.42-6.71-11.9,11.06-23.09,20.01-23.18-.09-1.75-.67-2.46-1.15-3.25-.42-3.27,2.42-4.02,8.5-2.24.61.85,2.24,1.02,2.57,2.01,1.4,4.16-6.06,5.25-4.94,8.37Z"/>
                <path class="cls-39" d="M224.98,115.97c-.17.98.33,2.05-.52,4.15-2.84-1.37-5.33-2.6-7.98-1.9-1.86,1.01-5.34-3.68-3.11-5.43,4.22-3.32,9.51.26,11.61,3.19Z"/>
                <path class="cls-37" d="M178.25,99.94c-.35,2.02,1.36,7.5-1.63,8.08-5.76,1.11-5.78-5.11-6.99-7.88.94-1.4,1.96-1.45,2.38-.76l2.86,4.72c1.7-1.04,2-3.16,3.37-4.15Z"/>
                <path class="cls-14" d="M224.93,142.14c-2.19.04-2.38-1.23-.93-2.06.91-.52,1.82-1.81,2.54-2.72l-3.95-11c3.56-.89,5.15,4.88,6.05,7.3,1.26,3.38-.02,7.47-3.72,8.48Z"/>
              </g>
            </g>
          </g>
          <path class="cls-11" d="M76.79,100.02c-5,.07-10.08,1.03-15.25,2.88-4.26-4.62-7.97-9.73-11.13-15.32l2.01-1.71c5.77.74,9.82-.6,12.18-4.02,2.18-3.51,5.89-8.83,9.99-7.79,3.82,8.16.03,17.37,2.2,25.95Z"/>
          <path class="cls-26" d="M147.85,126.2l4.93-3.78c3.23.36,2.76,5.39,2.33,8.01-.37,2.25-3.33,7.47-6.18,5.12-3.13-2.57-.56-7.18-1.08-9.35Z"/>
          <g>
            <path class="cls-19" d="M210.19,68.2c4.9,5.18.14,10.1-5.62,13.64-.05,7.19-2.51,9.74-7.76,14.49-3.11,10.88-5.92,13.27-8.44,7.16-1.89-1.21-3.73-2.97-4.3-5.22-1.79-1.88-3.73-1.32-5.83,1.66-.67,7.57-3.55,7.63-8.61.2-.99-.15-1.51-.88-2.01-1.63-.9-1.33-1.91-2.69-2.2-4.31-1.88-.69-1.79-1.37.15-2.06l-3.26-3.34s.2-12.69.61-38.06l3.51-3.03c1.53-5.23,6.86-5.66,16-1.3,15.88-1.02,30.56,1.12,44.03,6.41l-5.73,12.35c-6.03-7.65-13.51-5.51-13.02-.82l2.47,3.85Z"/>
            <path class="cls-6" d="M184.08,98.28c-1.95.26-4.17.47-5.83,1.66.22-1.28.14-2.96.99-4.01.72-.89,2.08-2.75,4.06-2s.5,3.26.78,4.35Z"/>
            <path class="cls-8" d="M166.44,47.7c1.97,6.54,1.91,37.59-.86,44.42-5.77.85-9.11,5.09-13.26,11.17-7.66-4.32-12.12-13.31-13.68-20.64,0,0-5.21-1.75-15.64-5.25-2.31,2.48-7,4.42-9.7,2.44-2.56-.46-1.87-3.8-1.74-5.76l9.46-9.92c-1.78-10.87,8.53-16.82,17.62-11.23,7.23.91,14.34-.84,21.34-5.23h6.45Z"/>
            <path class="cls-17" d="M76.46,156.47c-12.4-.86-8.04-24.37-11.86-32.41,2.61-4.08,4.94-2.95,6.97,1.21l1.87,16.38c2.17-3.72,5.01-5.4,8.54-5.05l-2.05-4.18c9.14-10.62,9.55-17.19,1.24-19.72l-.34-4.72c-1.77-.57-1.75-1.24,0-2.01,3.99,1.43,12.87,2.7,13.76,7.94,2.23,13.13-18.08,30.02-18.13,42.55Z"/>
            <path class="cls-7" d="M111.28,85.87c2.62,2.83,2.35,6.56-.81,11.18-.46,5.18,3.67,7.97,12.39,8.4,6.49,7.07,10.03,16.84,10.62,29.31l6.22,1.35v2.01c-1.79,2.85-3.29,4.69-7.14,4.23-9.79-1.16-7.17-23.75-12.21-31.63-7.32-.23-14.65-1.81-16.74-8.26-1.94-6,.15-13.71,5.64-16.58h2.03Z"/>
            <path class="cls-24" d="M93.01,35.64c-.76,2.57-4.05,3.8-9.86,3.69l-2.32,2.34c2.67.33,4.58,1.83,5.74,4.5,1.93,2.03,2.42,4.97,1.46,8.82,4.79.13,4.57,2.18.82,4.87-.93,1.47-2.19,2.69-3.73,3.51-1.66.17-3.09-1.47-4.3-4.9l-4.23-2.93c1.02,4.89-.17,7.38-5.65,4.36-1.86,4.19-10.82-.36-8.37-4.15,3.33-1.46,5.86-3.53,8.35-6.11,1.08.56,1.4,1.76,3.25,4.22,2.42-5.56,3.15-11.82,2.62-17.96,5.41-.28,10.82-.9,16.23-.25Z"/>
            <path class="cls-2" d="M52.42,85.87c0,5.43,5.48,12.7,11.63,13.48,4.75.6,8.99-.97,12.74.66l4.05,5.95v2.01c-.18,3.88-1.72,3.86-2.59-.01-2.89-.38-5.76-1.22-8.62-2.52-3.31,3.13-6.27,3.98-8.91,2.53-.42-3.44-4.72-5.02-5.88-7.99,2.45-1.49.04-3.83-7.23-7.03-5.68-6.77-2.49-13.97,4.82-9.09,1.77.57,1.75,1.24,0,2.01Z"/>
            <path class="cls-34" d="M107.85,47.19c-.68.73-1.26.64-1.74-.25l-1.07-4.36-21.67,1.03-2.54-1.93c-1.8-7.22,8.04-1.48,12.18-6.03l17.77,2.44c6.4.88-2.08,6.67-2.93,9.1Z"/>
            <path class="cls-13" d="M85.12,63.37c-1.22,7.07-1.69,3.8-10.53,10.7l-9.99,7.79c-.98-.39-1.88-.85-2.49-1.56-4.1-4.69,10.72-14.36,15.12-16.47-2.53-3.05-2.74-5.82-.65-8.31,5.17-.72,7.05,3.36,8.53,7.84Z"/>
            <path class="cls-33" d="M157.96,47.7h2.03c-24.2,18.05-24.93-1.86-32.18,4.96-2.32,2.19-8.26,5.17-5.39,9.6,4.32-.38,4.3-5.51,7.59-3.6-1.34,6.58-7.49,5.82-10.88,8.83-2.76,2.45-3.55,7.29-7.57,6.59.33-5.12,4.98-7.87,8.61-11.23.74-2.8-1.72-7.83,2.23-9.45,3.05-1.25,6.94-5.16,11.04-3.63,8.86,3.31,16.66,1.68,24.51-2.07Z"/>
            <path class="cls-23" d="M97.07,53.72c-2.75,2.07-4.01,6.16-8.22,6.13-2.28-4.18-2.15-9.04-2.28-13.69,2.41-6.49,8.06-1.97,7.41,4.53l3.09,3.02Z"/>
            <path class="cls-10" d="M139.69,138.12c.06-.66-.09-1.35,0-2.01-7.21-2.87-.59-14.93,6.09-10.05.87,4.5-4.06,8.81-6.09,12.06Z"/>
            <path class="cls-35" d="M97.07,53.72c-3.53-4.87,4.62-10.59,9.04-6.79.95-.71,1.36-.91,1.74.25-1.38,3.95-5.29,7.77-10.78,6.54Z"/>
            <path class="cls-36" d="M78.24,107.97l2.23,3.03c-2.06,9.32-1.55,17.85,1.51,25.59-3.3,4.93-5.32,10.36-8.53,16.08-8.19-10.74-1.09-27.48-8.86-28.62-1.7-1.46-2.66-4.18-4.31-5.77-1.46-3.31-.98-7.05.43-10.3,3.01-2.65,4.54-6.45,9.03-6.52,4.37-.06,6.92,2.58,8.49,6.51Z"/>
            <path class="cls-38" d="M68.66,47.7c-6.61,6.38-15.94,7.62-27.99,3.74l-6.68.52c7.54,4.59,9.51,12.55,5.92,23.86,1.22,5.71,3.73,11.34,7.54,16.9,5.47,2.26,7.93,4.69,7.38,7.28-12.94-.2-26.35-17.86-21.46-29.23,1.34-3.12,1.86-10.44-2.01-11.77s-8.62,2.99-12.17-1.8c3.48-6.6,11.78-13.7,19.76-12.81l29.7,3.32Z"/>
            <path class="cls-4" d="M70.92,49.63c-.46,4.01-4.54,6.06-8.35,6.11-2.94-1.54-.91-4.22,6.09-8.04.96.11,1.62,1.26,2.26,1.93Z"/>
            <path class="cls-25" d="M60.28,118.28c-3.2-3.07-2.63-7.61.43-10.3.42,3.4-.26,6.91-.43,10.3Z"/>
            <path class="cls-12" d="M52.42,85.87v-2.01c.67-5.59,8.49-5.2,12.18-2.01-.19,1.97-.48,5.91-3.85,5.64-3.2-.26-5.77-1.87-8.33-1.62Z"/>
            <path class="cls-22" d="M145.78,126.06c-4.08,1.59-5.53,6-6.09,10.05l-6.66,4.56c-8.15-5.15-3.53-29.74-12.36-31.75-6.23-1.42-13.69-1.5-14.42-9.69-.41-4.59,3.41-9.32,5.03-13.36,13.65-10.11,6.92.55,29.55,3.47.24,7.43,8.08,12.8,10.59,17.72-3.14,6.36-6.93,12.31-5.63,19Z"/>
            <path class="cls-27" d="M80.84,107.98l11.55,6c-.59,9.32-5.86,15.83-10.4,22.61-2.6.33-4.81-.9-5.93-3.01-.31-.59-1.74-25.31,2.19-25.62h2.59Z"/>
            <path class="cls-16" d="M68.66,47.7c.97,4.42-4.8,4.83-6.09,8.04-1.79,4.15,5.98,7.49,8.37,4.15,2.86-.24,2.73-6.06,5.65-4.36,1.81,2.28,7.02,8.47,3.38,11.17-6.1,4.52-14.62,7.35-15.36,15.16-3.5,2.73-7.86,1.91-12.18,2.01-3.3.08-5,4.42-3.94,6.95,1.24,2.97,17.65,9.35,6.35,9.17-2.68-6.84-6.96,1.63-17.57-17.03-4.86-8.55,4.92-21.96-3.34-26.46-2.36-1.29-6.57-.39-9.96-1.08,11.25-17.13,27.5-.63,44.7-7.73Z"/>
            <path class="cls-1" d="M106.11,46.93l-9.04,6.79c-2.87.06-5.41,3.56-8.41.97.48-3.37,2.15-5.3,1.41-7.07-.5-1.19-2.42-1.33-3.5-1.46-1.34-.16-3.05.17-4.66-.51-1.27-.54-1.19-2.72-1.08-3.99,7.91-2.53,17.03-3.69,26.9-3.24,3.96.18,1.06,7.72-1.62,8.5Z"/>
            <path class="cls-32" d="M70.94,59.88c-.52.78.1,3.43-1.44,3.73-2.12.41-7.6-2.89-8.94-4.92s1.08-2.27,2.01-2.96c.67,3.86,5.03,4.12,8.37,4.15Z"/>
            <g>
              <path class="cls-33" d="M165.58,92.12c-.21.51-.25,1.52-.15,2.06-7.43-1.48-10.15,6.08-11.74,12.63-1.69,6.93-7.52,12.44-5.83,19.39l-2.07-.14c-5.49-2.81-5.3-8.8.57-17.97-1.2-2.93-3.12-5.75-5.77-8.45-4.47-9.39-19.79-14.08-29.31-13.76-.6,1.27-1.28,1.24-2.03,0,.96-1.53,1.57-5.67,4.06-6.03,3.06-.44,4.2-3.15,6.87-5.28,4.01-3.2,7.8,1.84,11.84,2.84,3.28.81,10.65.39,10.68,5.32.04,6.48.98,16.95,9.28,16.63,1.96-.07,5.99-3.03,5.87-4.44-.13-1.53-3.47-3.04-4.52-5.22,4.44-1.73,8.16,1.92,12.25,2.42Z"/>
              <path class="cls-20" d="M130.4,81.05c3.5.67,5.59-1.74,7.37-.36,14.11,10.93-21.16-1.44-18.55-2.5,5.74-6.3,7.56,2.17,11.18,2.86Z"/>
            </g>
          </g>
        </g>
      </g>
      <path class="cls-30" d="M1359.75,145.52c-125.8,1.2-240.47-1.01-353.47-.98,61.73-4.4,59.27-39.64,31.05-50.42-8.6-3.28-31.47-5.31-31.68-8.42l340.11.23c43.94.03,78.81,4.99,78.99,11.31l.98,36.26c.16,6.05-28.26,11.66-65.98,12.02Z"/>
      <path class="cls-31" d="M1102.92,87.74c10.93.7,9.48,46.55,5.98,52.33-1.79,2.96-2.82,3.64-5.92,4.26l-761.6,1.8c-5.64.01-9.37-4.48-9.69-10.38-.74-13.61-.93-26.88.36-40.47.42-4.36,4.43-5.36,5.95-7.83l1.41-1.94c254.16-.2,508.31-.08,762.46.36l1.04,1.86Z"/>
    </g>
  </g>
</svg>