<?xml version="1.0" encoding="UTF-8"?>
<svg id="Capa_2" data-name="Capa 2" xmlns="http://www.w3.org/2000/svg" viewBox="0 0 852.58 668.34">
  <defs>
    <style>
      .cls-1 {
        fill: #095899;
      }

      .cls-2 {
        fill: #125992;
      }

      .cls-3 {
        fill: #075998;
      }

      .cls-4 {
        fill: #0a5794;
      }

      .cls-5 {
        fill: #fcfcfc;
      }

      .cls-6 {
        fill: #0c5490;
      }

      .cls-7 {
        fill: #020202;
      }

      .cls-8 {
        fill: #095494;
      }

      .cls-9 {
        fill: #085695;
      }

      .cls-10 {
        fill: #0a5591;
      }

      .cls-11 {
        fill: #095595;
      }

      .cls-12 {
        fill: #065594;
      }

      .cls-13 {
        fill: #075595;
      }

      .cls-14 {
        fill: #055494;
      }

      .cls-15 {
        fill: #085593;
      }

      .cls-16 {
        fill: #095694;
      }

      .cls-17 {
        fill: #075695;
      }

      .cls-18 {
        fill: #085493;
      }

      .cls-19 {
        fill: #1b75b3;
      }

      .cls-20 {
        fill: #095798;
      }

      .cls-21 {
        fill: #085595;
      }

      .cls-22 {
        fill: #085594;
      }

      .cls-23 {
        fill: #085795;
      }

      .cls-24 {
        fill: #09538e;
      }

      .cls-25 {
        fill: #0a5695;
      }

      .cls-26 {
        fill: #01040f;
      }

      .cls-27 {
        fill: #0c5795;
      }

      .cls-28 {
        fill: #085798;
      }

      .cls-29 {
        fill: #10558d;
      }

      .cls-30 {
        fill: #095593;
      }

      .cls-31 {
        fill: #075596;
      }

      .cls-32 {
        fill: #0a5596;
      }
    </style>
  </defs>
  <g id="Cuadro-1">
    <g>
      <polygon class="cls-7" points="697.9 611.96 74.13 668.34 0 92.52 852.58 0 829.08 94.33 697.9 611.96"/>
      <polygon class="cls-5" points="456.34 629.05 186.8 653.39 77.96 663.34 5.51 96.85 846.15 5.58 694.03 607.35 456.34 629.05"/>
      <polygon class="cls-26" points="90.49 648 79.64 561.79 21.92 109.99 160.85 95.29 827.11 22.94 747.01 340.38 682.39 594.26 90.49 648"/>
      <polygon class="cls-19" points="95.21 639.51 84.54 555.51 27.8 115.34 164.37 101.01 819.3 30.53 740.56 339.81 677.04 587.15 95.21 639.51"/>
      <path class="cls-8" d="M806.48,84.55c.48-.34-.3-5.09-2.18-3.98l-171.46,101.94c4.36-5.66,10.89-10.04,16.58-13.95,19.9-13.67,36.6-28.65,54.49-44.76l66.63-60.02c7.41-6.67,14.41-12.64,21.28-19.77,4.38-4.54,11.16-7.08,11.89-13.37,5.07-1.03,10.7-3.3,16.77-1.09-4.09,19.86-9.65,37.32-14.01,54.99Z"/>
      <path class="cls-8" d="M802.64,30.72l-34.69,25.15-127.88,96.48,52.65-56.39,50.38-48.47c3.84-3.69,7.85-6.83,8.58-11.66,16.92-1.98,33.89-4.72,50.96-5.11Z"/>
      <path class="cls-8" d="M111.92,637.79c-5.16,3.1-12.88,2.47-18.82.83l-3.85-40.26c3.93,10.14,1.7,17.05,5.23,13.82l130.86-119.95-131.52,143.05c6.91,4.3,12.71,1.38,18.1,2.5Z"/>
      <path class="cls-1" d="M31.8,114.1c-1.37,1.97-1.92,4.4-2.1,6.68-.28,3.69,3.12,4.44,6.11,6.36l60.16,38.71c19.93,12.82,39.6,23.98,58.82,37.78,6.5,4.67,15.9,5.8,19.49,13.68L35.8,143.95c-1.31-.7-2.08-1.09-2.99-1.17-.73-.06-1.37.4-1.5,1.34-1-3.95-5.68-27.86-2.31-29.74.74-.41,1.88-.15,2.79-.27Z"/>
      <path class="cls-14" d="M796.94,123.26l-5.54,21.01c.13-1.91-1.16-2.22-3.04-1.34l-146.69,68.75,126.55-73.68,28.72-14.74Z"/>
      <path class="cls-28" d="M151.69,101.16c8.67,12.89,20.63,23.29,32.56,34.51l64.09,68.42-114.33-98.76c-4.79-.92-8.72-.22-12.66-.66,9.46-3.24,20.2-2.41,30.34-3.51Z"/>
      <path class="cls-20" d="M36.89,185.18c-2.98-8.93-2.12-18.8-3.69-28.04l63.53,34.6-56.23-20.64,108.79,54.95c9.1,4.59,19.15,6.39,26.08,14.29l-132.68-56.89c-1.62-.69-3-.96-3.94-.59-.87.35-1.3,1.6-1.87,2.32Z"/>
      <path class="cls-22" d="M151.22,634.04c-12.05,3.01-25,2.98-37.43,3.69-.31-4.5,8.13,0,9.75-1.81l68.76-76.47,35.42-37.63c-4.59,8.68-10.86,14.91-16.83,22.76l-66.73,87.73c2.92,1.39,5,1.84,7.07,1.73Z"/>
      <path class="cls-18" d="M82.27,108.46c-.8,1.97-2.83,2.35-5.46,2.39l76.28,58.2c-29.91-16.97-55.68-37.75-84.72-55.77-3.8-2.36-9.04-.63-12.12-.34l64.01,45.19c3.59,6.86,12.78,5.88,15.99,14.19l-57.78-35.39-31.69-18.86c-3.94-2.35-7.17-4.78-11.47-4.02,15.4-3.1,31.27-4.21,46.97-5.58Z"/>
      <path class="cls-32" d="M89.25,601.36c-3.4-8.79-1.4-18.96-3.48-28.17l3.86,3.04,75.21-57.94c2.82-2.17,5.91-5.4,9.35-4.25l-77.31,73.69c-5.3,5.05-8.3,6.68-7.64,13.64Z"/>
      <path class="cls-23" d="M42.54,229.97c-1.35-8.03-3.57-16.13-3.51-24.34,3.35,1.93,1.66,6.61,2.24,11.29l147.53,55.7-95.1-28.33c-17.57-5.23-33.99-11.22-51.16-14.33Z"/>
      <path class="cls-9" d="M698.77,495.2c.21,4.15-2.96,10.86-3.39,14.71-.85-2.55-3.08-3.93-6.01-5.6l-107.01-61.12,70.09,30.94,46.32,21.07Z"/>
      <path class="cls-11" d="M765.15,248.86c-.12-2.23.71-4.56-.57-8.05l-115.47,26.29,122.1-42.73c-2.09,6.48-2.87,19.05-6.05,24.49Z"/>
      <path class="cls-21" d="M741.02,342.24c-.86-3.3-4.25-2.51-7.55-2.6l-71.08-1.94c13.86-4.81,76.16-3.07,80.49-7.3.9-.88,1.94-5.12-.21-5.04l-106.29,3.77c-11.02.39-21.67,3.99-31.89.31l136.39-13.75c3.23-.33,5.56-.96,7.64-1.8-2.47,9.82-5.15,18.66-7.49,28.35Z"/>
      <path class="cls-13" d="M673.78,44.93c-2.77,3.67-5.58,7.97-9.07,11.85l-29.12,32.39-54.66,59.19c-.95,1.03-.05,3.17-1.49,3.27-1.3.09-2.17.04-2.79-.99-1.37-2.31,1.54-2.41,2.83-3.97l80.1-97.04c1.27-1.54-4.08-3.18-4.68-2.92l18.87-1.78Z"/>
      <path class="cls-16" d="M666.26,587.48c-10.3,2.27-21.26,2.54-31.97,3.49l2.94-3.59-72.38-77.74,85.96,76.49c5.09,2.13,10.48.49,15.45,1.34Z"/>
      <path class="cls-21" d="M81.76,539.93c-2.1-13.08-3.87-26.31-5.35-39.49,3.11,3.31,1.48,8.5,4.64,13.93l80.88-38.01-78.28,50.02c-3.23,3.3-.74,9.92-1.88,13.55Z"/>
      <path class="cls-11" d="M774.76,209.6c-.56-.61-1.13-2.19-1.9-2.17-1.47.03-3.29.38-5.12.99l-90.8,30.17c-9.19,3.05-17.64,8.21-27.95,7.45l129.4-49.74c-1.37,4.56-1.94,8.91-3.63,13.3Z"/>
      <path class="cls-12" d="M704.38,476.14c-.84,3.69-1.89,8.38-3.47,11.38-.51-1.94-1.89-2.76-4.11-3.82l-116.33-55.21,66.95,25.57,46.32,19.88c3.71,1.59,7.39,2.22,10.63,2.19Z"/>
      <path class="cls-3" d="M712.05,444.34c-.68,2.12-1.46,5.65-1.74,7.84l-122.74-43.53c14.76,0,25.84,8.51,39.72,10.08l84.76,25.62Z"/>
      <path class="cls-31" d="M70.76,450.34c-.95-8.42-4-17.41-3.72-26.28,2.52,1.83,1.53,5.69,2.72,9.71l105.98-26.13-103.34,36.33c-2.42.85-1.34,5.15-1.64,6.37Z"/>
      <path class="cls-25" d="M59.5,362.39c-3.7-8.82-2.71-20.39-3.87-29.8,14.69,2.19,29.36,1.28,45.3,2.64-9.11,4.58-42.81-4.63-43.4,7.65-.27,5.61,2.73,5.29,7.81,5.2l110.26-1.81-115.09,11.01c-1.49.14-.87,4.99-1.01,5.11Z"/>
      <path class="cls-27" d="M621.5,50.34l-56.69,73.34c10.84-24.26,28.23-44.19,41.3-67.39.91-1.61,2.07-2.58.04-3.17,3.92-4.44,10.15-2.22,15.35-2.78Z"/>
      <path class="cls-30" d="M689.48,533.9c-1.74,9.72-4.17,19.07-7.48,28.43-.16-4.11-4.67-5.03-7.84-7.61-21.11-17.17-41.82-33.58-63.82-49.62-.98-.71-1.18-2.29-2.14-2.67-1.45-.59-.78-1.5.09-1.89,2.52-1.12,2.59,1.9,3.86,2.73l70.05,45.65c2.16,1.41,3.99-4.61,3.66-6.35-1.18-6.08-50.93-34.59-58.56-43.89,20.22,7.93,42.94,28.76,62.19,35.22Z"/>
      <path class="cls-6" d="M321.18,618.83c-13.62-.12-27.44,4.11-41.24,3.94.19-3.11,24.83-1.78,31.85-5.42l25.38-97.86-15.98,99.34Z"/>
      <path class="cls-10" d="M190.35,630.49c-4.99,2.83-11.08,1.89-16.63,1.44,1.45-7.44,44.86-64.17,53.89-74.92l-26.49,44.66c-5.62,9.48-11.99,17.95-16.41,27.94,2.35.95,4.16.49,5.64.88Z"/>
      <path class="cls-15" d="M763.2,256.02c-.02,3.73-2.64,9.96-3.52,13.48.3-.56.22-4.69-1.91-4.22-21.25,4.67-41.49,8.54-62.73,12-6.58,1.07-12.52,5.2-19.63,2.17l87.79-23.42Z"/>
      <path class="cls-2" d="M67.03,424.06c-3.17-2.31-1.2-6.79-1.79-11.83l-3.85-32.84c9.19,9.51,14.16-1.89,24.54,2.66-11.6,5.37-17.97-.21-20.19,5.77-3.09,8.34,20.82-3.19,25.87,1.71-11.2,4.58-26.75-1.08-26.44,9.48.23,7.7,22.06-.66,38.72-1.85,5.92-.42,11.21-5.16,17.69-1.96l-54.08,13.92-.46,14.94Z"/>
      <path class="cls-17" d="M728.6,381.22c-.96,3.96-2.73,9.53-3.6,13.43-.12-1.33.44-5.17-2.21-5.64l-65.25-11.55c-5.88-1.04-12.55,1.24-17.03-3.96l88.1,7.72Z"/>
      <path class="cls-29" d="M563.61,55.86c-14.41,16.97-26.16,48.12-41.02,68.27,4.66-20.27,23.46-47.17,27.27-65.58,4.44-1.54,9.09-2.22,13.75-2.69Z"/>
      <path class="cls-4" d="M53.75,317.68c-4.16-9.64-2.06-19.92-3.62-29.83,4.09,2.83,9.27,3.03,14.72,4.12l55.05,11.04c-3.55,4.21-7.92.12-12.17-.06-18.77-.81-36.69-3.58-55.8-6.26-.01,8.32,3.55,14.48,1.83,20.99Z"/>
      <path class="cls-24" d="M173.72,631.93c-.64,3.26-13.87,1.99-20.79,2.23l41.12-52.76-30,50.18c3.87.8,6.84.13,9.67.36Z"/>
      <path class="cls-23" d="M38.97,203.77c-3.54-3.11-.86-8.73-1.71-13,3.94,2.87,1.35,8.7,1.71,13Z"/>
      <path class="cls-28" d="M119.48,104.75c-2.86,4.1-8.76,1.62-13.11,1.61,4.01-.35,8.57-2.86,13.11-1.61Z"/>
      <path class="cls-25" d="M61.39,379.39c-.39-3.34-3.05-10.06-1.76-13.18,4.82,2.5.33,9.28,1.76,13.18Z"/>
      <path class="cls-23" d="M44.38,243.18c-.22-3.47-3.01-7.39-1.52-11.35,3.3,2.85,1.89,7.46,1.52,11.35Z"/>
    </g>
  </g>
</svg>