<?xml version="1.0" encoding="UTF-8"?>
<svg id="Capa_2" data-name="Capa 2" xmlns="http://www.w3.org/2000/svg" viewBox="0 0 887.47 651.89">
  <defs>
    <style>
      .cls-1 {
        fill: #a61e02;
      }

      .cls-2 {
        fill: #ab1c01;
      }

      .cls-3 {
        fill: #ae1e01;
      }

      .cls-4 {
        fill: #a81d01;
      }

      .cls-5 {
        fill: #010202;
      }

      .cls-6 {
        fill: #aa1f01;
      }

      .cls-7 {
        fill: #a51b01;
      }

      .cls-8 {
        fill: #ac1f02;
      }

      .cls-9 {
        fill: #a62003;
      }

      .cls-10 {
        fill: #90331a;
      }

      .cls-11 {
        fill: #a51902;
      }

      .cls-12 {
        fill: #a71c01;
      }

      .cls-13 {
        fill: #d13700;
      }

      .cls-14 {
        fill: #ab2102;
      }

      .cls-15 {
        fill: #aa1c01;
      }

      .cls-16 {
        fill: #aa1e01;
      }

      .cls-17 {
        fill: #a7290d;
      }

      .cls-18 {
        fill: #a81b02;
      }

      .cls-19 {
        fill: #aa1d02;
      }

      .cls-20 {
        fill: #fdfdfc;
      }

      .cls-21 {
        fill: #a91e01;
      }

      .cls-22 {
        fill: #ac2002;
      }

      .cls-23 {
        fill: #a81c01;
      }

      .cls-24 {
        fill: #aa1b01;
      }

      .cls-25 {
        fill: #a91d01;
      }

      .cls-26 {
        fill: #a72308;
      }

      .cls-27 {
        fill: #a61e03;
      }

      .cls-28 {
        fill: #a51b02;
      }

      .cls-29 {
        fill: #a81b01;
      }

      .cls-30 {
        fill: #160201;
      }

      .cls-31 {
        fill: #a61b02;
      }

      .cls-32 {
        fill: #a91c03;
      }

      .cls-33 {
        fill: #ac1e01;
      }

      .cls-34 {
        fill: #ad1e01;
      }

      .cls-35 {
        fill: #ab1d02;
      }

      .cls-36 {
        fill: #a51c01;
      }
    </style>
  </defs>
  <g id="Cuadro-2">
    <g>
      <polygon class="cls-5" points="491.89 615.19 0 651.89 146.45 69.1 316.06 53.43 887.47 0 863.19 160.88 795.99 594.7 491.89 615.19"/>
      <polygon class="cls-20" points="473.55 611.46 188.97 632.07 6.33 646.31 150.69 73.56 881.29 5.39 875.48 48.67 791.81 589.75 473.55 611.46"/>
      <path class="cls-30" d="M25.29,630.67L161.98,88.54l525.7-48.8,176.25-16.19-85.91,552.22c-251.52,16.28-497.17,33.4-752.72,54.91Z"/>
      <path class="cls-13" d="M31.85,624.21L166.4,92.68l517.5-47.85,173.5-15.87-84.57,541.42c-247.59,15.96-489.42,32.74-740.99,53.83Z"/>
      <path class="cls-17" d="M848.08,91.12l-17.07,115.64-15.57,98.88-6.64,43.72-34.32,221.69-83.78,5.42c-10.05.65-19.45,3.49-29.81,1.04-12.05,3.52-39.81,4.07-53.8,4.96l-86.2,5.47-27.91,1.95-22.41,1.88-18.73,1.39-138.64,10.28-68.4,4.21c-5.46.34-10.41,2.64-14.91.56-.97-3.87,6.86-10.83,11.41-9.22.82,2.27,4.28,2.04,5.53,3.55,5.19-1.81,10.2-2.96,15.04-3.43,1.96,5.57,9.64,2.52,14.92,2.4,6.15-.14,13.61,3.66,19.23-.11s5.75-12.24,12.15-15.91l-6.04,14.93c6.38.83,43.68-1.85,45.57-5.33l14.59-26.67-8.26,28.68c9.79,1.55,18.07-.94,27.04-2,3.79-.44,12.48,2.49,14.5-1.99,7.54-16.67,8.76-34.53,17.06-50.67l-9.01,48.39c3.07,4.99,30.86-.76,29.84-.1,1.89-1.22,1.15-3.99,2.24-7.08,2.31,1.41,1.09,3.63,1.81,7.33,9.03-2.53,18.08-.55,27.32-2,7.54-1.18,34.28-3.81,41.27-3.42,11.27.62,21.9.31,32.5-2.66-1.96-4.59-4.16-7.81-1.85-12.33l4.94,12.38c6.13,1.46,26.53-1.38,31.14-3.23,2.47-1,8.3,6.55,10.06.01,1.47-5.45-3.56-9.83-6.62-15.45,8.77-3.65,2.15,19.16,21.39,16.76l20.34-2.54c9.27-1.16,46.13,1.21,40.94-5.93,3.93-3.58,8.51-2.36,12.36,1.09,6.99,2.2,13.54-.34,21.4-.7,5.29-.24,12.14,3.89,14.51-2.46,2.76-1.43,5.96-1.33,9.58.31,6.43,3.3,14.33,2.08,20.28-1.82,1.85-3.06,5.03-2.36,7.9-1.57,2.79,3.23,23.89,3.32,26.1-3.5.64-1.96-1.17-4.74-1.51-6.6-3.37-3.45-1.54-7.09,3.36-7.15,1.05-2.44,6.03-7.1,2.53-9.88-22.39-17.81-49.81-32.01-71.23-51.34,21.47,10.53,39.16,24.93,59.97,36.61,3.5,1.96,9.13,6.57,12.66,4.61,4.8-8.14,5.61-19.08,2.11-26.95-2.51-3.74-2.28-11.59,3.59-10.64,2.28-3.82,2.75-7.71-.28-11.77-4.13-2.44-3.24-6.76,1.85-7.27,3.9-7.16,7.1-16.45,3.86-23.99-4.08-2.29-2.52-6.23.04-9.02,5.37-6.06,6.26-14.61,5.28-22.49-4.91-1.65-4.56-2.56.34-4.04,4.71-7.51,5.64-18.21,5.55-27.64l-54.76-11.07,58.54,3.25c-2.37-16.38,6.14-31.16,1.53-38.76-3.46-3.06-2.21-5.73,2.45-6.21.84-2.49,1.55-4.3,1.06-7.04-6.19-3-3.54-6.54,2.25-8.19.42-1.1,8.42-43.07,4.97-45.62-12.87,2.07-25.41,3.79-38.5,6.76-5.32,1.21-10.53,3.82-15.23.88l55.31-14.45c6.87-1.79,4.88-32.04,7.93-39.85l-52.82,15.23,52.74-22.86c4.02-1.74,3.05-9.67,2.32-13.6-5.01.33-8.03,3.64-13.21,3.23,3.79-4.53,10.07-3.43,14.73-7.61l3.34-22.43c1-6.7,3.96-12.71,2.46-19.34l-75.06,39.56c-6.54,3.45-10.56,8.75-19.42,10.85,3.77-6.69,11.06-8.08,17.32-11.95l77.2-47.72c1.73-1.07,1.67-6.55.73-7.73-1.13-1.41-3.28-1.42-5.9.15l-48.94,29.46c17.38-13.78,34.88-25.73,52.94-38.62,6.95-4.96,11.13-13.64,6.73-20.85-3.33-3.48-.53-8.31,2.4-11.26,3.71-2.86,2.03-8.23,5.27-11.33l.45,1.87Z"/>
      <path class="cls-10" d="M848.08,91.12c-.05-.62-.45-1.24-.45-1.87,0-3.05-.09-6.1-.42-9.14-1.51-2.75-.74-6.55,2.29-11.39.79-4.53.24-9.21,1.21-13.64l-1.58-1.17c5.45-15.59,3.09-22.45-7.09-20.58-4.17.57-8.98-1.08-13.06-.06l-9.34,2.09c-.66-.24-1.52.52-2.21.38-4.74,2.7-9.73,4.78-14.58,1.27-2.4,2.56-5.56,2.85-9.48.89-3.93-.44-7.62-.11-11.05.98-.62-.06-1.25,0-1.87,0-3.12,2.33-7.6,2.64-11.37,2.16-.37,1.76-1.06,1.91-2.08.43-12.46-2.17-24.81-.18-36.94,3.02-3.45,2.05-7.81,2.05-13.06,0-.45,1.69-1.08,1.65-1.87,0-3.01.74-6.12,1.37-9.33,1.87h-11.2l-9.34,1.99c-.71.08-1.53.46-2.23.36-3.33,4.35-9.42,4.94-12.36-.21l-37.65,3.46c-1.37,2.14-4.96,2.77-10.78,1.9-3.39,4.58-5.86,4.7-7.43.37-7.06.88-13.81.84-20.98,1.46-2.23,3.74-4.02,4.41-5.39,2.02-2.1-2.3-5.14-2.11-7.98-1.62-2.12,3.13-3.72,3.68-4.79,1.63-9.66-1.4-19.84,2.61-30.32,3.46-9.32.75-18.17-1.23-26.18,1.97-.71,5.2-2.18,5.04-3.73,0-6.94-1.1-13.57,1.73-20.53,1.87l-.67,1.91c-3.64-1.1-7.15-1.12-10.53-.05-1.76-.88-4.93,1.69-6.43.78-1.97,4.1-5.47,5.53-8.11.98-13.67-.16-63.6,2.3-75.13,7.89-.26,6.53-7.83,3.68-11.11-.32-6.81-.2-58.36,2.19-61.27,6.94-1.01,1.65.57,4.36-.87,8.27-2.82-2.92-3.98-6.31-6.06-7.99-3.51-2.85-39.69,2.25-41.15,3.16l-6.31,3.92c-3.77-3.32-7.24-3.35-11.01-2.48-2.03,7.85-13.3,4.38-18.97,1.19-21.99,3.51-27.25-.55-34.27,6.69-6.39-3.22-14.73-4.63-21.08.35,7.71,7.9,16.68,12.18,23.97,21.45-9.5.45-23.58-20.77-34.88-20.26-5.85.27-3.54,9.25-4.69,12.44,4.06,3.82,1.31,10.01-3.75,11.27-6.15,2.58-2.22,9.77-3.59,14.78,2.42,4.63,1.77,7.56-1.32,11.74-.28,1.39-1.32,2.34-2.17,3.38,3.3,3.49,1.71,12.54-3.39,13.59-.51,2.62-2.45,5.72-2.26,8.5,4.02,2.74.54,7.1-2.1,9.63-1.97-6.93-7.69,26.93-7.49,25.66,4.63,3.5,3.1,9.56-2.02,11.65-4.14,5.72-5,13.41-5.42,20.37,3.33,3.59,3.11,3.91-1.87,3.73-3.07,2.65-.47,8.34-1.53,11.1,2.32,4.01,1.41,10.07-3.77,10.9-.66,3.32-2.71,6.35-2.17,10.03,6.08,1.85,1.4,9.1-4.04,7.16-.91-7.41,2.23-14.51,4.21-22.19l11.45-44.51c3.85-14.97,6.22-29.97,10.92-45.15,4.21-13.6,6.53-27.1,10.03-40.85l9.32-36.56c21.53-5.19,51.83-5.16,71.94-7.31,18.96-2.03,36.69-5.42,55.88-5.53-4.37.03,53.62-5.37,57.8-5.75l115.79-10.48,39.42-4.14,29.38-2.33,173.74-15.92,35.75-4.02c8.87-1,17.2-.94,26.13-1.88l33.55-3.52,52.64-4.26c-.63,22.16-6.39,42.3-9.33,62.16Z"/>
      <path class="cls-23" d="M48.85,623.48c-5.33.99-10.94,3.24-17,.36,2.96-9.97,3.07-19.4,7.32-27.11l-1.37,13.5c-.19,1.83,4.69.07,6.54-1.14l81.34-52.86c22.38-14.55,43.46-28.82,67.38-41.12l-147.87,107.21,3.65,1.16Z"/>
      <path class="cls-7" d="M50.47,552.13c3.98-14.25,5.02-29.59,11.27-42.93,1.43,4.94-2.76,9.19.49,16.27l131.14-59.31c-8.1,9.36-19.66,11.47-29.47,17.69-18.39,11.67-37.04,21.41-55.98,32.14l-45.14,25.58c-5.3,3-9.42,5.66-12.32,10.56Z"/>
      <path class="cls-27" d="M61.68,507.49c1.15-8.46,12.28-53.39,14.71-58.18.1,2.18-.61,4.72,1.22,8.1l79.71-24.65,89.99-26.28c-16.12,9.23-33.23,12.49-50.6,18.92l-123.9,45.88c-2.62,6.14-4.29,12.73-5.54,19.88l133.35-51.68c8.23-3.19,15.05-6.93,25.49-7.8l-164.43,75.81Z"/>
      <path class="cls-28" d="M153.36,613.57c3.58-.52,3.66.9.11,2.11-11.84,1.6-23.89,1.88-35.79,2.07,33.47-33.04,72.71-59.99,108.88-91.08l16.3-14c.38,6.66-6.17,7.59-9.72,11.05l-27.37,26.69c-22.88,22.32-47.37,41.49-69.8,64.81,6.9-.62,11.88-2.27,17.39-1.64Z"/>
      <path class="cls-12" d="M97.37,369.2v-1.87c2.8-9.88,4.8-20.1,7.35-30.01.1,2.72-.31,5.38.97,9.44l103.8-4.02c12.36-.48,23.87-3.52,35.45-.67-9.61,3.23-18.26,2.38-27.77,3.46l-116.31,13.15c-1.21,4.23-.67,8.64-3.48,10.52Z"/>
      <path class="cls-36" d="M97.37,369.2c1.68,8.25-7.61,16.91,3.77,15.57l116.16-13.64c-17.95,6.69-36.49,7.91-55.4,11.93l-71.8,15.25c-.38,2.48-1.42,2.43-1.51.05l8.79-31.04c.08.61-.12,1.27,0,1.87Z"/>
      <path class="cls-29" d="M42.68,581.92c1.43-7.57,3.65-14.95,5.72-22.36.36.32.98,2.37,1.71,2.62.65.22,1.61-1.77,3.05-1.68l87.47-45.33c-30.62,21.77-62.2,40.67-94,60.67-2.13,1.34-1.57,5.69-3.95,6.09Z"/>
      <path class="cls-11" d="M183.34,611.96c-2.8,2.82-16.02,1.85-29.87,3.72l-.11-2.11c4.19.48,6.72-3.9,9.95-6.97l96.45-91.56c-7.05,12.68-18.76,18.43-26.7,29.13l-61.76,65.98c3.8,2.93,8.26,1.79,12.04,1.81Z"/>
      <path class="cls-31" d="M116,617.57c.33.89-.59,1.72-1.93,1.78l-40.97,1.99c2-.95,7.26-.77,9.38-2.28l89.5-63.48c-18.21,17.18-37.22,32.25-56.48,48.19-4.99,4.13-10.03,7.01-13.5,12.94,5.88,1.58,9.96.27,13.98.85Z"/>
      <path class="cls-27" d="M78.59,438.25c.73-6.77,3.84-12.9,5.51-20.19l4.49-19.69c.66-.91,1.26-1.46,1.51-.05.38,4.43-.98,8.36-2.27,14.09l77.86-15.73,21.51-5.2c-3.04,5.92-9.28,4.54-14.81,6.12l-88.02,25.24c-1.34,6.34-1.45,12.35-5.77,15.41Z"/>
      <path class="cls-18" d="M241.3,599c-2.31,3.8-8.41,6.13-11.41,9.22-1.44,1.48-3.23,1.44-5.18,1.53-1.56-.66-1.41-1.25.29-1.76l79.43-93.36c-13.69,22.46-51.14,64.64-63.13,84.37Z"/>
      <path class="cls-9" d="M117.64,287.03c.36-1.4,1.28-2.44,1.82-3.68.82-1.87,4.34-5.15,4.04-7.16,17.41,5.9,35.9,8.17,54.28,13.21,8.17,2.24,16.57,1.4,24.59,6.31-27.18-1.28-58.11-8.9-84.74-8.68Z"/>
      <path class="cls-32" d="M213.08,610.33c.06,1.33-1.81,1.72-3.65,1.71l-26.1-.09,25.04-25.21,39.8-38.8c.94-.92-.2-3.46,1.36-3.4,1.27.05,2.16-.05,2.77,1.03.95,1.69-.56,1.89-1.69,3.15l-54.49,60.78,16.96.82Z"/>
      <path class="cls-32" d="M225,607.99l-.29,1.76-9.75.47c1.53-3.85,6.73-1.74,10.05-2.23Z"/>
      <path class="cls-31" d="M847.37,53.77l-120.3,97.49c-5.25,4.26-8.14,9.71-15.45,12.36l33.3-33.46,103.03-93.61c7.37-5.6,2.67,14.28-.58,17.21Z"/>
      <path class="cls-6" d="M256.25,88c1.11,4.66,5.09,7.36,8.52,11.28l59.97,68.31,24.84,29.36c-9.75-7.49-17.73-16.07-27.01-25.06l-85.3-82.69c6.02-.96,12.83.23,18.97-1.19Z"/>
      <path class="cls-15" d="M810.03,42.28c-27.72,30.85-57.92,59.45-87.85,89.34-10.66,10.65-20.45,20.27-31.82,30.2l39.87-46.45,29.21-32.14,37.76-40.55c-.39-4.37,1.83-5.11,5.63-3.7,3.03-1.97,8.81-1.35,7.2,3.29Z"/>
      <path class="cls-1" d="M152.12,164.62c.88-4.56.22-9.71,3.39-13.59l55.1,34.39c21.76,13.58,43.62,24.89,64.47,40.66l-111.33-55.55c-4.32-2.16-7.37-5.46-11.64-5.92Z"/>
      <path class="cls-9" d="M138.26,220.06c-.33-3.62,1.46-8.02,2.02-11.65l118.28,48.71c-3.31,4.85-7.04.23-10.79-1.01l-109.51-36.06Z"/>
      <path class="cls-24" d="M842.36,100.58c.83,2.91.73,9.21-2.4,11.26l-136.09,89.29,88.04-64.78c17.13-12.61,32.77-25.73,50.45-35.77Z"/>
      <path class="cls-22" d="M162.59,121.13c-.06-3.81,2.58-8.04,3.75-11.27l84.46,69-88.21-57.73Z"/>
      <path class="cls-21" d="M782.58,492.58c-1.76,2.95-.08,8.27-3.59,10.64-29.33-15.07-57.51-32.35-86.38-49.83-2.09-1.27-5.88-.45-5.09-4.33l95.05,43.52Z"/>
      <path class="cls-9" d="M125.67,266.16c.81-4.06.5-7.88,3.77-10.9l102.94,28.01c-3.32,4.69-7.68.48-11.64-.28l-76.84-14.64c-6.53-1.24-12.33-3.18-18.23-2.19Z"/>
      <path class="cls-26" d="M683.02,48.68c-11.09,19.19-22.39,38.43-35.06,57.51-8.35,12.57-14.31,25.63-24.28,36.76l40.03-77.35c3.07-5.92,6.9-10.98,6.95-17.13,4.1-.38,8.25-.37,12.36.21Z"/>
      <path class="cls-1" d="M147.76,182.75c-2.43-3.46.11-6.85,2.1-9.63,23.84,11.36,46.9,24.28,70.78,37.27,5.17,2.81,11.17,3.87,14.2,9.37l-87.08-37.02Z"/>
      <path class="cls-8" d="M788.05,440.53c2.94,2.49.95,6.42-.04,9.02l-109.45-41.65c17.79.4,31,10.99,47.54,13.63l61.96,19Z"/>
      <path class="cls-4" d="M726.21,48.27c-17.32,22.83-34.28,45.88-53.6,68.38l40.39-69.95c-2.17-.79-1.47-1.53,2.12-2.23.61-.05,1.27.11,1.87,0,4.83.1,7.9,1.37,9.23,3.81Z"/>
      <path class="cls-2" d="M776.02,43.22l-73.53,83.04,64.5-84.81c.65.11,1.42-.45,2.08-.43,2.71-.62,6.41-.78,6.95,2.2Z"/>
      <path class="cls-3" d="M784.15,473.54c-1.08,1.98.08,5.42-1.85,7.27l-99.26-47.82,101.11,40.55Z"/>
      <path class="cls-25" d="M810.3,318.36c-.94,2.45-2.75,5.42-2.25,8.19-13.17-1.01-26.48.41-40.59,1.14l-41.11,2.14c-9.02.47-17.15-.41-25.94,2.68-.18-2.79,1.63-4.11,3.54-4.29l106.36-9.85Z"/>
      <path class="cls-35" d="M261.5,596.6c-4.01,1.33-4.65.96-5.04-3.38,2-4.82,5.46-8.34,9.18-12.99,18.19-22.7,36.07-44.89,55.08-64.75-4.9,10.6-11.11,15.83-16.46,23.6-13.81,20.04-27.72,39.43-42.77,57.51Z"/>
      <path class="cls-16" d="M671.33,573.67c-3.21-1.01-9.42,2.85-12.36-1.09l-40.46-54.31c-3.28-6.79-11.14-9.5-12.94-18.41l52.99,58.29,12.77,15.52Z"/>
      <path class="cls-14" d="M157.68,147.65c-3.9-3.83.33-8.08,1.32-11.74-.57,3.74,26.97,21.5,32.08,23.93l52.2,36.19-85.6-48.38Z"/>
      <path class="cls-17" d="M847.21,80.12c-7.23,2.59-12.76,8.3-19,13.93l-87.06,66.18,103.44-85.12c2.2-2.29,2.91-4.89,4.91-6.38-.67,3.82.68,8.19-2.29,11.39Z"/>
      <path class="cls-19" d="M772.96,550.18c-.9,2.08-1.1,5.58-3.36,7.15-6.52-3.35-11.32-9.29-17.63-14.1l-46.7-35.59c-2.91-2.22-8.15-2.67-6.62-8.07,12.08,9.71,24.74,17.25,37.55,25.87l36.77,24.73Z"/>
      <path class="cls-34" d="M394.03,76.51l24.13,72.6c-13.48-25-21.45-50.29-35.24-72.93l11.11.32Z"/>
      <path class="cls-16" d="M716.82,570.82c-1.07,1.44-2.86,2.62-4.3,2.21-2-.58-4.06-1.27-5.28-2.53l-30.04-30.94c-8.24-11.99-22.02-17.68-29.14-32.08l68.77,63.33Z"/>
      <path class="cls-25" d="M806.99,333.59c-.68,2.02-.38,4.89-2.45,6.21l-53.68-2.32c19.74-3.23,37.9-3.35,56.13-3.89Z"/>
      <path class="cls-33" d="M723.77,550.55c.93,2.49-.23,3.39-2.79,3.3l-28.08-24.4c-4.58-3.98-9.33-7.06-11.89-11.91,11.58,5.37,19.89,13.3,28.9,21.06l13.86,11.94Z"/>
      <path class="cls-26" d="M633,51.93c.41,2.39-.79,4.28-2.88,5.39-1.1-3.89-7.3-5.05-8.64-1.92l-17.46,40.6,10.77-41.8,18.22-2.27Z"/>
      <path class="cls-26" d="M519.16,63.12c-.82,15.25-.99,30.6-4.71,46.92-2.42-15.77.56-31.29.98-46.92.96.15,2.84.36,3.73,0Z"/>
      <path class="cls-26" d="M593.81,55.66l-8.13,23.82c-3.01,7.96-3.01,16.42-8.84,23.15l11.58-44.96c1.66-.83,3.49-1.86,5.39-2.02Z"/>
      <path class="cls-19" d="M723.77,550.55c6.86,5.91,15.2,9.9,21.23,16.88.07,1.84-1.81,2.65-3.48,2.9-1.43.22-3-.59-4.41-1.33-5.75-4.67-10.67-10.41-16.13-15.15-.35-1.02-.24-2.24.71-2.7.72-.35,1.44-.5,2.08-.6Z"/>
      <path class="cls-26" d="M477.27,67.64c-2.1,6.66-1.24,14.23.84,21.71-.29,7.03.8,13.28-.69,20.67-5.11-9.7-1.15-32.44-8.25-41.39,2.55.03,5.13-2.79,8.11-.98Z"/>
      <path class="cls-9" d="M130.97,244.16c.86-.74.67-3.05,1.87-3.73,10.78,1.86,21.43,4.65,33.04,9.96l-34.91-6.22Z"/>
      <path class="cls-17" d="M850.7,55.08c-.99-.7-2.14-1.1-3.33-1.31-.5-12.06,6.66-15.51.58-17.21-.54-2.45-3.5-3.56-5.93-3.23,1.62-2.78,5.93-2.32,8.21-1.77,4.02.97,4.36,5.58,3.57,9.23l-3.11,14.3Z"/>
      <path class="cls-18" d="M261.5,596.6l.37,2.51c-3.52,4.97-10.69,8.69-15.04,3.43l9.64-9.32c2.16.17,4.71,1.15,5.04,3.38Z"/>
      <path class="cls-26" d="M817.42,35.73c-1.39,3.2-5.27,4.2-7.39,6.55-2.25-1.13-4.6-3.12-7.2-3.29-1.63-.57-1.61-1.24,0-1.99,4.99,0,9.59-2.3,14.58-1.27Z"/>
      <path class="cls-26" d="M580.44,56.06c-1.44,3.23-2.92,6.55-3.44,10.98.27,1.76.17,3.05-.93,3.57s-2.4.22-3.32-1.98c2.96-3.64,3.78-7.37,2.9-10.93,1.36-.92,3.16-1.35,4.79-1.63Z"/>
      <path class="cls-17" d="M802.84,37v1.99c-1.68.75-4.33,2.3-5.63,3.7-.06-.3.53-2.99-.47-3.28-5.12-1.49-9.87-.13-14.42-.54-.14-1.45,1.68-1.9,3.62-1.9l16.91.03Z"/>
      <path class="cls-8" d="M793.67,414.01c-.05,1.1-.48,2.92-.34,4.04-5.24-.47-10.04-2.6-15.04-5.34l15.38,1.31Z"/>
      <path class="cls-26" d="M780.44,38.86c-.49,2.29-3.1,2.86-4.42,4.35-2.36-.12-5.7.15-6.95-2.2,2.85-3.3,7.41-2.19,11.37-2.16Z"/>
      <path class="cls-26" d="M494.9,64.99c-.03.89.39,1.93-.47,3.91-3.87-1.23-7.18-2.44-10.73-2.04,2.99-2.97,7.35-1.79,11.2-1.87Z"/>
      <path class="cls-26" d="M730.05,44.46c-.22,2.12-2.84,2.49-3.84,3.81l-9.23-3.81c4.15-.79,8.99,1.07,13.06,0Z"/>
      <path class="cls-26" d="M715.12,44.46l-2.12,2.23c-2.4-.15-4.81-.37-7.22-.37,1.77-3.22,6.24-1.62,9.33-1.87Z"/>
      <path class="cls-26" d="M694.59,46.33c-1.81,3.18-6.23,1.64-9.34,1.99,1.58-3.34,6.22-1.99,9.34-1.99Z"/>
      <path class="cls-17" d="M828.96,33.26c-2.93.73-5.75,3.39-9.34,2.09,1.42-3.61,6.22-1.81,9.34-2.09Z"/>
    </g>
  </g>
</svg>