<?xml version="1.0" encoding="UTF-8"?>
<svg id="Capa_2" data-name="Capa 2" xmlns="http://www.w3.org/2000/svg" viewBox="0 0 1388.51 217.83">
  <defs>
    <style>
      .cls-1 {
        fill: #4482c4;
      }

      .cls-2 {
        fill: #f6fcfd;
      }

      .cls-3 {
        fill: #455668;
      }

      .cls-4 {
        fill: #c8c9c9;
      }

      .cls-4, .cls-5 {
        stroke: #000;
        stroke-miterlimit: 10;
        stroke-width: 3px;
      }

      .cls-5 {
        fill: #d79f2e;
      }
    </style>
  </defs>
  <g id="Capa_1-2" data-name="Capa 1">
    <g>
      <g>
        <path class="cls-3" d="M95.6,217.83C48.89,201.19,16.08,162.97,5.34,115.45.06,90.02-1.24,65.24,1.15,38.5,35.98,34.42,67.2,21.6,94.93,0c27.27,22.76,58.93,34.16,93.41,38.19,2.54,26.69.95,51.78-4.62,77.14-10.2,47.05-41.03,83.29-88.13,102.5Z"/>
        <path class="cls-1" d="M182.46,44.92c4.11,72.63-14.9,135.62-88.12,166.49C22.98,180.59,1.54,117.35,6.93,43.57c33.68-4.24,61.74-16.64,88.37-36.08,14.03,12.95,29.99,19.56,46.8,26.57l40.35,10.86Z"/>
        <path class="cls-2" d="M46.31,115.52c2.74-7.25,7.38-11.21,12.72-15.34l23.05,20.97,52.07-52.91c6.55,3.14,12,7.51,14.22,14.26l-65.58,67.45c-13.8-10.01-23.1-22.51-36.48-34.42Z"/>
      </g>
      <path class="cls-4" d="M1336.11,149.04c-97.05,1.2-185.52-1.01-272.69-.98,47.62-4.4,45.72-39.64,23.96-50.42-6.64-3.28-24.28-5.31-24.44-8.42l262.38.23c33.9.03,60.8,4.99,60.94,11.31l.76,36.26c.13,6.05-21.81,11.66-50.9,12.02Z"/>
      <path class="cls-5" d="M1094.25,91.54c11.79.7,10.23,46.55,6.46,52.33-1.94,2.96-3.04,3.64-6.38,4.26l-821.57,1.8c-6.08.01-10.1-4.48-10.45-10.38-.8-13.61-1-26.88.39-40.47.45-4.36,4.78-5.36,6.41-7.83l1.52-1.94c274.17-.2,548.34-.08,822.49.36l1.12,1.86Z"/>
    </g>
  </g>
</svg>