<?xml version="1.0" encoding="UTF-8"?>
<svg id="Capa_2" data-name="Capa 2" xmlns="http://www.w3.org/2000/svg" viewBox="0 0 403.47 36.28">
  <defs>
    <style>
      .cls-1 {
        fill: #ea982a;
      }

      .cls-2 {
        fill: #2c2f38;
      }

      .cls-3 {
        fill: #959595;
      }

      .cls-4 {
        fill: #facd1a;
      }
    </style>
  </defs>
  <g id="Capa_1-2" data-name="Capa 1">
    <g>
      <g>
        <g>
          <polygon class="cls-2" points="396.04 1.34 396.61 1.6 397.45 1.6 396.04 1.34"/>
          <path class="cls-2" d="M398.43,2.43l-1.81-.83-134.66.87c0-.13-.02-.28-.08-.38-.13-.2-.44-.24-1.25-.28H11.72s-7.89,30.93-7.89,30.93h166.1c.13.36.42.61.77.61h225.65s0,0,0,0h-.21l.21-.77v-.16h.04l4.33-28.29c.12-.42-2.65-1.69-2.29-1.69Z"/>
        </g>
        <path d="M402.43,1.32c-.71-.85-2.17-1.3-4.14-1.3L12.12,0c-2.79,0-4.6,1.4-5.03,3.15L.12,31.34c-.59,2.37.96,4.48,4.04,4.94l282.24-.22h103.61v-.08h2.66c2.01,0,3.65-1.78,4.03-3.34l6.69-28.09c.27-1.13-.32-2.45-.97-3.23ZM88,35.86c2.2-.02,4.4-.04,6.6-.07-2.27.2-4.45.18-6.6.07ZM393.35,27.42l1.06.58c.04,1.18-.08,2.19-.35,3.03.11-.98.12-2.03.35-3.03l-1.41.13c-.23,1.51-.63,2.94-1.2,4.3l-54.68.21-.04.09h-9.67l-.07-.09c-14.46.03-27.14.06-38.07.08,0,0-.01,0-.01.01h-106.47c-11.35,0-22.71,0-34.06,0H4.75s.04-.12.04-.12c-.01,0-.02,0-.04,0,2.21-9.71,4.55-19.37,7.03-28.98h1.96s0-.02,0-.02h269.16c.36,0,.72,0,1.08,0h13.4s.06,0,.09,0c33.82,0,67.64.04,101.45.12l-5.58,23.69Z"/>
      </g>
      <polygon class="cls-3" points="247.42 3.6 11.72 3.61 3.82 32.63 243.48 32.64 247.42 3.6"/>
      <g>
        <polygon class="cls-4" points="8.14 16.77 245.64 16.77 247.42 3.6 11.72 3.61 8.14 16.77"/>
        <polygon class="cls-1" points="8.14 16.77 3.82 32.63 243.48 32.64 245.64 16.77 8.14 16.77"/>
      </g>
    </g>
  </g>
</svg>