<?xml version="1.0" encoding="UTF-8"?>
<svg id="Capa_2" data-name="Capa 2" xmlns="http://www.w3.org/2000/svg" viewBox="0 0 230.97 436.62">
  <defs>
    <style>
      .cls-1 {
        fill: #983932;
      }

      .cls-2 {
        fill: #16171a;
      }

      .cls-3 {
        fill: #c18d7c;
      }

      .cls-4 {
        fill: #303136;
      }

      .cls-5 {
        fill: #f2b38a;
      }

      .cls-6 {
        fill: #585e6a;
      }

      .cls-7 {
        fill: #3a4a59;
      }

      .cls-8 {
        fill: #a73831;
      }

      .cls-9 {
        fill: #b45952;
      }

      .cls-10 {
        fill: #826145;
      }

      .cls-11 {
        fill: #666a76;
      }

      .cls-12 {
        fill: #6e6d73;
      }

      .cls-13 {
        fill: #b0564e;
      }

      .cls-14 {
        fill: #752926;
      }

      .cls-15 {
        fill: #a83531;
      }

      .cls-16 {
        fill: #727378;
      }

      .cls-17 {
        fill: #deddd0;
      }

      .cls-18 {
        fill: #9a3834;
      }

      .cls-19 {
        fill: #3a4c5c;
      }

      .cls-20 {
        fill: #44191c;
      }

      .cls-21 {
        fill: #ae3630;
      }

      .cls-22 {
        fill: #9e3a37;
      }

      .cls-23 {
        fill: #f1b48e;
      }

      .cls-24 {
        fill: #712726;
      }

      .cls-25 {
        fill: #747479;
      }

      .cls-26 {
        fill: #7c4d37;
      }

      .cls-27 {
        fill: #983935;
      }

      .cls-28 {
        fill: #69382e;
      }

      .cls-29 {
        fill: #9e3832;
      }

      .cls-30 {
        fill: #9f3833;
      }

      .cls-31 {
        fill: #be7f6d;
      }

      .cls-32 {
        fill: #f3efeb;
      }

      .cls-33 {
        fill: #341d10;
      }

      .cls-34 {
        fill: #975553;
      }

      .cls-35 {
        fill: #57463b;
      }

      .cls-36 {
        fill: #2b2f3d;
      }

      .cls-37 {
        fill: #594f4b;
      }

      .cls-38 {
        fill: #592d1b;
      }

      .cls-39 {
        fill: #dcb59e;
      }

      .cls-40 {
        fill: #aa3631;
      }

      .cls-41 {
        fill: #9a3831;
      }

      .cls-42 {
        fill: #9b3932;
      }

      .cls-43 {
        fill: #4e291c;
      }

      .cls-44 {
        fill: #84413f;
      }

      .cls-45 {
        fill: #78787d;
      }

      .cls-46 {
        fill: #37373a;
      }

      .cls-47 {
        fill: #5e2323;
      }

      .cls-48 {
        fill: #5e6369;
      }

      .cls-49 {
        fill: #7e6049;
      }

      .cls-50 {
        fill: #ba6f65;
      }

      .cls-51 {
        fill: #45191b;
      }

      .cls-52 {
        fill: #eecfb6;
      }

      .cls-53 {
        fill: #481c1d;
      }

      .cls-54 {
        fill: #5c2827;
      }

      .cls-55 {
        fill: #243346;
      }

      .cls-56 {
        fill: #592e2c;
      }

      .cls-57 {
        fill: #9f3c35;
      }

      .cls-58 {
        fill: #451b1d;
      }

      .cls-59 {
        fill: #8e3835;
      }

      .cls-60 {
        fill: #807f84;
      }

      .cls-61 {
        fill: #6f2826;
      }

      .cls-62 {
        fill: #0d0808;
      }

      .cls-63 {
        fill: #a4a6a6;
      }

      .cls-64 {
        fill: #43352e;
      }

      .cls-65 {
        fill: #84664e;
      }

      .cls-66 {
        fill: #856345;
      }

      .cls-67 {
        fill: #973534;
      }

      .cls-68 {
        fill: #532121;
      }

      .cls-69 {
        fill: #070202;
      }

      .cls-70 {
        fill: #b88476;
      }

      .cls-71 {
        fill: #6e6e72;
      }

      .cls-72 {
        fill: #462017;
      }

      .cls-73 {
        fill: #9d9da0;
      }

      .cls-74 {
        fill: #a83c36;
      }

      .cls-75 {
        fill: #a2a4a4;
      }

      .cls-76 {
        fill: #451a1b;
      }

      .cls-77 {
        fill: #f1b38d;
      }

      .cls-78 {
        fill: #866346;
      }

      .cls-79 {
        fill: #ab352f;
      }

      .cls-80 {
        fill: #2f3035;
      }

      .cls-81 {
        fill: #712724;
      }

      .cls-82 {
        fill: #675c54;
      }

      .cls-83 {
        fill: #56707c;
      }

      .cls-84 {
        fill: #856246;
      }

      .cls-85 {
        fill: #9fa3a6;
      }

      .cls-86 {
        fill: #5c2524;
      }

      .cls-87 {
        fill: #7d614b;
      }

      .cls-88 {
        fill: #994d46;
      }

      .cls-89 {
        fill: #7b2e2b;
      }

      .cls-90 {
        fill: #e3e3e3;
      }

      .cls-91 {
        fill: #a93b35;
      }

      .cls-92 {
        fill: #514138;
      }

      .cls-93 {
        fill: #b08e87;
      }

      .cls-94 {
        fill: #775b47;
      }

      .cls-95 {
        fill: #575d6a;
      }

      .cls-96 {
        fill: #471d1e;
      }

      .cls-97 {
        fill: #2d170c;
      }

      .cls-98 {
        fill: #576f7b;
      }

      .cls-99 {
        fill: #323236;
      }

      .cls-100 {
        fill: #662726;
      }

      .cls-101 {
        fill: #6c7175;
      }

      .cls-102 {
        fill: #be9080;
      }

      .cls-103 {
        fill: #d8d8d8;
      }

      .cls-104 {
        fill: #60656d;
      }

      .cls-105 {
        fill: #451b1c;
      }

      .cls-106 {
        fill: #913a34;
      }

      .cls-107 {
        fill: #a23c35;
      }

      .cls-108 {
        fill: #9c9a9c;
      }

      .cls-109 {
        fill: #202126;
      }

      .cls-110 {
        fill: #5b2524;
      }

      .cls-111 {
        fill: #a73833;
      }

      .cls-112 {
        fill: #6f7174;
      }

      .cls-113 {
        fill: #7d7978;
      }

      .cls-114 {
        fill: #5d544d;
      }

      .cls-115 {
        fill: #441918;
      }

      .cls-116 {
        fill: #9e9ea0;
      }

      .cls-117 {
        fill: #a53631;
      }

      .cls-118 {
        fill: #bb645d;
      }

      .cls-119 {
        fill: #c08272;
      }

      .cls-120 {
        fill: #bc8c7c;
      }

      .cls-121 {
        fill: #9e3632;
      }

      .cls-122 {
        fill: #b48270;
      }

      .cls-123 {
        fill: #b67c6e;
      }

      .cls-124 {
        fill: #b13730;
      }

      .cls-125 {
        fill: #56707d;
      }

      .cls-126 {
        fill: #f0b28b;
      }

      .cls-127 {
        fill: #735b49;
      }

      .cls-128 {
        fill: #702726;
      }

      .cls-129 {
        fill: #421818;
      }

      .cls-130 {
        fill: #4e2424;
      }

      .cls-131 {
        fill: #614939;
      }

      .cls-132 {
        fill: #451a1c;
      }

      .cls-133 {
        fill: #44191b;
      }

      .cls-134 {
        fill: #55727f;
      }

      .cls-135 {
        fill: #633232;
      }

      .cls-136 {
        fill: #c28877;
      }

      .cls-137 {
        fill: #72302d;
      }

      .cls-138 {
        fill: #75757a;
      }

      .cls-139 {
        fill: #585f6b;
      }

      .cls-140 {
        fill: #712725;
      }

      .cls-141 {
        fill: #381912;
      }

      .cls-142 {
        fill: #120c0d;
      }

      .cls-143 {
        fill: #ba625b;
      }

      .cls-144 {
        fill: #79797e;
      }

      .cls-145 {
        fill: #634e40;
      }

      .cls-146 {
        fill: #a13834;
      }

      .cls-147 {
        fill: #8b3b38;
      }

      .cls-148 {
        fill: #9a3632;
      }

      .cls-149 {
        fill: #301611;
      }

      .cls-150 {
        fill: #526a77;
      }

      .cls-151 {
        fill: #7b6b60;
      }

      .cls-152 {
        fill: #883532;
      }

      .cls-153 {
        fill: #5d3829;
      }

      .cls-154 {
        fill: #a53832;
      }

      .cls-155 {
        fill: #5b2322;
      }

      .cls-156 {
        fill: #722926;
      }

      .cls-157 {
        fill: #30180e;
      }

      .cls-158 {
        fill: #664d3c;
      }

      .cls-159 {
        fill: #b38776;
      }

      .cls-160 {
        fill: #e7e8e7;
      }

      .cls-161 {
        fill: #5d4838;
      }

      .cls-162 {
        fill: #0c0202;
      }

      .cls-163 {
        fill: #9f4340;
      }

      .cls-164 {
        fill: #411a1c;
      }

      .cls-165 {
        fill: #545a66;
      }

      .cls-166 {
        fill: #6e6e73;
      }

      .cls-167 {
        fill: #b2342f;
      }

      .cls-168 {
        fill: #c28372;
      }

      .cls-169 {
        fill: #5c4536;
      }

      .cls-170 {
        fill: #57231c;
      }

      .cls-171 {
        fill: #a23631;
      }

      .cls-172 {
        fill: #2a0a0a;
      }

      .cls-173 {
        fill: #a13f39;
      }

      .cls-174 {
        fill: #471a1c;
      }

      .cls-175 {
        fill: #ebebdf;
      }

      .cls-176 {
        fill: #110202;
      }

      .cls-177 {
        fill: #cdcdd0;
      }

      .cls-178 {
        fill: #493f3a;
      }

      .cls-179 {
        fill: #6f6e6c;
      }

      .cls-180 {
        fill: #9fa1a5;
      }

      .cls-181 {
        fill: #e4e4e4;
      }

      .cls-182 {
        fill: #b69d84;
      }

      .cls-183 {
        fill: #394c5c;
      }

      .cls-184 {
        fill: #a03d36;
      }

      .cls-185 {
        fill: #722b29;
      }

      .cls-186 {
        fill: #a43732;
      }

      .cls-187 {
        fill: #491c1b;
      }

      .cls-188 {
        fill: #471b1c;
      }

      .cls-189 {
        fill: #d2d2d2;
      }

      .cls-190 {
        fill: #cecfce;
      }

      .cls-191 {
        fill: #826146;
      }

      .cls-192 {
        fill: #471a1b;
      }

      .cls-193 {
        fill: #634939;
      }

      .cls-194 {
        fill: #836145;
      }

      .cls-195 {
        fill: #632525;
      }

      .cls-196 {
        fill: #856347;
      }

      .cls-197 {
        fill: #28130a;
      }

      .cls-198 {
        fill: #bf8e7f;
      }

      .cls-199 {
        fill: #180905;
      }

      .cls-200 {
        fill: #250d0a;
      }

      .cls-201 {
        fill: #3d2a1f;
      }

      .cls-202 {
        fill: #32120c;
      }

      .cls-203 {
        fill: #6b5848;
      }

      .cls-204 {
        fill: #953937;
      }

      .cls-205 {
        fill: #cccbc1;
      }

      .cls-206 {
        fill: #481b1c;
      }

      .cls-207 {
        fill: #ba8c7a;
      }

      .cls-208 {
        fill: #3f4f5d;
      }

      .cls-209 {
        fill: #683323;
      }

      .cls-210 {
        fill: #b2352e;
      }

      .cls-211 {
        fill: #785c45;
      }

      .cls-212 {
        fill: #5b5654;
      }

      .cls-213 {
        fill: #46191b;
      }

      .cls-214 {
        fill: #ad816f;
      }

      .cls-215 {
        fill: #ececeb;
      }

      .cls-216 {
        fill: #702825;
      }

      .cls-217 {
        fill: #020203;
      }

      .cls-218 {
        fill: #5f4535;
      }

      .cls-219 {
        fill: #a0a4a7;
      }

      .cls-220 {
        fill: #6b2829;
      }

      .cls-221 {
        fill: #382213;
      }

      .cls-222 {
        fill: #7d5e4b;
      }

      .cls-223 {
        fill: #b56b5e;
      }

      .cls-224 {
        fill: #6d5849;
      }
    </style>
  </defs>
  <g id="Capa_1-2" data-name="Capa 1">
    <g>
      <g>
        <path class="cls-217" d="M62.87,151.93l3.69.1c5.47,2.53,7.07,2.04,4.81-1.46,2.51.3,4.99.92,7.43,1.88l1.38-.84c1.32-.46,1.4-1.21.2-1.94.07-2.29-4.58-3.31-6.63-3.57-2.02-.26-4.79-.25-6.13,1.42-1.91-2.47,1.56-5.86,3.6-7.44,2.52-1.09,4.39-2.61,5.62-4.57,1.22.11,1.85-.95,1.4-1.98l1.45-.82c-.23-6.48,5.86-9.05,11.24-10.69,1.43-.44,6.55-1.91,4.83.13-7.75,1.17-14.6,7.16-5.4,13.39,17.74,10.41,34.49,23.3,48.12,38.62.83.8,1.73,1.12,2.72.98-1.16,1.61,2.8,5.57,4.47,5.31,1-.15,4.03-4.29,2.59-5.34,2.67-1.49,4.8-3.81,6.41-6.98,12.94-8.68,22.36-31.55,3-38.64-.16-.06-.43.19-.74.53l-.53,1.54c13.15,8.98,7.92,20.91-1.03,31.2,2-3.98,6.23-21.68,3.12-24.59-1.4-1.31-3.07.28-2.93,1.96-1.04-3.05-.93-6.32.34-9.82l-1.22-1.44c1.36-.22,1.24-.75.06-1.34l1.38-.7c5.58,2.09,11.64,6.72,14.37,12.08l1.68.61c.09,5.86.14,8.79.14,8.79,2.21-.33,1.86,1.23,1.36,2.88-1.47,2.31-1.7,4-.66,5.06,1.22,1.61,3.79.59,3.35-1.34,6.49,4.1,12.87,8.42,19.13,12.95.5,1.33,1.29,1.97,2.36,1.94.31,1.46,1,2.92,2.05,4.4l1,7.35,1.48,1.02c-1.9.76-1.27,5.94.83,5.96l.45,8.05c-1.81.14-1.83.98-.04,2.52-.08,2.93-.22,5.89-.42,8.88l-1.3,1.37c-.32,8.32-.18,16.65.43,24.99.58,6.45.91,12.88.99,19.3,1.87,3.51,2.37,4.65,2.72,8.27.06.57.55.94,1.08,1.16-1.89-.08-2.42,1.36-.59,1.96-.74,1.18.11,2.52,2.58,4.03,1.43,1.76,2,4.95.14,6.3.06,1.74.94,3.22,2.65,4.42.53,3.27.85,6.6.96,9.97,1.41,2.7,1.62,5.19,1.65,8.16-.45-.17-.68.05-.68.68-1.57-1.18-2.45-.78-2.43,1.21-.58.61-.66,1.56-.21,2.86l-1.27.91,3.01,32.69c2,12.42,3.5,24.88,4.51,37.39-1.25,4-2.3,8.06-3.13,12.17-1.07.29-1.79-.61-2.16-2.71l-.07-10.71c.52-2.33.39-4.54-.39-6.63,2.29-.07,3.54-6.34,1.16-6.59-2.92-.31-5.53,11.35-5.43,14.13-.31-1.12-.96-1.59-2.19-1.58-.43-5.41-2.23-9.89-5.4-13.45-1.18-1.34-2.09-.79-2.47.91l-1.48.62c-1.68,2.8-3.47,5.46-5.39,8-.37-1.35-1.04-1.39-1.59-.1-.36-.8-.71-1.09-1.02-.87l-5.66-21.03c-.48-1.52-.87-2.51-2.44-1.51-2.41-1.83-6.11,1.25-7.58,3.33l-2.82-.26c-10.61,4.33-22.08,6.6-33.55,5.65l-2.62,1.08c-.69-1.93-3.95-1.78-4.76-.06-3.03-2.3-3.8,6.53-.61,4.2l1.09.92c6.47.74,12.91.62,19.32-.37-.14,1.43.28,2.3,1.27,2.61l.42,2.29c-.48.76-.82,1.58-.84,2.48-.06,1.88.53,8.05.91,9.96.18.88.69,1.63,1.29,2.29-2.53.41-2.48,8.65.21,7.09-.06.07-.13.13-.19.2-2.64-.08-5.36,3.65-5.51,6.51l1.48,13.75-1.3.85c.5,9.89.98,19.83,1.45,29.79h4.79l-.8-15.47,11.46,15.47h5.97c-5.49-7.6-10.93-15.28-16.32-23.05-.57-3.79-.7-7.62-.39-11.48l10.26,15.31c3.45,3.32,4.73,1.62,2.54-3.11l-8.33-12.5,7.2,2.47s.57-.29,1.71-.87c0,.36.03.69.18.96.44.75,11.45,3.98,13.01,4.19.38.05.73-.65.93-1.13,1.26.23,1.85-.14,1.12-1.12-8.68-3.96-17.34-7.48-25.98-10.58,2.79-1.45,23.45-13.73,22.82-14.94-1.02-1.97-5.62-.26-7.4.63-7.09,4.25-6.71,2.96,1.12-3.88,1.51-.57,5.74-8.38,4.3-7.93-2.5.77-6.03,2.67-8.38,4.04-4.9,2.85-10.87,7.05-14.97,11.08,1.22-1.84,1.47-5.63.17-6.68l.26-2.9c1.44-2.16,1.66-4.94.63-8.33l-1.45-8.3c.18-.31,6.86-1.41,7.11-1.16,1.16,1.16.71,14.69-1.49,16.75l.57,1.72c3.81,1.21,5.03-4.87,5.37-7.87.2-1.78.62-7.15-1.34-6.9-.68-1.61-.45-2.63.7-3.06l.06-1.79c5.33-1.39,10.21-3.45,14.64-6.17,2.37,7.26,5.67,16.69,9.98,23.02,2.52,3.7,7.89-5.67,8.88-7.47,1.19,1.51,2.56,2.68,4.09,3.53l.13,3.34c10.36,20.58,18.82,42.1,25.34,64.21h5c-4.21-15.57-9.49-30.62-16.26-45.27,2.34-6.01,7.01-11.74,6.81-18.24-.65-21.91-6.97-46.8-6.96-69.8,4.25-3.73,4.99-9.05,2.87-14.27-1.5-3.7,2.81-4.43-3.77-12.85-.15-3.95.11-7.82-4.01-10.34,2.87-4.01,1.14-7.01-.69-10.83-.95-1.98-2.42-6.33-2.15-8.66,1.01-8.47-.92-15.94-.73-24.25l.7-31.02c.14-6.24-1.11-12.03-3.02-17.95-3.99-12.36-15.97-14.79-25.32-22.15.69-3.25-1.25-5.99-2.17-8.58-1.72-4.86-2.77-9.28-7.27-12.48-4.13-2.93-8.52-5.75-13.27-7.94.47-9.79,2.69-8.12,3.87-9.73,2.84-3.91,3.87-8.88,7.02-12.67,12.08-14.51,5.79-13.33,10.64-23.54,3.07-6.46,4.8-13.16,4.71-20.22,1.29.33,1.97,1.67,3.04,1.14.57-8.34-1.7-16.34-6.39-23.21,1.91-.26,2.92,1.6,5.43,1.75-2.07-7.1-8.29-11.89-15.55-12.34-.17-10.31-6.88-17.31-16.5-20.73-1.25,1.69,4.93,6.21,4.58,9.57-12.39-10.06-23.39-5.34-37.76-12,.11,3.18,1.99,4.51,3.93,6.99-12.03.67-18.32,4.8-31.09,4.67-2.73-.03-5.13-1.24-7.91-.95,1.39,4.49,5.32,6.46,9.54,8.79-11.61,5.27-14.18,13.95-27.1,13.95,2.11,5.3,7.44,6.67,12.78,7.28-5.05,7.37-7.16,15.94-5.18,24.67,2.46-2.12,2.98-4.97,5.05-7.17-.31,6.85.79,13.44,5.07,18.61,1-2.73-.37-4.85,1.3-7.1,6.84,16.51,3.98,6.93,4.6,22.87.34,8.65,3.49,16.3,7.43,24.08-30.23,4.99-16.41,14.92-25.66,18.16-6.35,2.23-9.27,8.02-9.69,14.31-1.38,1.04-3.27,2.1-3.16,3.78-2.52,3.65,5.38,1.27,4.11-1.01Z"/>
        <path class="cls-217" d="M8.12,293.03c7.19,6.51,15.38,5.72,18.97,7.83,3.05,1.8,5.41,3.74,10.07,3.02-2.9,4.93-3.87,9.95-6.13,14.97-1.27,2.2-4.3,3.71-5.32,6.6l-5.41,15.31c-3.07,8.68-7.18,16.82-9.9,25.52-1.28,4.09.95,6.55,2.52,9.66.65,9.39-5.85,20.33,4.23,28,4.91,3.74,10.01,6.88,15.31,10.22,9.3,5.86,18.92,10.8,29.51,14.04,8.14,2.49,16.31,2.25,24.65,1.83.53,2.25,1.08,4.43,1.64,6.57h5.43c-.56-2.09-1.1-4.18-1.63-6.28l2.93-2.1c.41,2.08.81,4.08,1.51,6.11.16.46,1.2.48,1.89.48l1.13-1.18-1.95-9.51c3.03-13.16,5.2-26.44,6.53-39.83,4.5,1.38,18.84,5.42,22.37,1.84,1.18-1.2,1.31-2.34-.37-2.94.2-2.58-1.65-2.51-2.05-.21-.84-1.79-5.65-2.8-6.87-1.11-.1-.64-.36-.71-.76-.2l-1.25-1.59-9.37-3.15-1.93.73c-.54-3.01-1.44-4.05-2.7-3.12l-1.76,2.04c-1.47,15.76-4.35,31.24-8.63,46.44-.48,1.33-1.62,1.98-2.95,2.17-10.77,1.53-25.83.29-35.38-5.27l1.97-1.98s1.21-5.28,3.64-15.84c4.04,1.16,11.36.72,10.9-4.76,2.01-1.27,2.77-3.3,3.35-5.52,4.06-13.55,8.26-26.94,12.58-40.18,1.47-.48,1.43-1.85.1-2.77.61-1.82-.52-2.66-1.87-1.26-2.59,1.26-4.35,3.74-5.28,7.46-4.01,12.37-7.81,24.75-11.41,37.13-1.81,4.47-3.54,6.85-8.53,3.82l2.91-15.46c-.7-3.51-7.15-6.35-9.23-3.97-1.15,1.32-4.69,13.67-4.55,15.35l.62.87c-7.19-4.01-14.5-7.88-21.93-11.62.19.06.45.15.57.03.97-1.03,4.07-15.25,3.48-16.82-1.78-4.68-9.11-4.84-9.43,1.4l-2.5,8.9c-1.06-1.23-2.13-1.8-3.2-1.7-1-2.67-.87-5.52.4-8.54,5.33-12.91,10.45-25.87,15.34-38.88,1.49-2.48,3.84-4.25,6.44-5.46.43,1.25,1.05.99,1.84-.8l1.16,1.24c6.54-1.44,11.45.38,16.57,4.49l1.84-.36c3.69,1.58,5.19,1.56,4.49-.07l-.2-1.72c-4.32-3.48-9.04-6.25-14.16-8.31,1.53-6.54,4.53-11.53,10.81-14.53.62-.29,6.12-1.14,6.3-.88,1.19,1.65-1.22,11.73-2.17,14.15-1.04,2.78-.73,4.54.93,5.27.14.78.55,1.26,1.15.99,1.48-.67,4.26-13.28,4.1-16.03,1.28-2.6,6.21-2.72,8.98-2.66,8.5-3.7,17.15-5.59,25.94-5.65.75,1.87,4.6,2.14,4.6-.07,2.55-.24,4.64-.5,6.02-3.31,2.02.34,2.98-1.23.92-2.03.73-2.37-1.09-2.83-5.45-1.38-1.93.2-3.73-.01-5.4-.65-.5-2.66-4.94-2.16-7.2-1.76-15.23,4.04-30.7,7.03-46.43,8.95l-2.81,1.48c-1.48,1.02-.62,1.74.58,2.55,2.91.95,2.84,1.93.11,2.91l-1.34-1.3c-4.47-.99-8.92-1.43-13.33-1.32-1.72-.75-3.07-.74-4.05,0-2.39-3.13-4.14-3.85-5.26-2.15-4.46-.48-8.94-1.63-13.45-3.47-3.66-6.64-5.5-9.96-5.5-9.96-1.84-1.28-3-.81-2.07,1.43.84,2.65,1.34,5.65,3.75,7.83Z"/>
      </g>
      <path class="cls-85" d="M172.2,347.65c-12.29,5.4-25.62,8.13-38.99,6.46-2.57-2.02-1.29-7.24-.39-10.19,12.84.29,25.52-1.34,37.96-4.27,2.95,1.25,5.35,6.58,1.42,7.99Z"/>
      <path class="cls-219" d="M168.8,249.58c-1.75,9.8-2.76,19.9-3.03,30.3-1.7,14.52-11.37,25.92-22.91,33.64l.5.51c8.13-3.15,15.25-8.59,20.74-15.33l.91-.1,1.59.09c2.01,9.61,3.91,19.44,5.72,29.48-4.27,5.69-32.44,12.39-36.87,9.47-1.28-.84-1.43-11.55,3.21-8.76l1.11-.72c5.95.02,11.84-.21,17.68-.7l.24-1.43c-15.35-2.2-23.02-3.3-23.02-3.3-1.23-.01-1.8-.52-2.22-1.44-1.4-3.04-1.07-26.22-.76-29.64s.65-7.22,3.5-9.09c3.29-.79,2.83-4.14,3.89-6.58,1.27-2.92,2.54-4.74,2.58-8.38.02-2.44,2.03-4.86,1.37-7.91-.23-1.06,2.42-1.7,2.97-2.18.19-.51.54-.89,1.09-.93,3.31-.21,6.6-.37,9.92-.46,6.3-.23,12.04-9.23,9.89-15.19-.21-9.36-.47-19.11-2.07-28.24-.98-1.04-.61-1.43.63-.71.49-.02,2.2-.44,2.48.14,1.36,12.69.77,25.06.86,37.46Z"/>
      <path class="cls-75" d="M157.46,202.63l-.09.8-.34.73c-2.18.06-3.77.21-4.78.45-.9,2.17-.94,4.78-.14,7.84.71.78,1.69,1.42,2.96,1.92.42,8.66,1.03,17.21,1.85,25.64,1.74,7.82-11.62,9.15-14.65,3.95l-2.18-29.26c4.2,1.02,2.8-9.14,2.28-9.35-.04-.02-.2.35-.39.82-1.12,1.74-4.29,1.75-5.37-.04.04-7.83-2.1-15.73-2.64-23.64-.65-6.6,6.98,6.72,20-3.12l2.19,21.92c.06.56-.09,1.08.32,1.3.25.14.68.06.97.03Z"/>
      <path class="cls-55" d="M165.47,211.98c-.21.17-.65.37-.63.71,1.09-.16,1.31.83.66,2.98l1.4,25.16c1.67,4.61-1.01,9.54-4.23,12.8-2.94,2.97-9.2,3.09-13.33,2.74-.19-.02-.36-.3-.52-.66.45-.98-1.79-.37-1.97-.82-.83-2.04-2.84-2.73-3.99-4.01-7.1-7.87-11.31-3.11-11.6-5.5l.44-.81c-1.12-5.69-1.3-11.58-1.42-17.39,0-.47.65-.81,1.18-1.03.41-.39.39-1.06.86-1.39.85,1.46,2.05,1.97,3.28,1.4.69-.32.9-1.54.9-2.72l.1-17.31c1.79-.17,3.58-.21,5.37.04,1.07.39,1.21,6.54.85,7.23-1.24.48-2.14,1.14-2.7,1.97l1.98,28.04c1.78,5.59,15.92,4.86,14.81-2.49l-1.83-26.2-.56-.88c-3.02.92-3.54-7.77-3.04-8.98.18-.45,5.56-1.22,5.81-.03l2.04,18.02c.1.88.65,1.68,1.19,1.85,1.01.32,1.92-.18,2.37-1.22.69-1.61-.03-3.25.17-4.91,1.17-10.13-1.46-12.47,2.51-14.01.2-1.83.6-1.96,1.84-.61-.35,1.92.38,3.85.34,6.13-.02,1.24-1.65,1.39-2.28,1.9Z"/>
      <path class="cls-138" d="M132.62,327.6c.81-.21,6.02.1,6.14.39.1.24.02.55-.1.88-.5.2-1.95.07-2.13.92-.51,2.34-.3,4.53-.43,7.01,11.77-.15,25.33-2.43,35.11-9.06-1.25-6.68-2.57-12.51-4.12-18.65-.92-3.65-.18-7.58-2.08-10.5h-.83c-5.51,6.79-12.65,12.28-20.82,15.44-.73.26-1.6,1.94-2.8.62l10.32-9.31c6.25-5.64,11.24-13.8,12.99-22.33,1.96-9.6,1.03-19.1,2.5-28.72.29-1.94,1.24-3.52,2.43-4.71l.24,34.16c1.02,15.81,3.65,33.01,7.64,48.21-11.21,7.12-35.03,10.68-47.46,7.97l.69-12.33c1.02-.45,2.08,0,2.71,0Z"/>
      <path class="cls-25" d="M135.19,282.56c.14,2.69-2.27,4.81-2.78,7.47-.91,4.73-.7,9.77-.28,14.63l1.42,16.46c8.9,2.01,17.36,2.72,26.46,4.03.29,1.4-1.44,2.06-2.55,2.31-7.89.81-15.84.81-23.86,0l-.3-.66c-.8.12-3.09.12-3.22-.8l1.04-24.18.23-18.32,3.84-.92Z"/>
      <path class="cls-175" d="M157.37,203.42c-.05.45-.12.96-.07,1.42l-5.22.45c.23,2.33-.02,4.54.61,6.71.29.99,2.04.91,2.92,1.27l1.34,20.85c.16,2.52,2.26,12.28-2.88,12.77l-6.65.63c-3.03.29-5.92-1.44-6.13-4.61l-1.9-28.7c.23-.77,2.52-.53,2.95-1.1.33-2.19-.36-4.81-.38-6.94-.89-2.03-3.33.13-5.67-1.44,1.98-.84,4.43-.6,6.78-.27.55,3.28.26,6.24.21,9.65-.01.69-1.68.69-2.54,1l1.77,25.78c.13,1.93.3,3.42,1.49,4.42,2.09,1.75,10.29,1.4,11.52-1.08,1.75-3.52.03-7.58-.04-11.28-.13-6.29-.55-12.13-1.04-18.22-1.21-.63-2.21-.62-3.19-1.3l-.39-9.33c2.33-.78,4.47-.47,6.49-.66Z"/>
      <path class="cls-17" d="M146,257.51c.18-.54.19-1.4.67-1.56.86-.28,1.51-.16,2.15-.24,3.63-.45,8.02.39,11.63-1.12,2.72-1.5,3.86-5.24,6.26-7.45l-1.88-34.45c.78.12,1.58-.3,2.76.27-1.12.62-1.8,1.55-1.57,3.05.76,5.05,1.64,19.42,1.41,24.82,1.56,3.63.55,7.22-2.11,10-1.44,1.5-2.36,4.73-4.54,5.34-4.89,1.37-10.02.32-14.78,1.33Z"/>
      <path class="cls-99" d="M157.46,327.45c-6.19,1.36-12.47,1.44-18.79,1.42-.78-1.66-6.47,0-6.04-1.27.32,0,.61-.56.67-.82.94-.14,2.17.64,3.38.64,5.41-.02,10.57.22,15.96-.11,1.68-.1,3.8-1.5,4.82.14Z"/>
      <path class="cls-83" d="M149.95,363.69c1.13,4.8,1.57,9.79,1.35,14.73-6.96.93-14-.65-21.19-1.79l.68-8.82c3.53.33,6.66.75,9.89.57.33-.57,1.15-.6,2.47-.11l.22-.56-11.44-4.11c-1.87-1.76-1.9-2.45.85-3.06,5.19.16,10.35-.09,15.47-.74,1.01.51,1.58,1.8,1.7,3.89Z"/>
      <path class="cls-98" d="M168.66,364.94c1.35,1.94-1.59,3.51-3.32,4.41.58.97,1.09,1.97,1.52,3-3.11,2.16-6.33,5.38-10.08,5.66l1.34-2.24c2.54-1.54,4.02-4.73,4.03-7.89v-6.88c0-.59-.23-1.87.18-2.61,2.91-.12,14.18-5.24,13.6-2.44-.38,1.85-5.77,4.65-7.68,6.59-.89.91-1.2,1.78-3.19,1.82,1.2,2.06,2.41.12,3.61.57Z"/>
      <path class="cls-208" d="M149.95,363.69c-.59-.59-.54-1.34-.81-2.73-5.96,1.41-11.77.56-17.89,1.03,4.17,2.76,8.38,3.71,12.11,5.74-.21.26-.41.47-.64.49-.84.06-13.26-3.72-14.96-4.35-1.34.74-1.2-.59-.36-1.51.78-1.26-.11-2.85.44-4.1.45-.35,1.14-.53,1.99-.44,6.31.64,12.53.66,18.79-.17,1.87,1.84.89,4.24,1.32,6.05Z"/>
      <path class="cls-217" d="M127.4,362.35c-.07.3-.2.7.04,1.18l9.16,2.21c2.24,1.17,4.52,1.78,6.77,1.98l2.1,1.14c-1.98.61-3.25-.55-4.78-.47-2.25-1.7-8.18-2.05-13.07-4.32-.64,1.79-.29,3.4-.5,4.99-2.69-1.09-.03-4.63-.47-8.11.75.33.57.97.76,1.4Z"/>
      <path class="cls-125" d="M166.86,372.35c-.87-.44-1.89-.84-2.4-1.4s-.7-2.45.08-2.73c2.18-.8,2.92-2.09,4.13-3.28,2.32-2.28,5.79-2.95,9.23-5.07,1.95,4.89,3.77,8.85,6.92,13.49-4.08,2.13-7.91,3.65-11.93,4.89.66-2.72,8.95-9.95,6.48-10.83-.27-.1-11.32,4.88-12.51,4.92Z"/>
      <g>
        <path class="cls-180" d="M95.77,122.16c-3.03,1.4-7.64,2.73-8.44,6.66-.49,2.44,2.83,5.13,4.88,6.32,15.52,9.03,29.23,19.68,41.9,32.36,2.64,2.64,4.73,5.17,7.09,7.65,2.07,2.82-.92,2.31-3.14,1.54-3.01-1.04-6.3-2.84-5.88-6.39l-1.09-2.66c-.96-.29-1.6-1.4-2.87-1.07-1.12.3-2.06.74-2.44,1.89l-1.29.87-45.63-22.36c-2.92-1.13-6.12-1-9.18-.73l-.72-.66c-1.21-.91-1.08-2.17.38-3.77,2.82-1.83,5.32-3.93,7.51-6.3-.07-.8.8-1.62,1.4-1.98.82-.39,1.62-.41,1.8.42,1.25-5.75,3.4-9.04,8.98-11.29,1.85-.75,5.71-2.3,6.75-.52Z"/>
        <g>
          <path class="cls-112" d="M98.64,150.88c-2.93-2.42-6.04-4.59-9.32-6.52l.36-.79c2.89.17,16.8,9.98,19.41,13.29-4.05-.86-7.77-3.21-10.45-5.99Z"/>
          <g>
            <path class="cls-16" d="M125.78,168.47c.02,1.31,1.53,2.22.87,3.96-15.43-8.61-30.79-15.75-46.27-22.77-3.23-1.46-9.77-3.59-12.76-2.14-1.82-1.03-.54-2.78,1.33-1.93,3.81-1.1,7.64-1.29,11.44.6l19.57,9.76,25.82,12.52Z"/>
            <path class="cls-189" d="M95.77,122.16c-3.69.03-7.72,1.35-10.56,4.19-4.85,4.85-3.3,12.14-5.89,10.43-.75-.49.07-2.52-1.07-3.24.35-2.86.66-6.72,3.41-8.61,3.92-2.69,16.55-6.3,17.66-4.78.24.34.68,1.45.2,1.63-1.27.49-2.59.38-3.75.39Z"/>
            <path class="cls-103" d="M76.84,135.52c.45,5.38-5.77,3.01-7.89,10.07-.35.59-1.23,1.14-1.33,1.93-.49.24-2.03.96-2.06.13-.23-6.86,6.58-9.69,11.27-12.14Z"/>
            <path class="cls-2" d="M89.67,143.57c.36.99,1.55,1.56,2.6,2.03,2.88,1.29,4.63,3.48,6.36,5.28l-13.41-8.29c-2.8-1.73-5.88-2.21-8.44-4.21,5.34-.44,10.76,5.07,12.89,5.2Z"/>
          </g>
        </g>
      </g>
      <path class="cls-109" d="M165.01,298.59c-5.6,6.26-13.22,13.64-21.65,15.44,7.4-4.16,14.78-8.32,20.11-15.46.27-.36.39-.72.67-1,.29-.3.47-.47.71.03.17.34.03.79.16.99Z"/>
      <g>
        <path class="cls-23" d="M211.17,302.67l2.74,30.16c1.25,13.77,4.4,26.96,4.86,40.81.14,4.45-3.4,8.32-4.47,12.2-.87.15-1.39-.26-1.62-1.09.66-6.49.33-12.81-.99-18.96.22-1.84,1.19-3.27,1.33-6.02-3.41,5.23-4.54,11.32-4.32,18.37-1.55-2.07-2.52-4.23-3.48-6.4l-3.25-16.4c.93-4.8,1.91-9.58,2.95-14.35-4.04-12.07-8.31-24.9-9.12-37.69.31-3.21,4.43-4.95,7.29-5.8,5.8-1.73,8.18-1.01,8.09,5.17Z"/>
        <path class="cls-119" d="M61.54,267.68c-.63,1.3-1.92,1.74-3.85,1.33-4.04,5.57-5.17,11.63-4.71,18.26,14.06-.88,28.11-2.67,42.14-5.38,6.25.33,12.26,0,18.04-.95,4.22-2.65,8.61-4.27,13.17-4.84,4.19,1.38,7.4,1.26,9.64-.37,1,.79.44,2.22.09,3.17-1.3,3.58-8.81,1.38-11.16,2.63-4.72,2.51-8.97,5.54-14.5,6.18-1.62.19-3.92.55-5.3.12-3.52-1.1-6.65-.74-10.34.37-7.05,2.13-14.24,3.05-21.47,4.72-8.33,1.92-16.41,3.32-24.62,3.57-3.07-10.38-.72-21.7,7.44-29.5,1.36-.81,4.29.07,5.42.69Z"/>
        <path class="cls-119" d="M211.39,299.81c.01.95-.32,1.9-.21,2.86-.1-1.07-1.38-2.32-.7-4.42-4.45-.62-9.21.65-12.81,3.59-3.23,2.64,8.57,40.27,8.54,38.9.1,4.59-2.34,8.67-2.84,13.13-.42,3.71,1.49,6.99,1.61,10.59l.25,7.28c-1.94-4.39-3.76-8.91-5.4-13.45-1.76-4.89,5.06-13.18,3.22-16.63-2.95-5.54-4.98-10.95-6.52-17.03-2.11-8.3-5.09-16.49-5.2-25.27,3.42-3.63,10.46-5.5,15.22-4.41,3.08.7,4.81,2.19,4.84,4.86Z"/>
        <g>
          <path class="cls-77" d="M140.66,255l-.85.62-13.33-3.53c-1.42-.19-1.61.1-.56.87,2.84,2.72,12.35,4.39,14.04,6.5.83,1.03.64,2.42.49,3.5-.42,1.39-1.68,1.68-3.77.87l-7.67-2.33c-2.83-.53-3.43-.22-1.81.93,2.06,2.77,10.79,3.06,11.86,5.96.42,1.14-.03,2.22-.39,3.27l-1.3.89c-3.23-.43-6.39-.79-9.47-1.09l.38,1.31c2.59.89,5.52,1.25,7.69,2.95,1.32,5.21-8.17.88-11.84,1.82-3.21.82-6.67,2.79-9.47,4.18-5.37,2.67-9.67,1.13-15.02,1.23-13.49.26-32.85,6.83-47.4,5.21-1.79-7.16.23-14.51,4.78-20.24,1.64-.28,3.1-.32,4.52-.24,10.21.59,20.46,1.2,30.94.4,4.63-.35,8.33-1.45,11.57-4.8l13.2-13.64c1.08-1.12,2.92-2.74,4.63-2.67,5.21.21,10.13,1.1,15.26,1.69,2.93.34,3.51,4.44,3.51,6.33Z"/>
          <path class="cls-122" d="M140.45,262.96c-.09.69.1,2.57-1.14,2.5-4.32-.22-8.07-3.71-12.11-3.03-4.5.75-3.85-2.41-7.89,1.95,0-1.85,1.98-2.8,3.22-3.61.38-.25,1.29.78,1.66.69s.81-1.4,1.28-1.41c4.08-.09,10.41,3.51,14.97,2.91Z"/>
          <path class="cls-159" d="M140.66,255c0,.41-.43,1.42-.91,1.63-1.6.11-13.8-4.28-13.45-4.31-.23.02-.5.28-.39.64-7.46-3.52,16.95,1.55,14.74,2.04Z"/>
          <path class="cls-214" d="M138.67,271.66c-.45,1.34-1.38,2.37-3.27,1.86l-6.23-1.7c-.64-.17-1.22.03-1.24.48,0,.2.13.27.35.48-.73-.25-1.47-.55-2.03-.59-.99-.06-1.27-1.54-.72-2.34,4.29.79,8.83,2.1,13.14,1.81Z"/>
          <path class="cls-43" d="M123.17,252.58c-1.73.62-2.92,1.81-4.63,3.13.19-2.07,1.9-3.64,4.63-3.13Z"/>
        </g>
      </g>
      <g>
        <path class="cls-131" d="M101.18,374.54c-.83,4.17-1.51,8.36-1.94,12.94-1.15,12.22-3.44,23.99-7.09,35.69-.61,1.94-2.03,3-4.08,3.34-13.19,2.18-26.46-.44-38.27-6.39,1.99-1.68,3.75-2.3,4.13-4.36l2.82-15.15c2.8.14,5.45,1.28,8.09.33,1.33-.48,3.64-2.28,4.14-3.61,1.7-.44,1.88.26,1.27,1.85.98.81.1,2.82-.57,3.9-2.46,4-6.22,3.91-10.25,3.34-1.33,3.45-2.27,7.2-3.13,10.84-.11.47,8.1,2.61,9.29,2.54l.74,1.48c.8.09,1.33-.56,1.59-1.94h.97c.27-.22.54-.37.81-.37,1.36.02,4.41.24,4.95,1.28.22.29.39.52.42.5,4.42-3.96,8.96-9.29,11.29-14.7-1.35-.94.74-5.46,1.59-6.48,1.68-2.04,3.06-2.65,3.49.45.76,5.49-5.55,15.91-9.3,19.85,5.26.44,6.44.15,8.02-5.15,2.73-14.63,5.24-29.25,7.53-43.88-1.8-.43-3.8-.93-5.99-1.52-2.3-.89-2.33-1.85.03-2.85,3.19,1.01,6.15,1.2,8.88.56.43-2.04,1.08-2.72,1.96-2.04-.93,3.08-.74,6.43-1.36,9.53Z"/>
        <path class="cls-84" d="M45.08,398.42c1.1,5.49.81,10.3-1.03,14.87l-1.63.82c-3.67-1.29-18.44-8.93-20.03-11.75-.29-.51.03-1.22.31-1.79l1.85-10c.27-.98.7-1.82,1.31-2.53.88-.41,15.62,7.06,17.59,8.32.76.49,1.25,1.26,1.64,2.05Z"/>
        <path class="cls-145" d="M86.42,352.95h-.58c-4.21,14.95-8.36,29.96-12.47,44.92-.16.59-.32.83-1.14.66-.41.67-1,1.34-1.98.67-.58-.5-1-1.14-1.27-1.85,2.01-5.41,3.69-10.88,5.45-16.7l6.76-22.28c1.05-3.45,3.17-6.21,3.83-9.49l2.53-1.85c2.45.92,1.5,5.77-1.12,5.93Z"/>
        <path class="cls-64" d="M48.08,305.25l-4.14,10.54c-2.63.24-4.88,1.14-7.45.79-.94-.66-.46,1.72-2.29,1.4,1.19-4.94,3.61-9.33,5.56-14.13.86.42,1.08,1.25,1.69.98.73-.33,1.41-.46,1.94-.25.74.28.37,1.19.9,2.09.68-.36.5-1.62,1.33-1.67.58-.04,1.97-.45,2.45.25Z"/>
        <path class="cls-65" d="M54.4,396.41c-1.19.35-4.8-.9-4.7-2.45.34-5.55,2.38-10.47,3.42-15.64,2.2.6,3.45,1.22,5.11,2.31l-3.83,15.77Z"/>
        <path class="cls-161" d="M44.05,413.29l1.16,4.61c-5.29-2.17-9.71-5.08-14.41-8.08l-11.09-7.08c.87-1.43,2-1.74,2.99-2.18,2.31,3.91,16.82,11.16,21.35,12.72Z"/>
        <path class="cls-169" d="M45.08,398.42c-6.47-2.28-12.39-5.79-18.8-9.05-.81-.41-1.39.85-1.74,1.2.44-2.13.15-3.84,1.15-5.48,6.93,3.91,13.37,7.08,20.22,10.39.88.43-.63,2.6-.84,2.94Z"/>
        <path class="cls-87" d="M23.34,380.58c-1.27.41-3.76-1.16-3.4-2.75,1.14-5.01,2.14-9.55,3.8-14.51,1.53.32,2.95,1.15,4.07,2.34l-4.48,14.92Z"/>
        <path class="cls-49" d="M50.22,417.33c-.53,1.22-2.28.08-2.91-.33-2.66-1.71-.87-8.35.29-11.73,1.52.44,3.96.93,4.91,2.24-.31,3.19-.87,6.58-2.28,9.82Z"/>
        <path class="cls-178" d="M22.6,389.19c-1.63.51-4.36-1.55-5.17-2.76-.56-.84-.41-2.52-.11-3.48.25-.79,1.86-.07,2.56-.78-.68-.63-1.34-.43-1.68-.32-.72.23-.92-1.24-.1-1.34,1.89-.24,4.19,1.37,5.41,3.05.86,1.18.58,5.17-.91,5.64Z"/>
        <path class="cls-94" d="M21.42,390.82c.51,2.02-.11,9.79-2.58,9.92-3.06.17-1.23-8.96-.94-11.43,1.05.23,3.24.39,3.53,1.51Z"/>
        <path class="cls-151" d="M16.17,387.23l-.63,10.72c-3.82-6.4,0-13.07-.03-19.32.44-.46.71-.4.95-.28.29.14.74.88.48,1.33-1.38,2.38-.61,4.76-.77,7.56Z"/>
        <path class="cls-114" d="M54.15,404.71c-.96.33-1.86.28-1.38-.75l-.36-.83c2.7-2.03-.45-5.08-2.99-4.48.04,1.76-.44,1.69-1.29.18,1.23-2.1-.59-2.13-.8-1.14-.13,1.2.45,2.37-.67,2.77-.96-.89-.73-4.13.79-4.28,2.39-.24,5.32,1.17,6.83,2.97,1.05,1.25.76,4.43-.11,5.55Z"/>
        <path class="cls-224" d="M49.41,398.65c3.88-.98,6.14,5.61,1.34,3.96-.53,1.78-3.92,0-2.58-1.35-.13-1.13-.08-1.79-.05-2.44.37.1.97-.35,1.29-.18Z"/>
        <path class="cls-82" d="M48.17,401.27c.33,1.27,1.66.84,2.58,1.35,2-.22,2.67.22,2.01,1.34.45.07.79.89,1.38.75-2.08,1.83-6.03-.85-7.75-2.55.28-.92,1.28-.83,1.77-.9Z"/>
        <path class="cls-217" d="M52.76,403.96c-.88-.14-1.32-.97-2.01-1.34.48-.08,1.22.18,1.68-.03.5-.23.5-1.32.29-2.08-.38-1.42-2.27-1.32-3.31-1.85-.11-.71.45-.82.88-.63l1.16.51c1.21.53,2.41,1.22,2.55,2.48.12.99-.51,2.2-1.24,2.94Z"/>
      </g>
      <path class="cls-80" d="M127.31,33.5c.68,1.17.11,2.33-1.7,3.49,2.76,1.62,11.61-1.41,4.44-1.05-1.64-.32-2.84-.63-2.13-2.38,4.78-3.58,11.29-4.67,17.74-3.54l-2.93,4.65c1.41,1.69,2.6-.12,4.4-.92-1.06,7.25-5.28,13.32-11.13,17.59,1.21-4.59,3.12-8.06,4.01-12.57-5.16,3.18-9.61,6.53-15.45,8.25l3.93-4.85c-6.38,2.08-11.8,5.47-16.82,10.06.29-2.97,2.52-4.95,3.85-7.55,2.63-5.11,6.34-9.59,11.8-11.19Z"/>
      <path class="cls-12" d="M156.94,130.04c1.19,2.45,12,7.73,8.18,18.68-3.25,9.34-6.86,12.99-13.24,19.88,3.26-9.56,8.43-21.12,5.24-30.47l-.71,6.87c-5.34-8.91-1.99-10.39-1.73-16.09.16-1.44,3.39-.05,2.25,1.14Z"/>
      <path class="cls-116" d="M171.66,148.94c1.29,3.86-2.58,9.39-5.07,12.62-1.38,1.79-5.31,6.57-7.18,6.51l-2.68-.29c-1.87.57-2.16,1.54-2.64,3.27.68,2.13-2.19,4.58-4.01,5.36-1.92.83-2.87.8-1.81-1.29,4.88-8.54,19.95-18.12,19.29-31.57-.31-6.4-5.06-11.62-10.63-13.51-.46-.95-1.08-1.51-2.25-1.14l.06-1.34c.52-.5,1.16-.81,1.77-.53,9.85,4.5,16.34,10.71,15.15,21.91Z"/>
      <path class="cls-150" d="M158.13,375.77c1.16.59.71,1.33-1.34,2.24l-3.79.28c-.34-1.29-.23-2.19-.24-3.18-.03-5.74-1.25-11.29-2.25-17.74,3.25-.26,6.24-.8,9.68-1.67,1.09,8.01,1.58,14.01-2.06,20.07Z"/>
      <path class="cls-95" d="M127.31,33.5c.18-.05.41.07.6.05,2.76,2.24,6.34.64,10.21.27-10.23,9.62-10.9,1.42-16.87,6.62-1.08.05-.84-.12-.25-.91l6.3-6.03Z"/>
      <path class="cls-181" d="M144.65,175.61c-2.27-2.06-3.61-4.07-5.29-6.58,3.6.16,6.32-.1,9.72-2.02-.9,3.12-2.47,5.44-4.44,8.6Z"/>
      <path class="cls-46" d="M82.23,66.92c-2.11-4.71-1.43-10.22,1.36-14.71-.93,4.93-.76,9.24-1.36,14.71Z"/>
      <path class="cls-93" d="M95.7,64.68l-4.6.87c1.01-3.44,2.54-6.25,5.14-8.68l-.54,7.81Z"/>
      <g>
        <path class="cls-71" d="M101.47,131.25c.98,4.36,3.51,7.59,5.93,10.7-5.68-3.13-10.96-6.72-16.59-10.22-.77-.48-1.29-1.53-1.47-2.1-1.28-3.97,9.48-7.19,10.65-6.8,1.89.63,2.67,6.56,7.27,10.5.74.63.28,2.83-.74,2.52-2.42-.73-3.31-3.37-5.06-4.61Z"/>
        <path class="cls-13" d="M203.18,208c.33,5.21-1.31,10.55-.62,16.07s1.49,10.99,1.09,16.85c-1.24,17.78,5.68,14.8,3.47,22.16-.54,1.81-3.05,1.2-4.59.48-2.67-1.24-4.7-4.03-1.37-5.92-.57-1.48-1.13-3.88,1.13-4.71-.48-.22-.91-.58-.93-1.11-.21-4.77-.44-9.61-.94-14.41-3.81-1.37-3.99-7.8-1.18-10.31.45-1.67,1.06-3.13,1.83-4.39-.87-.85-1.11-2.03-.7-3.54-1.59-3.41-1.71-7.13-.34-11.16-.4-.23-.7-.46-.69-.67.15-2.83,1.48-5.49,2.72-7.92.08-.16.28-.25.52-.33,0-.6.18-.6.52-.06.53,2.9.52,5.99.1,8.94Z"/>
        <path class="cls-50" d="M197.84,169.81c.01.82-.07,1.76-.62,2.28-1.53-1.07-2.88-3.64-4.77-3.59-4.35-2.81-8.72-5.65-13.1-8.5l-2.24-2.93c-.18-.69-.94-1.3-.75-2.14,1.15-.46,1.57-.2,2.76.56l15.28,9.66c1.83,1.16,3.03,2.76,3.44,4.66Z"/>
        <path class="cls-190" d="M172.17,139.54c0,3.25.5,6.36-.51,9.4-2-.34.9-3.54-2.5-9.78-3.19-5.85-8.36-9.61-14.41-11.6.03-.71-.11-1.53.73-2.41,7.65,4.64,13.63,6.89,16.7,14.4Z"/>
        <path class="cls-223" d="M207.86,277.81c1.29.68,2.83,1.08,4.03,1.99,2.65,2.01,1.56,5.05,1.85,7.82.37,3.58,2.19,6.85.76,10.3-1.76-1.05.88-2.91-2.74-7.42-1.91-.64-2.1-2.78-.65-4,.79.07.83-.95.76-1.53-2.39-2.14-4.82-4.19-7.29-6.14-.13-1.48.97-1.81,3.28-1.01Z"/>
        <path class="cls-68" d="M203.18,208c-.19-2.98-.05-5.96-.1-8.94.17-.02.34.05.51.06.03.29.66,9.85-.42,8.88Z"/>
        <path class="cls-68" d="M203.64,196.59c-1.26-2.39-.31-5.38-.45-8.05.36,2.61.93,5.26.45,8.05Z"/>
      </g>
      <g>
        <path class="cls-4" d="M106.57,37.65c2.48-1.56,2.9-2.26,1.27-2.11-5.69,1.79-12.6,9.02-16.51,13.98.29-4.95,3.39-8.3,5.73-12.44-1.49-.11-2.06,1.4-3.23,1.44.98-3.22,3.73-4.3,5.1-7.5-6.77,2.61-11.24,8.64-16.06,13.92l-1.05-1.31c2.04-3.51,4.47-6.63,7.27-9.37l3.25-4.17c-4.13.63-5.99,4.25-9.32,6.04-2.59,1.39-6.42,1.16-8.82.03,7.71-4.13,15.33-8.78,22.84-13.95,4.07-2.32,8.35-3.83,12.86-4.52l-3.24.54c-1.91.97-3.33,1.15-4.26.56.25-.66,1.11-.57,1.56-1.12-3.45-.32-6.59.29-8.94-1.63,2.98-.84,6.13-1.38,9.47-1.62l20.13-4.11c.96.06,9.29.41,10.34.64.2.05.54-.1.26-.46-.9-1.13-7.06-2.25-9.02-4.89,14.67,3.8,23.68.43,33.68,14.94,1.82-4.06-.13-7.24-.86-11.05,5.06,4.07,6.97,10.13,6.87,16.74,4.1.1,7.54.51,10.23,2.91-1.87.41-3.46-.55-5.49.72,6.76,5.22,10.51,12.76,11.26,20.92-2.15-1.57-2.16-3.73-4.48-4.38,2.45,10.3,1.52,20.32-3.49,29.23-.57-4.13,1.05-7.1,1.59-10.62,1.12-7.32,1.18-14.79-3.03-20.89l-.4,6.28c-1.08-1.36-.87-3.08-2.36-4.1l-.28,6.09-1.1-2.25c-1.07,2.1-.26,4.06-2.16,5.84-1.08-3.37-1.65-6.29-3.09-9.21-.96,2.68-.14,4.8-1.61,6.94-.7-1.26-.51-2.64-1.66-3.32l-2.38,8.17-3.69-10.4c-1.52,3.47-.57,6.4-1.48,9.63-3.88-6.86-4.66-14.56-1.67-21.7,2.42,1.11,4.39-1.1,6.09-1.03,3.07.12,4.42,3.53,6.74,4.91-.12-2.35-1.61-4.15-2.46-6.06,2.8-.13,4.62,1.48,7.32,2.4-.61-2.89-3.02-3.36-5.02-4.69.33-.86,1.1-.97,1.95-1.24-4.83-5.32-.68-3.11-2.9-8.59l-2.75,3.97c-2.57-6.63-8.6-11.08-15.75-11.17,1.33,2.75,3.99,3.84,4.29,6.92-5.6-3.37-11.48-5.85-17.74-4.24,2.62,1.66,5.79,1.51,7.62,4.08-5.24-.71-10.88-1.92-15.38-.03-.5.21-.79,1.82-1.48,2.16,5.14-.31,9.71-.73,13.73,2.47l-12.52,7.34c-6.94,4.07-13.75,7.67-20.54,12.41.48-3.72,2.47-6.17,4.75-8.04Z"/>
        <g>
          <path class="cls-11" d="M74.18,36.16c-.33-.15-.93.04-1-.59,12.69-5.12,14.03-12.01,29.19-16.78,2.29-.72,4.76-1.63,7.51-1.1-5.88,1.79-11.03,4.87-16.42,8.21s-14.02,10.35-19.28,10.27Z"/>
          <path class="cls-104" d="M124.59,10.31c-.6,1.43-2.52,1.2-4.04,1.65-8.53,2.56-16.95,4.52-25.56,4.08-.72-.59-2.2.09-2.76-1.35,13.13-.11,20.28-5.12,32.36-4.38Z"/>
          <path class="cls-139" d="M106.57,37.65c.56-.51.72-1.55,1.27-2.11,3.24-3.29,6.13-7.28,11.21-8-.83,1.61-2.46,2.22-2.88,3.82,1.58.02,2.64-1.09,3.51-.03-1.63,2.43-4.2,3.79-7.05,4.22-2.37.36-3.97,2.35-6.06,2.11Z"/>
          <path class="cls-48" d="M89.08,34.26c.67-.13.68.42.05.7l-4.46,5.66c-1.06,1.34-1.49,3.02-1.8,4.32l-6.43,10.07c.97-8.77,5.91-16,12.64-20.75Z"/>
          <path class="cls-6" d="M118.17,23.86c-5.22,3.47-10.76,6.77-17.01,9.53,1.5-3.46,4.84-4.72,7.26-7.09-.98.45-2.75.37-4.07.54-.79.1-.94-.67-1.64-2.04,3.25-2.27,6.82-4.3,11.53-4.75-.62,2.09-2.74,2.3-3.66,3.96,2.41,1.34,3.9-.92,7.58-.15Z"/>
          <path class="cls-165" d="M158.53,48.53c-2.15-.99-1.98-3.05-3.48-4.05-.51.96-.37,2-1.71,2.54-.66-2.8-1.71-5.24-1.46-8.2,1.3.77,1.31,2.27,3.11,2.78.32-.94-.24-1.75.4-2.67,2.56,2.58,4.16,5.68,3.14,9.6Z"/>
        </g>
      </g>
      <g>
        <path class="cls-168" d="M152.65,118.18c-8.38,10.4-12.46,17.89-23.92,26.07-.72,1.47-2.81-2.62-2.68-2.46.92,1.11,2.89,3.6,2.48,4.66-6.52-.18-4.3,2.18-11.85-.36-.8-.27-1.6-.45-2.08,0-3.65-3.65-5.57-4-3.5-8.66,4.73,4.01,10.65,3.69,15.62.27,9.4-6.47,17.72-14.6,24.61-23.77,1.66-2.2,1.26-5.26,3.01-7.09.44,4.09-1.35,7.81-1.7,11.36Z"/>
        <path class="cls-39" d="M156.11,98.53c3.87.48,7.85-3.48,9.31-5.91l-.83-1.22s1.39-2.89,4.17-8.66c1.9-.45,1.25-2.75.49-4.19-1.23-1.34-2.51-1.53-3.85-.58-2.2,2.59-3.76,5.48-4.71,8.68,2.2,2.68.92,5.19-1.91,6.59.09-.94.21-2.29-.2-3.46-.26-.74-1.32-1.33-2.41-1.27-1.12-.43-.88-.93.34-1.06l5.64-11.15c1.21-2.39,5.01-4.47,7.22-2.32,3.22,3.14,3.21,8.27,1.93,12.44-1.74,5.69-9.67,17.15-15.18,12.11Z"/>
        <path class="cls-102" d="M106.42,74.44l1.78,4.26.4-.23c1.06,2.77.75,6.04-.14,8.72-.41-.32-.64-.99-.71-2.01-.41-.86.37-1.88-.07-3.35-.95.09-.22.63-.27.86-.05.25-.85.49-.88.69-1.82.2-1.89-.42-.52-1.61-.42-4.21-6.97-6.61-10.43-4.61l-1.31-.72c-.74-1.91-.05-4.17-1.11-5.92,2.97-1.57,10.24,2.42,13.25,3.91Z"/>
        <path class="cls-123" d="M214.3,385.84c-.19.67-.11,1.45-1.16,2.05-.83-1.66-2.32-3.06-2.33-4.87l-.08-10.09c-.02-2.65.69-4.85.96-7.15,5.26,5.64.95,15.15,2.61,20.05Z"/>
        <path class="cls-136" d="M169.24,78.55c3.46,2.51-2.27,11.47-3.83,14.07-1.01.43-6.41,3.51-6.62,1.29,1.95-1.62,2.95-3.33,3-5.13-3.23-3.03,4.05-15.28,7.1-9.86l.34-.38Z"/>
        <path class="cls-62" d="M106.02,81.77c-1.58.44-2.6-.55-3.08-2.95-2.03,1.19-2.04,3.69-1.69,5.91.53,1.93-4.88.48-5.63,0-.88-2.75-2.76-5.57-1.34-8.29,3.68-2.88,9.51-1.05,11.85,3.1.47.84.4,1.88-.11,2.23Z"/>
        <path class="cls-200" d="M169.24,78.55c.09,1.3.82,2.81-.12,3.98-.64-1.41.09-4.2-1.72-4.49-2.05-.33-3.65,2.53-3.9,4.1.82,1.16,2.12,1.31,1.8,2.85-1.03-.79-2.39-1.26-3.13-.64-2.86,2.44,4.08,4.66-3.38,9.55-.02-.21-.05-.46-.03-.67.88-.97,2.01-1.98,2.58-3.41.51-1.3-1.73-2.27-1.55-3.22.58-2.99,4.14-10.94,8.37-9.91.73.18.54,1.47,1.07,1.85Z"/>
        <path class="cls-101" d="M102.94,78.82c1.87,1.83,1.94,5.84-1.1,5.87-.19-.02-.4.09-.59.05-1.6-.34-3.75-.03-4.67-1.39-.85-1.25-1.16-3.09-.44-4.66.34-.74,1.8-1.05,2.26-.59-1.43,1.03-1.72,2.22-1.38,3.34.36,1.19,2.15,1.97,2.96.53.47-.83-.35-2.18.59-2.88,1.02-.77,1.32-.83,2.36-.27Z"/>
        <path class="cls-32" d="M106.02,81.77c.25.5.31,1.1.52,1.61-.4,1.71-3.09,2.05-4.7,1.31,1.32-1.67,1.01-3.86,1.1-5.87,1.3.7,2.36,1.53,3.08,2.95Z"/>
        <g>
          <path class="cls-126" d="M150.79,136.83c-.48,3.95-.87,9.81-.33,13.87.03.21.4.36.88.51.33,3.03.56,6.04.68,9.05-1.69,5.32-6.57,7.37-12.11,7.06-2.3-.13-3.47-.93-5.11-2.46l-20.18-18.78c-.4-1.05-.07-1.73,1.04-1.59l5.96,1.43c2.9-1,5.21-.82,6.93.52l.74-.25c-.93-.8-1.11-1.45-.54-1.95l.75-2.21c8.04-6.66,15.03-14.42,20.98-23.26l2.2-.6-1.86,18.65Z"/>
          <path class="cls-70" d="M152.01,160.26c-1.44-2.48-2.05-5.42-2.02-8.62l.12-14.07c.1-.46.34-.99.68-.74-.51,5.09.02,9.63.13,14.18.94-2.12.61-3.93,1.48-6.61,5.49,6.88,1.21,10.81-.39,15.86Z"/>
          <path class="cls-26" d="M145.06,145.49c1.16.38-3.51,22.79-4.54,20.1l4.54-20.1Z"/>
          <path class="cls-28" d="M128.73,144.25c.75,1.42,1.8,2.04,2.59,3.24-1,.2-2.37-.43-2.78-1.04l-3.32-4.95c.28-4.1,1.85,2.87,3.52,2.75Z"/>
        </g>
        <g>
          <path class="cls-5" d="M127.81,55.67c-1.84,1.81-3.49,3.66-5.93,5.39,1.32.31,2.22-.14,3.27-.04,5.09-.06,10.66-3.83,14.86-6.73,1.08-.31,1.89,0,2.13,1.09.17,5.27,1.4,9.09,3.67,11.45.25.51.75.96.95,1.47l1.43-.05c.56,1.21,1.41,2.19,2.56,2.95,3.04,7.83,1.98,9.99,1.24,19.31,1.22.16,1.36-1.13,2.04-1.28.94-1.4,1.65-1.64,2.11-.72,2.75-3.11,5.13,1.93,2.61,4.73.35.21.36.43.03.67,1.39-.1,3.11-.8,5.18-2.09l1.44.79c.4.51.63,1.11.27,1.57-2.16,2.82-5.85,6.08-9.58,4.34-.18-.02-.5-.04-.66.03-2.88,5.44-5.76,10.91-8.64,16.41-4.73,4.44-9.9,8.4-15.53,11.9-6.36,5.38-19.91,8.97-24.57,1.93l-.52-1.89c-7.72-11.94-11.87-24.63-12.46-38.09-.32-2.4.31-3.76,1.9-4.08l.65-.62c1.43.9,3.48,1.43,4.98.62.06-.58.26-.57.59-.05,1.17-1.03,2.74-1.47,4.7-1.31.53-4.85,3.46-.76,1.22,1.8.37,2.17-.15,4.35-1.55,6.55-3.77,4.8-2.37,7,1.6,10.78,1.05-.35,1.8-.13,2.25.66,3.51-.56,11.32-4.5,3.73-4.02l-6.77.18-1.79-1.3c-1,.59-1.32-.2-1.39-1.23-.04-.53,3.43-8.06,4.07-9.35.07-.14.29-.21.56-.26.24-2.2.06-4.01-.54-5.44-.17-1.03.06-2.12.69-3.28-.82-1.04-1.55-2.39-2.19-4.03.09-3.62-3.88-7.93-6.68-8.55-.69-1.31-.02-2.8,2.03-4.47,1.36-1.8,2.71-2.39,4.05-1.76-.24.52.26,1.47-.1,1.97-.81,2.4-.54,3.99.8,4.77l20.15-12.53c2.02-.5,2.23,0,1.13,1.81Z"/>
          <g>
            <path class="cls-52" d="M93.17,70.53c2.52-.38,2.73,4.49,1.11,5.92.73,1.16.97,2.66.74,4.48.75,1.57.96,2.84.61,3.81-2.4,7.53.79,20.52,4.42,28.15,1.99,4.18,3.59,8.19,5.94,12.23.66,1.14,1.42,2.76.74,3.69-4.54-6.86-7.87-14.68-11.14-22.58-5.49-13.25-.94-19.87-4.63-33.16-.28-1-.09-1.96.65-2.4.39-.23,1.14.09,1.58-.14Z"/>
            <path class="cls-120" d="M145.82,66.84c-2.55,2.98-4.48-10.6-4.75-11.81-2.03,2.17-17,9.95-15.92,6,8.3-4.15,10.64-3.89,18.21-11.63-.67,6.67-.12,12.15,2.45,17.45Z"/>
            <path class="cls-198" d="M127.81,55.67c-.04-.22.21-1-.27-1.05-.39-.05-.73.62-1.08.84l-17.71,10.67c-1.12.68-2.21,1.09-3.61.9-.13-2.17-.43-3.97.59-5.39.23,1.26-.34,2.5.39,4.48,4.4-4.35,9.91-6.89,15.26-10.17l10.95-6.73c-1.24,2.48-2.67,4.67-4.51,6.47Z"/>
            <path class="cls-207" d="M131.28,126.87c3.33-2.82,6.84-5.52,10.55-8.34,9.81-7.43,7.67-17.12,13.62-19.97-7.29,18.41-4.59,15.39-20.27,26.1-1.42.97-2.39,2.19-3.9,2.21Z"/>
            <path class="cls-198" d="M105.83,59.66c-2.13,2-4.87,3.54-6.09,6.23-.55-.12-2.23-.42-1.72-1.29,2.49-4.22,5.8-7.4,9.59-10.85-.35,1.98-.91,3.98-1.79,5.9Z"/>
            <path class="cls-120" d="M150.77,71.21c-2.22,1.04-3.39-1.38-3.99-2.9,1.15-.33.67-1.85,1.06-3.19,1.57,1.81,2.13,4.01,2.94,6.09Z"/>
            <path class="cls-222" d="M156.5,87.45c-.17.33-.27.69-.34,1.06-.66.04-1.45.58-2.11.72.09-.65.4-1.14,1.06-1.96.31-.38.72-.42,1.39.18Z"/>
            <path class="cls-69" d="M139.39,69.75c-4.5-.54-9.91-1.08-13.64,1.87l-6.78,1.02-.94-1.5c-1.28-1.3-2.81-3.16-1.6-4.69,14.21-2.95,20.9-6.23,30.18,5.83l-7.21-2.54Z"/>
            <path class="cls-142" d="M137.43,75.87c.75.34,4.92,2.79,3.31,5.29-.74.81-1.22.35-1.43-1.37-1.05.64-2.19.35-3.45-.87l-2.08-.88c-.7.84-1.92,1.5-3.67,1.98,1.6.85,1.01,2.18-.3,3.09-4.1,2.84-6.29-2.97-3.69-5.54.15-.15-.94,3.73-1.05,3.92-.13.22-.52.28-.98.31-.41-.73-.62.01-1.21.71-.76-.74-.12-1.75-.17-2.69-3.08-4.64,1.71-5.92,5.78-6.12,2.66-.31,8.3-.7,8.93,2.17Z"/>
            <path class="cls-3" d="M139.39,69.75c-2.16.18-12.73-.91-12.64,2.49,1.97,1.05,4.97.62,7.21.19,1.55.43,2.99.9,4.72,2.18-.24.64-.91.83-1.26,1.25-3.66-1.64-7.85-2.66-11.72-1.01-2.52,1.08-3.15,2.58-3,4.96.3-1.25-1.3-.96-1.88-1.53-2.01-1.97-1.9-4.87-2.81-7.14,5.04,1.26,13.51-4.15,21.37-1.39Z"/>
            <path class="cls-212" d="M130.11,80.02c2.37-2.4,5.02-.28,3.45,3.16,2.19-.7,4.1-1.83,5.75-3.39.49.44.89.99,1.43,1.37-3.77,5.87-14.51,5.07-15.26,3.68-.41-.76-1.6-2.01-1.39-3.04.35-1.74.82-3.87,2.46-4.52-.25,1.77-1.24,2.86-.63,3.99.37.69,1.43,1.57,2.67,1.03.71-.31,1.45-1.26,1.51-2.27Z"/>
            <path class="cls-153" d="M126.58,108.67c.59.19.58.41,0,.67-3.26,1.98-19.75,4.52-23.06.82,8.23,1.11,15.65.36,23.06-1.49Z"/>
            <path class="cls-149" d="M108.47,87.2c-.83,2.5-1.34,5.21-3.28,7.45-1.17,1.35-.29,2.38.05,3.4.64,1.94,2.24,2.99,3.97,4.3-.61.74-1.05.07-1.39.18-2.43-1.29-5.91-3.71-4.49-6.96,1.55-3.56,4.5-6.58,4.44-10.38.3.63.99,1.17.71,2.01Z"/>
            <path class="cls-72" d="M118.51,117.04c-2.82,1.21-6.02,1.82-8.8-.13,2.94-.25,5.28-.45,8.8.13Z"/>
            <path class="cls-193" d="M116.43,66.46c.48,1.58.98,3.15,1.6,4.69-1.44-.36-2.35-1.85-2.84-2.75-.44-.79-.11-1.51.36-1.75.23-.11.55-.14.89-.18Z"/>
            <path class="cls-38" d="M133.97,72.43c1.13.91-6.94.62-9.44,1.35.34-1.16,2.08-.61,2.23-1.54,2.4.26,4.81.19,7.21.19Z"/>
            <path class="cls-209" d="M108.61,78.47c0,1.14-.78,1.86-.8.34-.75-1.77-1.42-2.98-1.39-4.38,1.58.78,1.58,2.44,2.19,4.03Z"/>
            <path class="cls-141" d="M129.27,108c.07-.49-.21-1.18.04-1.68.38-.77.71.37,1.04.32.55-.08,1.42.47.93,1.05-.45.53-1.11.29-2.01.31Z"/>
            <path class="cls-202" d="M129.27,108c-.26,1.74-1.98.92-2.68,1.34v-.67l2.68-.67Z"/>
            <path class="cls-215" d="M139.31,79.78c1.2,3.16-6.71,5.46-8.44,5.08,1.02-1.45,2.49-3.42,1.54-4.81-.35-.46-1.92.81-2.3-.03.02-.39-.69-.82-.55-1.25.26-.83,2.39,0,2.87-.61.2-.26-.18-.88-.05-1.69,2.72.13,5.01,1.62,6.93,3.32Z"/>
            <g>
              <path class="cls-31" d="M107.81,102.52c0-.64.82-.13.77-.15-1.56-.65-4.91-3.09-3.35-4.32,1.86.15,13.56-1.04,13.64.92.12,2.79-7.28,5.88-9.2,5.47-.79-.17-1.26-1.25-1.86-1.92Z"/>
              <path class="cls-170" d="M116.49,100.28c-.98,1.39-3.25,1.56-5.12.36,1.58-1.25,2.89-.78,5.12-.36Z"/>
            </g>
          </g>
        </g>
      </g>
      <path class="cls-217" d="M58.11,153.76c.2,3.17-6.7,3.91-8.03,6.59.78.61,1.35,1.82-.18,1.83l-.09,1.38c-5.24,5.43-9.35,11.77-12.34,19.03-8.65,24.4-17.83,48.64-27.53,72.73l-1.46.32c-.12.82-.41,1.48-.87,1.98-4.45,2.98-2.03,6.08-3.43,8.33-4.17,6.73,1.33,8.81-1.75,15.07-1.69-3.74-3.51-8.13-1.66-12.26l3.32-7.42c1.06-2.37-.13-5.43.97-7.86,4.2-9.33,7.88-18.44,11.34-28.08,2.21-6.17,4.15-12.23,6.71-18.14l4.98-11.51c3.42-7.92,8.27-36.82,30.01-41.99Z"/>
      <path class="cls-86" d="M47.97,265.04l-.22,2.37c-4.32,4.77-4.94,7-1.88,6.69l.82,1.6c-1.65,3.41-2.41,7.68-2.75,11.41l-.87,1.27c-5.33-1.42-5.46.6-4.32,5.48,2.52-.49,4.53-.25,6.01.72.18,2.78,3.18,4.97,6.05,5.51.2,1.24-1.17,1.14-1.45,1.88-2.93.2-5.75-.3-8.82-1.22-3.72-1.12-5.27,1.34-9.91-1.39-2.04-2.01-2.43-4.76-3.3-7.36l1.44-.62c4.79,2.69,6.71,1.75,5.78-2.83-2.16-1.13-4.48-1.96-6.95-2.5l-1.11-1.61c.23-4.6,2.02-8.86,4.21-12.71,2.21.51,3.77.19,4.69-.96l5.18-6.58c-.25-.71-.42-1.55-.51-2.53,3.81-2.44,8.26-5.51,13.06-1.14-4.23.99-7.55,2.83-9.66,5.71,1.74.33,1.65-1.24,2.56-1.53.54-.17,1.31-.01,1.94.33Z"/>
      <path class="cls-216" d="M116.43,381.68c-4.37-.66-8.39-2.56-12.54-4.01-.3-3.01.22-6.13.69-9.17,1.75-.47,9.14,1.84,12.03,2.48l-.18,10.7Z"/>
      <path class="cls-29" d="M124.03,380.47c.09.84.08,1.68.04,2.52-2.32.09-4.63-.6-6.87-1.11-.72-3.67.64-7.37.75-10.85,1.39-1.15,3.34-1.25,5.86-.3l.23,9.74Z"/>
      <path class="cls-128" d="M85.69,183.93l1.51,1.33c.87,3.34,1.59,8.73.77,11.84,3.06-.25,6.09-.68,9.1-1.29,4.14,9.77,7.6,19.87,11.41,29.76l.03,1.76c-1.99.25-4,.27-6.03.07l-.06,12.6-1.35.94-1.17,1.31c-3.38-.48-6.77-.74-10.17-.77l-.18,6.21c1.09.71,1.57,1.52,1.46,2.45-2.11,1.11-5.87.18-8.32-.59-2.74-.87-6.27-2.37-7.79-4.71-.94-.66-2.17-1.31-2.94-2.37-1.35-1.86.28-2.99.82-4.24l1.69-1.13c4.4.56,8.7,1.15,12.9,1.77-.68-3.52-.67-9.73,1.07-12.82l.72-1.36,10.06-.26c.36-.45-.36-11.09-.65-11.6-.22-.39-8.16-.49-8.89.08-1.15.9-2.42,4.64-.14,5.17.79,1.72.8,2.63-1.17,2.01-.62.48-1.27.89-1.94,1.23-1.09.92-2.23,1.74-3.4,2.54-.63.2-.82,0-.58-.62-.11-.17-.15-.43-.21-.63,1.94-3.02,1.83-3.15-.31-.36-.59.2-1.06.72-1.48,1.17-1.25.91-1.93.94-2.05.07,3.9-7.5,4.3-6.29,7.29-14.16-.87-1.18-.85-2.82.07-4.93l-.08-3.42-5.06-1.55c-.16-2.35-.75-4.43-1.77-6.24l-1.59-.2-1.55-5.82c-1.28.62-2.22.43-2.83-.57-.64.33-.95.24-1.2-.27-1.72-3.5-3.42-7.01-5.1-10.53-.26-.54-.21-.89.44-1.28.66-1.66,3.78-2.55,5.3-1.39l1.7,1.15,3.49,9.68,6.88-1.25,1.29,1.2Z"/>
      <path class="cls-24" d="M111.22,240.91l1.38,1.12c.35,3.45.07,6.67-.85,9.65-1.84,2.78-5.33,4.42-7.44,7.06-3.34,4.17-7.32,7.19-12.63,6.43-1.55.21-3.06.14-4.54-.2l-.21-10.52c-4.4-.96-8.82-2.07-13.26-3.32-3.1-2.17-3.9-7.21.04-5.6.18-.06.37-.1.55-.03,6.68,4.16,15.8,6.93,23.46,4.72.32-1.02.78-1.52,1.8-1.4l.19-6.96,1.36-.9c.56-1.44,2.35-1.9,5.38-1.37,2.45-.49,4.04-.05,4.76,1.32Z"/>
      <path class="cls-133" d="M87.67,298.49c.79.92.94,2.4.44,4.44,3.13.67,2.75,3.76-.3,3.41l-.74,8.12,6.14,2.03.5,1.55c.59.19.58.41,0,.67l-1.25,1.14c-5.33-2.14-7.34-1.35-6.02,2.36l5.33,4.71c-.49,3-2.51,2.95-6.06-.16-2.56.79-8.53-1.57-10.73-3.21-2.83-2.11-3.3-3.54-3.7-7.12-1.76.72-2.94.41-3.54-.93.63-4.13,2.86-8.04,2.56-12.66,3.47-1.35,6.59-.96,9.82-1.98l7.55-2.38Z"/>
      <path class="cls-14" d="M93.7,318.73c4.25-1.04,6.45-.18,6.61,2.59-.85,2.46-1.45,4.97-1.81,7.54-.8,2.09-2.08,5.6-4.86,6.49-6.8-2.44-13.57-4.36-20.69-5.95-1.8-.4-4.81-1.44-5.99-2.88-.13-3.69.26-7.54.79-11,1.34.18,2.78-.41,4.34-.51,1.19,1.81.49,4.35,1.87,5.98,1.97,2.33,5.46,2.63,7.73,4.31,1.65,1.22,2.69-.08,3.73,0,1.92.17,3.27,2.91,5.66,2.67l-5.39-4.63c-1.64-1.41-.58-4.49-.2-6.58,3.28.62,5.54,1.55,8.22,1.96Z"/>
      <path class="cls-105" d="M21.27,235.24l1.61-.98c2.6.17,9.48,1.79,9.88,4.47.3-.43.79-1.05,1.14-.92,2.03.75,7.34,3.51,9.15,4.74l.22,1.62c1.1.57,11.55,6.24,11.33,2.54l1.5,1.63c1.61.16,2.55,2.23,2.71,3.7-2.77,4.7.49,3.57-1.63,5.71-.56.56-1.88.99-2.59.28-1.79-1.81-4.26-1.17-6.21-2.15-2.71-1.37-4.98-3.89-7.77-4.88l.14-1.3c3.64-1.79-7.43-7.61-8.05-7.45-.33.09-1.99,5.64-1.4,6.59-3.35-.15-13.45.16-14.09,4.2-1.03.51-1.97.82-2.84.04-.54-.87-.61-1.97-.21-3.29l-.94-1.81c.47-2.17,4.8-13.08,6.44-13.44.58-.13,1.16.31,1.63.72Z"/>
      <path class="cls-174" d="M73.72,245.53c-.34.26-1.39.61-1.35,1.35.14,2.2,2.05,3.5,4.11,3.9l11.79,2.29.06,11.86,3.35.24c-4.17.97-18.28.69-22.82-.46-.08-2.01-2.4-16.72-.01-14.87.4.31.45,1.34,1.66.78-2.37-2.22-1.53-5.59.41-7.68,1.28.05,2.47,1.62,2.8,2.58Z"/>
      <path class="cls-14" d="M108.46,303.16c-.36,2.11-1.55,3.54-2.15,5.45l-1.17,1.13-4.9-.85c-.33,3.47-.94,6.86-1.82,10.18-1.73-.2-3.31-.53-4.73-1.01l-7.85-2.36c-.45-1.41.27-9.87.97-10.41.81-.63,1.77.03,2.84-.28-.82-.62-2.6-.52-2.84-1.85-.3-1.65.25-3.33.85-4.67.94-.3,2.49-.86,3.45-.53,1.99,1.57,4.25-.08,6.66-.34,1.87-.2,2.09,2.75,1.74,4.51.65,1.15,10.14-.35,8.94,1.03Z"/>
      <path class="cls-128" d="M80.13,168.93c2.37,3.05-6.15,5.72-7.7,3.58l-1.53-.02-4.74-8.81c-1.98,1.1-3.95,2.01-5.93,2.73l-.89.28c-1.58-1.93-3.56-3.64-6.04-4.26-.9-.08-.93-.26-.07-.53l.74-1.47c4.32-1.84,8.56-3.65,12.72-5.44,4.07,1.18,12.02,9.63,13.46,13.93Z"/>
      <path class="cls-132" d="M88.38,220.13c1.85,1.19,1.94,4.76.06,5.95.21,4.31.18,8.72-.24,13.56-5.45.41-10.41-.76-15.41-1.38.76-1.75.88-4.18,2.74-5.56l5.71-4.24c2.41-1.79,5.87-4.14,5.2-7.1-.13-.57.33-1.12.7-1.53.41-.45,1.21-.68,1.24.31Z"/>
      <path class="cls-53" d="M91.03,183.28c-.84,1.49-4.39,2.37-5.34.65-2.86.31-5.54.7-8.99,1.52-1.43-4.37-3.37-8.19-4.37-12.32-.58-.26-.53-.47.1-.63l6.3-1.6c.62-.76.86-1.51,1.4-1.98,3.42,3.35,3.72,6.6,8.47,12.69.63.8,1.82,1.07,2.43,1.67Z"/>
      <path class="cls-192" d="M114.39,240.88c-.23,1.94-2.71,1.91-3.17.03l-10.15.05.05-14.65c1.83-.81,7.69.76,7.36-.73l5.9,15.29Z"/>
      <path class="cls-40" d="M91.03,183.28c1.51,1.45,2.19,3.45,3.1,5.6l2.94,6.94c-.02.3.17,1.4-.18,1.75-3.3.43-6.35.57-9.71.3.13-4.99-1.02-9.41-1.49-13.94,1.78-.19,3.51-1.32,5.34-.65Z"/>
      <path class="cls-172" d="M85.68,209.36c-1.66-3.55-4.73,7.72-7.26,9.45l2.06-10.81c.1-.54-.21-1.27-.47-1.56-.19-.21-.62.02-.98.12-2.04.42-1.43-6.86.11-7.55.27-1.39.21-2.65-.19-3.78-1.92.04-1.9-1.49-.09-2.03,2.45,0,1.06,2.61,2.31,4.92.64,1.19,5.32.61,5.79,2.53.78,3.19-.3,6.16-1.26,8.7Z"/>
      <path class="cls-220" d="M125.25,354.22c-.8,7.94-.76,15.91-.65,24.27.01.83.09,1.86-.58,1.98-.3-2.73,0-5.49-.16-8.52-2.21-.32-4.13-.36-5.93-.92.16-5.62.7-11.19,1.15-16.79l1.38.63c-.33,1.09.46,1.6,2.37,1.5.5-1.99,1.31-2.7,2.42-2.15Z"/>
      <path class="cls-187" d="M53.21,161.9c-.29.25-.26.37.07.53,3,.77,6.24,3.83,7.85,6.42.1.16-.1.51-.38.91-1.69,1.03-2.2,3.29-3.65,5.05-2.42-.29-4.27-2.12-6.65-2.7-1.29-.31-2.81-.37-3.02-1.67l-.5-1.55,3.41-4.97-.46-1.75.18-1.83h.67c1.21-.41,2.42.2,2.46,1.56Z"/>
      <path class="cls-185" d="M40.61,251c-3.02-1.07-6.15-2.03-9.32-2.17-.49-.36-1-.45-2.01-.78l2.65-7.71c3.81,1.94,7.88,3.85,10.96,7.03.78.96-1,3.93-2.28,3.64Z"/>
      <path class="cls-148" d="M27.34,291.99c-.83-2.49-.98-4.94-.85-7.56,3.11.58,6.1,1.77,9.41,2.83l-.04,7.26c-3.25-.46-6.2-.67-8.52-2.53Z"/>
      <path class="cls-171" d="M125.37,350.27c.01,1.3.01,2.66-.12,3.96-1.01.45-.35,2.35-1.02,3.19-1.12.59-3.17.22-4.44-.39-.98-.48-.57-2.06-.72-2.78l.75-9.35c1.65.26,3.32.33,5.28.91.15,1.65.25,3.07.26,4.46Z"/>
      <path class="cls-121" d="M43.95,287.11c-.21,2.32.67,5.11.82,7.46-2.31.58-4.65.78-7.41.54-.5-2.84-.66-5.58.18-8.3,2.37-.49,4.38.17,6.41.3Z"/>
      <path class="cls-41" d="M128,312.02c0,.45-.15.92-.16,1.37-1.73.56-3.53-.17-5.3.07.18-1.94-.19-4.02-.2-5.96.69-1.13.48-3.28,1.64-4.21-.22-1.57,3.43-1.48,3.9-.88.78,1.02.42,7.93.12,9.6Z"/>
      <path class="cls-174" d="M91.02,250.17c.68-2.1,5.79-1.74,6.71.05.72,2.76-7.98.97-10.09.84-5.08-.3-9.84-2.31-13.36-5.56.47.19.74-.21.64-.63,4.75,3.34,10.29,5.63,16.11,5.3Z"/>
      <path class="cls-128" d="M79.02,206.57l-.95,5.59c-1.36,2.45-1.31-11.27-1.92-12.93,1.19-.89,1.68-1.96,1.47-3.21l1.31-.77c1.41-2.8-.23,13.21.09,11.33Z"/>
      <path class="cls-132" d="M82.24,222.65c-.06-.18-.06-.39-.31-.36,1.04-2.18,2.53-4.3,4.28-6.28-.4,2.99-2.22,4.91-3.97,6.64Z"/>
      <path class="cls-162" d="M125.78,168.47c-2.5-3.02,5.56-5.09,5.31-.83l.95,2.04c.35,4.08,3.33,6.9,8.93,8.46.58,3.14-1.6,3.48-6.55,1.03.54,1.1.34,1.78-.59,2.04l.13,1.28,1.51,1.93c1.01,6.52,1.82,13.06,2.43,19.61l-1.31,2.09c.52.14,1.31.37,1.34.77.29,4.1.39,12.63-.09,16.57-.55,4.53-2.75,5.5-6.39,2.68-.52-.18-1.16-.41-1.29-.89-.54-2.11-.91-7.38-.84-9.63.02-.52.6-.8,1.21-.91-1.59-1.29-2.04-7.04-.21-8.2l-1.39-.49c-.53-6.57-1.06-13.15-1.58-19.72l1.26-1.07c-.96-3.12-1.81-6.26-2.53-9.41l-6.17-2.9,1.64,3.71-.97,1.2,1.81,1.12c2.62,8.44,4.59,17.04,5.91,25.8l-.98,1.85c2.32.52,2.71,6.33.75,7.46,1.08.96,1.2,2.15,1.33,3.48.74,7.34,1.2,14.71,1.43,22.07.61,2.07.75,4,.41,5.77l3.69-.62c5.01,1.42,9.32,4.41,12.91,8.99,1.52.05,2.02.81.95,1.96l-.14.72c-1.03-.06-1.92.3-2.68,1.08.72.99.2,1.75-1.57,2.27-.83,7.25-2.63,14.29-5.42,21.11-.97,1.75-1.95,3.31-3.83,1.68-.46,1.06-1.29,1.85-2.51,2.37-1.34,10.39-1.62,20.88-.86,31.45l-.37,8.87c1.01.19,1.62.7,1.84,1.53.88.93.51,1.23-.67.82-1.74.08-2.27,10.51-1.98,11.02.6,1.08,11.03.85,12.93.73,11.29-.68,21.88-3.36,32-7.7-6.26-23.81-9.53-51.42-8.07-75.83.13-2.14.29-4.29,1.3-6.25l-.73-1.69c.11-11.82-.12-23.64-.68-35.47-.72-.05-1.36-.2-1.93-.43l.14-1.59c.96-.73,1.08-2.52.37-5.37l1.43-1.07c-1.23-.35-1.26-.86-.06-1.32-.03-1.39-.19-2.73-.49-4.03-1.29-8.61-2.76-17.18-4.4-25.71-1.52,1.21-1.85,3.04-.97,5.46-.73.45-1.01,1.38-.84,2.79.37,0,.66.03.68.13.7,2.72,1.24,6.2,1.67,9.01.65,4.27.99,8.62,1.3,12.94l1.28,1.34c-.07.88-.38,1.77-.91,2.66-.39,5.5-.57,11.09-.53,16.76-2.05,3.33-4.86,2.8-6.12-.88-.83-2.45-1.82-13.98-1.94-17.13l1.22-1.12c-1.32-.47-1.28-1.08.07-1.42-1.31-.02-1.25-.55.09-.8l-.57-.26c-.79-7.63-1.55-15.26-2.28-22.9l-1.19-.9c-2.5,2.1-5.58,2.67-4.37-1.33,3.21-1.57,4.89-3.64,5.05-6.19-1.69-1.18,1.3-4.69,2.64-3.27l4.37-.35c3.27-3.28,6.38-6.71,9.35-10.28l2.56-.87,3.35-1.34c1.39.23,1.89,1.13.75,2.14,2.78,3.22,6.13,8.93,6.93,13.12,1.68,8.82-5.06,4.3-9.12,1.21,1.36,2.59,3.38,7.12,1.33,9.5-.32,4.24-.78,8.47-1.4,12.68l-1.3,1c1.24.41,1.33,1.44.29,3.08l-1.36,10.63-1.5,1.17c1.69,2.51,2.01,8.93-.05,11.23l1.34,2.04-.02,28.95-.98.97c-.26,3.3-.4,7.89,1.01,10.67.11,4.3.13,8.59.07,12.89-1.18,1.62-1.68,3.88-.82,5.67,1.67.89,2.6,6.45.63,7.28,1.98,2.69,2.86,8.27,2.98,11.78l-1.03,2.36,1.42.58,1.38,10.13-.65,1.36,1.24,1.05c.45,3.74,1.27,7.42,2.44,11.06l-1.05,1.19,1.62,1.55,2.76,10.55-.88,2.11,1.64,1.25c.62,3.71,1.56,7.32,2.84,10.83l-.61,1.93c1.4-.07,2.17.8,2.3,2.63.66,2.14,1.83,6.72.35,8.21-.67-.03-1.39.08-1.69-.52-.26-.52-.08-1.23-.33-1.85-5.8-14.22-2.09-16.51-7.09-21.04l-1.62-.95-1.91-7.93c-13.85,8.02-30.42,8.72-46.02,7.94.18,1.84-.36,3.02-1.62,3.54-.7,1.34-.7,2.01,0,2.01,1.58.69,1.31,4.39-.15,5.12-.92.32-1.21,1.17-1.69,2.22-.38.83.35,1.48,1.09,1.98,1.79.86,1.91,4.23-.44,4.1-1-1.93-.6-.19.1,1.27-1.16,1.44-1.26,3.76-.39,5.44,1.73,2.11,1.2,7.09.88,10.03.23,2.13-.4,3.5-1.89,4.12-.43-1.06-1.33-.24-2.05-.21-1.76-.8-1.77-1.67-.04-2.52.5-3.21.63-7.12-.82-10.22-.36-5.57.17-10.95,2.05-16.02-1.77-1.13-1.74-2.94.12-3.96.66-2.05.08-4.38-.69-6.51.16-4.76.69-9.47,1.6-14.12-.44-5.39-.56-11.18,1.57-16.25-1.74-.5-1.58-1,.16-1.37.44-2.43.49-5.89.06-8.35-.03-.19-.38-.33-.82-.45.37-3.9-.1-4.91-1.4-3-.12,1.76-.74,2.79-1.85,3.08,1.14,1.23.35,4.63-1.64,4.21-1.13,5.28-2.69,10.45-4.68,15.51l-1.84,1.04c1.28,2.23-1.25,7.6-3.45,8.71l.98,1.26c-1.85,2.51-2.26,5.42-1.22,8.71l-1.54.7.88,1.22c-1.41,2.27-2.41,4.69-3,7.26l-1.5.99c.81,3.38.72,6.94-.29,10.68.08,2.67-.63,4.3-2.12,4.91,1.68,1.9,1.05,7.4-.69,9.17l-2.7-3.12c-1.16-1.32-1.39-3.24-.69-5.77.84-1.01,1.52-2.27,2.05-3.76l-.71-.71c.86-2.02,1.08-4.02.69-5.98-1.39-.48-1.59-1.77-.6-3.86-1.35.04-2.06-.1-2.18-1.6-.61-1.47-2.27-2.21-4.99-2.23l-3.11-.92c-.85.7-1.32,0-1.39-2.11-.81.57-1.71.38-2.71-.57-.25,1.67-.87,3.23-2.53,1.85l-1.87-1.26c-1.69-2.42,3.4-7.95,5.85-5.31,1.5.04,2.82,1.27,3.39,2.6,1.16-.94,4.71-8.27,4.24-8.14-.31.08-.64.07-.98.02-.91,1.26-1.47,1.74-2.58.44-1.11,2.02-5.03.34-6.58-.97l-16.75-3.66-5.38-2.47c-3.26-1.24-5.29-3.05-6.09-5.42,2.84-1.82,1.99,1.71,4.49-.07-.64-1.56.07-5.03,1.51-6.02.19,1.98,4.05-7.83,3.72-6.81.97-2.97-.24-6.35.99-9.2.4-.93,8.51-3.55,9.52-2.06,4.97-2.99,10.64-3.86,16.27-5.13,2.24-.51,8.72-2.56,9.69-.16-1.44,1.97-3.76,2.55-6.98,1.72-2.12.66-4.23.98-6.32.96-.56,1.63-2.5,2.11-3.45.53l-1.48,1.87c-4.71,1.62-9.53,2.76-14.47,3.42-.46,3.74-1.29,7.41-2.49,11.01l-1.49.72,1.1,1.8c-.48,2.93-.62,5.85-.44,8.75l2,1.12c7.83,1.89,15.58,4.19,23.25,6.9l1.7-1.75c.72-2,1.77-3.16,3.15-3.48,1.4-6.9,3.28-14.9,7.82-20.24-1.84-1.02.37-5.43,2.15-5.45l-1.07-1.14c2.17-2.67,2.71-4.94,1.62-6.81,1.42-1.75,4.04-2.27,6.02-3.31l.62,1.11c-5.04,14.09-10.2,28.19-15.48,42.29.23-.33.96.2,2.21,1.61.67-1.45,2.15-1.57,4.44-.36,5.29-13.39,10.42-26.84,15.41-40.34l1.65-2.27-.92-1.46,2.77-7.16-5.8,3.56c-.06,2.77-4.15,1.97-2.89.14.09-.13,2.01,1.7-1.09.85-1.21-1.95-3.13-1.25-5.1-.59-.25.08-6.3-.57-5.75-1.45l1.21-1.15c6.56-.37,12.73-2.56,18.5-6.56l9.42-.78c1.45-.75,2.66-1.97,1.74-3.61-.96.7-2.13.6-3.51-.31-2.52-.28-3.91-1.16-4.19-2.64-1.43-.66-1.86-1.4-.23-1.73,4.04,1.53,7.57,1.74,10.61.61-.52-1.01-.95-2.11-1.3-3.3l-9.65-3.75c-.93-.38-.91-1.23-.51-2.17l.32-.94c3.02.29,5.98,1.05,8.89,2.27,1.59.71,2.93.45,4.04-.79-.93-.36-1.4-1.18-1.39-2.46-3.08-1.76-6.38-3.15-9.92-4.18-2.32-.57-3.39-1.69-3.22-3.35-1.07-.66-.79-.93.84-.82l12.34,3.25,1.57-.4c-1.11-1.13-1.92-2.55-2.44-4.26-4.22-1.19-14.5-3.56-18.25-1.67-5.48,5.39-10.91,10.87-16.29,16.42-2.43,1.98-5.63,3.39-8.76,3.7-9.91.95-20.07.77-30.05.05-.56-.04-1.11-.28-1.68-.54s-1.12-.62-1.65-.99c-4.23-1.08-5.16-.64-7.54,3.05-4.6,7.14-6.52,15.52-4.45,23.85l-.88,1.92c.49,1.67.91,2.85,3.34,3.14.52.22-.07,1.77-.5,2.09-.55.4-1.5.5-2.14.23l-.5-.84c-4.26-2.05-5.63-4.23-4.1-6.55-2.09-.47-3.18-6.9-.82-7.46-1.33-1.52-1.44-3.68-.35-6.47.23-2.8,1.26-4.44,3.09-4.93l-.75-1.51c1.37-4.05,5.6-9.15,9.57-10.86-.84-.38-1.79-.33-2.84.17-1.73,1.32-3.29,1.83-4.7,1.54-.55.54-1.08.71-1.58.52-3.58,4.11-5.4.4-.91-3.18,5.89-2.83,5.07-3.48-.76-1.9-1.61,1.27-3.17,1.66-4.67,1.18-.62,1.97-2.05,3.75-4.28,5.32-1.42,2.4-3.11,3.98-5.07,4.75.38,2.06-.19,4.33-1.69,6.84-.29,2.58-1.13,4.54-2.53,5.87,1.78,1.25,2.2,5.89.85,7.56,1.73,1.78,4.13,5.01,3.3,7.36l-3.93-2.31c-1.84,2.28-3.82,1.48-5.83.37-3.03-1.67-6.54-1.46-9.85-2.82-.26-1.46-5.52-13.54-6.66-9.39-.42-1.31-1.34-2.88-1.94-4.19-.53-3.77-.82-7.54-.89-11.29,1.61-4.29,3.15-8.53,4.61-12.71l1.45.6c1.48.94,1.71,2.09.68,3.46l.84,1.28c-3.37,5.24-4.98,10.12-3.76,16.24l1.46.04,3.85,9.53c2.94,4.03,7.27,6.29,12.96,6.77l-.57-11.4c-1.82,1.16-2.09.67-2.99-1.02-2.62-4.92,8.33-18.06,13.24-19.93-7.45,2.37-13.16,8.04-18.26,13.74-1.59.73-1.92-.11-2.48-1.68-1.35-3.79,12.81-14.74,16.87-15.26-6.49,1.79-12.47,4.98-17.93,9.57-4.22.85-.7-5.6.91-7,7.3-6.33,16.89-8.36,26.35-7.62-6.31-2.23-13.68-3.49-19.99-.57l-1.59-.73c-.96-.36-1.04-1.04-.59-1.92,1.53-2.95,9.38-3.6,12.49-3.63.28.86,1.01,1.31,2.18,1.36,1.92-2.22,8.41-.54,9.32,2.17l1.84-.65c3.38,2.89,7.12,4.72,11.21,5.49,2.05,1.62,3.26,1.88,2.66-1.03.19-2.27,1.02-3.19,2.5-2.76-.75-2.62,1.39-8.2,4.02-9.12-.28-4.62,2.94-10.65,6.69-13.4.41-2.59,1.34-3.95,2.78-4.08-.23-1.05,0-2.5.32-3.56.57-1.86,2.08-5.76,3.61-6.46.29-1.83.9-2.92,1.84-3.27-.5-1.5-.92-5.32.95-5.59.08-.52.23-1.12.67-1.45,1.84-1.36,2.59,5.01,1.49,6.38.82-2.65,4.57-6.31,4.5-2.14.93,1.6.58,3.58-1.07,5.94-1.55,3.52-3.63,6.26-6.22,8.22.3.62.99.59,2.05-.07-1.02-1.29.2-2.37,1.48-1.17.59-.43.69-.3.31.36.59-.07.64.15.21.63-.3.59-.09.78.58.62.19-1.66,1.74-3.04,3.4-2.54,1.06.06,1.32,1.06.8,2.98-3.13,3.73-6.87,6.96-11.23,9.71-.78,2.3-1.85,3.71-3.22,4.22.89.43.89,1.44.03,3.04,1.4,1.14,2.1,2.33,2.09,3.57,1,1.24.58,1.66-.64.63-.07.54-.25.53-.55.03-1.02-.04-1.88-.26-2.57-.66-.96,1.79-.87,3.72.25,5.79l-2.28,1.52c-.44.34.71,10.57.95,11.06.69,1.39,15.25,1.2,17.8,1.04.58,1.04,1.85,1.33,3.81.89l1.11-1.24c4.81-.36,8.76-2.87,11.86-7.52l5.5-4.85,1.58.12.55-2.58c1.95-1.24,2.77-2.66,2.48-4.24-1.2-1.72-1.33-3.04-.4-3.98l-1.68-.61-5.13-13.3.9-1.38c-.61-.63-1.2-1.27-1.71-1.97s-.98-1.38-1.28-2.14c-2.71-6.8-5.32-13.74-7.8-20.63-.28-.77-.4-1.59-.51-2.43s-.12-1.73-.11-2.6c-.28.15-.56.27-.84.3-.64.06-5.47-10.49-5.67-11.38l.47-1.46c-1.54-.27-2.83-.72-3.89-1.36-2.46-3.89-4.94-7.73-7.44-11.51l.43-1.48-.92.07c-3.14-4.95-7.14-9.07-12-12.34l-.54-1.66c-4.33,1.45-8.85,3.51-13.19,5.57-1.11.51-2.02.43-2.73-.22-.19.59-.41.58-.67,0-1.11-.93-.63-1.87,1.46-2.8,2.42-.97,4.61-2.23,6.57-3.79l.65-.82c-2.78,2.81,5.04-1.55,4.11-1.01,2.93-.1,5.84.48,8.73,1.75,7.31,6.19,13.17,13.87,17.57,23.03l3.27-1.85c-.88-.37-1.55-.95-2.02-1.73-.97-5.43-2-10.86-3.07-16.27l-6.98-3.63-.19-1.61c.03-.65.1-1.3.2-1.94.95.05,1.89.13,2.81.3s1.82.34,2.63.71c13.14,5.97,26.08,12.41,38.88,19.07l1.07-1.26Z"/>
      <g>
        <path class="cls-35" d="M123.89,293.94c-2.09.69-4.18,1.29-6.27,1.79l-15.03,39.22-.2,1.96c-1.32-.01-2.71-.67-3.3-1.42,3.56-13.5,12.71-31.33,15.94-43.6.24-.91,1.17-1.33.92-2.03.65-.41.73-1.45,1.6-1.55.25.54.24.85.32,1.06.21.56.57.41.68.12s-.04-1.38.16-1.49c2.89-1.71,5.51-3.94,8.87-4.74-.57,4.07-2.66,7.32-3.69,10.68Z"/>
        <path class="cls-127" d="M105.59,342.51c-2.61-.46-4.91-1.07-7.65-2,.02-1.28.42-2.44,1.28-3.62,2.66.97,5.1,1.43,7.91,1.99.13,1.49-.74,2.51-1.54,3.63Z"/>
        <path class="cls-203" d="M104.07,350.22l-9.1-2.08c-.75-.55.38-3.18,1.32-3.04.73.1,10.82,1.93,7.78,5.13Z"/>
        <path class="cls-217" d="M95.63,336.8c.42.25.73.48.7.6-.44,1.56-2.22,6.01-2.98,7.44-.08.15-.48.13-.97.07-1.7.22-3.01-.98-3.39-2.6.35-.49.82-1.15,1.41-1.36.45-.16,1.68.05,1.8-.88.15-1.14.06-2.14.85-2.84.75-.41,1.71-.6,2.58-.44Z"/>
        <path class="cls-113" d="M92.37,344.91l3.25-8.11c.42-1.05,1.33-2.62,2.79-2.04-1.27,3.69-3.57,6.37-4.13,10.1-.12.78-.89.64-1.22.47-.19-.1-.47-.36-.69-.42Z"/>
        <path class="cls-179" d="M108.22,339.68c2.41-2.44-.55,7.81-2.17,8.69-1.32.5,2.66-9.19,2.17-8.69Z"/>
        <path class="cls-37" d="M105.41,344.35c-2.89,1.02-6.12-.38-8.74-2.53,3.12.32,5.5,1.25,8.74,2.53Z"/>
      </g>
      <path class="cls-211" d="M80.18,151.6l8.45,4.39,3.26,17.64,8.55-3.02c1.34,1.47,1.97,3.42,2.44,5.14-1.19-4.57-10.9.4-12.71,1.8-.76.59.42,2.03,0,2.96-7.82-10.41-12.39-26.56-27.28-28.59,2.59-1.5,5.17-.47,8.47,1.25.05-2.11-2.26-1.41-3.89-2.59,1.49-.3,3.53-1.89,5.39-1.3,2.43.77,5.29,1.24,7.35,2.32Z"/>
      <path class="cls-144" d="M179.78,344.32l-7.58,3.33c2.35-1.18-.75-6.48-1.15-6.6-.66-.2-1.52.07-2.35.27-11.69,2.86-23.18,4.57-35.27,3.48-.16,3.46-.38,6.35-.22,9.32-1.53-.19-3.22.45-4.76-.06-.55-1.67-.29-3.45.15-5.12-.75-.3-.75-.97,0-2.01.22-1.65-.02-3.39.7-5.21,14.32,1.67,35.41.13,47.73-8.38,1.48,3.63,1.78,7.46,2.75,10.99Z"/>
      <path class="cls-45" d="M141.21,175.15l4.22,4.41c.79-2.13,2.07-3.08,2.85-4.44.01.1.05.32.19.87,1.97-1.13,4.94-2.46,5.63-4.95,2.51,4.06-3.13,4.39-4.58,8.1,2.29-.11,3.21-1.83,5.47-2.29l2.48,25.78c-.48.82-1.92.56-2.54-.24-.56-6.97-1.32-13.8-2.29-20.48-5.65,3.63-11.88,3.12-17.66.07l-1,.51c-.1-1.43-1.71-3.51-.36-5.02,2.68.39,4.63,2.74,7.2,2.04-13.41-6.43-7.02-6.12-9.12-9.63-.5-.84-1.39-1.5-.6-2.24,2.22.66.71,3.69,1.92,5.05.81.91,9.86,5.17,8.19,2.46Z"/>
      <path class="cls-60" d="M173,156.27c-4.15,4.69-8.15,9.49-12.96,13.48-.79-1.86-2.03-2.24-3.31-1.98.98-.3,2.41-.86,3.63-1.11,5.31-5,9.14-11.15,11.31-17.73-.16-.2-.29-.39-.29-.59-.06-2.84-.14-4.91-.35-7.76-.03-.46.6-.82,1.14-1.05,1,2.45.92,4.86.67,8.15,1.27-.27.35-1.27,1.01-2.16,3.23,4.11.37,7.13-.86,10.74Z"/>
      <path class="cls-10" d="M101.09,177.16c3.95,4.98,24.97,57.76,27.88,68.09-3.33-.28-5.95-.97-8.72-1.06-1.04-3.02-1.29-6.06-3.29-7.98-.81-.17-1.16-.92-1.05-2.23-6.72-18.42-14.36-36.75-22.93-54.99,2.12-1.37,6.02-3.3,8.11-1.83Z"/>
      <path class="cls-92" d="M101.09,177.16c-2.33.59-4.7.99-7.11,1.97,4.6,8.65,8.33,17.16,11.85,26.17l11.12,28.45c.35.91-.49,1.82,0,2.47.78,2.73,2.46,5.46,2.02,8.89l-8.81-23.33c-5.64-14.95-11.63-29.28-18.68-43.48,3.05-1.36,5.58-2.49,8.49-2.81.92-.1.8,1.29,1.11,1.68Z"/>
      <path class="cls-73" d="M128.63,185.24l1.71,21.28c-.56,1.64-2.37,1.73-3,.08-2.61-12.15-2.47-16.79-6.74-28.76-.28-1.26-.41-2.12.94-2.28,3.95-.48,6.92,6.44,7.09,9.68Z"/>
      <path class="cls-160" d="M130.6,171.18c1.17,7.94,6.04,42.42,4.31,47.31-.15.44-1.8-.44-1.85-.97l-3.94-41.54c-.09-.95-2.15-7.94.25-6.43.36.23,1.12.86,1.24,1.64Z"/>
      <path class="cls-90" d="M161.43,200.52c2.47,21.26-1.79,15.85-1.85,14.16-.51-14.46-1.87-28.51-3.73-42.88-.17-1.3.71-2.7,2-2.16l3.58,30.89Z"/>
      <path class="cls-166" d="M166.85,198.6c.31.52.56,1.03,0,1.34-.52.07-1.31.11-1.45-.25-.67-1.68-5.19-20.66-4.14-20.84.15-.02.44,2.85-.63,2.28-.24-2.17-1.27-4.66-.75-7.11.33-1.56,2.41-2.74,3.71-3.21,2.02,9.57,3.26,18.66,3.26,27.78Z"/>
      <path class="cls-205" d="M130.54,214.72c-.61,3.61.74,7.8.92,11.44l.88,18.04c.02.49-.03.96-.27,1.15-.17.13-.58,0-.8.03-.23-1.89-1.6-3.81-1.7-6-.39-8.62-.55-17.01-1.48-25.32.39-1.94,2.5-1.26,2.45.66Z"/>
      <path class="cls-63" d="M166.85,199.94c.27.62.44,1.52.49,2.68-.02.43.14.9.06,1.32-.58.3-1.24.38-1.84.61-.64-.11-1.58.21-2.19-.15-.67-.39-.32-1.56-.41-2.44l-2.32-20.83c.63-.79.13-1.84.62-2.73l5.6,21.54Z"/>
      <path class="cls-166" d="M128.63,185.24c-.23-2.84-6.98-11.26-8.03-7.4-.82-2.31-2.38-4.31-2.48-7.35,2.91,1.6,6.7,2.56,9.04,4.56,1.32,3.11.97,7.04,1.47,10.18Z"/>
      <path class="cls-36" d="M130.33,206.52c.25,3.09.71,5.26.21,8.2l-2.45-.66c-.26-2.33-.27-5.21-.75-7.46.98-.25,2.01-.34,3-.08Z"/>
      <path class="cls-164" d="M109.02,295.21c.55-.14,2.06-.04,2.16.52.51,3.13-2.35,5.3-2.71,7.42-2.35,1.29-7.72,1.36-9.94-.43.52-3.84-.94-4.79-4.39-2.85-1.79.28-3.22.16-3.02-1.91,4.23-1.7,8.84-1.86,13.3-2.68,1.24-.23,3.41.24,4.6-.07Z"/>
      <path class="cls-155" d="M116.65,192.49c1.69-.35,2.36.83,2.01,3.53,2.45-.01,3.97.62,4.56,1.9,1.16,4.39,1.32,8.89,1.93,13.34-.03,2.35-4.54,2.06-5.99.74-2.4-4.8-4.1-9.79-5.96-14.75-1.24-4.78-2.35-9.59-3.34-14.45-2.13.06-3.45-.44-3.96-1.51-1.61-6.53-.29-4.18-3.02-10.8,1.63-1.16,6.66-3.27,7.16-1.16l1.71,7.22c.39,1.64,1.65,2.21,1.72,4.03,0,.02,2.05,15.47,3.18,11.92Z"/>
      <path class="cls-206" d="M106.31,308.61c-2.19,6.89-5.23,13.48-7.82,20.24-1.23-4.17,2.9-8.95-1.49-9.62l-3.3-.5v-.67c.98.29,2.84.01,4.04.17l1.07-10.63c2.69-.26,5.15.59,7.5,1.02Z"/>
      <path class="cls-152" d="M46.69,275.7c-1.63-.58-3.33-.35-5.24-1.53,2.02-3.23,4.14-6.38,6.52-9.13,1.47-1.7,7-5.43,10.64-1.72l-3.4,1.65c-3.93,1.91-6.56,6.69-8.52,10.74Z"/>
      <path class="cls-147" d="M123.23,197.92l-5.53-.42c-.88-1.73.19-3.73-1.04-5.01-.52-2.08,2.49.19,3.12-1.86.41-1.32.26-2.48-.56-3.14-.95-.76-2.13-.36-3.1,1.02-.58-1.91-1.16-3.9-1.23-5.96,6.84-1.34,7.84,13.47,8.34,15.37Z"/>
      <path class="cls-57" d="M40.06,261.66c.89.52,1.88.88,2.77,2.18-2.9,2.32-6.85,9.92-9.08,9.53-1.17-.21-2.71-.37-3.05-1.65,2.4-4.22,5.38-7.51,9.35-10.06Z"/>
      <path class="cls-204" d="M113.19,197.24c-2.02-5.37-5.89-10.25-7.3-15.96,1.29.11,4.06-.6,5.11.72.57,1.68,3.17,14.96,2.18,15.24Z"/>
      <path class="cls-118" d="M66.67,155c.03.75-.49,1.32-1.33,1.73l-7.6,3.76c-1.57.78-3.01,1.26-4.52,1.41-1.06-.08-2.31-.35-2.46-1.56l11.11-5.11c1.84-.85,3.21-.71,4.81-.25Z"/>
      <path class="cls-130" d="M128,312.02l-.09-8.22c-1.3-.59-2.68-.25-3.92-.51.22-1.96-.02-4.46,2.55-4.99-2.75-.71,1.31-7.85,2.01-9.22l.06,22.22c0,.46-.29.83-.6.71Z"/>
      <path class="cls-173" d="M114.39,240.88c.62,1.6,2.43,3.82,1.73,5.75-.78,2.16-3.22,3.32-4.37,5.05-.89-3.44-.33-7.16-.53-10.77l3.17-.03Z"/>
      <path class="cls-135" d="M118.4,180.39c-6.8-6.14-4.72-2.92-6.46-12.46,1.38.12,2.43,1.21,3.14,2.69.99,3.24,2.73,5.69,3.31,9.77Z"/>
      <path class="cls-132" d="M80.45,223.45c-1.28,1.37-2.74,2.46-4.01,4.12-.49-2.14,1.3-2.8,1.95-4.04l2.05-.07Z"/>
      <path class="cls-132" d="M83.04,223.89c-.79.53-1.2,1.64-2.41,1.64.54-1.19.97-1.91,1.83-2.25.15.23.41.4.58.62Z"/>
      <path class="cls-217" d="M128.6,348.93c-.54.13-.48.69-1,1.39-.91-1.19-.03-2.65,1-3.41-.08.64.17,1.39,0,2.01Z"/>
      <g>
        <path class="cls-54" d="M176.89,167.61c-1.63-.52-3.07-1.92-4.48-1.69-1.54.24-2.68,2.04-3.05,3.09-.35.99.68,2.66,1.42,3.26,3.8,3.08,2.64,6.66,2.14,10.29-1.41-1.17-2.98-2.05-4.7-2.65l-.64-1.51c-.2-3.55-1.96-7.28-1.21-10.58,1.84-3.45,5.57-5.92,7.88-8.87,1.45,1.69,4.14,6.8,2.63,8.67Z"/>
        <path class="cls-106" d="M125.15,211.26c.94,6.95,2.01,13.97,1.91,21.47-.67-.02-9.23-23.38-7.9-20.73,1.87-.94,4.03-.1,5.99-.74Z"/>
        <path class="cls-59" d="M172.92,182.56l-3.13,22.86c-1.15-9.35-1.71-18.16-2.21-27.02,2.32.45,5.57,1.47,5.34,4.16Z"/>
        <path class="cls-30" d="M182.82,326.17l.72.32,3.03,10.52c1.76.35,1.28,1.98-.36,2.62-1.06,1.37-2.05,2.9-3.84,3.25-1.06-4.76-2.81-9.36-3.51-14.21-.3-2.01,2.32-3.92,3.95-2.5Z"/>
        <path class="cls-54" d="M100.6,168.18l-1.37-.46c-.56-2.92-4.31-4.04-6.89-3.3-.46-2.44-1.55-4.5-.9-7.11l17.86,8.68c-3.12.49-5.94,1.05-8.7,2.18Z"/>
        <path class="cls-47" d="M182.82,326.17l-3.95,2.5c-.62-4.39-3.33-8.73-2.63-13.3-.47-1.94,1.76-3.07,3.44-2.55,2.93,3.58,3.84,8.84,3.14,13.36Z"/>
        <path class="cls-42" d="M178.8,303.29c.52,2.9,1.06,5.79,1.62,8.67l-.75.85c-.69,1.34-2.27,1.7-3.44,2.55-.57-.55-.83-1.37-.95-2.36l-1.2-9.72c.52-1.55,2.22-2.44,3.85-2.59.44,1.17-.12,2.31.87,2.59Z"/>
        <path class="cls-27" d="M100.6,168.18l-7.19,2.95c-.56-2.45-.96-4.56-1.07-6.7l.1-1.73c0,.08,8.03-.28,8.16,5.48Z"/>
        <path class="cls-34" d="M176.89,167.61l-2.63-8.67c.76-2.99,5.86,10.63,6.07,11.42-1.83-.22-2.29-2.23-3.44-2.75Z"/>
      </g>
      <path class="cls-108" d="M161.3,223.22c-1.53-1.6-1.31-3.82-.42-5.74,1.65,1.63,1.26,3.7.42,5.74Z"/>
      <path class="cls-219" d="M142.5,257.92c-.86-.54-.08-3.03.76-3.18,1.3-.22,1.6,1.23,1.42,1.81-.21.71-.86,2.19-2.18,1.36Z"/>
      <path class="cls-177" d="M134.62,225.26c-1.25-2.1-.61-3.84-.44-5.95,1.67,1.3,1.67,3.87.44,5.95Z"/>
      <path class="cls-55" d="M167.34,202.63c-.88-.53-.49-1.81-.49-2.68v-1.34c1.3.84.56,2.71.49,4.03Z"/>
      <path class="cls-9" d="M49.89,162.18c.89.03,1.71.22,2.94,1.09-2.41,2.13-3.58,4.98-5.4,7.18-3.2,3.88-4.12,9.13-6.59,13.31l.46,1.93-3.62,9.33-1.77,1-4.5,12.64c.23.34.43.7.56,1.07.34,1.01-3.34,8.99-4.28,10.6l-1.8,1.05c.75,1.32.82,2.54.23,3.64l-3.28,9.77-1.57.45c-1.62.41-2.2,1.9-2.92,3.52l-3.97,8.94c1.83,1.75,1.14,3.69-.03,5.36-2.38.87-3.76,3.55-5.44,5.57-.87-1.31-.32-2.24-.44-3.01l20.89-54.21c1.71-4.43,3.4-7.84,4.48-12.66,1.89-8.47,12.84-26.68,16.05-26.59Z"/>
      <g>
        <path class="cls-51" d="M122.54,313.46l1.28.71c-.51,4.07-.79,8.09-.85,12.07,5.15-.04,4.23,7.98-.79,7.55l-.93,10.28-1.42.83c.5.1,1.16.26,1.29.69.28.94-.19,8.75-2.04,8.66-.32,1.34.06,2.49,1.06,3.47.13,4.82-.6,9.26-2.21,13.32l1.28,1.07c-.54,2.87-.82,5.75-.84,8.65l-1.19,1.14c-.26-.06-.5-.16-.76-.2l-1.33-.78.13-8.87-9.74-2.25-.91-1.29,2.41-15.6c1.02,1.36,8.76,2.67,9.17,2.37.46-.35,2.45-11.41-1.19-9.86-2.59.11-4.05-.55-4.36-1.97.68-1.34-.46-3.73-.46-5.25,0-2.2,1.84-3.69,2.23-5.42l.74-.52c.85.18,5.32.88,5.58.38.88-1.74,1.59-8.91-2.19-7.21l-.68-1.36c2.24-5.47,3.45-11.54,6.52-16.55,2.03.66,2.37,5.33.2,5.96Z"/>
        <path class="cls-195" d="M127.84,313.39c-.19,10.85-1.13,21.67-2.01,32.87-.12,1.49.68,3.2-.46,4.01-1.24-.49-1.74-1.62-1.52-3.4-2.29.03-3.63-.62-4.02-1.97l1.16-12.86c1.69.59,2.99.35,3.59-.31,1.04-1.14,1.18-2.52.31-3.51s-2.18-.69-3.71-.19l1.35-14.57c.44-2.18,4.07-1.61,5.3-.07Z"/>
        <path class="cls-140" d="M106.98,352.9c.26-1.67.31-2.97,1.27-4.86l2.35-4.61c2.21.5,5.03.31,7.24,1.54,1.68.93-.39,8.3-.47,11.9l-7.6-1.16c-1.8-.27-2.9-1.17-2.8-2.81Z"/>
        <path class="cls-195" d="M112.37,332.76c.7-3.12,2.29-5.86,3.45-8.71,1.4.07,2.84-.07,4.52.29.53,3.34.04,6.23-.52,9.69-2.74,0-5.65.52-7.45-1.27Z"/>
        <path class="cls-195" d="M124,329.4c.12,1.81-1.43,2-1.55.3.06-1.06.98-1.43,1.55-.3Z"/>
      </g>
      <path class="cls-76" d="M38.78,228.16c1.81.4,2.77,1.52,1.04,2.77l-.55.38c-1.51,1.36-3.03-1.03-1.75-2.38-1.19-.32-2.42-1.16-3.69-2.53l-7.72-2.44c-.49-.53-.56-1.39-.21-2.58,1.41-4.36,4.03-8.51,5.53-12.72,3.07,1.56,6.66,2.09,9.99,4.25.03,3.85-6.64,13.91-2.64,15.24Z"/>
      <path class="cls-8" d="M37.52,228.93l1.75,2.38,6.28,8.59c.98,1.34-.9,4.01-2.29,4.28l-10.5-5.44c-1.99-1.14.38-6.74,1.47-8.62.84-1.75,2.18-3.42,3.28-1.19Z"/>
      <g>
        <path class="cls-81" d="M76.24,215.43c-.19,3.62-2.54,6.72-3.93,10.02-.37.73-.83.97-1.41.52.07-4.69-.31-9.34-1.15-13.94l2.09-6.51-7.15-7.62c-1.74,2.41-3.17,5.2-4.29,8.36l-1.6.28q-1.38.38,0,0c.65-.27,1.3-.31,1.98-.12,1.69.46,8.4,8.2,9.56,10.21,1.33,2.3.84,10.48-.8,12.9-2.24,4.46-4.69,8.82-6.69,13.4-1.2-.36-2.31-.81-3.33-1.33-1.06,1.92-1.75,3.93-2.09,6.03l-1.31.72c-2.03,1.3-3.67.98-5.8.42s-7.34-2.24-7.03-4.59c.15-1.14.55-2.31,1.22-3.5l-5.74-7.8.52-1.56c-.18-.59.01-.71.55-.38l1.51-.33,4.91,5.5.92-2.79c-2.99-1.5-5.79-3.22-8.38-5.16-.74.55-1.6-.37-2.59-2.78,1.07-3.98,2.34-7.9,3.81-11.78l-8.19-3.27-.4-1.67-1.01-1.17s1.31-3.67,3.92-11.01l1.59-.45.99-1.08,8.48,2.92c1.62-3.33,3.06-6.66,4.33-9.99-2.51-.75-5.06-1.58-7.67-2.48l-1.19-1.63-.63-1.64,3.78-8.74c.7-2.17,1.84-3.15,3.44-2.93,3.08.11,6.08,1.06,8.99,2.86,1.2-2.87,2.64-4.05,4.32-3.55.56-.09,1.06-.11,1.32.13,7.2,6.6,12.16,22.46,13.72,31.99.69,4.22,1.54,9.59.45,13.54Z"/>
        <g>
          <path class="cls-213" d="M72.3,225.44c-.64,1.51-2.05,2.64-2.78,4.08.03-3.45,2.16-8.86-.19-12.22-2.76-3.93-6.83-7.82-10.54-10.76l3.9-8.66c.28-.62,1.04-1.15,1.49-1.44s1.31.29,1.88.91l7.39,7.93-2.4,6.77c.42-1.18.14,15.75,1.25,13.39Z"/>
          <path class="cls-172" d="M60.22,166.41c1.92-.66,4.75,2.9,5.99,4.55,1.52,1.33,1.8,2.52.82,3.58l5.86,12.09c1.47.03,2.29,1.01,2.45,2.95l1.74,8.16-.92,1.49,1.46.42c.15,4.23.3,8.4.46,12.51-.2,1.19-.99,2.53-1.84,3.27.4-7.69-1.27-15.04-3.46-22.64-2.63-9.13-5.93-16.36-12.02-23.02-2.28-2.49-4.11-5.73-7.46-7.34,2.61-.02,5.27,1.85,6.93,3.98Z"/>
          <path class="cls-74" d="M62.83,242.93c-1.32,3.02-2.33,6.25-4.02,9.12-1.64-.15-2.55-2.14-2.71-3.7-.31-3.01,1.74-5.69,2.73-8.78,2.07.62,3.6,1.63,4,3.37Z"/>
          <path class="cls-167" d="M68.77,185.5c-.6,3.56-3.36,6.45-4.77,9.84-4.3-2.94-8.03-5.2-12.66-7.7,1.28-4.22,2.85-8.4,5.55-11.88,2.89-1.25,10.28,7.07,11.87,9.73Z"/>
          <path class="cls-210" d="M58.79,206.54c-1.76,3.91-2.09,8.35-4.66,12.53-4.27-2.35-8.52-4.09-12.3-6.79,1.57-4.49,2.52-8.01,4.75-12.11,4.16,2.47,8.91,3.74,12.22,6.36Z"/>
          <path class="cls-20" d="M63.87,225.73c.87.99-3.48,12.05-5.04,12.61l-9.4-5.95,4.28-10.79c.21-.54.76-1.03,1.08-1.17,1.54-.66,8.26,4.35,9.08,5.3Z"/>
          <path class="cls-188" d="M35.92,196.03c1.55-4.36,2.62-8.35,4.93-12.26,3.29.6,6.53,1.89,9.88,3.54-.66,4.49-2.71,8.06-4.5,12.27l-10.3-3.55Z"/>
          <path class="cls-8" d="M39.82,230.93c-.32-.85-.47-2.05-1.04-2.77.14-1.5,8.71,3.81,9.99,4.56-.44,2.15-1.2,4.24-2.41,5.57l-6.54-7.36Z"/>
        </g>
      </g>
      <path class="cls-124" d="M88.44,226.08c-.09-1.92-.21-4.05-.06-5.95.33-.25.82-.66.55-.86l-1.51-1.1c-1.3-.95.2-5.76,1.78-6.46,3.24-1.24,6.98.12,10.72-.24l.72,14.33-12.19.29Z"/>
      <path class="cls-21" d="M101.08,240.96l-.22,8.99c-1.3.33-2.2.23-3.13.27-2.23.3-4.49-.17-6.71-.05l-2.84-1.19.23-8.67c4.48-.71,8.64.66,12.67.65Z"/>
      <path class="cls-111" d="M72.43,172.51c.01.2-.15.44-.1.63-1.71.74-3.41,1.7-5.3,1.39-1.42-2.92-4.81-5.57-6.8-8.13-1.13-1.2,6.18-4.72,6.67-4.18l5.54,10.28Z"/>
      <path class="cls-22" d="M78.85,193.21l.09,2.03c.05,1.22.09,2.44-.17,3.96-1,.33-1.82.14-2.61.02-1.47-3.99-1.44-8.84-3.27-12.61,1.18-.23,2.34-1.03,3.77-.72,1.1,2.6,1,5.2,2.19,7.31Z"/>
      <g>
        <path class="cls-100" d="M5.37,278.59c-.91-5.9.57-11.62,4.43-17.14l-1.51-.38c-.58-1.07-.43-2.31-.68-3.46-.2-.94.61-1.3.87-1.98.78.53,1.57-.02,2.38-1.66,1.38-1.81,2.55-2.11,3.49-.9,1.02-1.08,1.85-1.32,2.84-.04,3.26-1.62,7.07-2.69,11-2.26,5.51.6,11.52,1.15,15.63,5.49-11.19-1.79-22.02-.43-30.21,6.45-1.65,1.38-3.05,2.96-3.54,5.2,1.35-.04,2.53-1.1,3.82-2.12,8.87-7.03,15.51-8.94,26.8-8.22-9.2,1.14-25.4,8.42-27.04,18.41,6.63-7.79,13.8-14.17,23.99-16.04-1.24,2.44-3.41,3.58-5.61,5.15-5.83,4.17-11.64,10.82-10.51,18.45,2.55-6.01,3.62-11.96,9.22-15.25-7.96,11.07-6.7,15.41-5.48,28.32-6.22-1.22-13.67-2.41-16.21-8.76l-3.7-9.26Z"/>
        <path class="cls-143" d="M5.37,278.59c-1.5-3.76-2.37-7.55-.24-11.57l3.15-5.95,2.13-2.17c1.5-1.52,2.34-3.72,4.69-4.32-2.73,3.99-4.22,8.01-6.33,12.03-1.87,3.56-3.63,6.86-2.82,11.26-.13.39-.14,1.06-.59.73Z"/>
        <path class="cls-15" d="M20.88,291.69c-3.47-1.07-7.81-2.37-9.54-5.84-.06-2.54,1.84-5.27,3.06-7.58l5.5,4.21c1.35,2.47.27,5.77.99,9.2Z"/>
      </g>
      <path class="cls-81" d="M37.52,228.93c-2.04-1.19-4.34,8.45-4.75,9.81-3.57-1.85-7.63-2.49-11.49-3.49l3.57-10.64,1.05-3.22c-.12.7.32,1.28,1.21,1.55l6.6,2c2.1.64,3.27,2.23,3.81,3.99Z"/>
      <g>
        <path class="cls-176" d="M199.25,182.42c1.26.56,1.16,1.18-.18,1.41.45,7.83.13,15.68-.96,23.57l2.04-.09c-1.48,5.55-2.73,11.21-3.76,16.97,3.25-2.5,2.84,2.37.63,3.98l.21,1.54c-2.32,3.04-3.48,6.74-3.48,11.11l-1.46.59c-.3,1.14,0,1.9.88,2.27-1.47,4.54-.87,4.65,1.78.33l2.35-1.36c-.31-.51-.22-.6.28-.26,1.27-.08.28,3.53-.17,4.74l-6.5,8.88c-.6,1.67-.83,3.42-.68,5.24l8.96-6.98c2.87.16,1.94,2.8-.02,3.98.25.46.59,1.17.32,1.43-2.47,2.37-6.63,4.85-9.63,6.54l-.05.8,6.65-3.99c3.97-1.79,8.58-1.37,3.9,2.45,2.16.07,4.22-.09,6.16-.51.77,1.49,2.05,2.41,2.58,4.03-.23.22-.47.41-.75.53-.32.13-6.23-.14-6.46-1.08-1.37,1.81-3.55,3.02-6.54,3.62-2.86.74-4.71,2.07-5.56,3.98,3.1-1.43,6.4-2.44,9.89-3.02,0,0,3.38.22,10.13.65-1.79-2.07-2.03-3.62-.72-4.66.29.9,2.48,1.52,1.89,3.22-.96,2.75-.14,5.09.9,7.5-1.14,1.43-4.28-.43-4.03-1.99-2.12.11-4.4.12-6.84.03-3.55.5-10.04,1.98-11.29,5.35,6.82-3.46,16.99-5.29,22.15,1.77,1.82.1,1.14,3.19-.76,1.53l-1.54.42c-3.24-2.43-7.5-2.32-11.36-1.93l-1.08-1.23c-.93,1.33-2.36,2.16-4.28,2.51-2.72.9-3.23,3.32-1.53,7.25,6.84-3.69,22.33-5.94,22.49,5.07-.74.54-1.65.75-2.43,1.21-.97-2.65-4.62-3.87-7.64-3.83-2.02.03-11.15,2.17-11.23,3.78-.28,6.39,3.8,20.26,5.9,26.75,1.65,5.12,3.33,10.21,5.99,14.92-.11,4.24-1.17,8.45-3.17,12.64-.06,1.68-.53,3.09-1.41,4.21-.5.19-1.2.48-1.16,1.02l.15,1.81c-3.9-2.64-5.35,7.19-8.32,6.7-1.56-1.75.33-5.45,2.62-5.41l.55-3.64c2.36-5.25,4.22-10.62,5.58-16.1-1.18-1.62-1.43-3.04-.76-4.28-2.77-1.35-3.87-4.08-3.3-8.2-.64.36-.9-.57-.79-2.81-2.68-2.04-3.82-6.77-2.69-9.91-3.42-2.51-3.57-7.74-2.67-11.56-2.06-.16-2.52-5.47-2.71-7.64-.81-2.09-.62-3.56.58-4.41-2.37-1.12-3.34-7.07-1.19-8.69-.52-.06-1.26-.18-1.35-.57-.19-.78-.33-9.19-.15-9.96l1.33-.97c-.52-.09-1.26-.26-1.31-.66-.16-1.07.26-10.83.53-11.88l1.38-.9c-2.05-1.18-.97-6.34,1.07-7.23.28-1.45-.02-2.4-.9-2.86.1-2.27.8-3.76,2.1-4.48-.74-1.27-.74-2.39,0-3.37-1.02-1.27-.59-4.61,1.31-4.72-.46-4.11-.11-8.19.55-12.6l1.55-1.5c.34-1.6.03-2.61-.92-3.05l.94-8.49c-2.75.34-3.7-.32-2.83-1.97.3-2.05,2.33-2.15,3.87-1.25l-.55-1.3c.81-4.52,1.02-9.11.63-13.76l1.34-1.02c-.45-1.11-.52-2.66-.2-4.66-.69-3.66-.36-4.82.99-3.47.93,1.11,1.8,1.11,2.64,0,.44-1.06.5-2.21.17-3.45-4.01-4.68.4-14.44,2.46-4.13.28,1.41.58,5.23-1.1,5.49Z"/>
        <path class="cls-68" d="M192.45,168.5c.5-1.67,1.51-1.26,2.7-.27,1.04,1.47,1.93,2,2.69,1.59,3.64,1.49,4.15,10.12,4.52,12.76-.68,1.65-2.28,1.1-3.11-.15-.57-4.19.7-8.96-1.39-9.34-1.11,3.76,1.89,11.08-.13,11.42l-.9-.24c-.23-1.33-.81-1.25-1.73.24-.37-.15-.63.2-.64.7l-.15,7.43c-.13,1.79-.77,1.68-1.27-.02l-.94-1.29c.91-3.13.33-8-3.29-8.92l-.49-1.35c-1.11.7-1.45.28-.64-.77l-1.44-.28c-.6-1.71-2.92-11.67-1.99-12.56.99-.95,7.27-.61,8.21,1.06Z"/>
        <path class="cls-110" d="M197.14,283.77c.32,1.55.73,3,1.23,4.35,3.1-.53,9.81-.79,12.48.72l.92,1.66,1.44.02c.99,2.34,1.42,4.81,1.3,7.41-.13.31-.43.49-.68.68-.18-6.63-11.59-7.73-15.67-6.2l-8.04,3.02c-.12-2.5-1.33-5.55-.9-8.12,1.78-2.23,5.34-3.2,7.94-3.53Z"/>
        <path class="cls-137" d="M207.11,263.09l-.59,1.96c-.22.74-1.54,2.04-2.71,1.9-3.87-.45-6.82.75-10.55,1.69,2.65-2.46,5.6-3.68,8.52-5.43-3.36-.99-9.15,4.37-12.84,5.79-.91-.57-.65-2.37-.25-3.28.33-.75,1.5-.8,2.35-1.43l8.13-5.95c.8-1.35,1.46-1.58,1.98-.68-.6.66-.5,3.03.17,3.65,1.56,1.45,3.97,1.57,5.78,1.78Z"/>
        <path class="cls-163" d="M202.36,182.57l.83,5.96.45,8.05c-.14.81-.12,1.71-.04,2.52-.08.6-.25.55-.51-.06l-.52.06c-1.61,4.08-2.9,4.72-3.87,1.94.69-5.79.82-11.53.37-17.22-.02-.46.25-.96.18-1.41.97-.59,2.1-.2,3.11.15Z"/>
        <path class="cls-107" d="M193.11,362.41c-.92,1.77-1.94,3.52-2.62,5.41-.5-.08-1.08-.08-1.59-.1-1.12-3.32-1.13-7.69-2.65-10.84-1.09-1.17,2.91-4.43,3.6-4.31,3.55.6,4.86,6.55,3.25,9.84Z"/>
        <path class="cls-47" d="M174.8,222.71l1.47,1.72s.15,8.51.44,25.54l-1.42,1.75c-.16,1.49-1.5,2-2.71,1.46-.07.86.18,7.88.39,8.52.03.1,1.09-.15,1.3-.23l.05-7.88,1.49-.76c-.15-1.34.92-2.48,3.19-3.44-.27-2.8.18-5.06,1.36-6.8,2.02,1.39,4.03,1.95,6.04,1.69,1.91-1.4,2.57-.93,1.98,1.41.07,2.49-1.08,4.93-1.2,7.34l-1.39-.36c.62-1.71-3.68-.55-3.75-.23-.19.94-.16,6.82.11,7.49,1.76-.66,3.08-.55,3.96.34l-.59,13.44c-.02,1.12-1.02,1.75-3.01,1.9l.45,8.78c1.32-.34,2.23-.07,2.74.82.04,2.81.7,5.93,1.19,8.69.05,1.16-.76,2.13-2.43,2.91l.49,6.16c.04,4.56,1.39,5.55,4.06,2.98.68,3.87,1.47,7.82,2.67,11.56.45,1.86-1.51,3.17-2.99,3.69,2.01,8.53,3.46,10.93,4.36,7.2l1.32-.99.79,2.81c1.21,3.44-1.23,9.88-4.78,6.29-1.11,1.02-2.31,1.54-3.6,1.58-.64-.47-3.87-14.39-3.69-15.43,2.89-3.53,2.17-9.29-2.71-10.01-.51-3.39-1.04-6.51-1.59-9.35-.72,1.06-1.49.8-2.33-.79l-2.39.79c-.58-4.7-1.64-9.38-1.95-14.14l3.41-1.75c.3-.64-.64-8.44-1.36-8.93-1.41-.96-1.72,1.7-1.32,2.53l-1.36.87c-.46.24-.76-.77-.72-1.38.49-7.27.09-14.19.1-21.51l.03-38.29c1.47.05,3.32.52,3.89,2.03Z"/>
        <path class="cls-156" d="M192.45,168.5c-2.43.13-4.64-.07-7.56-.35l2.77,12.13-1.3,1.4-8.23.15c-.38.31.97,8.87,1.44,9.72.27.49,7.58.27,7.81-.06l-.37-9.45,1.3-.99c2.01-.06,3.51,1.06,4.5,3.09,1.3,2.68,1.36,5.91.23,8.47-.15.95-1.01,1.54-2.57,1.77l.49,11.11c2.1.93,2.74,2,1.92,3.23-1.21.56-2.56.99-3.87,1.25l-.66,1.48-9.55.75c.2,1.84.84,13.87-2.85,10.15-.45-.45-1.18-11.35-1.09-12.73-1.08-1.89,1.61-2.72,3.25-2.79.04-3.74-.26-7.47-.89-11.18-1.28-.1-2.5-.46-3.68-1.08-.63-8.38,5.29-14.36-.04-22.92-.55-.88,1.1-1.76,1.66-1.63,2.9.69,3.6,3.97,7.62,4.12,1.48-4.53-4.12-11.1-5.69-17.07,1.6,1.01,16.52,9.69,15.35,11.43Z"/>
        <path class="cls-185" d="M193.11,362.41c-.02-3.04-1.07-5.94-2.59-8.99-1.88,1.39-2.76,2.72-4.27,3.46-2.15-4.46-2.8-9.17-3.88-14.01.28-1.74,1.95-3.67,3.84-3.25,1.77.12,2.7,1.45,2.79,3.99-.23,2.03.36,4.09,1.75,6.18,2.06-3.89,4.11-7.78,6.13-11.67l1.59.27c.6,1.41,2.43,3.34,2.14,5.17-.7,4.36-3.29,8.16-4.36,12.47-.64,2.56-2.1,4.36-3.14,6.37Z"/>
        <path class="cls-148" d="M172.13,289.15c-.16-2.41-.97-4.83-.63-7.28.15-1.07-.38-2.67.26-3.88s2.97-.82,4.26-.73l.82,9.93c.11,1.33-1.18,1.84-2.13,2.29-.77.36-1.75.22-2.59-.33Z"/>
        <path class="cls-129" d="M195.18,330.2c.8,2.84,2.16,5.5,3.3,8.2-2.46,2.29-2.98,6.03-4.75,9.09-1.12,1.94-2.38,3.58-3.04,5.59-1.43-2.61-1.52-5.02-3.58-6.76,1.35-2.57.02-4.66-.9-6.7.55-3.18-1.99-8.54-3.39-13.46-1.25-4.39-2.22-8.88-3.14-13.36-.63-3.06-.57-6.4-.87-9.52.17-.43.08-.98.64-1.36l1.09,9.5c1.08.65,2.47.29,3.18,1,3.43,3.43,3.14,8.14-.18,11.77l3.51,12.94,3.43-2.33c.78-.53,1.02,1.09,1.6,2.16,1.56-1.92,2.99-4.27,3.1-6.77Z"/>
        <path class="cls-89" d="M201.07,222.74c-.56,1.89.46,3.39-1.76,5.22-.72.59-.91,7.63.8,8.07.34.09.71-.59,1.45-1.15l1.25,15.21c.12,1.46.02,1.94-.51,2.86-.67,1.43-1.6,2.08-2.78,1.95-2.56-3.59-2.96-7.77-1.2-12.55l-.72.13c-.07.1-.22.16-.28.26-2.34,2.4-5.95,3.3-5.02-1.24.84-4.58.54-10.32,4.73-13.23,1.12-.78,1.67-1.98,1.65-3.61-1.45-1.37.99-3.97,2.39-1.91Z"/>
        <path class="cls-61" d="M191.81,223.48c-.69,4.69-.81,9.57-2.11,14.1-1.29-.09-1.39-.81-1.45-1.92l-6.11.94-1.1-1.19-.29-13.59,10.8-1.19.27,2.86Z"/>
        <path class="cls-68" d="M202.57,199.11c0,2.4-1.38,4.5-1.75,7.2-2.07,15.26,2.52,8.79.24,16.43-3.06.37-1.27,5.87-4.05,5.53.71-1.19,1.36-2.39,1.14-4.2l-3.54,5.31c.22-4.34.76-8.2,1.54-12.41s4.8-8.16,3.19-9.06l-2.87,5.6c.02-11.74,3.1-18.76,2.59-29.66.55-.05.66.62.67,1.31l.12,16.66c1.54-.79,1.67-2.24,2-3.88.72.08.72.75.73,1.18Z"/>
        <path class="cls-58" d="M202.29,252.95c-.61,1.32-.07,3.54-1.13,4.71-.54.44-1.45.29-1.98.68.21-1.01,1.01-1.88.96-3.11l-11.47,9.22c.56-2.83-.28-6.27,1.05-8.95,1.91-3.85,9.29-10.5,7.87-13.02.33-.55.39-1.56,1.66-1.53-1.32,4.53-1,8.91.69,13.04,1.04-.55,1.57-1.26,2.35-1.03Z"/>
        <path class="cls-137" d="M207.86,277.81c-6.74-.11,3.45,2.48,4.01,7.15-6.83-5.08-15.4-4.11-22.69.05-1.02-.97-.93-2.13-.59-3.31.31-1.07,11.17-8.15,19.28-3.89Z"/>
        <path class="cls-1" d="M211.11,286.5c.86.92.22,2.98.65,4-4.64-1.42-9.54-2.16-14.46-.74-1.02-2.15-1.28-4.28-.16-5.99,4.77-.59,10.46-.73,13.98,2.73Z"/>
        <path class="cls-96" d="M193.02,192.62l1.27.02c-.07,3.61.81,15.04-1.43,16.08.03-1.36-1.9-1.27-3.2-1.77l-.62-13.91c1.69-.36,2.82-.45,3.97-.43Z"/>
        <path class="cls-154" d="M189.71,237.58c-.42,1.48-.01,3.49-1.31,4.72-.72.52-1.89,1.49-3.07,1.67-1.4-.02-3.8-1.6-4.18-3.1-.5-1.96-.07-3.82-.11-5.47l8.31-1.27c.43,1.34.35,2.43.36,3.44Z"/>
        <path class="cls-146" d="M186.9,293.87l2.13,12.05c.63,1.81-2.8,3.82-4.08,2.8-1.01-3.38-1.99-8.26-1.8-11.95.09-1.76,2.83-2.27,3.76-2.91Z"/>
        <path class="cls-91" d="M194.39,327.39c.29,2.25-1.16,4.39-3.44,5.09-1.58-3.94-2.66-7.57-3.42-11.63,1.55-1.39,2.84-2.41,4.17-3.37,1.05,3.27,1.77,6.62,2.69,9.91Z"/>
        <path class="cls-186" d="M187.2,253.01c-.11,2.4-.97,4.85-1.07,7.23-1.48.77-3.21.91-5.15,1.22-.41-3.44-.28-6.4-.22-9.97,1.87-1.13,3.94-1.04,6.12-1.2l.32,2.72Z"/>
        <path class="cls-184" d="M185.53,273.68l.18,11.49c-1.21.25-2.32.98-4.03.59l-.39-10.56c.31-1.3,3.18-1.43,4.24-1.52Z"/>
        <path class="cls-44" d="M197.72,184.51c.19,2.78-.46,5.53-1.09,8.79-.97-2.9-1.19-5.84-1.55-8.79-.15-1.25.04-2.99-.04-4.46.31-.35,1.84-.23,2.05.08.8,1.17.56,2.96.63,4.38Z"/>
        <path class="cls-58" d="M197.31,242.74c-1.63,2.98-3.66,5.87-6.63,7.94.08-3.64,1.1-6.42,1.61-9.18.07.43-.01,2.01.61,1.92l4.41-.68Z"/>
        <path class="cls-79" d="M187.66,180.28l.64.77.5,11.69-10.11.62c-1.25-3.93-1.64-7.95-1.88-12.6,3.71-.68,7.28-.27,10.85-.49Z"/>
        <path class="cls-18" d="M175.29,251.71l.53,1.1c-.61,2.79.07,5.67-.28,8.89-.14,1.33-2.99,1.67-3.83.97-.35-3.06-.17-6.88-.08-10.2,1.46-.62,2.58-.52,3.66-.77Z"/>
        <g>
          <path class="cls-115" d="M189,209.97c.67,1.36,2.48.4,4.27-.03-.05,3.57-.97,10.28-1.45,13.54-.81-.06-1.45-.5-1.93-1.32l-7.65.85.13,11.44-1.32.97,1.33.71c-.82,3.49.15,5.67,2.9,6.53,1.22-.97,2.26-1.09,3.12-.35,1.56.99-.02,2.44,0,3.37-.07-.32-.12-.65-.39-1.35-2.25,1.18-4.73.8-7.23-.85-1,2.36.57,5.11-.91,7.09-.85,1.14-3.31.97-4.04,2.25-1.65.69-1.84.1-.53-1.1.45-8.48.17-20.5-.49-29l-1.39-.92.22-7.43c.33-2.72-.56-4.36-2.67-4.91l1.55-12.06c.15-1.19,1.11-1.72,1.02-2.82,1.36-.47,2.82-.99,4.75-.54.48,2.03,1.65,12.57,1.18,13.5s-2.89.54-3.45,1.21c-.46.56-.74,1.7-.63,2.57l1.39,10.67c1.81-.73-.13-9.33,1.05-10.66.96-1.08,6.38-.39,11.15-1.36Z"/>
          <path class="cls-67" d="M174.8,222.71c-1.72.1-3.32-.27-3.89-2.03,0-3.77-.43-7.5.05-11.23.59-.22,2.43-1.28,3-.6,1.89,4.59.49,9.42.84,13.86Z"/>
          <path class="cls-117" d="M189.46,219.68c-3.12.58-5.9.56-9,.23-.36-2.71-.58-5-.12-7.71l9.27-.79c1.08,2.69.61,5.15-.15,8.28Z"/>
        </g>
        <g>
          <path class="cls-56" d="M209.82,273.75c.06,1-.39,1.77-1.32,1.49-6.83-2.01-13.48-.74-19.65,3.42-.9-1.85-.37-4.45,1.4-5.49,3.77-2.2,7.72-3.54,11.65-4.65,2.23.76,4.49,1.61,6.78,2.56l1.14,2.66Z"/>
          <path class="cls-88" d="M209.1,269.08c.83,1.75.64,3.23.72,4.66-5.02-4.97-8.32-1.23-7.92-5.22,2.83-.8,5.35-1.18,7.2.56Z"/>
          <path class="cls-176" d="M204.9,273.24c-5.84-.96-10.05.73-15.47,1.9,2.41-3.23,13.28-4.01,15.68-3.13.38.14,1.06,1.43-.21,1.23Z"/>
        </g>
      </g>
      <g>
        <path class="cls-66" d="M90.25,347.6c1.41,1.72,1.49,2.87.23,3.45l-2.13,11.95c-.24,4.76,2.87,7.38,9.33,7.86.72.17,1.1.71.94,1.68l-4.89,30.94c-.89,5.6-1.57,11.45-4.27,16.4-2.33,2.05-7.07,1.59-9.9.92,7.66-9.46,8.59-9.8,10.79-22.29-2.08,2.33-2.45,5.23-3.99,7.57-2.24,5.16-6.46,10.31-10.68,14.14-.2.18-.59.16-1.03.07-1.96.4-4.71,1.09-5.77-.93l-.84-.33c5.49-21.76,11.34-43.53,17.55-65.3l.82-.77c.76-1.89,1.78-3.71,1.12-5.93.47-.34.72-1.17,1.52-.56.35.27.98.62,1.19,1.13Z"/>
        <path class="cls-191" d="M123.89,293.94c-4.73,15.33-10.44,29.74-16.34,44.38-2.18-.99-3.57-1.39-5.16-1.41-.57-.66-1.45-1.31-1-2.5l15.33-40.11,5.9-1.15c.66-.13,1.42.18,1.27.79Z"/>
        <path class="cls-194" d="M99.74,352.86c1.67.27,2.77.22,4.05.52-.82,1.99-1.22,3.39-1.27,4.93,1.17,1.31-1.4,8.55-2.12,9.03-1.52,1.03-10.93-.99-12.03-2.76-.41-.65,2.08-14.45,2.48-15.1.22-.36,7.93,1.74,8.31,1.93l.57,1.44Z"/>
        <path class="cls-201" d="M99.74,352.86c-2.78-.46-5.69-.48-8.53-2.52l-1.84,13.63c3.35,1.87,7.09,2.18,10.74,2.84l2.41-8.5c2.3.96.45,5.26.02,6.69-1.17.63-1.13,2.34-2.21,3.3-3.24.9-5.99-.6-9.54-.48,2.33,2.38,5.41,2.39,8.22,2.17-.47.9-1.48.2-1.34.87-2.43-.38-5.11-.42-7.51-1.42-2.73-1.13-3.61-2.94-3.11-5.78.98-5.56,2.86-10.74,3.19-16.06.7,1.66,1.73,1.2,3.39,1.49l10.84,1.91c1.11,2.37-4.63.31-4.73,1.86Z"/>
        <path class="cls-196" d="M72.22,398.53c.36.47.62.92.55,1.31-1,5.2-2.43,11.26-3.95,16.33-.24,2.32-1.07,4.04-2.5,5.14-3.8-.65-7.85-.94-11.18-3.66.64-4.29,1.76-8.49,3.23-12.59,2.46.04,4.74.74,7.1,0s4.01-4.1,4.77-5.84c.22-.5,1.76-1.42,1.98-.67Z"/>
        <path class="cls-199" d="M86.42,352.95c-1.86,4.65-2.88,9.59-4.22,14.68l-6.16,23.35-7.16,28.36-2,4.49c-.28-1.03-.7-1.9-.55-2.54,2.74-7.39,3.64-15.32,5.9-22.77l5.49-18.12,7.98-28.88c1.03.52.55,1.1.73,1.42Z"/>
        <path class="cls-197" d="M74.65,420.27c4.85-3.74,8.33-9.09,11.71-14.21,2.21,1.4-12.46,17.74-14.65,18.35.3-2.17,2.42-2.56,2.94-4.14Z"/>
        <g>
          <path class="cls-78" d="M38.67,319.35c1.71,1.4,3.85,2.55,6.4,3.45,5.66,3.85,11.57,7.55,18.25,9.53,1.01.68,1.15,1.38.27,2.12,7.03.14,14,.45,20.92.94,2.63.45,3.89,1.66,3.79,3.62,1.74-.36,3.59.15,2.09,1.92.83,1.53.17,2.05-1.41,1.36-3.03.13-4.36,3.02-5.85,5.31-2.69,4.15-4.52,8.76-6.03,13.79l-8.18,27.21c-.92,3.06-1.63,6.53-3.92,8.88-1.92,1.97-7.09,1.11-8.59-.76l3.06-15.73c.46-2.34-5.03-4.71-6.96-3.53-2.27,4.81-2.95,10.91-4.61,16.33-8.04-3.62-15.79-7.35-23.16-12.01l3.86-14.06c.58-2.1-.23-3.9-1.71-4.63-1.03-.5-3.42-1.69-4.11-.05-1.92,4.5-2.66,9.03-4.18,13.69-1.97-.83-3.33-2.14-3.98-3.72-1.01-2.47-.93-5.16.24-8.06,0,0,4.74-12.24,14.21-36.73,1.39-3.69,4.08-6.57,7.73-8.08.57-.18,1.17-.74,1.84-.8Z"/>
          <g>
            <path class="cls-158" d="M58.24,324.71c4.51,3.11,9.35,6.17,15.14,7.62l19.66,4.9c1.61,1.74-1,6.99-2.65,3.72.62-1.6-3.48.29-4.02-1.05,1.13-1.5.47-2.4-.23-3.22s-1.75-1.16-3.13-1.07l-8.77.61c-7.35.51-14.25-.45-20.98-3.47-.52-.23-1.33.3-1.86-.2-.25-.24-.91-1.05-.13-1.23,4.26,1.16,7.87,3.32,12.42,2.5-6.08-1.9-11.43-4.34-16.59-8.14-5.99-4.4-10.76-3.67-8.44-6.34,9.61-.9,9.46-1.61,19.57,5.36Z"/>
            <path class="cls-182" d="M36.83,320.16c-3.35,2.86-6.3,6.33-7.99,11.08-3.83,10.77-7.72,21.24-12.45,31.64-1.58,3.47-1.85,6.74-1.74,10.15-5.3-1.66,5.3-21.18,7.4-27.24l6.58-19.03c1.31-3.79,4.51-6.15,8.2-6.61Z"/>
            <path class="cls-218" d="M62.1,350.79c.42.25.74.46.71.49-1.18,1.74-9.59,5.4-11.82,6.37-2.75,1.19-5.54,2.24-8.42,3.06l.13.44c-2.57.74-4.99,1.47-6.54-1.4l4.28-1.06c7.64-1.89,14.3-6.12,21.66-7.9Z"/>
            <path class="cls-97" d="M42.7,361.16c-.27-.26-.83.16-1.37-.58,6.14-1.58,11.83-4.34,17.69-7.43,1.29-.68,2.88-.94,3.08-2.36,3.22-.75,5.25-3.88,9.05-4.33-8.86,6.42-18.28,11.76-28.46,14.69Z"/>
            <path class="cls-33" d="M70.21,375.77c-.63,5.8-3.11,11.31-4.95,16.88-.97-1.5.16-2.62.53-3.87,1.3-4.43,1.77-9.1,4.42-13.01Z"/>
            <path class="cls-157" d="M70.21,375.77c.49-4.53,3.41-12.35,4.7-16.11.2-.44.42-.43.67,0l-4.25,14.55c-.23.8-.82,1.11-1.12,1.55Z"/>
            <path class="cls-221" d="M75.58,359.66h-.67c1.71-3.6,1.79-7.51,4.6-10.29.12,4.19-2.99,7.09-3.93,10.29Z"/>
          </g>
        </g>
      </g>
      <path class="cls-134" d="M162.18,397.49c6.17,3.13,12.36,6.16,18.55,9.09l-1.06.81-14.13-4.01-1.92.1c.72,2.86,2.17,5.47,4.35,7.85l17.14,13.35-7.59-3.38c-1.16.18-1.99.68-2.1,1.86l7.53,13.46h44.25c-7.11-25.21-13.73-40.98-26.69-67.55l-1.77-1.81c-3.77,1.75-7.14,4.32-10.11,7.73,0,0-1.1-.05-3.3-.16-6.55,5.19-13.29,10.15-20.24,14.89-5,3.06-5.97,5.65-2.91,7.78Z"/>
      <path class="cls-134" d="M105.15,436.62h43.65c-.08-1.26-.15-2.53-.21-3.8l-1.31-26.84-1.14-11.4c-1.31-6.3-6.79-9.54-12.99-10.53-5.28-.84-6.95.18-6.21,5.95l-17.48-1.29c-.52.08-1.08.19-1.49.55-1.53,1.33-5.82,35.73-4.68,40.03.63,2.45,1.24,4.89,1.86,7.34Z"/>
      <path class="cls-19" d="M98.89,436.62h7.92c-.42-1.76-.9-3.51-1.53-5.25-1.58-4.34-1.2-8.68-.56-13.2l4.03-28.18,20.06,1.7c-.82-2.02-1.51-6.56,1.09-6.72,2.57-.16,12.85,2.7,14.54,7.61,1.11,3.22,2.72,11.24,2.83,13.4l-.14-14.72c.94-2.82,4.85-5.28,7.33-7.03,6.87-4.84,13.03-9.69,20.94-14.08-4.62,7.35-11.44,12.25-17.27,18.28,6.44-2.54,11.94-6.32,18.98-7.85-8.23,5.84-16.8,10.25-25.81,15.63,9.75,3.57,19.37,6.32,28.83,10.62.34.16-.26.64-.46.56,2.95.84,5.82,2.26,9.52,2.41l-11.8-6.21c-1.59-.83-18.11-7.48-15.68-9.35,2.21-1.71,4.1-3.64,6.36-5.1,3.6-2.32,6.68-4.9,10.13-7.44l8.13-5.98c1.02.1,2.26.91,2.95.36,2.76-2.09,8.32-9.49,11.21-7.01-.97-1.98-1.98-3.99-4.26-5.78l-4.98,7.89c-.39.61-2.2,1.99-2.72,1.01-3.99-7.52-7.26-15.03-10.54-23.18-5.43,2.39-10.7,4.26-16.48,6.25.19,2.09-.48,4.22.62,5.74.64-1.23,10.56-4.63,11.42-4.37.54.16-8.4,6.52-8.8,6.79-1.61,3.79,1.45,3.35,3.89,1.51l1.5.46c.92-.71,6.69-3.68,7.07-3.58.22.06,1.98,3.99,1.82,4.15l-11.97,4.96-.22,1.43-1.88-.29-8.2,5.95-.92-1.28c-1.05.24-2.09-.31-3.11-1.63-1.12-1.21-.32,8.96-1.85,10.17-.27-2.64.29-4.7.38-6.85l-1.84-1.16c-3.26.04-15.98-.36-17.9-1.85-.24-.18.22-5.77.46-5.95l7.19.31,1.48-1.38c-.99-1.04-2.42-1.77-4.3-2.17-3.4-.51-6.44-1.55-9.12-3.12-.84,2.14-.89,4.13-.14,5.96-.6,4.7,0,9.52-1,14.15-.14.66.14,1.51-.49,1.96-4.04,2.85-17.11-.83-22.56-2.6-1.23,14.34-4.01,27.65-6.79,41.5l2.13,10.77c.16.6.33,1.19.5,1.79Z"/>
      <path class="cls-7" d="M98.76,436.62c-.12-.59-.24-1.18-.36-1.79-1.96-2.23-1.18-6.51-3.16-9.26-.88,2.12-3.49,2.58-4.37,4.25-.32.6.17,3.15,1.14,6.8h6.76Z"/>
      <path class="cls-183" d="M151.35,414.13c5.07,7.73,10.33,15.15,15.73,22.48h17.46l-8.12-14.34,18.76,8.36-24.77-18.88c-2.8-2.13-4.15-5.46-5.84-8.14.62-.19.86-.24.97-.24-3.89-1.11-7.6-3.14-12.07-3.98,3.98,6.42,8.79,11.8,12.08,18.99-3.12-1.9-3.96-5.51-6.2-8.25-3.07-3.77-4.75-8.09-8.52-11.43.15,5.03-.7,10.58.52,15.43Z"/>
    </g>
  </g>
</svg>