<?xml version="1.0" encoding="UTF-8"?>
<svg id="Capa_2" data-name="Capa 2" xmlns="http://www.w3.org/2000/svg" viewBox="0 0 1920 1080">
  <defs>
    <style>
      .cls-1 {
        fill: #2a5677;
      }

      .cls-2 {
        fill: #090302;
      }

      .cls-3 {
        fill: #03060e;
      }

      .cls-4 {
        fill: #787977;
      }

      .cls-5 {
        fill: #040308;
      }

      .cls-6 {
        fill: #03040e;
      }

      .cls-7 {
        fill: #02060e;
      }

      .cls-8 {
        fill: #fcfcfa;
      }

      .cls-9 {
        fill: #020602;
      }

      .cls-10 {
        fill: #03070f;
      }

      .cls-11 {
        fill: #03050e;
      }

      .cls-12 {
        fill: #2a5678;
      }

      .cls-13 {
        fill: #1d2249;
      }

      .cls-14 {
        fill: #03060d;
      }
    </style>
  </defs>
  <g id="Capa_1-2" data-name="Capa 1">
    <g>
      <rect class="cls-13" width="1920" height="1079.97"/>
      <path class="cls-12" d="M405,0l3.03,1.27,21.54,129.17C287.17,147.99,144.51,164.56,1.58,180.15l-1.58-2.36V0h405Z"/>
      <path class="cls-12" d="M1398.54,1079.97h-567.84c-1.38,0-2.46-.04-2.48-.19-.8-8.09-5.32-63.35-3.76-66.27.27-.5,1.03-.72,1.94-.87,192.9-24.36,385.83-48.36,578.79-71.98l1.26,1.93c-1.77,45.4-3.56,90.8-5.37,136.19l-2.55,1.19Z"/>
      <path class="cls-12" d="M858.75,0c.81.02,1.9.28,2.04.97,1.91,9.81,14.36,74,13.05,77.71-.17.48-.87.76-1.71.99l-418.6,48.38c-8.17-41.28-15.63-84.52-22.01-126.45-.07-.44.66-1,1.61-1.6h425.62Z"/>
      <path class="cls-8" d="M1920,860.38v15.47l-.29,2.5c-160.9,19.85-321.9,39.59-483.02,59.21l-2.95,3.38c-2.18,45.98-4.42,91.93-6.7,137.84l-2.56,1.19h-20.89l-2.47-.69c2.32-45.96,3.76-91.76,4.33-137.38l-2.69-1.36-575.96,72.05-2.36,4.27,3.72,61.69-2.38,1.42h-19.47l-2.4-.16c-1.59-18.7-2.95-37.46-4.09-56.27l-4.34-3.19-445.67,56.67-36.67,2.95H127.5c-.28-1.64.07-3.11,1.4-3.28,595.27-75.28,1190.46-148.17,1787.87-218.75l3.23,2.43Z"/>
      <path class="cls-8" d="M429.38,0l1.85.29c7.04,41.65,14.02,83.35,20.95,125.1l3,2.48,415.03-47.97,3.39-3.7-12.71-74.59,1.6-1.61h18.75l2.94,1.29,13.17,82.9,3.1,2.35,355.16-41.13,3.55-4.22c-1.41-13.22-3.15-26.42-5.22-39.6l2.3-1.58h18.75l2.16,2.91,5.26,37.28,3.66,4.02L1635.28,2.98c11.89-1.19,23.67-1.55,35.34-1.09,4.29-.47,8.67-1.1,13.12-1.89h131.25c.04,1.22.04,2.17-.07,2.18-299.33,37.98-601.21,71.39-902.51,102.73l-124.98,7.05C525.4,142.75,263.45,173.67,1.61,204.73l-1.61-2.35v-18.91l.99-2.95,426.08-48.94,2.08-3.66c-7.16-42.08-14.09-84.16-20.78-126.22l2.26-1.69h18.75Z"/>
      <path class="cls-12" d="M1250.62,0c1.47.68,2.69,1.44,3.03,2.49,2.46,7.67,6.5,34.54,5.45,41.77-120.18,15.05-240.6,29.1-361.27,42.15-5.34-28.32-9.84-56.54-13.51-84.65l2.55-1.76h363.75Z"/>
      <path class="cls-12" d="M800.98,1079.97h-450.35c-.32-1.66.03-3.04,1.4-3.22,147.46-18.86,299-38.07,446.51-56.61,2.7,1.11,6.74,56.15,4.86,58.4-.57.68-1.44,1.09-2.41,1.43Z"/>
      <path class="cls-1" d="M1635,0l-.04,2.54c-116.96,14.38-234.08,28.37-351.36,41.96-2.16,0-7.62-41.09-6.59-43,.34-.63.99-1.09,1.74-1.5h356.25Z"/>
      <polygon class="cls-9" points="1403.59 1079.97 1398.54 1079.97 1403.72 943.06 827.03 1015.15 830.7 1079.97 825.77 1079.97 821.33 1010.7 1409.4 937.07 1403.59 1079.97"/>
      <polygon class="cls-7" points="433.12 0 454.85 125.6 871.21 77.51 858.75 0 862.5 0 877.14 81.35 702.78 101.78 450.41 130.71 429.38 0 433.12 0"/>
      <path class="cls-2" d="M806.29,1079.97h-5.31l-3.89-57.28-446.46,57.28h-37.5c36.11-6.81,72.48-10.37,110.87-15.23l378.03-47.77,4.27,63Z"/>
      <polygon class="cls-14" points="410.62 0 432.44 133.25 0 183.46 0 177.79 426.95 129.3 405 0 410.62 0"/>
      <path class="cls-10" d="M886.88,0c-.46,9.31,1.96,18.59,3.6,28.55,3.04,18.37,5.15,36.16,9.51,55.7l356.48-41.24c-.46-15.08-3.15-29.16-5.84-43h5.62l6.53,46.88-367.17,42.56L881.25,0h5.62Z"/>
      <path class="cls-3" d="M1278.75,0l6.18,42.04L1635,0h35.62c1.64.54,1.61,1.17,0,1.89-4.72-.57-8.11.93-13.98,1.61l-375.41,43.58c-2.42-16.52-5.53-31.76-6.23-47.08h3.75Z"/>
      <path class="cls-4" d="M1683.75,0c-2.9,3.04-8.92,2.4-13.12,1.89V0h13.12Z"/>
      <path class="cls-12" d="M1920,881.06v198.91h-490.39c-2.2.16-2.55-.31-2.47-1.88l6.83-139.92,483.42-59.4c1.44-.18,2.17.37,2.61,2.29Z"/>
      <polygon class="cls-5" points="1920 875.85 1920 881.06 1436.49 940.03 1429.61 1079.97 1424.48 1079.97 1431.28 935.77 1920 875.85"/>
      <path class="cls-6" d="M1920,854.47v5.91c-18.8.4-36.29,3.33-56.84,5.82l-693.13,83.89-506.25,62.16-536.27,67.72h-37.5c.11-.44.72-1.67,2.22-1.85l176.8-21.8,358.37-44.89,51.02-6.24,609.54-74.54,169.11-20.54,425.09-51.17c13.91-1.67,25.3-4.37,37.85-4.47Z"/>
      <polygon class="cls-11" points="1850.62 0 1410.95 53.64 1254.53 71.52 1193 78.09 909.6 107.5 792.78 113.7 122.31 192.65 0 208.05 0 202.38 787.25 109.62 912.23 102.64 1434.84 45.76 1815 0 1850.62 0"/>
    </g>
  </g>
</svg>