<?xml version="1.0" encoding="UTF-8"?>
<svg id="Capa_2" data-name="Capa 2" xmlns="http://www.w3.org/2000/svg" viewBox="0 0 895.27 311.31">
  <defs>
    <style>
      .cls-1 {
        fill: #c9fdf5;
      }

      .cls-2 {
        fill: #c8fbee;
      }

      .cls-3 {
        fill: #abfce2;
      }

      .cls-4 {
        fill: #96fcd7;
      }

      .cls-5 {
        fill: #1edeb7;
      }

      .cls-6 {
        fill: #cbfbee;
      }

      .cls-7 {
        fill: #37eec5;
      }

      .cls-8 {
        fill: #61fae5;
      }

      .cls-9 {
        fill: #080909;
      }

      .cls-10 {
        fill: #303130;
      }
    </style>
  </defs>
  <g id="Capa_1-2" data-name="Capa 1">
    <g>
      <path class="cls-9" d="M736.02,310.38c-6.49,1.5-11.25.83-17.51.46l-475.23-.52-128.88-.55L1.56,143.44c-1.71-2.19-2.1-4.01-.71-6.47L121.84,0l767.09.07c4.57,0,6.18,5.04,6.34,8.26l-18.71,38.22-45.81,34.54-48.53,116.44-46.21,112.85Z"/>
      <g>
        <path class="cls-8" d="M704.31,11.9c2.86.96,8.94,4.48,6.74,7.59-1.68,1.81-4.06,1.12-7.12,1.22l-169.82,5.15-296.66,8.83c-3.55.11-5.75-.34-8.36-.43l.13-2.19,17.52-6.8-101.32-1.47-13.58,13.96-4.63,1.89c1.33,2.68-1.24,3.66-3.07,1.67-2.29-1.19-21.27,1.79-19.9-.85l25.32-27.98,574.76-.59Z"/>
        <path class="cls-5" d="M328.17,276.19l.71-2,369.09,2.15c3.68-.48,5.81.49,6.38,2.9,3.12-.85,10.18,1.73,10.95,5.09-4.85,2.2-9.58,1.12-15.44,1.12l-581.41-.02c-3.85-.12-6.74-.58-8.78-3.73L17.33,139.27c1.05-.47,1.73-1.99,3.14-2.42l10.77-3.29,55.21,83.51,37.73,57.55,42.41.36c15.11.13,29.35.11,44.68,1.41l116.91-.21Z"/>
        <path class="cls-2" d="M780.4,133.44c-3.31,7.83-7.56,15.08-12.77,21.74l-1.19,10.33c-2.25,4.84-4.31,9.77-6.11,13.97-1.88,3.15-5.37,4.63-8.12,1.95l-1.58-1.41,49.61-119,40.18-41.57-124.69,2.84-2.29-1.07c-.67-.66-1.81-.97-2.38-1.73-2.06-2.76-5.44-4.39-6.74-7.59l162.4-.53-59.92,62.43-26.4,59.64Z"/>
        <path class="cls-6" d="M760.33,179.48l-45.02,104.86c-4.15-.51-7.06-3.83-10.95-5.09-2.76-2.58-.85-3.65,5.73-3.22l39.72-94.04,2.41-.56c2.58-1.22,5.63-.37,8.12-1.95Z"/>
        <path class="cls-6" d="M766.44,165.51c-4.64-16.9,4.79-11.39,6.99-22.81,6.11-2.71,2.84-8.36,6.96-9.26-3.7,11.66-9.19,21.8-13.96,32.07Z"/>
        <path class="cls-4" d="M752.21,181.43l-10.49,24.82-30.38,71.95c-2.98.45-7.92-1.54-6.99,1.05-1.88-.61-3.59-.88-6.41-.9l-202.73-1.05-167.04-1.11c.16-.54-.36-.72-1.2-.72l-117.93-.23c7.21-1.92,13.99-.26,21.18-.81,4.63-1.06,9.08-1.33,14.04-.87l88.28-4.76,368.01-18.44,65.2-177.76-52.33-51.38,1.99-1.02,129.97-3.01-43.48,44.88-13.08,31.19-36.62,88.17Z"/>
        <path class="cls-3" d="M215.18,38.21l-131.95,45.26,40.91-42.15c.71-.81,2.26-.94,3.07-1.67l4.51-2.12,80.25-2.26c2.3-.12,3.6.37,3.22,2.93Z"/>
        <path class="cls-1" d="M229.09,34.26c-4.44,1.69-9.47,2.43-13.91,3.95-1.89-1.56-4.31-.72-7.05-.65l-80.92,2.09,17.33-17.83,113,1.6-28.45,10.83Z"/>
        <g>
          <path class="cls-7" d="M713.43,21.23c1.27-.38,2.55-.1,3.61.74l49.26,48.36,1.21,2.53-64.64,177.04-1.13,1.79c-139.3,7.6-278.18,14.83-416.64,21.68l42.02.11c1.56.12,1.82,1.23,1.06,2.71l-.69,2c-67.66.69-136.62-.21-204.07-1.9-31.03-46.77-62.17-93.52-93.42-140.26l-8.79,2.67c-1.31,1.38-2.61,1.57-3.88.57L104.24,40.48c3.59-.61,14.85-2.31,18.14-1.43,1.25.34,1.79.66,1.76,2.28l.79,2.06-34.16,35.39,114.11-39.14c3.42-.9,6.85-1.38,10.3-1.42,1.69-3.88,10.26-5.79,13.91-3.95l9.88-1.62,470.11-14.11,1.97.96c1.95-1.91,3.33-.87,2.38,1.73Z"/>
          <path class="cls-10" d="M257.49,223.61c3.01-.67,5.78-5.58,7.95-8.3-2.83-10.13-6.58-18.92-10.5-28.77l-61.64-15.51c-3.25,10.64-3.02,20.6-5.14,31.44l-39.68-47.33-32.66-41.6,70.75-26.67,49.23-19.28-20.9,41.85,31.21,10.24,54.31,15.08,15.15,62.69-56.28,44.23-18.79-21.01,17,2.94Z"/>
        </g>
      </g>
    </g>
  </g>
</svg>