<?xml version="1.0" encoding="UTF-8"?>
<svg id="Capa_2" data-name="Capa 2" xmlns="http://www.w3.org/2000/svg" viewBox="0 0 1619.16 729.81">
  <defs>
    <style>
      .cls-1 {
        fill: #e37e26;
      }

      .cls-2 {
        fill: #010101;
      }

      .cls-3 {
        fill: #e87f23;
      }

      .cls-4 {
        fill: #c88450;
      }

      .cls-5 {
        fill: #bc7e4c;
      }

      .cls-6 {
        fill: #e97e22;
      }

      .cls-7 {
        fill: #d5833e;
      }

      .cls-8 {
        fill: #e87d22;
      }

      .cls-9 {
        fill: #e67e25;
      }

      .cls-10 {
        fill: #e57f26;
      }

      .cls-11 {
        fill: #5dac49;
      }

      .cls-12 {
        fill: #ca854e;
      }

      .cls-13 {
        fill: #e27e26;
      }

      .cls-14 {
        fill: #e3802a;
      }

      .cls-15 {
        fill: #f9fcf6;
      }

      .cls-16 {
        fill: #bf7d4a;
      }

      .cls-17 {
        fill: #95867d;
      }

      .cls-18 {
        fill: #e97f22;
      }

      .cls-19 {
        fill: #e97f21;
      }

      .cls-20 {
        fill: #e87d20;
      }
    </style>
  </defs>
  <g id="Capa_1-2" data-name="Capa 1">
    <g>
      <path class="cls-2" d="M0,293.61v-9.65l124.2-14.23c8.71-1,41.11-7.35,43.91-14.69,1.02-2.67.11-5.27-1.03-7.96-5.2-8.65-12.15-15.39-20.33-21.34l-70.26-51.15c37.42,6.65,72.16,14.16,108.79,18.52,5.24.62,10.15,1.01,15.01.47l7.39-42.34,69.17-3.25c-12.17-26.44-28.66-47.1-44.36-72.32l85.81,36.44c8.4,3.57,16.49,7.18,25.61,6.37,3.19-31.63-22.84-65.22-36.51-94.56l71.03,44.12c7.33,4.55,61.66,37.82,65.6,26.55,4.03-11.52,1.91-23.4,3.61-35.88,13.8,12.31,83.61,65.59,98.57,50.85s5.09-53.74,5.38-74.53c26.42,21.42,50.28,42.29,77.5,60.46,35.05,23.39,74.98,40.43,113.93,14.35,27.06-18.12,41.81-40.68,58.28-69.69l11.6,29.65c8.34,21.33,24.22,41.95,50.12,35.93,17.12-3.98,31.81-12.31,46.09-22.79,25.36-18.61,48.03-38.85,72.53-60.12-.6,26.49-21.11,80.61,19.4,83.01,29.36,1.74,86.05-24.84,111.96-40.04L1225.1,0c-21.39,33.39-55.8,72.18-63.71,110.26,63.57-3.3,56.68,2.07,113.46-24.1l91.49-42.17-49.71,59.43,152.72-6.46-19.06,120.05c19.48,2.21,37.98,2.77,57.32,1.06l56.63-2.36-61.35,33.03c-14.86,8-28.25,17.21-39.76,29.24-42.96,44.93,133.42,84.22,156.02,93.82l-62.64,12.62c-28.19,5.68-55.32,12.38-82.19,22.35-19.07,7.08-58.68,23.7-45.19,49.59,11.93,22.9,47.4,49.57,68.71,66.46,1.38,1.26.85,1.66-.96,1.56l-94.06-8.68-15.08,91.59-54.61-.42c13,22.51,28.12,42,43.31,62.33,7.5,10.03,15.65,18.27,22.39,30.23l-82.46-37.31c-16.57-7.5-104.02-41.76-116.95-30.09-8.59,14.35,10.21,60.86,15.69,80.45-15.2-9.72-116.83-67.17-124.77-56.64-4.32,5.73,2.94,29.98,4.1,40.6l-50.85-33.46c-5.53-3.64-11.47-2.7-15.39,2.35-13.09,16.85-11.88,43.68-15.18,64.48-32.91-38.52-76.68-81.39-119.37-105.11-25.5-14.17-43.04-7.48-60.35,13.26-12.42,14.87-18.4,32.34-24.81,52.39-4.54-6.03-7.16-12.8-11.04-19.67-14.97-26.54-37.11-47.69-64.84-60.44-17.08-7.85-35.04-7.62-52.76-1.51-20.08,6.92-38.27,16.94-54.94,30.04l-50.37,39.61-3.13-35.81c-1.5-17.11-10.6-44.17-34.1-40.4-28.79,4.61-67.17,27.72-92.61,43.09l-47.05,28.42c6.63-18.61,25.67-61.54,15.65-77.56-6.37-1.73-18.62-2.77-25.64.05-19.23,7.72-35.32,18.35-52.81,29.33l-121.26,76.14c10.44-17.72,23.58-31.03,35.51-46.34l48.07-61.65-159.22-2.21,7.15-47.35-47.14,13.32c17.65-19.85,37.58-34.72,52.65-55.06,5.73-14.44,4.77-31.93,8.71-47.76-18.62-5.54-35.71-7.4-54.44-8.59l-74.91-4.8c24.34-11.66,125.6-41.54,122.87-72.72-3.03-34.56-123.53-67.29-152.86-74.86Z"/>
      <g>
        <path class="cls-19" d="M1256.5,626.92c-7.39-.53-38.65-11.78-53.5-8.68-29.94,1.24-13.42,49.87-8.91,68.35-24.81-13.91-48.49-26.77-74.35-37.08-12.79-5.1-36.61-13.95-41.74,4.77-1.52,5.54.11,10.63-1.05,16.33-19.65-12.78-37.9-31.91-56.79-14.93-8,10.74-13.86,23.09-17.57,37.05l-3.82.09c-32.63-31.45-66.7-63.29-107.08-84.54-1.39-1.98-1.04-3.53.71-5.07,1.15-1.02,21.73-1.59,25.57-1.64,132.68,1.99,265.36,4.14,398.04,6.45l1.72.34,29.3,43.35c3.25,4,3.43,6.89.52,8.66-29.83-13.09-60.19-24.24-91.06-33.46Z"/>
        <path class="cls-20" d="M566.43,63.25l52.24,39.61c16.32,12.38,33.59,20.39,52.93,27.86l-100.62,5.06-280.97,12.02c-6.98-16.14-15.34-29.27-24.29-44.85l62.21,25.06c6.88,2.77,14.37,3.77,21.47,1.77,17.44-10.38-1.8-56.16-9.95-71.82,30.77,18.02,64.9,43.14,98.06,50.75,8.59,1.49,15.82-2.29,18.6-10.41,1.68-4.91,1.42-9.87,2.86-14.94,20.32,14.17,64.87,47.2,89.28,38.88,6.96-2.79,11.7-8.82,13.99-15.95,5.02-13.5,4.12-26.36,4.2-43.05Z"/>
        <path class="cls-8" d="M1165.14,66.69c-7.82,13.18-13.98,27.19-18.49,42.02-29.04,3.39-58.63,4.07-87.97,3.61l-.64-4.62c14.72-7.32,29.43-14.63,44.11-21.94l78.56-45.18c-3.97,9.63-8.92,18.43-15.58,26.11Z"/>
        <path class="cls-1" d="M653.1,607.26c-24.79,13.19-46.39,29.51-68.23,47.43-2.67-22.74-4.72-40.45-20.51-57.76l107.08,1.09c-5.56,4.57-12.05,5.9-18.34,9.24Z"/>
        <path class="cls-9" d="M764.25,109.84c.52-1.43,1.73-2.42,3.17-2.86,10.75-9.58,20.31-20.33,28.68-32.24,2.33-.99,4.28.14,5.87,3.41,8.34,15.94,17.32,30.41,33.95,38.92,1.97,4.76-1.02,7.08-8.95,6.94-22.54.79-45.05,1.68-67.54,2.67-12.91.15-11.3-5.47,4.83-16.85Z"/>
        <path class="cls-13" d="M509.15,597.21c-29.82,13.67-57.99,29.9-87.61,48.19,4.14-17.91,8.19-32.94,5.58-50.23l82.03,2.04Z"/>
        <path class="cls-14" d="M360.92,595.45l-96.18,60.67,46.52-61.95c16.08-.28,30.76-1.19,49.66,1.28Z"/>
        <path class="cls-12" d="M1102.16,85.76c-8.21,8.99-40.36,16.91-41.91,24.91,13.87,2.52,27.62.71,41.81-.29,14.14-1,27.67,1.28,41.49-2.71,2.78-.8,5.18-5.27,5.7-8.2,1.4-7.8,5.24-14,7.77-20.96,2.06-5.67,5.01-8.24,8.12-11.82-6.75,16.45-12.83,24.51-17.03,44.08l-41.76,1.91-35.39,1.16c-15.27.5-29.81,1.67-45.07,1.84,23.35-7.17,44.04-14.2,64.74-25.26,3.9-2.09,7.56-4.73,11.53-4.67Z"/>
        <path class="cls-7" d="M1300.89,104.18c-13.48.68-24.77,2.04-38.25.72l57.5-26.36-19.24,25.64Z"/>
        <g>
          <path class="cls-16" d="M1256.5,626.92c5.83.42,11.07.92,17.52,3.32l30.55,11.39,13.67,5.58c9.59,3.91,18.35,9.3,28.44,10.56,4.53.46-11.52-21.41-11.37-21.23-7.01-8.53-11.74-17.74-18.38-26.85-4.77.21-10.49-3.08-14.93-1.9-5.28,1.4-8.69.14-13.6.08l-100.4-1.2-157.16-1.83-99.07-1.15c-7.95-.09-14.73-2.46-22.99.18-4.64,1.48-11-1.51-15.44,2.18,2.44,5.24,8.32,6.11,13.01,8.93,25.28,15.16,46.73,34.07,68.45,53.55,7.33,6.57,14.07,12.66,20.78,19.72,11.32,11.92,10.74-27.49,24.58-32.57-9.06,12.52-13.08,26.97-16.55,44.67-32.49-33.33-66.22-65.63-108.6-88.67-43.97-21.02-71.99,13.52-89.08,48.4-16.85-26.19-39.31-45.97-66.34-60.69l97.12.34,125.39,1.2c5.28-1.05,9.73,1.28,14.74,1.33l131.05,1.14,117.49,1.44,92.74,1.59,42.36,62.45c-35.29-17.19-69.31-30.06-103.97-41.94Z"/>
          <path class="cls-10" d="M848.17,606.84c0-.15-24.4,13.88-39.6,43.07-.71,1.37-2.67,1.98-3.49,2.32-1.74.72-2.6-1.15-3.86-2.9-11.41-15.83-25.64-29.3-41.62-40.42-1.9-1.32-4.74-1.43-4.34-3.93,1.1-6.89,22.22-4.03,28.06-2.37,6.59-3.53,12.98-.53,19.67-.4l43.56.83c1.94.04,1.65,2.82,1.61,3.81Z"/>
        </g>
        <g>
          <path class="cls-6" d="M1451.93,273.23c-37.24,54.06,82.72,82.11,117.15,95.88-44.22,11.88-126.26,23.03-152.98,63.35l32.09-203.55c21.27,2.25,41.11,1.14,61.7,1.58-14.94,9.39-28.39,16.11-41,26.23-6.35,4.77-12.21,10.26-16.97,16.51Z"/>
          <path class="cls-18" d="M130.12,327.44c-17.42-8.25-33.44-16.61-51.5-21.97-12.53-5.08-24.61-8.58-37.27-12.97l48.12-6.08c22.91-2.3,44.77-6.57,66.61-10.91,50.26-12.16,14.69-49.8-10.34-68.08-1.03-2.25-.28-4.56,2.15-5.49,3.33-1.27,43.44,4.72,47.9,7.85-6.55,50.7-14.23,101.41-23.04,152.14-.61,3.86-1.79,6.49-5.95,5.06-5.42-18.96-19.21-31.56-36.67-39.55Z"/>
          <path class="cls-14" d="M1459.94,508.08l-55.34-3.8,8.86-54.82c3.37,7.32,4.82,13.74,9.52,19.2,9.71,15.05,22.57,25.86,36.96,39.43Z"/>
          <g>
            <path class="cls-4" d="M130.12,327.44c3.63-1.1,6.01,2.18,9.17,3.86,24.63,13.1,24.44,31.55,29.07,33.03.87.28,2.86-.98,3.14-2.75l21.14-131.05c1.07-6.6,3.72-13.39.69-19.37-2.33-4.59-8.58-3.9-13.07-4.36l-28.82-2.93c-1.73-.18-3.02,1.44-3.33,2.31-1.91,5.27,22.21,14.29,32.56,37.04,2.27,4.99,2.08,13.81-.02,18.62-4.11,9.4-14.64,13.04-24.57,13.67,5.78-3.42,13.49-4.69,18.72-9.75,23.92-23.14-32.78-58.94-47.96-69.72,15.55,2.7,29.89,5.41,45.31,7.38l26.35,3.36-37.19,235.81c-24.44-6.49-48.51-7.84-75.2-10.05,17.07-8.54,33.84-15.4,50.1-24.89,6.32-3.69,11.06-8.36,16.38-12.85,15.21-12.83,15.94-32.4,2.71-47.77-6.99-8.12-16.85-13.08-25.17-19.6Z"/>
            <path class="cls-18" d="M158.84,436.19c-1.9,5.12-11.27.98-15.27.23-13.7-2.55-27.85-2.7-41.95-6.72,4.98-6.56,11.67-7.34,17.76-10.26,17.85-8.56,34.14-19.36,45.73-35.47,2.78,2.61,2.46,5.91,1.5,8.77-1.8,5.35-3.9,33.02-7.77,43.44Z"/>
          </g>
        </g>
        <g>
          <path class="cls-5" d="M764.25,109.84c-2.17,5.98-11.51,7.38-10.89,12.27.97,7.63,15.41,1.22,31.82,2.6,7.28.61,13.86-.65,20.89-1.46,9.47-1.08,28.06,2.09,27.49-4.23-.42-4.64-15.53-7.32-27.12-31.37-2.2-4.57-5.01-9-9.82-10.87l-19.03,22.5c-2.75,3.25-5.35,6.57-10.17,7.7,10.84-12.02,21.73-23.6,31.33-39.24,5.41,10.64,8.92,21.08,16.21,30.2,44.63,55.82,111.28-14.81,150.52-44.91-2.62,31.33-4.8,52.29,26.74,63.83-9.84,2.14-19.92,2.1-30.46,2.44l-39.1,1.26c-10.9.35-21.29.71-32.29,1.28l-75.18,3.87-40.56,1.28c-13.43.42-26.13.7-39.88,1.62,7.87-6.11,15.96-7.91,22.69-13.93,2.27-2.02,3.86-4.91,6.81-4.85Z"/>
          <path class="cls-3" d="M944.45,117.42l-31.45,1.44c3.34-.15-47.21,4.39-29.35-5.17,6.62-3.54,13.23-5.62,19.54-9.51,20.3-12.53,37.42-27.84,57.11-43.43,2.97,8.91,1.28,16.7,2.3,24.65,2.62,20.45,14.1,24.52,13.18,28.03-.54,2.06-1.69,2.52-3.9,2.63l-27.43,1.36Z"/>
        </g>
        <g>
          <path class="cls-17" d="M142.04,530.72c1.7-2.44,3.72-4.39,5.23-7.11,1.52,2.05.52,3.66.03,5.32-.35,1.19-1.32,2.79-5.26,1.79Z"/>
          <g>
            <polygon class="cls-15" points="655.59 576.58 157.29 570.01 220.79 166.15 265.97 164.26 834.12 140.15 1444.89 113.69 1369.57 585.1 899.51 579.5 655.59 576.58"/>
            <polygon class="cls-11" points="1121.2 572.98 1004.39 571.35 168.83 560.7 229.43 175.59 842.48 149.52 1433.33 123.98 1361.29 575.32 1260.5 574.62 1121.2 572.98"/>
          </g>
        </g>
      </g>
    </g>
  </g>
</svg>