<?xml version="1.0" encoding="UTF-8"?>
<svg id="Capa_2" data-name="Capa 2" xmlns="http://www.w3.org/2000/svg" xmlns:xlink="http://www.w3.org/1999/xlink" viewBox="0 0 1360.84 749.23">
  <defs>
    <style>
      .cls-1 {
        fill: #281f37;
      }

      .cls-2 {
        fill: #191e39;
      }

      .cls-3 {
        fill: #070102;
      }

      .cls-4 {
        fill: #030105;
      }

      .cls-5 {
        fill: #d13700;
      }

      .cls-6 {
        fill: #0e0706;
      }

      .cls-7 {
        fill: #201f37;
      }

      .cls-8 {
        fill: #1b75b3;
      }

      .cls-9 {
        fill: none;
        stroke: #000;
        stroke-miterlimit: 10;
        stroke-width: 3px;
      }

      .cls-10 {
        fill: #010208;
      }

      .cls-11 {
        clip-path: url(#clippath);
      }

      .cls-12 {
        fill: #fdfdfd;
      }

      .cls-13 {
        fill: #281e36;
      }
    </style>
    <clipPath id="clippath">
      <path class="cls-9" d="M1082.73,204.56L1123.48,1.5H306.78l-41.56,163.84-159.6,7.26L1.5,575.52v172.21h399.22l520.72-88.35,301.71-61.16,88.46-436.16-228.88,42.5ZM1218.67,590.62c.05-1.74.3-3.24.74-4.52-.43,1.89-.18,3.93.88,5.1-.6-.46-1.15-.62-1.62-.58Z"/>
    </clipPath>
  </defs>
  <g id="Capa_1-2" data-name="Capa 1">
    <g>
      <path class="cls-2" d="M463.45,732.4c-1.92-.16-4.4,2.37-6.68,1.08,2.01-.36,4.05-2.77,6.68-1.08Z"/>
      <path class="cls-13" d="M1222.64,581.93c-.57,3.16-.6,6.43-2.35,9.28-1.76.02-2.07,1.9-4.39,2.62,2.54-5.81.14-11.74,3.6-12.92.87-.29,2.18.71,3.14,1.02Z"/>
      <path class="cls-7" d="M18.37,526.04c-.24-2.76,2.44-5.55,2.55-8.03.29,1.4,1.41,2.86,1.15,4.46-.28,1.7-2.22,2.78-3.7,3.56Z"/>
      <path class="cls-1" d="M555.97,538.99c-.89,1.73-2.08,3.39-4.52,2.56-1.47-.5-1.8-2.37-2.01-3.87,1.93,1.25,4.27,1.45,6.52,1.3Z"/>
      <g>
        <path class="cls-12" d="M1140.44,1.5l1.64.63c-14.73,62.01-29.62,124.08-44.67,186.2l.86,2.02c79.33-16.35,158.63-33.28,237.91-50.78l1.26,1.51v26.1c-1.16,5.08-1.95,10.29-2.37,15.65l-97.41,415.93.75,2.26c32.59-5.74,65.19-11.93,97.8-18.56l1.23,1.53v18.43l-.94,2.06c-112.19,17.33-224.15,35.38-335.87,54.15,6.24,29.23,13.12,58.5,20.62,87.8l-1.47,1.29h-13.16l-2.22-.62c-6.47-26-13.87-51.62-22.21-76.88-160.12,24.37-320.58,49.5-481.39,75.39l-25.71,2.11h-74.36c-.28-1.12-.08-2.08.88-2.26,17.73-3.2,35.94-6.37,54.1-9.44l465.36-78.7c100.15-19.72,200.13-40.26,299.94-61.64,29.53-142.67,58.76-285.52,87.7-428.54l-2.15-2.27c-74.9,14.14-149.77,27.88-224.58,41.22l-.97-1.25c13.5-67.59,27.03-135.2,40.59-202.81l1.88-.55h16.96Z"/>
        <g>
          <polygon class="cls-6" points="997.41 656.41 1019.78 747.73 1023.43 747.73 1337.44 747.73 1337.44 606.25 1337.44 602.43 997.41 656.41"/>
          <path class="cls-8" d="M1337.44,606.25v141.48h-313.25l-2-.75c-7.31-29.4-14.38-58.86-21.2-88.39,111.47-18.72,223.23-36.69,335.28-53.92l1.17,1.57Z"/>
        </g>
        <g>
          <polygon points="984.05 667.23 475.08 747.73 499.87 747.73 587.8 747.73 692.96 747.73 821.81 747.73 1002.51 747.73 1002.51 747.73 1006.62 747.73 984.05 667.23"/>
          <path class="cls-5" d="M1002.98,740.89c-6.48-23.85-13.31-47.54-20.49-71.08-45.95,7.35-68.92,11.02-68.92,11.02l-.12,1.78-1.9-1.81c-57.62,8.97-115.18,18.05-172.69,27.26l.04,1.75-1.17-1.58c-48.04,7.37-96.06,14.89-144.06,22.57l.04,1.75-93.84,15.17h502.64c1.83-1.24,1.98-3.52.47-6.84Z"/>
        </g>
        <g>
          <path class="cls-4" d="M1335.75,169.83l-101.4,434.67,103.1-20.5V167.18c-.62.47-1.28.87-1.7,2.65Z"/>
          <path class="cls-5" d="M1337.44,580.09l-.81,2.11-96.08,19.1-2.78-1.49c31.68-138.04,64.03-276.68,97.06-415.93l2.61-1.04v397.26Z"/>
        </g>
        <g>
          <polygon class="cls-10" points="1144.36 1.5 1140.44 1.5 1094.15 193.92 1337.44 141.08 1337.44 137.4 1337.44 1.5 1144.36 1.5"/>
          <path class="cls-8" d="M1144.36,1.5h193.09v135.9l-.51,1.95-236.61,51.29-2.81-1.46c14.59-62.48,29.57-124.88,44.94-187.2l1.9-.48Z"/>
        </g>
      </g>
      <g>
        <path class="cls-12" d="M306.78,1.5l1.63.65c-13.73,54.86-27.61,109.72-41.63,164.57l-157.56,7.63-2.55,1.66L4.06,574.51l-2.56,1.02v-74.36c1.18-3.79,1.94-7.72,2.3-11.77L91.29,180.2l-1.36-1.86c-28.82-.3-57.76.1-86.82,1.22l-1.61-1.93v-11.74l.17-1.31,253.12-13.17,1.71-1.98L291.51,2.61c.26-.93,1.08-1.22,2.22-1.11h13.05Z"/>
        <g>
          <path d="M73.2,176.01l-71.7,1.61v323.54c1.13-.43,1.71-1.49,2.18-3.15l30.3-108.37,60.71-214.2c-7.82.61-14.33.41-21.48.57Z"/>
          <path class="cls-8" d="M91.35,178.99l-.8-1.32-77.36,1.73c-1.02.15-1.32.91-1.14,2.08l-10.55.06v307.88l2.55-.91c10.61-37.3,21.12-74.59,31.53-111.89l-1.61-.7,1.91-.38c6.07-20.92,12.09-42.17,17.89-63.18.26-.94-.52-1.5-1.64-1.69l2.38-.94c8.2-28.51,16.3-57.02,24.3-85.54l-1.56-.87,1.91-.38c4.38-14.57,8.44-29.22,12.19-43.96Z"/>
        </g>
        <g>
          <polygon class="cls-3" points="289.82 1.5 1.5 1.5 1.5 163.27 1.5 165.88 257.37 153.25 293.74 1.5 289.82 1.5"/>
          <path class="cls-5" d="M289.82,1.5l1.64.62c-11.85,48.97-23.61,97.9-35.27,146.79-83.36,5.23-169.91,9.79-253.71,13.68-.31.01-.64-.53-.98-1.24V1.5h288.32Z"/>
        </g>
      </g>
      <g>
        <g class="cls-11">
          <image width="2798" height="1536" transform="translate(1.5 1.5) scale(.49)" xlink:href="C:\Users\josel\Downloads\Gemini_Generated_Image_koehynkoehynkoeh.png"/>
        </g>
        <path class="cls-9" d="M1082.73,204.56L1123.48,1.5H306.78l-41.56,163.84-159.6,7.26L1.5,575.52v172.21h399.22l520.72-88.35,301.71-61.16,88.46-436.16-228.88,42.5ZM1218.67,590.62c.05-1.74.3-3.24.74-4.52-.43,1.89-.18,3.93.88,5.1-.6-.46-1.15-.62-1.62-.58Z"/>
      </g>
    </g>
  </g>
</svg>