<?xml version="1.0" encoding="UTF-8"?>
<svg id="Capa_2" data-name="Capa 2" xmlns="http://www.w3.org/2000/svg" viewBox="0 0 615.14 955.11">
  <defs>
    <style>
      .cls-1 {
        fill: #f0f8f5;
      }

      .cls-2 {
        fill: #eaaa8b;
      }

      .cls-3 {
        fill: #151909;
      }

      .cls-4 {
        fill: #32221d;
      }

      .cls-5 {
        fill: #cfcbc1;
      }

      .cls-6 {
        fill: #dcc8a5;
      }

      .cls-7 {
        fill: #625652;
      }

      .cls-8 {
        fill: #161205;
      }

      .cls-9 {
        fill: #504640;
      }

      .cls-10 {
        fill: #6c6a68;
      }

      .cls-11 {
        fill: #374328;
      }

      .cls-12 {
        fill: #c27461;
      }

      .cls-13 {
        fill: #111507;
      }

      .cls-14 {
        fill: #261b14;
      }

      .cls-15 {
        fill: #b27966;
      }

      .cls-16 {
        fill: #4e4c49;
      }

      .cls-17 {
        fill: #455032;
      }

      .cls-18 {
        fill: #a99978;
      }

      .cls-19 {
        fill: #0d0706;
      }

      .cls-20 {
        fill: #777675;
      }

      .cls-21 {
        fill: #4c5835;
      }

      .cls-22 {
        fill: #576233;
      }

      .cls-23 {
        fill: #495435;
      }

      .cls-24 {
        fill: #1f1a0a;
      }

      .cls-25 {
        fill: #616f38;
      }

      .cls-26 {
        fill: #bf806f;
      }

      .cls-27 {
        fill: #666664;
      }

      .cls-28 {
        fill: #130705;
      }

      .cls-29 {
        fill: #c17b63;
      }

      .cls-30 {
        fill: #d3846a;
      }

      .cls-31 {
        fill: #505935;
      }

      .cls-32 {
        fill: #363433;
      }

      .cls-33 {
        fill: #b5806e;
      }

      .cls-34 {
        fill: #fcfaf2;
      }

      .cls-35 {
        fill: #646b47;
      }

      .cls-36 {
        fill: #9a9a57;
      }

      .cls-37 {
        fill: #6d7b3b;
      }

      .cls-38 {
        fill: #384228;
      }

      .cls-39 {
        fill: #966452;
      }

      .cls-40 {
        fill: #080808;
      }

      .cls-41 {
        fill: #a27759;
      }

      .cls-42 {
        fill: #4b5734;
      }

      .cls-43 {
        fill: #555352;
      }

      .cls-44 {
        fill: #a7a865;
      }

      .cls-45 {
        fill: #2b1611;
      }

      .cls-46 {
        fill: #fbf8ee;
      }

      .cls-47 {
        fill: #181405;
      }

      .cls-48 {
        fill: #bdad88;
      }

      .cls-49 {
        fill: #494e3b;
      }

      .cls-50 {
        fill: #485132;
      }

      .cls-51 {
        fill: #391f0d;
      }

      .cls-52 {
        fill: #434a34;
      }

      .cls-53 {
        fill: #eee8cb;
      }

      .cls-54 {
        fill: #f2af85;
      }

      .cls-55 {
        fill: #6e7249;
      }

      .cls-56 {
        fill: #9c9d57;
      }

      .cls-57 {
        fill: #b1a99f;
      }

      .cls-58 {
        fill: #92936c;
      }

      .cls-59 {
        fill: #f2b189;
      }

      .cls-60 {
        fill: #8e6c50;
      }

      .cls-61 {
        fill: #33150e;
      }

      .cls-62 {
        fill: #561407;
      }

      .cls-63 {
        fill: #a89775;
      }

      .cls-64 {
        fill: #646943;
      }

      .cls-65 {
        fill: #424248;
      }

      .cls-66 {
        fill: #465231;
      }

      .cls-67 {
        fill: #b3b1ab;
      }

      .cls-68 {
        fill: #706e6b;
      }

      .cls-69 {
        fill: #0c0708;
      }

      .cls-70 {
        fill: #522115;
      }

      .cls-71 {
        fill: #824f37;
      }

      .cls-72 {
        fill: #945a3f;
      }

      .cls-73 {
        fill: #fbfbfb;
      }

      .cls-74 {
        fill: #75797d;
      }

      .cls-75 {
        fill: #c17c69;
      }

      .cls-76 {
        fill: #6f6440;
      }

      .cls-77 {
        fill: #f3e2b8;
      }

      .cls-78 {
        fill: #4a5231;
      }

      .cls-79 {
        fill: #240a06;
      }

      .cls-80 {
        fill: #60534d;
      }

      .cls-81 {
        fill: #c57e68;
      }

      .cls-82 {
        fill: #8a4e43;
      }

      .cls-83 {
        fill: #552f22;
      }

      .cls-84 {
        fill: #f2d9bf;
      }

      .cls-85 {
        fill: #556236;
      }

      .cls-86 {
        fill: #f2b18d;
      }

      .cls-87 {
        fill: #bebab9;
      }

      .cls-88 {
        fill: #919852;
      }

      .cls-89 {
        fill: #bb7462;
      }

      .cls-90 {
        fill: #0e0706;
      }

      .cls-91 {
        fill: #271f1b;
      }

      .cls-92 {
        fill: #3c2721;
      }

      .cls-93 {
        fill: #d6d3cf;
      }

      .cls-94 {
        fill: #783c22;
      }

      .cls-95 {
        fill: #ab5f29;
      }

      .cls-96 {
        fill: #b97968;
      }

      .cls-97 {
        fill: #f5dcba;
      }

      .cls-98 {
        fill: #ede6c9;
      }

      .cls-99 {
        fill: #4b372a;
      }

      .cls-100 {
        fill: #e8e5e1;
      }

      .cls-101 {
        fill: #6b6b68;
      }

      .cls-102 {
        fill: #60605d;
      }

      .cls-103 {
        fill: #95958e;
      }

      .cls-104 {
        fill: #c17d69;
      }

      .cls-105 {
        fill: #c17565;
      }

      .cls-106 {
        fill: #d37d33;
      }

      .cls-107 {
        fill: #bfbebc;
      }

      .cls-108 {
        fill: #e89873;
      }

      .cls-109 {
        fill: #bbb1a5;
      }

      .cls-110 {
        fill: #3d1712;
      }

      .cls-111 {
        fill: #a4a39f;
      }

      .cls-112 {
        fill: #626f39;
      }

      .cls-113 {
        fill: #1b0e0b;
      }

      .cls-114 {
        fill: #4b5331;
      }

      .cls-115 {
        fill: #a6a95c;
      }

      .cls-116 {
        fill: #8e593f;
      }

      .cls-117 {
        fill: #4b5632;
      }

      .cls-118 {
        fill: #4e5635;
      }

      .cls-119 {
        fill: #6e7551;
      }

      .cls-120 {
        fill: #535d39;
      }

      .cls-121 {
        fill: #606e38;
      }

      .cls-122 {
        fill: #b4b2ae;
      }

      .cls-123 {
        fill: #8a8985;
      }

      .cls-124 {
        fill: #46502e;
      }

      .cls-125 {
        fill: #bdbebe;
      }

      .cls-126 {
        fill: #9f8f6e;
      }

      .cls-127 {
        fill: #442921;
      }

      .cls-128 {
        fill: #66713a;
      }

      .cls-129 {
        fill: #515937;
      }

      .cls-130 {
        fill: #a4a19c;
      }

      .cls-131 {
        fill: #5a3627;
      }

      .cls-132 {
        fill: #434e2d;
      }

      .cls-133 {
        fill: #6a6968;
      }

      .cls-134 {
        fill: #432a23;
      }

      .cls-135 {
        fill: #a9a5a0;
      }

      .cls-136 {
        fill: #b5a79f;
      }

      .cls-137 {
        fill: #858e58;
      }

      .cls-138 {
        fill: #424635;
      }

      .cls-139 {
        fill: #d28c74;
      }

      .cls-140 {
        fill: #07090e;
      }

      .cls-141 {
        fill: #945c47;
      }

      .cls-142 {
        fill: #59623d;
      }

      .cls-143 {
        fill: #1f0a06;
      }

      .cls-144 {
        fill: #834932;
      }

      .cls-145 {
        fill: #4b433c;
      }

      .cls-146 {
        fill: #868482;
      }

      .cls-147 {
        fill: #b27769;
      }

      .cls-148 {
        fill: #545d3b;
      }

      .cls-149 {
        fill: #e59976;
      }

      .cls-150 {
        fill: #6e7175;
      }

      .cls-151 {
        fill: #835f5d;
      }

      .cls-152 {
        fill: #818a51;
      }

      .cls-153 {
        fill: #c37361;
      }

      .cls-154 {
        fill: #1b0905;
      }

      .cls-155 {
        fill: #6f7a3c;
      }

      .cls-156 {
        fill: #bbb9ba;
      }

      .cls-157 {
        fill: #b3a69e;
      }

      .cls-158 {
        fill: #484e34;
      }

      .cls-159 {
        fill: #bbb5b7;
      }

      .cls-160 {
        fill: #b7b5b4;
      }

      .cls-161 {
        fill: #b4b3af;
      }

      .cls-162 {
        fill: #b1dde3;
      }

      .cls-163 {
        fill: #5b6835;
      }

      .cls-164 {
        fill: #999d5a;
      }

      .cls-165 {
        fill: #434a32;
      }

      .cls-166 {
        fill: #eba882;
      }

      .cls-167 {
        fill: #575654;
      }

      .cls-168 {
        fill: #ba9f56;
      }

      .cls-169 {
        fill: #fcfaf9;
      }

      .cls-170 {
        fill: #2d330f;
      }

      .cls-171 {
        fill: #c1aa91;
      }

      .cls-172 {
        fill: #787a7e;
      }

      .cls-173 {
        fill: #a4a29d;
      }

      .cls-174 {
        fill: #6a733a;
      }

      .cls-175 {
        fill: #b4a17c;
      }

      .cls-176 {
        fill: #c0725d;
      }

      .cls-177 {
        fill: #783620;
      }

      .cls-178 {
        fill: #ecae8a;
      }

      .cls-179 {
        fill: #5d6638;
      }

      .cls-180 {
        fill: #3d2621;
      }

      .cls-181 {
        fill: #606a43;
      }

      .cls-182 {
        fill: #76513e;
      }

      .cls-183 {
        fill: #0a0f04;
      }

      .cls-184 {
        fill: #cb7a64;
      }

      .cls-185 {
        fill: #8f543d;
      }

      .cls-186 {
        fill: #150d09;
      }

      .cls-187 {
        fill: #915b41;
      }

      .cls-188 {
        fill: #6b6a68;
      }

      .cls-189 {
        fill: #3d2721;
      }

      .cls-190 {
        fill: #965b40;
      }

      .cls-191 {
        fill: #6f7a3d;
      }

      .cls-192 {
        fill: #0d1205;
      }

      .cls-193 {
        fill: #c3826c;
      }

      .cls-194 {
        fill: #4a5234;
      }

      .cls-195 {
        fill: #c6c3c2;
      }

      .cls-196 {
        fill: #b98071;
      }

      .cls-197 {
        fill: #464c55;
      }

      .cls-198 {
        fill: #3f2824;
      }

      .cls-199 {
        fill: #f4b58b;
      }
    </style>
  </defs>
  <g id="Capa_1-2" data-name="Capa 1">
    <g>
      <path class="cls-169" d="M137.7,906.3c-14.64-14.89-.86-34.67-3.29-51.23-15.51-47.07,11.19-58.36,19.69-103.43-22.52,18.45-41.65,29.4-71.62,23.78-9.84-1.85-19.03-4.44-26.82-10.81-10.4-8.5-17.83-18.99-24.52-30.55-7.52-12.99-11.3-26.81-10.75-41.75.52-13.81,7.6-25.17,10.81-38.05,4.47-17.94-2.86-30.05,27.73-49.25,11.08-6.95,3.7-10.76,16.75-20.42.96-3.96-1.84-9.28-3.3-13.03-6.55-16.84-.39-13.6-5.26-27.44-7.29-20.7,13.47-28.84,23.11-41.79,2.61-3.51,1.05-13.33-3.11-14.37-18-1.06-34.29-5.79-48.25-17.11-15.2-12.33-26.05-27.89-32.37-46.35-7.53-21.99-9.04-44.4-1.63-66.53,5.73-17.12,18.24-29.84,35.18-36.31,10.27-3.93,20.43-7.96,31.85-7.75,16.64.32,32.06,7.16,44.78,18.48,28.96,25.78,41.68,66.29,33.63,104.01-3.23,15.12-10.63,26.35-21.71,36.4-2.17,2.57,3.49,10.88,6.8,10.49,15.84-4.18,22.9,2.93,33.45,13.26,17.39-24.23,7.09-19.79,34.87-34.83-3.15-7.76-1.14-14.85,4.06-20.88,11.46-13.29,25-23.87,39.34-34.12-27.23-22.89-46.68-42.56-52.28-78.46-13.21-11.38-19.4-26.91-19.45-44.19-10.01-4.86-16.77-12.37-22.11-22.02-4.38,5.17-2.53,15.1-7.69,17.32-3,1.29-5.85.91-8.67-.74-16.33-14.82-20.18-40.8-13.8-61.85-23.08-10.41-38.08-32.06-40.75-57.43-.44-4.16,1.67-7.38,4.95-8.54,9.1-3.21,10.33,8.26,20.18,9.45-5.62-31.07,10.97-62.49,41.09-74.13-12.36-17.21-14.04-42.37-6.43-61.23,1.36-3.38,5.8-4.13,8.55-3.93,3.97.29,5.48,3.66,7.54,7,6.78,11.02,19.78,15.83,32.42,14.11,38.86-5.29,48.09-22.13,83.57-26.79-1.01-3.56-1.57-5.88-.5-8.43.95-2.29,3.35-3.9,6.39-4.76,25.57-7.19,62.29,5.02,83.59,21.98.05-6.26-8.99-10.21-4.41-17.84,1.65-2.75,5.3-4.29,8.96-3.33,18.7,4.9,34.54,16.53,44.42,33.14,5.22-1.97,9.79-.41,12.3,4.06,4.51,8.05,5.84,16.86,4.13,27.01,25.92.16,48.4,17.87,51.97,43.78.76,5.52-.89,9.75-6.36,12.08l7.75,17.03c8.18,17.97,26.4,8.47,31.92,15.81,6.58,8.73-12.84,24.78-21.1,29.33,4.2,4.64,5.69,10.6.89,14.22-3.58,2.7-8.27,2.71-12.42,4.49,1.9,21.74-2.39,22.61-12.35,39.21,13.27,32.12-.5,62.36-27.62,81.69,4.85,9.24,16.6,5.89,19.02,14.18,3.48,11.88-20.11,16.36-25.22,19.71-3.52,2.31-4.64,9.43-11.5,9.76,56.44,22.04,28.98,42.04,41.99,52.82,9.09,7.54,15.19,17.33,16.18,29.55,12.88,6.92,33.45,15.15,40.99,27.28,7.75,12.48,13.23,25.63,18.16,39.48l10.49,29.45c2.63,7.39,6.43,14.57,10.81,20.96,5.13,7.49,6.91,15.07,9.43,23.6,5.17,17.52,12.29,33.69,18.46,50.95,8.15,22.8,15.5,44.96,22.07,68.24,4.48,15.87,2.84,31.79-4.18,46.48-9.97,20.85-21.88,40.05-46.03,45.43-20.28,4.52-40.24,4.21-61.76,1.89l6.06,31.01c2.66,13.62-.15,26.93-9.89,37.52l4.82,27.27c2.57,14.53-15.88,22.52-24.95,27.38-20.26,10.85-40.92,17.96-63.67,22.37-22.66,4.39-44.95,6.86-67.78,3.3-7.98-1.24-12.92-7.17-14.27-14.85l-4.12-23.34-28.19,1.66c-25.77,1.52-50.62-2.23-75.32-10.74-2.15,9.75-3.18,18.74-6.25,27.67-5.72,16.63-28.37,8.35-39.63,2.59-14.98-7.68-28.09-18.19-39.79-30.09Z"/>
      <path class="cls-40" d="M131.37,144.41c-2.87,3.04-6.22,5.73-10.03,8.06-1.73,3.04-3.74,4.88-6.02,5.5-8.79-27.07,14.93-64.93,47.06-67.74-18.38-15.04-22.19-42.68-13.16-62.89,7.91,15.22,23.37,23.69,39.97,22.03,49.39-4.93,64.98-37.57,116.6-24.25-6.48-8.58-15.17-10.76-25.22-14.83,6.09-3.41,13.32-3.49,20.62-3.03,27.3,1.7,62.6,17.29,76.01,43.95,1.21-14.64-5.05-27.64-11.8-41.53,25.3,5.87,48.79,27.65,45.41,54.43,4.57-6.34,4.68-13.99,7.02-21.9,7.53,10.33,5.64,21.81,1,33.2,15.4-3,30,.11,41.45,10.57,8.44,7.7,14.79,18.04,13.52,30.73-9.09-10.07-19.44-16.81-32.79-15.53,41.15,16.37,22.34,61.21,67.9,58.13-5.43,12.07-16.19,19.21-28.19,23.69l9.59,9.82c-5.06,4-11.61,3.92-18.3,3.96,13.13,32.59-14.86,36.17-8.92,49.8,12.61,28.92-2.81,57.92-28.07,73.94-1.69,11.59,8.31,16.43,19.44,20.58-9.73,8.29-23,12.46-35.52,7.69,1.34,4.42,4.93,5.95,8.6,9.62-9.13,6.95-20.36,6.57-31.09,4.64l-10.85,5.37c20.17,1.54,39.85,6.06,57.11,17.04,15.39,9.79,12.16,19.64,12.06,34.7,11.83,11.63,20.13,15.84,20.47,35.31,9.96,4.03,18.28,9.05,27.21,14.03,5.45,3.03,10.83,6.02,14.28,11.51,7.13,11.35,12.62,23.27,17.06,35.99l11.53,33.08c3.79,10.88,11.91,19.3,15.51,30.05l12.25,36.55c10.58,31.57,42.29,98.73,32.47,128.37-4.3,12.98-10.94,24.89-19.52,35.52-6.52,8.08-15.57,13.33-25.81,15.31-11.35,2.19-22.85,3.92-34.55,3.24l-34.01-2c3.73,25.09,18.37,53.88-2.2,73.64.01,11.6,6.12,22.53,4.66,33.73-1.04,8.02-11.78,11.86-17.95,15.42-21.31,12.27-42.99,19.16-67.04,23.73-19.34,3.67-37.7,5.79-57.57,3.63-4.76-.52-10.53-.97-12.24-6.4-3.4-10.78-4.32-21.86-6.46-33.15l-31.81,2.04c-28.78,1.85-56.18-2.52-83.58-13.27-2.03,11.69-3.47,22.48-6.44,33.51-1.43,5.3-5.43,7.71-11.18,6.74-20.67-3.48-42.96-20.82-57.26-35.42-10.88-11.11,2.26-34.37-1.08-46.52-11.56-42.08.77-43.51,12.5-77.71,5.37-15.66,9.94-30.92,12.8-48.3-25.23,25.6-45.11,46.15-84.37,39.61-23.05-3.84-33.61-18.35-45.01-37.42-22.25-37.23-.21-65.64,1.28-75.39s.33-19.02,5.42-27.61c4.18-7.05,10.87-11.68,17.74-16.34,17.54-11.9,4.8-14.18,20.56-21.62,2.64-5.92-.6-14-3.07-19.66-7.14-16.39.07-13.45-5.38-27.82-2.3-6.05-1.64-12.44,3.1-17.04l21.39-20.71c-.5-23.18,2.44-6.14-6.38-25.12-20.74,2.76-40.1-5.35-55.15-19.71-37.21-35.47-43.08-110.56,1.92-130.04,10.12-4.38,20.53-8.73,31.95-8.89,14.8-.2,28.82,5.78,40.14,15.61,28.38,24.65,40.75,63.85,31.88,100.24-3.45,14.17-10.89,25.29-23.06,32.59,4.61,20.44,3,9.13,11.67,23.15,1.79,2.9,10.21-8.34,20.78-.97,6.59,4.59,12.73,10.13,17.35,17.36,20.79-29.12,10.14-28.33,44.47-44.39-6.15-6.55-5.96-13.82-.3-19.86,13.57-14.5,28.74-26.6,45.73-37.56-29.7-22.58-53.7-44.94-57.94-82.37-14.08-11.12-21.01-27.51-18.25-45.85-16.1-4.12-26.65-18.74-26.91-36.18-8.31,8.53-11.1,19.72-14.69,31.26-15.76-16.87-18.61-40.36-9.32-61.19-18.15-5.98-32.08-18.81-38.65-36.63-2.31-6.27-5-12.28-3.78-19.34,8.08,8.34,18.21,13.69,29.67,12.12,11.82-1.62,17.04-19.56,23.99-28.31-5.11-.33-8.38,2.56-12.22,3.7Z"/>
      <g>
        <g>
          <path class="cls-151" d="M131.37,144.41c-1.25,4.38-8.77,20.72-14.78,16.78-.99-.65-.91-2.1-1.28-3.22,1.97-7.22,9.1-11.49,16.05-13.56Z"/>
          <path class="cls-127" d="M402.22,221.91c1.08-.32,2.49-.69,2.99-1.56.53-.94.95-3.04.07-4.21-5.68-7.58-8.6-16.12-9.05-25.12l1.96-.25c-2.2-4.39-11.46-34.77-10.75-36.55.23-.58.61-1.09,1.04-1.58.4.63.78.82,1.11.02,7.1,2.61,14.16,14.76,12.81,22.13,3.82,9.57,7.54,6.44,20.32,7.4,1.65-16.21,5.25-6.54,3.73-17.31-.95-6.74-1.16-13.94-5.17-19.62-3.91-5.54-7.24-10.47-12.29-15.06l11.34,1.65c3.34,6.84,10.41,8.93,17.28,6.2l8.28,2.54c.59-6.45-5.33-9.64-8.53-13.74-3.83-4.9-8.45-4.41-12.9-6.3-9.49-4.04-18.05-9.14-28.83-7.8-5.44.67-11.13,1.98-16.7,1.77-1.67-.06-3.7-1.39-4.95-.8-1.05.5-1.87,2.44-3.41,2.7-1.02.17-2.18-1.79-3-1.73-1.42.11-1.72,1.47-3.44,3.12-.79-.35-5.52-19.78-9.3-10.54-7.2-14.44-19.32-25.39-35.11-29.54,4.53-2.2,8.02,1.39,11.91,1.52,8.43.27,15.72,1.64,24.24,5.53-3.43-11.23-12.26-17.41-20.71-24.27,11.93,4.24,22.59,10.46,31.02,19.76,2.43,2.68,2.25,6.63,5.7,9.09,2.45-5.03-.92-9.49.62-14.32,2.01,1.65,1.78,7.25,5.5,7.4,4.12.17,11.59-.91,14.52-4.65,9.76-12.5,6.99-30.59-2.84-42.03-2.29-2.67-4.1-4.24-7.21-3.28-.53-3.22-4.51-6.15-3.33-10.38,22.65,12.55,30.92,38.06,18.99,61-.47.91-.53,2.74.09,2.9,2.92.76,8.19-8.55,11.49-8.88-1.85,5.33-6.13,8.4-9.92,13.2,1.59.82,3.59-.23,5.25-1.25,18.42-11.36,44.43-10.63,56.1,8.84-10.04-4.37-35.46-6.1-42.32,2.35,59.18,9.43,31.56,63,79.71,65.15-11.41,14.11-32.33,1.62-44.08-8.36,4.75,10.26,14.82,16.59,26.57,19-4.77,3.77-10.49,3.8-16.43,4.88,3.21,8.42,10.45,1.91,13.86,9.94-6.73,1.69-12.01-1.42-19.26-1.88,7.41,8.86,12.13,20.5,6.28,30.13l-11.77,19.39c-8.51-7.02-18.63-7.61-27.75-2.56-3.02,1.67-6.79,2.24-8.83,5.38-6.83,10.53-7.77,24.58-15.11,34.93-.29-2.35-.09-3.87-.73-5.04-4.76,4.08-7.92,9.27-14.41,9.69,7.81-18.92,10.22-28.34,5.44-47.75,9.24,2.08,24.55,2.12,27.52-7.81-6.41-.99-12.72-.19-17.61-3.44Z"/>
          <path class="cls-189" d="M103.82,175.91c6.1,1.81,12.32,3.32,18.66,4.54l1.94,2.34c-2.82,6.08,31.37,4.27,34.2,6.95l-11.5,4.99c-5.34,2.32-9.07,1.21-15.75.33,10.43,6.29,20.13,11.25,30.59,16.53,8.13,4.1,16.99,4.11,26.16,1.48-3,16.2-7.54,38.9,2.12,52.42,3.61,5.06,5.77,10.24,5.65,16.18-3.23-4.84-7.02-7.73-11.99-9.81-17.86-7.48-25.99-27.54-17.01-45.93-10.67,4.45-17.99,12.65-22.7,22.55-.78,1.63-2.96.41-3.82.8-1.82,1.9-1.46,5.02-2.76,7.13-5.79-16.99-4.27-35.62,6.49-49.64-10.86-.98-20.44-3.8-27.87-10.68-6.79-6.28-12.69-13.25-15.97-21.32,1.2-1.68,2.91-.65,3.56,1.15Z"/>
          <path class="cls-134" d="M155.66,196.08c-.8,4.97,13.33,2.41,16.5,1.33,9.75-3.35,17.99-8.9,26.04-15.09,9.14-7.02,16.5-15.18,20.97-26.06.61-1.48,1.73-2.48,2.9-2.84l-2.5,23.55c-2.22,20.93-29.65,36.04-49.61,29.78l-24.36-7.64c3.9-2.27,7.06-1.99,10.05-3.03Z"/>
          <path class="cls-198" d="M362.16,159.56c-6.22,13.98-8.6,28.74-8.62,44.85-11.54-12.36-9.4-43.89-6.1-57.93.28-1.2-.71-3.42-1.61-2.73l-2.2,1.71c1.35-1.04-17.72,30.47-43.65,36.69,5.29-8.12,10.05-15.49,12.36-24.21.65-2.45.99-3.95,1.81-5.67.31,4.62-1,8.95-1.73,14.21,3.63-1.12,6.91-3.41,9.4-6.36,4.75-5.66,10.61-8.93,16.79-12.71,3.3-2.01,4.85-7.97,9.74-7.8,4.42,1.74-1.47,11.38,2.29,15.65l7.05-10.37c3.35,2.54-2.53,13.71,4.48,14.68Z"/>
          <path class="cls-4" d="M400.73,356.36c1.66-3.95,4.28-6.01,2.88-9.05-5.83,3.8-8.13,10.16-15.54,11.97,6.81-11.32,13.09-21.99,15.03-35.28l10.88,2.18,12.46-2.93c.26,9.24,4.89,15.93,14.05,20.03-11.79,4.5-22.51-1.16-32.58-7.37-.87,8.69,4.47,14.4,8.47,20.9-5.06,1.51-10.17.61-15.66-.45Z"/>
          <path class="cls-180" d="M360.18,217.71c-12.25-3.73-21.49-11.59-35.33-9.78l-29.26,3.83c-2.52-3.17-4.69-6.7-5.15-10.79,7.68-3.69,15.62-4.12,23.9-4.61,21.26-1.26,31.66,7.2,45.84,21.35Z"/>
          <path class="cls-92" d="M236.16,219.54c-15.96-.48-31.64,3.51-40.24,19.15-1.14-14.07,15.39-34.86,33.65-28.67,2.91.99,5.07,5.2,6.59,9.51Z"/>
          <path class="cls-196" d="M192.38,235.65c-.35-8.54.04-16.47,1.36-24.8,11.42-4.86,21.57-11.61,27.45-21.76,2.26,5.66,3.92,10.43,6.68,16.05-18.84-1.16-32.68,12.04-35.49,30.5Z"/>
          <path class="cls-147" d="M189.28,283.52c9.69,1.1,10.55,21.78,9.96,29.63-6.88-7.88-10.21-18.19-9.96-29.63Z"/>
          <path class="cls-131" d="M104.81,174.89l-.99,1.02c-1.06-.67-2.32-1-3.56-1.15-.61-1.5-3.51-2.07-2.39-4.96l6.94,5.09Z"/>
          <path class="cls-113" d="M388.48,152.64c11.44,27.31-.13,41.9,37.76,53.75-5.46,2.23-12.73,3.59-17.62.42-5.9-3.82-8.47-10.66-12.39-15.79-2.6-3.4-2.89-7.79-3.76-11.49-2.17-9.18-9.6-26.94-7.15-30.31l3.17,3.42Z"/>
          <g>
            <path class="cls-131" d="M383.54,60.64l.77-5.98c.23-7.44-.63-14.82-1.84-22.19,2.78-6.46,8.9,1.72,11.5,5.47,12.73,18.42,8.44,51.21-18.78,45.96.1,5.78-1.81,9.44-6.99,5.06-2.51-6.46-6.31-10.2-11.75-14.51-6.59-5.22-9.25-7.13-2.85.34,8.47,13.02,1.96,12.8-9.79,8.29-10.88-3.99-10.22-1.56,1.98,7.31,3.54,4.03,6.85,8.18,9.92,12.44,4.63.28,7.64,3.65,9.03,10.11,3.74.75,6.86.21,9.36-1.61,9.21.58,18.53.25,27.96-1.01,11.18,2.94,22.14,6.73,32.87,11.37,9.04,5.67,23.12,26.27,2.74,18.65-5.34,2.39-10.45,1.25-15.12-1.94-8.78-8.87-8.05-6.17,2.21,8.09,3.33,6.34,6.43,22.24,1.77,28.19l-1.3,6.24c-.45,4.31-9.52,3.94-13.18,3.4-5.52-.81-13.57-3.31-9.65-9.52,6.88-3.72,1.39-19.37-1.95-25.31-1.67-2.96-5.77-9.3-6.11-3.41-2.54,1.64-4.12,3.84-4.75,6.59.24,2.33-.08,2.07-1.11-.02l-1.52,1.15c2.22,10.41,6.45,25.08,10.06,35.12.29.81-.04,1.5-.8,2.11,2.89,8.95,6.78,17.37,11.68,25.29.73,4.83-.77,7.23-5.68,5.6-.56-.37-1.6.06-2.22-.21l-3.4,1.03c-13.72-6.99-28.72-18.07-33.19-32.81-2.78-14.26.97-30.05-1.24-30.36-4.88,4.26-6.67-3.81-5.88-8.18-2.74,5.16-5.55,6.46-8.44,3.88,1.7-10.11.68-14.29-3.07-12.53l-6.91,7.85c-6.82,4.02-12.91,8.96-18.26,14.82-2.67,2.43-5.44,3.17-8.3,2.22.72-5.07,1.66-10.19,2.83-15.35,1.88-3.96,4.2-7.94,4.11-13.13-7.86,15.75-20.1,27.8-34.45,38.19-6.78,5.21-13.14,10.07-18.84,16.26,1.04-20.95,12.29-37.6,25.47-53.39-19.38,14.12-31.26,37.26-31.54,61.41-.11,9.32,4.7,17.28,6.27,25.83-15.32-6.84-26.49-18.43-33.48-33-7.99-16.65-6.08-35.32.8-52.23,1.2-2.96,1.18-6.23,3.92-7.66l1.34,3.05c-4.76,11.88-7.97,34.95-1.69,7.86.8-3.54,3.86-6.95,6.58-3.84,1.15,9.62,5.18,15.17,12.09,16.63l2.48,2.35,12.41-12.38c-7.16,2.49-14.2,3.51-21.14,3.07-4.9-10.32-2.44-23.34,3.69-32.71l-9.39,9.67-2.89-.59c6.82-13.84,19.26-23.42,34.69-27.41-27.6-.69-16.42,23.34-54.02-2.41-6.03-4.13-5.55-8.95-7.86-15.8-1.79,6.71,1.83,13.74,5.57,19.17,5.89,8.54,15.91,11.99,26.12,12.46-6.85,10.19-21.11,28.48-22.31,39.75-4.41,20.99-40.52,50.01-61.4,47.96-3.72-.37-9.38-2.17-5.02-5.3,17.83-6.22,33.51-18.23,35.9-39.19-3.9,3.73-4.02,9.43-7.36,13.62-6.94,8.71-16.04,15.1-25.58,19.24-5.51,1.43-34.72.72-36.11-4.52-.28-1.04.78-1.94,1.91-2.43,1.63-2.26,4.37-3.53,8.21-3.81,11.23-5.11,18.59-14.61,22.07-28.48-5.39,6.79-10.91,13.45-16.55,19.99l-2.91-.53c5.7-10.34,9.47-18.86,17.2-28.75,2.63-3.37,6.15-3.51,10.12-3.78-18.27-7.87-25.86-1.32-38.6,3.96-.48-1.39-.43-2.76-.03-4.15,2.56-8.92,25.84-25.81,35.29-28.97,2.21,1.78,19.7-10.46,18.64-10.71-5.58-1.26-15.48,2.96-20.67,5.26-2.96,1.43-5.18,1.08-6.65-1.05,12.15-8.17,19.43-6.24,31.51-10.47-4.93-2.19-9.54-3.14-13.64-6.23-13.89-12.12-18-25.28-16.06-43.21,14.35,22.07,48.36,15.04,67.69,9.23.14,1.17-.08,2.25-.71,3.23-4.09,6.37-38.04,10.82-46.23,6.99,18.27,6.91,38.23.61,55.45-6.71l4.41-.45c21.73-17.16,49.35-23.44,76.38-19.54,6.68,2.03,12.89,4.19,20.01,7.26-10.06-20.22-11.03-12.77-21.96-26.29,23.29,3.35,42.73,15.1,57.57,31.7,6.99,7.82,9.86,16.99,14.35,26.99,4.08-4.57,2.73-9.56,4.25-13.64Z"/>
            <g>
              <path class="cls-116" d="M309.32,34.61c.29,1.04-1.1,1.08-2.34,1.04-16.74-.56-33.26.45-48.93,6.82-12.5,5.08-24.26,12.22-32.61,22.31l-8.58,10.38c-.3-5.43,11.22-13.92,14.85-19.38-22.98,9.98-51.45,18.72-72.91-.64.53,18.39,20.9,31.32,36.34,34.78-1.84,5.29-19.96-5.18-21.76-6.56-5.45-4.16-21.99-24.59-15.17-31.4,16.04,12.71,45.69,9.96,61.8-.88l35.33-14.85c17.97-7.55,36.04-7.07,53.97-1.62Z"/>
              <path class="cls-72" d="M236.41,134.54c1.14-2.93,2.45-4.79,3.48-6.88,6.77-5.63,10-12.67,19.37-16.31-1.31,4.25-4.55,7.08-6.72,11.09-4.51,8.34-5.35,18.05-2.84,27.28,9.39-.16,17.06-4.25,27.13-5.55l-20.71,21.38c-1.18-12.51-9.87,4.22-15.57-23.95-4.56,5.89-5.96,26.51-8.15,25.77-.36-.12-1.21-.67-1.35-1.42-2.06-11.18,1.48-21.42,5.36-31.4Z"/>
              <path class="cls-190" d="M123.94,141.38c-1.34.56-1.86,2.72-4.39,2.45,3.12-18.1,14.58-34.81,30.97-42.06,2.26-.48,4.95-.51,7.62-1.91,9.18-4.82,19.63-5.25,30.13-4.93-4.04,2.76-8.76,3.68-12.83,6.99-2.21,1.8-3.91,4.99-7.22,5.85-19.09,4.98-33.79,17.51-44.26,33.61Z"/>
              <path class="cls-187" d="M124.42,182.79c-7.52.34-14.41-2.99-20.6-6.88-1.79-1.44-1.13-2.1.99-1.02l7.71,1.38c9.18,1.64,16.49-1.05,22.72-6.32,7.22-6.11,15.16-20.66,26.3-29.79l-9.59,23.07c-5.09,12.26-14.84,18.97-27.53,19.56Z"/>
              <path class="cls-127" d="M400,221.7c-.58.43-1.62-.48-2.51.51,3.14,3.08,7.46,1.84,11.91,4.78-17.4,3.56-36.7-10.39-44-27.07-1.47-3.36-1.39-6.9-2-10,2.03.52,2.05,3.08,2.77,5.1,1.05,2.96,4.67,3.64,6.28,5.84,6.93,9.46,17.63,16.52,27.55,20.84Z"/>
              <path class="cls-127" d="M383.54,60.64c.08-1.95-.96-4.61.77-5.98-.08,2.49.09,3.69-.77,5.98Z"/>
              <path class="cls-71" d="M402.4,174.78c-3.18-7.94-7.58-15.39-12.81-22.13-1.19-1.54-1.93-4.44.12-5.82,1.31-.88,2.56-1.47,2.99-2.54.6-1.5-.97-2.93-.59-5.22,14.21,3.51,18.98,33.99,13.97,36.45-1.01.49-2.55-.17-3.67-.74Z"/>
              <path class="cls-154" d="M173.07,167.81c-10.11-10.6,1.3-40.14,16.42-43.47-9.64,7.66-15.87,17.14-17.92,29.12-.86,5,1.97,8.25,1.5,14.36Z"/>
            </g>
          </g>
        </g>
        <g>
          <g>
            <path class="cls-136" d="M324.4,856.48c-1.28.43-1.26.92.03,1.56l2.87,25.88c.18,1.66-2.91.81-3.86.97-.22.9.25,1.3,1.27,1.31,4.32-2.08,4.81,8.56,5.8,12.53-32.76,3.35-59.25,6.67-90.18-3.9l-21.71-7.41c.08-4.11.07-7.57,1.3-10.72,1.89.55,1.85.14-.13-1.23.38-14.4,4.01-28.62,6.09-43.5l5.69-40.72c2.61-18.67,7.85-36.18,8.42-54.71,3.01,3.82,3.28,7.52,6.2,10.09l34.87,3.13,41.6,5.75c1.2,23.52-1.81,44.53-.23,68.29.75,11.31,2.09,21.99,1.96,32.7Z"/>
            <g>
              <path class="cls-80" d="M219.92,876.69c.13-.34-.14-.86-.13-1.23l31.73,8.4c6.62,1.79,13.08,2.09,19.16,4.54-18-.92-34.39-6.71-50.76-11.71Z"/>
              <path class="cls-7" d="M323.43,884.89c.26.44.73,1.23,1.27,1.31-7.28,2.64-15.36,1.91-23.69,2.38-7.13.4-13.75,1.98-21.09.7.72-1.63,2.09-2.66,5.5-2.22,9.56,1.22,28.53-.63,38-2.16Z"/>
              <path class="cls-9" d="M324.4,856.48c0,.51-.03,1.05.03,1.56-6.15-1.31-12.1-3.39-17.64-7.11,7.01.01,11.63,4.62,17.61,5.56Z"/>
              <path class="cls-98" d="M269.32,782.54c4.25.99,9.46,7.68,9.66,12.01,6.59,10.38,12.86,15.64,24.06,18.71-.56-6.49-5.24-10.08-8.64-14.62l-17.03-22.77c-2.64-3.53-5.1-6.82-6.36-11.04,17.56,2.67,27.82,6.92,43.79,9.48.03,27.6-1.34,46.24,1.79,74.53-17.71-4.31-33.13-11.43-49.12-18.64-2.26-1.02-4.27-1.81-4.63-4.87l-21.87-19.12,7.02-45.95,21.32,22.27Z"/>
              <path class="cls-98" d="M290.13,852.25c18.98,18.88,31.22,11.22,29.27,31.84-32.65-.9-58.92-6.2-87.44-19.23.08-9.27,2.25-17.78,5.7-26.23,7.82,3.38,13.83,8.19,22.45,9.85-6.04-7.26-14.14-9.77-21.03-16.13-.28-6.03-.27-13.7,2.12-19.3,2.21-2.09,4.73,2.38,5.78,3.72,8.69,11.1,15.52,9.44,29.36,27.04,3.39,4.31,10.2,4.85,13.81,8.44Z"/>
              <path class="cls-91" d="M278.98,794.55c-2.63-4.14-5.87-7.88-9.66-12.01l-13.9-25.12c10.23,13.73,18.67,27.31,29.8,40.01-3.13.03-3.8-3.19-6.24-2.88Z"/>
            </g>
          </g>
          <g>
            <path class="cls-171" d="M265.84,686.3c-1.02,7.6,5.93,11.8,11.94,14.79,2.23,13.03,7.93,13.02,16.63,19.86,5.1,7.57,10.8,13.53,19.79,16.71,16.16,7.71,33.69,9.99,50.57,15.54l-74.54-9.28-40.39-5.81c-5.95-10.28-8.76-20.61-12.93-30.54,2.35-4.71,6.73-9.96,11.42-13.18-5.35-.1-14.76-2.3-8.1-7.6l19.33,1.34c2.52-3.89,4.62-4.49,6.29-1.82Z"/>
            <path class="cls-6" d="M261.11,645.1c-2.64.19-2.25,5.32-4.77,9.07-2.31.44-1.95.91,1.08,1.39l.34,1.48c.22,3.27,4.44,3.36,6.75,5.53,1.65,1.56,2.71,3.45,4.33,3.73,2.35.41,4.25.32,5.51-1.44,3.7,1.65,7.58,3.74,12.15,4.11,17.01,1.39,33.45,3.42,50.32,9.35-23.22,2.23-32.83-4.85-60.5-2.76-5.16.39-9.84,6.04-10.48,10.75-2.65-.7-3.93,4.22-6.2,4.07l-20.58-1.31c4.86,4.78,10.34,1.04,16.28,4.28-15.33,6.83-10.17,11.9-18.43,14.22l-8.94-21.32c4.79-3.41-12.42-24.53-4.93-35.17,1.92-2.73,5.22-1.29,8.58-2.31l13.92-4.21c1.03-.31,1.41-1.41,1.47-1.92.9-.81,13.71.25,14.16.83.26.33.15.94-.06,1.63Z"/>
            <path class="cls-67" d="M329.31,621.47c4.69,2.11,12.65,20.85,11.76,24.72-.18.77-.54,1.51-.96,2.22-1.33-.22-2.4-1.34-3.06-2.95l-10.8-26.71c-5.25-12.98-14.87-31.46-17.14-45.16-5.17-1.17-10.18,1.5-14.53-1.86,3.66-1.26,13.18-.89,15.21,2.47,5.25,8.68,6.77,18.44,11.1,27.28,3.32,6.78,5.69,13.47,8.41,19.98Z"/>
            <path class="cls-5" d="M335.98,607.38c.89,2.35.7,3.54-.57,3.54-6.61-12.29-9.61-26.81-16.41-39.46-5.62-3.97-18.57.6-23.92-3.88,9.08-.35,17.95-.4,26.27,1.31,6.2,13.1,9.6,26.1,14.62,38.48Z"/>
            <path class="cls-10" d="M343.1,642.55l-2.54-.28c-3.49-8.13-6.62-16.33-9.4-24.62l-1.92-.92c-1.71-5.88-5-11.22-5.44-17.36-1.02-3.1-1.19-5.53-.51-7.29.72.52,1.53,1.38,2.06,2.66l23.41,56.17c-4.38-1.16-4-5.7-5.67-8.34Z"/>
            <path class="cls-32" d="M343.1,642.55c.17,1.88-.86,3.97.81,6.9-2.17.34-2.78-.87-3.8-1.04-2.71-9.32-7.07-18.02-10.8-26.94,1.88-.82.37-3.28-.06-4.75.53-.29,1-.74,1.84-2.23,1.92,2.22,11.92,26.97,12.01,28.06Z"/>
            <path class="cls-68" d="M285.66,562.8c-2.21-.52-4.07-1.33-3.23-3.73-.29-.57-.03-2.08-.86-2.19-7.17-.89-10.07,14.75-3.27,23.82.47.63,1.75.97,2.15.97.78,0,.63,2.79-.26,2.52-4.32-1.3-5.9-6.51-7.45-10.33-3.05-7.53-.47-13.76,3.82-19.61,3.18-.11,3.31-3.11,11.41,5.24.92.95.7,1.99.2,3.31-.39,1.04-1.24.12-2.51,0Z"/>
            <path class="cls-173" d="M335.41,610.92c.98-.83.36-2.4.57-3.54l13.21,32.61c1.54,3.81,5.96,7.2,3.08,12.05l-16.86-41.13Z"/>
            <path class="cls-188" d="M303.59,563.6c-1.8-.45-4.26-1.59-4.72-3.35-.56-.06-1.07-1.1-1.68-.64-7.17,5.36-4.36,18.3.05,25.87-8.9-6.19-8.77-18.75-3.96-26.89,1.61-2.73,4.79-3.07,7.15-3.04,3.87.05,7.49,7.89,5.91,8.36-.96.29-2-.4-2.75-.32Z"/>
            <path class="cls-102" d="M209.05,552.54c-7.82,1.48-6.43,18.64,1.87,26.09-7.53,1.41-10.08-13.78-9.02-20.4.66-4.14,3.3-6.71,7.36-7.44,2.61-.47,7.28,2.6,7.89,5.95-3-.69-4.55-4.86-8.11-4.19Z"/>
            <path class="cls-101" d="M261.56,553.16c-10.6,6.88-6.64,22.82,1.44,29.65-7.68,2.22-12.27-15.44-8.81-24.8,1.21-3.27,4.19-6.01,7.37-4.85Z"/>
            <path class="cls-167" d="M221.07,563.96c.97,6.86,2.76,11.52,8.1,16.21-8.99,1.73-11.53-20.66-8.73-24.73,1.28-1.86,3.16-4.94,7.19-3.58-4.1,2.57-7.37,6.35-6.56,12.1Z"/>
            <path class="cls-133" d="M245.73,581.56c-7.68-2.62-9.39-10.13-9.04-17.74.26-5.77,2.53-11.53,9.28-11.28-5.18,2.88-7.18,7.76-7.4,13.07-.25,5.95,2.6,10.48,7.17,15.95Z"/>
            <path class="cls-135" d="M323.31,592.06c.99,1.88.53,5.41,2.68,7.25-.43.99-1.81.59-2.17.04-1.7-2.45-10.68-24.23-10.22-25.14,2.31-4.58,6.28,11.3,9.71,17.85Z"/>
            <path class="cls-27" d="M190.99,566.83c-.05,5.29,2.93,7.53,5.38,11.91-12.79-6.06-5.32-18.79-5.38-11.91Z"/>
            <path class="cls-27" d="M189.87,564.51c-3.03,2.21-.09-16.74,6.38-13.52-4.22,3.76-4.81,7.77-6.38,13.52Z"/>
            <path class="cls-167" d="M231.33,557.22c-.52,1.1-.66,2.52-1.47,2.91-.89.43-2.6.56-3.39-.62-1.25-1.88,5.2-6.02,4.74-5.94.72-.13,4.5,3.01,3.7,4.72-.22.48-.21,1.14-1.35,1.19-.53.02-.87-.95-2.23-2.27Z"/>
            <path class="cls-111" d="M268.38,566.37c-3.24.86-6.58.83-9.71-1.17,3.42-1.26,6.42-.89,9.71,1.17Z"/>
            <path class="cls-123" d="M251.3,564.96c-3.3,2.15-7.39,2.19-10.38-.54,3.08-.68,6.1-1.58,10.38.54Z"/>
            <path class="cls-130" d="M217.19,562.61c-3.3,2.15-7.39,2.19-10.38-.54,3.08-.68,6.1-1.58,10.38.54Z"/>
            <path class="cls-161" d="M267.58,561.54c-2.1,1.8-4.18-3.84-2.62-4.7,1.19-.64,4.34,3.23,2.62,4.7Z"/>
            <path class="cls-93" d="M303.59,563.6c-2.12.24-4.29.57-6.42-.3.86-1.37,1.43-2.11,1.71-3.05,1.12.12,4.03-.59,4.72,3.35Z"/>
            <path class="cls-146" d="M287.71,570.95c-3.62,2.63-7.01.36-10.25-.77,3.5-.39,6.42-1.64,10.25.77Z"/>
            <path class="cls-20" d="M234.79,563.9c-3.62,2.63-7.01.36-10.25-.77,3.5-.39,6.42-1.64,10.25.77Z"/>
            <path class="cls-122" d="M287.6,567.56c-3.49,2.25-6.39-.12-10.1-.79,2.93-.53,6.39-1.89,10.1.79Z"/>
            <path class="cls-103" d="M199.92,562.24c-2.68.61-5.24,1.29-7.72-.71,2.57-2.06,5.7-2.19,7.72.71Z"/>
            <path class="cls-100" d="M285.66,562.8c-1.46-.14-3.75.89-5.06-.72-1.12-1.38.61-2.85,1.83-3.01,1.46.82,2.61,2.15,3.23,3.73Z"/>
            <g>
              <path class="cls-77" d="M271.79,653.19c-.97,2.53-.94,4.9.07,7.09,1.21.97,1.11,3.59,2.48,4.57,1.41,3.39-.76,3.92-3.9,3.98-2.08.04-14.23-8.28-14.37-9.41-.11-.91.86-1.74,1.68-2.39-.61-2.5,10.25-.92,9.72-.83-1.69.27-10.83-.27-11.13-2.03-2.58-2.62.38-11.16,4.77-9.07-.89-2.51,9.53-1.03,9.09-.78-.97.54-19.24-2.19-21.92-2.6-1.84-.28-3.2-.17-1.27.92,2.52,1.68,1.68,3.19-1.01,4.23-7.55,2.15-15.13,3.85-22.73,5.08.95,1.18,1.02,3.03.21,5.56,1.67,8.68,4.22,17.23,7.63,25.63.42,2.44-.58,3.5-3.14,3.1l-22.53-56.19-23.02-58.06c-.54-1.37-.81-2.62.46-3.33,3.32-1.85,2.93,8.88,9.6,13.09,1.93,1.22,4.44,1.18,5.91-.02,1.3-1.06,2.31-3.62.81-5.48s-4.82-3.66-4.22-6.16c9.45-2.83,4.53,7.2,12.58,13.18,2.11,1.57,4.61,1.55,5.86.55,2.05-1.64,2.92-4.79,1.27-6.64l-6.02-6.75c1.96-.02,7.11-1.5,8.55.74,2.59,4.05,2.77,9.18,6.43,12.31,2.45,2.1,5.93,2.6,8.04-.29,3.96-5.43-5.04-8.31-5.93-11.73,2.04-.88,7.4-1.37,8.58,1,2.25,4.51,2.51,9.62,6.54,12.85,2.31,1.85,5.81,1.61,7.55-.64,4.18-5.41-4.95-9.16-5.88-11.76,2.55-.69,7.22-.96,8.8,1.64,2.24,3.69,2.75,7.94,5.93,10.78,2.68,2.39,6.17,2.59,8.26-.02,1.88-2.34,1.26-5.83-1.79-7.85-1.46-.97-3.38-1.08-3.86-3.37,2.03-.3,6.87-1.16,8.45,1.17,2.48,3.67,2.79,8.32,6.39,11.4,2.52,2.15,5.81,2.76,8.23.68,1.94-1.66,2.57-4.88.7-7.3-1.46-1.89-3.94-2-5.27-4.87,1.99-.71,6.71-.9,7.76.77,1.4,5.8,3.37,11.7,9.45,13.5,2.45.73,5.13-.04,6.19-2.02,2.83-5.29-5.84-7.07-5.58-11.07,3.13.04,8.25-.31,10.9,1.25,1.22,4.17,2.32,8.35,4.01,12.48l23.51,57.53c-15.74-5.18-43.63-5.95-56.49-1.32-3.9,1.4-5.08,3.77-6.33,6.87Z"/>
              <g>
                <path class="cls-6" d="M271.85,660.28c-2.8-2.24-1.07-4.63-.07-7.09-.15,2.36-.14,4.73.07,7.09Z"/>
                <path class="cls-18" d="M299.27,631.05c4.51.09,8.26,1.63,13.06.88,1.61,1.95-.44,3.62-2.21,1.67l-19.22-.84c-10.63-.46-21.31.38-32.03-1.01-7.65-1-14.62-2.58-22.51-2.17-7.55.4-15.28.57-22.59-2.68l13.23.51c5.64.22,10.97.4,16.43.86l14.13,1.19c6.86.58,13.22,1.03,20.02,1.16l21.69.42Z"/>
                <path class="cls-48" d="M283.39,605.54c8.79.39,17.17.6,24.92,3.8-7.07,1.41-13.51-1.84-20.34-1.71-11.48.22-22.37-1.33-33.87-2.37-9.16-.84-17.93.27-27.05-1.4-4.67-.86-9.64,1.19-14.22-1.89,4.03-1.92,8.4.67,12.93.61,16.17-.2,24.81,1.5,40.08,2.19l17.54.79Z"/>
                <path class="cls-126" d="M310.58,622.21c-2.88.84-6,.55-8.56-.43-4.98-1.91-61.87-4.37-71.55-5.21l-15.32-1.33c8.37-2.48,17.09.16,25.85.03,9.41-.14,17.96,1.76,27.19,2.3,14.57.86,28.78.04,42.39,4.64Z"/>
                <path class="cls-175" d="M261.11,645.1c-2.59-2.72-5.87-.35-8.38-.96-2.17-.53-3.49-1.89-5.72-1.5-3.64.64-6.69-1.66-9.49-1.23l-6.88,1.04c-4.06.61-7.94-.91-12.51-1.42,1.64-3.8,4.5-1,6.77-.94l21.79.55,29.67,3.41c-.22,3.9-8.38-.5-15.24,1.05Z"/>
              </g>
            </g>
            <path class="cls-63" d="M256.34,654.17c3.93.74,8.09.1,11.96,2.15l-10.55.72c-11.35-4.93-28.84-.11-34.4-4.7,11.67-.99,22.32-.17,32.99,1.83Z"/>
          </g>
        </g>
        <g>
          <path class="cls-199" d="M274.41,232.16c1.75-4.51,5.49-.36,7.47,2.17l1.39-.03c.84-3.03,3.93.7,5.95,1.52,3.79,1.54,7.72,1.54,10.83,3.54,2.47,1.06,1.08,3.91-1.05,4.39.13,1.92-1.34,4.86-.51,6.81l3.71,8.83c2.15-1.63,2.23-1.39,2.32,1.27.05-.85.34-.78.82.04,2.3,1.75,3.24,7.6.48,9.25-1.57-2.05-2.77-4.35-5.37-4.1-6.71.64-7.05,14.4-4.84,22.13-3.78-3.52-7.63-3.27-11.23-4.89-6.45-2.91-12.12-2.89-18.53-1.26l-1.51-1.41c-1.02-6.79-2.1-13.45-3.24-19.97-1.51.33-1.87-1.19-1.13-2.53-2.5,1.33-2.94.26-1.31-3.21-1.99-.83-3.42-2.79-4.29-5.87-1.8-2.26-8.59-10.46-10.02-11.54-.66-.5-14.72-2.93-16.35-2.87-10.07.37-19.31,14.85-21.02,23.8l2.28,1.38c-.51,4.91-.95,10.05.94,14.74.62-.17.67.34.15,1.53,3.36-.18,6.91,5.07,4.94,8.21-.22,1.03-.56,1.04-1.03.06-.75,2.34-1.98,4.65-3.71,6.92.08,2.81-.69,4.73-2.31,5.77.22,3.03-.3,5.01-1.55,5.94-2.63-16.7-5.58-33.68-9.98-50.68-1.49-5.75-.03-9.66,3.36-13.83,19.71-24.27,39.8-4.94,40.27-17.97,10.84,7.97,21.97,15.76,35.4,17.54-.36-2.17-.88-4.21-1.35-5.69Z"/>
          <path class="cls-59" d="M375.34,438.74c-9.09,8.72-17.87,8.03-19.33,21.59l-2.52,23.37c-16.28,7.59-42.93,17.75-57.09,2.59-3.08-4.73-.73-11.46,2.85-15.38,1.99-2.19,3.38-3.04,5.12-.11,4.98,1.59,4.35-7.8,5.13-13.96.34-6.64,1.54-7.55,8.1-8.16,13.49-5.38,25.16-13.96,35-25.75l4.15-.5,4.42-9.01c4.48-6.3,8.09-2.59,10.84,11.1,2.65,4.86,3.76,9.59,3.33,14.21Z"/>
          <path class="cls-184" d="M375.34,438.74c-4.3-8.7-7.31-17.99-9.62-27.46-9.23,10.61-7.62,23.69-15.38,35.04-2.47,3.61-1.72,7.51-3.13,11.16-2.86,7.44-7.52,13.23-11.52,19.74l8.44-22.15c4.02-10.56,9.84-20.21,11.73-31.64-6.52,4.61-10.17,10.4-15.64,14.92-7.3,6.03-15.14,11.29-24.52,13.21-1.51.31-4.13-.12-4.68,1.36-.37,1-1.36,2.57-1.53,3.93-.21-7.23.03-14.11-1.57-22.32,7.21.72,12.09-1.83,17.06-5.64,17.22-13.22,39.29-39.12,53.14-57.45-1.4,22.17-.08,42.38,4.86,62.72-2.03,2.73-5.75,2.76-7.64,4.58Z"/>
          <path class="cls-105" d="M303.27,682.8l4.97.91c-.95.03-2.99-.34-3.66,1.14-1.28,2.79-2.15,6.09-.47,8.5,1.78-3.44.94-6.88,3.92-8.48.73,3.22-2.2,7.71,0,9.87,9.6,3.39,30.27,2.92,38.11,8.38.52,1.49-.25,4.44,1.02,6.48-4.76.91-32.23-.82-34.71-1.66-1.85-.63-4.19.59-6.57.84,3.83,3.76,8.84,4.87,13.67,7.32,17.38,8.8,33.98,9.1,52.21,11.5-2.33,3.15-4.81,1.66-7.11,2.92.39.87,1.04,2.43,1.75,3.46,6.94.68,13.64-1.24,20.7-1.81l26.3-2.1c4.92-8.58,8.45-29.68,2.26-37.69,13.97,1.69,12.01,39.31,4.17,49.37-34.08-6.09-33.96,10.35-76.03-.73-10.29-2.71-36.26-8.61-41.5-19.62,15.08,5.42,30.26,9.03,47.23,7.33-8.94-4-18.42-4.18-27.86-6.58-5.17-1.31-40.14-12.09-37.05-20.4,7.78-.05,14.65,3.08,22.36,3.61,13.4.93,26.23,2.76,39.23,2.64-12.24-7.43-24.62-6.1-36.95-7.62-11.45-1.41-22.13-4.52-33.23-6.73-2.67-.53-4.11-3.79-4.33-5.67-.3-2.6,1.1-4.62,3.56-5.33,1.74.21,2.42,1.38,2.05,3.52,2.23,2.07,3.85,1.1,4.86-2.92,3.22-1.14,5.35.7,6.4,5.52,3.48.57,6.87.83,10.17.77.46-4.18,1.98-6.42,4.56-6.73Z"/>
          <path class="cls-89" d="M301.09,189.79c6.54-1.13,13.08-1.21,19.62-.24l1.65,2.71c-7.24,1.03-32.53-3.59-32.72,6.76-7.99-3.84.86,9.64.4,12.92-3.32-2.33-4.51-5.77-5.95-9.2-1.3,1.46-.4,2.72-.54,3.68-.65-1.61-1.98-2.4-.53-5.32.47-.96-2.6-2.17-3.6-1.68-1.14.55-3.39,1.55-3.6,3.77-1.05,11.19,1.44,22.18,7.45,31.13l-.56,2.01c-2.72-1.33-5.19-4.3-8.3-4.16-5.32-8.22-9.69-18.53-7.73-28.92,1.38-7.27,26.69-20.62,33.25-29.85-4.09,8.49-10.93,13.69-17.95,19.68,7.44.56,13.39-1.09,19.11-3.29Z"/>
          <path class="cls-139" d="M322.36,192.26c-13.13-2.76-17.96.6-21.27-2.47,10.81-4.16,21.13-10.06,30.17-18,3.53-3.1,4.74-7.76,9-10.01-1.11,13.76-.66,24.51,4.65,37.14-7.89-4.03-14.98-5.07-22.54-6.66Z"/>
          <path class="cls-104" d="M304.37,470.79c-4.19-1.34-8.81,12.18-7.97,15.49-10.48-11.22-4.91-26.5,5.56-36.62-.34,3.55-.32,6.21-1.64,10.39,1.18-1.12,1.57-2.79,3.58-4.12.88,4.96.62,9.92.46,14.86Z"/>
          <path class="cls-2" d="M303.27,682.8c-.75,3.24-2.41,6.06-2.71,10.09-4.7-1.31-9.38-1.27-14.48-2.11-1.22-2.35-.22-4.62-1.87-6.73-1.69,1.93-.54,4-1.65,5.77-2.81-.12-5.02-.5-6.51-1.62-1.72-1.29-1.15-3.77-.8-5.56,6.03-1.76,22.57-.83,28.03.17Z"/>
          <path class="cls-61" d="M291.71,648.73c-.24,1.11-.35,2.24-.29,3.38,2.03,2.2,0,7.51-3.14,7.27-1.67-.23-3.63.86-4.96-1.13,2.39-.48,4.25-.91,3.78-3.11-.22-1.04-1.36-1.87-2.47-2.61,2.92-.86,4.97-1.51,4.58-3.72l2.5-.08Z"/>
          <path class="cls-149" d="M259.98,257.92l-.05,3.71c8.65,16.72,3.18,32.69-6.71,47.37-.54,2.87-1.73,5-3.58,6.4-8.62,2.44-8.02,6.37-21.84,10.5-7.57,2.27-9.32-5.61-13.81-5.25l-5.73-23.8c-1.34-5.55.46-9.9,6.02-12.69,6.18,11.03,19.99,13.12,30.62,7.19-.73-2.23.32-4.4,3.15-6.52l4.27-8.49c-.23-2.9.31-5.06,1.63-6.48l.04-4.78c-2,.19-3.14-3.89-1.01-4.66-1.26-3.22,2.57-5.97,5.69-5.71l1.31,3.21Z"/>
          <path class="cls-108" d="M298.96,311.02l-1.55,4.49c-2.22,1.36-5.04,1.23-8.47-.38-5.24-.43-10.48.73-15.73,3.47-5.87.92-19.69-.72-16.92-8.86-2.69-2.21-1.11-6.02,2.47-4.57,3.28-4.93,5.15-10.04,5.62-15.32-2.04-.92-1.2-3.95,1.19-3.53.23,1.2.79,2.21,2.08,2.34.63.06,2.05-1.03,2.84-.78,4.2,1.35,8.43,1.61,12.65,2.11,6.05.72,7.67,6.73,10.84,10.54,2.86,3.44,6.39,5.61,4.99,10.48Z"/>
          <path class="cls-143" d="M265.86,281.84c.09,1.23-.12,3.34-.29,4.49-.91.91-.69,2.51-1.19,3.53l.78,1.99c-1.86,4.57-3.99,9.01-6.4,13.33-1.56,1.24-1.39,3.28-2.47,4.57-2.2,2.64-1.85,6.27.47,9.67,3.96,5.81,10.64,8.13,18.07,9.03-5.29,3.1-10.19.59-14.93.12-4.06-4.03-9.61-6.88-10.25-13.16-1.35-13.13,18.11-17.86,12.24-45.54-.58-2.72-2.64-5.54-1.95-8.23-.54-1.05-.1-1.4,1.18-1.18,2.16,7.02,4.18,14.03,4.75,21.38Z"/>
          <g>
            <path class="cls-86" d="M360.99,640.22l6.03,1.24c4.58,1.14,8.17,4.44,11.45,8.55l27.15,33.99c2.75,3.45,7.21,5.53,10.01,8.37,7.19,4.31,6.02,14.53,5.01,21.84-.79,5.77-2.49,16.04-8.11,18.27l-44.05,3.97c-4.39-.82-7.02-3.08-4.97-7.47-9.17-.17-56.61-11.12-58.81-18.78-.43-1.5-.44-2.5,1.06-3.31,12.7.76,25.41,1.44,38.13,2.02,3.44.58,1.15-3.58,0-4.63-2.05-1.87-10.8-3.39-13.9-3.91-10.99.14-20.56-2.36-28.72-7.47.69-7.2,3.01-10.26,6.96-9.19l22.18,1.63c5.91.43,10.5-1.85,15.38-2.65l1.52-2.59c9.6.5,10.22-.28,1.88-2.34-9.39-7.09-20.9-10.46-32.27-13.1-4.09-.18,1.1-12.8,2.36-13.45,6.99-.34,13.89.7,20.7,3.14,6.66,1.04,13.17,3.03,19.89,3.69l5.88.98,1.18.06c17.4,1.83.6-6.81-5.83-10.12-1.66-1.74-7.41-9.95-3.39-8.6l3.27-.15Z"/>
            <g>
              <path class="cls-15" d="M289.21,648.81l1.2.52c-1.84,3.75-2.55,7.1-2.13,10.06l1.89-1.95,21.36,1.31,2.11-6.62c-6.83-.19-13.77.58-20.81,2.32l-1.41-2.33c-2.32-.26-1.62-2.84.29-3.38,16.32-.52,33.33-.42,48.29,5.63-7.36-1.15-16.66-4.18-19.1-1.45s-2.82,6.62-4.23,9.38c10.88,4.05,21.62,6.24,31.4,12.18,6.13,3.72,13.9,5.42,20.44,2.13,1.58-.26,4.55,2.89,3.66,4.13-7.04,6.85-11.91-.39-26.36,1.97,6.27-6.96-20.59-14.98-26.87-15.77l-37.34-4.72c-3.37-.43-4.79-3.38-4.68-5.92.29-6.45,6.93-7.31,12.3-7.48Z"/>
              <path class="cls-33" d="M357.72,640.38c-2.05.22-.9,1.48.89,1.32,3.17,9.17,18.9,11.02,16.73,16.72-1.11,2.91-6.62,2.68-8.39.67l7.22-.17c-6.76-11.11-12.56,4.34-19.54-19.33,2.12-.87,2.44.43,3.1.79Z"/>
              <path class="cls-33" d="M365.77,659.03c-1.94-.09-4.61.86-5.88-.98,1.91.19,4.88-1.18,5.88.98Z"/>
              <path class="cls-33" d="M367.02,641.47c-2.01-.04-4.78.67-6.03-1.24,2.41-.11,4.12.77,6.03,1.24Z"/>
              <path class="cls-141" d="M371.45,708c-6.02,1.29-12.31.2-17.55-3.92l17.55,3.92Z"/>
              <path class="cls-185" d="M370.09,722.59c-4.15,2.66-8.09,1.22-11.51-.79,3.92-.22,7.11-1.55,11.51.79Z"/>
            </g>
          </g>
          <g>
            <path class="cls-30" d="M276.77,408.6c1-1.29,1.99-4.59,4.37-4.78,19.35-1.54,26.69,7.4,40.27-3.18s26.27-22.7,37.71-36.12c15.62-18.32,23.91-37.2,23.44-60.55-2.11-.68-2.52-1.67-2.09-3.6-7.33,2.05-14.89,2.11-21.97-.86-8.8,5.55-14.54-5.58-7.22-11.04,2.41-1.8,4.82-2.97,6.35.2l2.4.12.68-2.48c1.52.37,1.51-1.37-.03-5.21,4.79-3.85,10.65-6.19,17.6-7,3.49-14.45,2.38-32.86-8.23-44.08l.27-2.72c-2.33-10.53-17.15-15.88-12.16-27.11,4.84,11.96,13.43,21.22,24.33,28.23,2.78,1.79,2.66,5.26,3.66,8.06,6.26,17.52,3.77,35.02-6.93,51.65,8.1-1.28,13.73-6.14,20.2-9.64.55,2.87-1.32,4.97-1.68,8.3,6.01-2.67,9.29-7.59,11.76-13.01l11.55-25.24c1.89-4.13,9.2-5.91,13.28-7.53,7.1-2.82,14.09.41,17.93,7.23,7.31,12.98,7.43,30.8-.8,43.96-6.7,10.71-17.35,18.75-28.62,24.08-7.91,3.74-17.65.8-24.89-1.63-3.52,10.56-4.74,22.16-11.62,31.32-17.23,22.96-38.65,42.25-62.36,58.26-12.69,8.57-27.15,10.74-41.55,7.9-2.74-.54-3.94-2.84-5.64-3.54Z"/>
            <path class="cls-176" d="M441.48,257.34c2.77,1.3,4.34,3.76,4.73,7.4l2.89.67c1.04,4.23,1.49,8.46,1.37,12.69-.34,1.58-.79,3.02-1.68,4.8-.77,1.54-2.96.29-4.48,1.15-12.3,6.92-10.36-2.51-15.01,3.59-1.79-.79-2.63-2.58-2.52-5.38l-3.26-5.02c-10.09-3.19,3.98-18.14,9.26-20.75,3.18-1.57,9.21-4.11,8.7.84Z"/>
            <path class="cls-28" d="M447.78,258.3c-.03,4.86-4.64,1.9-6.3-.96-5.54-5.99-17.62,11.36-20.49,15.69,6.81,2.87,9.29,8.68,8.3,14.62-1.47,8.83-9.01,16.86-19.44,16.25,7.34-4.79,13.96-9.5,12.74-18.28-.32-2.35-2.28-4.22-3.72-4.77-3.25-1.25-9.99,3.91-8.03-.11,5.37-10.99,13.84-25.64,26.43-27.65,5.7-.91,8.08,1.92,10.51,5.22Z"/>
            <path class="cls-82" d="M447.78,258.3c4.09,5.57,4.15,12.97,2.69,19.8-6.17.21,2.94-1.14-3.13-11.92-1.65,2.42.79,15.53-2.28,14.19-.53-.23-.65-1.34-.43-2.28,1.77-7.4-1.2-14.19-3.15-20.75,2.11-.47,4.29,1.93,6.3.96Z"/>
            <path class="cls-62" d="M360.02,288.79c-.67,2.25-2.27,5.24-5.09,5.45.81-2.99,2.87-3.7,2.68-5.57l2.4.12Z"/>
          </g>
          <path class="cls-46" d="M333.85,245.21l.23,1.62c-3.4,1.03-7.24,5.53-6.02,8.93,2.53-4.79,7.9-2.55,6.83,2.29-.64,2.87-4.07,4.09-5.44,1.11-6.14,5.57,2.97,15,10.56,13.11,10.6-2.63,7.09-14.6,4.4-21.52-.28-.73.37-1.49,1.16-2.06,1.8-1.98,2.98-1.6,5.09-.7,9.83,4.17,12.04,16.1,5.9,24.27.14.28-.14.74-.07,1.04-7.63,12.08-29.5,14.55-41.28,7.35-4.33-1.42-8.7-6.59-9.38-10.68-.5-3.06-2.07-6.48-.48-9.25,1.62-8.58,9.17-15.05,17.5-17.35,3.53-.98,10.08-2.51,10.99,1.85Z"/>
          <path class="cls-195" d="M361.36,258.29c2.28,4.78-.54,11.75-4.8,13.96-1.77-3.59,2.51-7.59,2.05-11.58-.91-7.9-7.66-10.33-13.03-11.99-1.33,1.31-9.01-.9-10.93-1.84-.43-.21-.64-.86-.79-1.63-11.47-2.42-22.6,5.25-28.49,15.5l-.82-.04c1.53-10.48,8.54-18.99,19.75-21.66,15.35-3.65,30.45,5.4,37.08,19.27Z"/>
          <g>
            <path class="cls-166" d="M283.56,206.42c1.35,3.33,2.87,6.94,5.02,8.78,7.16,6.11,25.44-4.21,44.2-2.3,13.18,1.35,26.48,10.76,37.52,14.39,11.3,7.4,15.28,35.21,9.53,48.38-5.78,2.52-11.99,2.6-17.32,5.93,1.06,1.93,1.97,3.72,1.7,4.9-.46,1.98-2.98,2.05-4.18,2.28-1.14,1.83-2.18,2.18-2.4-.12-2.24-.11-4.82,1.2-6.15,2.8-1.47,1.76-1.69,5.68.67,6.98,2,1.1,4.42-1.15,6.62-1.4,7.5,3.32,15.75,3.23,23.16.05,1.54,2.52.59,4.75.63,6.86-3.81.77-3.05,7.06-4.92,8.99-1.74,1.79-5.37-9.68-16.34-6.7-5.66,1.54-11.36-.72-16.87.03l-9.1,1.23c-4.55.62-9.77-2.39-14.31-.13-2.76,1.37-5.19,2.95-8.37,2.11-6.05-1.59-8.77-12.86-11.28-5.52l-2.4,7.04c-4.11-5.93-8.61-11.85-13.49-17.77-5.02-1.08-10.12-2.09-15.3-3.01-3.1,1.62-5.56-.43-4.6-3.91-2.2-.6-1.84-4.03.29-4.49l1.43-2.74c8.27-1.09,16.6.18,24.99,3.81-.46-5.2-.47-13.25,3.45-17.13,5.21-5.15,8.59-1.45,10.11,4.19.55-.08,1.09-.11,1.59.02s6.46,7.03,6.96,7.71c.62.85.74,1.93.82,2.94.48.88-.05,1.02-1.59.43,13.06,5.46,34.35,5.51,42.87-7.78-1.02-.29-.97-.64.07-1.04l3.19-7.12c.2-2.65.74-4.93,1.6-6.84-.39-1.69.21-3.63,1.78-5.83-13.36-25.09-56.89-27.46-59.58,5.9l-1.35,1.04c-2.95,1.36-5.92-6.78-6.2-9.1-.33-2.74-.12-6.28,3-6.53.95-1.74,2.72-3.42,4.74-3.79,6.29-7.66,13.86-12.07,22.69-13.2l.52-1.59c-9.05-.1-16.81,3.75-24.49,7.72,1.66,2.57,1.18,6.67-2.41,6.48-4.56,2.61-12.84-1.44-16.78-5.06-11.56-1.79-14.32-45-.69-36.79,3.11,1.87,3.18,4.43.45,5.82l.53,3.08Z"/>
            <g>
              <path class="cls-69" d="M361.36,258.29l-1.78-.21c-13.55-23.08-44.67-24.12-55.05,2.6-.92-.04-1.94-.37-2.32-1.27-1.07-11.01,4.38-21.44,15.75-25.88,17.34-6.77,38.23,1.3,47.2,17.79,1.27,2.33-2.15,6.75-3.8,6.98Z"/>
              <path class="cls-193" d="M326.96,225.17l.52,1.4c-9.32.98-17.23,5.44-23.73,13.39-.4,1.06-.5,2.41-1.55,3.33-.71.62-2.13.43-3.19.46-.08-1.18.38-3.42,1.05-4.39,1.36-1.95.84-4.42.41-7.24,7.02-5.87,17.46-9.03,26.49-6.95Z"/>
              <path class="cls-45" d="M315.22,280.64c14.08,4.61,30.7,3.14,41.28-7.35.38.23.77.53.78.87.01.45-.17,1.23-.66,1.8-10.19,11.7-32.9,13.14-43.84,4.74l2.45-.06Z"/>
              <path class="cls-144" d="M303.75,239.97c4.68-5.53,9.92-11.19,17.56-13.45,2.02-.6,4.86.66,5.66-1.34,5.95,1.37,12.64.64,17.78,4.85-12.7-3.75-25.54-4.22-35.04,5.02-1.97,1.92-3.22,4.62-5.95,4.92Z"/>
              <path class="cls-177" d="M338.76,299.38c.55-4.42,3.76-6.93,6.84-9.07-1.22,4.48-4.44,6.09-6.84,9.07Z"/>
            </g>
          </g>
          <path class="cls-29" d="M258.67,254.71c-1.15,2.5-3.53,4.09-5.69,5.71l-1.83-.24c-9.26-16.88-32.14-21.23-41.32-2.15l-2.83.2c-.4-2.78-1.81-4.79.4-8.19l5.96-9.18c4.45-6.86,13.08-10.81,21.16-7.77,3.92,1.48,8.06,1.17,11.72,2.24,3.12,7.82,11.89,9.24,12.43,19.37Z"/>
          <path class="cls-34" d="M234.02,257.7l.94,2.65c-4.78,6.67-4.01,16.63,3.5,20.85l.33,2.76c2.59,5.96-8.08,7.27-12.95,6.06-2.46-.61-4.88-1.33-7.11-2.62-1.71,1.93-4.53-1.21-3.4-3.31-1.46-2.83-4.14-5.09-4.94-8.21,1.5-13.16,8.19-24.81,23-20.94l.65,2.76Z"/>
          <path class="cls-19" d="M252.99,260.42c.62,1.4.28,3.28,1.01,4.66.98,1.79.83,3.45-1.23,2.43-1.57.09-1.87-.76-1.07-2.12-13.23-20.96-38.14-16.24-41.47,8.97-5.77-2.72-3.03-14.75-3.22-16.13,3.82-6.74,8.09-13.05,16.32-14.53,13.8-2.47,24.39,4.77,29.66,16.72Z"/>
          <path class="cls-159" d="M251.7,265.39c.67,2,.61,2.3-1.23,1.12l-2.51.31c-1.59-4.69-4.37-7.54-8.36-8.56-2.42.77-4.28.58-5.57-.56-7.74-3.38-16.13.66-19.99,8.54-1.65,3.37-1.49,7.08-3.66,9.64-.09-.37-.24-1.16-.15-1.53.73-8.6,2.93-20.92,13.92-23.72,11.75-3,23.64,3.97,27.55,14.76Z"/>
          <path class="cls-79" d="M218.72,287.4c7.51,3.74,15.95,4.04,24.02,2.05l2.16,1.89c-8.25,7.38-20.81,6.44-29.75-2.94-.96-1.01-1.82-2.91-.87-4.25.28-.14.72.03,1.03-.06.85,1.64,2.26,2.09,3.4,3.31Z"/>
          <path class="cls-29" d="M261.11,260.45c-.43.35-.83.74-1.18,1.18-.42-.51-1.19-1.14-1.16-1.84.04-.9.24-1.81,1.2-1.87.36.88.84,1.59,1.13,2.53Z"/>
          <path class="cls-178" d="M288.28,659.38c.63-2.58,1.41-5.21,3.14-7.27,9.9.08,12.01-4.51,26.17-1.72-2.4,3.93-3.55,6.83-4.17,11.16-8.84-2.11-19.05-.3-25.14-2.16Z"/>
          <path class="cls-84" d="M252.77,267.51c1.84-.22,1.97.74,1.19,2.35,2.02,9.93-2.47,15.59-9.06,21.49-9.15,2.37-19.52,3.17-26.18-3.94,5.87.47,15.69,2.93,20.06-3.44l.65-1.49c8.16-1.38,9.74-6.75,8.9-14.18l2.13-1.78,1.23-1.12c.27.73.75,1.41,1.07,2.12Z"/>
          <path class="cls-29" d="M253.96,269.86c-.3-.83-.84-1.55-1.19-2.35,1.1-.26,1.35-1.43,1.23-2.43.36.68,1.25,1.04,1.31,1.94.08,1.19-.49,2.16-1.35,2.83Z"/>
          <g>
            <path class="cls-199" d="M382.55,303.96c4.41,6.68,1.2,18.42-1.09,26.12-7.5,25.23-27.58,45.03-46.62,62.48-15.67,14.36-23.6,18.56-43.61,13.69-6.1-1.42-10-.65-11.7,2.32l-2.77.02c-4.41-1.82-19.42-13.22-20.24-15.25-9.29-8.47-18.02-17.46-26.19-26.97-6.67-9.99-16.95-29.6-17.66-41.27-.1-1.6.55-3.09,1.31-4.45,1.67-2.69,4.65-1.78,8.94,2.73,7.17.13,13.99-2.52,20.45-7.95,2.87-2.11,4.96-2.12,6.26-.04l2.5.78c1.66,4.01,4.45,7.3,8.37,9.89l-.62,2.49c15.47,11.46,25.45.13,34.78-12.57l2.73-.48c-3.25-1.13-1.82-4.82,1.55-4.49-.48-11.88,3.62-16.17,11.98-5.17,2.94,2.13,6.62,1.7,11.04-1.3,14.49.34,28.96-.14,43.38-1.13,4.27.5,8.04,2.4,11.31,5.7.72-3.4,2.32-8.58,5.88-5.15Z"/>
            <path class="cls-97" d="M214,320.65c14.12,58.62,36.75,58.29,42.53,72.69-21.8-16.13-41.29-36.93-46.46-65.27-1.59-8.7-3.5-16.93-3.35-25.28.03-1.98.06-4.62,1.55-5.94.92-.1,2.3-.15,2.53.47.73,1.98,5.37,20.08,5.09,21.13s-1.04,1.68-1.89,2.2Z"/>
            <path class="cls-70" d="M304.17,384.07c2.42,3.94-20.89,5.89-20.85-.47,7.06,2.68,12.21,2.14,20.85.47Z"/>
            <g>
              <path class="cls-90" d="M293.57,375.13c-22.47,2.72-25.62-6.25-38.46-20.54-1.68-4.58-6.34-3.68-9.72-8.36,21.32,3.15,41.56-.95,60.92-9.77,12.06-5.5,24.13-9.95,34.62-19.29-1.41-1.63-3.81-.25-5.96-1.93,6.18-5.29,15.17-4.08,20.45,3.11-2.42.9-3.63-1.01-6.18-.82-5.94,29.13-24.3,53.8-55.67,57.6Z"/>
              <path class="cls-73" d="M330.68,339.01c-2.36,4.57-12.09,7.23-13.13,10.81l.54,1.35c3.55-1.16,7.02-2.57,10.41-4.25,1.08.6,1.3,1.57.84,2.82-17.28,25.54-57.47,24.73-54.96,15.3.69-2.61,2.22-3.18,5.84-3.56-2.75-6.14-13.2-1.49-14.34-8.1l.77-1.55c19.19-1.57,36.83-6.85,52.9-15.83,5.44-2.26,10.06-6.62,15.85-8.19,1.86-1.14,2.69-.46,1.82,1.66-1.46,3.56-3.8,6.84-6.54,9.52Z"/>
              <path class="cls-107" d="M319.55,336.01c-4.17,10.05-43.41,15.88-53.67,17.37-.54-.56-2.13-1.39-1.51-2.75,19.32-1.66,37.6-7.33,55.18-14.62Z"/>
              <path class="cls-87" d="M329.34,349.75c-.54-3.15-11.79,6.9-15.67,1.17,1.43-1.51,2.69-.68,3.88-1.09,6.3-2.17,12.41-5.74,18.47-10.31-.42,4.32-4.43,6.91-6.68,10.23Z"/>
              <path class="cls-156" d="M330.68,339.01c-.6,1.16,7.51-14.77,4.72-11.19,1.34-.36,2.05-3.13,5.06-2.46-1.08,5.62-4.6,11.13-9.78,13.65Z"/>
            </g>
          </g>
          <path class="cls-39" d="M258.76,305.17c1.23-5.28,3.21-10.46,5.62-15.32.17,1.42.98,2.05,2.89,2.46-3.24,4.55-4.58,9.73-8.51,12.85Z"/>
          <g>
            <path class="cls-12" d="M297.41,315.51c-2.01,5.81-7.31,9.48-11.78,14.09-3.78,3.89-7.99,6.3-13.19,6.4s-8.98-3.91-12.54-7.44l2.06-1.71c-6.19-2.67-14.65-14.61-5.67-17.1-.53,3.19,2.23,3.85,4.6,4.83,18.05,7.5,15.4-8.51,36.52.94Z"/>
            <path class="cls-110" d="M292.56,319.11c-5.02.18-7.97,2.93-13.38,4.28,1.46-5.86,8.46-7.99,13.38-4.28Z"/>
          </g>
          <path class="cls-99" d="M329.46,259.15c.83-.48,2.92-.22,3.25-1.65.27-1.17-.35-2.25-1.55-2.35-.89-.08-1.93.45-3.09.6,1.2-14.36,18.1-10.45,19.34,4.05,1.41,16.57-20.03,16.17-20.15,2.12-.02-1.85.04-2.89,2.2-2.78Z"/>
          <path class="cls-186" d="M345.58,248.68c2.99,6.5,5.11,13.94.63,20.64-2.88,4.3-8.53,5.35-13.23,3.34-6.77-2.9-8.47-13.05-6.39-14.38.71-.45,1.88.57,2.88.87-1.51,2.9-.63,6.97,1.84,9.34,2.66,2.54,6.61,4.29,10.44,1.73,4.22-2.82,5.01-8.3,3.89-13.71-.75-3.63-5.23-8.5-10.4-8.38-4.54.1-5.75,4.46-7.16,7.63-.37.05-1.25-.09-1.54-.43.34-4.67,3.52-8.2,7.33-10.12,4.22.89,7.64,2.22,11.72,3.48Z"/>
          <g>
            <path class="cls-14" d="M250.46,266.51c.47,2.98.59,6.56-.18,9.81-1.37,5.76-6.36,8.44-11.5,7.65-5.29-2.24-8.23-6.63-8.98-11.86-.79-5.5.92-10.39,4.22-14.41,4.41-3.37,10.59-1.87,13.57,3.57l2.87,5.23Z"/>
            <path class="cls-182" d="M247.67,272.35c.28,1.83.01,4.26-1.09,6.16-1.02,1.76-3.66,3.98-6.6,2.85-3.67-1.4-6.54-6.1-5.67-10.13,2.68.65,3.02,3.8,5.31,5.01,2.79,1.47,5.05-.28,8.05-3.89Z"/>
            <path class="cls-160" d="M233.68,264.85c1-.74,2.43-.34,3.01.39.94,1.17.41,2.4-.42,3.7s-2.36.47-3.35-.8c-.59-.76-.62-2.27.75-3.28Z"/>
          </g>
        </g>
        <g>
          <path class="cls-42" d="M448.29,683.49c5.16-4.05,13.89,3.96,17.74,8.16,14.49,15.83,19.09,40.78,14.34,61.14,12.82,10.23,16.99,12.61,31.1,3.89,8.63-7.85,18.11-12.89,28.43-15.12l3.91.42c9.96,4.73,31.72,13.57,26.64-6.34,5.82-12.85,3.96-25.61-3.39-37.51-4.19-6.78-7.58-5.58-.75,1.37,2.93,3.58,3.03,6.11.29,7.58-13.23-11.29-12.23-17.38-29.53-29.76-6.35-4.54-13.83-2.63-21.14-3.61,25.94-9.63,36.04,4.37,47.52,6.81l1.26-1.27c-7.41-13.56-13.08-27.62-17-42.17-5.62-8.31-10.04-17.17-13.26-26.57-2.14-3.14-3.13-6.16-2.96-9.07.46-3.12,1.55-2.95,2.39.06,7.53,3.83,15.19,6.14,22.56-1.71,2.32,8.29,5.28,15.6,8.29,23.58l22.27,58.95c4.99,13.21,8.79,26.13,10.29,40.28,2.08,19.68-10.62,41.54-23,55.54-4.15,4.69-9.23,7.47-15.54,8.2-18.55,2.15-36.69,2.71-55.4.48,6.92-3.99,21.83-5.21,27.22-12.55l-17.54,7.31c-9.27,3.87-19.46,4.87-29.67,6.5-21.78,3.47-37.12-.21-46.93-20.06,3.29-1.88,6.97-.98,9.52-2.88,12.02-8.94,16.94-22.88,18.2-37.31,1.25-14.39-2.15-27.7-12.47-38.33-1.68-1.73-3.29-3.76-3.37-6.01Z"/>
          <path class="cls-155" d="M509.03,530.66c-7,5.16-10.2,13.74-9.9,22.51.13,3.87,1.24,6.58,1.76,9.51l2.87,2.24c1.78,15.34,13.63,25.71,26.35,33.17l1.38,3.37c5.15,3.99,9.2,20.86,10.97,22.97,5.27,6.25,8.56,12.07,9.55,20.37.86,7.25,14.91,29.59,15.82,37.87-3,.1-3.16-1.88-4.39-2.14-1.57-.99-3.11-2.23-3.91-3.95-4.62-4.64-9.91-8.55-15.45-12.04-16.93-10.66-26.3-15.53-44.34-4.45-11.09,3.25-13.37,2.86-6.98-8.27,3.67-12.04,7.03-24.37,10.06-36.97-7.09,9.51-13.9,19.26-20.43,29.25-4.85,2.71-10.42-7.8-8.19-11.99-2.03.41-2.87-1.08-1.18-2.37l-3.43-1.65c-2.34-3.2-12.15-20.18-13.14-23.35-.18-.59-.15-1.25-.05-1.93l-3.09-1.26c-7.49-35.51,5.59-79.22,37.47-99.44,4.11,4.38,7.7,9.32,10.75,14.8l7.96,10.59-.47,3.18Z"/>
          <path class="cls-163" d="M205.88,834.17c-2.12,10.04-4.03,20.12-5.72,30.24l-2.49.57c-13.1-9.42-26.17-19.04-39.19-28.85l-2.32.54c-4.08-2.81-3.14-14.23-2.07-19.1l2.77-6.93c13.46-18.09,27.3-35.8,40.17-55.1-1.26-5.52-4.36-10-8.74-13.16l-15.35,17.87-.79-1.86c11.44-36.23,18.43-74.93,18.49-112.46l2.71-26.96,33.2,82.91c.23,9.4-3.28,19.3-4.69,28.58l-5.48,35.99c-2.39,15.68-4.36,30.93-6.98,46.63l-3.52,21.07Z"/>
          <path class="cls-17" d="M397.45,937.57l-2.29-1.15c-1.18-6.39-3.07-12.58-5.67-18.58-12.22-1.22-24.29-3.28-36.21-6.19,1.28-.37.74-.27-1.62.29.02,1.49-.44,1.86-1.38,1.12-3.27-.01-4.95-6.67-3.53-9.36,1.33-.71,1.38-1.85.15-3.42-.91-1.95-.04-2.44,1.58-.9,3.24-.88.66-4.83.95-7.4l2.75-.6c1.38,3.43,3.37,6.02,5.97,7.79,12.77-2.05,24.5-6.22,35.2-12.49,14.35-4.81,29.86-10.52,40.91-21.23,5.59-5.42,7.98-10.92,9.33-18.26l1.29-1.93c2.6.08,10.05-8.49,9.63-9.03-5.26-6.87-11.11-13.76-17.02-20.09-14.15-13.66-27.95-27.85-39.89-43.14-3.57,2.55-7.5,4.08-11.78,4.61.78,3.26.7,5.98-.25,8.16l-2.84,1.28c-14.26.07-29.58-3.5-42.84-6.81.23-6.89-.22-13.56-.54-21.88,47.39,6.44,16.8-2.34,51.77-6.06,3.89,4.8,6.22,10.81,11.48,12.35l14.69,4.31c4.53,1.33,16.55,30.16,41.31,38.21,7.91,2.57,15.78,3.99,24.21,5.63l7.44,25.21c5.84,19.77-14.52,32.79-29.45,40.93-14.24,7.77-29.34,11.62-45.19,15.72-20.15,5.21-40.23,6.8-60.87,8.37,12.45,4.38,24.56,2.54,37.02,1.98,2.12-.09,2.1,1.42,2.55,3.5,1.09-1.04.95-2.27,1.82-4.09,7.49-.35,14.57-2.41,22.25-3.9l5.13,31.92c-9.15,3.16-17.68,3.46-26.07,5.14Z"/>
          <path class="cls-37" d="M472.5,500.29c-11.87,10.39-17.61,25.87-22.02,41.08l-3.35,7.5c-2.69,12.49-3.7,25.33-3.04,38.52-.76.85-1.75,1.14-2.92.97-3.84-6.76-11.14-24.64-12.16-32.79-2.51-3.42-3.38-.78-2.59,7.92,1.1,3.69.96,6.55-.44,8.59,1.41,8.46-1.04,11.71-7.37,9.75-5.23,3.57-7.91,3.45-8.06-.35l-1.44.04c-9.61-13.34-16.62-10.59-24.2,2.32-2.62,1.4-5.58,2.17-8.88,2.32-4.35,3.23-5.61,8.04-3.77,14.45l-.82,2.07c-.15,2.81-2.62,4.61-7.41,5.41-1.71,2.95-10.2,15.4-12.76,15.6-1.08.08-2.05-.28-2.91-.91-.14-.32-.02-.92-.26-1.15-1.51-3.08-.08-6.75,1.22-9.56-.33-.32-.59-.63-.59-.95,0-3.33.15-6.44.6-9.75,1.03-7.52,8.04-46.58,11.96-48.91,2.04-1.21,3.11-.6,4.35,1.29,10.73-30.01,30.26-48.51,57.75-64.17,8.78-5,15.28-6.14,24.95-3.63,3.15.82,25.04,9.48,25.49,10.8.43,1.16,0,2.34-1.31,3.55Z"/>
          <path class="cls-25" d="M517.4,699.18c1.88,1.21,4.18,1.98,6.11,2.01-6.97-7.25-15.47-11.24-23.94-17.59,12.21-2.19,24.04-3.64,35.37,1.74,13.99,6.65,25.07,16.85,33.9,29.15,1.78-3.46-1.09-5.28-2.24-7.41.72-5.73-9.26-12.87-10.47-18.78,5.07,2.06,10.77,4.62,13.28,9.19,5.5,10.03,9.17,21.28,5.58,32.12-1.22,3.7-3.21,5.52-1.7,10.11,1.52,4.62-2.35,10.71-6.85,10.52-6.93-.29-12.67-.4-18.4-3.96-20.92-12.99-40.16,32.75-61.8,13.45-2.42-2.16-8.81-3.9-8.24-7.75l1.82-12.46c2.06-14.11-8.18-51.36-31.53-56.02-1.95-.39-3.08-.13-3.86-.83,2.53-5.6,13.22-9.22,17.46-2.81,18.77,4.17,36.66,11.48,53.66,21.91-.19-1.08.42-1.95,1.85-2.59Z"/>
          <path class="cls-121" d="M385.57,785.76l3.22.31c25.46,29.22,38.19,43.84,38.19,43.84l-.04,3.36c1.42,2.42-.46,3.33-5.66,2.72-2.54.5-3.18,2.14-2.37,4.86,4.22,6.08,7.38,10.82-2.06,13.47-1.22,6.1-3.98,8.85-8.26,8.23,2.67,8.65-8.82,16.07-12.73,7.21-11.62,11.79-29.64,16.39-45.9,12.38-3.75-15.64-6.26-31.58-7.55-47.82.1-16.63-3.21-33.24-2.52-54.09,1.3-1.17,3.37-1.73,5.58-1.16,13.54,3.48,26.77,5.32,40.1,6.7Z"/>
          <path class="cls-132" d="M185.6,627.25c-3.15,22.97-7.28,45.74-12.05,68.93-1.26,6.14-2.07,11.48-6.15,16.25-6.21,7.26-12.23,14.07-19.42,20.6-24.44,22.21-37.87,31.15-72.27,22.91-5.52-1.32-9.22-5.91-12.12-9.92l2.12-1.59c4.41,1.83,11.2,3.42,15.67,1.36,5.59-2.57,19.08-10.36,21.78-15.62,2.03-3.95,7.43-40.28,6.51-42.21-4.63,1.03-14.4,1.53-10.5-4.98.4-2.27,1.34-2.3,1.88-.06,1.52-.39,1.87-1.26,1.06-2.6-.57,1.08-1.23,1.33-2.21,1.04-5.19-1.56-16.49-5.56-14.14-11.82-2.56-2.22-8.15-7.09-4.54-9.07l9.85,7.65c15.94,12.37,39,11.19,54.41-2.32,4-3.51,3.35-9.06,5.08-13.86,4.62,11.64,3.29,37.61-3.09,48.64l-13.31,23,11.7-10.2-9.15,20.73c9.83-8.06,14.16-18.67,19.3-29.43,1.1,5.38.2,9.71-.13,13.92,8.95-18.51,1.94-22.91,4.26-37.18,2.15-13.23-.02-25.94-5.48-38-1.19-2.62,1.24-4.64,1.89-6.5,3.3-.68,6.71.94,10.26,4.84,2.77-6.29,6.06-12.28,9.89-17.97l4.15-.79c1.81,1.5,3.4,2.92,4.77,4.26Z"/>
          <path class="cls-112" d="M436.33,675.29c-2.83,1.47-4.61,5.89-9.47,3.66-5.1-2.34-10.81-1.68-16.28.67l-23.37-29.91c-8.53-10.92-20.09-16.94-34.22-17.26-2.54-3.03-3.27-6.58-4.63-9.67,6.16-3.59,9.78-10.26,14.23-16.46l8.86-3.64c.54-2.1,1-4.07,1.39-5.9,2.96-3.38,5.76,7.54,3.62,9.31,8.98,7.58,17.16,6.88,27.32,2.81l.89,2.03c3.61-.83,4.38,1.7,1.17,3.6,2.01,4.33,5.48,3.15,10.42-3.56-2.34-1.3-1.92-2.88,1.26-4.75-1.82-1.13-2.46-2.14-.14-2.58,2.4-1.69,4.03-.56,4.89,3.4,1.44-1.18,1.51-3.05.21-5.6,1.31-8.15.71-10.49-1.82-7,2.12,3.29-.13,7.67-3.28,9.2-5.23,2.31-7.51-7.03-8.08-11.47-2.09-.46-1.13-2.4-.1-3.81-1.42-1.16-.16-6.1,1.37-6.87,2.81,1.85,4.49-.81,7.13-1.81,2.16-.82,5.78,1.87,7.31-1.24.98-2,.63-4.47.99-6.35,1.67-.25,2.6.87,2.79,3.38l9.04,57.83c-.83,13.29-.71,26.53.38,39.72l-1.86,2.27Z"/>
          <path class="cls-53" d="M351.74,497.92l-2.01,4.83c-11.11,5.48-22.14,10.53-34.69,11.29-2.14.75-2.48,1.68-1.01,2.81.4-.5.81-.92,1.29-1,6.11-1.07,14.8-2.58,20.78-3.17.46-.05.97.38,1.5.95,2.75,1.42,2.11,4.35-1.93,8.81.84,4.09.16,8.31-2.05,12.66,4.26-1.52,6.99-1.59,6.12,3.46-2.67,13.36-5.24,26.69-7.7,39.98-.97,1.03-1.91.46-2.82-1.73-1.46-3.22-1.94-8.53-5.43-10.6-4-2.37-9.42-.14-13.68-1.96-1.64-4.28-3.71-8.88-8.31-10.73-5.01-2.01-8.99,1.85-12.06,5.86-1.91-3.12-3.48-5.99-6.28-6.92s-5.25-.46-6.9,1.78c-.77.03-1.56-.02-2.32.1-.46-.91-.87-1.83-1.13-2.79-1.35-4.97,6.28-41.27,9.14-46.86,1.47-2.88,2.06-3.55,4.98-2.84-3.49-4-6.28-14.6-.33-16.61,14.01,23.7,44.76,16.41,65.48,5.9.6,2.69-.45,4.69-.62,6.77Z"/>
          <path class="cls-118" d="M217.41,818.93c-3.69,22.88-5.93,45.69-8.31,69.34-1.34,13.38-2.59,26.85-5.97,39.27-1.41.81-5.55-.24-5.47-1.68.67-12.24,4.78-23.39,4.14-35.27l-7.23,35.16c-14.68-4.96-26.75-12.67-37.82-22.31,0-10.75,1.75-20.8,4.77-30.67l13.79,8.92c-.79,3.44-8.01,32.54-2.74,30.92.86-10.75,2.02-20.11,4.18-29.65,6.77,1.63,14.91,8.32,22.04,4.55-14.9-7.05-27.86-14.85-39.53-25.31-3.19-2.86-3.58-5.91-5.15-8.85l1.84-1.69-1.9-12.6,2.11-2.37c.28-.99-.29-2.78,1.71-3.92l26.37,19.56,10.08,7.62c1.43,1.08,2.11,2.93,3.88,2.79,5.41-.44,1.86-23.76,7.68-28.55-.58,3.46-7.85,53.61-2.52,53.19.34-14.05,2.42-26.95,4.39-40.6l5.04-34.88c2.32-.66,3.94,9.69,3.49,9.4-1.93-1.22-1.3-3.07,1.14-2.35Z"/>
          <path class="cls-85" d="M99.18,682.98c1.41,6.12,8.73,1.88,12.68,2.27.68,7.01-.44,13.75-1.64,20.6l-4.09,23.19c-.48,2.7-4.56,7.56-6.84,9.19-5.96,2.35-10.3,5.91-15.81,9.14-5.37,3.15-14.52,1.44-19.88-1.35-8.18-4.25-12.07-13.66-16.44-21.14l-2.25-8.6,1.92-1.81c-.11-2.54.58-4.43,2.05-5.68,16.9-4.22,36.75-11.34,43.49-28.97,2.37-1.08,7.25.25,6.81,3.17Z"/>
          <path class="cls-124" d="M384.45,496.57c-.75-1.43-.49-3.28.77-4.8l6.43-7.75c2.48-2.99,4.11-6.22,7.05-8.28,1.33.29,1.73-.62,1.33-1.31-.4-5.55,12.44-13.31,7.19-20,2.93-7.09,8.59-12.32,12.01-19.23l16.78-33.9c.92-1.86,1.91-3.91.68-5.53-.83-1.1-4.32-1.96-5.07-.36-1.19,2.55-.96,5.47-3.54,6.53l-.4-1.01c-3.11.88-5-4.7-5.37-7.41-1.25-.72-2.29-1.95-3.63-2.52-3.14-1.59-2.15-6.48,1.18-7.11,7.53,1.75,14.91,5.55,21.3,10.39,10.18,7.71,2.97,17.91,3.85,31.56,8.36,5.63,15.47,11.84,20.27,20.88.75,1.41,1.44,4.95-.54,5.47-23.17,6.01-43.37,17.53-62.57,31.51l-17.72,12.9Z"/>
          <path class="cls-117" d="M444.68,468.57c1.89-.38,2.63.03,2.22,1.25,6.86,2.83,13.92,5.83,21.17,8.99,1.57-2.89,2.79-2.03,2.35,1.24,3.63,4.17,10.07,4.56,14.04,9.77l-11.97,10.48c.39-1.14-.68-2.95-2.35-3.41-17.47-4.75-26.99-16.84-46.59-4.67-11.55,7.17-23.13,13.92-32.69,23.79-6.8,7.03-10.76,15.9-16.24,23.83-6.42,9.29-8.79,19.49-11.86,30.11l1.04-17.22c-3.91,6.19-5.63,12.63-7.08,19.62l-3.86,18.57c-1.53,7.37-4.36,13.98-3.57,21.14-.33,1.03-.73,1.01-1.18,0,.44-3.61-.3-7.26.34-11.37l7.98-51.02c1.75-11.19,5.43-21.78,13.3-30.07,18.81-19.82,40.52-35.82,64.86-47.92,3.62-1.8,7-1.98,10.07-3.11Z"/>
          <path class="cls-21" d="M426.94,833.27c2.78-1.57,16.31,9.24,16.92,10.76.41,1.03.08,2.17-.28,3.16,5.72,6.7-8.37,22.38-15.35,26.24-6.59,3.64-13.14,8.17-20.4,10.67l-12.12,4.17c-5.36,1.84-9.66,6.38-15.14,7.63-6.4,1.45-12.35,2.38-18.41,5.01-8.73,3.79-10.74-8.66-12.74-8.93-4.8-18.78-7.13-38.27-7.01-57.67,4.93,14.77,4,30.21,8.94,46.26,11.7,1.76,23.7,0,34.08-5.4,4.12-2.14,6.62-6.65,11-8.3,2.14-.33,1.78,4.46,2.94,4.79,2.54-.28,5.3-1.4,6.29-2.66,1.47-1.87.67-4.9.28-7.59,1.8-2.05,4.26-.75,6.73-1.47,1.66-11.86,5.98-6.45,7.94-10.28,1.82-3.56-6.2-4.92-3.73-13.16,1.57-5.23,11.61-1.48,10.07-3.23Z"/>
          <path class="cls-179" d="M185.6,627.25c-.68.33-.83,2.49-1.51,2.32-1.1-.28-2.71-4.74-4.67-4.59-3.88.3-7.91,15.87-12.42,20.37-3.53-3.52-7.13-5.88-10.46-8.43.89-2.53-.88-6.87,1.67-9,3.07-2.57,8.32-3.43,9.79-7.84,3.64-10.92-6.52-19.7-.83-26.45,9.32-11.06-.78-22.73-.94-34.57l-.25-18.82-.38-2.68c9.26-11.52,16.93-24.33,23.01-38.43l1.73-.05c1.4-.28,1.13,2.19,1.17,3.56.44,15.32-.01,29.73,2.32,44.84-4.84,2.34-5.68,7.09-9.09,10.98-2.69,3.07-10.97,7.05-9.2,12.24l12.53,36.72c2.09,6.12-1.66,13.79-2.49,19.83Z"/>
          <path class="cls-78" d="M509.03,530.66c-8.26-10.31-11.35-14.81-18.37-26.78-18.94,14.95-32.51,36.38-35.22,60.3-1.73,15.3-5.21,24.98.97,38.62,2.43,4.84,2.62,8.96.57,12.38l-2.91-.84c-2.55-3.09-3.8-7.17-4.02-11.6l-1.51-31.24c-3.5,8.98-2.05,17.61-2.06,26.54-2.72-2.73-3.56-6.56-5.33-9.67,1.24-1.68,1.26-4.24,1.06-6.85-.84-11.32-.85-33.18,8.25-40.14-1.56,9.1-5.46,18.07-2.46,28.09,2.6-9.24,2.38-17.72,5.44-26.27,7.49-20.93,20.09-38.88,36.91-53.27,4.2-3.6,15.24-10.34,19.4-2,6.15,12.31,11.52,24.76,15.71,37.95-5.71.81-12.03,1.52-16.45,4.79Z"/>
          <path class="cls-22" d="M269.48,485.11c-2.9,9.98-3.57,40.25-8.69,47.78l-6.53-25.41c-1.67-3.44-2.13-6.2-1.39-8.29-5.84-15.54-13.05-30.63-21.61-45.27,1.72-3.11,3.86-6.11,6.42-8.99,0-.93.06-1.85.26-2.73,1.06-4.51,20.37-22.23,24.95-22.88.9-.13,1.82-.09,2.75-.01,4.31.13,4.74,3.69,1.27,10.66,3.1,1.19,3.76,4.29,1.96,9.3.45,14.05-.12,27.67-3.16,41.4,3.91-1.03,4.56.84,3.77,4.45Z"/>
          <path class="cls-23" d="M450.14,694.42c1.48,2.33,1.1,3.29-1.8,3.59-4.02,0-7.39-3.13-12.09-2.22,4.87,3.67,11.87,2.18,17.33,5.42,4.41,2.62,7.79,13.34,6.02,16.07l-1.53,2.37,1.5,2.01c2.52,3.38.49,9.66-.71,14.2-.16.6-1.94.85-2.22,1.39-.26.5,1.93,1.23,1.61,2.22-2.63,8-6.82,19.86-16.07,22.64s-18.56-1.77-27.2-2.77c-6.47-.75-12.91-3.59-14.23-10.07,5.24,6.28,11.18,9.36,17.84,4.87,13.4-9.04,14.9-27.25,15.93-41.36.03-.44,4.62-1.13,2.41-1.89-5.35-1.84-2.46-5.8-6.91-14.86,2.94-.31,4.18-.56,5.09-1.96-1.62-4.44,1.48-6.15,9.29-5.12,2.83.77,4.26,3.21,5.74,5.48Z"/>
          <path class="cls-114" d="M429.01,555.57c-.67-.11-.78-1.02-2.18-1.08-.48,13.58,3.81,17.8,7.77,29.88l11.22,34.21c-9.51-2.43,5.65,12.6,7.73,19.4,2.68,8.77,4.7,17.07,8.8,26.5-9.91,1.15-17.62,6.44-26.02,10.81-3.67-13.23.28-34.75-.92-42.24-2.9-18.13-6.09-35.64-8.5-53.94l-.93-7.02c-1.13-8.57.05-17.22.26-25.84,1.5,3.65,2.41,6.46,2.77,9.34Z"/>
          <path class="cls-21" d="M346.75,903.7c1.98,1.39,2.87,5.95,3.53,9.36.87.42,1.29-.03,1.38-1.12-.01-.79.13-2.06.84-2.27.97-.29,31.32,6.59,38.32,5.02,2.37,6.37,7.32,18.59,6.63,22.89-16.47,3.29-33.77,3.81-50.76,1.11-2.99-12.27-5.12-23.58-6.65-34.97.06-2.49.86-3.23,2.39-2.25,2.17-.56,5.28-.37,4.32,2.24Z"/>
          <path class="cls-11" d="M269.48,485.11c-.3-.94-.57-2.15-1.95-2.49-1.04-.26-2.17,1.06-3.71,1.93-1.66-6.79,1.61-12.98,2.32-19.84,1.05-10.11-.46-24.69.87-29.06.1-.33,1.9-2.63.17-3.31-.54-.21-1.47.85-3.1.99-.69-4.71,5.18-10.45,1.56-14.02-1.66-2.53.95-5.12,3.56-4.85,6.05,3.31,18.93,8.59,26.81,6.17,2.11,7.66,6.54,19.22-.84,22.75l-1.94-1.71c-2.38,4.19-4.1,8.63-7.35,11.5-.76-.04-1.34-2.23-1.86-2.03-.71.28-13.69,31.03-14.54,33.97Z"/>
          <path class="cls-181" d="M340.02,855.39l1.54,22.25,2.04,5.19c.17,1.27.4,3.19,1.12,4.28-.23,2.78.17,5.18,1.22,7.19l1.01,2.23c.71,1.96-.76,3.3-4.39,4.02,1.01.25.93.56-.13.91-.6.93-1.42,1.71-2.39,2.25-.52-3.85-2.18-7.6-2.48-11.55l-1.34-6.1c.15-.33-.15-.82-.06-1.18.04-1.7-.28-3.27-.96-4.7-.08-1.55-.34-3.15-.24-4.7.19-1.9-.11-3.52-.9-4.86-4.57-26.78-4.76-54.28-4.57-82.09l.21-31.29c1.55-.33,7.57-.62,7.61,1.67l1.61,81.3c.11,5.4,1.04,10.41,1.1,15.18Z"/>
          <path class="cls-31" d="M117.73,647.88c7,.15,12.46-.43,18.91-2.87l-8.39,22.74c-17.92,4.51-36.62-2.27-46.61-18.05,2.01-6.86,2.47-13.17,5.98-20.83,7.71,9.98,16.96,16.79,29.29,18.8-.62,5.47-4.28,7.97-3.83,12.78,3.1-3.47,3.03-7.26,4.66-12.57Z"/>
          <path class="cls-158" d="M426.74,931.68c-4.75-12.94-1.8-16.27-5.99-30.91,5.4-2.21,11.26-3.51,17.07-4.87l6.39,26.77c1.09-10.26-3.24-18.88-3.69-28.24l12.6-4.28c2.62,6.81,2.24,13.32,3.95,20.33.59,2.4,3.4,7.25.1,9.15-9.43,5.43-19.79,8.49-30.43,12.05Z"/>
          <path class="cls-194" d="M473.02,629.73c-.92,1.36-.53,2.15,1.18,2.37,2.15,3.69,3.68,7.86,6.04,11.35,10.13-13.57,12.49-21.94,24.82-34.88,1.48,11.39-4.33,21.47-8.62,31.89-1.65,4-1.65,7.98-3.68,11.35-1.19,1.83-1.61,1.25-1.07-.9,3.13-7.74,5.3-16.25,6.76-24.89-9.86,13.12-13.58,27.58-21.08,42.05-5.23-16.81-11.49-31.79-20.23-46.21-1.56-2.57-2.57-5.06-3.08-7.54,5.52-2.65-.74-7.73,2.33-11.54,7.41,8.49,11.75,16.92,16.61,26.94Z"/>
          <path class="cls-129" d="M242.28,549.71c5.05-33.81-1.87-24.6-16.46-49.25,4.17-8.34.63-16.04,3.86-22.91,10.7,16.38,20.43,32.36,26.88,50.31,2.64,7.35.23,17.25-1.16,24.43-1.48,2.71-4.05-.23-5.46-.95-5.16-2.65,1.68-20.55-.5-27.26-3.45,3.03-1.06,27.78-7.15,25.62Z"/>
          <path class="cls-50" d="M492.76,651.81c-1.25,2.06-.73,5.75-2.03,8.69,18.67-4.63,23.33-14.81,39.47-6.15,9.76,5.24,24.34,11.44,29.32,22.21-13.48-6.98-18.57-13.93-37.07-10.24-10.75,2.15-21.09,4.04-30.81,9.32-3.4-1.45-6.77-2.92-9.49-4.59,2.11-7.76,6.91-13.65,9.53-20.14l1.07.9Z"/>
          <path class="cls-157" d="M286.89,485.26c-4.31,15.29,6.99,18.23,12.9,27.47-6.6-.03-8.99-5.32-14.57-9.78-5.53,17.42-8.2,34.5-10.99,51.4-.28.69-1.36,2.61-2.46,2.62-2.22-2.03-3.93-4.35-5.55-6.85,2.48-27.53,8.22-54.3,17.72-78.77.51,5.86.85,10.34,2.95,13.9Z"/>
          <path class="cls-38" d="M422.31,393.51c3.3.72,4.28,4.63,5.37,7.41-2.63,1.92-3.76,5.4-7.43,6.31-1-2.13-1.27-4.79-3.47-5.14-.54,4.13-.35,8.4-3,10.14-1.84,1.21-5.52,5.05-7.91,2.09l-14.22-17.59c-8.24-.6,7.94,7.7,10.97,22.26.15.7-1.58,2.33-2.17,1.97-3-1.83-3.99-13.04-4.78-9.19-3.24,1.91-7.11-1.63-8.57-4.04-.32-.52,1.72-1.61,1.65-2.12.32,2.46-3.17-6.44-2.2-9.84,1.35.21,1.89,1.22,2.29,1.03.76-.35.63-1.21.49-1.71-.22-.72-1.27-.29-2.11-.87-2.03-1.4-2.44-7.51-.24-8.81,12.52-.88,24.09,5.64,35.34,8.1Z"/>
          <path class="cls-66" d="M470.43,480.04c-.68-.78-1.53-.82-2.35-1.24-7.14-3.17-14.2-6.16-21.17-8.99-.76-.38-1.62-.58-2.22-1.25,5.99-2.21,13.67-7.99,20.63-6.66l37.41,18.24c-5.64,3.33-10,6.59-15.67,8.95-5.7-3.85-10.54-8.17-16.62-9.05Z"/>
          <path class="cls-35" d="M217.41,818.93c-1.01.78-.71,2.14-1.36,3.77-3.19-2.95-3.03-7-3.27-10.83l2.72-20.62,13.96-81.85c1.35,3.31,3.62,7.29,4.07,10.72l-6.16,37.09-9.96,61.73Z"/>
          <path class="cls-142" d="M155.45,812.75c1.27,4.04-3.08,8.97-5.95,4.32,3.17-8.92,9.76-29.37,15.02-36.87l23.89-34.06c2.81,2.38,4.45,5.06,6.29,8.07l-24.23,32.73-14.41,20.15c-1.38,1.93-2.38,4.16-.61,5.66Z"/>
          <path class="cls-51" d="M530.38,537.91c1.42,1.57.69,3.03,1.32,4.78l-3.09.8c-2.38-2.08-4.53-4.3-6.45-6.68l-1.19,2.25c-20.02,7.32-6.31,44.07,11.87,45.99l1.4,2.31c1.82-.94,4.22-.52,7.19,1.27,4.2-3.1,4.03-8.19-.51-15.26l1.18-2.8c.77-.69.97-1.54,1.53-3.27.95.63,1.94,1.46,2.03,2.43l-.43.66c7.81,10.15,8.09,28.79-8.82,23.6l1.02,2.46-1.09,1.68c1.88,1.25,1.3,2.18-.98,1.94l-1.52,1.43-2.39-.06c-15.72-7.76-27.5-21.44-30.59-38.77,1.32-1.07,3.12-3.25,1.84-5.22s-2.27-3.36-1.39-5.63c.51-1.32,1.61-2.85,3.41-3.33l1.31.58c2.33-13.1,16.07-23.08,24.33-11.16Z"/>
          <path class="cls-88" d="M517.4,699.18c.36,1.89,1.33,3.99.18,6.11-20.56-9.25-33.91-20.07-56.67-23.4-6.63-8.05-12.02,1.5-16.49.77-2.16-.38-3.66.98-5.5-.88,21.3-15.31,27.93-9.6,51,2.22,9.71,4.97,18.79,9.62,27.47,15.17Z"/>
          <path class="cls-137" d="M172.94,760.26c-.34,1.66-1.48,4.09-3.76,4.6,8.7-30.68,13.41-61.39,17.81-92.84l3.65-26.08c3.15.27,1.21,4.22,1.3,6.56.83,21.87-3.87,59.61-10.43,80.96-2.84,9.25-6.71,17.8-8.56,26.8Z"/>
          <path class="cls-95" d="M531.71,542.69c4.83,13.32,3.1,14.27,10.42,27.89,3.19,5.92,8.45,16.57.59,20.07-3.04,1.35-5.87-1.73-8.45-3.29-.35-3.36-.88-6.75-1.59-10.17-4.15-5.22-6.05-10.33-5.71-15.31l-6.59-22.82,1.8-2.24c7.35,1.04,2.77,1.88,9.53,5.88Z"/>
          <path class="cls-109" d="M349.3,509.87l-10.87,20.86c3.77-.92,4.01-4.78,6.81-6.37-2.48,9.87-5.48,18.86-6.78,28.89l-4.34,33.46c-2.65-2.93-3.38-6.55-4.91-9.91.54.04,1.08.75,1.6.69,2.01-14.05,3.86-27.81,7.95-41.58-3.7.43-5.28,2.89-8.28,3.84.15-4.99,2.17-8.57,3.42-12.81.53-1.82-1.16-4.1-.25-5.75,1.5-2.72,4.02-4.62,3.94-7.56-.5-1.47,10.9-7.1,11.62-7.08.97.03.48,2.32.09,3.33Z"/>
          <path class="cls-164" d="M269.19,414.45c-1.16,1.39-2.12,3.75-3.56,4.85-10.41,7.18-19.86,15.94-27.96,25.63-5.63,4.88-7.18,9.25-4.63,13.11l-1.47,2.2c-.68,3.64-3.29,3.01-7.83-1.87-1.1-1.63-5.76-4.19-3.44-7.02,12.86-15.7,29.18-28.04,46.63-37.98,1.08-.61,1.83.85,2.26,1.09Z"/>
          <path class="cls-36" d="M49.21,672.1l1.33,9.92-2.48,1.78c-1.79,10.1-2.75,20.49-1.25,30.67-.02-.13,2.15,13.55.33,10.41-13.58-23.2-11.57-35.13-.61-60.08,3.41,1.42,1.25,5.59,2.68,7.3Z"/>
          <path class="cls-138" d="M460.53,917.85c-.52-3.22.5-26.81-5.78-27.54,3.14-3.41,8.29-5.01,13.29-6.34,2.35,8.96,4.24,17.41,4.82,26.94-3.62,2.7-6.2,4.69-12.32,6.95Z"/>
          <path class="cls-16" d="M161.17,616.77c.7,3.61-8.3,5.31-11.46,4.76-4.1-6.81-6.35-13.46-8.69-20.64,7.11-1.26,15.06-10.17,16.67-1.91l3.47,17.79Z"/>
          <path class="cls-115" d="M212.79,486.07c-6.48.3-14.19,10.38-18.25,15.52-.58-1.62.28-2.72-.36-3.68.98-3.21-.83-9.02,2.19-11.95,6.91-6.7,16.34-10.3,24.75-14.92,1.36-.75,4.68.98,3.88,1.84l-12.21,13.19Z"/>
          <path class="cls-165" d="M484.27,903.26c-.75,3.74-5.95,5.3-8.51,6.25-1.19-9.85-1.67-18.69-5.1-27.79,3.7-2.27,6.64-4.28,10.55-5.55-.8,10.2,4.41,20.36,3.05,27.1Z"/>
          <path class="cls-152" d="M156.16,836.67c.62,5.65,1.04,11.35,3.07,18.17-2.46.98-3.31-1.34-5.11-1.5-5.56-10.46-8.68-24.88-4.62-36.27,2.78.27,4.83-1.94,5.95-4.32.37-.78.9-1.42,1.41-2.11-.16,8.38-1.85,15.46-.69,26.02Z"/>
          <path class="cls-44" d="M190.35,499.07c-4.5,10.65-15.14,34.67-24.36,41.17-.02-1.67-2.69-3.05-2.15-5.1.44-1.65,2.09-2.53,3.13-4.23l23.5-38.08c.76,2.09.53,4.69-.13,6.24Z"/>
          <path class="cls-55" d="M154.53,900.32c-3.52-2.19-7.47-5.62-7.09-9.49.86-8.97,2.51-17.02,4.06-26.21l7.79,6.4c-1.89,9.95-4.13,19.15-4.76,29.3Z"/>
          <path class="cls-119" d="M231.57,460.24c1.92.37,3.38,1.35,4.42,2.97,6.85,10.78,13.06,23.93,16.87,35.97,1.26,2.99,1.15,5.56,1.39,8.29-7.19-13.89-22.4-37.15-30.51-49.11,2.62.79,5.04,2.61,7.83,1.87Z"/>
          <path class="cls-128" d="M419.87,383.88c-.11,2.41-.8,4.73-1.18,7.11-8.44-3.61-17.19-7.12-27.04-8.06-2.04-.2-4.8.81-5.43-.83-.54-1.39-.53-3.73.55-5.38,10.91.93,23.22,1.96,33.1,7.16Z"/>
          <path class="cls-52" d="M151.01,632.13c-.61,5.95-10.75,35.95-19.57,33.96,5.98-18.58,4.84-20.68,19.57-33.96Z"/>
          <path class="cls-57" d="M350.44,504.86c-2.47,3.03-8.46,5.87-12.65,7.31-8.13,1.59-16.05,3.15-23.76,4.67-2.63-.04-5.95.62-8.43-2.73,18.83-1.26,24.72-4.56,41.26-12.87,2.01-1.01,4.24-.17,4.88-3.33-.18,2.22-1.61,4.7-1.3,6.94Z"/>
          <path class="cls-64" d="M76.51,633.38l6.5-16.92c1.6,2.56,3.12,7,3.49,10.1-1.5,6.54-3.93,12.4-5.29,20.62-4.1-3.59-5.49-9.04-4.7-13.81Z"/>
          <path class="cls-41" d="M530.38,537.91c.7,5.49-6.03-10.5-16.62,0-9.18,9.1-8.15,21.21-3.22,33.28-5.73-5.82-6.6-15.05-5.8-22.7,1.04-9.98,10.01-18.74,20.08-17.82,3.94.36,3.93,5.45,5.56,7.24Z"/>
          <path class="cls-60" d="M537.46,596.46c-7.63-2.87-31.5-14.54-29.77-23.74,6.01,4.17,8.47,11.47,14.46,14.43,5.05,2.49,11.38,2.85,16.76,5.98,3.25,1.9,6.77-1.79,8.41-3.61,6.95-7.73-6.41-20.7-1.63-19.79.29,3.16,3.72,4.68,4.86,8.12,1.47,4.44,2.35,11.99-.72,16.17-2.01,2.74-9.38,3.56-12.37,2.44Z"/>
          <path class="cls-148" d="M444.4,688.94c-2.98,3.93-4.38-2.44-9.29,5.12-8.32,1.97-6.64-3.21-16.98-11.26,9.87.94,17.92,3.87,26.27,6.14Z"/>
          <path class="cls-58" d="M76.51,633.38c-.61-.42-.87.27-1.93,1.04-1.17-4.39.23-8.69,1.28-13.39l3.64-16.33c.97-4.34,1.88-8.98,7.82-8.8-3.49,5.12-2.59,10.71-4.53,15.7-1.25,3.23-4.42,5.35-4.54,9.75-.1,3.76-2.92,7.37-1.74,12.02Z"/>
          <path class="cls-49" d="M535.38,600.08c.21-.7.54-1.36.98-1.94,2.8-.25,5.91,1.3,9.19.68,6.86-1.29,8.27-8.78,7.79-14.97,1.42,4.1,4.19,11.41.83,15.53-4.85,5.95-13.07,3.22-18.8.7Z"/>
          <path class="cls-145" d="M349.3,509.87c-.04-.61.27-1.37-.26-2.26l-11.45,6.02c-7.85,1.17-15.66,3.33-23.57,3.22.4-2.99,3.17-2.33,5.88-2.44,11.2-.45,21.54-4.11,30.53-9.54.31,2.28-.26,3.32-1.14,5.01Z"/>
          <path class="cls-21" d="M343.6,882.82c-4.82-2.43-3.35-7.85-3.41-12.41l-.18-15.02c1.84,8.88,2.35,18.23,3.59,27.43Z"/>
          <path class="cls-148" d="M448.35,698c.34-1.3.3-3.14,1.8-3.59.86,1.32,3.38,1.85,3.37,4.27-1.96.53-3.58-.68-5.17-.68Z"/>
          <path class="cls-85" d="M54.14,673.21c.1,1.17-.02,2.36,0,3.53-2.54-2.89-1.92-7.11-2.39-10.67,1.95,1.67,2.18,4.67,2.39,7.15Z"/>
          <path class="cls-112" d="M348.09,621.62c-2.94-2.84-.34-6.45.04-9.56h1.18c.35,3.17-2.09,6.35-1.22,9.56Z"/>
          <path class="cls-21" d="M345.94,894.29c-.79-.31-2.4-.84-2.28-2.23.17-1.94,1.05-3.41,1.06-4.96,1.42,2.16,1.16,4.64,1.22,7.19Z"/>
          <path class="cls-21" d="M348.48,899.38c-.54.15-.95.86-1.58.9.76,2.69-2.51,1.36-4.34.27l4.39-4.02c.44.97,1.29,1.75,1.53,2.85Z"/>
          <path class="cls-21" d="M336.16,884.89c-1.59-.89-.88-3.16-.96-4.7.87.27,2.02.83,1.98,1.74-.05,1.12-.7,2.01-1.01,2.97Z"/>
          <path class="cls-21" d="M337.56,892.16c-.14-1.82-2.36-3.86-1.34-6.1,2.36.91,1.12,4.07,1.34,6.1Z"/>
          <path class="cls-21" d="M334.95,875.48c-1.74-.9-.63-3.29-.9-4.86,1.06-.23,1.79,1.12,1.92,1.94.17,1.06-.96,1.94-1.02,2.92Z"/>
          <path class="cls-78" d="M473.02,629.73c.38.78.74,1.62,1.18,2.37-.67,0-1.47,1.11-2.02,1.02-.6-.1-1.42-1.25-1.53-1.81-.25-1.2,1.5-1.48,2.37-1.58Z"/>
          <path class="cls-40" d="M350.28,913.06l1.38-1.12c1.09,8.33,4.49,16.21,4.38,24.76-3.63-8-4.27-15.97-5.76-23.64Z"/>
          <path class="cls-40" d="M346.9,900.28c1.21.19,2.56.32,3.07,1.08.77,1.14.4,2.08-.16,2.48-1.11.8-2.41.4-3.07-.14-1.33-.93-2.79-1.71-4.32-2.24.15-.23.03-.64.13-.91l4.34-.27Z"/>
          <path class="cls-8" d="M410.55,581.48c-.13,2.32-.45,4.72-1.37,6.87-.86,1.37-.83,2.64.1,3.81,5.62-.3-.98,9.73,8.08,11.47l.14,2.58c-4.63,4.19-9.47-3.8-10.85-8.44-9.18,1.69-5.55-9.24-.96-13.63-4.5-10.54-12.33-10.06-16.7.92-3.23,2.94-7.41,4.42-12.55,4.46-.79,3.27-1.99,5.69-3.62,7.26.36,2.49.78,5-1.39,5.9.56-8.23-4.21-7.58,2.42-16.01,2.1-2.67,6.24-1.28,9.11-3.1,4.52-2.86,6.15-8.7,10.36-12.25,7.34-.84,14.06,4.02,17.22,10.17Z"/>
          <path class="cls-85" d="M101.05,682.93c.8-.62,1.16-1.6,1.06-2.6,2.51.85,4.9,1.62,7.36,2.98-3.45,1.07-6.19.78-8.42-.38Z"/>
          <path class="cls-168" d="M417.5,606.21c2.47,1.46-1.2,3.09-1.26,4.75-2.17,3.43-9.45,9.94-10.42,3.56.32-1.29-.7-2.55-1.17-3.6-1.44-.91-2.25-2.1-2.43-3.56-6.86,2.8-14.4,2.79-21.25-.06-1.08,1.19-2.59.78-4.53-1.22-4.71-8.05-.94-7.47-3.62-9.31-.52-3.55-.04-9.82,4.8-10.04,4.91-.22,8.09-.25,10.93-5.15,1.3-2.23,3.45-6.41,6.28-7.44,3.38-1.22,12.27,4.1,13.17,8.04,1.25,5.47-5.63,4.67-4.53,14.38,8.69-4.84,2.52,6.45,14.03,9.63Z"/>
          <path class="cls-37" d="M417.36,603.63c-.12-2.09.4-4.09,2.16-5.98-.41-1.72-1.56-2.69-2.24-4.6,2.35-.9,4.23-1.98,5.36-4.59,3.88,3.16,2.84,7.3,2.14,11.89-.28,1.88,1.68,4.42.84,6.04-.64,1.23-2.71,4.05-4.39,3-1.92-1.2-1.48-5.31-3.86-5.77Z"/>
          <path class="cls-24" d="M380.98,607.3c6.93,2.79,14.3,2.81,21.25.06.96-.08,1.78-.1,2.26.73.53.9-.18,2.07.16,2.83-1.62-1.72-3.39-.64-5.56.26-8.05,3.34-18.39,2.18-22.65-5.1,1.26.59,3.44.23,4.53,1.22Z"/>
          <path class="cls-47" d="M405.82,614.52c3.65,2.93,6.55-2.05,10.42-3.56-.12,3.26-3.77,6.36-7.04,8.02-1.78.9-3.56-.23-3.94-1.74-.2-.78.31-1.7.56-2.72Z"/>
          <path class="cls-37" d="M409.28,592.16c-.44.02-1.07.03-1.74-.11-1.03-.22-.67-1.68-.18-2.35.34-.46,1.5-.58,1.83-1.35l.1,3.81Z"/>
          <path class="cls-192" d="M398.71,475.74c.49-.34.81-1.04,1.33-1.31,6.13-3.18,30.84-28.65,37.99-35.89-1.41,2.69-1.7,5.65-1.86,8.1-10.23,9.75-23.82,20.65-35.26,29.55-1.29,1.01-2.41.6-2.2-.45Z"/>
          <g>
            <path class="cls-128" d="M400.04,474.43c.74,1.21.09,1.69-1.33,1.31l.45,2.64c-5.09,5.99-9.99,12.06-14.7,18.2-7.69,5.6-13.78,13.29-20.93,20.61-5.3,5.42-6.01,14.39-9.53,20.97-1.63,3.04.77,5.49.29,7.79-2.55,12.1-4.05,24-5.45,36.41l-3.59,32c-2.16-4.23-4.65-8.74-6.05-13.39l8.29-60.31c5.93-14.13,7.92-28.44,10.68-43.33,2.61-14.04,6.1-26.99,7.67-41.78,17.65-12.23,33.7-25.15,50.19-38.75,5.25-4.33,10.89-8.3,12.06-14.87-1.95-9.65,10.13-13.21,11.49-4.84.99,6.13-25,50.3-29.71,57.1l.96,4.11c-2.08,5.85-5.67,11.23-10.78,16.13Z"/>
            <path class="cls-13" d="M363.4,513.54c3.78-17.8,8.93-33.93,10.37-51.7,2.34-1.94,4.18-2.99,5.8-4.92-.16,3.24-1.81,5.4-3.16,8.21-2.96,16.7-5.41,33.27-13.01,48.41Z"/>
          </g>
          <path class="cls-40" d="M468.08,478.8c-2.46,1.07-4.64-.7-7.05-1.9l-14.13-7.09c-.23-1.05.88-1.49,1.88-.97l19.29,9.95Z"/>
          <path class="cls-3" d="M252.86,499.18c-5.76-13.64-12.6-26.96-21.29-38.94-.94-1.29-1.6-4.44-2.63-6.12,1.2-4.09,6.23-6.2,8.73-9.19-1.01,2.65-2.37,4.89-4.63,7.74l15.41,32.12c.46.97,7.8,16.67,4.42,14.4Z"/>
          <g>
            <path class="cls-174" d="M75.37,654.58c1.84,5.02,6.32,11.05,10.39,14.97,3.56,5.53,10.19,8.69,16.35,10.78,3.53,1.66,2.66,3.29-1.06,2.6l-1.88.06c-1.45-.82-2.51-1.46-5.57-1.86.29,6.59-5.21,9.36-8.9,13.17-6.15,6.35-12.98,10.4-21.88,12.42-3.47.79-6.56,3.4-10.57,3.54-2.62.09-4.87,2.21-5.44,4.22-3.06-3.27-4.07-7.85-3.03-13.74l1.4-13.92,2.89-3.01c2.56-3.08,4.64-3.17,6.24-.28l-.04-1.71c-.12-1.69-.1-3.38-.13-5.07-.76-1.36-.76-2.53,0-3.53,2.14-1.57,3.53-.47,4.17,3.29l-2.8-23.27c.03-9.5,3.33-18.44,9.92-26.82l2.61-.34c-1.26,10.35,2.14,19.6,7.32,28.5Z"/>
            <path class="cls-56" d="M68.05,626.08c-3.36,10.37-12.23,12.3-9.82,31.2l3.22,25.3c.19,1.52-.96,2.59-1.99,2.34-2.96-.72-3.22-11-5.33-11.7-.99-1.86-1.78-4.24-2.39-7.15-3.05-23.03-5.92-34.2,17.8-49,.07,2.91-.69,6.5-1.5,9Z"/>
            <path class="cls-85" d="M81.22,660.48c.19,3.62,2.55,5.99,4.54,9.07-1.82.87-16.47-15.05-10.39-14.97,1.21,1.82,5.71,3.14,5.86,5.9Z"/>
            <path class="cls-85" d="M54.27,681.81c1.93.91,2.32,4.9,1.16,7.1-2.56-1.87-1.32-4.7-3.04-6.3-1.18,1.09-1.83,1.54-2.7,2.12-.69.46-1.43.2-1.63-.93.66-3.75-1.57-8.31,1.15-11.7,2.74,2.98,1.29,7.94,5.05,9.71Z"/>
            <path class="cls-85" d="M60.71,702.56c-2.52-2.3-3.63-6.16-2.5-9.58,2.45,2.73,2.25,5.4,2.5,9.58Z"/>
          </g>
          <path class="cls-106" d="M522.17,536.8l7.09,24.6c.62,2.14-1.12,4.68.19,6.79,5.01,3.63,9.34,16.31,4.81,19.16-10.9.86-20.58-11.92-23.9-22.42-4.22-13.34,1.13-29.64,11.81-28.13Z"/>
          <g>
            <path class="cls-183" d="M443.59,847.19c-4.65-5.45-11.75-8.87-16.65-13.92-11.85-12.25-31.78-35.01-41.37-47.51-1.61-2.09-3.54-8.81-.88-10.23,2.9-1.54,6.79.22,9.39-3.55.64-.93,2.92-1.32,3.87-1.27,1.4.07,2.77,1.67,3.84,3.12,7.9,10.72,16.12,20.16,25.91,29.16,10.77,9.9,19.98,20.83,28.9,32.57,0,3.47-9.03,14.25-13,11.64Z"/>
            <path class="cls-120" d="M453.52,835.82c-1.93,3.43-4.39,5.79-7.8,8.5-1.67-1.47-.23-2.27-.49-4.04-2.45,5.06-15.92-12.27-19.81-16.27-13.87-14.27-27.56-27.94-39.19-44.9,3.32-2.29,6.53-3.34,10.05-5.08l16.78,18.96c7.95,8.98,16.54,16.93,24.65,25.81,5.32,5.83,9.51,12.05,15.81,17.01Z"/>
          </g>
          <path class="cls-76" d="M402.22,607.36c-6.07,5.01-15.36,5.22-21.25-.06,7.06.34,14.2.66,21.25.06Z"/>
          <g>
            <path class="cls-191" d="M225.82,500.46c3.28.92,6.01,3.6,8.19,8.02,12.61,11.58,14.98,26.04,8.27,41.22-1.7,1.53-3.16,3.87-5.83,5.24-2.79-3.13-5.05-6.16-8.83-5.99-2.97.14-5.71,2.15-8.76,4.59-12.18-12.45-12.74,3.61-22.24-6.55l-2.42-32.44c-.45-6.07-1.57-11.58-.03-16.65,3.07-1.19.77,3.21.3,2.35-1.59-2.94,11.34-15,15.47-16,.97-.23,2.05.94,2.85,1.81.31-.01.4.86.77.88,1.82.08,3.45-6.15,9.16-7.37-.37,7.33-.95,14.22-.19,21.58,1.47.22,2.41-.32,3.29-.7Z"/>
            <path class="cls-170" d="M199.57,538.26c-4.06-6.95-1.26-28.53.18-38l-.18,38Z"/>
          </g>
        </g>
        <g>
          <path class="cls-153" d="M95.3,603.72c5.39,9.1,5.67,17.13,17.94,22.42,3.02,1.3,9.76,4.27,12.22.91l2.53-16.43c.57-3.73-2.72-10.73,1.17-12.96l23.11-13.25c1.87-1.07-2.1-16.42.4-10.65-.33-.77-2.74-.45-3.28-.75,4.04-.54,9.61-1.32,12.82,2.25,4.52,5.02,4.96,12.53-1.18,15.78-1.2.63-2.35-1.87-3.29-2.16l-21.68,9.79c-1.55.7-2.78,1.91-2.8,3.34-.01.96,2.34,1.15,2.79,2.27,6.39,15.98,5.71,20.06-5.25,29.94.06,1.22,1.62,2.7.72,3.16-1.07.55-1.26,1.75-3.13,2.19-10.73,2.5-26.94-1.84-31.32-13.7-2.54-6.87-.71-15.34-1.78-22.15Z"/>
          <path class="cls-81" d="M94.08,540.37c-1.52-.44-1.45-1.55-.74-2.78.41-.7,1.07-2.11,2.29-2.68,12.81-5.93,23.17-14.97,29.88-27.83l-6.79-5.69c6.49-.28,25.84,4.72,29.17,8.7,2.47,2.95,2.26,8.5.89,11.43-5.58-.57-10.74-5.28-15.41-2.92l-36.55,18.49c-1.5.76-2.26,2.34-2.74,3.28Z"/>
          <path class="cls-26" d="M163.01,521.73c-1.75,2.07-3.6,3.51-5.75,2.93-5.2-1.4-1.26-11.72-4.73-16.83s-9.12-6.89-14.1-9.58c5.91-10.19,19.95,6.49,25.21,12.34,3.07,3.42,2.46,7.48-.63,11.13Z"/>
          <path class="cls-75" d="M147.32,568.58l-1.32-12.67c1.64-.38,2.73.53,4.38.59-1.33-7.58-7.7-4.11-11.73-5.49,5.1-3.29,13.67-3.34,17.78,1.99,3.58,4.65,3.67,10.83,5.34,16.25-5.02.07-9.77-1.63-14.46-.66Z"/>
          <g>
            <path class="cls-54" d="M118.73,501.39c4.06.76,6.98,2.61,8.75,5.56-3.61,10.2-11.72,18.63-21.23,23.71-7.36,2.38-11.41,5.61-12.17,9.7,5.7,1.66,31.42-11.19,38.17-14.79,4.12-2.19,6.04-.42,9.1.81,4.81,3.05,8.91,10.91,4.04,15.18l-30.21,11.78c-5.49,2.54-6.69,4.48-3.59,5.83l27.07-8.18c3.32-.96,12.82-2.07,13.34,2.64.37,3.38.04,4.1-3.31,5.45,1.37,4.6.91,7.76-1.38,9.49-7.66,1.58-16.2,6.46-26.27,7.37,3.02,5.64,17.31-1.45,28.35-2.93,6.65-1.17,7.6,10.19,3.15,13.95l-22.61,13.04c-.09,3.74.02,7.56.31,11.46-1.35,16.03-2.68,25.39-20.68,15.51-9.85-5.4-12.16-12.96-14.26-23.25-2.31-14.7-11.32-28.83-11.75-43.47l-.4-13.85c-.1-3.37-5.96-10.21-2.29-13.69l29.96-28.44c2.4-2.28,5.25-2.76,7.91-2.88Z"/>
            <path class="cls-96" d="M111.59,559.18c-1,.3-2.1.8-2.87.57-1.25-.37-1.96-1.69-1.79-2.48.24-1.09,1.2-2.3,2.45-2.85l12.23-5.41c7.97-3.52,16.2-5.86,23.95-10.13-.35-4.85-2.72-8.53-4.2-12.48l8.19,3.29c7.46,3,11.19,10.4,8.75,18.72-11.44-10.2-21.22-.64-32.57,2.33-5.52,1.44-11.8,3.39-14.14,8.45Z"/>
            <path class="cls-83" d="M93.95,572.12c-2.99-3.27-6.61-7.59-2.37-12.56.86,4.12,2.05,7.55,2.37,12.56Z"/>
            <path class="cls-94" d="M104.35,592.82c-3.27-3.6-7.25-6.92-9.08-12.56,3.71,3.43,6.37,6.45,9.08,12.56Z"/>
          </g>
          <g>
            <path class="cls-65" d="M118.73,452.21c12.43-19.62,9.59-48.5,1.58-68.35l.57-2.47c3.19-1.69,6.37-3.2,9.55-4.51,15.45,29.86,11.4,71.49-18.63,88.74,3.46-4.59,4.6-9.72,6.94-13.4Z"/>
            <path class="cls-74" d="M105.93,342.76c-.41,1.9-2.49,2.69-6.26,2.38,6.9,6.06,13.04,12.82,18.43,20.3,1.78-1.44,3.56-1.89,5.32-1.34,4.26,3.49,4.91,8.73,7,12.78,1.58,2.52-8.55,7.17-10.12,6.98-7.93-21.62-31.65-48.61-55.23-53.91,14.72-2.95,29.95,2.71,40.85,12.81Z"/>
            <path class="cls-125" d="M105.93,342.76c7.1,6.58,13.86,13.18,17.5,21.34-1.26,1.83-2.93,3.27-6.2,4.05-5.11-8-11.53-14.18-18.56-20.35-1.16-1.02-2.15-3.79-.66-4.6,2.73-1.49,5.54-.32,7.93-.44Z"/>
            <path class="cls-43" d="M124.02,495.29c-6.98-.63-12.28.54-17.54,4.87-1.65-2.99-2.61-7.76.42-10.08,3.18-2.43,7.5-4.79,11.41-2.87,2.46,1.21,5.38,4.69,5.71,8.08Z"/>
            <path class="cls-172" d="M115.93,480.9c-4.74.03-8.13,3.11-12.56,3.91-2.49.45-4.61-5.22-4.47-7.23l14.02-5.9c1.48,2.66,1.87,4.07,3.01,9.23Z"/>
            <g>
              <path class="cls-150" d="M118.73,452.21c-11.1,19.57-32.25,27.13-53.17,18.59-19.16-7.82-34.99-23.93-43.22-43.21-11.56-27.04-15.15-62.14,7.13-83.52,11.87-11.39,28.05-14.37,43.46-8.22,17.48,6.98,30.43,20.72,39.57,36.98,13.8,24.57,14.81,53.66,6.24,79.38Z"/>
              <path class="cls-140" d="M114.46,445.81c-6.59,17.27-23.1,26.23-40.99,22.04-13.53-3.17-24.73-11.58-33.38-22.82-15.04-19.53-22.14-42.68-20.64-67.41.87-14.36,8.32-27.78,21.07-34.3,14.32-7.33,30.49-3.83,42.97,5.17,15.38,11.09,25.25,25.87,30.91,43.86,5.56,17.67,6.92,35.51.07,53.46Z"/>
              <path class="cls-197" d="M47.48,444.05c2.88,3.66,14.71,11.6,19.35,15.9-7.22-.69-12.11-5.82-17.42-10.4-16.92-14.59-26.75-42.63-25.94-64.46.31-8.36.62-17.1,6.1-23.61-4.43,15.15-5.5,30.7.48,45.02,5.81,13.93,12.42,26.78,21.83,38.06-1.93,1.16-2.72-.7-4.4-.52Z"/>
              <g>
                <path class="cls-162" d="M99.35,459.05c-8.87,4.84-20.29,3.6-28.42-1.28-15.54-9.31-26.01-23.79-32.33-40.5-7.61-20.09-10.52-45.74,2.8-63.84,5.41-7.35,13.87-11.05,22.99-8.86,11.06,2.67,20.32,8.99,27.83,17.87,18.4,21.74,26.22,50.91,19.35,78.76-1.71,6.94-5.68,14.28-12.22,17.85Z"/>
                <path class="cls-1" d="M57.18,372.83c-3.38,10.3-5.22,23.69-9.54,24.27-6.66.9-10.47-21.8-.99-35.82,1.98-2.92,6.81-5.74,9.38-2.82,3.25,3.69,2.63,9.88,1.16,14.37Z"/>
              </g>
            </g>
          </g>
        </g>
      </g>
    </g>
  </g>
</svg>