<?xml version="1.0" encoding="UTF-8"?>
<svg id="Capa_2" data-name="Capa 2" xmlns="http://www.w3.org/2000/svg" xmlns:xlink="http://www.w3.org/1999/xlink" viewBox="0 0 922.24 1010.16">
  <defs>
    <style>
      .cls-1 {
        fill: #759580;
      }

      .cls-2 {
        fill: #4e3c37;
      }

      .cls-3 {
        fill: #b17c6e;
      }

      .cls-4 {
        fill: #475543;
      }

      .cls-5 {
        fill: #e2c7b4;
      }

      .cls-6 {
        fill: #315941;
      }

      .cls-7 {
        fill: #496c5b;
      }

      .cls-8 {
        fill: #779b80;
      }

      .cls-9 {
        fill: #416b4d;
      }

      .cls-10 {
        fill: #567561;
      }

      .cls-11 {
        fill: #e0dfdd;
      }

      .cls-12 {
        fill: #3d6a4a;
      }

      .cls-13 {
        fill: #254337;
      }

      .cls-14 {
        fill: #687385;
      }

      .cls-15 {
        fill: #7aa084;
      }

      .cls-16 {
        fill: #0b140d;
      }

      .cls-17 {
        fill: #070e09;
      }

      .cls-18 {
        fill: #ad6f64;
      }

      .cls-19 {
        fill: #3a5e45;
      }

      .cls-20 {
        fill: #aea075;
      }

      .cls-21 {
        fill: #6b7990;
      }

      .cls-22 {
        fill: #616d84;
      }

      .cls-23 {
        fill: #404f5e;
      }

      .cls-24 {
        fill: #2b2a2e;
      }

      .cls-25 {
        fill: #274639;
      }

      .cls-26 {
        fill: #a87568;
      }

      .cls-27 {
        fill: #682c1f;
      }

      .cls-28 {
        fill: #313036;
      }

      .cls-29 {
        fill: #eca981;
      }

      .cls-30 {
        fill: #303037;
      }

      .cls-31 {
        fill: #547464;
      }

      .cls-32 {
        fill: #e9aa84;
      }

      .cls-33 {
        fill: #648972;
      }

      .cls-34 {
        fill: #38373e;
      }

      .cls-35 {
        fill: #86a08e;
      }

      .cls-36 {
        fill: #b0b2b1;
      }

      .cls-37 {
        fill: #bc7a69;
      }

      .cls-38 {
        fill: #e2e2e1;
      }

      .cls-39 {
        fill: #294636;
      }

      .cls-40 {
        fill: #020202;
      }

      .cls-41 {
        fill: #868789;
      }

      .cls-42 {
        fill: #264132;
      }

      .cls-43 {
        fill: #6d3a32;
      }

      .cls-44 {
        fill: #bebbbe;
      }

      .cls-45 {
        fill: #35403a;
      }

      .cls-46 {
        fill: #ae796e;
      }

      .cls-47 {
        fill: #689277;
      }

      .cls-48 {
        fill: #b4b6b4;
      }

      .cls-49 {
        fill: #2d2b31;
      }

      .cls-50 {
        fill: #724932;
      }

      .cls-51 {
        fill: #bc7562;
      }

      .cls-52 {
        fill: #465266;
      }

      .cls-53 {
        fill: #698472;
      }

      .cls-54 {
        fill: #35343c;
      }

      .cls-55 {
        fill: #b67165;
      }

      .cls-56 {
        fill: #512114;
      }

      .cls-57 {
        fill: #2b2422;
      }

      .cls-58 {
        fill: #5f5e64;
      }

      .cls-59 {
        fill: #707f95;
      }

      .cls-60 {
        fill: #426748;
      }

      .cls-61 {
        fill: #201a19;
      }

      .cls-62 {
        fill: #ae746b;
      }

      .cls-63 {
        fill: #234236;
      }

      .cls-64 {
        fill: #302f38;
      }

      .cls-65 {
        fill: #37393d;
      }

      .cls-66 {
        fill: #234134;
      }

      .cls-67 {
        fill: #5e6675;
      }

      .cls-68 {
        fill: #433435;
      }

      .cls-69 {
        fill: #bd7d6d;
      }

      .cls-70 {
        fill: url(#Degradado_sin_nombre_4);
      }

      .cls-71 {
        fill: #624d4b;
      }

      .cls-72 {
        fill: #6f6e74;
      }

      .cls-73 {
        fill: #29282f;
      }

      .cls-74 {
        fill: #284737;
      }

      .cls-75 {
        fill: #e4c2ae;
      }

      .cls-76 {
        fill: #0a0910;
      }

      .cls-77 {
        fill: #e29877;
      }

      .cls-78 {
        fill: #7b9c85;
      }

      .cls-79 {
        fill: #b17d70;
      }

      .cls-80 {
        fill: #c1705f;
      }

      .cls-81 {
        fill: #c2947c;
      }

      .cls-82 {
        fill: #34333a;
      }

      .cls-83 {
        fill: #537963;
      }

      .cls-84 {
        fill: #43474f;
      }

      .cls-85 {
        fill: #faf1f0;
      }

      .cls-86 {
        fill: #767d86;
      }

      .cls-87 {
        fill: #3b674a;
      }

      .cls-88 {
        fill: #728d7b;
      }

      .cls-89 {
        fill: #eff0ed;
      }

      .cls-90 {
        fill: #5d697c;
      }

      .cls-91 {
        fill: #d1d1d0;
      }

      .cls-92 {
        fill: #713f35;
      }

      .cls-93 {
        fill: #d6d3d2;
      }

      .cls-94 {
        fill: #222e46;
      }

      .cls-95 {
        fill: #64251b;
      }

      .cls-96 {
        fill: #6d8e77;
      }

      .cls-97 {
        fill: #335e43;
      }

      .cls-98 {
        fill: #5b5964;
      }

      .cls-99 {
        fill: #130805;
      }

      .cls-100 {
        fill: #b66c5c;
      }

      .cls-101 {
        fill: #2b2a35;
      }

      .cls-102 {
        fill: #28272d;
      }

      .cls-103 {
        fill: #2d2b32;
      }

      .cls-104 {
        fill: #264738;
      }

      .cls-105 {
        fill: #240806;
      }

      .cls-106 {
        fill: #8a7c75;
      }

      .cls-107 {
        fill: #34333b;
      }

      .cls-108 {
        fill: #baaa70;
      }

      .cls-109 {
        fill: #5b6070;
      }

      .cls-110 {
        fill: #2a463a;
      }

      .cls-111 {
        fill: #2a4638;
      }

      .cls-112 {
        fill: #282730;
      }

      .cls-113 {
        fill: #e6ab8a;
      }

      .cls-114 {
        fill: #727783;
      }

      .cls-115 {
        fill: #dbdde0;
      }

      .cls-116 {
        fill: #567a65;
      }

      .cls-117 {
        fill: #858489;
      }

      .cls-118 {
        fill: #0a0a0e;
      }

      .cls-119 {
        fill: #254237;
      }

      .cls-120 {
        fill: #64816e;
      }

      .cls-121 {
        fill: #424757;
      }

      .cls-122 {
        fill: #46170f;
      }

      .cls-123 {
        fill: #b67060;
      }

      .cls-124 {
        fill: #26433a;
      }

      .cls-125 {
        fill: #443532;
      }

      .cls-126 {
        fill: #6a8873;
      }

      .cls-127 {
        fill: #6b6a70;
      }

      .cls-128 {
        fill: #9e635b;
      }

      .cls-129 {
        fill: #42664d;
      }

      .cls-130 {
        fill: #b0b2b2;
      }

      .cls-131 {
        fill: #16151e;
      }

      .cls-132 {
        fill: #626d7c;
      }

      .cls-133 {
        fill: #d09883;
      }

      .cls-134 {
        fill: #739a7d;
      }

      .cls-135 {
        fill: #6d3f33;
      }

      .cls-136 {
        fill: #7da388;
      }

      .cls-137 {
        fill: #7e9e88;
      }

      .cls-138 {
        fill: #a25f42;
      }

      .cls-139 {
        fill: #ab7065;
      }

      .cls-140 {
        fill: #3a3a45;
      }

      .cls-141 {
        fill: #284838;
      }

      .cls-142 {
        fill: #617c6c;
      }

      .cls-143 {
        fill: #dd974e;
      }

      .cls-144 {
        fill: #2e5740;
      }

      .cls-145 {
        fill: #7e7d83;
      }

      .cls-146 {
        fill: #6c7a8f;
      }

      .cls-147 {
        fill: #376547;
      }

      .cls-148 {
        fill: #969592;
      }

      .cls-149 {
        fill: #f0eeea;
      }

      .cls-150 {
        fill: #9f593c;
      }

      .cls-151 {
        fill: #636876;
      }

      .cls-152 {
        fill: #c1c1c1;
      }

      .cls-153 {
        fill: #bf7966;
      }

      .cls-154 {
        fill: #212026;
      }

      .cls-155 {
        fill: #663524;
      }

      .cls-156 {
        fill: #94021f;
      }

      .cls-157 {
        fill: #b4b6b2;
      }

      .cls-158 {
        fill: #282731;
      }

      .cls-159 {
        fill: #ecedea;
      }

      .cls-160 {
        fill: #131e16;
      }

      .cls-161 {
        fill: #777d88;
      }

      .cls-162 {
        fill: #b07e73;
      }

      .cls-163 {
        fill: #e69577;
      }

      .cls-164 {
        fill: #a87868;
      }

      .cls-165 {
        fill: #eeaf84;
      }

      .cls-166 {
        fill: #694633;
      }

      .cls-167 {
        fill: #edad85;
      }

      .cls-168 {
        fill: #5e7e6b;
      }

      .cls-169 {
        fill: #724841;
      }

      .cls-170 {
        fill: #80807d;
      }

      .cls-171 {
        fill: #51677d;
      }

      .cls-172 {
        fill: #b36d49;
      }

      .cls-173 {
        fill: #396848;
      }

      .cls-174 {
        fill: #376246;
      }

      .cls-175 {
        fill: #626878;
      }

      .cls-176 {
        fill: #431816;
      }

      .cls-177 {
        fill: #e9dcb5;
      }

      .cls-178 {
        fill: #a95b4f;
      }

      .cls-179 {
        fill: #adaeac;
      }

      .cls-180 {
        fill: #7f4636;
      }

      .cls-181 {
        fill: #c3826c;
      }

      .cls-182 {
        fill: #626065;
      }

      .cls-183 {
        fill: #63362b;
      }

      .cls-184 {
        fill: #312f3c;
      }

      .cls-185 {
        fill: #3a6549;
      }

      .cls-186 {
        fill: #243f34;
      }

      .cls-187 {
        fill: #403f43;
      }
    </style>
    <linearGradient id="Degradado_sin_nombre_4" data-name="Degradado sin nombre 4" x1="-88.07" y1="540.86" x2="-149.46" y2="843.8" gradientTransform="translate(621 28)" gradientUnits="userSpaceOnUse">
      <stop offset="0" stop-color="#406e52"/>
      <stop offset=".28" stop-color="#436b49"/>
      <stop offset=".56" stop-color="#2d4932"/>
      <stop offset="1" stop-color="#3d644a"/>
    </linearGradient>
  </defs>
  <g id="Capa_1-2" data-name="Capa 1">
    <g>
      <path class="cls-40" d="M916.42,528.89c-.77-20.08-1.15-30.12-1.15-30.12-5.23-9.46-8.74-19.54-10.53-30.25-3.41-7.45-8.18-9.64-15.5-11.8-12.66-3.72-26.58-6.36-39.64-8.31,4.13-20.01-6.33-53.31-29.58-55.84-20.52-2.23-20.89,15.95-20.12,30.75,3.13,14.62,3.66,28.94,1.57,42.97-14.81,35.67-15.57,72.2,5.79,104.49-6.88,4.4-12.96,9.46-14.34,18.06.07,11.92-2.42,22.76-7.46,32.51-14.76,10.65-21,24.28-20.68,42.49-4.47,5.52-62.02-108.17-69.57-123.56-1.81-4.46-4.35-7.84-7.61-10.14.8.49,1.68.7,2.59.46,15.83-4.14,36.04-25.2,43.32-39.56,22.02-43.4-3.48-78.44-28.78-113.16-4.19-8.21-6.8-16.94-.14-24.51,43.43-28.92,59.25-77.15,34.98-125.06-17.35-37.14-31.01-75.38-40.98-114.72-11.3-22.09-34.57-31.42-57.34-37.36-4.1-56.79-38.89-77.49-92.95-66.2l-44.36,13.17c-60.83-.23-120.53,12.66-165.35,56.28-48.2,46.91-61.87,100.23-66.55,164.16-12.89,73.87-58.22,81.57-125.59,76.67-64.9-5.48-124.11,55.54-106.66,120.07-27.12,37.15-37.15,99.96-5.09,137.16,4.43,5.14,10.99,10.11,14.92,2.49-4.27-22.68-4.65-47.11,5.72-68.16-4.53,39.39,20.3,65.89,44.94,91.11,8.9,12.29,11.56,26.66-4.49,34.17-30.1,14.08-58.88,1.04-82.65-18.59-6.82-1.57-6.67.07-5.79,6.33,3.14,22.38,33.42,50.61,51.89,62.32,42.26,26.78,102.38,33.46,147.47,10.11-13.6,15.72-33.74,23.07-54.31,21.8-6.04,2.79-3.1,6.31.16,9.97,11.02,12.4,44.61,13.74,60.42,12.07l-13.38,29.72c-6.86,17.02-11.33,30.53-5.48,48.59,8.16,25.2,47.88,63.32,70.37,76.8.05.03-.79-.11-1.09-.38l-30.77,92.99-7.57,14.4c-1.79,4.13-1.03,6.43,2.29,6.9h6.69c1.39-1,2.77-1.02,4.13,0h3.48c6.25-2.44,16.09-2.48,22.4,0h16.24c3.07-2.53,1.65-4.41-1.51-6.12,5.6,3.15,11.64,5.19,18.12,6.12h7.71c.01-5.69-12.45-8.89-17.89-8.91-.88-3.39,1.6-4.37,7.44-2.93,9.73,4.59,19.65,8.53,29.77,11.84h8.9c.78-4.62-12.65-12.09-15.43-8.08-1.58-1.94-4.29-4.43-5.52-4.79l2.1-10.04c-2.4-3.22.19-5.93,1.65-6.61,6.67-3.12,20.72-2.71,27.84-.17,20.19,10.4,40.5,20.29,60.94,29.69h10.76c.05-1.5.08-3.2-.87-4.32-1.73-2.04-21.32-11.65-25.23-13.12,0,0-1.39.3-4.18.91l.74-1.9c-3.92-11.66-2.07-23.92,5.55-36.76,2.57.75,4.55.34,5.92-1.24.82,6.23,14.23,9.27,19.94,7.14,7.47-5.65,16.3-7.32,26.49-5.04-13.88,8.35-19.95,19.43-18.19,33.25-2.79,4.84-.98,27.76,6.82,18.87l2.07-25.4c1.03-6.66,8.97-17.15,15.1-18.54,2.15-.49-4.57,16.82-9.32,16.46-5.49,7.2-.57,10.47,5.64,5.58l-2.74,22.05,2.75,2.07h5.73l2.98-1.35c2.66-19.96,5.76-39.84,9.27-59.65,0,0,6.17-3.77,18.51-11.3-1.33,10.7-1.76,21.36-1.27,31.98l-3.1,1.88-4.21,35.74,2.56,2.7h5.75l3.21-1.34,8.34-59.38c2.27-3.14,3.93-6.31,4.96-9.5,8.72,3.61,41.43,15.94,44.82,1.33.98-4.22-.82-7.07-3.42-10.18,10.1,3.14,19.51-.14,25.27-8.82,4.59-.7,6.04-2.6,4.36-5.71,2.13-.36,2.3-8.02,1.59-9.31-7.29-13.27-25.85-29.2-38.19-38.06,7.86,4.58,35.66,4.23,33.77-8.46-1.91-12.8-43.29-30.6-57.03-28.31.39,2.39-.77,2.78-3.48,1.15-4.42,2.66-9.08,4.51-13.96,5.55l-5.69-35.58c-.97-4.21-2.5-7.5-4.6-9.87.63-3.02.19-5.06-1.33-6.1l2.57-2.36c-9.32-48.67-19.59-96.87-30.82-144.6-.07-6.25-1.56-10.94-4.48-14.05-1.57-8.89-2.84-17.9-3.81-27.03l-3.19-1.25.66-3.72c-4.1-21.13-10.29-41.69-18.57-61.69l65.96,30.12c6.28,16.51,12.02,33.19,17.21,50.07-4.61,3.89-.49,9.16,2.98,11.96-.63.54-1.19,1.12-1.54,1.8-.56,1.09,2.65,21.71,3.57,24.31.18.5,1.01.78,2.03.98l-1.68,6.34c2.21,15.94,4.49,31.75,6.84,47.44,1.28,2.35,3.07,3.67,5.35,3.98-3.44,1.1-3.61,3.11-.52,6.02l-3.67,1.61c-.31,7.82,14.06,18.08,17.6,8.67,2.5-6.67.85-34.01.31-42.63-.97-15.45-5.53-39.47-8.86-54.86-.15-.71-1.97-.7-3.11-.51,2.42-.93,2.37-1.52-.18-1.76,3.51-2.18,3.05-4.98-1.13-4.22l2.22-2.77c-.76-5.06-6.69-29-8.94-31.61-.61-.71-1.23-1.36-2.15-1.68l2.37-2.7-3.57-11.3c8.9,2.75,12.16,1.82,9.77-2.78l-.42-3.59c-10.16-2.51-16.25-8.18-18.28-17.01l-3.43-.1c-.19-2.73-.89-4.77-2.12-6.11,5.78-10.54-19.44-10.23-15.97.04-2.6-.23-3.91.36-3.82,2.85-28.85-14.6-58.11-28.04-87.76-40.32-21.76-6.77-37.23-7.1-52.47,11.54-.9-11.51,5.86-20.21,15.54-25.58,0,0,2.27-3.03,6.8-9.09,1.15-9.6,5.45-15.52,12.92-17.75-4.93,3.74-1.72,11.83,4.09,10.26l.53,3.42,59.14,23.59c8.94,5.71,17.71,11.72,26.31,18.02,12.06,2.21,2.14-7.89-2.69-12.24-4.08-3.66-12.44-10.71-17.36-9.26-17.29-12.53-35.72-20.34-56.26-27.23-1.11-1.68,18.21-26.28,25.64-28.48,11.41-3.38,49.35-9.63,19.5-3.82-21.85,6.4-16.01,19.39.56,28.53l4.59,6.56c30.26,20.07,54.53,47.57,75.9,76.25,3,4,6.39,7.53,10.19,10.6-1.58,2.16-1.06,4.66,1.56,7.51l.69,2.9c-5.72,3.48,2.68,11.89,5.68,6.33l1.56-1.71c11.49,14.96,21.62,36.72,28.37,54.37,13.51,35.3,15.47,66.22,17.28,103.6,2.66,55.08.61,113.33-1.76,168.75-1.61,37.77-5.82,70.53-10.89,106.28-.12.83,1.31,1.47,2.49,1.73h6.74l2.96-6.24c13.2-80.04,12.66-162.36,11.85-243.44-.02-2.18-.51-4.36-1.02-6.57-.51-2.22-1.23-4.4-2.01-6.56,2.59-1.66,3.24-2.79,0-3.23,2.95-5.29,3.73-11.32,2.35-18.09-.24-12.57-1.73-24-5.43-35.54.69-.84,1.34-1.71,1.8-2.66,2.84-5.84-4.82-34.18-7.2-42.27-6.44-21.91-20.64-57.51-35.4-74.59-1.93-2.23-3.85-3.96-6.89-4.28.66-2.55.43-2.84-1.91-4.5.72-2.75-.17-5.4-2.67-7.95,15.11,5.59,39.31,11.93,53.37,1.28,4.03-3.05,10.93-10.13,6.4-14.44,3.62-.77,4.94-4.15,3.96-10.17l3.23,4.96c-.4,5.07.11,9.94,1.53,14.61,3,1.21,4.91-.36,5.74-4.69l48.29,68.52c22.74,31.58,32.9,72.44,29.61,110.77-12.01,12.42-12.91,18.41-2.71,17.97-1.68,29.85-2.81,60.06-3.37,90.64,1.41,5.6,3.63,11.1,6.66,16.48,10.33,29.29,16.63,63.08,22.05,94.11.22,1.26.93,2.44,1.77,3.6,1.03,13.21,2.34,25.58,3.94,37.13-4.69.99-6.59,2.76-5.69,5.3l-4.73-.97c-16.3,8.17-33.19,16.41-51.65,17.72l-3.6,3.09h34.34c18.48-4.56,27.72-6.85,27.72-6.85l1.85-2.45c5.05-1.66,6.18,4.88,3.57,4.8-4.15,1.98-3.25,4,1.08,4.5h9.41c2.01-2.76,1.96-5.66,1.69-8.86-.86-10.27-1.73-20.46-2.85-30.7-15.73-79.34-23.53-160.95-25.51-241.3-1.47-42.24-8.37-86.71-35.9-120.58,2.76-5.74,1.98-11.88-2.31-18.41,14.42,15.2,28.45,43.11,34.37,63.22,4.78,16.26,8.66,34.69,11.9,50.98,1.99,4.86,9.64,7.79,13.1,3.86.1-.12.2-.34.29-.61-.2,9.1-.76,18.3-1.99,27.9-.36,39.87-.53,59.8-.53,59.8,2.08,8.86,4.08,7.86,5.99-3.02,1.73,3.4,2.69,7.33,2.87,11.77-1.65,13.37.56,30.79,4.58,43.99.39,1.27.77,2.34,1.14,3.26-.32.1-.69.24-1.09.41-5.33-3.84-13.15-1.35-8.81,4.78,1.67,2.36,4.57,1.57,5.43-1.28,1.6.36,2.43,2.08,2.49,5.15.79,6.72,3.06,10.34,6.79,10.86,4.09,13.95,9.75,28.63,15.4,42.27,2.62,6.33,5.76,13.4,9.97,18.52.97,1.54.31,3.04-1.98,4.5l.94,3.09-1.22,3.71c7.14,17.26,10.97,37,3.6,54.51l1.42,1.94c-3.56.65-8.06,6.37-5.68,10.25h15.54l3.25-1.73c4.8-12.07,6.98-26.26,5.41-39.18-3.18-26.22-11.85-54.78-23.15-78.88-8.12-20.95-13.59-42.45-16.39-64.51,14.6,9.91,46.84,28.79,63.61,16.98,41.08-28.93,56.12-66.57,68.57-113.38,8.23-13.14,13.95-26.73,17.16-40.77-1.9-12.14-3.8-24.24-5.71-36.31,3.77-11.38,6.96-22.88,9.57-34.5-1.19-7.85-4.5-14.95-9.91-21.32,9.17-11.86,17.06-24.46,23.69-37.82.71-10.21,2.36-20.15,4.94-29.84ZM142.93,383.28c-32.93,8.33-53.42,15.09-80.27,35.39,3.16-28,21.86-51.16,47.51-61.06,16.51-5.4,32.62-7.74,49.76-4.8,18.28,3.13,35.81,4.71,54.99,6.92-22.71,12.2-46.42,18.87-71.99,23.55ZM354.53,772.82c4.58-14.25,15.74-25.83,22.38-39.4,1.25-2.55,4.48-5.38,7.19-4.47,10.36,23.67,22.17,46.82,34.37,69.46,1.84,3.41,3.16,7.86,2.07,11.53-4.76,15.97,8.01,15.78-5.66,45.57-11.42-17.71-7.46-25.87-32.01-33.32-9.62-2.92-18.02-10.73-24.75-17.91-3.4-3.63-2.77-8.59-8.36-12.31,8.99-4.78,2.87-13.27,4.76-19.15ZM359.31,944.51c7.52-1.77,14.33-2.13,20.6,3.39-6.75,15.52-11.31,20.07-9.8,38.3-39.55-18.36-19.17-13.16-56.48-13.26-9.95-.03-6.83,16.39-10.34,22.31-7.61-4.17-14.75-2.94-23.79-1.67-1.15-7.38,1.17-14.3,3.4-21.36l17.44-55.36c6.81,3.13,9.17,8,13.51,12.11,12.28,11.63,28.53,19.52,45.47,15.54ZM675.28,565.33c-5.26,1.29-4.89,2.94-3.2,7.86.14.42.38.93.67,1.49-5.61-8.69-11.26-17.39-16.98-26.1-3.66-7.39-4.7-15.39-3.1-24l-2.98-3.9c1.53-1.81,1.85-2.03,3.39-1.38,6.84,2.88,13.26,9.9,17.8,15.62l2.19.25c-1.11,3.32-1.66,4.97-1.66,4.97,1.03,3.65,5.58,24.76,3.89,25.18ZM686.74,596.48c-2.46-3.86-4.97-7.74-7.45-11.6,3.02,4.26,6.2,8.47,7.9,10.71.04.05.38-.13.82-.38v1.63c11.04,13.53,19.28,28.05,24.77,43.55-6.98-16.94-19.15-36.8-26.04-43.9ZM720.16,671.78c-.12-.87-.25-1.5-.38-1.83l-3.26-3.39c.52-1.09.99-2.19,1.26-3.34.25-1.08.32-2.36.26-3.77.36,1.77.69,3.55.98,5.34l3.27,3.58c-1,.96-1.84,2.1-2.13,3.4Z"/>
      <path class="cls-138" d="M480.86,969.84c-.53,10.14-2.78,29.45-4.75,40.32h-19.16c-.7-.16-1.36-.36-1.91-.73-1.99-1.36,5.06-45.5,6.44-47.47.82-1.18,7.77-4.68,9.52-5.07,10.86-2.38,10.73,4.26,9.86,12.95Z"/>
      <path class="cls-143" d="M316.19,982.96c1.9-1.46,5.7-1.04,6.65,1.22,5.31,2.47,43.57,21.35,44.34,23.75.22.67.12,1.43-.06,2.23h-34.31l-15.43-8.08c-3.14-2.03-3.44-3.32-.92-3.86-1.42-2.16.11-8.17,1.33-10.46-8.91,4.87-4.79-11.04-1.6-4.79Z"/>
      <path class="cls-40" d="M317.79,987.76c.37,3.55-.61,7-1.33,10.46-.7.01-2.68-.06-2.75-.89,1.46-3.15,2.75-5.98,1.38-9.36,1.19-.46,1.97-.17,2.7-.21Z"/>
      <g>
        <path class="cls-11" d="M340.19,981.78c8.75,3.51,17.94,7.5,25.38,13.44,4.89,1.68,24.93,9.48,27.62,13.28.18.25-.21.9-.75,1.65h-17.73c-7.67-2.48-51.42-23.78-52.23-27.26-.6-2.54,15.51-2.48,17.7-1.11Z"/>
        <path class="cls-99" d="M340.19,980.29c.97.44.95.94,0,1.49l-16.5.5c16.22,9.93,35.48,17.26,51.03,27.87h-7.6l-50.93-27.19c-3.05-4.3,23.69-2.78,24-2.67Z"/>
        <path class="cls-61" d="M398.42,1010.16h-5.97c-.5-1.62-2-2.58-3.89-3.52l-22.99-11.41c-.88-.45-.86-.94,0-1.49,11.34,4.46,22.54,9.98,32.85,16.43Z"/>
        <path class="cls-57" d="M365.57,993.73v1.49c-8.57-4.26-17.27-8.41-25.38-13.44v-1.49c.4.14,26.34,11.94,25.38,13.44Z"/>
        <path class="cls-170" d="M366.76,1000.76c-8.62-2.68-17.37-6.78-25.42-12.86,9.06,2.83,16.84,6.46,25.42,12.86Z"/>
      </g>
      <path class="cls-98" d="M707.77,990.31c-5.3,1.43-9.22-10.9-3.51-12.69-.6-.98-1.58-1.65-2.96-2-2.23-.99-3.1-3.19-2.61-6.61l-1.37-3.47c-13.14,8.24-30.37,15.28-45.92,16.65l-3.62-2.35c-3.39.23-3.52-1.08-.21-2.03-.24-5.36,13.06-10.3,16.64-6.5.47.29,1.09.41,1.63.28.82-.21,1.62-.45,2.41-.75,11.15-4.22,22.22-11.72,32.01-18.46.14-.1-1.91,1.82-3.18.68l-3.25-1.11-6.77-35.42c-7.07-.88-9.11-3.52-6.11-7.94,4.46-.61,5.62-2.72,3.48-6.35-14.47,7.03-16.01-4.11-2.11-9.79l-2.64-14.69c-5.34,7.81-32,39.17-41.67,36.26-6.66-2.01-4.28-7.5.65-10.92,9.73-2.72,30.95-21.34,33.77-30.11.07-.22-1.24-4.54-1.42-4.4-3.76,7.55-12.8,8.83-9.64-1.01-2-2.57-2.6-5.17-1.78-7.78,7-16.76,9.72-34.17,11.39-52.37.51-5.52,1.54-26.95.34-30.72-4.03-12.71-18.95-12.58-30.14-12.05-11.61.55-31.6,6.15-40.14,13.23-1.72,55.09-3.73,110.88-6.03,167.35,5.32,1.61,8.15-.06,8.49-5.01,7.61-2.06,15.45-.3,23.52,5.27,30.75,4.7,4.53,15.93-13.02,13.33-4.1-3.68-18.84-3.72-21.71-1.45-.47.91-1.4,1.3-2.82,1.18,7.09.47,14.08.25,20.98-.66.93-2.24,5.12-1.08,5.18.98.09,3.42-18.53,5.7-22.07,5.35-.63,2.97-2.03,4.85-4.21,5.64l2.38,2.87-.71,18.4-3.14,2.23-.05,3.77c2.55,3.81,4.78,12.94-2.04,13.02h-9.24c13.56-86.87,11.99-175.23,11.78-262.8,5.92-3.04,6.23-3.61.93-1.73l-.94-1.5c-.04-17.95-2.23-35.75-3.08-53.63,2.87-.1,4.54,1.98,5.01,6.25,3.89,1.65,18.45-1.4,23.34-2.47,18.53-4.07,38.18-8.91,56.34-14,1.57-.44,3.23-.46,4.82-.26,1.22-27.93-15.27-52.4-31.81-73.53-14.02-16.17-27.49-32.89-40.41-50.13-3.32-1.37-5.46-2.34-2.46-5.75.16-1.28.63-1.27,1.39-.11,3.23-2.7,2.01-7.46,4.03-12.41l32.66,47.07c13.59,19.59,27.52,37.93,36.92,60.19,10.1,23.92,14.73,50.38,14.01,76.25-.23,8.05-9.89,12.72-12.26,19.15,2.63.05,4.98-2.55,8.81-3.22l-2.42,53.2c-.75,16.46-2.59,32.27-.78,47.27,8.86,9.89,17.16,49.99,19.91,63.87,5.56,28.11,11.94,55.48,14.1,84.21-1.48,2.59-6.58,3.17-8.68,4.23Z"/>
      <path class="cls-6" d="M716.52,666.57c2.76-2.86,4.38-1.12,5.77,1.81,1.02,10.17,1.46,20.02.88,31.27-1.76,34.32-3.24,67.93-1.99,101.65l2.33-31.92c2.57,12.28,2.45,23.61,3.35,34.81-.89.31-1.58.63-1.61,1-1.01,12.52,3.3,34.43,6.24,46.66-2.44.25-5.12-.81-7.62,2.11.87,1.46,2.79,1.09,4.24,1.39l1.83.75c4.76,19.5,11.28,38.5,19.58,57,.65-.3,1.3-.53,1.96-.56,1.66-.07,9.48,18.39,10.29,21.29-.48-.85-.07-1.38.99-1.68.39,1.2,2.53,3,1.3,4.93-.54.85-1.13,1.93-2.34,2.67l-2.88,1.18c7.91,18.65,12.51,37.63,5.35,56.8l1.33,2.18c-.74,4.12-2.89,6.91-5.68,10.25h-26.94c-1.75-7.24-2.62-14.87-2.61-22.9-6.24-42.24-13.01-84.71-20.29-127.42-3.17-56.93-6.77-113.47-10.78-169.62l-1.04.4c-.76.04-1.49,0-2.08-.29-.99-.49-4.8-19.77-1.94-20.73-1.21-18.63-11.01-35.66-21.18-50.87l-1.82.66c-2.91-4.86-5.56-8.42-7.97-10.67-.5-.9-2.73-1.82-3.14-3.9-.19-.98,1.56-.98,3.01-2.15-3.64-8.62-8.22-15.93-8.72-25.42,28.94,35.84,41.59,56.6,49.74,102.22,1.32,7.42,6.47,13.91,5.66,22.4-.34,3.57,3.86,5.54,5.95,5.22,3.2-.49,4.81-2.36,4.37-6.02l-1.96-16.39c-.78-6.49-.24-12.4-1.56-18.1Z"/>
      <path class="cls-144" d="M571.39,919.07c-.25-1.23.68-1.99,1.4-1.19,3.12,3.45-7.51,87.59-10.11,92.28h-80.82l8.64-61.38c.55-3.91,5.33-6.15,5.27-9.63-1.14.84-2.12,1.08-3.14,1.52-1.38.6-.69-3.77.55-4.9,13.35,1.73,29.19,13.05,42.48,8.59,2.37-.79,4.28-2.34,4.69-3.88,1.83-6.93-9.37-10.56-15.46-17.54,12.78,3.4,26.26,13.56,37.76-2.42,1.44-2,6.03-1.33,6.75-3.96,1.03-.24,1.7.6,1.99,2.52Z"/>
      <path class="cls-127" d="M704.25,977.61c-.67,4.58,1.47,8.68,3.51,12.69-18.52,9.32-39.18,19.85-59.98,19.85h-61.99c4.38-4.4-1.6-5.18,2.04-13.02l.41-1.88c39.28,3.11,76.94-1.76,113.87-18.44l2.13.81Z"/>
      <path class="cls-17" d="M732.9,1010.16h-2.99c-.66-27.98-4.5-55.34-10.58-83.69-9.71-45.24-12.93-89.47-15.15-135.77l-2.94-61.43-1.71-22.29c-.41-5.31-.46-11.68-1.36-16.36.64-1.44-.58-3.4,1.56-4.57l3.05,26.89,1.38,16.48,4.89,107.53c1.4,30.81,7.72,59.61,13.02,89.72l7.1,40.32c2.59,14.72,3.81,28.96,3.72,43.17Z"/>
      <path class="cls-94" d="M519.37,717.49c3.34.96,5.55,4.37,7.11,7.72.9,1.94,7.81,2,7.82.05.08-15.72,2.13-28.81-.55-45.25l-8.45-51.86c1.84-2.95,18.52-4.88,19.94-3.72,1.72,1.41,3.92,15.23,3.48,17.94-3.31.62-5.28,2.28-5.9,4.99l11.24,68.72c-.02,1.1-11.98,16.94-13.17,17.6-4.91,2.73-33.27,5.73-40.46,5.69-2.12-.01-17.24-11.15-18.59-13.13l-11.68-67.95-3.26-3.85c-6.31,2.12-7.88-17.68-6.99-18.29,1.9-1.29,32.5-6.24,34.19-5.57,1.11.43,4.3,16.44,3.85,17.39-3.34,1.25-5.29,3.25-5.84,5.99l9.29,59.93c3.27,4.2,8.97,4.92,17.12,2.15l.83,1.44Z"/>
      <path class="cls-131" d="M588.34,747.35v-3.23c2.6.79,4.74-1.24,7.4-2.44l34.95-15.87,11.05-4.23c-.43,3.91-3.93,3.12-6.38,4.36-15.81,7.92-31.23,15.08-47.01,21.42Z"/>
      <path class="cls-145" d="M697.08,953.06c-8.17,8.27-21.15,15.85-32.87,18.25-5.15,1.73-11.95,4.08-16.64,6.5-3.33,3.29-7.85,4.76-13.54,4.39-9.61,6.13-28.72-5.6-10.22-10.34,3.8-5.98,9.76-7.81,17.86-5.5,12.54-3.76,10.64-4.14-5.7-1.14-11.47-1.78-21.87-.41-31.18,4.13l-12.81,2.92-2.63-2.41c.69-2.4-.32-5.42,1.04-8.45l21.61-1.25c2.52-1.5.78-2.8-1.55-2.27-5.66,1.08-12.99,1.72-18.17-.51-5.32-7.36,24.25.44,34.54-1.09,4.12-.61,7.78-3.97,13.12-3.63-4.95-5.33-10.5-2.49-15.3-4.9-5.79-2.9-11.6-6.52-18.45-6.06-2.25.15-.22,4.36-.87,5.45-3.21,1.72-8.47,2.05-13.46.3,2.85-31.05,2.05-61.05,3.34-91.78l2.61-62.1c.25-5.98-1.76-14.98,1.87-19.52,6.14-5.46,15.97-4.73,22.64-8.92,4.09-2.57,8.17-1.38,12.02-2.41,7.77-2.06,14.14-.71,21.33-.04,6.3.58,9.61-.73,13.47,5.83,1.77,3,5.54,5.01,5.43,10.42l-.44,22.53c-.27,13.66-1.17,26.56-5.63,39.72-2.21,6.52-2.53,13.38-6.15,19.65-.75,1.3-.04,3.37.95,3.83.71.33,1.73-.38,2.95-.48-.59,3.55-3.9,5.44-2.95,8.66,6.84-5.49,8.27-13.47,13.91-19.27,1.76-1.81,4.49,3.19,4.43,5.17-.19,6.62-6.56,6.14-7.87,10.15-.28.86,2.96,2.95,2.28,4.02-7.93,12.4-18.71,23.68-31.23,31.27-3.08,1.87-8.53.61-7.84,6.98,8.91.8,25.37-16.7,30.54-23.11l13.93-17.29,4.34,24.17c-5.47,1.78-9.34,2.97-11.19,7.9l11.73-4.59c1.15,4.28,2.99,8.01,2.39,11.96-3.34.1-6.68-.91-6.73,2.6l7.41.13,7.67,40.15Z"/>
      <path class="cls-72" d="M647.57,977.81c-.45.72-.74,1.58.21,2.03l.91,2.31c4.87.65,10.31,3.8,6.67,8.44-.44.85-.94,1.58-1.62,1.87-12.17,5.11-49.62,3.65-64.05,2.85-.64-.04-1.23-.87-1.81-1.94.7-7.86-.7-15.91,1.47-23.5,9.65-2.6,13.29-1.8,20.3-6.15,8.02-4.98,21.19,2.23,41.03-4.24,3.79-1.23,18.41-4.15,20.49-2.1.35.34.1,1.99-1.02,2.22l-9.87,1.96c-6.55,1.3-12.4,7.68-19.87,7.92-3.4.11-9.15-3.03-11.43.87-2.6,4.45-5.15,5.34-12.06,6.74,19.39,9.1,7.68,1.4,21.87,1.81,2.5.07,6.43-1.44,8.77-1.08Z"/>
      <path class="cls-117" d="M701.3,975.62c.07.81.07,1.46-.16,1.56-12.66,5.23-30.81,12.14-43.97,14.48-.52.09-1.15-.4-1.81-1.07-1.42-4.82-6.62-6.03-12.26-6.63.98-2.33,3.58-2.35,4.68-4.11,20.91-3.97,31.23-5.81,50.82-18.67,3.37,4.89,3.82,9.93,2.7,14.45Z"/>
      <path class="cls-28" d="M704.25,977.61c-19.95,6.46-45.42,18.16-68.84,18.61l-47.58.91c-.97-.27-2.35-.51-2.74-1.29-.42-.85.1-1.61.77-1.91.55-.25,1.23-.4,2.02-.56,27.47,1.87,39.96,3.93,67.47-2.78,6.39-1.56,13.08-2.67,19.82-5.19l26.12-9.78c3.51-1.31,5.72-5.06,10.98-4.08l-8.03,6.08Z"/>
      <path class="cls-154" d="M664.21,971.31c11.95-4.02,22.64-11.04,32.87-18.25,2.82-1.99,6.47-4.8,10.83-5.19-1.38,3.22-44.97,30.45-43.7,23.44Z"/>
      <path class="cls-76" d="M592.29,957.38c6.01.9,12.1.4,18.17.51,3.07,2.64-19.84,1.18-22.55,1.33.99-2.31,3-1.31,4.38-1.85Z"/>
      <path class="cls-160" d="M694.16,669.6c-3.49-18.24-11.6-35.01-21.18-50.87,9.88,12.04,23.74,36.52,21.18,50.87Z"/>
      <g>
        <path class="cls-41" d="M600.08,550.59c.2,2.78,3.18,1.81,4.68,3.84,7.48,10.12,14.6,19.69,22.96,29.31,23.09,26.54,54.34,63.05,49.68,100.03-5.94-2.46-9.04.68-13.05,1.46-12.85,2.49-24.86,5.31-37.29,8.61-13.49,3.58-26.12,7.45-40.42,5.51,1.21-3.37-1.23-6.51-1.38-8.87-2.73-41.16-22.63-91.48-47.7-123.8-3.46-4.71,6.13-1.39,6.21-.89.07.46-7.54-1.73-8.12-3.6-3.85-3.4-7.98-8.19-9.49-14.01,20.91,9.5,58.54,19.64,66.59-7.09,4.63-7.86,10.24,3.6,7.33,9.5Z"/>
        <path class="cls-187" d="M537.56,566.69c-1.03-1.33-2.17-2.66-1.91-4.5,13.93,4.35,27.87,6.99,43.77,6.03-6.31,6.34-32,1.12-39.72-2.74-1.23-.61-2.86-.21-2.14,1.21Z"/>
        <path class="cls-58" d="M646.25,683.11c-16.18.31-23.54,13.87-33.9,3.71l26.12-6.79c5.98-1.55,12.16-2.7,18.5-2.06-1.98,4.68-6.81,5.07-10.72,5.15Z"/>
        <path class="cls-40" d="M592.5,563.5c.91-2.01,2.49-3.01,4.17-4.43.94,2.55-.02,4.68-4.17,4.43Z"/>
      </g>
      <path class="cls-177" d="M519.37,717.49c-3.57-1.03-17.79,6.4-19.53-4.45l-10.05-62.59c1.97-1.91,4.32-1.92,6.47-3.33l-2.63-15.24-32.51,4.96c.24,5.89,1.03,10.47,2.42,15.52,2.61.68,4.66.1,7.6.52l11.85,72.61c5.65,4.08,11.23,10.12,17.6,12.61,12.91-1.19,26.08-2.38,38.69-5.19,5.72-3.87,8.87-11.63,13.32-17.16l-12.23-72.56,7.39-2.09c-1.17-5.23-1.62-10.36-3.58-15.33-6.84-.86-12.72,1.96-18.88,2.39-3.67-4.43,18.27-6.01,21.37-4.96,2.3,6.42,2.87,12.8,4.43,19.54-2.08,1.73-4.18,1.87-6.72,3.56l11.33,69.88-14.11,19.04c-14.11,2.04-27.49,4.92-41.54,5.49-7.16-2.52-13.26-9.56-19.88-14.01l-10.99-64.65c-2.61-15.36-9.53,6.02-10.52-27.25,12.49-2.79,24.08-5.36,36.83-5.5,2.56,6.41,3.08,12.72,4.18,19.51-1.15,2.14-5,2.2-5.92,4.43l8.85,59.98c.94,6.34,17.28-.21,19.87,1.66-.8,1.55-3.02.91-3.12,2.63Z"/>
      <path class="cls-70" d="M506,613.04c1.44,3.47,1.83,8.32,2.98,11.96-1.04.19-1.86.58-1.85,1.36.12,7.33,2.07,19.89,5.91,25.74,3.84,16.25,5.05,32.86,6.83,50.22.3,2.88,4.72,4.55,3.69,7.54.02,1.14-.05,2.49-.92,3.11-.71.5-16.49,1.06-17.23.6-2.58-1.61-8.21-53.11-8.84-59.93,8.94-1.71,3.17-24.17-1.42-26.39-1.83-.89-37.12,4.92-38.62,6.66-1.1,1.26,1.21,27.89,9.07,24.47l1.68,2.39,11.11,66.15c3.54,4.02,16.61,15.29,21.53,16.16,3.6.64,42.03-5.17,43.66-6.67,1.45-1.33,13.92-18.71,13.97-19.92l-10.59-66.58c.24-2.11,1.95-3.7,5.11-4.77.67-8.05-.76-16.11-4.28-24.18l1.19-2.2-3.89-1.04c-7.41-9.98-16.21-18.91-26.41-26.8l-3.54-4.81c-1.31-5.62-4.36-10.96-4.69-17.67,5.88-1.43,11.29,5.48,13.26.89,2.77-3.04,3.65-2.64,3.38,1.49-.01,3.66,2.93,5.7,5.68,6.33,12.22,17.57,22.77,37.82,28.92,58.23.87,8.07,3.03,16.36,6.48,24.87,3.96,15.86,5.61,31.96,4.96,48.3,1.49,4.02,2.99,34.25,2.99,40.32-1.3,25.34-1.26,52.28,0,77.65,0,5.92-.89,11.61-1.01,18.1l-.87,44.46c-.12,6.15-.1,12-1.04,18.18l-1.81,11.84c-1.16-.05-2.17-1.35-1.99-2.52.31-2.13,1.15-5.14-.84-7.6-10.68-13.19-21.28-26.79-35.55-36.22-6.58-4.34-15.22-2.74-22.49-6.71,6.72-9.41,20.67,2.72,39.82,3.18,4.92.12,14.29-3.88,13.31-9.26-9.74-12.6-25.79-18.03-40.14-22.94-17.86-6.11-16.16,3.18-33.84,5.75l-7.85-49.09c-.13-2.23-.57-4.27-1.33-6.1l-26.46-129.79c-2.25-11.01-5.89-20.8-6.27-31.22-2.77-16.32-4.28-32.75-4.51-49.29-1.09.47-2.86.89-3.21.19-2.09-4.2-12.51-31.25-11.33-34.02,1.14-2.69,2.81-3.26,5.63-2.66,18.8,9.72,37.58,19.38,56.33,28.98,0,0,5.12,14.43,15.36,43.29Z"/>
      <path class="cls-16" d="M574.62,698.08l1.49,8.96c-.59,5.4.98,10.67,1.12,16.58l1.04,46.9c.24,11.01.3,21.82.01,32.86l-1.5,58.26-1.45,40.32-1.53,26.68c-1.64,28.57-3.79,54.3-9.63,81.53h-1.49c.59-14.79,4.6-29.21,6.3-44.73.58-5.26,3.64-54.43,2.41-46.36l-.85-1.74c.41-29.14,1.25-58.39,2.52-87.76l3.06-3.08c-1.29-25.44-1.26-52.22,0-77.65-1.17-.05-2.87-.35-3-1.22-1.33-9.21-2.5-27.35-2.49-36.71l2.51-2.38c-1.07-1.93-1.22-17.13-.36-17.27.55-.09,1.19.31,1.85.85v5.97Z"/>
      <path class="cls-108" d="M548.98,618.75c3.84,8.15,5.11,17.29,6.51,26.97-1.74,2.02-5.34,2.4-6.47,4.68l10.4,66.65-15.1,22.35-45.38,6.44-21.9-15.93-11.35-68.89-7.79-1.31-4.96-28.3,46.21-6.86c2.47,9.46,3.65,18.62,5.11,28.22-1.46.7-6.66,1.56-6.35,3.56l8.7,55.42,16.94-1.91c-.6,1.74,1.41,4.34.42,6.55-.77,1.7-2.98,1.05-4.6,1.08l-.65-1.43c-8.33,2.77-14.13,1.94-17.39-2.49-3.47-20.72-6.52-41.47-9.13-62.24,9.29.92,3.46-19.94,2.41-20.51-1.62-.88-32.69,3.68-34.71,5.1-.71.5,1.39,15.34,2.66,17.12,4.93.7,7.49,2.5,7.66,5.4l11.32,67.38c1.21,1.97,16.55,13.53,18.7,13.54,11.29.01,29.79-2.53,40.63-5.62,1.09-.31,12.9-16.5,13.19-18.31l-11.56-69.9c10.73-1.98,5.84-14.8,1.44-21.22-6.97-.54-13.19.74-18.65,3.84-.25-1.54-.79-4.51-1.31-5.98-.72-3.51-.5-3.65,2.43-4.39,5.37-1.35,19-2.97,22.56.97Z"/>
      <path class="cls-111" d="M506,613.04l-16.33-39.31c-2.17-5.22-9.44-5.81-14.17-8.26l-44.13-22.85c-.1,5.98,12.23,36.08,11.85,34.64.19,6.77.67,13.67,1.45,20.68-.13,3.07-2.09,2.89-3.94.32-6.62-24.15-13.36-47.94-24.52-71.73l38.06,17.43c12.41,5.68,24.32,10.75,36.61,17.08,6.17,17.53,12.67,34.31,15.11,51.98Z"/>
      <path class="cls-60" d="M548.98,618.75l-22.04,1.96c-1.44.13-2.38.88-2.95,1.46-3.09-8.75-6.56-26.23-8.86-36.07,2.13.08,4.08,1.2,5.95,2.97,11.77,11.17,22.22,17.62,27.89,29.67Z"/>
      <path class="cls-144" d="M481.8,793.67c-1.49-1.49-.95-4.24-1.33-6.1,3.92,1.34,6.97,4.72,9.44,8.61,4.98,7.83,17.46,18.85,21.65,30.27.42,1.14-3.84,1.8-3.91,2.78-.09,1.13,2.37,3.05.63,4.89-3.66-3.47-3.2-9.12-5.2-13.5-3.81-8.32-16.64-17.19-19.63-30.21-2.1.72-1.16,2.22-1.65,3.26Z"/>
      <path class="cls-42" d="M447.74,626.55c-2.9-.89-.45-5.41-1.66-7.46-4.14-7.01-3.5-14.09-5.34-20.83,5.87,2.12-2.27-22.62,2.5-21,4.29,15.98,3.9,32.81,4.51,49.29Z"/>
      <path class="cls-20" d="M508.98,625c2.73,8.68,1.99,18.38,4.06,27.1-.17.3-3.32,1.42-3.52.5-.82-3.92-9.69-38.41-.54-27.59Z"/>
      <path class="cls-144" d="M574.62,692.1c-2.75-2.22-.99,17.78-1.49,16.43-.93.15-1.79-1.44-1.68-2.97,1.54-21.84-2.5-42.6-10.1-63-1-2.69-1.75-5.8.34-7.2,5.6,18.58,12.93,37.18,12.93,56.74Z"/>
      <path class="cls-144" d="M576.11,707.04c-2.8-1.9-1.49-5.99-1.49-8.96,2.37,1.84,1.81,6.07,1.49,8.96Z"/>
      <path class="cls-144" d="M576.11,826.49c-.55.18-1.49-.53-1.49-1.61v-74.42c0-1.08.94-1.79,1.49-1.61v77.65Z"/>
      <path class="cls-4" d="M533.95,754.91c.36-.96,2.92,1.14,2.09,1.87-.43.38-.91,1.19-1.27.97-.8-.49-1.81-1.6-.83-2.84Z"/>
      <path class="cls-156" d="M56.09,575.63c-2.1-1.77-.81-5.07-1.2-7.54.9,2.94,1.65,4.02,1.2,7.54Z"/>
      <path class="cls-135" d="M480.86,969.84c.14-2.65-1.05-8.64-3.86-10.06-4.21-2.12-9.1,2.35-13.38,3.86l-6.69,46.52h-5.57l9.15-62.42c7.56-5.59,15.06-10.74,25.25-14.65-.84,13.17-2.34,25.1-4.91,36.75Z"/>
      <path class="cls-106" d="M404.39,1010.16h-5.97c-11.17-4.77-22.16-10.65-32.85-16.43-8.9-3.81-17.36-8.29-25.38-13.44-4.93.79-10.44,1.1-16.51.91-1.17,1.75-3.67,2.34-7.49,1.77-.58-.04-.99.11-1.25-.07-.77-.52-1.99,1.03-1.62,2.33l4.47,2.53c-1.25,3.32-2.33,7.06-1.33,10.46.22,1.31.47,2.62.92,3.86-2.45-1.28-5.6-1.53-7.75-4.02,1.2-6.72,1.59-12.31,4.05-19.79,9.27.29,21.5-3.19,30.27,1.11,20.89,10.26,41.13,19.67,60.44,30.77Z"/>
      <path class="cls-65" d="M323.91,1010.16h-10.43c-6.91-2.23-13.7-4.9-20.38-8.02l-6.4-.89c-1.45-.7-3.63-.28-4.65-3.66,4.84-2.21,11.4-2.77,16.75-.03,8.67,4.44,17.79,7.17,25.11,12.6Z"/>
      <path class="cls-171" d="M296.88,1010.16h-16.61c-.72-4.37-7.33-3.46-5.34-7.99.32-.72.43-1.6,1.81-1.82.84-.14,2.29.45,3.45,1.06l16.7,8.76Z"/>
      <path class="cls-115" d="M313.48,1010.16h-8.89c-5.03-4.37-11.89-6.03-17.89-8.91,2.57-5.26,23.95,6.43,26.78,8.91Z"/>
      <path class="cls-148" d="M238.15,1010.16h-4.13c1.13-4.81.7-10.83,6.47-14.29,1.52,5.79-2.49,9.57-2.34,14.29Z"/>
      <path class="cls-93" d="M264.03,1010.16h-22.4c.32-1.77,1.98-3.03,4.43-3.03h13.54c2.45,0,4.11,1.26,4.43,3.03Z"/>
      <path class="cls-180" d="M467.43,756.28c6.93,29.24,12.04,58.82,17.57,89.2-7.57,3.13-12.81,6.9-19.64,11.39l-17.54-90.19c-2.8-14.41-6.75-27.83-7.44-41.66l-2.3-16.77c.48,2.63.12,4.25-1.09,4.88-1.27-2.65-.61-5.19-1.39-7.85.3-5.26-.51-10.63-2.43-16.09-.84-5.95-1-9.47,5.61-4.78l14.14,63.38c3.61,4.44,8.44,7.27,14.51,8.49Z"/>
      <path class="cls-150" d="M452.5,677.17c4.78,19.63,8,39.69,11.7,59.6.16,5.71,1.16,11.23,3.01,16.55.03.95,0,2.04.23,2.96-.16.65-.03,2.68-1.11,2.89,2.86-.54-14.49-1.96-16.7-11.96l-13.97-63.15c-4.68,4,5.68,17.02-.04,21.22-4.72-16.06-6.34-32.97-10.3-49.1-.31-1.53.09-1.87,1.47-1.07,1.19.53,2.3,1.41,3.33,2.65.68-1.27,1.74-1.91,3.08-1.42,1.37-8.1,4.7-11.08,9.98-8.95.82.04,1.47.12,1.54.37,1.84,6.83,7.37,29.46,6.79,35.21-.03.32-.77-6.02,1-5.81Z"/>
      <path class="cls-172" d="M417.61,544.07c3.72,6.69,5.27,14.06,7.64,21.23-1.5,1.8-2.32-2.4-2.26-2.2,8.17,26.9,16.56,55.33,21.38,83.04.06.34-.48.79-1.19,1.26-11.05,4.91-1.19,8.32-10.72,14.87-1.21-1.46-.2-4.12-2.35-4.51l-1.2-.45c-3.65-17-7.52-33.98-11.62-50.93l.58-2.38c-3.11,1.29-3.56-.2-1.33-4.48-6.2-20.16-13.2-40.08-21-59.74v-4.03c1.36-6.57,6.75-5.7,11.64-2.84l10.43,11.16Z"/>
      <path class="cls-43" d="M293.91,912.16l-20.4,68.21c-7.2-.29-14-.33-19.34-3.93-2.51-1.69,2.28-5.21.17-7.91-.57,2.32-.31,5.65-4.31,7.03.59-8.21,3.78-15.59,6.44-23.66l17.12-52.02c2.72,1.19,1.96,3.24,1.43,4.97l-12.63,41.23c5.29-5.93,4.33-13.59,7.64-20.66,3.54-7.55,3.8-15.95,8.73-22.84l15.16,9.59Z"/>
      <path class="cls-92" d="M267.93,1003.19c-7.48,1.15-13.96.58-20.95-1.32l5.02-21.67c7.36.73,13.71,1.86,20.66,3.87-.63,6.44-2.94,11.9-4.74,19.12Z"/>
      <path class="cls-81" d="M425.25,565.3c9.94,30.08,16.98,61.1,22.91,92.94,1.29,6.94,2.84,12.81,4.33,18.92-.55,1.64.52,3.76-1.15,6.05l-8.17-35.83-6.95-30.48-14.18-54.57c2.52-.25,1.7,2.72,3.21,2.95Z"/>
      <path class="cls-71" d="M244.5,998.6c-.87-6.98.28-14.71,5.15-20.47.03,7.28-.3,14.04-5.15,20.47Z"/>
      <path class="cls-150" d="M440.39,725.02c-3.4-2.98-1.66-8.29-3.39-11.89.49-1.72-.59-3.76,1.05-6.22.64,2.16,5.63,17.7,2.34,18.11Z"/>
      <path class="cls-180" d="M467.2,753.32c-4.28-4.23-2.92-10.88-3.01-16.55.99,5.35,2.83,10.91,3.01,16.55Z"/>
      <path class="cls-56" d="M430.11,657.76c-.38,1-.19,2.15-1.52,3.14.3-2.84-1.63-4.2-1.81-5.79-1.57-14.49-6.18-28.47-8.98-43.48-.5-2.7-3.43-6.38.08-7.62l12.24,53.76Z"/>
      <path class="cls-85" d="M722.71,517.21l-.25,3.5c-12.51,10.06-18.76,15.1-18.76,15.1,16.57,34.85,34.89,69.4,54.95,103.64,2.13-6.66,5.49-10.53,10.1-11.63,2.41-4.73,6.16-9.15,11.27-13.27l2.98-11.65c.38-8.51,2.16-16.18,5.37-23.01,2.05-4.46,6.95-7.56,10.84-11.65-21.03-30.75-17.33-68.37-4.8-101.44,5.41-14.29-.64-34.06-1.43-55.5-.5-13.71,9.54-24.73,23.82-25.01,25.48-.51,41.43,29.96,39.53,55.88l37.64,9.29c15.51,3.83,15.5,16.74,20.02,27.61,5.16,12.42,9.23,21.03,8.08,35.58-.77,9.72,1.5,19.44-2.22,30.08-2.4,6.86-.65,15.09-4.75,22.16-5.91,10.19-11.68,20.13-19.6,29.58,9.06,11.78,10.85,24.9,5.09,38.04-10.2,23.3-6.29,17.44-1.93,39.72,6.57,33.58-12.13,35.63-22.42,77.79-9.29,38.09-30.05,71.21-61.68,94.59-16.69,12.33-43.4,2.7-61.24-7.21,4.51,30.73,21.46,56.03,27.62,84.92l9.19,43.03c4.41,20.66-3.04,26.65-4.94,42.79h-9.78c2.4-19.94,10.05-19.88,4.97-44.34l-7.76-37.32c-2.99-14.36-11.02-26.58-15.73-40.52-7.63-22.55-14.43-44.72-16.53-68.74,15.31,11.34,49.5,32.31,66.15,21.1,28.85-19.43,48.64-49.12,58.23-82.21,3.43-11.82,5.99-22.94,10.97-33.92,4.47-9.85,11.45-18.22,14.18-28.9,5.09-19.98-10.54-32.54-2.34-53.55,8.85-22.66,11.53-24.82-3.39-45.15l19.93-28.88c5.09-7.37,6.17-15.19,5.93-24.15-.15-5.72,4.07-11.31,3.44-17.22-.76-7.17-2.36-13.56-1.05-20.97.98-5.56-1.01-11.13-4.34-15.2-9.28-11.33,2.42-26.02-21.78-31.08-13.59-2.84-26.29-7.17-40.02-8.1,3.35-22.46-1.59-45.28-22.36-54.35-8.27-3.61-19.66,1.07-20.91,10.25-2.98,22,8.37,44.36-.09,64.25-3.69,8.67-5.33,17.68-7.33,26.93-9.67,44.7,16.17,67.91,14.6,73.36-1.36,4.75-13.68,4.65-14.85,22.17-.6,9.01-1.35,19.06-5.69,26.95-6.2,11.26-22.25,8.64-21.89,48.38-5.45-2.05-9.17-6.49-12.33-11.52-18.02-28.7-34.22-57.68-48.97-88.28-6.63-13.76-12.69-26.67-21.1-39.42,11.27-5.66,21.43-10.87,30.11-19.23,25.43-24.48,30.42-61.14,12.98-91.66-7.45-13.04-16.16-23.84-24.49-36.51-4.62-7.03-8.63-18.09-4.86-26.07,3.21-6.79,10.97-11.18,16.48-15.62,29.7-23.93,40.01-61.06,26.92-96.83-12.46-34.06-23.09-46.13-33.62-84.4l-10.28-37.38c-7.22-26.23-35.68-37.17-59.86-43.48l-3.37-20.55c-2.5-15.27-10.85-29.58-24.14-38.32-39.33-25.86-93.83,6.54-110.03,6.84-29.49.56-58.08,1.92-86.32,11.64-19.44,6.69-38.5,14.49-55.26,27.21-30.67,23.29-54.43,55.07-68.44,90.91-22.84,58.42-1.17,130.36-60.52,157.7-36.8,16.96-61.87,7.76-97.6,9.52-35.22,1.74-64.93,20.69-81.88,51.45-11.27,20.46-15.24,43.16-8.56,65.86-27.44,39.42-37.33,100.54-2.79,137.97,1.27,1.38,7.64,3.64,7.06.99-6.45-29.35-3.11-59.49,14.09-85.29-6.87,30.26-1.46,59.67,18.94,81.87l22.79,24.8c4.64,7.04,9.38,14.95,7.42,23.88-1.72,7.82-8.99,13.27-16.37,16.4-18.71,7.95-39.56,4.79-57.71-3.8-10.03-4.74-16.69-12.35-27.2-18.21,8.82,31.02,31.25,53.64,57.78,68.62,41.58,24.2,112.46,31.44,151.82-3.19-12.25,25.43-38.97,39.61-67.47,36.98,7.31,16.64,50.79,19.74,67.28,14.95-7.06,15.98-14.55,30.36-19.98,46.14-7.35,18.77-3.77,37.51,8.06,53.26,17.21,22.9,37.19,41.93,60.5,58.93l-31.37,94.79c-2.22,6.72-9.29,12.12-8.08,20.25h-9.58c-.8-9.74,6.09-16.8,8.96-25.46l28.65-86.38c-21.23-16.06-38.79-33.82-55-54.13-13.33-16.7-18.51-36.67-12.98-57.77,2.89-13.13,10.09-24.17,14.65-37.62-19.86.3-62.28-6.86-61.92-31.08-58.42-1.57-120.32-35.33-139.34-91.98-1.94-5.77-.12-11.55,4.41-14.05,4.13-2.28,9.29-1.52,13.29,2.18,13.49,12.45,29.54,21.71,48.36,22.76,11.91.66,25.87-1.58,33.03-11.45,3.84-5.3-.73-13.72-4.53-18.01l-28.06-31.64c-6.3-7.1-8.47-16.05-13.29-24-.65,6.15-.54,11.82.92,16.57l1.2,7.54c-.68,5.39.39,11.14-5.65,14.11-3.69,1.82-9.71,1.85-14.27-2.04-39.65-33.85-32.23-106.6-4.27-147.7-4.12-23.46-1.44-45.78,9.43-66.32,9.41-17.78,21.91-33.53,39.51-43.99,53.28-31.67,90.39-1.35,141.79-22.18,61.56-24.95,32.93-98.67,64.63-165.96,14.72-31.24,35.46-58.78,62.37-80.36,39.84-31.95,101.13-46.06,151.7-43.61,20.13-6.74,39.25-12.8,60.01-16.49,14.31-2.54,28.1-.39,41.6,4.41,28.58,10.18,40.16,36.22,43.67,65.39,22.97,7.2,52.76,20.47,59.81,45.77,6.08,21.84,11.34,43.23,19.14,64.57,6.21,16.97,14.14,32.03,21.47,48.55,21.5,48.42,8.55,93.4-33.68,124.42-22.92,16.84,24.18,40.61,33.28,87.89,5.44,28.27-5.27,54.7-23.93,75.13Z"/>
      <path class="cls-101" d="M365.65,159.17c-11.06,17.81-18.37,37.63-26.2,57.35-3.36,8.47-4.76,16.45-6.91,24.5-.71,2.67-.26,4.78,1.34,6.32l-6.74,22.11c9.38-4.81,18.51-10.13,27.38-15.98l3.36,1.44c3.27,2.34,2.52,4.65.25,7.46-16.8,12.95-19.38,17.22-7.73,12.83,7.72-4.4,15.84-7.71,24.34-9.92l2.87,2.62c-.46,1.58-.59,3.63-.41,3.58,4.69-1.36,16.46-11.22,20.78-14.95,19.17-16.56,34.97-37.31,46.26-59.79l2.16-.38,3.04,2.61-1.15,13.66c3.33-1.44,6.82-2.68,10.47-3.72,6.61-11.1,13.13-12.91,19.57-5.43l-.78,3.41c-8.74,7.93-20.57,12.34-27.04,23.45,8.33-4,12.28-11.88,22.08-14.45-4.79,12.38-14.06,21.97-22.19,32.43-7.95,10.22-14.53-3.09-18.38,4.05,2.49.16,8.67,3.61,7.8,6.51-1.22,5-34.82,31.91-39.13,35-20.9,15.01-41.7,28.3-61.64,44.66-21.51,17.64-37.18,40.58-42.42,68.34-1.38,7.32,1.43,14.33-1.48,21.94-16.46-34.25-13.47-56.05,8.08-83.25,3.69.68,3.21,3.17,1.94,6.28,18.94-25.38,44.81-41.39,70.64-57.34-4.3,2.32-8.5,3.9-13.3,2.28,5.07-6.03,13.72-7.7,17.95-15.75-37.79,23.69-82.32,47-100.17,91.23-3.51-15.66.5-30.24,4.77-44.87,4.49-15.37,16.4-25.89,27.21-38.56-14.31,5.29-21.09,18.52-30.02,29.34-2.81,3.41-7.91,5.38-11.34,8.88-41.6,42.59-94.43,5.63-149.82,17.53-33.44,7.18-65.72,36.49-66.05,72.78-.06,6.55-1.5,12.69-6.6,16.84-2.77-7.53-1.98-13.8-.64-21.21,5.69-31.56,25.8-59.78,56.55-71.88,16.04-6.31,34.72-8.84,50.7-6.1-.28.61-.48,1.09-.43,1.1,26.11,4.79,55.8,2.13,80.38-7.99,28.56-11.77,45.08-28.4,61.9-52.4,4.31-3.62,7.95-8.76,12.62-14.06-8.52,2.76-19.22,16.84-28.56,22.29l-1.57-1.01,6.21-15.86c7.37-26.34,13.03-53.05,16.98-80.12.45-5.12,2.51-8.45,6.2-9.98,2.86-2.61,4.23-1.04,4.48,2.6,2.2-5.5,14.77-31.97,20.87-30.94,2.62.44,3.93,1.35,4.58,3.95-.99,5.67.05,7.46,3.13,5.35,6.92-5.73,12.17-5.95,15.76-.66,4.62-1.92,7.31-1.3,8.07,1.87Z"/>
      <path class="cls-82" d="M560.9,24.05c2.55,1.12,6.56,1.32,12.05.61,23.87,2.34,39.96,11.57,49.46,34.28,5.56,18.2,4.11,38.97-4.94,56.31-.59-30.19-.88-40.97-19.46-61.6-10.93-12.14-26.58-15.65-42.06-10.5-26.99,8.99-48.82,26.78-65.19,50-2.58,3.66-5.69,6.59-5.64,10.74,3.17,3.02,1.24,5.31-2.94,4.38l-6.07,12c3.6,1.97,2.53,3.61-1.55,2.93-3.85,7.58-6.31,15.05-7.38,22.4,4.65.75,3.17,5.39-1.34,4.61-.61,0-1.18-.05-1.55-.35-.06-.05.49-1.17.46-1.09-9.93,31.01-29.64,69.53-52.17,93.59-5.53,5.9-25.5,25.87-31.93,25.99-1.02.02-2.05-.18-3.07-.44-17.62,1.89-22.4,13.38-40.44,12.17,6.07-14.88,20-14.49,20.72-25.17l3.24-5.6c13.5-8.88,25.57-19.73,35.98-32.07-4.3,4.67-8.88,9.15-13.67,13.36-6.78,5.96-22.02,19.24-29.73,21.48-8.36,2.43-5.56-9.22-3.46-15.33-1.98,1.28-6.24,2.87-7.74.68-1.35-1.98,3.82-14.35,5.02-17.19-.22-3.01,2.95-5.92,3.31-8.61l4.47-9.29,20-39.44c7.01-13.83,20.93-35.7,33.57-42.79l.69,4.71-11.32,20.05c7.16-8.14,17.11-10.36,13.85,3.05,8.48-5.63,17.24-8.77,26.28-9.41,3.52,1.72,5.65,4.67,6.39,8.85,0,0,4.73-9.05,14.19-27.14-7.15,7.01-13.5,8.97-19.07,5.87-19.96,9.26-15.24-6.87-9.27-18.94,5.44-8.8,11.21-17.35,17.33-25.63,15.65-16.28,33.72-28.71,55.43-38.64,18.94-8.66,37.3-16.67,57.55-18.83Z"/>
      <path class="cls-49" d="M670.23,147.22l-2.35,1.39,10.69,11.59c15.11,23.67,28.72,46.74,40.84,69.22l1.46-1.73c3.16,1.88,3.59,5.84,5.36,9.61,8.46,18.05,12.16,38.82,5.57,58.22-7.86,23.14-29.66,34.71-39.88,49.52-9.32,13.5-7.76,33.37,3.02,45.8,4.03,4.64,6.57,8.83,9.78,13.12,2.86,5.38,5.46,10.79,7.8,16.23l-1.71,1.57c-2.07.06-3.74-.91-6.08-2.02-.52.91-.12,1.64-.14,2.21l-3.25.29c-4.82-9.22-9.72-18.28-14.7-27.17l-1.52,1.49c.82,2.29.07,4.68-2.23,7.17-.82,4.7-2.61,7.29-5.39,7.79-8.74-23.26-11.76-45.39-3.46-70.57,2.38-7.23,3.79-14.56,7.01-21.61,3.73-8.15.39-17.26,6.05-25.61,1.65,13.13-4.39,23.51-5.12,36.52,14.78-24.46,19.05-52.15,14.77-80.48,7.81,7.6,11.59,16.72,14.8,26.28,6.6,19.65-.46,37.57-12.39,54.78,12.45-9.91,20.05-27.62,20.77-43.51.81-17.76-10.52-31.08-19.34-45.25l-38.3-61.6c-6.13-9.86-12.87-18.02-20.79-26.95,10.05,3.41,14.68,11.97,21.51,18.72l19.4,19.16c-6.04-16.34-14.46-29.85-24.03-42.65-7.63-10.21-17.17-16.73-30.44-20.72,17.03-5.58,36.84,2.41,42.31,19.21Z"/>
      <path class="cls-107" d="M477.53,206.91c-15.32-15.32-6.72,6.68-25.77,6.78-4.27,2.51-4.06,8.2-9.94,9.28,4.27-9.49,4.85-17.78,4.56-26.6l-1.62-.77c6.57-15.07,13.1-30.19,19.58-45.37l1.67,1.37c4.96-6.3,10.23-9.21,15.81-8.74,1.63,6.96.45,14.24-3.53,21.84,12.8-20.53,24.73-41.53,35.8-62.99l-10.71,12.25-4.73-.34c-5.48,10.74-13.32,18.05-23.53,21.92l-3.14-2.23c-.36-3.02.51-6.39,2.6-10.13.6-.66,1.2-2.13,1.55-2.93l6.07-12c1.27-1.36,1.88-2.93,2.94-4.38,18.48-25.14,41.37-45.67,72.25-54.94,12.57-3.77,24.91-1.37,34.61,7.72,10.79,10.12,22.36,41.16,16.29,56.27-2.97-14.42-6.8-28.44-17.83-37.97-19.11-16.52-43.71,4.79-55.89,20.28-32.91,41.86-41.04,97.16-57.03,111.66Z"/>
      <path class="cls-54" d="M225.21,438.26c-5.49-1.68-11.58-2.52-18.29-2.51-18.31-5.26-7.33-11.59,5.17-11.7-8.66-.6-15.66-3.21-21.03-7.84-4.01,5.48-17.61-1.31-11.47-8.42,19.85-9.91,21.56-12.26,5.11-7.03-8.45,3.02-25.51.79-12.94-6.37,3.13-1.78,11.99-4.03,14.56-1.18l.5-3.35c7.95-1.54,9.83-3.77,5.63-6.67,1.41-1.86,3.71-2.98,6.35-3.9,19.13-6.68,61.12-32.61,77.92-49.48-2.12,12.48-4.43,22.9-3.85,35.32,1.16,25.06,1.49,16.65-14.88,37.54,7.47-2.79,9.96-10.02,16.93-14.92,2.69,12.25,5.33,22.96,10.64,34.39-16.1,7.18-31.87,11.87-49.11,14.01-4.04.5-7.55,2.51-11.24,2.12Z"/>
      <path class="cls-34" d="M365.65,159.17c-2.83-.78-5.75,1.37-9.15,1.07-1.54-.14-2.08-2.9-2.95-3.5-4.52-3.13-10.63,8.43-18.11,3.9l.3-9.34c-7.06-.53-20.69,30.84-22.47,36.21l-7.79,23.63c-4.53-2.48,8.78-36.94,3.27-34.14-.62-8.13,1.76-16.29,7.13-24.47,3.3-9.1,8.43-15.87,15.39-20.31-1.37-3.29-.2-6.61,3.51-9.98,4.31-5.79,17.17-21.12,19.82-9.68l-7.5,15.22c4.02-3.5,7.82-4.21,11.39-2.11,5.31-3.95,9.67-4.3,13.07-1.04l11.84-14.99c-11.8,5.95-16.97,5.01-15.52-2.83,3.32-5.09,3.8-9.15,1.44-12.16,15.18-26.06,44.31-42.06,73.27-48.63l-1.03-1.86c1.61-2.69,5.89-1.44,9.17-1.68,11.18-.83,20.7-4.53,32.73-2.78-52.49,33.84-86.24,68.64-117.81,119.49Z"/>
      <path class="cls-158" d="M279.09,463.8c-42.71-.53-78.22-.49-112.22,29.47-11.46,10.1-23.77,25.03-29.76,39.12-9.3,5.6-7.2-14.61-5.82-20.58,6.07-26.24,27.34-46.27,51.77-55.53,6.77-1.43,27.62-5.14,33.18-4.58.95,3.36-1.2,5.33-6.47,5.91l-14.67,2.57c-3.93,3.44-8.25,6.13-12.97,8.07,28.26-9.43,58.47-13.08,88.15-10.39,16.32.81,17.69-1.46,4.1-6.8-12.82-4.1-26.39-5.67-40.71-4.72-3.56-1.12-5.35-2.25-3.61-6.14,23.17-3.49,36.51-4.51,60.29-12.44,3.62,4.32,6.18,8.49,11.41,11.53,1.98-4.66.58-8.24,1.09-13.39,23.94-10.11,48.99-19.8,65-43.79-4.38,30.83-25.17,54.54-50.4,70.49-12.55,7.93-24.46,10.64-38.37,11.21Z"/>
      <path class="cls-73" d="M172.94,422.04c4.4-.12,10.22.16,14.25,1.91.71.31,11.09,7.59,11.43,8.21,2.93,5.47-5.35,5.77-9.13,2.98l-2.62,2.45c-18.8-3.86-41.47-8.32-58.63,2.62,21.95-1.66,44.43-1.46,66.41,1.86,5.08.74,7.32,2.9,6.74,6.49-13.91,2.9-28.32,3.63-43.32,3.12-39.21,1.07-56.37-.23-91.46,21.08,13.8-21.29,34.14-33.48,56.28-45.03-22.36,1.92-38.47,16.53-53.45,30.87-28.04,26.83-33.01,52.21-36.09,89.12-8.91-21.06-5.13-42.17.76-61.58,9.12-19.24,21.99-41.82,41.39-56.96,7.72-6.02,14.51-9.92,24.47-10.43,2.53-6.53,28.05-13.16,33.25-11.87,2.85.29,4.04,2.28,3.55,5.99l34.64,5.82,1.52,3.32Z"/>
      <path class="cls-103" d="M286.92,472.56c32.18-11.36,66.81-32.8,87.44-60.47,4.67,4.36-10.41,20.03-7.96,25.15,17.51-21.78,25.82-47.31,33.36-75.11,2.53,14.57-.33,28.26-4.83,41.06-9.4,26.69-26.82,46.89-49.78,62.42-15.77,10.67-31.11,19.33-50.66,20.98-16.31,1.37-31.94,5.95-49.78,5.27,12.82-9.82,27.23-14.01,42.21-19.3Z"/>
      <path class="cls-154" d="M127.84,527.73l2.68,1.49c1.06,20.05,2.94,21.47,5.62,4.25,4.04-7.53,14.37-26.23,21.13-30.73,1.81-1.21,2.31-1.53,3.69,1.07-1.3,1.56-3.42,3.78-4.69,6.03-17.36,30.76-18.2,52.34-9.02,86.89,5.74-4.68,4.97-50.4,18.1-43.76-2.86-9.55,19.25-34.53,30.23-35.89-12.07,15.42-22.22,31.92-21.2,51.09-2.23,1.5-3.63,1.13-5.44-.44-7.07,12.78-13.4,25.94-19,39.49-6.14,3.23-9.22-1.56-12.31-6.37l-10.95-31.48c-4.94-3.28-9.85-6.6-14.74-9.95-5.44,1.02-7.49-14.16-7.37-18.49l2.43-2.63c.04-2.69,1.3-5.21,3.76-7.57,3.77-20.99,12.57-41.87,24.59-59.72l-1.39-4.4c7.31-2.82,15.14-7.09,24.64-5.61-27.39,18.03-40.39,50.08-33.46,80.91,4.03-5.26-.72-10.45,2.68-14.18Z"/>
      <path class="cls-146" d="M441.56,44.15c3.33-.57,7.14-.03,11.23.3-10.63,5.07-21.15,6.99-31.98,11.44-19.75,8.11-36.21,21.68-49.49,38.74l4.8,1.43c-2.16,5.51-5.89,9.53-5.99,15.6l23.36-9.98-22.61,28.63c-1.55-2.29-1.44-5.09-3.19-5.18-3.26-.18-7.67,4.18-10.98,3.96-.86-.06-.74-1.25-1.77-2.64l-12.23,7.79c.38-9.84,6.99-15.25,9.74-24.68-9.51,6.12-15.56,14.46-21.16,22.64-4.24,4.53-7.46,4.99-9.67,1.4l3.6-11.68c11.95-19.77,26.8-36.97,47.32-50.37,21.15-13.82,44.5-23.22,69.02-27.42Z"/>
      <path class="cls-54" d="M189.5,435.15c2.54,1.62,5.48,2.29,7.94.17,8.7.08,17.02.96,24.95,2.64,1.64,1.99,5.24,2.11,7.68,2.24,2.45,3.89,6.32,3.82,11.07,3.58,34.77-1.74,40.37,9.66,47.6,11.41,1.41.34,1.8,2.11,1.33,2.63-3.77,4.1-27.5,3.2-34.26,2.06-4.88-.83-8.2-.21-13.07.26l-32.51,3.16-31.27,8.96c-1.41-.1-2.55-3.26-1.51-3.7.85-.36,2.19-3.71,3.2-3.68,6.17.16,9.39-6.06,13.67-7.59,7.11-2.56,15.87-1,21.94-5.59,4.14.42,8.58.24,13.59-.62-9.36-2.99-18.86-2.45-28.43-2.51-6.97-6.99-35.48-6.03-46.4-5.78-4.96.12-9.65-2.13-14.64-.93-6.32,1.53-12.64,2.13-19.13.06,15.99-17.31,50.71-11.01,68.26-6.78Z"/>
      <path class="cls-59" d="M172.83,388.98c5.7-1.58,19.87-4.35,13.49,4.22-5.99,2.15-12.04,2.87-18.14,5.9,14.88.46,27.56-4.21,41.67-7.17-1.36,3.24-4.25,4.83-6.99,6.35l-23.31,12.94c3.62,3.67,7.75,4.11,11.5,4.99,6.18,2.32,3.06,8.41-3.09,8.43l-15.03-2.6-26.88-4.93c-5.98-1.1-11.39-1.51-17.62-1.5l7.3-5.95c-12.72,1.05-24.65,4.51-35.76,9.13-8.78,3.26-12.77,2.35-11.98-2.74,18.75-10.72,39.41-17.63,61.7-21.63,8.07-1.45,15.5-4.6,23.12-5.42Z"/>
      <path class="cls-21" d="M408.85,120.1c9.45-16.09,26.67-25.68,39.07-38.58,5.64,1.04-29.68,40.49-17.18,44.53,5.06,1.63,7.84-4.17,10.07-4.23,2.66-.06-3.1,14.84,27.67-14.96-9.18,18.9-12.79,29.81-25.12,48.07-2.62-4-1.02-8.36-3.61-11.91-5.54-7.58-22.93,8.54-30.82,8.73-1.25-4.36,2.53-7.37.26-11.56-10.19,5.98-15.9,14.8-22.61,23.45,6.49-17.69,13.34-28.35,22.27-43.55Z"/>
      <path class="cls-112" d="M174.39,568.17c.05.98-.14,2.01-.18,2.99-.06,1.65-.53,3.58.75,5.42,4.44-1.33,3.87-5.45,2.84-10.33l12.28-4.29c3.56,4.21,4.6,67.2-4.12,65.44-.39-9.72-1.03-18.66-4.15-27.68-2.79-8.05-2.43-20.82-6.3-13.38-3.45-1.55-5.18-2.33-5.18-2.33-3.47,10.3-9.27,25.09-19.6,29.52-.86,4.02-3.53,7.25-8,9.69-3.96,12.67-17.25,6.65-8.97-3.93-.54-1.07-.93-2.26-1.16-3.57-4.21-.98-3.84-6.96-.02-8.63,1.67-10.03-5.12-23.7-11.73-31.34-5.66,1.13-11.92-11.97-8.89-16.32,7.12,1.87,15.85,2.93,19.02,11.83,3.2,9.01,8.13,36.65,17.13,34.04-.26.08,8.59-21.76,11.35-26.68,2.79-4.96,6.53-8.81,7.24-14.75,3.93.74,5.63,2.56,7.68,4.3Z"/>
      <path class="cls-52" d="M107.01,538.3c1.93,6.95,1.38,14.54,4.95,21.12,2.99,5.52,4.87,11.38,8.89,16.32,3.88,3.5,9.9,14.37,10.4,19.22.05.45-.64.97-1.53,1.51,2.73,11.64-6.02,9.36-11.84,2.98l-10.72-13.11c-22.75-27.81-24.85-69.64-1.01-95.72,1.32-.98,2.54-1.09,3.64-.04-3.02,14.43-3.32,28.73-.89,42.92l-1.88,4.81Z"/>
      <path class="cls-114" d="M681.55,113.98c5.01,6.7,6.46,14.93,8.71,23.5l11.8,44.93,18.81,45.28c2.08,5,2.54,10.79,3.58,16.66-4.77-4.48-4.85-10.23-8.09-14.98-20.85-30.57-28.84-60.93-55.29-83.6-2.34-2-4.34-4.29-5.34-7.19,5.86,1.85,9.88,5.65,14.49,8.64.56.36.97.96,1.42,1.43l2.69,1.69c4.36,3.74,8.66,7.28,12.92,10.63-3.19-20.19-16.67-30.8-33.25-40.43-3.25-3.64-2.15-4.83,1.13-7.55,4.82-3.99,21.71-4.67,26.41.98Z"/>
      <path class="cls-118" d="M357.87,254.91l-22.57,13.86c-4.46,2.74-8.89,4.67-14.12,4.61,2.79-1.36,10.41-28.83,11.36-32.35.24,2.12-.11,6.27,3.62,6.61,5.21-7.68,7.52-25.49,11.34-27.4.37,5.07-8.3,18.03-.58,15,4.34-1.7,24.95-57.65,34.56-67.56-2.65,11.08-8.95,20.57-13.08,31.73-6.28,17.01-15.72,32.26-18.19,51.52,22.89-13.08,41.22-30.41,57.38-49.97,4.91-5.94,7.92-12.68,14-17.1-14.27,30.62-36.58,54.39-63.73,71.06Z"/>
      <path class="cls-132" d="M331.28,132.21c-9.5,13.87-16.91,28.93-22.53,44.78-11.28,31.85-6.21,55.71-22.49,95.57-1.72,4.21-5.1,7.31-5.33,11.4-1.49.87-2.31,2.98-4.99,3.07,10.57-24.95,13.29-50.06,16.26-77.36,1.49-13.7,6.48-26.59,9.37-39.56,4.2-18.87,14.48-33.04,23.64-48.19l-1.17,11.67,7.24-1.39Z"/>
      <path class="cls-140" d="M710.42,439.67c5.95,15.45,1.48,31.02-5.85,44.82-4.82,6.79-13.22,13.12-22.01,10.74-7.26-1.97-8.99-4.76-3.96-11.2,1.52-7.56,3.32-15.11,5.39-22.64,8.96-11.67,6.53-24.97-1.9-36.59-1.92-4.35-2.96-8.93-4.6-13.3.95-5.43,2.84-11.92,7.62-14.96,1.02-.82,2.15-1.09,2.62-.22,12.71,23.43,21.43,49.18,8.33,74.71,10.69-6.02,11.25-17.8,11.32-28.91l3.04-2.46Z"/>
      <path class="cls-30" d="M681.55,113.98c-9.33-1.94-18.92-1.77-27.59,2.92l18.78,12.79c12.94,8.81,16.9,27.84,21.18,42.79l-22.27-23.82c4.55.14,6.13,5.17,10.67,7.38-2.53-7.33-8.2-11.46-12.21-17.88-8.37-13.42-24.17-18.05-41.69-17.65,7.27-9.24,19.34-8.75,31.04-12.12-9.4-4.7-16.85.68-27.81,3.47,2.08-7.83,4.89-14.73,5.59-23.1,16.71,7.46,34.32,11.88,44.3,25.23Z"/>
      <path class="cls-102" d="M704.57,484.49c-7.1,13.37-16.92,25.57-32.7,32.08-6.58-4.72-14.38-8.04-20.14-13.12,7.48-4,13.14-6.65,16.95-12.75-4.06.92-5.91,4.43-10.58,3.92,11.7-7.85,16.99-20.12,22.55-32.57,1.66-3.73,5.51-5.81,5.67-11.08.27-9.01-.69-18.13-4.23-26.16,8.82,6.41,12.46,17.51,9.82,28.74-5.97,3.1-4.72,8.56-5.99,13.95-1.22,5.14-4.59,11.32-4.34,16.72.08,1.85-5.14,5.79-1.98,7.08,8.98,3.66,17.94-1.63,24.99-6.81Z"/>
      <path class="cls-121" d="M132.58,607.09c.18,2.44.39,6.25.02,8.63,1.96,2.19,1.52,4.85-1.32,7.98l1.06,3.46c-3.77,7.89-8.81,14.94-15.11,21.16,5.31-.04,10.47.6,15.48,1.9,8.81-3.29,16.96-9.29,23.5-15.99,7.28,0,5.5,4.83,2.23,9.42-7.81,10.97-31.95,23.91-45.33,19.7l-15.48,1.16c-11.67.87-32.56,2.51-39.64-8.26,1.09.47,3.11.12,4.32.12,6.5,1.49,13.16.72,19.69-.05,16.06-3.81,35.76-9.54,40.15-29.76,1.04-4.64,1.04-9.23.02-13.76-2.16-3.35-1.51-9.96-4.28-13.35,3.12-1.04,5.64,1.71,8.98,2.34,2.28.43,2.95-3.86,2.86-5.32,3.48.05,4.7,7.75,2.86,10.62Z"/>
      <path class="cls-64" d="M81.31,558.89c-9.88-13.53-13.21-30.57-11.96-48.25,4.72-27.42,15.64-39.35,45.19-40.48-26.79,22.89-39.95,53.92-33.23,88.73Z"/>
      <path class="cls-175" d="M303.21,345.58c11.33-14.3,24.17-26.96,40.51-36.66,6.51-3.87,12.04-9.6,18.78-12.12,22.46-8.39,42.89-21.11,63.5-36.96,5.64,1.04-33.77,27.73-35.38,28.76l-43.91,28.01c-14.61,9.32-26.42,22.27-37.75,35.31-7.97,9.17-10.56,20.38-16.11,31.09-2.67-16.35,11.28-28.95,10.36-37.43Z"/>
      <path class="cls-112" d="M107.01,538.3c-4.03-14.51-3.91-29.47.12-44.95.28-1.07.02-3.15-.99-2.74,5.37-11.31,16.29-19.55,27.83-24.01,1.54-.42,3.24-.3,3.89,1.37.42,1.08,1.01,3.2-.18,4.81-8.87,12.01-13.86,25.76-19.18,39.61-7.21,18.77-.63,18.58-11.5,25.89Z"/>
      <path class="cls-67" d="M155.03,335.03c31.66,5.43,74-2.28,99.7-23.88l42.15-35.41c5.34,3.2-27.75,37.24-30.01,38.7-39.03,25.29-69.69,30.77-116.33,21.95.99-2.17,3.06-.87,4.5-1.37Z"/>
      <path class="cls-112" d="M183.07,456.28c2.31,1.54-16.65,10.75-17.22,10.8-7.92.68-9.04,7.82-13.39,11.61-5.88,5.13-9.14,9.38-12.49,16.43-3.31,6.96-9.14,11.03-7.67,26.07l1.05,10.75c5.27-2.8,4.37-10.49,8.62-14,11.91-9.86,16.3-25.4,38.61-39.15,7.47-4.61,16.1-7.09,23.89-10.54,7.66-3.39,14.22-3.22,22.27-3.73,13.57-.85,41.24-5.11,52.36-.72-11.42.47-23.46,3.27-35.96,2.51-12.5-.76-23.87,2.26-35.59,6.01-18.69,5.99-34.41,16.9-46.58,31.48-4.5-.2-5.6,4.09-8.02,6.97-7.8,9.28-13.87,18.51-15.53,30.94-.44,3.29-1.75,7.33-4.99,9.22-5.64-7.17-3.74-15.5-4.58-23.19,1.4-32.08,22.92-64.61,55.23-71.45Z"/>
      <path class="cls-102" d="M640.6,488.3c-4.84-3.38-6.61-8.13-9.98-12.86,14.67-12.45,20.99-29.61,22.55-48.36.78-9.46-1.63-18.28-.02-28.05,4.32,10.05,5.59,20.05,7.55,30.4,3.26,17.16-3.64,46.8-20.09,58.87Z"/>
      <path class="cls-14" d="M704.58,421.95c2.97,5.43,3.68,12.12,5.84,17.72-.38,20.74-1.21,29.65-21.25,38.27,2.42-6.56,6.98-11.4,8.37-18.12,3.4-16.31,1.93-33.26-5.16-48.08l-7.27-15.2c-2.25-4.7-1.65-10.71-2.58-16.63,2.72,7.28,6.42,13.47,10.27,20.5l11.78,21.53Z"/>
      <path class="cls-161" d="M710.81,421.76c-1.09-6.2-4.88-11.52-7.72-17.34.67-.61,1.29-.7,1.63-.46,14.29,19.1,30.78,41.74,20.72,68.6-5.05,13.49-12.94,25.69-25.01,33.92,17.36-29.01,28.59-53.12,10.38-84.71Z"/>
      <path class="cls-24" d="M303.41,414.36c.46-18.32,9.27-33.88,22.02-46.09,5.95-5.7,10.21-12.51,18.53-16.52-10.49,23.53-25.06,42.85-40.55,62.61Z"/>
      <path class="cls-109" d="M99.98,418.78c-12.38,5.15-23.89,12.19-33.12,22.42-12.52,13.87-23.26,27.88-30.71,45.24-.88,1.14-2.25,1.28-2.02-.28,8.89-29.29,27.25-54.9,53.88-70.12,3.02,3.28,7.78,2.86,11.98,2.74Z"/>
      <path class="cls-90" d="M225.21,438.26l-2.82-.3c-4.78.81-31.08,2.39-32.89-2.81,2.48.21,5.81,1.96,7.43-1.73-11.12-2.39-4.21-7.75-23.99-11.38,11.3-3.71,20.71,4.5,18.12-5.83,12.43,2.9,24.38,5.77,38.47,8.3l-30.73,4.5c6.31,6.09,31.2,5.49,26.41,9.25Z"/>
      <path class="cls-86" d="M622.42,58.94c.06,1.47-1.3,2.03-1.43.37-8.75-23.14-38.22-34.66-61.13-33.26-.35-1.21.84-1.4,1.04-2,13.71-1.46,26.89-3.88,40.21,4.08,11.76,7.03,17.51,18.39,21.3,30.81Z"/>
      <path class="cls-151" d="M186.32,393.2c1.52-5.24-11.75-4.41-13.49-4.22,5.92-1.94,13.06-5.86,19.62-5.8,12.85,4.11,39.34-17.18,51.14-21.37-11.95,11.53-25.7,20.05-40.65,25.42l-16.62,5.98Z"/>
      <path class="cls-107" d="M609.44,124.89c-1.38-4.65-.79-8.88,2.97-11.64,1.1,3.99-.41,7.99-2.97,11.64Z"/>
      <path class="cls-154" d="M81.99,656.32c-6.16,1.46-13.64,3.11-19.69.05l19.69-.05Z"/>
      <path class="cls-184" d="M122.14,626.56l.02-13.76c3.16,4.89,1.03,8.92-.02,13.76Z"/>
      <path class="cls-118" d="M350.81,211.62c.21-3.7.98-7.11,4.47-9.29.15,3.69-2.35,6.47-4.47,9.29Z"/>
      <path class="cls-40" d="M465.85,150.2c1.34.17,1.36.65.15,1.4-3.21.45-3.08,3.67-4.27,6.5-3.75,8.96-7.15,17.8-10.72,26.7l-4.63,11.57c-11.77,29.36-56.72,84.05-93.26,86.07,9.49-4.93,16.86-9.92,24.47-14.53,63.2-38.25,83.09-117.1,86.46-120.11.62-.56,1.19-1.12,1.53.08.25.88,0,1.74.27,2.32Z"/>
      <path class="cls-22" d="M466,151.61l-.15-1.4c1.59-1.08.92-3.1,1.34-4.61-.79-3.88,1.45-10.3,4.77-12.27,18.26-4.5,16.96-15.39,29.03-26.64l-.62,6.11c13.6-13.52,27.61-37.29,45.43-46.13-15.43,14.63-26.84,30.9-36.48,49.77-11.6,22.69-23.72,44.09-38.52,64.94-.16-10.92,9.45-24,9.53-36.96-4.31.02-13.74,12.93-14.35,7.2Z"/>
      <path class="cls-40" d="M471.97,133.32c-1.5,4.09-3.58,8.03-4.77,12.27-5.59,1.08,5.38-20.2,7.38-22.4-.36,3.41-1.42,6.92-2.6,10.13Z"/>
      <path class="cls-40" d="M476.12,120.26c-.02-4.41,3.04-8.77,6.07-12,.07,4.69-2.97,8.67-6.07,12Z"/>
      <path class="cls-184" d="M175.51,586.34c5.68,26.83,6.13,9.01,1.27,41.57-1.1,7.36-4.97,14.42-8.39,21.03-2,3.88-7.77,4.99-11.37,7.78-8.86,6.86-19.8,15.22-31.47,14.1-4.73-.45-7.6-8.08-12.43-7.47,11.31-.85,42.47-12.12,46.12-28.13-6.92,7.91-15.06,13.25-24.54,17.42-4.58,2.02-5.99-.25-9.71-1.19-4.04-1.02-9.94,1.66-13.71-2.86,10.9-7.93,19.41-20.32,21.34-32.88,2.33-.12,3.24,1.83,2.96,3.97-.2,1.51-1.65,2.39-3.71,3.94.02,1.49,3.6,4.43,6.11,3.97.78-5.77,3.6-8.04,8.13-10.39,1.59-.82,1.22-6.04,3.48-6.45,5.68-1.03,6.5-5,9.03-8.95,4.49-7.01,8.71-13.47,9.27-22.53,3.24,1.28,6.93,3.72,7.64,7.06Z"/>
      <g>
        <path class="cls-154" d="M57.98,656.25c16.34,6.45,33.98,7.87,52.9,4.27l2.22,2.83,6.81.29c6.77,7.86,16.13,3.3,23.81-1.12,3.34-1.92,20.41-12.9,21.68-14.42,9.93-11.84,14.48-44.25,7.64-59l2.46-2.78c-1.41-4.29-.08-6.02,4.05-4,2.08,1.01,6.53,21.08,7.34,24.74.64,2.9.99,5.87,1.3,8.79,1.81-5.92,2.09-48.89-.17-50.03-1.37-.69-9.51,3.03-6.56,6.47-3.65,12.97-15.73,3.76-7.26-1.15,1.3-.1,1.47-1.32,1.75-2.95,6.31-37.03,41.08-64.4,78.61-63.8-30.3,20.24-53.41,37.77-54.2,74.46,4.28-11.67,5.22-22.84,11.72-32.79,6.76-10.34,15.38-20.03,26.45-25.67-26.55,25.65-25.96,46.07-33.02,64.52l-4.6,12.01c-1.95,5.1-2.48,50.48-42.59,71.65-10.89,5.75-21.78,9.28-33.42,12.38,11.04,1.06,20.3-3.29,30.03-7.08,15.79-6.15,27.75-16.8,36.83-31.47,1.31,10.12-4.95,16.9-11.27,22.81-13.76,12.88-29.73,21.55-48.2,24.39,6.22,3.14,11.48-.35,16.9-1.8,15.54-4.17,30.44-9.47,43.03-19.76,35.38-28.93,25.45-59.75,57.8-96.06,9.21-10.34,16.16-22.59,29.72-29.21-26.3,35.2-45.32,75.6-23.43,117.3-4.59,3.47-3.32,8.05-5.34,11.8-9.39,17.41-16.83,36.43-27.37,52.7-12.53,7.87-30.38,6.75-44.31,3.81,10.64-5.16,19.48-8.55,27.18-16.31,16.38-16.5,32.81-36.99,24.88-63.22-21.11,59.81-107.26,55.46-152.01,31.74,2.55-2.79,5.79-.31,8.74-2.02-23.32-8.83-30.08-9.3-48.05-27.69,6.79,1.49,12.61,2.65,17.93,5.35Z"/>
        <path class="cls-40" d="M240.57,607.97c-2.3,6.16,2.64,12.79-2.74,18.13-2.37-17.19,2.13-33.66,10.77-48.07l-8.03,29.93Z"/>
      </g>
      <path class="cls-184" d="M132.58,607.09c-.26-3.52-1.89-7.27-2.86-10.62-1.6-5.51-8.32-20.05-8.87-20.72,5.44-2.22,19.55,31.31,11.73,31.34Z"/>
      <g>
        <path class="cls-29" d="M555.09,862.58l-9.09-.47c-21.55-8.63-32.94-9.61-53.66,1.37-1.46.77-2.11,1.34-1.43,3.3l34.62,8.75c5.89,1.49,10.8,4.7,14.78,9.1,5.27,5.83,10.66,10.77,14.8,16.71,2.72,4.32-.7,5.85-5.29,4.95-15.4-12.03-29.98-20.57-50.01-21.44-3.14.65-6.49-2.06-9.91-.92-5.74,5.84,26.18,7.81,31.91,11.76l33.33,23.03c-.37,3.39-3.79,4.18-10.25,2.37-8.24-4.27-57.22-24.64-60.98-15.82-.26.61-.31,1.31-.31,2.03,9.36,6.54,25.95,8.66,50.67,29.61.18,2.53-2.08,3.1-6.78,1.71l-33.19-12.37c-13.21-4.86-26.16-2.61-38.87,6.74-7.66,6.34-33.02,3.7-35.47-6.17-2.36-9.5,6.79-31.3,13.75-38.61l45.22-32c9.41-6.66,23.3-12.57,34.48-14.78,6.93-2.82,43.72,14.24,44.07,20.01.08,1.29-1.75.6-2.41,1.15Z"/>
        <path class="cls-167" d="M544.64,481.23c.71,7.98,2.6,16.38,7.67,22.81,1.49,1.19,2.6-.04,3.32-3.7.88-.85,20.08,11.66,15.46,15.66l2.03,2.9c4.91-3.75,8.17-.15,10.82,4.71,2.73,4.99,3.81,12.12,2.61,17.67-7.83,21.84-51.45,7.91-68.68-3.14-5.49-3.52-7.7-10.62-11.7-14.76-.45-2.27-1.54-3.84-3.25-4.72-11.44-11.37-21.66-24-34.24-34.11-5.03-9.66-2.13-24.82,1.57-35.11,4.87-4.37,10.71-2.43,17.51,5.84,7.78-1.34,15.88,2.03,21.27,7.62,4.96.74,9.56,3.08,13.81,7.02,9.81,1.24,17.07,5.01,21.79,11.31Z"/>
        <path class="cls-32" d="M902.61,507.13c-4.77,13.97,5.87,16.47-1.04,28.45-3.35,5.81-.39,12.73-2.28,18.5-4.68,14.29-15.89,24.18-24.68,35.09-1.92,2.58-3.51,2.2-5.34-.23-4.25-5.64,2.57-14.79,7.3-18.37.23-1.12-.23-2.32-1.39-3.61l-27.45-8.11c-8.92-13.97-.91-18.83,24.05-14.57,1.89-2.6,5.21-2.04,7.47.1,1.26-2.33,1.89-3.5,1.89-3.5-10.05-3.56-20.63-5.14-31.74-4.74-13.11,3.56-13.66-13.56-5.86-20.24.69-1.72,1.87-2.63,3.63-2.53l29.12,1.3c-1.08.25-1.53-.43-1.54-1.74l-29.18-2.5c-12.07,3.09-14.54-12.53-8.01-19.94-.44-1.11-.8-2.55-.06-3.17,3.04-2.53,31.91-.32,37.76.24.32.03.58.67.83,1.48l2.67-2.66c-7.55-2.79-16.07-4.18-25.55-4.16-15.88.93-29.26-1.65-17.22-20.1-.99-3.87.31-4.27,2.88-1.23,12.33,1.19,45.24,5.26,53.14,13.69.21,9.63,1.6,16.77,8.36,23.92,1.41,2.79,1.81,5.88.91,8.92-.04.13-.59-2.29,1.31-.3Z"/>
        <path class="cls-51" d="M468.71,287.43c-1.49,2.65-4.85,3.61-10.07,2.89-12.27,11.85-13.16,25.43-9.8,41.14l-2.75,2.35c2.22,21.87,12.64,43.24,29.78,58.24,16.9,14.79,36.11,24.82,55.52,35.81,3.03,1.71,6.32,2.66,7.13,5.75-27.88-10.72-74.58-32.21-93.46-56.51-7.93-10.21-10.86-22.85-17.17-34.91-3.75,4.24-7,8.75-13.22,9.9-11.24,2.08-26.29-8.31-30.96-15.84-4.98-8.92,13.02-10.95,15.03-2.56,1.86,1.78,2.9,5.18,6.5,5.36-1.63-5.62,5.92-4.33,6.47-10.66.71-8.16-10.18-10.68-6.66-21.12,1.09-3.21,4.64-8.36,8.63-8.27l12.91,19.08c3.87-6.97,1-14.14,3.25-20.03l.55-7.18c-3.63-1.96-.97-6.51,2.32-8.04,3.43-7.33,10.49-12.93,15.91-19.25,5.68,1.11,16.86,19.14,16.86,18.74-.01,1.43-1.99,1.93-3,3.37,2.42.72,5.31-.35,6.22,1.77Z"/>
        <path class="cls-163" d="M468.71,287.43c2.76-.17,5.32,1.9,7.5,3.1-1.4.11-3.63-.8-4.13.52-.72,1.9,0,4.56,2.33,5.53,3.92,1.65,8.84,1.71,13.7,1.06,12.41-1.66,25.68,6.35,26.11,18.47.44,12.36-5.79,20.26-14.51,26.2-5.75,3.92-9.57,3.13-16.29,3.68-32.69,2.71-32.38-14.01-36.45-14.02-.58,0-.91,1.17-.89,1.82-1.72-16.91-6.7-27.29,10.96-45.92,3.44-1.63,8.57-.26,11.66-.45Z"/>
        <path class="cls-123" d="M544.64,481.23c-2.2.39-4.12-.87-6.06-2.53-5.04-4.3-12.24-3.58-17.69-6.42-4.18-2.18-6.92-7.38-12.95-6.24-5.37-6.25-13.02-8.87-20.98-8.03l-11.52-9.11c-7.34,1.12-5.93,30.4-6.76,35.64l-18.55-14.91c10.65-24.34,6.12-40.54,4.26-66.1,27.04,23.29,54.66,52.28,88.94,62.88l1.31,14.81Z"/>
        <path class="cls-77" d="M643.48,290.63c1.39-.61,2.92-.63,3.77.56,1.24,1.74,1.79,30.98,1.58,34.92-.48,9.11-1.48,22.92-8.42,28.34-4.61.81-8.1-3.45-12.57-3.97l-9.31-1.09c-5.45-.64-13.89-12.74-15.41-14.19-1.22-1.8-1.68-4.49-1.37-8.08-1.8-4.11-2.85-7.93-3.15-11.46,3.69-2.82,3.46-7.94,5.67-12.23,2.7-5.21,25.46.45,31.67-6.15-2.02-1.89-3.64-.62-4.69-1.08,4.19-1.74,7.65-5.34,12.25-5.57Z"/>
        <path class="cls-37" d="M546.37,239.52c-.59.1-1.24.17-2.57.82,3.1,8.69,6.98,25.51-6.41,28.24-1.63.33-1.35,3.16-1.4,4.09-3.27-11.07-12.22-19.07-23.49-23.35-10.28-3.9-20.11-4.47-30.86-4.73-3.78-.09-8.17-3.43-11.64.72,3.1,1.43,5.02-2.03,7.76,1.31-5.58.69-10.06,3.57-17.96,3.26l22.39-30.18c15.56.46,29.63,6.3,43.76,11.83l20.43,8Z"/>
        <path class="cls-153" d="M564.3,135.2c-12.21,2.95-25.18,7.93-33.45,18.71-12.42,16.19-20.54,34.49-27.75,52.8l-14.11-1.02,28.39-62.33c11.77-10.61,32.5-11.63,46.91-8.15Z"/>
        <path class="cls-69" d="M433.74,888.21c-6,11.55-10.4,24.19-11.11,37.73,8.68,9.01,19.69,9.59,30.64,4.76,24.25-10.7,18.23-17.28,59.8.58l14.81,6.36c1.99.86,5.77,1.19,6.42-.74,7.26,6.15-13.86,2.61-26.47-3.12-29.67-13.47-31.09-3.03-46.09,3.52-21.24,9.28-22.17,12.87-46.8-1.98-.55-14.22,4.83-26.39,10.48-38.72,2.06-4.49,5.07-6.12,8.31-8.41Z"/>
        <path class="cls-113" d="M836.06,439.58c-2.17.92-1.21,3.9-2.65,5.01-10.16-3.01-17.17-8.09-20.12-16.88-.57-6.07-3.84-15.39.39-20.61,4.13-5.1,22.5.6,22.38,32.49Z"/>
        <path class="cls-125" d="M504.41,270.9c.27-4.29,3.84-3.95,4.8.16,2.7,2.24,2.27,6,4.03,8.8,2.14,3.12,1.21,6.49-2.79,10.13,4.11-.77,7.09-.14,8.92,1.9.25,3.8-22.75,4.1-29.89,1.64,1.1-.24,2.58.47,3.29-1.11-5.43-1.39-10.31-2.41-12.37-6.58l-.06-1.13c1.22.08,2.53,1.09,4.55.33-5.42-5.63-8.37-13.06-4.95-20.65,1.43-3.17,5.44-4.63,8.12-2.44-3.3,6.21-3.28,14.17,3.12,17.14,5.46,2.54,10.7.34,15.07-5.07,2.94-3.64,2.32,1.99-1.85-3.13Z"/>
        <path class="cls-75" d="M604.22,416.02c-1.05-2.25.85-5.9,2.8-8.07,14.66-16.31,25.32-34.17,33.39-53.51,5.98-14.34,7.91-29.13,5.76-46.38-.76-6.15,1.29-12.48-2.69-17.44-1.3-3.34,2.04-11.41,6.01-11.67l1.27,41.33c.6,19.51-4.64,36.28-14.69,52.46-9.69,15.6-20.56,29.65-31.86,43.27Z"/>
        <path class="cls-149" d="M537.36,285.77c-1.75,5.43-9.63,3.29-17.97,6.13-5.07,1.72-10.21,1.68-16.92-.68,6.87-1.83,8.29-6.84,10.78-11.35,3.14-5.68,2.62-10.75,2-18.96,12.07,5.54,17.9,14.92,22.11,24.87Z"/>
        <path class="cls-26" d="M586.55,541.27c1.9-4.57-7.28-24.29-13.43-22.38-.1-1.35-.79-2.31-2.03-2.9-4.92-6.76-10.69-7.31-15.21-13.58-1.92,2.99-1.06,3.92-2.44,3.57-.65-.16-.77-1.47-1.14-1.94,4.07,2.45-.56-11.48,1.68-14.38,7,4.81,14.03,7.76,20.57,13.12,10.8,8.86,16.55,25.81,12,38.49Z"/>
        <path class="cls-2" d="M619.13,292.25c2.7-.11,4.33.8,4.9,2.71l-1.69,2.97c-1.77,0-4.26-.63-5.92-.04l-7.5-1.62c-5.89-1.5-10.73-5.66-14.76-10.3-.83-3.82.92-7.43,2.52-10.48.15.49.22,1.14.34,2.15.07.6.79,1.31,1.32.04.2-.47.73-1.08,1.85-1.73,1.7,5.23,6.46,10.35,12.27,7.5,4.05-1.99,4.55-6.85,6.69-9.7-2.47-3.23.17-4.65,3.09-5.73,6.69,6.43,2.85,18.21-5.58,22.82-.13,1.2,1.6,1.3,2.45,1.42Z"/>
        <path class="cls-133" d="M643.31,251.78c-1.76-3.07-3.31-8.77-6.11-12.14-2.53-3.04-6.86-3.54-7.59-7.08,3.95-1.28,7.03-4.46,12.45-4.99s12.68,2.34,12.6,9.25c-.08,6.28-.91,14.91-4.97,19.65-2.55,2.27-5.35-2.88-6.38-4.69Z"/>
        <path class="cls-38" d="M624.03,294.96c-.73.11-2.86.09-4.6-.23-.85-.16-1.13-1.01-.3-2.48,9.94-5.84,11.6-18.54,8.75-30.99,4.76-1.17,9.76,2.49,11.87,5.4,6.02,8.29-3.14,26.63-15.72,28.3Z"/>
        <path class="cls-128" d="M398.75,333.68c-2.78-1.25-6.87-2.45-10.24-2.18-2.56.2-3.99,3.19-4.79,4.75-1.7-2.74-8.92-6.45-6.36-10.68,4.28-6.25,12.85-9.49,19.09-13.85,2.54,5.84,5.52,10.33,8.87,15.03-.65,2.5-7.01,1.47-7.15,4.74-.03.69.31,1.5.58,2.2Z"/>
        <path class="cls-46" d="M555.16,918.72c.66.45,1.56.5,1.74,1.26.74,3.22-10.19,5.44-18,1.77l-21.13-9.91c-1.98-.93-37.99-9.71-34.14-4.55-.6-.42-1.47-.45-1.64-1.09-.58-2.19,9.19-6.01,14.33-4.87,7.49,1.66,15.27,2.01,22.35,5.31,5.11,2.38,34.88,18.53,36.5,12.07Z"/>
        <path class="cls-162" d="M555.13,901.34c2.44,3.5,9.43,6.21,9.33,11.83-.07,3.67-6.39,2.28-8.69.66l-31.37-22.15-24.57-6.83c5.5-1.14,10.81.76,16.32,1.25,23.23,2.03,34.08,24.99,38.98,15.25Z"/>
        <path class="cls-164" d="M555.09,862.58c-7.92,6.56-22.34-6.31-40.12-4.73-6.23.55-11.29,4.74-17.08,6.56-2.52.79-6.25-.09-6.97,2.36-10.05-2.54,17.02-14.28,25.46-14.67,10.76-.5,20.2,5.95,29.98,8.08,3.21.7,6.93-1.11,8.73,2.39Z"/>
        <path class="cls-5" d="M852.36,460.66c10.58,1.15,20.67,4.5,31.43,7.55,18.08,5.12,3.95,15.04,14.9,25.51,3.75,3.59,5.5,8.82,3.93,13.42-.72.22-1.06,1.42-2.33,1.1,1.62-15.31-9.68-8.57-9.09-33.01-16.27-7.76-35.33-10.66-52.29-14.32,4.43-.08,9.03-.72,13.46-.24Z"/>
        <path class="cls-152" d="M480.36,284.72l.06,1.13c-5.63-3.54-12.34-8.43-13.28-16.11-.45-3.74,4.61-5.95,7.37-6.63-2.13,8.86,1.16,15.54,5.84,21.61Z"/>
        <path class="cls-68" d="M432.72,282.8c-1.3,4.99-1.02,10.38-2.87,15.22-.32-2.54.36-5.18-.62-7.76-3.23,4.22-2.02,8.02-4.32,11.95-3.12-1.65-3.1-5.32-3.69-8.21-.89-4.3,8.8-12.25,11.51-11.2Z"/>
        <path class="cls-50" d="M506.18,523.38c-1.32-1.37-2.2-3.4-3.25-4.72,7.28.71,14.11,3.88,22.04,5.24,7.68,1.31,15.69,1.31,21.6,6.67-15.64-4.63-25.87-2.91-39.42-8.69-.86-.36-1.57.92-.97,1.5Z"/>
        <path class="cls-91" d="M509.22,271.06l-4.8-.16c-1.63-2-2.87-5.17-1.41-6.78,2.37-2.62,5.8-1.84,7.58-.07,2.35,2.32.13,5.36-1.37,7.02Z"/>
        <path class="cls-44" d="M622.26,268.01c1.13,3.07-1.8,4.01-3.09,5.73-1.42-.44-3.54-1-3.88-2.21-.57-2.01.9-4.11,2.18-4.39,1.66-.37,3.61-.27,4.79.87Z"/>
        <g>
          <path class="cls-165" d="M592.54,142.42c5.72,2.52,12.66,3.46,20.82,2.8,9.79,7.57,16.58,21.1,21.44,32.47,1.82,4.26,12.16,31.51,11.92,33.26-.12.88-.26,1.7-.71,2.24-3.01-.09-5.92.33-8.72,1.26-10.78,3.24-22.32,6.65-30.32,15.66-3.19,3.59-3.31,8.82-5.42,12.45,1.4,3.73-.21,6.9-4.85,9.52l-7.85,26.06c3.3-.36,5.07,2.25,5.32,7.83,2.94-.73,5.89.67,8.84,4.2,3.63,1.34,5.6,3.37,5.92,6.09l7.5,1.62c-.69-4.64,3.92-2.31,5.92.04,3.08-.01,6.01-.54,8.89-1.73,12.21-1.89,6.9,4.65-3.48,7.23l-20.82,1.3c-1.34,7.8-4.12,11.44-8.35,10.92-.85.37-1.57.6-1.83.36-1.34-1.29-3.34-4.56-4.38-6.31-7.87-13.27,6.02,8.5,7.63,12.05.1.23-.58.81-1.49,1.49.75,3.39,1.08,6.95-1.49,9.58l-30.51,3.9c-2.35,1.92-4.72,2.55-7.12,1.87,10.07,7.3,28.77,16.33,38.81,4.28-2.83-1.58,2.27-8.72,4.91-7.68,3.03-1.11,6.24,1.1,9.6,6.64l5.18,4.27c9.5.09,17,2.87,22.51,8.34.01,6.64-2.45,13.21-7.38,19.72-9.76,14.23-19.36,28.18-28.81,41.86-7.14,8.6-13.32,18.18-24.94,22.2-14.56,5.04-27.71.39-40.75-4.62-20.15-9.64-39.5-20.93-58.05-33.88-16.27-11.31-37.37-41.49-36.84-61.52.04-1.67,1.33-3.12,2.46-4.4-.5-3.94.35-5.34,2.56-4.19,14.47,21.38,59.31,19.53,62.52-10.02,1.94-17.84-18.05-20.79-31.55-18.71-12.3-1.89-15.85-13.94-3.42-10.34,4.03,2.24,9.2,1.59,13.29,3,1.96.54,3.17.16,3.77-2.16,7.59,1.84,15.27,2.49,23.04,1.96l3.07-1.44.77-3.35c5.81-1.29,11.55-2.21,17.21-2.77.87.36,1.11,1.56,2.95,1.49l-4.31-14.6-1.2-5.79c9.68-3.58,11.87-11.96,6.59-25.17-.89-2.57.77-3.3,4.99-2.19,1.28.42,3.2-.25,4.59.08,5.57-3.12,4.36-6.78,1.43-11.57-8.34-11.21-43.91-20.94-49.28-21.33-.53-7.76,1.75-15.63,6.84-23.6,10.88-23.03,25.85-49.72,54.36-47.9,3.81.92,7.88.62,11.74,1-3.36-2.4-5.27-4.54-7.38-6.73,9.15,2.71,15.89,9.55,23.88,12.94Z"/>
          <g>
            <path class="cls-3" d="M637.29,214.46c2.01-.6,3.93-2.83,6.9-2.11l-7.63-21.4c-8.52-23.9-9.72-23.39-23.68-45.06-6.38-1.77-19.54,2.55-20.34-3.47,4.36,2.39,9.63,1.42,14.85,1.44,14.63.05,24.85,9.76,30.37,22.21,7.77,17.51,14.76,34.31,15.97,54.24-5.06-4.85-10.46-7-16.43-5.84Z"/>
            <path class="cls-166" d="M550.96,239.6c2.58-3.24,2.11-7.67,1.43-11.57,1.6,2.15,5.38,2.07,4.49,6.67-.66,3.39-1.81,5.88-5.92,4.89Z"/>
            <path class="cls-80" d="M600.89,374.33c-2.25,4.9-2.17,11.04-6.72,14.3-15.58,10.69-32.25,5.97-47.86-1.46.14,1.35-.26,1.36-1.15.19l-16.99-14.54c-2.71-2.32-6.02-3.61-7.19-6.59l2.42-1.11c22.98,7.9,52.34,13.77,76.2,7.79l1.3,1.41Z"/>
            <path class="cls-100" d="M598.2,342.87c-2.59,4.05-8.72,11.14-14.4,9.28l-19.63-6.45c-2.94-.96-5.82-2.8-6.92-4.53-1.21-1.9-1.86-6.27.75-6.82,1.31-.28,2.59,2.28,3.63,1.84,1.41-.59,2.63-2.16,4.2-2.36l30.32-3.82c2.97-.37,2.55-4.9,2.35-6.76,6.86,2.77,2.76,13.04-1.55,17.7l1.24,1.93Z"/>
            <path class="cls-178" d="M604.47,367.88c1.84,4.76-10.96,7.01-15.39,7.54-11.87,1.43-50.41-3.24-60.68-8.16-.35-.17-.35-1.05-.26-2.14,10.86.15,22.36-.14,33.54-2.82,7.21-1.73,13.52,1.02,20.2.58,8.56-.56,16.08-1.19,22.59,5Z"/>
            <path class="cls-181" d="M592.61,390.68c-2.69,4.79-7.31,11.12-12.92,13.38-13.67,5.5-29.88-5.91-34.53-16.69.38-.09.78-.08,1.15-.19,8.01,3.96,16.38,6.53,25.11,7.72,7.48-.07,14.54-1.47,21.19-4.22Z"/>
            <path class="cls-95" d="M528.14,365.12c11.5,6.98,22.8,5.63,38.81,7.89,11.48,1.62,30.64,3.6,37.52-5.14,1.02-.63,4.89-.61,4.11,1.7-1.42,2.07-5.78,3.31-7.7,4.75-3.41-.72-6.67,1.06-10.42,2-9.97,2.5-19.7-.48-29.62-1.78-13.97-1.82-27.6-2.76-39.88-8.31-3.1-1.4-5.83-3.64-9.94-4.59-.35-1.3,4.11-4.94,4.98-3.69,3.09,4.44,8.45,4.93,12.12,7.16Z"/>
            <path class="cls-122" d="M598.59,315.65c3.93,5.62,7.92,14.23,4.53,19.53l-4.91,7.68c-3.47-.22-5.02,3.18-9.82,4.27,5.48-8.12,14.71-10.24,10.13-23.9-2.29-6.81-8.1-11.22-8.62-19.57,2.06,5.01,5.97,8.11,8.69,11.99Z"/>
            <path class="cls-27" d="M594.17,388.63c-.57.41-1.21,1.43-1.56,2.05-12.2,9.83-35.43,5.36-46.31-3.5,6.67-1.99,23.09,15.25,46.65.51.79-.34,1.87.09,1.21.95Z"/>
            <path class="cls-77" d="M616.43,297.9c-3.16,1.14-5.04-1-7.5-1.62,2.49.33,6.04-.93,7.5,1.62Z"/>
          </g>
        </g>
        <path class="cls-155" d="M573.13,518.89c-4.16,2.03-5,5.72-8.54,8.99-.62-5.39,4.54-7.81,6.51-11.89,3.4-.82,4.56-3.66,8.26-2.8-2.09,2.07-3.92,4.58-6.22,5.7Z"/>
        <path class="cls-18" d="M843.54,515.9c-2.08,5.5-2.15,12.28-.98,18.13,7.26-1.3,43.21.11,41.05,7.65-.57,1.98-2.69,2.77-4.36,2.7.05-.65.26-1.64-.08-2.26-.44-.81-26.73-4.6-35.66-3.09-5.36.9-8.48,7.24-13.71,9.9-12.91-13.79,9.59-32.56,13.75-33.03Z"/>
        <path class="cls-139" d="M876.11,489.03c.23-1.01,1.33-1.07,1.54-3.15-13.53,1.45-26.55-3.54-39.95-1.07-7.27,1.34-11.1,10-17.49,14.05-7.54-12.66,7.19-28.12,15.81-36.75-1.76,4.44-3.19,14.38,1.6,16.9,6.24,1.51,42.9-.49,42.32,7.67-.08,1.16-2.67,2.34-3.83,2.34Z"/>
        <path class="cls-62" d="M874.75,512.92l-15.07-.13c-7.14-.06-16.46-4.15-21.91.47l-15.21,12.89c-5.25-16.81,2.45-27.19,15-35.67-.52,4.15-1.93,18.77,5.87,19.17,6.59.34,12.68.8,19.24,1.75,4.72.69,8.7-1.22,12.08,1.52Z"/>
        <g>
          <path class="cls-55" d="M836.06,439.58c-.02,4.54-1.4,9.05-.54,13.57l.24,4.55c-12.95,10.84-19.37,23.24-19.24,37.2,3.42,6.65,4.09,11.72,2.74,19.72-.75,1.46,8.46,41.24,9.74,39.61,3.5-4.43,10.05-11.66,15.72-13.16,2.99-.79,27.41-.12,28.05,1.13.21.41-.3,1.18-1.01,2.07l-23.67.13c-1.11,3.19-1.61,10.03,1.06,11.89l32.45,10.91c-.37,3.84-18.41,17.73-7,21.96-11.23,13.95-8.97,33.46-13.25,33.83-17.19,1.47-31.78-7.71-40.84-21.7.97-13.17,1.36-25.14-.18-37.97-34.23-40.69-2.7-89.11-4.94-113.11l-2.11-22.51c2.87.5,5.26,2.62,7.16,6.37,2.95,2.63,9.03,7.94,11.78,5.41.92-.85,2.51-.45,3.83.1Z"/>
          <path class="cls-105" d="M852.36,460.66c-3.76,1.23-8.25,1.31-13.46.24-.81.01-2.04,1.13-2.88,1.23-3.78,7.24-8.03,14.23-12.77,20.97-4.9,12.56-2.47,13.19,7.28,1.89,6.57-4.71,39.98-3.38,45.92-.44,3.38,1.67,2.76,2.6-.34,4.5-7.64,0-22.69-.72-30.6-1.43-5.11-.46-5.82,1.44-7.94,2.87l-2.69,5.69c-7.77,5.95-12.57,14.56-10.58,24.5,4.64-4.18,9.52-8.02,14.63-11.53,11.85,1.94,23.8,3.21,35.83,3.78,1.69,1.37,7.08-1.79,7.5,2.91-13.43.85-26.17-1.36-38.72.07-4.79,5.7-9.26,11.63-13.42,17.81-3.01,12.31-.68,13.68,8.25,4.28,5.11-3.85,39.92-.77,42.43,2.51,1.33,1.74.51,3.1-1.56,3.88-2.49-.11-4.98-.11-7.47-.1.21-.38-.6-1.75-1.57-1.6-15.93,2.33-23.95-7.53-38.48,12.37.91,9.94,12.52,16.44,21.27,14.36.94-3.64-2.7-3.64-4.92-7.12,8.9,2.53,18.09,2.91,27.04,6.59-4.91,2.76-8.94-.8-14.03,1l7.83,4.49c-8.95-1.5-17.13-1.31-25.2-1.89-12.14-.87-16.43-11.9-18.93-21.64l-4.31-16.86c-2.46-9.61-2.89-18.27-3.34-28.3-.28-6.36-4.82-12.46-3.09-19.45,4.25-17.21,12.69-21.21,21.5-33.07,1,1.67,1.04,4.12,2.2,5.11,2.66,2.28,14.21-1.07,14.63,2.39Z"/>
          <path class="cls-176" d="M863.31,598.4c-10.62,6.56-22.53.23-30.89-7.17.02-4.89-3.57-8.76-.58-13.49.75,7.45,2.77,13.51,9.88,16.04,6.26,3.96,13.71,2.22,21.6,4.62Z"/>
        </g>
        <g>
          <path class="cls-79" d="M629.61,232.56c8.03-.18,17.2,11.96,13.7,19.22-34.81-7.12-38.88,14.15-44.52,16.22q-1.56-1.3,0,0c-.07,1.96-1.3,5.73-2.1,7.5,1.9,4.48,1.06,7.97-2.52,10.48-1.68-1.94-2.26-4.87-5.02-5.3-1.73,5.75-.95,11.02-1.12,17.2-8.74-4.75,1.15-33.24,4.39-41.35,1.33-3.34.5-7.18,5.24-9.05,2.08-.82,3-3.37,3.89-4.91.16.95-.44,2.1.28,3.39,9.54-5.02,18.15-10.28,27.78-13.4Z"/>
          <path class="cls-183" d="M635.64,246.95c-7.23-1.6-13.15-.38-21.04-.06,6.24-3.92,14.4-4.73,21.04.06Z"/>
          <path class="cls-2" d="M598.79,268c-.55.2-1.21.55-3.29,1.14,2.74-7.14,6.54-15.96,15.05-19.31-4.62,6.83-11.46,10.43-11.75,18.17Z"/>
        </g>
      </g>
      <path class="cls-124" d="M445.64,1010.16h-30.49c-9.14-7.16-20.67-10.15-30.28-16.53-1.9-13.96,1.56-26.63,8.95-39.03l3.27-.87,11.72,4.56c7.79,3.03,12.48-5.47,18.3-6.11,7.54-.83,15.81,2.86,23.54-1.27-4.78,9.93-13.72,12.97-19.8,20.13-4.7,5.54-1.55,14.42-2.87,20.94-1.23,6.05-1.44,11.74,1.26,16.71,4.09-42.87-2.74-27.91,23.43-52.42-.59,26.71-5.57,17.87-13.49,30.14,4.77-1.31,5.78-5.47,10.17-5.86l-3.7,29.61Z"/>
      <path class="cls-157" d="M569.82,1010.16h-5.66c11.33-89.28,14.62-177.47,12.66-266.63-.26-11.57-1.11-22.96-2.2-34.5-.11-1.12.08-1.71,1.49-1.99l-1.49-8.96c-1.45-.67-.9-4.22,0-5.97l-1.51-2.03-2.62-20.33c-3.38-11.47-6.31-22.92-8.79-34.37l-4.53-4.36c-5.75-16.84-13.95-32.74-23.73-47.58l-.66-6.29c-1.48-1.53-1.16-5.33,1.77-5.54,38.8,60.01,45.79,94.13,48.07,164.72,1.68,51.91.42,194.49-7.47,241.91l-5.32,31.94Z"/>
      <path class="cls-48" d="M672.97,618.72c10.25,15.27,19.87,32.16,21.18,50.87l4.02,21.01,1.17.88c3.67,42.64,6.26,85.88,7.76,129.72,4.13,51.61,11.4,102.83,21.83,153.64,2.28,12.08,2.6,23.85.97,35.3h-4.15c-.89-21.84-3.64-43.47-7.56-65.73l-8.48-48.1c-4.5-25.53-7.2-49.88-8.45-75.93l-4.88-102.22c-.95-19.84-3.72-38.65-9.21-57.72-5.44-18.92-14.83-35.28-24-51.75l.66-1.12,9.13,11.14Z"/>
      <path class="cls-23" d="M711.7,1000.86c3.97-2.75,5.99,1.82,3.57,4.8.18,1.54.5,3.06,1.08,4.5h-34.23c.65-.83,30.57-12.75,29.57-9.3Z"/>
      <path class="cls-173" d="M386.38,612.83c.2,2.97,1.11,5.09,2.71,6.35,2.56,27.8-.22,43.5-14.7,68.14-4.56,7.77-28.37,47.5-34.43,48.83-3.25.72-5.69,1.15-7.33-2.12-7.32-13.81-13.28-28.2-17.86-43.17l.18,6.72c1.58,4.89,1.41,9.04-.52,12.45l3.27,13.34c-2.97,9.6.78,19.95,5.42,30.38-4.34,2.38-3.83-2.64-5.76-4.83l-13.81-15.69c-1.54-1.75-15.76-26.17-26.03-26.57.58-9.52-3.36-23.52,1.73-33.97l18.46-37.92,11.22-36.8c.57-1.85,0-3.88-1.4-4.11-.31-1.24-.57-2.49-.63-3.75-.27-5.89,14.51-37.58,19.25-40.96,1.03-.74,2.19-1.31,3.38-1.83.79-1.49,1.7-1.79,3.05-1.27,21.66,8.44,33.87,24.3,45.04,44.21,3.71,6.62,8.63,15.55,8.76,22.56Z"/>
      <path class="cls-147" d="M871.6,672.96c4.26,1.97,3.16,12.37,2.39,16.92-1.68,9.92-16.03,39.41-23.3,43.05-.93.46-1.97.71-3.04.88-5.99,5.57-10.81,12.24-14.46,20.01l-19.83,28.53c-7.64,8.35-17.65,12.39-26.86,3.73-5.68,4.85-7.75,4.32-13.56-.02-15.55-11.61-17.24-32.96-17.65-50.79,1.42-8.34-1.37-17.7,3.2-25.35l2.27-.1c6.72-11.62,10.08-17.43,10.08-17.43l2.23-.21c1.94,13.4-3.86,29.27-.54,43.34l1.9-18.03,1.11-13.78,2.09-19.23,2.58,1.31c.24-16.17,2.26-33.13,12.33-46.13,1.77,4.63,4.78,9.48,6.17,14.65,2.29,8.51,4.58,16.11,9.82,23.5,2.63,3.71,3.64,9.83,9.85,9.71-7.31-7.74-12.33-15.79-13.39-26.42,19.76,18.27,42.94,24.99,66.61,11.86Z"/>
      <path class="cls-25" d="M762.67,680.09c6.57,8.68-23.7,19.73-25.14,33.79l18.29-16.94c-9.23,24.41-23.14,42.98-14.73,73.07,1.33-10.89.97-20.75,4.98-30.66,1.96,15.36,2.81,28.94,10.14,41.86-1.54-16.76-3.42-31.26-.91-45.92.61-.4,1.05-.54,1.17.36,1.5,11.4,2.53,22.72,6.9,33.26.97,2.34,11.1,17.34,16.57,17.81,1.54.13,2.9-1.91,4.42-2.89,3.92-2.54,6.57,3.05,9.3,3.67,9.17,2.08,15.8-4.18,20.52-11.08l25.39-37.18c2.04-2.99,4.97-5.59,8.09-5.4.26,5.17-2.46,10.15-8.18,14.94-2.52,4.41-2.06,4.44,1.4.11,1.6-3.88,4.01-7.51,7.21-10.86l3.03.43,1.62,1.23c.74.24,1.43.53,1.99.99,2.72,2.23-21.32,59.06-28.66,63.21-.56,1.62-1.68,3.59-3.35,5.91-6.29,8.64-15.3,20.09-27.07,21.85-17.64,2.64-46.29-20.02-60.15-29.85-4.25-36.9-4.88-72.51-3.5-109.61.64-17.16-.47-33.83-5.19-49.42l2.52-.14c4.18,4.43,7.57,9.54,10.17,15.33,3.25,13.22,10.85,19.32,23.19,22.15Z"/>
      <path class="cls-63" d="M355.4,885.07c.17.68.54,1.7,1.11,1.92,1.38.53,20.11-28.17,34.34-24.14-21.91,8.27-31.19,46.34-28.8,64.86-1.42,3.65-5.92,4.15-9.49,4.49-15.77,1.52-29.42-13.21-39.06-23.87l-1.46,1.65c-3.3,1.38-4.47-1.75-6.27-2.85-1.69-3.33-3.67-6.49-5.93-9.49-32.32-17.7-71.35-46.93-88.8-79.9-2.36-4.46-6.09-16.1-.7-18.31-1.6-8.18,7.46-33.84,13.18-38.25.97-.75,2.08-1.32,3.23-1.83,11.83-2.55-11.76,34.22-.21,44.93,5.81,5.39,14.19,7.76,21.2,9.64,7.71,2.08,7.81,6.03,8.86,12.99,1.31,8.72,8.34,20.19,16.34,24.93,9.69,5.75,22.02,4.32,32.44,5.08,5.4.39,7.17,2.71,9.12,7.11,3.79,8.54,15.54,42.16,24.97,36.68,6.92-4.02,8.95-12.9,15.93-15.64Z"/>
      <path class="cls-119" d="M429.61,865.23c7.37-20.57,11.06-30.86,11.06-30.86-1.48-9.02-5.04-17.56-10.66-25.64-.17-1.75-1.26-5.97,1.56-5.71.4.04,4.28,9.18,4.06,4.25,2.61-1.09,3.62-.35,4.89,1.75-15.11-31.31-31.05-61.88-47.81-91.71-.87-1.07-3.95-3.47-2.31-5.26l13.45-14.71c7.3-7.98,6.6-20.97,6.73-31.12-5.18,11.06-4.97,22.65-15.42,28.88,6.43-12.41,6.76-24.45,4.94-37.27l-3.04-21.38c4.85-16.72-1.34-41.81-5.93-58.88s-13.9-51.01-37.36-46.49l-2.85-2.36c-.8-2.34,1.06-4.7,5.58-7.09,5.96-9.54,21.59,7.87,24.53,12.78,11.18,18.65,17.61,38.18,23.01,59.56,18.02,71.44,32.18,142.66,46.04,215.01l9.9,51.68-16.63,11.8c-4.23-3.66-10.85-6.12-13.75-7.22Z"/>
      <path class="cls-87" d="M434.15,466.99c27.42,17.31,50.83,39.79,71.02,65.83,7.25,9.35,14.38,17.69,19.66,27.57.28,1.39-.38,3.31-1.36,3.08-4.18-.96-15.64-10.91-18.84-14.46l-.02-3.32c-.91.28-1.47,1.3-1.66,3.06-.38.83-.84.73-1.38-.13-2.27-2.86-4.93-5.1-8.35-5.07-5.02.05-4.93,3.72-7.24,8.62-1.89-3.28-.19-7.78,1.96-10.12,2.78-3.04,7.35-1.36,11.78-1.25-4.72-4.98-12.79-3.64-16.24,1.74l-2.34,2.11c-33.94-20.5-69.91-38.14-107.91-52.93-1.46-5.51-1.05-16.69,5.55-17.27l56.72,22.39c12.9,5.09,21.59,15.27,33.48,21.59-7.08-9.46-16.65-13.78-24.27-20.46-10.04-5.81-31.18-18.62-31.1-31.69.08-13.5,15.14-5.06,20.54.69Z"/>
      <path class="cls-13" d="M389.36,614.25c5.46-2.04,10.22,12.19,5.83,14.92-.86-.77-2.87.2-2.58,1.31,2.68,10.43,8.49,41.62,4.94,50.3-6.1,14.89-17.02,26.72-24.87,39.96l-1.96-6.3c-7.97,18.37-14.82,35.82-26.98,51.65-6.3-10.65-12.5-19.45-16.63-29.87l-11.58-29.19c-1.27,1.15-.56,2.37-1.09,2.99-2.17-8.85-4.87-19.52-.06-28.47,7.6,18.67,11.7,36.28,21.7,52.63,6.45-.9,8.8-6.9,12.08-11.87,12.07-18.29,24.68-35.86,33.8-55.71,7.73-16.83,3-34.74,4.42-53.77,2.5-.59,2.37,2.46,2.1,4.62-.02.18-.26-3.16.88-3.2Z"/>
      <path class="cls-185" d="M871.79,626.47c5.06,4.01-.21,11.14-6.82,11.21-.96,1.64-2.66,2.43-5.08,2.38-3.83,10.77-6.47,21.79-7.93,33.08-3.88,1.83-8.3,2.18-13.24,1.05-3.58-1.06-7.24-1.32-11.24-3.12-13.51-6.07-25.27-15.78-28.68-29.76.17-4.66,8.21-39.29,10.03-40.33,1.11-.63,2.49.28,3.45,1.4,16.69,20.28,31.23,31.55,59.52,24.1Z"/>
      <path class="cls-186" d="M627.26,526.36l3.29,1.2c2.81,8.41,2.56,16-.75,22.79-3.02-1.21-5.97-2.46-9.85-3.7-8.11-13.28-17.45-25.13-26.39-37.74-2.22-3.14-4.31-4.02-7.15-6.27-10.98-8.7-20.47-18.66-33.65-24.65-1.18-9.4-2.66-18.24-.33-28.41,15.34,4.17,26.73,13.71,38.48,23.17,18.38,14.8,31.07,33.84,34.76,56.77,2-1.2.97-2.56,1.58-3.16Z"/>
      <path class="cls-12" d="M397.07,636.45c-.3-2.09-1.24-5.17-1.88-7.27-1.54-5.07-2.53-10.85-5.83-14.92-9.82-22.14-32.52-66.26-59.54-68.61-2.22-.19-4.12.59-6.06,1.62-.39,1.32-.92,1.32-1.56.06.4-2.34,1.42-4.48,3.23-6.22,7.53-.76,11.52-4.29,16.46-9.97,4.01-4.09,7.02-4.9,9.04-2.41,1.84-.21,5.45-1.97,7.28-1.79,28.9,2.85,36.62,51.87,40.86,75,1.19,6.49,8.08,36.32-2,34.52Z"/>
      <path class="cls-74" d="M378.78,474.47c-2.1,4.54-3.57,9.63-3.68,15.56,22.56,7.04,43.07,16.03,63.52,27.46l44.86,25.07c-1.2,1.87-.44,4.42-2.02,7.48-12.39-7.96-25.99-12.73-39.61-19.14-23.57-11.09-70.51-39.32-91.2-21.1-4.44,3.91-6.58,10.02-13.74,10.54-2.35-12.08,2.99-23.58,13.55-29.82,18.49-10.93-.22-28.96,35.96-31-3.84,4.11-7.39,6.25-12,8.26,1.38,3.24,3.1,4.75,4.36,6.69Z"/>
      <path class="cls-47" d="M323.76,547.26c2-1.51,5.33-2.91,5.78.06-8.92,14.93-15.55,30.55-21.99,46.54l-19.26,47.74c-9.79,24.26-22.12,45.45-34.58,68.3l-26.95,49.45c-6.94,12.73-12.28,26.27-16.42,40.09-4.95,5.59-3.87-4.68-2.99-8.88,12.13-33.68,29-65.36,45.16-98.03l31.01-62.71c10.54-21.31,23.27-63.41,38.68-82.5l1.56-.06Z"/>
      <path class="cls-174" d="M411.64,913.13c-6.5,3.81-38.8-9.98-40.25-13.39.05-2.69.59-5.28,1.62-7.77,5.88-13.5,15.23-24.38,27.8-31.22,11.11,6.93,22.08,10.51,33.76,14.7-11.28,6.54-20.06,27.21-22.93,37.68Z"/>
      <path class="cls-66" d="M411.64,913.13c-3.18,11.58-5.46,22.95-.91,34,3.14.86,5-2.62,8.17-.88-1.46,3.29-6.35,4.1-9.93,2.38-13.4-6.46-26.48-12.15-40.44-17.08-4.6-13.8-2.6-28.25,4.48-39.58,0,1.39-.9,5.45,1.38,6.6,12.26,6.21,24.59,11.19,37.25,14.55Z"/>
      <path class="cls-104" d="M434.15,466.99c-.91-.57-16.52-9.72-17.52-2.07-1.43,10.95,21.59,27.38,28.08,33.06-3.32.93-5.36-2.1-8.32-3.83-16.41-9.61-34.35-14.62-52.7-21.77l11.38-16.48c5.04-7.3,9.2-13.61,18.08-16.47,10.66-3.42,21.6-5.92,33.44-6.57,2.23-.12,2.35,6.45-.37,6.87-6.49.99-21.73,1.35-23.31,8.61-1.78,8.15,7.53,14.22,11.25,18.64Z"/>
      <path class="cls-159" d="M529.97,704.12c-.04,4.2-2.26,3.8-3.12-.14-3.43-2.95-3.85-6.2-4.08-10.33-2.39-43.5-15.63-103.69-31.91-145.12-.43-1.36,4.72-2.35,5.86-.56l3.34,5.25c6.58,10.34,38.49,135.82,29.9,150.9Z"/>
      <path class="cls-9" d="M673.05,535.18c3.7,11.8,5.19,24.34,7.11,38.38-3.56-.58-3.56-4.39-6.55-6.82.87,7.48,5.47,14.08,9.78,21.02l4.62,7.44c1.37,2.27,1.02,2.65-1.27,1.27-11.89-16.99-28-31.74-36.15-52.2-2.94-7.37-.45-16.23-.91-23.59,4.54-4.02,22.18,13.42,22.61,15.8.21,1.17-4.46-.13.76-1.32Z"/>
      <path class="cls-89" d="M713.62,674.06c.18,3.04.46,8.41-3,7.31-1.34.15-2.32-1.11-2.69-2.89-10.8-51.61-16.12-55.36-45.04-96.82-8.47-12.14-18.22-24.34-18.79-39.77,10.16,16.75,19,31.17,30.55,45.58,20.44,25.5,34.44,54.86,38.97,86.6Z"/>
      <path class="cls-110" d="M270.16,759.85c12.98,10.39,16.94-3.44,44.23,19.37-16.05-.05-30.08-5.32-45.42-2.93-8.84,1.38-18.18.69-26.11,7.51,4.58.89,9.16-.54,13.61-.44-5.34,5.68-13.98,6.92-21.75,8.74-1.86-5.76.57-9.46,4.53-12.75,2.39-1.98,3.59-4.9,5.37-6.8-1.5-7.69,15.77-13.72,22.45-14.89l3.08,2.19Z"/>
      <path class="cls-7" d="M210.34,799.44c-1.8,8.88,1.54,16.72,7.22,24.2,22.09,29.05,48.48,53.16,81.14,69.68,5.19,2.62,9.72,9.1,7.06,13.83-44.16-26.78-54.45-34.81-88.05-74.41-10.13-11.94-15.57-27.72-10.36-42.17.36,3.32-1.3,8.32,2.99,8.88Z"/>
      <path class="cls-137" d="M762.67,680.09c1.78,3.8-18.65,11.84-21.34,7.46-4.16-6.77,11.63-5.08,16.54-6.56-6.4-5.14-12.02,1.01-18.17-14.7-3.45-8.81-6.94-16.92-12.91-23.55-3.57-11.81-10.21-23.03-17.53-32.73-3.27-6.82-7.54-13.25-12.81-19.29-6.62-11.89-11.77-24.3-15.46-37.22-.98-4.38-2.72-8.49-2.96-13.88,7.47,10.65,12.55,21.62,18.28,33.63,15.71,32.96,33,64.29,53.12,94.68,3.8,5.74,7.73,9.03,13.24,12.16Z"/>
      <path class="cls-19" d="M601.78,469.99c23.39,11.23,37.38,33.22,38.12,59.63.07,2.34-.04,3.91-.58,1.91-.28-1.03.89-3.21,2.44-2.31-.02,4.14,3.83,9.66-1.74,13.59-.19,2.77.78,6.28.27,8.99-3.68.79-7.32-.17-10.49-1.45-.31-.88-1.6-2.46-1.22-3.83,2.04-7.42-.09-13.81-1.32-20.15-4.3-22.31-16.75-45.27-36.08-58.75,4.71-2.5,7.64,1.66,10.6,2.38Z"/>
      <path class="cls-141" d="M870.26,668.19c-9.06,5.68-21.38,8.98-31.55,5.98l10.32-.14c-.44-8.23,6.44-30.48,9.19-38.4,1.22-.07,2.27,1.63,2.84,1.73.9.16,1.56-2.16,2.73-2.48l6.34-1.75c2.48-.68.97-4.68,1.66-6.67.87-2.51,4.09-3.24,6.06-4.61l2.35,2.53c-5.71,14.11-8.29,29.03-9.94,43.79Z"/>
      <path class="cls-116" d="M435.63,807.27c-15.79-29.11-30.77-59.18-42.92-89.96-.39-1.52.64-1.29,1.61-.24l27.63,47.26,22.44,45.78c.92,1.88.97,5.57-1.49,6.43-2.33-3.09-5.67-6.31-7.27-9.27Z"/>
      <path class="cls-169" d="M368.76,510.01c4.3.24,6.48,1.54,6.54,3.9,14.82,11.74,22.36,28.35,28.22,46.1,4.4,14.02,8.74,27.19,13.03,39.51l1.33,4.48c2.52,15.94,5.79,32.12,9.81,48.53l-.91,2.58-1.47,1.07-12.61-51.34c-6.19-25.2-23.82-97.06-57.88-92.27,4.12-5.16,9.66-1.6,13.94-2.56Z"/>
      <path class="cls-136" d="M851.11,738.43c-2.5,3.72-7.54,6.79-10.24,10.43-.43.71-.9.63-1.4-.11,2.37-5.02,4.97-10.32,8.18-14.94,7.47-10.72,15.11-21.81,20.84-34.37,3.88-8.5,2.51-18,3.11-26.48,1.5-.83,1.89-2.94,5.14-3.47,3.99,18.48,5.04,23.35-6.5,40.49l-19.14,28.44Z"/>
      <path class="cls-83" d="M429.61,865.23c-.94-.36-3.34-.23-4.35-1.63,2.6-7.47,4.12-15.45,7.3-22.58,2.9-6.5,2.51-11.15-1.42-17.19-2.83-4.34-.69-10.52-1.14-15.09,6.39,1.32,16.86,21.53,12.69,31.07-5.9,6.76-9,27.85-13.09,25.43Z"/>
      <path class="cls-169" d="M382.13,511.28c7.34,2.98,16.46,4.06,22.68,10.15,6.49,6.36,8.77,15.4,12.8,22.64-15.36-5.89-9.44-14.23-22.06-8.32l-1.84.36c-5.58-9.1-12.27-17.33-20.09-24.7,2.7-.95,5.54-1,8.51-.13Z"/>
      <path class="cls-53" d="M722.29,668.38c-1.88,1.41-4.12-.73-5.77-1.81-5.71-24.8-15.06-49.03-29.79-70.09l1.27-1.27c15.92,25.64,29.92,29.51,34.29,73.17Z"/>
      <path class="cls-1" d="M827.3,805.12c-1.87,2.23-2.69,1.39-1.24-1.26,8.18-15,14.09-31.05,20.89-47.39,2.43-5.84,5.99-10.91,5.78-16.8,2.49-2.87,4.45-6,7.72-8.49l-5.97,21.73c-5.34,19.44-14.51,37.26-27.18,52.22Z"/>
      <path class="cls-15" d="M761.72,939.75c7.13,10.55,7.68,25.74,9.66,38.93,1.23,8.17-4.64,14.44-5.87,21.23-7.82,4.52,1.48-14.08-1.05-30.02-2.74-17.27-11.18-31.56-14.87-48.07l12.12,17.93Z"/>
      <path class="cls-134" d="M792.54,639.66c1.32,5.09-1.78,9.19-4.21,13.91-7.16,13.9-2.5,31.32-8.19,39.81-2.5-2.52-2.09-5.91-2.51-8.9,2.29-21.09-3.94-36.4,13.76-49.82.58,2.01.61,3.6,1.15,5Z"/>
      <path class="cls-96" d="M601.78,469.99c25.45,6.25,40.12,33.3,39.98,59.22-.52,1.49-.53,3.72-3.18,4.47-3.6-30.29-12.53-49.46-40.19-63.21,1.36-1.56,2.58.23,3.39-.48Z"/>
      <path class="cls-31" d="M362.05,927.71c.18,1.36,1.98,4.99.12,5.74-19.46,7.75-45.39-12.23-50.13-23.46l-7.61-18.04c11.42,14.2,21.53,28.8,38.24,36.59,6.43,3,13.17-.96,19.39-.82Z"/>
      <path class="cls-168" d="M397.08,953.72c-.59,3.43-2.56,6.75-4.43,10.32-11.64,22.19.67,30.69-7.79,29.58-11.45-7.61.07-31.61,4.68-42.46,3.47.05,5.24,1.66,7.54,2.56Z"/>
      <path class="cls-8" d="M726.86,804.2c2.57,18.8,5.92,37.3,10.45,56.64-2.93-2.78-2.69-6.91-5.83-8.97-4.91-1.59-5.38-4.61-5.65-8.91-1.07-16.99-4-33.26-1.24-49.53.16,4.1,1.86,7.8,2.27,10.77Z"/>
      <path class="cls-129" d="M709.26,610.01c-7.68-10.18-17.78-19.29-24.39-30.74-4.29-7.45-2.15-18.05-3.88-25.77,2.54,1.86,4.15,5.49,5.55,8.94,5.53,13.64,11,26.57,19.66,38.65,2.01,2.81,3.2,5.98,3.06,8.92Z"/>
      <path class="cls-104" d="M443.05,463.67c-5.83-1.52-17.79-8.84-16.02-15.37,1.36-5.03,15.51-6,19.93-7.18.8,7.83-.73,14.33-3.91,22.55Z"/>
      <path class="cls-142" d="M812.27,602.37c-1.28-.18-1.93,1.15-2.37,2.76l-8.51,31.17c-.59,2.16-1.17,3.98-2.6,4.99-1.06-4.34-4.1-6.03-1.16-11.96,12.56-25.41,1.61-42.21,17.12-44.84.02,9.32-7.48,1.45-2.48,17.87Z"/>
      <path class="cls-88" d="M870.26,668.19c-5.66-1.21,6.11-41.35,7.59-46.33.79-2.66,4.86-4.45.96-8.68-1.53-1.66-3.29-4.62-2.36-7.75,18.7,14.12-1.54,25.11-2.26,50.82-.14,4.88.1,9.4-3.93,11.93Z"/>
      <path class="cls-56" d="M382.13,511.28c-1.77.36-3.66-.54-6.46.78,3.19,4.56,7.44,7.08,10.91,11.3,3.26,3.97,5.69,9.13,8.97,12.39,8.81,20.68,14.6,42.26,21,63.78-.35,1.06.37,2.5-1.27,3.03-3.06-18.06-20.8-69.69-32.48-80.07l-14.04-12.48c4.85-1.09,9.06-.48,13.38,1.27Z"/>
      <path class="cls-39" d="M524.83,560.4c.63,1.19,5.95,6.5,4.18,9.11-.38.56-1.04.99-1.92,1.3-1.02-.71-2.31-.89-3.38-1.49-5.08-2.83-11.6-4.53-16.38-8.55-3.5-2.94-3.18-8.9-5.75-12.14.44-.03.94.2,1.38.13,0-1.85.56-2.87,1.66-3.06,5.29,1.75,17.07,16.88,20.22,14.7Z"/>
      <path class="cls-10" d="M737.39,871.37c3.96,13.07,8.83,26.07,14.62,38.98.91,1.8-.32,2.65-2.5,2.76-5.28-9.67-24.48-48.35-21.41-57.75.52-.76,1.11-1.97,2-1.23.52.43,1.3.88,1.63,1.8l5.65,15.44Z"/>
      <path class="cls-35" d="M762.76,932.16c-.1,1.14.56,2.68-.94,3.49l-12.31-22.54c3.63-5.6-18.58-41.97-12.13-41.74,7.53,20.58,18.51,39.89,25.37,60.79Z"/>
      <path class="cls-126" d="M356.52,521.63c-.12,3.36-3.21,5.09-5.58,7.09-7.65.86-15.91,20.63-25.5,12.38,8.69-8.38,19.3-17.32,31.09-19.47Z"/>
      <path class="cls-78" d="M673.05,535.18c-.14,1.18-.37,3.07-1.15,3.52-7.75-6.35-14.33-13.48-22.22-18-.13-2.14-2.59-4.14-.49-7.07,10.54,6.17,20.8,11.79,23.86,21.55Z"/>
      <path class="cls-130" d="M655.44,595.63c-10.66-6.89-12.92-30.23-16.16-38.07-.51-1.24,2.54-1.15,3.32-.98,1.1.23,2.16,1.67,2.36,3.69,1.25,12.48,5.69,23.02,10.48,35.36Z"/>
      <path class="cls-182" d="M601.47,550.48c-.46.11-.92.15-1.39.11-.29-4.06-2.87-10.93-7.33-9.5,1.81-5.99.58-11.78.56-18.89,12.89,15.36,10.03,10.83,8.16,28.28Z"/>
      <path class="cls-120" d="M773.07,692.19c-3.27,8.14-5.71,16.22-14.38,22.1l-.2-4.37c1.34-2.25,1.36-5.43,3.5-8.06,4.75-5.84,7.77-12.27,10.54-18.81,1.76,3.73.15,6.48.54,9.14Z"/>
      <path class="cls-45" d="M636.75,555.78c1.93,5.61,2.48,11.82,2.92,18.05l-14.21-20.29c3.81-.61,8.56.26,11.29,2.24Z"/>
      <path class="cls-179" d="M710.62,681.37c1.99-1.64,3.32-4.49,3-7.31.36,2.51.78,4.35.23,7.97-1.03,6.86,4.81,13.9,1.42,21.24-4.48-6.95-3.05-15.01-4.65-21.9Z"/>
      <path class="cls-36" d="M529.97,704.12c.19,6.38,2.17,11.83,1.16,18.03-.17,1.04-3.2.76-3.35-.62-.7-6.27-.61-11.92-.93-17.55l3.12.14Z"/>
      <path class="cls-84" d="M715.27,1005.65c-.83-1.85-2.11-3.42-3.57-4.8-.01-2.1,3.67-5.83,5.3-3.76,1.96,2.49.61,6.49,1.03,9.46l-2.76-.9Z"/>
      <path class="cls-147" d="M827.3,805.12c-1.38,1.63-2.9,3.46-4.6,4.65-1.24-3.11,2.38-4.13,3.35-5.91l1.24,1.26Z"/>
      <g>
        <path class="cls-97" d="M317.71,723.37c6.07,24.8,34.69,56.19,23.63,62.04-8.56.43-15.43-6.37-21.91-11-14.94-10.67-31.73-16.91-49.26-14.55l1.98-3.67c12.59-3.02,25.27-1.77,38.03,3.76-13.34-12.92-37.84-36.53-56.83-22.39-10,7.44-22.34,27.24-8.72,35,1.58,3.64-.57,7.72-6.44,12.23-.42.6-1.43,2.88-1.11,3.2,1,1,16.78-3.25,19.4-4.63,5.38-5.72,13.41-4.24,21.14-3.23l33.14,4.37c10.75,1.42,21.74,4.02,30.12,11.38,3.31,2.91,2.4,9.02,5.24,12.5,5.43,6.66,12.76,10.41,17.7,17.73-12.9-2.36-24.95-3.95-37.23-1.73,6.88.06,12.54,1.4,18.08,2.12,22.83,5.75,34.25,8.62,34.25,8.62,8.47,3.7,15.39,9.35,20.74,16.97.33,1.33,2.27,2.49,2.12,3.62-.38,3-2.69,1.49-4.96,1.7-18.03,1.69-32.19,13.28-41.41,27.66.72,2.31-.33,4.3-3.13,5.98-6.93,12.31-14.35,15.5-22.25,9.55-8.23-12.5-15.26-25.72-21.08-39.66l-3.23-1c-31.23,2.53-49.38-10.18-54.46-41.06-12.44-2.86-22.3-8.38-29.6-16.54-1.48-13.03.5-26.26,5.95-39.69l-.84-3.29-1.79-2.96c30.71-52.05,57.09-106.06,79.15-162.02l3.43-.52c3.49-3.57,4.13-.2,4.51,3.63-7.59,28.1-18.14,55.09-31.66,80.99-.92,8.39-.86,16.84.18,25.34,10.51,6.82,18.96,16,25.33,27.56,9.2,12.52,11.83,13.21,7.89,2.06-1.12-5.84.18-9.2,3.92-10.08Z"/>
        <path class="cls-33" d="M399.66,852.09c.27,4.55-8.94-6.9-13.8-9.92-12.74-7.91-27.15-10.81-41.74-13.46-1.04-.75-.95-2.7.55-2.21,14.44,1.87,29.34,2.23,43.27,8.96,6.55,3.16,10.15,10.37,11.72,16.64Z"/>
        <path class="cls-173" d="M270.16,759.85c-9.29,2.84-18.27,4.95-25.53,12.7-2.14.94-5.43.64-6.42-1.33-.67-1.33-3.47-3.88-2.84-6.22,1.62-5.98,1.53-13.1,5.52-18.78,4.42-6.3,13.66-15.36,21.8-16.24,13.23-1.44,25.22,7.46,34.84,14.83,6.69,5.13,14.11,9.38,17.51,17.04-12.93,5.2-16.6-10.64-44.89-2Z"/>
        <path class="cls-173" d="M327.97,767.46c-.16,2.74-3.19,2.59-4.7,1.98-1.08-.44-2.55-1.28-2.73-3.49-.1-1.21,1.82-2.38,2.96-4.09,1.26-1.9,2.34-.63,2.66.11.71,1.62,1.95,3.08,1.81,5.49Z"/>
      </g>
      <path class="cls-40" d="M389.36,614.25c-.22,1.06.17,2.29-1.04,3.39-.36-2.35-.56-3.77-1.94-4.81-8.8-23.19-29.99-61.37-56.84-65.5-1.91-.29-3.86-.14-5.78-.06,3.25-7.24,16.86-1.25,23.09,3.76,20.49,16.45,34.95,38.64,42.51,63.23Z"/>
      <path class="cls-147" d="M839.47,748.75l1.4.11c-1.39,1.88-1.46,5.03-4.84,6-.89-3.43,2.5-4.1,3.45-6.11Z"/>
      <path class="cls-40" d="M504.61,545.7c0,1.23-.23,2.81-1.66,3.06-.07-1.93-1.84-3.18-1.44-5.98,2.13.12,2.13,2.33,3.1,2.92Z"/>
    </g>
  </g>
</svg>