<?xml version="1.0" encoding="UTF-8"?>
<svg id="Capa_2" data-name="Capa 2" xmlns="http://www.w3.org/2000/svg" viewBox="0 0 807.51 808">
  <defs>
    <style>
      .cls-1 {
        fill: #60312e;
      }

      .cls-2 {
        fill: #0c0302;
      }

      .cls-3 {
        fill: #be7d65;
      }

      .cls-4 {
        fill: #a7a28c;
      }

      .cls-5 {
        fill: #9aaa5e;
      }

      .cls-6 {
        fill: #250a07;
      }

      .cls-7 {
        fill: #91453f;
      }

      .cls-8 {
        fill: #010101;
      }

      .cls-9 {
        fill: #3a261e;
      }

      .cls-10 {
        fill: #f5e3a1;
      }

      .cls-11 {
        fill: #e9ac86;
      }

      .cls-12 {
        fill: #a6a18c;
      }

      .cls-13 {
        fill: #dfdbb7;
      }

      .cls-14 {
        fill: #3d271f;
      }

      .cls-15 {
        fill: #c4b5b3;
      }

      .cls-16 {
        fill: #461a0f;
      }

      .cls-17 {
        fill: #677737;
      }

      .cls-18 {
        fill: #110302;
      }

      .cls-19 {
        fill: #280907;
      }

      .cls-20 {
        fill: #525745;
      }

      .cls-21 {
        fill: #543729;
      }

      .cls-22 {
        fill: #f9f0d7;
      }

      .cls-23 {
        fill: #110201;
      }

      .cls-24 {
        fill: #f9f0d8;
      }

      .cls-25 {
        fill: #140402;
      }

      .cls-26 {
        fill: #46140c;
      }

      .cls-27 {
        fill: #edb28b;
      }

      .cls-28 {
        fill: #3d2620;
      }

      .cls-29 {
        fill: #c37c64;
      }

      .cls-30 {
        fill: #4a592e;
      }

      .cls-31 {
        fill: #455331;
      }

      .cls-32 {
        fill: #f2b189;
      }

      .cls-33 {
        fill: #617437;
      }

      .cls-34 {
        fill: #060302;
      }

      .cls-35 {
        fill: #efc43a;
      }

      .cls-36 {
        fill: #374129;
      }

      .cls-37 {
        fill: #667738;
      }

      .cls-38 {
        fill: #050202;
      }

      .cls-39 {
        fill: #f5c429;
      }

      .cls-40 {
        fill: #0a0302;
      }

      .cls-41 {
        fill: #230603;
      }

      .cls-42 {
        fill: #cec2b9;
      }

      .cls-43 {
        fill: #c27f67;
      }

      .cls-44 {
        fill: #130502;
      }

      .cls-45 {
        fill: #6a482e;
      }

      .cls-46 {
        fill: #c3b0ae;
      }

      .cls-47 {
        fill: #f3e1a2;
      }

      .cls-48 {
        fill: #340d08;
      }

      .cls-49 {
        fill: #f7c41c;
      }

      .cls-50 {
        fill: #8e5f42;
      }

      .cls-51 {
        fill: #f0af86;
      }

      .cls-52 {
        fill: #340f08;
      }

      .cls-53 {
        fill: #080201;
      }

      .cls-54 {
        fill: #f8d8b9;
      }

      .cls-55 {
        fill: #c17b61;
      }

      .cls-56 {
        fill: #4e1a10;
      }

      .cls-57 {
        fill: #180805;
      }

      .cls-58 {
        fill: #c0b3b0;
      }

      .cls-59 {
        fill: #3d2720;
      }

      .cls-60 {
        fill: #916141;
      }

      .cls-61 {
        fill: #573627;
      }

      .cls-62 {
        fill: #667638;
      }

      .cls-63 {
        fill: #c18772;
      }

      .cls-64 {
        fill: #bb806b;
      }

      .cls-65 {
        fill: #f2eee1;
      }

      .cls-66 {
        fill: #3c462b;
      }

      .cls-67 {
        fill: #be826d;
      }

      .cls-68 {
        fill: #be8269;
      }

      .cls-69 {
        fill: #906143;
      }

      .cls-70 {
        fill: #e79771;
      }

      .cls-71 {
        fill: #612413;
      }

      .cls-72 {
        fill: #f4e3a4;
      }

      .cls-73 {
        fill: #040203;
      }

      .cls-74 {
        fill: #c5614f;
      }

      .cls-75 {
        fill: #465431;
      }

      .cls-76 {
        fill: #f7c41e;
      }

      .cls-77 {
        fill: #9eaf5e;
      }

      .cls-78 {
        fill: #0a0202;
      }

      .cls-79 {
        fill: #eec73b;
      }

      .cls-80 {
        fill: #455431;
      }

      .cls-81 {
        fill: #4d1b12;
      }

      .cls-82 {
        fill: #561d0f;
      }

      .cls-83 {
        fill: #612c1c;
      }

      .cls-84 {
        fill: #8b6248;
      }

      .cls-85 {
        fill: #9cac61;
      }

      .cls-86 {
        fill: #c07d64;
      }

      .cls-87 {
        fill: #150704;
      }

      .cls-88 {
        fill: #46170c;
      }

      .cls-89 {
        fill: #0d0302;
      }

      .cls-90 {
        fill: #260603;
      }

      .cls-91 {
        fill: #0f0603;
      }

      .cls-92 {
        fill: #fefefe;
      }

      .cls-93 {
        fill: #906042;
      }

      .cls-94 {
        fill: #aca78c;
      }

      .cls-95 {
        fill: #ada995;
      }

      .cls-96 {
        fill: #060e03;
      }

      .cls-97 {
        fill: #c4826a;
      }

      .cls-98 {
        fill: #c37d65;
      }

      .cls-99 {
        fill: #3e2821;
      }

      .cls-100 {
        fill: #0f0403;
      }

      .cls-101 {
        fill: #6b482d;
      }

      .cls-102 {
        fill: #faf5e2;
      }

      .cls-103 {
        fill: #070e02;
      }

      .cls-104 {
        fill: #f7f4eb;
      }

      .cls-105 {
        fill: #0f0302;
      }

      .cls-106 {
        fill: #8d6043;
      }

      .cls-107 {
        fill: #060f02;
      }

      .cls-108 {
        fill: #4b5932;
      }
    </style>
  </defs>
  <g id="Capa_1-2" data-name="Capa 1">
    <g>
      <path class="cls-8" d="M759.08,595.3c-45.17,83.63-118.04,148.1-205.83,183.95-37.92,15.49-77.8,24.43-118.63,27.56-96.52,7.41-191.4-19.88-269.12-77.14-25.2-18.56-48.51-39.76-68.84-63.86-48.13-57.04-80.39-125.92-91.9-199.84C-15.92,333.13,31.82,199.31,128.52,108.85,256.04-10.43,446.1-34.37,599.17,50.4c32.79,18.16,63.58,41.66,90.77,69.04,50.77,51.11,86.49,114.45,104.73,184.26,25.63,98.1,12.48,202.61-35.58,291.6Z"/>
      <path class="cls-92" d="M755.46,555.93c-76.6,175.47-270.98,270.14-456.25,216.89C148.87,729.6,38.41,598.3,22.38,442.89,7.88,302.36,73.82,163.83,191.22,85.23,285.56,22.07,402.37,3.95,511.38,35.96c127.15,37.34,225.78,138.25,261.51,265.98,23.53,84.11,17.69,173.52-17.44,253.99Z"/>
      <g>
        <path class="cls-8" d="M514.28,736.75c-130.47,43.66-273.71,5.9-366.75-94.2C3.94,488.06,28.77,246.14,195.97,121.98c125.84-93.44,298.97-91.16,421.97,4.69,117.35,91.44,166.09,248.29,117.38,390.46-35.22,102.79-117.06,184.82-221.04,219.61Z"/>
        <g>
          <g>
            <path class="cls-49" d="M187.49,656.9c-78.44-66.14-121.8-166.74-116.61-268.88,4.72-92.92,47.79-179.41,118.7-239.29,39.85-33.66,87.2-58.15,137.79-69.51,4.43.02,5.73,1.44,3.91,4.28-9.87,8.08-18.63,16.43-25.23,27.66-2.87,1.46-6.17.8-9.89-1.98-16.33-4.93-19.01,35.29-18.98,45.23-30.01,3.51-55.96,20.23-62.97,50.84-2.23,9.75-.33,13.3,5.97,20.32-.17,3.39-6.28,18.32-8.1,22.72-5.6,13.49-19.21,17.68-32.73,15.3-22.59,5.75-1.25,30.16,10.87,35.84l1.6,1.99c-2.76,8.92-1.12,15.12,7.47,19.55,6.06,1.15,10.49,3.53,13.28,7.14.23,18.97,5.72,35.28,16.55,50.7l-.07,3.07c-14.77,38.16,4.62,76.23,37.27,98.18,3.78,4.84-2.72,7.95-6.85,9.41-32.35,7.06-4.61,29.64,14.27,30.54l2.2,1.11c.35,4.06,1.58,7.62,3.68,10.68,4.5,3.52,5.34,6.28,2.51,8.28-15.46,8.77-23.2,13.16-23.2,13.16-17.03,12.8-16.77,23.27-14.64,42.94-11.2,10.72-19.98,22.83-26.34,36.33l-2.53,10.55c-7.98,5.47-16.08,10.69-24.28,15.65l-3.68-1.85Z"/>
            <path class="cls-76" d="M606.69,667.88l-3.5,1.77c-9.69-5.8-19.57-11.33-29.64-16.61l-1.1-2.92c3-11.97-2.66-23.56-11.19-32.02-11.73-11.65-25.28-22.18-39.29-31.23-3.18-3.54-1.3-7.35,5.64-11.43,27.07-23.56,51.25-51.82,55.4-88.92,16.39-15.72,24.63-36.55,25.16-59.11,10.44-7.08,18.71-15.41,25.8-25.71l2.83.42c2.28,3.97,4.09,8.33,5.43,13.06,6.09,7.94,15.37,4.92,20.25-3.08,13.96-22.93,16.81-43.48,9.39-69.48,19.53-10.15,34.36-25.08,43.39-45.15.86-1.43,1.85-1.42,3.34-.5,34.36,94.64,20.37,200.89-33.37,285.39-21.06,33.12-47.25,62.79-78.56,85.54Z"/>
            <path class="cls-72" d="M415.6,70.7c19.63.62,37.89,2.68,56.19,6.55,1.56.53,2.3,2.02,2.2,4.48l1.19,3.73c16.72.93,33.12,5.47,48.53,11.93,16.53,8.24,33.42,15.1,50.66,20.6,8.02,5.33,16.84,8.56,24.05,15.69-20.65,1.38-46.87-10.5-66.95-19.76-34.29-15.81-66.39-23.05-101.73-9.24,10.25-7.95,21.14-13.03,33.27-17.81-.93-2.68-3.74-3.66-6.51-4.11-32.11-5.25-65.14,2.83-90.76,23.06-10.52,8.31-17.62,18.83-23.77,30.04.49-9.52,2.43-18.41,5.36-27.43l7.56-23.21c.42-1.28.21-2.47-.37-2.96-.5-.43-2-1.08-3.08-.62-27.32,11.62-50.54,40.11-46.98,71.35-7.62-10.68-9.01-22.96-10.74-36.82-8.96,15.16-10.52,33.69-4.12,49.48-15.19-4.59-29.4-.96-42.25,6.92-26.11,16.02-27.96,43.17-24.34,42.81.51-.05,1.53-.23,2.24-.83,10.24-8.63,21.75-15.2,35.77-16.89-7.86,5.72-15.66,9.71-21.93,16.77-8.96,10.08-15.11,22.09-18.83,34.98-2.02,7.01-6.27,11.83-11.92,16.16-17.16,13.18-28.53,3.31-30.18,7.15-.32.74-.55,2.41.08,3.64,7.27,14.1,22.5,21.68,38.3,20.96-5.03,5.9-11.32,8.77-18.44,11.27,4.94,8.41,17.17,8.48,25.31,7.62-4.93,18.09-1.8,36.67,8.72,51.96l7.45,10.82c-6.1,8.31-7.29,17.8-7.42,27.81-.43,33.85,18.94,52.1,44,70.4,3.31,15.34-11.93,19.6-24.21,23.46,12.22,11.97,28.98,15.04,44.75,8.85-1.83,7.39-17.6,14.68-9.69,17.91,10.99,4.5,22.8,4.38,33.71-.31-.22,3.7-3.16,4.78-2.07,7.28,12.9,2.74,18.65-9.56,18.27,1.15-.07,1.99-2.53,1.21-4.44,1.39-16.19,1.56-31.76,5.08-46.96,10.79-10.01,3.76-18.77,9.45-26.67,16.26-5.66,4.88-8.61,11.39-7.62,18.88l2.11,15.98c-9.84,9.38-18.26,19.59-25.49,31.24-3.52,5.68-4.26,11.79-2.45,18.19-10.67,4.47-19.76,10.1-28.4,16.93-4.02-2.94-6.53-5.83-9.49-8.33,1.94.31,4.52.03,6.44-1.75,5.72-5.28,13.78-8.45,19.88-12.99,1.46-18.01,16.32-33.55,28.75-46.65l-1.24-13.64c-2.15-23.68,23.93-35.69,41.5-44.33-5.78-4.32-8.51-8.89-8.2-15.38-12.45-1.34-35.52-10.23-31.3-25.01,3.09-10.83,16.89-5.95,22.95-14.63-26.68-20.31-44.43-40.42-43.87-75.68.13-8.43.39-16.33,4.21-23.98.85-1.7.96-4.1-.39-5.82-10.13-12.96-15.03-28.57-15.15-45.22-.07-10.01-8.13-2.91-18.77-13.65-4.44-4.48-4.75-10.26-2.16-16.3l-10.27-7.44c-8.63-6.25-17.39-20.46-8.74-29.54,2.94-3.08,6.9-3.76,11.53-3,11.45,1.87,23.93-3.61,27.82-15.12,2.34-6.94,4.92-14.42,7.97-21.03-4.13-3.39-7.61-7.78-7.14-14.04,1.12-15.21,8.2-29.37,19.67-39.47,12.71-11.19,27.82-18.42,44.98-18.88-1.44-13.79,1.35-25.71,6.4-37.64,1.8-4.24,4.2-7.71,8.02-8.58,10.43-2.39,11.56,7.97,15.88.45,9.96-17.33,23.3-23.29,23.95-26.27.3-1.35-4.98-1.39-2.87-2.1,12.24-2.75,24.49-6.06,37.08-6.44,2.24,5.46,3.02,11.35,1.5,17.31,15.52-8.42,32.1-16.33,49.65-19.39Z"/>
            <path class="cls-10" d="M718.61,296.95c-1.64,1.26-2.92,3.04-3.85,5.26-6.94,16.56-24.1,33.99-41.34,40.96,8.8,25.39,4.44,52.96-12.35,74.18-2.97,3.76-9.77,5.06-13.99,3.87-10.54-2.98-7.44-15.61-12.42-18.22-5.99,10.95-14.51,18.59-24.86,25.25.02,22.43-8.72,43.6-25.06,59.1-4.06,34.08-23.06,59.49-47.74,82.01-4.68,4.28-8.65,8.56-13.79,12.17-.88.61-1.31,1.86-1.02,2.41.25.47.83,1.34,1.55,1.79,12.64,7.9,23.93,16.89,34.68,27.04,2.61,2.46,4.92,4.25,7.19,7.14,16.52,20.97,5.99,29.85,9.66,32.03,8.38,4.98,17.39,8.16,25.26,13.85,2.01,1.45,3.86,2.77,6.16,2.09-3.24,3.05-6.14,5.62-9.89,7.72-12.23-9.47-22.78-11.83-35.82-19.71,7.07-9.44,4.71-21.64-3.5-30.08-15.78-16.23-33.81-28.79-54.44-40.6,34.22-27.79,68.72-56.34,72.1-103.79,16.34-10.6,28.32-40.35,23.42-59.48,20.07-8.22,32.48-23.34,30.44-45.99,10.11,8.31,17.26,19.6,18.93,32.7.2,1.59,1.23,2.87,2.3,2.85.81,0,2.38-.16,3.2-1.17,16.76-20.55,19.46-49.59,6.35-72.84,30.38-10.39,44.19-27.74,52.71-58.02,2.71,6.08,5.34,11.61,6.12,17.47Z"/>
            <path class="cls-35" d="M574.37,117.98c1.23,6.05-43.12-14.98-47.03-16.8-16.86-7.82-34.49-12.45-52.98-14.05-2.31-2.43-2.91-6.96-2.57-9.9,36.56,7.73,72.11,20.52,102.58,40.74Z"/>
            <path class="cls-39" d="M415.6,70.7c-1.18-.53-1.58,2.37-2.55,2.58-29.88,6.53-42.74,18.5-48.9,20.03-2.01.5,2.29-8.8-.09-15.04-.84-2.2-1.24-3.87.4-5.5,17.37-3.58,34.31-2.61,51.14-2.08Z"/>
            <path class="cls-79" d="M693.49,241.04c4.75,5.87,7.9,12.36,10.31,18.8,1.05.93-12.25,12.73-14.46,9.97,10.82-8.27-1.83-29.29,4.14-28.78Z"/>
          </g>
          <g>
            <path class="cls-28" d="M346.78,165.55c-.89,6.23-1.34,12.47-1.48,19.48-5.23-.65-2.57-9.8-6.34-12.16-1.11,7.66-2.57,26.89,10.15,27.69-.4-16.78,7.99-30.71,21.2-40.02,3.25-2.29,13.14-9.76,16.25-9.83-.25,2.21-1.75,4.29-4.5,6.25-4.74,4.74-5.25,6.42-1.52,5.02-1.89,8-9.22,16.86-10.01,28.18,10.22-11.77,27.87-21.01,43.19-21.49-2.15,3.15-5.37,4.18-8.47,5.71-26.01,12.87-24.05,28.16-35.44,29.15-.72.06-1.83-2.05-2.51-1.49-5,4.12-1.05,3.81-8.77,9.97.51,3.95,3.21,6.57,3.13,10.72-2.81.64-5.08-.54-7.65-.47-.76-3.61-3.52-5.02-6.37-6.62-15.99-8.97-22.43,8.56-27.81-3.09-20.34-5.59-45.61,15-52.38,34.68,9.59-6.29,17.83-13.83,29.08-14.1,4.63-.11,8.24,0,13.44-1.08-5.34,2.22-8.17,5.03-11.38,8.98-10.4,12.78-15.44,27.18-15.36,44,.05,10.57-5.12,20.62-9.64,29.94-.52,1.08-.31,2.12.73,1.95-4.29,3.58.53,2.33,4.52,1.22,12.74-3.54,25.91-9.77,33.05-21.06,7.25-6.93,9.57-14.33,15.41-21.01,1.73,4.54-.28,12.98-1.94,17.89-7.41,21.85-19.02,35.86-39.53,45.91-.83.95-.9,1.85-2.83,2.57l-13.16,4.86c-.8.3-1.15,1.04-1.23,1.48-.55.78-.55,1.42.28,1.63,22.36,5.89,31.25,2.71,51.04-6.97.74-.36,1.39-.02,1.92.7.89,2.43,12.99-3.78,15.48-5.59,7.15-5.2,13-11.55,18.51-18.45.86-1.08,1.68-1.82,2.69-2.14-4.11,12.59-12.05,24.37-24.28,31.47-13.09,7.6-27.38,11.69-43.06,10.27-.14,1.85,1.74,2.78,3.23,3.18,12.09,3.22,23.62,1.74,36.02-1.85-5.08,20.49-5.3,44.23,3.75,64.11-19.66-4.37-27.34-24.18-29.47-41.26-.25-2.02-.18-4.12-1.53-5.51-3.01,5.99-2.73,11.41-4.31,17.46-6.29-7.9-4.01-23.81-7.2-26.62-1.47.09-2.23,3.1-3.97,2.47-15.43-5.61-27.74-8.33-42.17,1.44-4.5-9.34-9.6-18.16-12.01-28.19-2.6-10.85-1.75-23.32,2.86-33.46,2.8-6.16,9.69-9.34,11.05-16.67-8.68,7-20.21,15.41-32.09,12.77,11.42-9.46,20.06-20.44,26.3-33.54,1.88-3.94,5.66-6.53,6.7-11.1-7.93,3.86-13.77,19.75-22.12,23.35-11.54,4.99-25.17,3.08-35.16-5.83,18.12-1.87,32.56-12.1,39.04-29.03,10.3-26.94,16.5-35.03,41.08-49.91,5.85-3.54,12.36-4.26,18.81-7.2-4.39-3.91-9.51-2.94-14.24-3.8-13.96-2.52-27.15-.18-40.06,6.63,2.76-7.19,8-11.28,13.77-15.26,13.01-8.98,29.15-12.15,44.04-5.98,5.94,2.46,10,7.6,16.28,9.49-.04-3.47-2.54-5.35-4.37-7.38-8.81-9.74-14.21-21.35-13.27-34.54,3.91,10.78,9.74,18.81,16.96,26.74,2.21,2.43,3.32,5.48,7.56,6.23-8.43-17.84-6.31-37.53,2.91-53.66l1.67,2.41c-3.01,16.33-1.29,34.5,6.33,49.52-1.35-5.45-2.54-17.61,2.16-21.55s6.61,2.22,7.03,6.38c.17.53,1.18,3.54,1.28,3.72.96,1.72,5.78-9.13,5.87-9.51,7.72-6.79,7.1,7.76,2.82,11.81Z"/>
            <path class="cls-21" d="M543.41,130.76c.72.48.42.78-.91.9-2.28,2.43-6.84,1.4-7.9-1.73-.35-1.39-1.82-2.26-3.49-2.71-4.08-1.1-7.25-3.19-11.02-4.85l-10-4.4c-2.76-1.22-7.53,1.25-9.68-.67-2.65-2.38-5.62-2.15-8.03-3.4-4.29-2.23-7.23-2.27-12.01-2.56-11.49-.7-23.53-2.3-34.72,1.54-5.56,1.91-10.74,3.5-16.27,4.95.57-.15-16.41,7.95-17.88,8.95-4.39,3-8.61,9.2-14.9,8.62-2.96-.27-4.08-8.32-1.66-9.67,3.22-1.79,4.14-3.71,6.04-6.33.82-1.12,3.37-.99,3.67-2.21.43-1.73-.13-3.44-.56-5.3,5.88-11.35,13.21-7.22,12.81-13.87-1.6-2.59-8.24-.35-10.32,1.46-3.14,2.74-6.06,2.66-9.57,3.87-13.95,4.8-9.92,5.34-18.56,10.47-3.03,1.8-5.34,4.57-8.67,6.07-5.98,2.7-12.96,14.43-13.83,20.53-4.06,1.53-8.72,6.61-6.27,11.24,1.85,3.5,2.9,6.16.72,10.31-.83,1.57-1.46,3.84-3.62,3.59.6-4.18,1.81-8.41,1.52-12.75-8.45,5.43.15,6.61-11.77,13.95l-1.41-10.66c-.2-1.52-2.69-3.17-3.85-1.64-7.1,9.43,1.09,23.53-.32,33.78-4.62-9.78-7.55-19.47-10.9-29.56-3.71-11.19-2.05-25.12-.44-35.89,5.93-10.37,12.23-20.59,23.99-27.52-8.21,20.52-12.12,40.91-5.56,64.22,2.82-1.84,3.02-5.02,4.37-7.95,3.17-6.89,6.5-13.59,10.98-19.83,18.26-25.49,51.42-40.46,83.38-41.96-20.18,13.69-19.16,13.12-31.85,32.45-1.89,2.89-6.68,3.26-6.18,8.4,26.46-21.42,63.82-29.53,97.28-20.05,16.88,4.79,32.78,11.36,47.4,20.21Z"/>
            <path class="cls-14" d="M522.59,335.78c-3.69,5.37-7.12,10.9-13.36,14.87-6.35,4.03-12.15,8.92-19.75,10.68,15.03-26.13,2.9-64.87-11.49-87.79-.36-.58-1.05-.67-1.33-.98-1.15-1.27,0,3.54-.66,2,5.33,12.65,9.96,25.2,12.32,38.19-3.86-4.91-8.09-8.37-12.87-11.75-12.76-9.02-24.58-18.24-35.5-29.59-6-6.24-10.1-13.64-15.18-20.62-1.07,0-2.44-.19-2.13.91,2.58,9.3-16.14-36.05-5.15-19.78,11.69,17.32,37.03,37.91,56.87,45.81-1-12.5-19.37-30.26-26.88-41.29,18.02,9.07,32.17,23.11,42.73,39.8,12.58,19.89,15.49,43.88,11.46,67.17,10.63,1.44,14.24-6.68,20.94-7.63Z"/>
            <path class="cls-47" d="M693.49,241.04c1.53,7.07,2.25,14.16,2.17,21.29-2.09,4.97-.06,4.13,6.1-2.52l2.05.03c2.17,3.25,3.53,6.34,4.91,10.1-6.46,8.32-16.4,12.04-27.02,10.6-18.63-4.02-25.07-15.75-34.62-32.16,11.9,1.3,22.07,6.45,31.13,13.66,1.2.96,3.53.7,4.41.15s1.89-2.74,1.6-4.43c-6.77-39.89-21.7-66.5-61.58-81.27,3.78-4.26,7.04-8.52,10.52-14.23,22.15,21.38,41.24,44.78,56.71,71.16,1.62,2.76,3.03,5.02,3.63,7.61Z"/>
            <path class="cls-9" d="M433.4,278.79c4.62,8.03,10.08,14.99,16.36,23.35-29.49-10.66-45.96-28.36-61.65-53.67-1.4-2.26-3.68-3.93-5.79-5.72,8.07,28.83,10.25,54.29-7.94,80.02-.62-4.49.43-8.77.23-13.04,5.92-.73,7.72-23.37,8.37-28.77,1.56-12.9-5.69-33.47-2.92-49.18,2.78.36,3.22,3.11,4.64,5.12,9.25,13.07,20.99,23.29,33.38,33.29,2.84,2.29,12.36,9.91,15.31,8.6Z"/>
            <path class="cls-63" d="M576.15,466.28c-1.07-7.46.72-13.64,1.47-20.35l12.63-20.06c.16,14.72-4.79,28.45-14.11,40.41Z"/>
            <path class="cls-61" d="M548.64,132.89c-1.78-.61-4.22-.78-6.14-1.23.11-.45.49-.74.91-.9,1.44.87,4.59-.28,5.23,2.13Z"/>
            <path class="cls-2" d="M274.32,316.9c14.51-1.51,27.05-9.78,37.57-19.84.62-.2.59.36.55.65-.04.36-.03,1.2-.4,1.66-8.98,11.38-21.44,18.42-35.68,21.22-7.87,1.55-15.62,2.7-23.7-.75,6.58-7.36,11.81-14.3,17.2-21.51-1.36,8.09-7.03,13.41-11.14,19.65,5.76,2.48,10.86-.6,15.6-1.09Z"/>
            <path class="cls-40" d="M327.24,339.01c-2.51.75-3.31,3.94-5.39,5.13l-7.03,3.98c-15.99,9.05-35.62,10.06-51.29,1.2,1.64,0,4-1.12,5.08-.55,2.49,1.32,5.3.61,7.89,1.18,10.36.67,21.44.09,31.15-3.12,6.81-1.31,12.48-5.78,18.81-8.44.76-.51,1.02-.3.78.62Z"/>
            <path class="cls-100" d="M380.54,161.98c-10.35,10.21-15.7,22.98-17.88,37.42-3.71-17.99,10.71-38.17,23.9-48.7,3.18-2.54,6.8-3.83,10.02-4.56-6,5.63-12.47,9.4-16.04,15.83Z"/>
            <g>
              <path class="cls-61" d="M534.61,129.93l-4.84,1.16-25.22-5.64c11.79,3.86,23.37,8.38,34.72,13.55l36.52,8.55c1.25,1.58.23,3.8-1.62,4.2,12.45-.32,24.67-2.92,36.68-7.8l1.51.78c4.58,2.14,8.6,6.89,13.3,10.56-4.61,9.64-11.92,17.02-20.88,22.77-6.2,3.98,13.53,7.68,16.96,8.51,2.58.62,3.93,2.56,5.72,3.28,3.31,2.2,23.42,16.37,18.9,20.53-.4.37-1.16.36-2.01.24-8.95-5.62-18.38-10.11-28.3-13.48,12.88,5.78,23.73,13.92,33.77,23.72,4.49,4.38,14.48,14.69,16.13,20.26.35,1.17-.05,2.39-.48,3.47-9.92-2.09-19.57-4.62-30.56-3.02l12.72,25.61c.19,6.74-5.55,1.42-8.37-1.3-7.66-10.54-5.9-5.96.07,3.05,13.19,19.94,29.76,27.7,52.58,21.06,2.71-2.38,7.24-3.23,10.68-4.83-2.13,7.41-6.35,12.25-9.47,18.11-1.92,3.61-5.52,5.13-7.7,7.8l-9.52,4.94c-3.63,1.69-9.05,1.78-7.45-3.03,15.88-7.42,31.52-20.22.11-11.7-23.53,2.89-36.03-7.48-51.21-24.46-2.56-1.3-4.18-2.89-4.86-4.78l-1.21-1.2c-1.64-6.72-2.54-8.08-2.72-4.06-.54,2.07-1.75,2.18-3.48,1.13-9.11-8.15-19-14.67-29.66-19.56,5.07,4.12,8.68,8.94,10.83,14.48.97,18.03,9.25,33.63,20.84,47.12,2.21,5.39-6.68,3.96-9.82,3.37-15.9-2.99-35.21-14.46-43.86-28.24-2.39-1.79-3.95-3.81-4.66-6.07.64-8.96-1.76-17.38-5.07-26.4-8.9-24.3-26.45-44.73-50.17-55.52-8.33-3.79-16.99-5.95-26.25-4.72,18.13,3.72,34.24,11.07,47.15,24.76,13.88,14.73,23.54,33.26,26.12,53.56,2.25,17.69-2.28,33.94-8.16,49.75-2.31,6.22-6.38,10.43-9.77,15.35-1.81,3.57-19.96,14.48-22.31,8.35-.29-.76-.33-1.62-.31-2.51,7.2-39.24-11.15-76.95-44.52-98.06,6.9,7.71,12.92,16.02,18.07,24.93,3.06,9.33,4.18,12.97-7,7.88-18.26-8.32-35.91-24.9-48.53-40.28l5.65,14.3c-1.14,2.25-1.48,2.68-1.01,1.31,2.6,9.39,5.82,18.49,10.76,27.09-.48,5-9.07-1.28-11.77-3.33-14.74-11.21-29.59-23.89-39.8-39.56-2.17-.44,2.37,30.13,2.84,32.83,1.45,7.24-1.1,37.62-7,41.58-1.31.88-1.83.83-3.05-.57-.39-8.14-5.8-42.33-13-49.2-1.1,2.23-.05,4.47.56,6.73,2.08,7.72,4.15,15.48,4.28,23.44.17,10.34-5.11,18.63-7.92,27.26-3.79,9.11-25.49,30.43-35.91,28.65-.74-.13-.9-1.46-.77-2.48-.93-2.34,3.1-4.93,5.39-5.13,2.25-2.12,1.99-2.32-.78-.62-2.26,2.55-13.99,10.18-16.53,9.95-.91-.08-1.64-.83-2.28-1.52-9.71,3.23-20.83,3.79-31.15,3.12-1.65,2.86-7.25,1.79-7.89-1.18-.87-.28-1.75-1.08-1.4-1.71.56-.98,14.83-7.16,16.33-7.44.76-.14,1.54.06,2.28.25,20.1-9.93,33.06-24.55,39.64-46.32,1.59-5.27,3.57-13.01,1.83-17.48-1.83,5.81-4.7,11.19-8.59,16.15-1.8,3.51-4.08,5.13-6.82,4.86-4.63,8.54-25.09,21.78-34.64,21.39-1.16-.05-2.12-.73-2.92-1.55-2.39.32-3.35-.21-2.87-1.62,4.69-8.71,7.91-17.77,9.65-27.19-.55-19.85,6.05-39.14,20.3-53.06-11.45.07-21.85,4.32-31.2,12.75-8.34,1.57-1.08-9.4,1.7-13.41,8.02-11.54,21.79-22.33,35.94-24.39,7.16-1.04,11.82-.72,16.54,4.71,11.25-5.1,23.61-5.76,31.18,5.63,4.25,2.04,4.66-.23,1.22-6.83.28-2.55,1.81-4.85,4.61-6.91,1.68-4.32,4.24-6.36,7.67-6.1,1.92,2.61,5.65-1.03,7.4-3.03,7.63-11.09,17.17-20.43,29.92-25.83-13.22,2.48-24.7,10.03-34.3,19.22-2.49.92-3.01-.44-3.31-3.02,2.06-9.3,5.99-17.92,11.77-25.87-1.06-2.18-.03-4.39,3.07-6.62,4.47-3.37,5.45-4.92,2.95-4.66-17.08,11.8-36.03,25.43-35.54,48.89,0,1.67-.82,2.09-2.13,2.53-11.08,3.71-15.56-23.61-11.75-29.17,2.92-4.26,6.57,2.21,6.34,5.91-.48-5.51.62-9.94,3.3-13.32,2.69-3.34,4.92-10.58,1.1-13.05-2.38-5.62,1.2-11.48,6.6-13.2,1.2-8.38,7.06-15.44,13.44-20.69,9.64-7.93,22.53-16.14,34.79-19.02,12.85-9.81,24.96-1.57,7.32,7.72-3.29,2.42-4.36,5.16-3.22,8.23-1.54,2.81-3.63,5.45-6.26,7.92-6.2,2.6-7.4,13.18.79,8.88,26.47-21.91,68.97-32.18,100.77-16.34l4.3-.28c5.23,1.52,25.97,9.09,28.91,12.13.52.53.03,1.43-.7,2.08Z"/>
              <g>
                <path class="cls-69" d="M534.61,129.93c2.52.42,5.33,1.14,7.9,1.73,1.79-.44,4.6-.09,6.14,1.23l22.9,7.88c11.93,4.1,24.48,4.49,37,1.86,2.2-.46,3.15,1.11,3.81,2.1-14.83,6.44-34.24,12.73-48.48,6.67l11.8-1.94-33.22-7.54c-9.37-2.13-17.43-6.96-26.22-10.63s-18.29-4.69-27.06-9.15c7.33-.81,13.88.93,20.59,2.46,8.55,1.95,16.67,3.97,24.87,5.34Z"/>
                <path class="cls-60" d="M665.45,244.57c-5.69-11.99-15.36-21.13-25.58-30.07-11.09-9.71-23.73-15.3-37.76-21.33,16.44-.07,30.55,8.13,43.72,16.39-4.43-7.4-11.31-12.47-17.94-18.06-.62-.52-1.55-1.47-.44-1.68,26.39,10.57,38.43,32.07,46.36,58.98-3.36-.84-6.97-2.01-8.35-4.23Z"/>
                <path class="cls-106" d="M647.61,267.17c8.16,16.43,26.16,24.92,44.29,22.81-5.68,4.98-13.23,4.93-20.95,3.53-6.96-1.26-13.29-2.33-19.02-7.13-10.4-8.71-18.04-20.37-22.31-33.43-.21-.64.18-1.82.38-2.12,1.5-2.29,5.47,10.39,14.92,17.53.71.53,2.14-1.12,2.69-1.19Z"/>
                <path class="cls-50" d="M510.51,274.35l-18.8-19.37c4.51-2.51,13.16,8.56,18.48,11.02,1.41-7.49-.45-14.61-1.47-22.23-.21-1.55,2.74-1.34,3.52-.75l10.72,8.14c-3.56-14.07-11-24.9-19.49-36.17,10.89,5.57,16.84,15.78,21.87,26.3,7.33,15.34,8.81,32.15,7.91,48.62l-4.99-18.92c-1.58-5.97-5.98-10.8-10.48-15.23,0,5.24,1.23,18.12-3.91,20.02-1.01.38-2.21-.24-3.35-1.42Z"/>
                <path class="cls-93" d="M316.39,262.93c-.61-1.15,0-3.18,1.46-3.03,5.79-5.51,13.2-17.85,22.66-17.03-11.28,9.46-20.87,28.13-26.97,40.91-.55,1.16-3.62,2.07-3.7,4.34-7.3-.81-2.83-22.32-.5-27.81,4.15,4.41,0,8.56,1.54,13.82,1.9-4.01,2.98-7.91,5.51-11.2Z"/>
                <path class="cls-44" d="M528.46,204.13c11.79-4.65,21.21-12.12,28.01-22.53-9.11,6.12-18.32,10.63-29.05,13.11-10.33-.01-20.67,1.7-30.21-3.06,19.55,3.23,36.74.8,53.33-8.7,4.13-2.36,8.53-3.5,10.99-8.38-1.61,15.56-28.65,37.81-45.25,33.41,3.21-3.5,7.89-2.15,12.18-3.85Z"/>
                <path class="cls-18" d="M612.48,272.03c-.05,1.79.78,3.05-.69,3.93-.47-3.74-2.46-6.39-3.24-9.19-3.84-13.8-11.76-25.43-22.32-34.39-10.01-9.05-21.75-13.3-35.19-15.31,9.95-2.44,19.23,1.2,27.68,5.91,18.35,10.22,30.69,28.69,33.77,49.05Z"/>
                <path class="cls-89" d="M285.82,339.86c6.71-7.71,31.33-16.97,39.26-50.65,1.07-4.53,3.02-8.84,2.21-13.15.19-.53-.2-1.4.88-2.26,1.61,8.69-.08,17.05-2.99,25.75-5.45,16.29-16.13,29.57-31.38,37.52-2.68,1.39-5.21,2.75-7.99,2.79Z"/>
                <path class="cls-25" d="M317.85,259.91c-.45.63-.45,1.85-1.46,3.03-2.21-.99-.14-3.34.33-5.11,3.34-12.51,10.99-22.89,21.53-30.35,4.28-3.03,9.05-4.94,14.09-4.01-2.97,2.71-6.61,2.49-9.63,4.61-11.33,7.92-20.7,19.05-24.87,31.83Z"/>
                <path class="cls-28" d="M307.65,346.82l-.27.97c-10.11,2.97-20.87,4.35-30.89,2.15,6.02.03,25.77-2.09,31.15-3.12Z"/>
                <path class="cls-28" d="M327.24,339.01l-.78-.62c1.44-.61,2.07-3.89,4.37-3.07-.76,2.14-2.31,3.31-3.59,3.69Z"/>
              </g>
            </g>
            <g>
              <path class="cls-59" d="M608.55,266.77c2.59-.01,3.29,5.7,3.36,8.18,0,.16-.34-3,.57-2.91,3.21.46,5.95,2.79,8.51,5.61,8.57,9.44,18.18,18.66,31.22,21.63,17.82,4.05,34.72-8.81,36.49.14,1.09,5.49-14.51,12.97-19.72,15.03,4.1,2.64,10.5-3.8,16.43-3.37-7.88,9.69-26.59,19.31-39.45,20.99-3.04.4,4.46,6.05,3.63,8.92l-2.08,2.05c5.62,13.82,8.29,28.97,7.72,43.82-.62,2-.82,4.26-3.04,6.48-10.13-20.36-18.05-24.55-34.94-38.46-.59,3.54,1.68,6.59,2.2,10.12,2.9,19.49-6.65,37.84-23.83,46.96-10,5.31-11.99,13.34-17.84,21.84,1.73-14.33,5.39-27.57,9.61-41.15,3.99-12.83,5.59-25.23,6.81-39.52,5.48,11.08,7.11,23.72,4.77,35.92-1.44,7.51-6.35,12.66-9.18,20.11,19.7-16.41,17.63-51.27,2.68-71.44,21.88,3.12,46.82-2.93,59.08-21.58-4.73,1.07-7.03,4.59-11.29,6.6-23.23,10.95-51.33,9.98-72.93-4.65-8.46-5.73-14.13-14.95-19.76-23.04l1.15-16.03c5.01,1.95,7.86,6.93,11.01,11.69,9.24,9.37,31.8,22.69,46.62,21.2-6.31-6.57-10.23-13.27-14.29-20.43-4.94-8.72-6.62-17.75-7.72-27.73-.72-6.5-8.93-11.03-12.73-17.04,4.45-4.68,27.16,13.54,31.65,17.45,1.7,1.48,3.27,2.69,5.27,2.63Z"/>
              <path class="cls-84" d="M649.59,340.97c8.7,10.56,9.48,33.52,5.64,45.87-3.37-14.39-2.92-30.96-11.39-46.76,1.8-.33,3.74.42,5.75.89Z"/>
              <path class="cls-40" d="M648.4,313.4c-21.53,8.86-47.33-13.96-58.5-31.76-1.85-2.94-3.13-6.3-2.61-9.75,3.97,2.41,4.12,6.47,6.5,9.78,9.28,12.87,22.39,22.65,37.09,28.77,5.47,2.28,10.94.79,17.52,2.97Z"/>
            </g>
            <g>
              <path class="cls-99" d="M326.69,514.69c-9.52,6.12-19.45,9.54-30.55,6.47,6.33-7.4,10.34-15.71,12.64-25.27-4.53.85-7.18,3.67-11.07,5.17-8.79,3.39-18.47,4.91-27.86.82,8.85-4.88,13.37-11.28,15.23-20.72,10.4,5.57,20.53,5.52,30.98,3.5l5.48,13.37c3.53,8.61,8.79,15.74,15.18,23.19-2.82,2.41-6.25,3.88-9.97,4.66.2-3.95,2.23-7.11-.07-11.18Z"/>
              <g>
                <path class="cls-13" d="M467.56,701.93c-3.47,5.18-7.1,9.94-12.29,14.58,6.55-2.67,12.27-7.43,16.3-12.62.56-.63,1.51-1.32,2.04-.94,4.81,3.49,10.31,18.22,10.55,24.37l-2.61,1.58c-24.2,5.55-48.08,9.12-72.12,8.97l-2.8-1.12-4.67-10.48c-2.06-3.83-2.16-6.95-.32-9.36l7.99,2.83c10.77,3.82,21.4,6.77,32.96,6.01-.68-2.67-2.88-1.59-4.99-1.75-13.9-1.05-26.12-6.29-38.05-12.02-4.44-2.98-7.08-13.55-3.04-17.17l23.15,5.15c16.32,3.63,32.89-1.35,43.13-14.09,3.12-.49,5.45,5.93,5.93,8.68.53,3.03.12,4.49-1.17,7.38Z"/>
                <path class="cls-66" d="M476.65,601.87c2.99,2.57,5.14,5.88,7.61,9.4,10.94,15.54,15.8,21.94,20.05,41.57-2.88,21.56-2.46,42.48.39,63.97.24,1.83.14,3.61,1.89,3.77-1.4,2.84-5.38,2.74-7.91,3.2l-4.38-27.88c-3.06-19.49-16.19-61.08-28.91-77.85-.49-.65-1.77-1.37-2.18-.97-.5.5-.56,1.65-.18,2.5,6.05,13.59,12.86,26.31,16.81,41.51l-27.23-37.2,4.99-19.81c6.94.22,12.93-1.05,19.05-2.21Z"/>
                <path class="cls-30" d="M337.84,556.84l-1.72,1.39c-7.69-.02-15.54,1.79-23.53,5.43-1.26,3.22-2.29,3.79-3.11,1.73l-3,.34c-7.46,2.21-14.46,6.86-19.39,13.56s14.9,20.02,17.63,21.61c-4.46,3.15-9.8,3.72-15.83,4.15-3.49,12.93,16.85,41.24,24.39,48.57-2.15,1.15-3.21-1.61-4.9-2.47-4.62-2.38-7.42-5.66-10.37-9.9l-5.69-8.19c-1.25-1.8-4.32-1.06-5.85-1.3-3.49-5.47-10.03-9.31-12.79-16.28-4.37-11.07-8.43-22.33-10.64-34.11-.79-4.2.11-7.12,3.36-9.74,12.03-9.7,25.77-16.35,40.93-19.94l30-7.09c.64,4.63.48,8.41.52,12.25Z"/>
                <path class="cls-75" d="M322.55,692.74c4.03,3.8-.63,5.77-4.85,4.3-.16,2.52-1.15,4.21-2.98,5.06-1.67-.42-2.71-.14-3.1.81l-2.05,1.05c-11.59-7.91-23.51-15.28-35.76-22.12-8.36-3.15-26.23,6.36-33.68,11l-2.15-.09c-11.28-6.09-21.48-12.51-31.44-20.64,9.31-6.28,18.24-11.62,27.64-16.81,3.1-1.71,6.11-1.92,9.52-.49,19.57,5.87,37.66,14.53,55.43,24.46,8.18,4.57,15.87,8.73,23.42,13.46Z"/>
                <path class="cls-62" d="M311.62,702.92l1.8-1.1,31.2,26.06c2.01,3.16,1.91,4.58-2.11,4.19-37.38-7.18-73.06-19.78-104.53-39.31.58-4.19,23.33-12.01,27.98-13.38,4.04-1.19,8.35.12,11.99,2.29l11.21,6.68,22.46,14.59Z"/>
                <path class="cls-36" d="M337.84,556.84c.06,5.18-.57,51.73-7.37,52.39-4.52-1.26-7.99-4.98-12.08-7.3-8.48-4.8-16.3-9.99-24.01-15.87-10.51-8.02,11.22-15.94,15.93-19.57-1.38-1.17-2.76-.53-3.83-.76,1.22-.36,2.21-1.4,4.21-.72-.36-1.37-1.14-1.26-1.34-1.85-.14-.39.58-.75,1.31-.98l16.08-5.15c3.83-1.23,7.71-2.06,11.1-.19Z"/>
                <path class="cls-31" d="M342.5,732.06c.17-.11,1.78-.36,1.59-.74s-.46-1.73-.96-2.14l-31.51-26.27c-.29-1.24-1.54-2.14-.83-4.17,1.13.79,3.61,2.44,4.24.92s.16-3.31,1.52-4.22c1.79-1.2,4.41,1.23,5.69-.35.6-.74.5-1.61.31-2.35,20.52,12.86,32.57,24.68,46.71,43.07-9.93-.32-18.32-2.13-26.75-3.75Z"/>
                <path class="cls-33" d="M578.63,687.86c-10.66,6.85-21.21,12.71-32.89,17.96,1.3-10.81,3.19-20.52.75-30.83,2.38-3.06,3.68-6.14,6.24-8.23l1.43-.12c6.84,7.74,15.24,14.03,24.35,18.9l.12,2.32Z"/>
                <path class="cls-108" d="M540.38,708.5c-8.74,3.81-16.58,7.38-25.86,10.29,6.93-13.87,15.71-25.52,26.14-37.21,1.65,9.34-.08,17.8-.28,26.92Z"/>
                <path class="cls-12" d="M481.55,728.9c3.09-2.77-5.85-22.53-9.97-25.01,4.21-5.42,5.7-12.16,9.65-18.02,1.04,3.54,2.64,7.77,3.35,11.99l4.8,28.79c-3.01,1.02-5.36,1.69-7.82,2.25Z"/>
                <path class="cls-4" d="M467.56,701.93c.5-5.76-2.17-11.01-4.77-16.07,3.98-6.17,6.35-12.24,8.4-19.26,3.57,5.02,6.14,9.97,8.05,15.12-2.59,7.92-7.48,13.92-11.69,20.21Z"/>
                <path class="cls-95" d="M401.64,716.91c.99,7.47,4.42,14.26,7.79,20.96-2.32-.01-5.91,1.34-7.12-.41l-12.47-18.02c-1.65-2.38-.89-6.19-.74-8.53,5.24,1.65,8.53,4.58,12.55,6Z"/>
                <path class="cls-5" d="M578.63,687.86c-7.47-3.83-22.31-13.45-25.9-21.1.17-.74.96-1.77,1.56-1.42,10.62,6.24,21.38,11.41,32.6,17.21-2.71,3.02-5.79,3.71-8.27,5.3Z"/>
                <path class="cls-94" d="M396.51,694.81c-.36,5.71,1,11.81,3.04,17.17-4-1.92-7.85-2.31-11.3-4.73l-2.19-17.09c3.86.73,6.89,3.85,10.45,4.64Z"/>
                <path class="cls-20" d="M394.54,737.09c-1.42,1.43-3.5.79-5.41.26-.18-2.74-.44-4.99.32-7.79,2.52,2.23,2.78,4.31,5.09,7.53Z"/>
                <g>
                  <path class="cls-80" d="M286.46,631.75c.57-3.17,4.56-2.12,6.76-.63,5.42,9,12.11,16.5,20.06,22.49l10.94,10.62,12.61,13.35c4.26,4.51,12.06,23.11,25.16,32.89,3.29,2.46,4.24,6.14,2.53,9.59-11.77-12.38-23.98-23.85-38.74-33.43l-31.54-20.46c-9.82-6.37-20.33-10.44-31.01-15.14-8.74-3.85-17.87-6.01-27.35-6.54-4.91-4.84,8.58-21.29,12.08-25.39l15.65-18.33c2.07,4.84,2.45,9.63,5.13,14.15,11.1,18.67,29.51,40.84,50.97,47.89-12.81-9.06-25.14-18.35-33.26-31.06Z"/>
                  <path class="cls-96" d="M264.5,623.88c5.22,9.8,11.3,18.24,18.39,26.86-11.69-6.96-17.82-19.08-22.19-31.39,1.92.99,2.87,2.78,3.8,4.53Z"/>
                </g>
                <g>
                  <path class="cls-17" d="M336.81,623.23c.12.64.28.94.5.91,9.83,8.04,18.27,17.49,26.63,27.03,6.48,22.61,13.05,45.61,17.21,68.65-.47-1.37-.25-2.03.67-1.97l4.04,19.27c-2.44.25-6.44.87-8.48-1.05-5.13-4.82-8.33-11.25-12.85-16l-2.2-6.46c-10.69-9.66-19.52-21.03-26.49-34.11l-15.54-16.28.04-1.26c-2.9-2.08-5.4-4.38-7.51-6.92l.46-1.41c-11.22-7.48-21.01-23.43-25.15-36.33-1.36-4.25-3.54-11.92,1.15-14.19,4.4-.15,8.58-1.07,12.54-2.76l2.89.57c11.32,6.58,21.79,14.51,32.09,22.33Z"/>
                  <path class="cls-85" d="M381.81,717.84l-.65,2.01c-1.87-3.09-2.07-6.61-3.09-10.32l-15.82-57.37-26.05-28.59c.19.06.42-.08.61-.34,10.9,8.28,23.07,14.92,32.23,26.47l12.77,68.15Z"/>
                  <path class="cls-107" d="M375.91,723.42c-5.35-12.75-9.01-24.88-13.46-37.45-4.1-11.58-9.44-21.63-14.8-33.49,12.56,10.46,26.09,55.14,28.25,70.93Z"/>
                </g>
                <g>
                  <path class="cls-37" d="M502.72,596.14c11.41,11.78,23.45,23.2,36.1,34.26,9.48,10.58,6.56,25.88.55,37.34-3.11,7.38-7.49,13.44-12.15,19.67-7.99,10.71-14.92,21.55-20.63,33.15-.63.61-1.46,1.24-2.27,1.04-2.06-.52-3.16-17.73-3.34-21.39-.78-15.81-1.08-31.63,1.34-47.34-3.27-18.62-14.33-34.07-25.85-48.46l.18-2.56c7.03-2.69,12.94-6.91,18.83-11.19,3.73.32,4.97,4.27,7.24,5.46Z"/>
                  <path class="cls-77" d="M539.37,667.75c-.39-.79-.18-1.68.21-2.78,3.43-9.55,5.98-25.05-2.12-33.1-13.01-10.74-24.55-22.34-35.57-35.1.09-.45.61-.42.82-.62,9.1,4.79,52.61,35.41,49.82,46.55-2.4,9.57-7.95,17.48-13.17,25.06Z"/>
                  <path class="cls-103" d="M506.72,710.04c5.87-22.96,19.52-46.99,30.99-69.49.49,3.82-.88,7.45-2.6,10.99l-28.4,58.5Z"/>
                </g>
              </g>
              <g>
                <path class="cls-98" d="M330.61,430.82c.84,8.99,2.37,17.89,4.87,27.04,8.48,31,12.19,50.46,36.94,74.18,13.81,15.59,28.96,28.72,45.49,41.27,4.6,3.49,8.53,6.98,13.92,9.38,1.64.73,3.21,1.8,3.69,3.26-12.51-4.66-23.47-12.26-34.97-20.02-37.34-25.19-69.51-59.43-81.62-103.1-1.15,3.74-.34,6.84-.7,10.68-19.81,4.88-33.75-.83-46.66-14.73.57-2.48,2.6-2.94,6.06-1.39,7.09,3.85,14.01,4.84,20.74,2.98,1.98-3.01,3.99-4.14,6.03-3.38l.66-1.13c-6.66-4.14-25.45-17.21-15.07-25.95,3.85-3.23,8.57-2.62,12.83-.46-.97-19.98-35.54-58.56-48.76-27.63,2.37-3.96,10.17-8.67,9.17-1.57,4.46-8.35,8.21-6.71,14.78-2.01,2.66,1.91,12.02,11.21,10.09,14.31-.42.67-1.28.88-2.05.9,7.32,3.1,15.33,13.45,2.74,14.64-10.09,5.2-4.51,16.55,3.17,21.39l-.37,2.37c-.12,1.47-.5,1.87-1.63,2.21-6.21,1.84-21.7-10.18-25.91-15.23-4.06,1.68-8.08-3.2-10.35-6.43-5.01-7.14-7.03-17.07-5.33-25.6-2.91-12.93,3.93-26.21,16.23-30.93,6.13.1,12.3,1.82,18.56,3.35,9,2.21,3.92,15.24,22.2,36.8,4,4.72,7.69,9.94,13.95,11.55,1.8-3.5,9.34,2,11.29,3.26Z"/>
                <path class="cls-32" d="M439.4,634.78c-.68,7.3-3.47,31.99,3.69,37.86-.37-3.81.78-6.7.87-9.68,1.05-1.66,2.08-1.44,3.1.09l7.53,10.76c2.28,1.99,3.59,4.04,3.92,6.15-8.54,12.35-24.72,16.61-39.71,12.76-11.31-2.9-22.36-4.31-33.36-8.8l-5.91-34.01c-2.24-6.25-9.19-30.88-6.37-36.74.33-.68,1.6-.48,2.49-.06,1.8,1.74,3.12,4.07,3.97,6.99l.97-1.16c-3.69-7.29-6.85-14.79-9.5-22.51-1.92-9.18,1.02-8.97,7.17-3.4l24.71,27.15c7.65,10.42,16.81,15.44,27.49,15.06,3.46-1.39,6.44-1.54,8.96-.46Z"/>
                <path class="cls-86" d="M481.49,362.96c.04-6.87,1.38-32.7-4.9-36.39-28.39-.56-53.73-11.87-72.72-33.69-2.42,9.75-5.32,17.1-8.35,24.83l-14.45,6.24c10.88-16.2,16.36-33.62,12.96-53.75,13.4,17.73,31.8,32.59,54.05,39.9,7.17,2.35,14.35,4.95,22.31,2.57-8.03-8.52-17.39-13.84-22.84-24.07,8.96,7.08,16.17,13.68,25.37,20.11,5.78,4.04,14.17,9.98,15.64,17.12,2.71,13.07-.13,27.1-7.08,37.13Z"/>
                <path class="cls-3" d="M554.39,342.83c-2.64-.67-4.84-2.66-6.6-5.96l-2.92-3.07c-3.16,6.49-6.1,12.36-12.44,15.99-3.96,1.26-7.83,4.29-12.02,6.14-3.21,1.42-3.29,6.7-5.5,8.87-.97-2.67.67-4.82.26-6.94-2.07,3.13-5.04,5.2-5.78,8.12-.59-.95-2.1.11-3.14.71-9.18,5.32-18.42,9.78-28.54,11.73.52-3.63,3.18-6.01,2.13-8.54,8.83.04,17.6-3.52,25.82-8.2,20.65-11.76,33.96-31.58,39.92-55.2,8.97,14.23,20.96,25.04,36.73,29.43,1.65,8.28,1.96,15.82,1.8,23.84-2.24-4.98-4.49-10.49-8.86-14.51-5.91-5.44-13.86-4.64-20.85-2.42Z"/>
                <path class="cls-54" d="M578.7,387.93c-5.46,20.8-8.79,41.83-10.36,63.79-2.47,34.56-5.06,58.51-29.06,85.81-12.99,14.77-26.88,27.79-42.62,39.54-1.16.87-2.25,1.28-3.3,1.47,1.44-2.7,4.12-4.96,6.61-7.45,25.4-25.49,41.64-42.23,55.01-76.81,3.02-7.81,4.02-15.8,5.66-23.49,1.45-6.83,2.39-13.75,3.26-20.67-.78-.59-.72-1.07.18-1.45.33-9.75,1.85-19.29,4.08-29.22l5.49-24.43c-2.9-1.83,1.24-8.4,3.49-10.34,1.67-.82,2.2.26,1.57,3.24Z"/>
                <path class="cls-11" d="M264.62,375.87c-1.75,3.11-5.06,4.66-7.77,7.36-5.95,5.92-8.47,15.47-6.49,23.55-2.31,10.51,2.11,25.56,11.93,30.95,3.64-4.42,6.1,7.46,22.86,13.48,2.29.82,4.41,1.11,6.46.66,2.9-1.97,12.78,1.22,12.8,5.13-2.14,1.34-3.28,4.57-5.99,5.6-10.94,4.15-21.38-5.74-26.85-3.79-21.69-14.8-29.89-33.73-27.51-60.5.92-10.38,8.72-22.61,20.56-22.42Z"/>
                <path class="cls-97" d="M578.7,387.93l-.22-1.43c-.53-3.49-5.4,10.97-4.85,8.52-3.88.03-7.35-2.67-11.09-2.26l-2.48-.58c-12.38-21.73-37.63-14.03-47.75,5.87l-2.73.78c-2.73-.55-4.79,1.21-6.89,2.76,1.2-5.74,3.46-11.53,6.59-16.92.79-1.36,3.46-1,4.75-1.54,15.22-6.4,30.14-12.1,45.89-17.08,4.11-1.3,8.47-1.1,11.87,1.8,11.22,9.58,8.65,13.35,6.89,20.06Z"/>
                <path class="cls-64" d="M459.51,365.02c-.29.66.22.97.81.93,1.2,1.24.47,3.14-.9,3.92.67,3.87-8.77,9.68-18.27,7.02-.79-.22-1.88-.27-1.52.75l-2.68-.34c-7.07-8.87-18.26-13.82-29.47-14.38l-1.77-2c-.89-1.45-2.54-2.26-3.19-3.88.77-.95-.52-1.13-3.85-.54-1.9-.89-2.6-3.77-4.95-4.68-4.97-1.93-11.36-3.98-16.57-2.34-1.72.54-10.72,7.43-12.48,2.44,17.7-10.73,34.6-9.2,53.26-.42l34.05,16.03c5.55,2.61,5.37-5.67,7.54-2.49Z"/>
                <path class="cls-67" d="M357.64,354.76c-6.51,5.82-7.5,13.92-14.6,22.35-3.37,4-6.16,7.7-6.31,13.28l-.37,13.45c-.93-9.78-3.63-33.48,4.79-42.48,9.51-10.17,18.12-19.84,22.67-33.43,2.26-6.74,4.77-13.21,5.24-20.18,1.44,8.69,1.17,17.27-1.36,25.47-1.09,3.56-6.33,5.15-7.07,8.68,2.83,2.6-9.28,13.39-3,12.85Z"/>
                <path class="cls-43" d="M458.5,679.96c-4.63-.84-12.11-16.37-14.55-16.99.22-7.71,1.38-15.17,3.49-22.89l18.77,21.25c.9,6.84-4.29,13.69-7.71,18.63Z"/>
                <path class="cls-27" d="M554.39,342.83l-21.96,6.97c-.81.06-.58-.72-.09-1.19,5.76-4.94,8.39-11.31,12.19-18.48,4.02,4.42,7.45,8.3,9.87,12.7Z"/>
                <path class="cls-22" d="M438.73,393.78c2.68-.55,5.28,4.34,3.08,6.17-.36,6.4-.14,13.74-5.33,18.73-1.25,1.21-3.82,1.41-3.95,3.14-18.91,8.05-36.57,6.29-53-6.03-.94-.7-1.25-1.61-.93-2.83-.86-.8-2.53-1.33-3.19-2.75-1.91-4.14-3.57-8.21-4.23-12.34-2.35-2.32-.61-5.29,2.49-5.27,2.32-5.24,15.51-16.4,20.96-15.55,1.55.24,1.89.63,1.85,2.47-.15,2.26-1.44,4.48-3.86,6.67-16.27,41.66,39.99,38.08,21.35-1.35-2.51-1.98-3.92-4.06-4.21-6.26.71-4.19,6.05-2.74,9.21-1.77,8.91,2.75,15.65,8.67,19.77,16.96Z"/>
                <path class="cls-38" d="M405.7,360.9c12.07-.32,27.06,6.21,33.92,16.73,1.24,4.07,8.98,20.27,2.19,22.31-.97-2.01-2.49-3.98-3.08-6.17-13.49-28.51-49.49-26.71-65.07-1.18-.57,1.83-2.08,3.36-2.49,5.27-8.4-3.75.5-19.72,6.3-25,7.92-7.21,17.83-11.69,28.22-11.96Z"/>
                <path class="cls-48" d="M402.51,357.02c-1.15.11-2.79-.05-3.85-.54,9.95-5.85,39.97,5.34,43.82,18.5-5.89-6.33-11.78-11.46-20.05-14.18-6.67-2.19-13.25-4.41-19.93-3.78Z"/>
                <path class="cls-78" d="M304.41,456.99c-4.19-2.71-8.88-2.97-12.8-5.13-3.83-3.58-8.16-6.33-9.61-11.31-1.18-4.03-.62-8.33,2.04-11.59,1.98-2.43,5.44-3.53,10.23-4-1.33-3.15-3.52-6.27-6.36-8.48-4.34-3.37-9.2-2.01-14.3,1.15,1.7-5.9,7.7-7.37,13.48-5.68-2.23-4.89-12.65-16.33-17.82-15.68-1.13.14-1.83,1.5-2.74,2.63-7.95,9.84-6.88,21.76-6.2,34.34-7.13-11.23-4.31-25.01,2.18-35.38-6.09,2.03-9.08,7.64-10.45,14.13-2.28-7.88.93-17.56,8.48-21.91,6.26-3.6,13.76-1.56,19.82,2.19,21.39,13.24,28.86,43.44,22.3,39.37-3.92-2.43-10.26-3.38-12.59,1.54-4.85,10.23,14.39,17.89,17.83,23.07.27,1.09-2.64,1.27-3.48.73Z"/>
                <path class="cls-52" d="M380.57,618.94l7.15,18.8c4.68,12.03,11.39,21.99,18.09,33.19-13.54-12.49-24.15-41.21-30.17-57.82-.47-1.31-1.47-2.96-.58-4.4l5.52,10.22Z"/>
                <path class="cls-24" d="M558.64,407.94c.5.76.26,2.15.92,2.89-1.22,5.55-2.45,11.07-5.13,16.11-6.01,14.99-30.33,11.94-40.66,2.93-3.77-4.89-5.37-11.1-4.45-17.23.3-2,2-4.04,3.1-5.95-.22,7.21-.08,14.26,4.88,19.48,4.83,5.08,12.71,3.68,17.32-1.3,9.49-10.24,5.29-29.21-1.91-32.03.38-4.21,7.73-3.06,10.98-2.16,8.77,2.43,12.79,8.91,14.94,17.25Z"/>
                <g>
                  <path class="cls-70" d="M573.64,395.03l1.2.74c-3.48,15.93-6.33,32.22-8.56,48.87l-2.21,4.03c-.73-.14-.79.34-.18,1.45,2.34,6.4,1.04,15.37-3.26,20.67-13.15,4.17-25.5,5.25-36.5-5.53-8.27-8.11-4.92-9.23-7.57-8.45-.66.42-1.71.98-2.1.59-8.12-7.97-13.78-16.89-16.49-27.96-1.31-5.37.13-2.65-.33-2.08-.24.3-.7.42-1.23.48-1.29-8.09-.52-8.05.94-18.08.63,2-.41,4.2.77,6.17,1.57-5.29,2.04-10.22,4.59-14.33,1.45-3.25,4.45-7.11,6.89-2.76l1.66,1.39c-1.43,4.16-2.51,8.77-1.94,12.4,1.46,2.35,2.3,5.34,2.51,8.96,1.78,3.06,2.42,5.82,1.95,8.27,10.17,8.62,25.88,9.66,37.63,3.44.63-2,1.64-4.13,3.02-6.37-1-2.17-.7-4.66.89-7.45.41-4.14,1.82-7.02,4.23-8.66,3.02-5.11,2.44-10.63,1.3-16.4l1.69-1.66c.55-3.89,10.48-.49,11.09,2.26Z"/>
                  <path class="cls-57" d="M513.77,429.87c14.24,5.64,28.91,10.1,40.66-2.93.33,1.76-.27,3.43-1.48,5.05.46.72,1.13.94,1.44,1.93-11.16,6.75-25.04,7.08-36.61.8-2.1-1.14-3.6-2.93-4-4.85Z"/>
                  <path class="cls-81" d="M564.06,448.67c-.02.48-.12.97-.18,1.45-2.59-1.16-5.27-2.75-6.58-5.67,3.19.59,4.73,2.86,6.76,4.22Z"/>
                  <path class="cls-71" d="M559.09,452.16c-3.09-1.33-5.26-2.92-7.57-5.23,3.76.53,6.23,2.7,7.57,5.23Z"/>
                </g>
                <g>
                  <path class="cls-51" d="M481.49,362.96c-.02,2.63-2.74,4.28-1.64,6.93,2.63.1,2.95,1.93.98,5.5,9.25-2.34,17.97-6.13,26.17-11.35,1.53-.69,2.34.21,2.41,1.95l-4.37,17.34c-2.31,9.19-6.36,17.38-7.68,26.43l-.22,5.05c1.2,1.14,1.42,2.98.66,5.52-.03,2.62-.49,5.13-1.38,7.51,1.71,1.98,2.83,4.69,3.39,8.12,2.4,6.27,5.82,11.99,10.25,17.16,1.88,3.5,4.21,10.81-.55,11.89l-3.55,2.02c-14.21-.56-28.25.47-42.13,3.1l-3.91-1.09c-1.22-.68-1.3.52-.27,3.59l3.19.05c5.96,5.17,12,9.99,19.13,13.45s17.32,2.64,23.15-3.41l2.52.13c.88-4.45,2.47-7.98,4.76-12.02.8-3.22,2.18-5.54,4.15-6.95.58-1.56.94-3.58-.03-5.04-2.65-.37-2.52-1.3.03-2.03,1.31-2.46,3.34-1.15,6.07,3.93,10.3,11.6,21.04,13.28,35.6,8.7l2.4,1.36,1.44,2.96c-6.79,42.82-36.46,78.03-68.71,104.79-1.15,2.17-3.24,2.96-5.36,4.62-15.47,12.13-35.78,9.01-52.48,2.79-26.43-13.72-48.65-35.14-69.23-57.23-11.2-12.02-18.04-23.4-23.6-38.75-3.57-9.88-15.57-50.26-13.2-56.94.27-.78.68-1.51,1.12-2.22,4.63.93,8.71,3.13,14.83,2.02-5.57-9.64-8.12-19.01-9.07-28.99-.73-7.4-.49-14.71.72-21.93,6.25-8.97,12.24-18.11,17.95-27.43l2.6.27c1.9-1.69,5.04-1.66,7.02-2.86,4.36-.35,8.84-1.78,13.45-4.29,6.4-1.6,21.08.92,20.56,8.87,1.86-.55,3.15-.37,3.85.54,3.48.65,4.54,1.94,3.19,3.88-2.32,2.05-5.53,3.23-9.61,3.54-13.65,3.99-30.33,18.1-24.91,33.42l2.32,1.46,3.65,9.92c1.45,1.05,1.93,2.29,1.45,3.72-.38,1.05-.04,1.93.69,2.61,13.87,12.92,36.55,13.78,53.24,6.24-1.6-1.79-.72-3.33,2.63-4.63,3.5-4.44,5.03-9.79,4.6-16.05l2.06-1.2c1.06-6.85-.18-13.71-3.71-20.59l1.52-1.72c-1.85-2.43.26-3.72,2.41-1.72,2.58-.29,5.35-.58,8.29-.87,0,0,3.03-1.72,9.1-5.17,3.31-4.28,3.61-5.59.9-3.92-1.75,1.46-2.35.83-.81-.93,2.76-6.47,6.93-12.68,6.34-20.14-2.32,1.18-.23,3.74-1.9,5.02-1.1-2.06.9-5.13-1.36-6.07-1.87.22-1.49,3.74-2.51,5.03l-1.3-6.35-21.86-11.86c-6.44-3.49-31.38-14.37-38.39-11.09.48-.84,1.86-.07,2.24-1.36-2.44-.98-3.76-.1-5.23-.49l-.96-3.04,6.64-19.46c1.35-3.03,2.41-4.81,4.97-2.43,18.49,20.26,43.63,31.42,71.02,31.97,8.43,8.64,7.57,27.14,4.3,38.21Z"/>
                  <g>
                    <path class="cls-23" d="M516.56,456.81l-.03,2.03c.99,1.36.63,3.55.03,5.04.22,4.42-6.1,15.41-8.91,18.97-.62-1.39.41-2.88.24-5.11-4.99,2.77-9.93,6.11-16.39,5.94,3.61-7.19,15.2-7.17,18.01-18.67,3.64-14.89-8.84-10.44-13.09-37.17.38-.9-.21-2.38,1.45-3.14,2.19,6.7,3.43,13.48,7.91,18.94l10.79,13.17Z"/>
                    <path class="cls-87" d="M378.59,412.96c15.72,14.48,34.41,13.08,53.93,8.85-15.07,10.98-40.06,8.09-54.34-5.2-.9-.84-1.21-2.45-1.35-3.18-.1-.52,1.39-.46,1.75-.47Z"/>
                    <path class="cls-68" d="M443.66,551.7c-.21.52-.34.95-.2,1.08,4.25,3.82,23.28,4.96,28.9,1.77l1.26.41c-.08,2.96-1.45,4.19-3.46,5.6-9.9,6.97-24.05,4.58-30.44-5.7-.69-1.11-.16-3.92.77-4.15,1.09-.26,2.42.76,3.17.99Z"/>
                    <path class="cls-41" d="M443.66,551.7c8.68,2.74,22.7,5.01,29.89,1.3,1.67,1.3.96,1.71.07,1.96-9.22,5.09-21.26,3.82-30.9-1.27-1.41-1.69-.88-1.93.94-1.98Z"/>
                    <path class="cls-6" d="M459.42,369.86c-.33-1.92-.48-2.09.9-3.92,3.96-5.25,5.89-11.46,8.6-18.59,3.35,3.4-3.94,22.19-9.51,22.5Z"/>
                    <path class="cls-56" d="M393.26,441.4l-16.76-12.47c6.67,1.9,12.73,5.65,16.76,12.47Z"/>
                    <path class="cls-16" d="M459.91,469.04c.49.95.41,2.07.98,3.4-.44.12-.86.13-1.25.19-4.72-3.87-1.87-10.91,1.99-13.92-.9,4.14-3.47,6.93-1.72,10.33Z"/>
                    <path class="cls-88" d="M382.25,439.65c-4.7-1.98-8.98-4.66-13.78-8.46,5.29.33,9.93,3.77,13.78,8.46Z"/>
                    <path class="cls-26" d="M370.45,438.52c-4.73-1.56-9.46-3.54-14.24-6.35,5.52-.39,10.03,2.09,14.24,6.35Z"/>
                    <path class="cls-83" d="M493.24,444.5l1.27,1.07c14.14,11.97-13.82-7.13-9.04-5.59,2.27-.65,3.1,1.26,4.52,2.88.94-.44.72-1.47,1.15-1.82.86-.7,1.71.35,2.18.61,1.1.6.95,1.65-.07,2.85Z"/>
                    <path class="cls-82" d="M488.33,447.72c-3.83-.49-6.28-3.04-8.39-5.53,4.19,2.06,6.28,2.34,8.39,5.53Z"/>
                    <path class="cls-70" d="M516.56,463.88l-.03-5.04c1.28-.76,1.71,4.07.03,5.04Z"/>
                    <g>
                      <path class="cls-105" d="M513.34,510.61c-9.47,9.69-17.22,26.43-29.46,30.46-15.18,5.01-30.63,3.24-45.49-2.09-11.85-4.25-21.76-10.46-29.56-20.47-9.02-11.56-15.05-24.39-19.02-38.87-2.6.27-8.31,6.51-8.73,3.48-.96-6.89,15.12-14.98,21.79-12.7-1.26,2.75-4.26,2.73-5.85,5.3,12.16,6.38,24.51,10.71,37.48,15.21,22.91,7.95,45.79,14.05,69.95,17.01,4.96.61,9.3-.22,13.87-2.59,1.61,4.81-3.31,3.57-4.97,5.27Z"/>
                      <g>
                        <path class="cls-102" d="M474.75,507.12c3.92,2.38,8.61,3.68,14.07,3.87,1.93,1.82,4.3,5.96,1.61,7.74-20.05,6.05-60.11-6.02-77.09-18.18-3.56-2.69-5.04-13.46,1.34-11.71,19.58,8.73,39.46,15.2,60.07,18.28Z"/>
                        <path class="cls-74" d="M468.37,525.74c5.68,1.01,10.47,7.7,14.29,11.81-19.64,8.11-51.13-1.3-64.93-15.98,1.93-2.53,5.27-3.23,10.01-2.11,13.79.77,27.34,2.86,40.63,6.28Z"/>
                        <path class="cls-7" d="M468.37,525.74c-9.91-1.76-20.13-2.33-30.57-3.21-6.95-.59-13.65-1.97-20.08-.96-5.6-5.96-11.89-11.59-14.39-20.33,3.97.96,7.94,2.95,11.98,5.14,15.46,8.37,31.59,13.99,49.07,16.78,1.88.3,3.41,1.26,3.99,2.58Z"/>
                        <path class="cls-1" d="M484.67,536.54c-3.08-6.24-8.19-10.58-14.07-13.15,20.41-1.92,16.82,3.46,33.17-8.05-2.28,3.77-13.29,19.81-19.1,21.2Z"/>
                        <path class="cls-46" d="M414.69,488.84c-4.65,1.8-.77,7.89-1.34,11.71-8.93-3.3-14.06-10.78-16.05-19.47l17.38,7.76Z"/>
                        <path class="cls-42" d="M490.44,518.74l-1.81-5.14c-1.26-3.57-14.5-.09-13.88-6.48l26.19,3.92c-2.65,4.27-6.5,6.49-10.51,7.7Z"/>
                      </g>
                    </g>
                  </g>
                </g>
                <path class="cls-58" d="M438.73,393.78c-1.63-.79-2.56-2.47-3.92-4.09-5.38-6.41-18.53-14.35-25.06-11.1-1.33,1.22-3.29,1.55-5.89.98-3.23,1.21-5.69,1.2-7.39-.05-4.63-3.21-19.36,10.26-22.81,13.07,4.35-14.02,19.06-21.49,33.87-21.63,15.34-.15,27.35,8.5,31.2,22.81Z"/>
                <g>
                  <path class="cls-55" d="M509.5,465.02c3.47,3.31-2.11,8.32-4.93,10.79-12.18,7.65-7.78,5.65,2.08.47,2.8.09,3.14,2.29,1.01,6.58-5.96,7.57-17.17,9.34-26.5,5.1-8.28-3.76-14.8-9.82-21.5-15.33-.63-1.83-.54-3.02.27-3.59,16.83-4.48,32.29-3.89,49.59-4.03Z"/>
                  <path class="cls-19" d="M482.76,478.22c-3.82-3.61-8.01-4.36-12.58-3.78-1.56.1-3.25.3-3.61-1.45,5.11-3.09,10.87-2.55,15.47.39,1.06,1.37,2.69,2.52.72,4.84Z"/>
                </g>
                <g>
                  <path class="cls-34" d="M562.54,392.77c.07.15,4.16,18.31-2.99,18.06-2.86.82-3.32-1.22-.92-2.89-2.47-7.81-5.99-15.97-14.72-18.03-3.11-.74-13.32-1.67-11.2,2.93,6.87-.76,9.1,9.33,9.36,14.81,1.3,27.26-31.01,33.9-31.17,4.44l-1.59.55c-4.78-1.06.66-14.49.28-13.8,4.85-8.98,11.81-17.27,22.25-20.69,12.54-4.1,25.75,3.06,30.7,14.61Z"/>
                  <path class="cls-45" d="M534.35,400.81c-.92,2.46-1.93,2.74-3.92.99l-.87,1.07c-16.46-2.23-6.13,27,.84,7.57l2.26-1.39c-.03-2.84,2.19-3.63,3.85-1.27,1.72,5.86-.07,12.48-4.66,16.29-4.92,4.09-11.69,2.75-14.76-2.48-3.87-6.58-3.31-22.37,7.95-26.49,2.14-.78,4.73-.42,6.58.87,1.31.91,1.93,3.28,2.74,4.85Z"/>
                  <path class="cls-15" d="M558.64,407.94l-5.17-7.96c-4.37-6.73-13.45-9.69-20.75-7.13l-6.31-2.47c5.79-2.59,12.35-4.05,18.84-2.18,8.95,2.58,13.56,11.1,13.39,19.75Z"/>
                  <path class="cls-65" d="M534.35,400.81c3.02,1.8,3.32,4.39,2.15,6.97-1.28.43-2.52.99-3.85,1.27-4.64,3.57-8.03-7.05-2.23-7.24,1.18-.73,2.53-1.17,3.92-.99Z"/>
                  <path class="cls-53" d="M530.43,401.8c-.94,1.18-1.24,2.77-.87,4.39.32,1.39,1.72,2.28,3.1,2.85-.49,3.42-1.48,7.93-5.13,9.68-2.54,1.22-5.13,0-6.61-1.66-3.44-3.84-2.77-11.84,1.37-14.87,2.56-1.88,5.5-1.62,8.14-.39Z"/>
                </g>
                <g>
                  <path class="cls-91" d="M409.75,378.59c11.74,6.21,13.22,25.08,5.02,34.43-5.93,6.76-15.77,7.13-21.92.59-8.59-9.14-7.23-27.18,3.62-34.09,4.27-1.78,8.98-2.94,13.28-.94Z"/>
                  <path class="cls-101" d="M413.39,387.86c-.31,2.39-4.1,3.72-5.69,1.79l-2.2.93c-16.99-.69-2.8,28.49,3.8,7.57l2.28-1.34c-.33-2.67,2.49-4.12,4.91-2.97.59,6.24.33,11.8-3.3,16.57-3.53,4.65-9.9,7.24-15.2,3.92-9.32-5.84-11.17-18.19-5.07-26.98,2.79-4.02,6.22-6.28,11.07-5.9,4.09.32,7.65,2.42,9.39,6.41Z"/>
                  <path class="cls-104" d="M413.39,387.86c.8,1.82,4.28,3.02,3.1,5.98-1.45,1.28-2.98,2.57-4.91,2.97-3.49,3.96-8.85-5.34-3.88-7.17,1.69-1.15,3.63-1.93,5.69-1.79Z"/>
                  <path class="cls-73" d="M407.71,389.65c-.67,3.14.59,6.45,3.88,7.17-.73,4.29-2.02,9.58-7.19,10.72s-8.42-3.99-8.78-8.64c-.31-3.98.55-7.34,3.89-9.37,2.26-1.38,5.8-1.97,8.2.13Z"/>
                </g>
                <g>
                  <path class="cls-29" d="M439.4,634.78c-13.86,5.27-21.07,2.92-31.69-7.07-7.5-7.06-13.91-14.57-20.9-22.12-4.93-5.32-8.93-11.05-14.88-15.35,1.45,11.59,7.07,19.61,8.64,28.7l-1.29.36-2.94-6.54-.7.35c-2.72.74.82,18.43,1.59,21.09,1.56,5.43,1.43,10.68,2.3,15.71-4.12-7.22-9.49-13.45-16.55-18.56l-19.05-13.77c9.06-21.97,6.44-51.28,5.58-76.56,15.59,20.54,32.43,37.36,50.78,54.06,11.48,10.45,21.48,22.29,36.4,28.04l-23.15-18.2,14.91,8.18c4.82,2.64,9.95,3.57,15.39,3.21-1.66,7.15-3.88,12.55-4.44,18.46Z"/>
                  <path class="cls-90" d="M378.54,576.97c14.32,17.54,34.87,36.52,54.39,48.95-18.21-3.4-51.26-39.32-61.46-55.37,3.17.95,5.03,3.92,7.07,6.42Z"/>
                </g>
              </g>
            </g>
          </g>
        </g>
      </g>
    </g>
  </g>
</svg>