<?xml version="1.0" encoding="UTF-8"?>
<svg id="Capa_2" data-name="Capa 2" xmlns="http://www.w3.org/2000/svg" viewBox="0 0 836.36 200.65">
  <defs>
    <style>
      .cls-1 {
        fill: #230809;
      }

      .cls-2 {
        fill: #040100;
      }

      .cls-3 {
        fill: #060302;
      }

      .cls-4 {
        fill: #efe4c6;
      }

      .cls-5 {
        fill: #f0e4c6;
      }

      .cls-6 {
        fill: #1f0808;
      }
    </style>
  </defs>
  <g id="Capa_1-2" data-name="Capa 1">
    <g>
      <path class="cls-6" d="M825.19,190.5c.34,3.25-.21,6.1-1.38,7.84-.89,1.32-3.66,2.1-5.91,2.11l-71.58.13-102.36.07-15.99-.44c62.88-3.09,126.69-.15,190.78-1.45,2.86-.06,4.12-1.49,4.83-3.43,3.44-9.5-11.19-4.28-17.81-8.39,5.51,0,18.87-1.68,19.42,3.55Z"/>
      <g>
        <path class="cls-3" d="M8.59,34.26c3.19-2.26,4.82-.23,4.9,6.08-.92,48.04-1.21,95.78-.86,143.24l1.77,3.32c.5-1.01,1.89-.79,2.49.05,2.68,1.61,4.41,1.11,7.2,0,5.77-1.05,13.32-1,19.21,0,7.56,1.08,15.26,1.08,22.81,0,8.67-.98,18.83-.94,27.62,0,2.71.94,5.69.94,8.41,0,13.44-1.01,28.47-.97,42.03,0,6.35,1.09,12.86,1.09,19.21,0,1.18-1.02,4.55-.88,6,0,9.13,1.83,19.61,1.55,28.82,0,188.97-1.05,387.05-.99,576.35,0,6.63,2.22,13.71,1.72,20.41,0,2.99-.97,7.71-.9,10.81,0,16.84-.51,22.36,3.35,16.57,11.6l-3.53,1.04-190.83.63-621.53.1C2.38,200.32,0,197.7,0,194V39.35c.01-4.83,5.46-5.03,8.59-5.09Z"/>
        <path class="cls-1" d="M825.19,190.5c-5.54-2.44-12.01-3.62-19.42-3.55h-10.81c-6.62,1.76-13.87,2.27-20.41,0H198.2c-9.33,1.57-19.53,1.81-28.82,0h-6c-6.31,1.1-12.89,1.09-19.21,0h-42.03c-2.69.97-5.7.96-8.41,0h-27.62c-7.56,1.09-15.23,1.09-22.81,0h-19.21c-2.48,1.15-4.83,1.81-7.2,0-.51,0-1.15-.12-2.49-.05-1.04-.34-1.03-.72.01-1.15l1.16-2.4,812.71.07.96-.83.06-151.09-.42-.82-626.43.46-1.51-2.4c-3.36-.72-2.31-3.26.92-1.72l.38-1.6c10.74.9,11.01.89.79-.05l-.14-1.77,626.6.03c4.57,0,6.58,2.97,6.59,7.23l.27,97.13c.05,18.23-1.35,35.31-.07,53.3.22,3.13-1.57,6.76-3.51,7.92-2.34,1.39-5.12,1.11-7.59,1.31Z"/>
        <path class="cls-6" d="M202.9,23.59c4.14,1.73,7.96,1.23,13.52,1.23l519.07.23c19.12,0,36.82-.86,55.48.72,12.7-.41,25.53-3.48,37.81,1.47l-626.92-.23c-2.51.46-4.13-1.41-4.88-5.63l-2.38-2.43-.47-12.06-159.79-.06-.82.62.37,39.52-2.38,1.78-1.94-.24c-.85-6.64-1.14-13.33-.86-20.06l.34,16.37c1.44,3.43,1.02,5.6-1.26,6.49l-2.87-1.14c-1.07-6.76-1.27-13.61-.58-20.53-3.21-.3-5.86.23-7.94,1.58l.42,153.05-2.4,1.48v1.15c-.85.05-1.99.84-2.19.17s-1.62-2.94-1.36-3.64c2.77-7.51.4-14.29.36-21.72l-.39-87.59c-.05-10.9.79-20.95,2.12-31.51.48-3.82-1.21-7.21-4.36-8.36.69-3.18.32-8.19,4.04-9.88,4.47-2.03,9.4-.14,14.17-.37.34-6.5-3.64-23.87,7.39-23.88L194.23,0c10.92,0,5.55,18.05,8.67,23.59Z"/>
        <path class="cls-6" d="M198.2,186.95c1.54,2.83-31.12,3.26-28.82,0h28.82Z"/>
        <path class="cls-6" d="M794.96,186.95c-6.07,3.53-14.8,4.43-20.41,0h20.41Z"/>
        <path class="cls-6" d="M66.12,186.95c-7.06,2.16-15.75,2.16-22.81,0h22.81Z"/>
        <path class="cls-6" d="M163.38,186.95c-5.82,2.18-13.39,2.18-19.21,0h19.21Z"/>
        <path class="cls-6" d="M24.09,186.95c-1.07.77-2.07,1.82-3.55,2.31s-2.69-1.14-3.66-2.31h7.2Z"/>
        <path class="cls-6" d="M102.14,186.95c-1.92,1.88-6.49,1.88-8.41,0h8.41Z"/>
        <path class="cls-4" d="M27.79,51.3c1.98-.69,4.35-.54,7.11.45l160.37.31c3.17-.61,4.47-3.47,3.9-8.58l-.21-13.39,2-1.36,630.76-.46-.06,157.55-817.23-.07-.43-156.82c4.77-1.75,8.93-1.99,12.81-1.51.2,8.78-1.67,16.56,1,23.88Z"/>
        <path class="cls-2" d="M31.51,48.74l.85-2.4,161.14,1.19c1.05-7.74,1.4-15.89,1.07-24.44l2.42-1.71c2.17,1.35,3.83,3.3,4.88,5.63-1.25,0-.94.87-.92,1.72.23,10.51,3.2,25.53-6.45,25.52l-159.68-.1c-2.32,0-6.4-1.15-7.02-2.85.71-12.07-2.1-24.02.88-37.02,3.88,6.02-1.16,28.49,2.84,34.46Z"/>
        <path class="cls-5" d="M196.99,21.38l-.25,28.58-165.22-1.22-.42-44.32,165.33.07c.67,6.35.62,11.67.57,16.89Z"/>
      </g>
    </g>
  </g>
</svg>