<svg width="134" height="30" viewBox="0 0 134 30" fill="none" xmlns="http://www.w3.org/2000/svg">
<g filter="url(#filter0_d_4003_206)">
<rect width="130.19" height="27" fill="black" shape-rendering="crispEdges"/>
<rect x="1" y="1" width="128.19" height="25" stroke="black" stroke-width="2" shape-rendering="crispEdges"/>
<path d="M14.55 16V8.625H16.57V15.405L15.66 14.395H19.2V16H14.55ZM20.675 16L18.975 8.625H21.21L22.23 14.845H22.155L23.17 8.625H25.405L23.715 16H20.675ZM26.155 16V8.625H28.175V15.405L27.265 14.395H30.805V16H26.155ZM37.545 8.625V16H35.545V10.425C35.495 10.455 35.3975 10.4933 35.2525 10.54C35.1075 10.5867 34.9383 10.63 34.745 10.67C34.5517 10.71 34.3567 10.7367 34.16 10.75V9.23C34.36 9.21333 34.56 9.1725 34.76 9.1075C34.96 9.0425 35.1342 8.96667 35.2825 8.88C35.4308 8.79333 35.53 8.70833 35.58 8.625H37.545ZM38.76 16V14.37C38.79 14.35 38.8842 14.2842 39.0425 14.1725C39.2008 14.0608 39.3925 13.9233 39.6175 13.76C39.8425 13.5967 40.0767 13.425 40.32 13.245C40.5633 13.065 40.7867 12.8983 40.99 12.745C41.2233 12.5683 41.4492 12.385 41.6675 12.195C41.8858 12.005 42.0658 11.8042 42.2075 11.5925C42.3492 11.3808 42.42 11.155 42.42 10.915C42.42 10.6617 42.3575 10.4475 42.2325 10.2725C42.1075 10.0975 41.9017 10.01 41.615 10.01C41.3817 10.01 41.1992 10.0633 41.0675 10.17C40.9358 10.2767 40.8433 10.4242 40.79 10.6125C40.7367 10.8008 40.71 11.02 40.71 11.27H38.69C38.69 10.69 38.8075 10.1933 39.0425 9.78C39.2775 9.36667 39.6158 9.05 40.0575 8.83C40.4992 8.61 41.0283 8.5 41.645 8.5C42.265 8.5 42.7825 8.61 43.1975 8.83C43.6125 9.05 43.9233 9.34417 44.13 9.7125C44.3367 10.0808 44.44 10.4883 44.44 10.935C44.44 11.245 44.3808 11.5275 44.2625 11.7825C44.1442 12.0375 43.9908 12.2692 43.8025 12.4775C43.6142 12.6858 43.4142 12.8733 43.2025 13.04C42.9908 13.2067 42.79 13.3583 42.6 13.495C42.2767 13.725 42.01 13.9142 41.8 14.0625C41.59 14.2108 41.4292 14.3233 41.3175 14.4C41.2058 14.4767 41.135 14.525 41.105 14.545H44.335V16H38.76ZM49.335 13.69C49.0983 13.69 48.8817 13.6325 48.685 13.5175C48.4883 13.4025 48.3325 13.2467 48.2175 13.05C48.1025 12.8533 48.045 12.6367 48.045 12.4C48.045 12.1633 48.1025 11.9475 48.2175 11.7525C48.3325 11.5575 48.4883 11.4025 48.685 11.2875C48.8817 11.1725 49.0983 11.115 49.335 11.115C49.5717 11.115 49.7875 11.1725 49.9825 11.2875C50.1775 11.4025 50.3325 11.5575 50.4475 11.7525C50.5625 11.9475 50.62 12.1633 50.62 12.4C50.62 12.6367 50.5625 12.8533 50.4475 13.05C50.3325 13.2467 50.1775 13.4025 49.9825 13.5175C49.7875 13.6325 49.5717 13.69 49.335 13.69ZM55.655 10.125L56.565 9.215V12.09L56.115 11.55H58.765V13.05H56.115L56.565 12.515V15.41L55.655 14.5H59.32V16H54.535V8.625H59.32V10.125H55.655ZM63.095 16.13C62.5483 16.13 62.0583 16.0425 61.625 15.8675C61.1917 15.6925 60.8492 15.4317 60.5975 15.085C60.3458 14.7383 60.22 14.3083 60.22 13.795C60.22 13.7517 60.22 13.7083 60.22 13.665C60.22 13.6217 60.22 13.5783 60.22 13.535H62.235C62.235 13.5717 62.235 13.6083 62.235 13.645C62.235 13.6817 62.235 13.7183 62.235 13.755C62.235 13.9883 62.3075 14.1833 62.4525 14.34C62.5975 14.4967 62.8183 14.575 63.115 14.575C63.4017 14.575 63.6275 14.5325 63.7925 14.4475C63.9575 14.3625 64.04 14.2233 64.04 14.03C64.04 13.8867 63.9625 13.7533 63.8075 13.63C63.6525 13.5067 63.4442 13.39 63.1825 13.28C62.9208 13.17 62.63 13.065 62.31 12.965C61.9633 12.855 61.6342 12.7067 61.3225 12.52C61.0108 12.3333 60.7567 12.0908 60.56 11.7925C60.3633 11.4942 60.265 11.1233 60.265 10.68C60.265 10.2233 60.3917 9.8325 60.645 9.5075C60.8983 9.1825 61.2392 8.93333 61.6675 8.76C62.0958 8.58667 62.5717 8.5 63.095 8.5C63.6383 8.5 64.1242 8.585 64.5525 8.755C64.9808 8.925 65.32 9.175 65.57 9.505C65.82 9.835 65.945 10.2433 65.945 10.73C65.945 10.7733 65.945 10.815 65.945 10.855C65.945 10.895 65.945 10.9367 65.945 10.98H63.93C63.93 10.9633 63.93 10.9375 63.93 10.9025C63.93 10.8675 63.93 10.8417 63.93 10.825C63.93 10.6083 63.8692 10.425 63.7475 10.275C63.6258 10.125 63.4167 10.05 63.12 10.05C62.8267 10.05 62.6008 10.1033 62.4425 10.21C62.2842 10.3167 62.205 10.4717 62.205 10.675C62.205 10.8183 62.2717 10.9442 62.405 11.0525C62.5383 11.1608 62.7225 11.2617 62.9575 11.355C63.1925 11.4483 63.4583 11.5483 63.755 11.655C64.2017 11.8117 64.5933 11.9842 64.93 12.1725C65.2667 12.3608 65.5292 12.5967 65.7175 12.88C65.9058 13.1633 66 13.5267 66 13.97C66 14.4333 65.875 14.8258 65.625 15.1475C65.375 15.4692 65.0308 15.7133 64.5925 15.88C64.1542 16.0467 63.655 16.13 63.095 16.13ZM72.12 10.125H69.48L70.39 9.215V16H68.375V9.215L69.285 10.125H66.65V8.625H72.12V10.125ZM78.81 13.375C78.81 14.2917 78.5475 14.98 78.0225 15.44C77.4975 15.9 76.785 16.13 75.885 16.13C74.985 16.13 74.2742 15.9 73.7525 15.44C73.2308 14.98 72.97 14.2917 72.97 13.375C72.97 13.2583 72.97 13.1358 72.97 13.0075C72.97 12.8792 72.97 12.7467 72.97 12.61V8.625H74.99V12.925C74.99 13.0183 74.99 13.1067 74.99 13.19C74.99 13.2733 74.99 13.3517 74.99 13.425C74.99 13.7983 75.0542 14.0833 75.1825 14.28C75.3108 14.4767 75.545 14.575 75.885 14.575C76.225 14.575 76.4608 14.4767 76.5925 14.28C76.7242 14.0833 76.79 13.7983 76.79 13.425V8.625H78.81V13.375ZM79.91 16V8.625H82.65C83.1467 8.625 83.6017 8.71667 84.015 8.9C84.4283 9.08333 84.785 9.34 85.085 9.67C85.385 10 85.6167 10.3883 85.78 10.835C85.9433 11.2817 86.025 11.7683 86.025 12.295C86.025 12.8217 85.9433 13.31 85.78 13.76C85.6167 14.21 85.385 14.6025 85.085 14.9375C84.785 15.2725 84.4283 15.5333 84.015 15.72C83.6017 15.9067 83.1467 16 82.65 16H79.91ZM81.93 15.41L81.02 14.5H82.38C82.6667 14.5 82.9308 14.4108 83.1725 14.2325C83.4142 14.0542 83.6083 13.8 83.755 13.47C83.9017 13.14 83.975 12.7483 83.975 12.295C83.975 11.8383 83.9017 11.4483 83.755 11.125C83.6083 10.8017 83.4142 10.5542 83.1725 10.3825C82.9308 10.2108 82.6667 10.125 82.38 10.125H81.02L81.93 9.215V15.41ZM86.9 16V8.625H88.89V16H86.9ZM89.615 16L91.33 8.625H94.535L96.24 16H94.175L92.93 9.83H92.94L91.68 16H89.615ZM91.115 14.45V12.935H94.755V14.45H91.115ZM98.955 16H96.99V8.625H100.07L102.105 15.395L101.715 15.475V8.625H103.68V16H100.575L98.54 9.255L98.955 9.175V16ZM110 10.125H107.36L108.27 9.215V16H106.255V9.215L107.165 10.125H104.53V8.625H110V10.125ZM111.97 10.125L112.88 9.215V12.09L112.43 11.55H115.08V13.05H112.43L112.88 12.515V15.41L111.97 14.5H115.635V16H110.85V8.625H115.635V10.125H111.97Z" fill="#F6F6F9"/>
</g>
<defs>
<filter id="filter0_d_4003_206" x="0" y="0" width="133.19" height="30" filterUnits="userSpaceOnUse" color-interpolation-filters="sRGB">
<feFlood flood-opacity="0" result="BackgroundImageFix"/>
<feColorMatrix in="SourceAlpha" type="matrix" values="0 0 0 0 0 0 0 0 0 0 0 0 0 0 0 0 0 0 127 0" result="hardAlpha"/>
<feOffset dx="3" dy="3"/>
<feComposite in2="hardAlpha" operator="out"/>
<feColorMatrix type="matrix" values="0 0 0 0 1 0 0 0 0 1 0 0 0 0 1 0 0 0 1 0"/>
<feBlend mode="normal" in2="BackgroundImageFix" result="effect1_dropShadow_4003_206"/>
<feBlend mode="normal" in="SourceGraphic" in2="effect1_dropShadow_4003_206" result="shape"/>
</filter>
</defs>
</svg>
