<?xml version="1.0" encoding="UTF-8"?>
<svg id="Capa_2" data-name="Capa 2" xmlns="http://www.w3.org/2000/svg" viewBox="0 0 1260.17 600.09">
  <defs>
    <style>
      .cls-1 {
        fill: #b5d6e6;
      }

      .cls-2 {
        fill: #020101;
      }
    </style>
  </defs>
  <g id="Capa_1-2" data-name="Capa 1">
    <g>
      <path class="cls-2" d="M1228.42.42l-25.38-.08-118.32-.09c-13.58,0-26.25-.54-39.79.21-11.29.63-21.77-.28-33.13-.27l-175.96.11h-112.61s-75.09.03-75.09.03l-39.12-.14-97.65.06h-27.05s-93.94-.06-93.94-.06l-73.35.16L225.42.1l-47.45.36-76.12-.13-62.29.22L2.5.22C1.55.21,0,.8,0,1.52c0,.95,25.64,22.64,30.42,27.23,45.68,43.91,79.54,98.66,98.27,159.68,40.13,130.74,13.55,274.09-78.85,375.9l-33.78,35.14,563.84.31c.87-.26,1.87-.29,2.96,0h14.14c-.15.11-.3.21-.45.3,4.76-1.18,10.09-1.15,15.05-.39l.06-.09,535.14-.08L1260.17,1.12c-10.87-1.94-21.15-.8-31.75-.7Z"/>
      <path class="cls-1" d="M56.14,582.87c57.42-61.69,91.96-134.64,103.52-216.31,10.33-74.56.76-150.41-28.02-220.02C110.99,97.48,81.51,54.92,43.09,16.86l1197,.05-107.3,565.76-1076.66.2Z"/>
    </g>
  </g>
</svg>