<?xml version="1.0" encoding="UTF-8"?>
<svg id="Capa_2" data-name="Capa 2" xmlns="http://www.w3.org/2000/svg" viewBox="0 0 827.1 129.47">
  <defs>
    <style>
      .cls-1 {
        fill: #121212;
      }

      .cls-2 {
        fill: #1f1f1c;
      }

      .cls-3 {
        fill: #fefefe;
      }
    </style>
  </defs>
  <g id="Cuadro-3">
    <g>
      <path class="cls-1" d="M90.41.08c5.06,1.11,4.26,4.26-.91,4.24-19.53-.29-38.89.04-58.08.99l2.99,2.2L12.31,118.05c260.11,1,519.79.8,779.03-.6l22.98-110.65,3.71-1.31-2.02-.97c-11.57.47-14.83-1.01-9.78-4.43l20.87.23-27.36,129.15-480.18-.17-319.56-.02L26.08,0l64.33.08Z"/>
      <path class="cls-2" d="M806.23.09c-2.1,6.86,12,.35,11.8,5.41l-1.62,3.37c-260.92-.06-521.88-.12-782.88-.18l-2.11-3.37c-.15-.47.56-1.78,1.85-1.77l53.72.06c1.47,0,2.68-.26,3.2-1.02.45-.64.3-1.75.22-2.5h715.82Z"/>
      <polygon class="cls-3" points="818.03 5.49 793.87 121.84 8.13 121.77 31.43 5.31 818.03 5.49"/>
    </g>
  </g>
</svg>