<svg width="307" height="326" viewBox="0 0 307 326" fill="none" xmlns="http://www.w3.org/2000/svg">
<g filter="url(#filter0_d_156_2199)">
<rect y="10.051" width="288" height="308" transform="rotate(-2 0 10.051)" fill="url(#paint0_linear_156_2199)"/>
<rect x="4.13716" y="13.909" width="280" height="300" transform="rotate(-2 4.13716 13.909)" stroke="white" stroke-width="8"/>
</g>
<g filter="url(#filter1_d_156_2199)">
<rect x="22.4607" y="46.141" width="265.117" height="212" transform="rotate(3 22.4607 46.141)" fill="white" shape-rendering="crispEdges"/>
<rect x="26.2459" y="50.3449" width="257.117" height="204" transform="rotate(3 26.2459 50.3449)" stroke="black" stroke-width="8" shape-rendering="crispEdges"/>
<path d="M86.2168 96.5468L80.1651 96.2297L86.0266 74.3815L94.49 74.825C96.0379 74.9061 97.2935 75.2623 98.2567 75.8936C99.22 76.5249 99.9183 77.3401 100.352 78.3391C100.785 79.3382 100.971 80.4219 100.91 81.5903C100.84 82.9185 100.509 84.1203 99.9172 85.1958C99.3251 86.2713 98.5411 87.1865 97.5653 87.9414C96.5894 88.6964 95.4858 89.2619 94.2544 89.638C93.0231 90.0141 91.7383 90.167 90.4001 90.0969L87.9884 89.9705L86.2168 96.5468ZM88.4579 88.1776L86.4406 85.3982L90.9644 85.6353C91.7034 85.6741 92.3518 85.5303 92.9096 85.204C93.4675 84.8778 93.907 84.4202 94.2283 83.8312C94.5496 83.2422 94.7298 82.5732 94.7691 81.8242C94.7968 81.2949 94.7305 80.8409 94.5701 80.4619C94.4097 80.083 94.1697 79.7901 93.8501 79.5831C93.5305 79.376 93.141 79.2605 92.6817 79.2364L88.1579 78.9993L91.5931 76.5057L88.4579 88.1776ZM99.6684 97.2518L105.53 75.4036L115.326 75.917C117.533 76.0327 119.086 76.5546 119.983 77.4829C120.881 78.4111 121.292 79.5893 121.218 81.0173C121.175 81.8362 120.997 82.638 120.686 83.4228C120.374 84.2076 119.957 84.9167 119.433 85.5501C118.909 86.1836 118.307 86.6927 117.625 87.0776C116.944 87.4625 116.218 87.6648 115.446 87.6844C115.983 87.7426 116.472 87.8809 116.911 88.0991C117.35 88.3174 117.691 88.6382 117.935 89.0615C118.178 89.4848 118.282 90.036 118.246 90.7151C118.229 91.0446 118.171 91.4247 118.074 91.8551C117.976 92.2856 117.859 92.7426 117.724 93.2262C117.588 93.7098 117.45 94.1932 117.31 94.6765C117.169 95.1598 117.05 95.6192 116.952 96.0547C116.854 96.4902 116.797 96.8727 116.779 97.2022C116.769 97.402 116.774 97.585 116.796 97.7513C116.817 97.9177 116.855 98.0524 116.91 98.1554L110.858 97.8382C110.769 97.6233 110.735 97.3111 110.757 96.9016C110.773 96.5921 110.824 96.2492 110.908 95.8731C110.993 95.4971 111.091 95.1067 111.203 94.7019C111.314 94.2972 111.428 93.8951 111.544 93.4956C111.66 93.0962 111.76 92.7184 111.843 92.3623C111.927 92.0062 111.976 91.6883 111.991 91.4087C112.018 90.8894 111.867 90.4784 111.537 90.1758C111.208 89.8731 110.699 89.7037 110.009 89.6676L104.991 89.4046L108.145 87.9777L105.57 97.5611L99.6684 97.2518ZM108.501 86.6445L106.186 84.961L111.413 85.235C111.953 85.2633 112.468 85.1726 112.96 84.963C113.451 84.7535 113.856 84.4392 114.173 84.0203C114.491 83.6013 114.665 83.0872 114.697 82.4781C114.728 81.8989 114.589 81.3959 114.281 80.9692C113.972 80.5425 113.449 80.3098 112.71 80.271L107.512 79.9986L110.947 77.505L108.501 86.6445ZM130.086 99.2364C128.438 99.1501 126.961 98.7272 125.654 97.9677C124.347 97.2083 123.335 96.1288 122.617 94.7294C121.899 93.3299 121.593 91.6315 121.697 89.6342C121.799 87.6869 122.198 85.8978 122.895 84.2671C123.591 82.6363 124.536 81.2288 125.73 80.0446C126.923 78.8605 128.325 77.9626 129.934 77.351C131.543 76.7394 133.311 76.484 135.239 76.5851C136.916 76.673 138.407 77.0915 139.709 77.8407C141.012 78.5899 142.02 79.6542 142.734 81.0334C143.448 82.4127 143.752 84.0959 143.648 86.0832C143.547 88.0205 143.145 89.8095 142.443 91.45C141.741 93.0905 140.788 94.5126 139.583 95.7162C138.379 96.9198 136.974 97.8325 135.369 98.4544C133.765 99.0762 132.004 99.3369 130.086 99.2364ZM130.87 94.5911C131.949 94.6476 132.892 94.4217 133.7 93.9133C134.507 93.4048 135.185 92.7143 135.731 91.8417C136.277 90.9691 136.699 89.9974 136.995 88.9264C137.292 87.8555 137.468 86.7807 137.525 85.7022C137.582 84.6037 137.478 83.7345 137.211 83.0947C136.944 82.4548 136.57 81.9921 136.089 81.7066C135.609 81.421 135.064 81.2623 134.455 81.2304C133.366 81.1733 132.419 81.384 131.613 81.8625C130.806 82.341 130.133 83.0017 129.594 83.8446C129.054 84.6875 128.641 85.6372 128.355 86.6937C128.07 87.7502 127.898 88.8326 127.84 89.9411C127.751 91.6388 128.004 92.8262 128.599 93.5033C129.195 94.1804 129.952 94.543 130.87 94.5911ZM132.562 75.4985L136.737 72.3527L141.246 72.589L136.412 75.7002L132.562 75.4985ZM150.834 86.5349L149.695 91.3719L146.154 77.5326L152.85 77.8835L154.188 87.5969L151.971 87.4807L158.782 78.1944L165.687 78.5563L155.072 91.6537L156.122 86.812L159.916 100.409L153.22 100.058L151.509 90.5807L153.935 90.7079L146.899 99.727L139.993 99.3651L150.834 86.5349ZM162.118 100.525L167.979 78.6764L174.031 78.9936L168.169 100.842L162.118 100.525ZM193.085 79.9922L203.376 80.5315L197.514 102.38L191.777 102.079L196.781 83.4153L196.867 83.4799L188.452 101.905L180.752 101.501L182.22 82.6672L182.343 82.6136L177.322 101.321L171.57 101.02L177.431 79.1718L187.482 79.6985L185.412 99.4322L184.798 99.4L193.085 79.9922ZM211.44 103.5C209.792 103.414 208.314 102.991 207.007 102.231C205.7 101.472 204.688 100.392 203.97 98.9929C203.253 97.5934 202.946 95.8951 203.051 93.8978C203.153 91.9505 203.552 90.1614 204.248 88.5306C204.944 86.8998 205.889 85.4923 207.083 84.3082C208.277 83.124 209.678 82.2261 211.287 81.6145C212.897 81.0029 214.665 80.7476 216.592 80.8486C218.27 80.9365 219.76 81.3551 221.063 82.1043C222.365 82.8535 223.373 83.9177 224.087 85.297C224.801 86.6762 225.106 88.3595 225.002 90.3467C224.9 92.2841 224.498 94.073 223.797 95.7135C223.095 97.3541 222.142 98.7761 220.937 99.9797C219.732 101.183 218.328 102.096 216.723 102.718C215.118 103.34 213.357 103.6 211.44 103.5ZM212.224 98.8547C213.302 98.9112 214.245 98.6852 215.053 98.1768C215.861 97.6684 216.538 96.9779 217.084 96.1053C217.631 95.2327 218.052 94.2609 218.349 93.19C218.645 92.119 218.822 91.0443 218.878 89.9657C218.936 88.8673 218.831 87.9981 218.564 87.3582C218.297 86.7184 217.923 86.2557 217.443 85.9701C216.962 85.6846 216.417 85.5259 215.808 85.4939C214.719 85.4369 213.772 85.6476 212.966 86.1261C212.16 86.6045 211.487 87.2652 210.947 88.1081C210.407 88.951 209.994 89.9007 209.709 90.9572C209.423 92.0137 209.251 93.0962 209.193 94.2047C209.104 95.9023 209.357 97.0897 209.953 97.7668C210.548 98.4439 211.305 98.8065 212.224 98.8547Z" fill="#2D2F31"/>
<path d="M95.7015 127.085L101.563 105.237L111.36 105.75C113.567 105.866 115.119 106.388 116.017 107.316C116.914 108.244 117.326 109.422 117.251 110.85C117.208 111.669 117.031 112.471 116.719 113.256C116.408 114.04 115.99 114.75 115.466 115.383C114.942 116.016 114.34 116.526 113.659 116.911C112.978 117.295 112.251 117.498 111.479 117.517C112.017 117.576 112.505 117.714 112.944 117.932C113.383 118.15 113.725 118.471 113.968 118.894C114.211 119.318 114.315 119.869 114.279 120.548C114.262 120.878 114.204 121.258 114.107 121.688C114.009 122.119 113.892 122.576 113.757 123.059C113.621 123.543 113.483 124.026 113.343 124.509C113.203 124.993 113.083 125.452 112.985 125.888C112.887 126.323 112.83 126.706 112.813 127.035C112.802 127.235 112.808 127.418 112.829 127.584C112.85 127.751 112.888 127.885 112.943 127.988L106.891 127.671C106.802 127.456 106.769 127.144 106.79 126.735C106.806 126.425 106.857 126.082 106.942 125.706C107.026 125.33 107.124 124.94 107.236 124.535C107.347 124.13 107.461 123.728 107.577 123.329C107.693 122.929 107.793 122.551 107.877 122.195C107.96 121.839 108.01 121.521 108.024 121.242C108.051 120.722 107.9 120.311 107.571 120.009C107.241 119.706 106.732 119.537 106.043 119.501L101.025 119.238L104.179 117.811L101.603 127.394L95.7015 127.085ZM104.534 116.477L102.219 114.794L107.447 115.068C107.986 115.096 108.501 115.006 108.993 114.796C109.485 114.586 109.889 114.272 110.206 113.853C110.524 113.434 110.698 112.92 110.73 112.311C110.761 111.732 110.622 111.229 110.314 110.802C110.006 110.375 109.482 110.143 108.743 110.104L103.545 109.832L106.98 107.338L104.534 116.477ZM114.606 128.075L125.605 106.496L135.207 107L134.453 129.116L128.536 128.805L129.715 110.332L129.745 110.333L121.062 128.414L114.606 128.075ZM120.331 123.719L121.543 119.231L132.448 119.803L131.236 124.291L120.331 123.719ZM142.572 129.541L136.685 129.233L142.547 107.384L152.373 107.899L151.7 128.202L151.268 128.42L156.702 108.126L162.589 108.435L156.728 130.283L146.826 129.764L147.481 109.536L147.988 109.322L142.572 129.541ZM169.35 131.335C167.782 131.253 166.431 130.857 165.297 130.146C164.162 129.436 163.304 128.435 162.72 127.142C162.137 125.85 161.894 124.29 161.989 122.463C162.095 120.455 162.487 118.598 163.167 116.892C163.848 115.185 164.779 113.702 165.962 112.442C167.144 111.182 168.539 110.224 170.145 109.567C171.752 108.91 173.529 108.633 175.476 108.735C176.934 108.811 178.157 109.078 179.144 109.535C180.132 109.992 180.923 110.565 181.518 111.252C182.113 111.939 182.532 112.672 182.777 113.451C183.022 114.23 183.125 114.973 183.088 115.683C183.078 115.872 183.051 116.096 183.008 116.354C182.964 116.612 182.924 116.8 182.888 116.919L177.016 116.611C177.04 116.542 177.066 116.433 177.093 116.285C177.121 116.136 177.139 115.987 177.147 115.837C177.169 115.407 177.092 115.013 176.916 114.653C176.74 114.293 176.465 113.999 176.091 113.769C175.718 113.539 175.251 113.409 174.692 113.38C173.644 113.325 172.722 113.575 171.927 114.129C171.132 114.683 170.459 115.426 169.91 116.359C169.36 117.291 168.936 118.308 168.638 119.409C168.34 120.51 168.164 121.575 168.11 122.603C168.055 123.652 168.163 124.473 168.432 125.068C168.701 125.663 169.069 126.086 169.537 126.335C170.005 126.585 170.503 126.724 171.032 126.752C171.751 126.789 172.403 126.681 172.987 126.426C173.571 126.171 174.068 125.857 174.478 125.483C174.889 125.109 175.182 124.761 175.359 124.44L175.492 123.906L171.807 123.713L172.925 119.581L181.958 120.054L178.897 131.445L176.081 131.297L176.119 128.851C175.944 129.142 175.587 129.496 175.05 129.914C174.512 130.331 173.775 130.691 172.838 130.992C171.901 131.293 170.738 131.408 169.35 131.335ZM192.763 132.562C191.115 132.476 189.638 132.053 188.331 131.293C187.024 130.534 186.011 129.454 185.294 128.055C184.576 126.655 184.269 124.957 184.374 122.96C184.476 121.012 184.875 119.223 185.572 117.593C186.268 115.962 187.213 114.554 188.406 113.37C189.6 112.186 191.001 111.288 192.611 110.677C194.22 110.065 195.988 109.81 197.915 109.911C199.593 109.999 201.083 110.417 202.386 111.166C203.688 111.915 204.697 112.98 205.41 114.359C206.124 115.738 206.429 117.421 206.325 119.409C206.223 121.346 205.822 123.135 205.12 124.776C204.418 126.416 203.465 127.838 202.26 129.042C201.056 130.245 199.651 131.158 198.046 131.78C196.441 132.402 194.68 132.662 192.763 132.562ZM193.547 127.917C194.626 127.973 195.569 127.747 196.376 127.239C197.184 126.73 197.861 126.04 198.408 125.167C198.954 124.295 199.376 123.323 199.672 122.252C199.968 121.181 200.145 120.106 200.201 119.028C200.259 117.929 200.154 117.06 199.888 116.42C199.621 115.78 199.247 115.318 198.766 115.032C198.285 114.747 197.74 114.588 197.131 114.556C196.043 114.499 195.095 114.71 194.289 115.188C193.483 115.667 192.81 116.327 192.27 117.17C191.73 118.013 191.318 118.963 191.032 120.019C190.746 121.076 190.574 122.158 190.516 123.267C190.427 124.964 190.681 126.152 191.276 126.829C191.871 127.506 192.628 127.869 193.547 127.917Z" fill="#2D2F31"/>
<path d="M39.4383 176.209L49.5118 141.288L64.8747 142.093L71.1948 177.873L61.2964 177.354L56.8785 147.466L56.9265 147.468L49.3368 176.727L39.4383 176.209ZM47.0179 169.156L47.3984 161.894L64.8465 162.808L64.4659 170.07L47.0179 169.156ZM81.8122 178.429L72.3931 177.936L74.2458 142.584L89.0096 143.358L97.0635 176.321L95.1739 176.606L96.8948 143.771L106.314 144.265L104.461 179.616L89.5776 178.836L81.5174 145.993L83.5267 145.714L81.8122 178.429ZM105.659 179.679L115.733 144.758L131.096 145.564L137.416 181.343L127.518 180.825L123.1 150.936L123.148 150.939L115.558 180.198L105.659 179.679ZM113.239 172.626L113.62 165.364L131.068 166.278L130.687 173.54L113.239 172.626ZM138.614 181.406L140.467 146.055L150.15 146.562L148.446 179.062L144.338 173.992L161.307 174.881L160.904 182.574L138.614 181.406ZM162.581 182.662L164.434 147.311L173.973 147.811L172.12 183.162L162.581 182.662ZM187.666 184.602C185.046 184.464 182.719 183.922 180.686 182.974C178.653 182.026 177.076 180.69 175.957 178.965C174.838 177.24 174.343 175.147 174.472 172.687C174.483 172.479 174.494 172.271 174.504 172.064C174.515 171.856 174.526 171.648 174.537 171.441L184.196 171.947C184.187 172.123 184.177 172.298 184.168 172.474C184.159 172.65 184.15 172.826 184.141 173.001C184.082 174.12 184.38 175.073 185.036 175.86C185.692 176.647 186.731 177.078 188.153 177.153C189.527 177.225 190.62 177.078 191.432 176.712C192.245 176.346 192.675 175.7 192.724 174.773C192.76 174.086 192.422 173.427 191.71 172.797C190.998 172.167 190.028 171.555 188.802 170.962C187.575 170.369 186.207 169.793 184.699 169.233C183.064 168.619 181.524 167.825 180.077 166.852C178.63 165.879 177.472 164.653 176.605 163.173C175.737 161.694 175.359 159.892 175.47 157.767C175.585 155.578 176.29 153.736 177.586 152.242C178.882 150.748 180.578 149.639 182.675 148.916C184.772 148.192 187.074 147.896 189.583 148.028C192.187 148.164 194.495 148.694 196.505 149.616C198.516 150.539 200.079 151.822 201.194 153.467C202.31 155.112 202.806 157.1 202.684 159.433C202.673 159.641 202.663 159.841 202.653 160.032C202.643 160.224 202.632 160.424 202.621 160.632L192.963 160.125C192.967 160.045 192.973 159.922 192.982 159.754C192.991 159.586 192.997 159.462 193.001 159.382C193.056 158.344 192.81 157.45 192.265 156.7C191.719 155.951 190.736 155.539 189.313 155.464C187.907 155.39 186.812 155.589 186.026 156.061C185.24 156.532 184.822 157.255 184.771 158.23C184.734 158.917 185.022 159.537 185.634 160.09C186.246 160.643 187.104 161.172 188.207 161.679C189.31 162.185 190.559 162.731 191.954 163.317C194.056 164.18 195.89 165.105 197.456 166.093C199.023 167.08 200.222 168.276 201.053 169.682C201.885 171.087 202.245 172.853 202.134 174.978C202.017 177.199 201.32 179.049 200.04 180.528C198.761 182.007 197.05 183.091 194.907 183.78C192.764 184.468 190.351 184.742 187.666 184.602ZM230.039 157.959L217.384 157.296L221.975 153.162L220.27 185.686L210.612 185.179L212.316 152.656L216.449 157.247L203.819 156.585L204.196 149.395L230.416 150.769L230.039 157.959ZM224.968 185.932L235.041 151.011L250.404 151.816L256.724 187.596L246.826 187.077L242.408 157.189L242.456 157.192L234.866 186.451L224.968 185.932ZM232.547 178.879L232.928 171.617L250.376 172.531L249.995 179.793L232.547 178.879Z" fill="#0546ED"/>
<path d="M134.712 229.27L136.565 193.919L146.104 194.419L144.251 229.77L134.712 229.27ZM146.887 229.908L148.74 194.557L158.279 195.057L156.426 230.408L146.887 229.908Z" fill="#0546ED"/>
</g>
<defs>
<filter id="filter0_d_156_2199" x="0" y="0" width="306.574" height="325.863" filterUnits="userSpaceOnUse" color-interpolation-filters="sRGB">
<feFlood flood-opacity="0" result="BackgroundImageFix"/>
<feColorMatrix in="SourceAlpha" type="matrix" values="0 0 0 0 0 0 0 0 0 0 0 0 0 0 0 0 0 0 127 0" result="hardAlpha"/>
<feOffset dx="8" dy="8"/>
<feComposite in2="hardAlpha" operator="out"/>
<feColorMatrix type="matrix" values="0 0 0 0 0 0 0 0 0 0 0 0 0 0 0 0 0 0 1 0"/>
<feBlend mode="normal" in2="BackgroundImageFix" result="effect1_dropShadow_156_2199"/>
<feBlend mode="normal" in="SourceGraphic" in2="effect1_dropShadow_156_2199" result="shape"/>
</filter>
<filter id="filter1_d_156_2199" x="11.3655" y="46.141" width="283.849" height="233.585" filterUnits="userSpaceOnUse" color-interpolation-filters="sRGB">
<feFlood flood-opacity="0" result="BackgroundImageFix"/>
<feColorMatrix in="SourceAlpha" type="matrix" values="0 0 0 0 0 0 0 0 0 0 0 0 0 0 0 0 0 0 127 0" result="hardAlpha"/>
<feOffset dx="8" dy="8"/>
<feComposite in2="hardAlpha" operator="out"/>
<feColorMatrix type="matrix" values="0 0 0 0 0 0 0 0 0 0 0 0 0 0 0 0 0 0 1 0"/>
<feBlend mode="normal" in2="BackgroundImageFix" result="effect1_dropShadow_156_2199"/>
<feBlend mode="normal" in="SourceGraphic" in2="effect1_dropShadow_156_2199" result="shape"/>
</filter>
<linearGradient id="paint0_linear_156_2199" x1="-5.29411" y1="312.777" x2="292.156" y2="14.191" gradientUnits="userSpaceOnUse">
<stop stop-color="#849AFF"/>
<stop offset="0.0250747" stop-color="#849AFF"/>
<stop offset="0.0250747" stop-color="#0546ED"/>
<stop offset="0.0501494" stop-color="#0546ED"/>
</linearGradient>
</defs>
</svg>
