<svg width="57" height="20" viewBox="0 0 57 20" fill="none" xmlns="http://www.w3.org/2000/svg">
<path d="M3.85 15.1C4.7 14.45 5.65 13.9375 6.7 13.5625C7.75 13.1875 8.85 13 10 13C11.15 13 12.25 13.1875 13.3 13.5625C14.35 13.9375 15.3 14.45 16.15 15.1C16.7333 14.4167 17.1875 13.6417 17.5125 12.775C17.8375 11.9083 18 10.9833 18 10C18 7.78333 17.2208 5.89583 15.6625 4.3375C14.1042 2.77917 12.2167 2 10 2C7.78333 2 5.89583 2.77917 4.3375 4.3375C2.77917 5.89583 2 7.78333 2 10C2 10.9833 2.1625 11.9083 2.4875 12.775C2.8125 13.6417 3.26667 14.4167 3.85 15.1V15.1M10 11C9.01667 11 8.1875 10.6625 7.5125 9.9875C6.8375 9.3125 6.5 8.48333 6.5 7.5C6.5 6.51667 6.8375 5.6875 7.5125 5.0125C8.1875 4.3375 9.01667 4 10 4C10.9833 4 11.8125 4.3375 12.4875 5.0125C13.1625 5.6875 13.5 6.51667 13.5 7.5C13.5 8.48333 13.1625 9.3125 12.4875 9.9875C11.8125 10.6625 10.9833 11 10 11V11M10 20C8.61667 20 7.31667 19.7375 6.1 19.2125C4.88333 18.6875 3.825 17.975 2.925 17.075C2.025 16.175 1.3125 15.1167 0.7875 13.9C0.2625 12.6833 0 11.3833 0 10C0 8.61667 0.2625 7.31667 0.7875 6.1C1.3125 4.88333 2.025 3.825 2.925 2.925C3.825 2.025 4.88333 1.3125 6.1 0.7875C7.31667 0.2625 8.61667 0 10 0C11.3833 0 12.6833 0.2625 13.9 0.7875C15.1167 1.3125 16.175 2.025 17.075 2.925C17.975 3.825 18.6875 4.88333 19.2125 6.1C19.7375 7.31667 20 8.61667 20 10C20 11.3833 19.7375 12.6833 19.2125 13.9C18.6875 15.1167 17.975 16.175 17.075 17.075C16.175 17.975 15.1167 18.6875 13.9 19.2125C12.6833 19.7375 11.3833 20 10 20V20M10 18C10.8833 18 11.7167 17.8708 12.5 17.6125C13.2833 17.3542 14 16.9833 14.65 16.5C14 16.0167 13.2833 15.6458 12.5 15.3875C11.7167 15.1292 10.8833 15 10 15C9.11667 15 8.28333 15.1292 7.5 15.3875C6.71667 15.6458 6 16.0167 5.35 16.5C6 16.9833 6.71667 17.3542 7.5 17.6125C8.28333 17.8708 9.11667 18 10 18V18M10 9C10.4333 9 10.7917 8.85833 11.075 8.575C11.3583 8.29167 11.5 7.93333 11.5 7.5C11.5 7.06667 11.3583 6.70833 11.075 6.425C10.7917 6.14167 10.4333 6 10 6C9.56667 6 9.20833 6.14167 8.925 6.425C8.64167 6.70833 8.5 7.06667 8.5 7.5C8.5 7.93333 8.64167 8.29167 8.925 8.575C9.20833 8.85833 9.56667 9 10 9V9M10 7.5V7.5V7.5V7.5V7.5V7.5V7.5V7.5V7.5V7.5M10 16.5V16.5V16.5V16.5V16.5V16.5V16.5V16.5V16.5V16.5" fill="white"/>
<path d="M43.2902 20L42.8902 16.8C42.6736 16.7167 42.4694 16.6167 42.2777 16.5C42.0861 16.3833 41.8986 16.2583 41.7152 16.125L38.7402 17.375L35.9902 12.625L38.5652 10.675C38.5486 10.5583 38.5402 10.4458 38.5402 10.3375C38.5402 10.2292 38.5402 10.1167 38.5402 10C38.5402 9.88333 38.5402 9.77083 38.5402 9.6625C38.5402 9.55417 38.5486 9.44167 38.5652 9.325L35.9902 7.375L38.7402 2.625L41.7152 3.875C41.8986 3.74167 42.0902 3.61667 42.2902 3.5C42.4902 3.38333 42.6902 3.28333 42.8902 3.2L43.2902 0H48.7902L49.1902 3.2C49.4069 3.28333 49.6111 3.38333 49.8027 3.5C49.9944 3.61667 50.1819 3.74167 50.3652 3.875L53.3402 2.625L56.0902 7.375L53.5152 9.325C53.5319 9.44167 53.5402 9.55417 53.5402 9.6625C53.5402 9.77083 53.5402 9.88333 53.5402 10C53.5402 10.1167 53.5402 10.2292 53.5402 10.3375C53.5402 10.4458 53.5236 10.5583 53.4902 10.675L56.0652 12.625L53.3152 17.375L50.3652 16.125C50.1819 16.2583 49.9902 16.3833 49.7902 16.5C49.5902 16.6167 49.3902 16.7167 49.1902 16.8L48.7902 20H43.2902V20M45.0402 18H47.0152L47.3652 15.35C47.8819 15.2167 48.3611 15.0208 48.8027 14.7625C49.2444 14.5042 49.6486 14.1917 50.0152 13.825L52.4902 14.85L53.4652 13.15L51.3152 11.525C51.3986 11.2917 51.4569 11.0458 51.4902 10.7875C51.5236 10.5292 51.5402 10.2667 51.5402 10C51.5402 9.73333 51.5236 9.47083 51.4902 9.2125C51.4569 8.95417 51.3986 8.70833 51.3152 8.475L53.4652 6.85L52.4902 5.15L50.0152 6.2C49.6486 5.81667 49.2444 5.49583 48.8027 5.2375C48.3611 4.97917 47.8819 4.78333 47.3652 4.65L47.0402 2H45.0652L44.7152 4.65C44.1986 4.78333 43.7194 4.97917 43.2777 5.2375C42.8361 5.49583 42.4319 5.80833 42.0652 6.175L39.5902 5.15L38.6152 6.85L40.7652 8.45C40.6819 8.7 40.6236 8.95 40.5902 9.2C40.5569 9.45 40.5402 9.71667 40.5402 10C40.5402 10.2667 40.5569 10.525 40.5902 10.775C40.6236 11.025 40.6819 11.275 40.7652 11.525L38.6152 13.15L39.5902 14.85L42.0652 13.8C42.4319 14.1833 42.8361 14.5042 43.2777 14.7625C43.7194 15.0208 44.1986 15.2167 44.7152 15.35L45.0402 18V18M46.0902 13.5C47.0569 13.5 47.8819 13.1583 48.5652 12.475C49.2486 11.7917 49.5902 10.9667 49.5902 10C49.5902 9.03333 49.2486 8.20833 48.5652 7.525C47.8819 6.84167 47.0569 6.5 46.0902 6.5C45.1069 6.5 44.2777 6.84167 43.6027 7.525C42.9277 8.20833 42.5902 9.03333 42.5902 10C42.5902 10.9667 42.9277 11.7917 43.6027 12.475C44.2777 13.1583 45.1069 13.5 46.0902 13.5V13.5M46.0402 10V10V10V10V10V10V10V10V10V10V10V10V10V10V10V10V10V10V10V10V10V10V10V10V10V10V10V10V10V10V10V10V10V10V10V10" fill="white"/>
</svg>
