<svg width="1284" height="68" viewBox="0 0 1284 68" fill="none" xmlns="http://www.w3.org/2000/svg">
<g filter="url(#filter0_d_156_2077)">
<mask id="path-1-inside-1_156_2077" fill="white">
<path d="M0 0H1280V64H0V0Z"/>
</mask>
<path d="M0 0H1280V64H0V0Z" fill="#020617" fill-opacity="0.9" shape-rendering="crispEdges"/>
<path d="M1280 64V60H0V64V68H1280V64Z" fill="black" mask="url(#path-1-inside-1_156_2077)"/>
<g filter="url(#filter1_d_156_2077)">
<path d="M25.125 39V21.5391H37.7109V25.3594H29.8594V28.3125H37.0547V32.0391H29.8594V35.1797H37.6641V39H25.125ZM40.4461 39L47.9695 28.3242V31.9453L41.1492 21.5391H46.6453L48.0398 23.8125C48.3836 24.3672 48.6668 24.8965 48.8895 25.4004C49.1121 25.9043 49.3152 26.3809 49.4988 26.8301C49.6824 27.2793 49.8836 27.6992 50.1023 28.0898H48.6727C48.907 27.6992 49.118 27.2793 49.3055 26.8301C49.493 26.3809 49.7 25.9043 49.9266 25.4004C50.1531 24.8965 50.4383 24.3672 50.782 23.8125L52.2 21.5391H57.5555L50.9461 31.6641V28.2773L58.2352 39H52.575L50.6766 36C50.3641 35.5 50.1199 35.0801 49.9441 34.7402C49.7684 34.4004 49.616 34.0938 49.4871 33.8203C49.3582 33.5469 49.2 33.2617 49.0125 32.9648H49.6453C49.4656 33.2617 49.3094 33.5488 49.1766 33.8262C49.0437 34.1035 48.8895 34.4121 48.7137 34.752C48.5379 35.0918 48.2859 35.5078 47.9578 36L45.9539 39H40.4461ZM61.0992 39V21.5391H68.6227C69.9195 21.5391 71.0543 21.7949 72.027 22.3066C72.9996 22.8184 73.7574 23.5391 74.3004 24.4688C74.8434 25.3984 75.1148 26.4844 75.1148 27.7266C75.1148 28.9766 74.8375 30.0566 74.2828 30.9668C73.7281 31.877 72.9508 32.5801 71.9508 33.0762C70.9508 33.5723 69.7867 33.8203 68.4586 33.8203H63.9586V30.1406H67.4977C68.0602 30.1406 68.5406 30.041 68.9391 29.8418C69.3375 29.6426 69.6422 29.3633 69.8531 29.0039C70.0641 28.6445 70.1695 28.2188 70.1695 27.7266C70.1695 27.2188 70.0641 26.7871 69.8531 26.4316C69.6422 26.0762 69.3375 25.8047 68.9391 25.6172C68.5406 25.4297 68.0602 25.3359 67.4977 25.3359H65.8336V39H61.0992ZM78.0492 39V21.5391H90.6352V25.3594H82.7836V28.3125H89.9789V32.0391H82.7836V35.1797H90.5883V39H78.0492ZM100.683 39H95.9016V34.9688H100.495C101.363 34.9688 102.103 34.832 102.716 34.5586C103.329 34.2852 103.796 33.8066 104.116 33.123C104.437 32.4395 104.597 31.4922 104.597 30.2812C104.597 29.0625 104.433 28.1113 104.105 27.4277C103.777 26.7441 103.298 26.2637 102.669 25.9863C102.04 25.709 101.269 25.5703 100.355 25.5703H95.8313V21.5391H100.613C102.409 21.5391 103.96 21.8887 105.265 22.5879C106.57 23.2871 107.577 24.2891 108.288 25.5938C108.999 26.8984 109.355 28.4609 109.355 30.2812C109.355 32.0938 109.001 33.6523 108.294 34.957C107.587 36.2617 106.585 37.2617 105.288 37.957C103.991 38.6523 102.456 39 100.683 39ZM98.6906 21.5391V39H93.9563V21.5391H98.6906ZM117.234 21.5391V39H112.5V21.5391H117.234ZM128.794 39.2344C127.2 39.2344 125.768 38.8906 124.499 38.2031C123.229 37.5156 122.225 36.5059 121.487 35.1738C120.749 33.8418 120.38 32.2109 120.38 30.2812C120.38 28.3359 120.755 26.6953 121.505 25.3594C122.255 24.0234 123.266 23.0137 124.54 22.3301C125.813 21.6465 127.231 21.3047 128.794 21.3047C129.88 21.3047 130.882 21.4512 131.8 21.7441C132.718 22.0371 133.524 22.4648 134.22 23.0273C134.915 23.5898 135.477 24.2812 135.907 25.1016C136.337 25.9219 136.606 26.8594 136.716 27.9141H131.911C131.864 27.5391 131.764 27.1992 131.612 26.8945C131.46 26.5898 131.259 26.3281 131.009 26.1094C130.759 25.8906 130.46 25.7227 130.112 25.6055C129.764 25.4883 129.372 25.4297 128.934 25.4297C128.145 25.4297 127.475 25.623 126.925 26.0098C126.374 26.3965 125.958 26.9512 125.677 27.6738C125.395 28.3965 125.255 29.2656 125.255 30.2812C125.255 31.3438 125.399 32.2344 125.688 32.9531C125.977 33.6719 126.393 34.2109 126.936 34.5703C127.479 34.9297 128.137 35.1094 128.911 35.1094C129.348 35.1094 129.739 35.0508 130.083 34.9336C130.427 34.8164 130.727 34.6484 130.985 34.4297C131.243 34.2109 131.452 33.9492 131.612 33.6445C131.772 33.3398 131.88 33 131.934 32.625H136.739C136.684 33.3672 136.479 34.125 136.124 34.8984C135.768 35.6719 135.261 36.3867 134.6 37.043C133.94 37.6992 133.128 38.2285 132.163 38.6309C131.198 39.0332 130.075 39.2344 128.794 39.2344ZM144.56 21.5391V39H139.826V21.5391H144.56ZM156.19 39.2344C154.604 39.2344 153.168 38.8906 151.883 38.2031C150.598 37.5156 149.58 36.5059 148.83 35.1738C148.08 33.8418 147.705 32.2109 147.705 30.2812C147.705 28.3359 148.08 26.6953 148.83 25.3594C149.58 24.0234 150.598 23.0137 151.883 22.3301C153.168 21.6465 154.604 21.3047 156.19 21.3047C157.776 21.3047 159.209 21.6465 160.491 22.3301C161.772 23.0137 162.789 24.0234 163.543 25.3594C164.297 26.6953 164.674 28.3359 164.674 30.2812C164.674 32.2188 164.297 33.8535 163.543 35.1855C162.789 36.5176 161.772 37.5254 160.491 38.209C159.209 38.8926 157.776 39.2344 156.19 39.2344ZM156.19 35.1094C156.979 35.1094 157.641 34.9238 158.176 34.5527C158.711 34.1816 159.116 33.6367 159.389 32.918C159.662 32.1992 159.799 31.3203 159.799 30.2812C159.799 29.2344 159.662 28.3496 159.389 27.627C159.116 26.9043 158.711 26.3574 158.176 25.9863C157.641 25.6152 156.979 25.4297 156.19 25.4297C155.409 25.4297 154.75 25.6152 154.215 25.9863C153.68 26.3574 153.274 26.9043 152.996 27.627C152.719 28.3496 152.58 29.2344 152.58 30.2812C152.58 31.3203 152.719 32.1992 152.996 32.918C153.274 33.6367 153.68 34.1816 154.215 34.5527C154.75 34.9238 155.409 35.1094 156.19 35.1094ZM154.62 19.9219L156.237 16.1016H160.268L157.713 19.9219H154.62ZM167.82 39V21.5391H172.976L177.136 28.3945C177.495 28.9883 177.831 29.582 178.144 30.1758C178.456 30.7695 178.759 31.4238 179.052 32.1387C179.345 32.8535 179.644 33.6875 179.948 34.6406H179.538C179.499 34.0078 179.45 33.2754 179.392 32.4434C179.333 31.6113 179.28 30.791 179.234 29.9824C179.187 29.1738 179.163 28.4922 179.163 27.9375V21.5391H184.038V39H178.882L175.003 32.625C174.566 31.8984 174.181 31.2207 173.849 30.5918C173.517 29.9629 173.196 29.2969 172.888 28.5938C172.579 27.8906 172.226 27.0781 171.827 26.1562H172.32C172.382 26.9766 172.443 27.793 172.501 28.6055C172.56 29.418 172.607 30.1719 172.642 30.8672C172.677 31.5625 172.695 32.1484 172.695 32.625V39H167.82ZM200.993 39.2109C199.493 39.2109 198.179 38.9473 197.05 38.4199C195.921 37.8926 195.042 37.1426 194.413 36.1699C193.784 35.1973 193.47 34.0469 193.47 32.7188V21.5391H198.204V32.3203C198.204 32.8672 198.325 33.3496 198.567 33.7676C198.809 34.1855 199.139 34.5137 199.557 34.752C199.975 34.9902 200.454 35.1094 200.993 35.1094C201.54 35.1094 202.024 34.9902 202.446 34.752C202.868 34.5137 203.2 34.1855 203.442 33.7676C203.684 33.3496 203.805 32.8672 203.805 32.3203V21.5391H208.54V32.7188C208.54 34.0469 208.223 35.1973 207.591 36.1699C206.958 37.1426 206.075 37.8926 204.942 38.4199C203.809 38.9473 202.493 39.2109 200.993 39.2109ZM210.935 39L216.595 21.5391H223.064L228.935 39H223.568L221.541 32.2266C221.103 30.7578 220.693 29.2324 220.31 27.6504C219.927 26.0684 219.564 24.4961 219.22 22.9336H220.298C219.97 24.4961 219.638 26.0684 219.302 27.6504C218.966 29.2324 218.587 30.7578 218.166 32.2266L216.232 39H210.935ZM215.13 35.6484V32.1094H224.74V35.6484H215.13ZM238.807 39.2344C237.221 39.2344 235.786 38.8906 234.5 38.2031C233.215 37.5156 232.198 36.5059 231.448 35.1738C230.698 33.8418 230.323 32.2109 230.323 30.2812C230.323 28.3359 230.698 26.6953 231.448 25.3594C232.198 24.0234 233.215 23.0137 234.5 22.3301C235.786 21.6465 237.221 21.3047 238.807 21.3047C240.393 21.3047 241.827 21.6465 243.108 22.3301C244.389 23.0137 245.407 24.0234 246.161 25.3594C246.914 26.6953 247.291 28.3359 247.291 30.2812C247.291 32.2188 246.914 33.8535 246.161 35.1855C245.407 36.5176 244.389 37.5254 243.108 38.209C241.827 38.8926 240.393 39.2344 238.807 39.2344ZM238.807 35.1094C239.596 35.1094 240.258 34.9238 240.793 34.5527C241.329 34.1816 241.733 33.6367 242.006 32.918C242.28 32.1992 242.416 31.3203 242.416 30.2812C242.416 29.2344 242.28 28.3496 242.006 27.627C241.733 26.9043 241.329 26.3574 240.793 25.9863C240.258 25.6152 239.596 25.4297 238.807 25.4297C238.026 25.4297 237.368 25.6152 236.832 25.9863C236.297 26.3574 235.891 26.9043 235.614 27.627C235.336 28.3496 235.198 29.2344 235.198 30.2812C235.198 31.3203 235.336 32.1992 235.614 32.918C235.891 33.6367 236.297 34.1816 236.832 34.5527C237.368 34.9238 238.026 35.1094 238.807 35.1094Z" fill="#60A5FA"/>
</g>
<path d="M1203.76 35.1C1204.61 34.45 1205.56 33.9375 1206.61 33.5625C1207.66 33.1875 1208.76 33 1209.91 33C1211.06 33 1212.16 33.1875 1213.21 33.5625C1214.26 33.9375 1215.21 34.45 1216.06 35.1C1216.64 34.4167 1217.1 33.6417 1217.42 32.775C1217.75 31.9083 1217.91 30.9833 1217.91 30C1217.91 27.7833 1217.13 25.8958 1215.57 24.3375C1214.01 22.7792 1212.13 22 1209.91 22C1207.69 22 1205.81 22.7792 1204.25 24.3375C1202.69 25.8958 1201.91 27.7833 1201.91 30C1201.91 30.9833 1202.07 31.9083 1202.4 32.775C1202.72 33.6417 1203.18 34.4167 1203.76 35.1V35.1M1209.91 31C1208.93 31 1208.1 30.6625 1207.42 29.9875C1206.75 29.3125 1206.41 28.4833 1206.41 27.5C1206.41 26.5167 1206.75 25.6875 1207.42 25.0125C1208.1 24.3375 1208.93 24 1209.91 24C1210.89 24 1211.72 24.3375 1212.4 25.0125C1213.07 25.6875 1213.41 26.5167 1213.41 27.5C1213.41 28.4833 1213.07 29.3125 1212.4 29.9875C1211.72 30.6625 1210.89 31 1209.91 31V31M1209.91 40C1208.53 40 1207.23 39.7375 1206.01 39.2125C1204.79 38.6875 1203.74 37.975 1202.84 37.075C1201.94 36.175 1201.22 35.1167 1200.7 33.9C1200.17 32.6833 1199.91 31.3833 1199.91 30C1199.91 28.6167 1200.17 27.3167 1200.7 26.1C1201.22 24.8833 1201.94 23.825 1202.84 22.925C1203.74 22.025 1204.79 21.3125 1206.01 20.7875C1207.23 20.2625 1208.53 20 1209.91 20C1211.29 20 1212.59 20.2625 1213.81 20.7875C1215.03 21.3125 1216.09 22.025 1216.99 22.925C1217.89 23.825 1218.6 24.8833 1219.12 26.1C1219.65 27.3167 1219.91 28.6167 1219.91 30C1219.91 31.3833 1219.65 32.6833 1219.12 33.9C1218.6 35.1167 1217.89 36.175 1216.99 37.075C1216.09 37.975 1215.03 38.6875 1213.81 39.2125C1212.59 39.7375 1211.29 40 1209.91 40V40M1209.91 38C1210.79 38 1211.63 37.8708 1212.41 37.6125C1213.19 37.3542 1213.91 36.9833 1214.56 36.5C1213.91 36.0167 1213.19 35.6458 1212.41 35.3875C1211.63 35.1292 1210.79 35 1209.91 35C1209.03 35 1208.19 35.1292 1207.41 35.3875C1206.63 35.6458 1205.91 36.0167 1205.26 36.5C1205.91 36.9833 1206.63 37.3542 1207.41 37.6125C1208.19 37.8708 1209.03 38 1209.91 38V38M1209.91 29C1210.34 29 1210.7 28.8583 1210.99 28.575C1211.27 28.2917 1211.41 27.9333 1211.41 27.5C1211.41 27.0667 1211.27 26.7083 1210.99 26.425C1210.7 26.1417 1210.34 26 1209.91 26C1209.48 26 1209.12 26.1417 1208.84 26.425C1208.55 26.7083 1208.41 27.0667 1208.41 27.5C1208.41 27.9333 1208.55 28.2917 1208.84 28.575C1209.12 28.8583 1209.48 29 1209.91 29V29M1209.91 27.5V27.5V27.5V27.5V27.5V27.5V27.5V27.5V27.5V27.5M1209.91 36.5V36.5V36.5V36.5V36.5V36.5V36.5V36.5V36.5V36.5" fill="white"/>
<path d="M1243.2 40L1242.8 36.8C1242.58 36.7167 1242.38 36.6167 1242.19 36.5C1242 36.3833 1241.81 36.2583 1241.63 36.125L1238.65 37.375L1235.9 32.625L1238.48 30.675C1238.46 30.5583 1238.45 30.4458 1238.45 30.3375C1238.45 30.2292 1238.45 30.1167 1238.45 30C1238.45 29.8833 1238.45 29.7708 1238.45 29.6625C1238.45 29.5542 1238.46 29.4417 1238.48 29.325L1235.9 27.375L1238.65 22.625L1241.63 23.875C1241.81 23.7417 1242 23.6167 1242.2 23.5C1242.4 23.3833 1242.6 23.2833 1242.8 23.2L1243.2 20H1248.7L1249.1 23.2C1249.32 23.2833 1249.52 23.3833 1249.71 23.5C1249.9 23.6167 1250.09 23.7417 1250.28 23.875L1253.25 22.625L1256 27.375L1253.43 29.325C1253.44 29.4417 1253.45 29.5542 1253.45 29.6625C1253.45 29.7708 1253.45 29.8833 1253.45 30C1253.45 30.1167 1253.45 30.2292 1253.45 30.3375C1253.45 30.4458 1253.43 30.5583 1253.4 30.675L1255.98 32.625L1253.23 37.375L1250.28 36.125C1250.09 36.2583 1249.9 36.3833 1249.7 36.5C1249.5 36.6167 1249.3 36.7167 1249.1 36.8L1248.7 40H1243.2V40M1244.95 38H1246.93L1247.28 35.35C1247.79 35.2167 1248.27 35.0208 1248.71 34.7625C1249.15 34.5042 1249.56 34.1917 1249.93 33.825L1252.4 34.85L1253.38 33.15L1251.23 31.525C1251.31 31.2917 1251.37 31.0458 1251.4 30.7875C1251.43 30.5292 1251.45 30.2667 1251.45 30C1251.45 29.7333 1251.43 29.4708 1251.4 29.2125C1251.37 28.9542 1251.31 28.7083 1251.23 28.475L1253.38 26.85L1252.4 25.15L1249.93 26.2C1249.56 25.8167 1249.15 25.4958 1248.71 25.2375C1248.27 24.9792 1247.79 24.7833 1247.28 24.65L1246.95 22H1244.98L1244.63 24.65C1244.11 24.7833 1243.63 24.9792 1243.19 25.2375C1242.75 25.4958 1242.34 25.8083 1241.98 26.175L1239.5 25.15L1238.53 26.85L1240.68 28.45C1240.59 28.7 1240.53 28.95 1240.5 29.2C1240.47 29.45 1240.45 29.7167 1240.45 30C1240.45 30.2667 1240.47 30.525 1240.5 30.775C1240.53 31.025 1240.59 31.275 1240.68 31.525L1238.53 33.15L1239.5 34.85L1241.98 33.8C1242.34 34.1833 1242.75 34.5042 1243.19 34.7625C1243.63 35.0208 1244.11 35.2167 1244.63 35.35L1244.95 38V38M1246 33.5C1246.97 33.5 1247.79 33.1583 1248.48 32.475C1249.16 31.7917 1249.5 30.9667 1249.5 30C1249.5 29.0333 1249.16 28.2083 1248.48 27.525C1247.79 26.8417 1246.97 26.5 1246 26.5C1245.02 26.5 1244.19 26.8417 1243.51 27.525C1242.84 28.2083 1242.5 29.0333 1242.5 30C1242.5 30.9667 1242.84 31.7917 1243.51 32.475C1244.19 33.1583 1245.02 33.5 1246 33.5V33.5M1245.95 30V30V30V30V30V30V30V30V30V30V30V30V30V30V30V30V30V30V30V30V30V30V30V30V30V30V30V30V30V30V30V30V30V30V30V30" fill="white"/>
</g>
<defs>
<filter id="filter0_d_156_2077" x="0" y="0" width="1284" height="68" filterUnits="userSpaceOnUse" color-interpolation-filters="sRGB">
<feFlood flood-opacity="0" result="BackgroundImageFix"/>
<feColorMatrix in="SourceAlpha" type="matrix" values="0 0 0 0 0 0 0 0 0 0 0 0 0 0 0 0 0 0 127 0" result="hardAlpha"/>
<feOffset dx="4" dy="4"/>
<feComposite in2="hardAlpha" operator="out"/>
<feColorMatrix type="matrix" values="0 0 0 0 0 0 0 0 0 0 0 0 0 0 0 0 0 0 1 0"/>
<feBlend mode="normal" in2="BackgroundImageFix" result="effect1_dropShadow_156_2077"/>
<feBlend mode="normal" in="SourceGraphic" in2="effect1_dropShadow_156_2077" result="shape"/>
</filter>
<filter id="filter1_d_156_2077" x="24" y="14" width="227.31" height="34" filterUnits="userSpaceOnUse" color-interpolation-filters="sRGB">
<feFlood flood-opacity="0" result="BackgroundImageFix"/>
<feColorMatrix in="SourceAlpha" type="matrix" values="0 0 0 0 0 0 0 0 0 0 0 0 0 0 0 0 0 0 127 0" result="hardAlpha"/>
<feOffset dx="2" dy="2"/>
<feComposite in2="hardAlpha" operator="out"/>
<feColorMatrix type="matrix" values="0 0 0 0 0 0 0 0 0 0 0 0 0 0 0 0 0 0 1 0"/>
<feBlend mode="normal" in2="BackgroundImageFix" result="effect1_dropShadow_156_2077"/>
<feBlend mode="normal" in="SourceGraphic" in2="effect1_dropShadow_156_2077" result="shape"/>
</filter>
</defs>
</svg>
