<svg width="220" height="48" viewBox="0 0 220 48" fill="none" xmlns="http://www.w3.org/2000/svg">
<path d="M14 34C13.45 34 12.9792 33.8042 12.5875 33.4125C12.1958 33.0208 12 32.55 12 32V20C12 19.0667 12.2833 18.25 12.85 17.55C13.4167 16.85 14.1333 16.3833 15 16.15V14H18V16H22V14H25V16.15C25.8667 16.3833 26.5833 16.85 27.15 17.55C27.7167 18.25 28 19.0667 28 20V32C28 32.55 27.8042 33.0208 27.4125 33.4125C27.0208 33.8042 26.55 34 26 34H14V34M14 32H26V32V32V20C26 19.45 25.8042 18.9792 25.4125 18.5875C25.0208 18.1958 24.55 18 24 18H16C15.45 18 14.9792 18.1958 14.5875 18.5875C14.1958 18.9792 14 19.45 14 20V32V32V32V32M22.5 28H24.5V24H15.5V26H22.5V28V28M20 25V25V25V25V25V25V25V25V25V25V25V25V25V25" fill="#94A3B8"/>
<path d="M40.75 18.3636H44.6818L47.3864 24.9545H47.5227L50.2273 18.3636H54.1591V30H51.0682V23.2727H50.9773L48.3864 29.9091H46.5227L43.9318 23.2273H43.8409V30H40.75V18.3636ZM66.929 24.1818C66.929 25.4773 66.6771 26.5701 66.1733 27.4602C65.6695 28.3466 64.9896 29.0189 64.1335 29.4773C63.2775 29.9318 62.3229 30.1591 61.2699 30.1591C60.2093 30.1591 59.2509 29.9299 58.3949 29.4716C57.5426 29.0095 56.8646 28.3352 56.3608 27.4489C55.8608 26.5587 55.6108 25.4697 55.6108 24.1818C55.6108 22.8864 55.8608 21.7955 56.3608 20.9091C56.8646 20.0189 57.5426 19.3466 58.3949 18.892C59.2509 18.4337 60.2093 18.2045 61.2699 18.2045C62.3229 18.2045 63.2775 18.4337 64.1335 18.892C64.9896 19.3466 65.6695 20.0189 66.1733 20.9091C66.6771 21.7955 66.929 22.8864 66.929 24.1818ZM63.679 24.1818C63.679 23.4848 63.5862 22.8977 63.4006 22.4205C63.2188 21.9394 62.9479 21.5758 62.5881 21.3295C62.232 21.0795 61.7926 20.9545 61.2699 20.9545C60.7472 20.9545 60.3059 21.0795 59.946 21.3295C59.59 21.5758 59.3191 21.9394 59.1335 22.4205C58.9517 22.8977 58.8608 23.4848 58.8608 24.1818C58.8608 24.8788 58.9517 25.4678 59.1335 25.9489C59.3191 26.4261 59.59 26.7898 59.946 27.0398C60.3059 27.286 60.7472 27.4091 61.2699 27.4091C61.7926 27.4091 62.232 27.286 62.5881 27.0398C62.9479 26.7898 63.2188 26.4261 63.4006 25.9489C63.5862 25.4678 63.679 24.8788 63.679 24.1818ZM79.2543 22.7273H76.0497C76.027 22.4621 75.9664 22.2216 75.8679 22.0057C75.7732 21.7898 75.6406 21.6042 75.4702 21.4489C75.3035 21.2898 75.1009 21.1686 74.8622 21.0852C74.6236 20.9981 74.3527 20.9545 74.0497 20.9545C73.5194 20.9545 73.0705 21.0833 72.7031 21.3409C72.3395 21.5985 72.063 21.9678 71.8736 22.4489C71.688 22.9299 71.5952 23.5076 71.5952 24.1818C71.5952 24.8939 71.6899 25.4905 71.8793 25.9716C72.0724 26.4489 72.3509 26.8087 72.7145 27.0511C73.0781 27.2898 73.5156 27.4091 74.027 27.4091C74.3187 27.4091 74.58 27.3731 74.8111 27.3011C75.0421 27.2254 75.2429 27.1174 75.4134 26.9773C75.5838 26.8371 75.7221 26.6686 75.8281 26.4716C75.938 26.2708 76.0118 26.0455 76.0497 25.7955L79.2543 25.8182C79.2164 26.3106 79.0781 26.8125 78.8395 27.3239C78.6009 27.8314 78.2618 28.3011 77.8224 28.733C77.3868 29.161 76.8471 29.5057 76.2031 29.767C75.5592 30.0284 74.8111 30.1591 73.9588 30.1591C72.8906 30.1591 71.9323 29.9299 71.0838 29.4716C70.2391 29.0133 69.5705 28.339 69.0781 27.4489C68.5895 26.5587 68.3452 25.4697 68.3452 24.1818C68.3452 22.8864 68.5952 21.7955 69.0952 20.9091C69.5952 20.0189 70.2694 19.3466 71.1179 18.892C71.9664 18.4337 72.9134 18.2045 73.9588 18.2045C74.6937 18.2045 75.3698 18.3049 75.9872 18.5057C76.6046 18.7064 77.1463 19 77.6122 19.3864C78.0781 19.7689 78.4531 20.2405 78.7372 20.8011C79.0213 21.3617 79.1937 22.0038 79.2543 22.7273ZM80.6875 30V18.3636H83.8466V22.9091H88.0284V18.3636H91.1875V30H88.0284V25.4545H83.8466V30H80.6875ZM95.8466 18.3636V30H92.6875V18.3636H95.8466ZM97.3438 30V18.3636H100.503V27.4545H105.207V30H97.3438ZM109.507 30H106.098L109.939 18.3636H114.257L118.098 30H114.689L112.143 21.5682H112.053L109.507 30ZM108.871 25.4091H115.28V27.7727H108.871V25.4091Z" fill="#94A3B8"/>
</svg>
