<svg width="225" height="60" viewBox="0 0 225 60" fill="none" xmlns="http://www.w3.org/2000/svg">
<g filter="url(#filter0_d_156_2092)">
<rect y="3.83954" width="220" height="52" transform="rotate(-0.999999 0 3.83954)" fill="#2563EB" shape-rendering="crispEdges"/>
<rect x="1.0173" y="4.82193" width="218" height="50" transform="rotate(-0.999999 1.0173 4.82193)" stroke="black" stroke-width="2" shape-rendering="crispEdges"/>
<path d="M16.6258 39.5548C16.0759 39.5644 15.6017 39.3768 15.2033 38.9921C14.8049 38.6073 14.6008 38.14 14.5912 37.59L14.3469 23.5922C14.3373 23.0422 14.5249 22.5681 14.9097 22.1696C15.2944 21.7712 15.7618 21.5672 16.3117 21.5576L20.5111 21.4843C20.7172 20.8806 21.0712 20.391 21.5731 20.0155C22.0749 19.64 22.6425 19.4468 23.2757 19.4357C23.909 19.4246 24.4829 19.598 24.9976 19.9557C25.5122 20.3135 25.8831 20.7904 26.1102 21.3865L30.3096 21.3132C30.8595 21.3036 31.3337 21.4912 31.7321 21.876C32.1306 22.2608 32.3346 22.7281 32.3442 23.278L32.5885 37.2759C32.5981 37.8258 32.4105 38.3 32.0257 38.6984C31.641 39.0969 31.1736 39.3009 30.6237 39.3105L16.6258 39.5548V39.5548M16.5909 37.5551L30.5888 37.3108V37.3108V37.3108L30.3445 23.3129V23.3129V23.3129L16.3466 23.5573V23.5573V23.5573L16.5909 37.5551V37.5551V37.5551V37.5551M18.5557 35.5205L25.5547 35.3984L25.5198 33.3987L18.5208 33.5208L18.5557 35.5205V35.5205M18.4859 31.5211L28.4844 31.3466L28.4495 29.3469L18.451 29.5214L18.4859 31.5211V31.5211M18.4161 27.5217L28.4146 27.3472L28.3797 25.3475L18.3812 25.5221L18.4161 27.5217V27.5217M23.3325 22.6852C23.5491 22.6814 23.727 22.6075 23.8662 22.4634C24.0053 22.3192 24.073 22.1389 24.0692 21.9222C24.0655 21.7056 23.9915 21.5277 23.8474 21.3885C23.7033 21.2494 23.5229 21.1817 23.3063 21.1854C23.0896 21.1892 22.9117 21.2632 22.7726 21.4073C22.6334 21.5514 22.5657 21.7318 22.5695 21.9484C22.5733 22.165 22.6472 22.3429 22.7913 22.4821C22.9354 22.6213 23.1158 22.689 23.3325 22.6852V22.6852M16.5909 37.5551V37.5551V37.5551L16.3466 23.5573V23.5573V23.5573V23.5573V23.5573V23.5573L16.5909 37.5551V37.5551V37.5551V37.5551V37.5551" fill="white"/>
<path d="M45.0956 23.4191L49.0268 23.3505L51.8459 29.8932L51.9823 29.8909L54.5714 23.2537L58.5026 23.1851L58.7057 34.8197L55.6153 34.8737L55.4979 28.1474L55.407 28.149L52.9323 34.8296L51.0689 34.8621L48.3618 28.2265L48.2709 28.2281L48.3891 34.9998L45.2986 35.0537L45.0956 23.4191ZM63.1582 23.1039L63.3612 34.7385L60.2026 34.7936L59.9996 23.159L63.1582 23.1039ZM70.9903 26.6041C70.9534 26.2259 70.8062 25.9329 70.5488 25.7253C70.2951 25.5176 69.9126 25.4181 69.4014 25.4271C69.0757 25.4328 68.8093 25.4772 68.6024 25.5604C68.3992 25.6397 68.2496 25.7465 68.1534 25.8807C68.0573 26.015 68.0088 26.1674 68.008 26.3379C68.0028 26.4782 68.0297 26.6046 68.0885 26.7172C68.151 26.826 68.2474 26.9247 68.3778 27.0134C68.508 27.0982 68.6742 27.1749 68.8762 27.2433C69.0781 27.3118 69.3179 27.372 69.5953 27.424L70.5533 27.6118C71.1995 27.737 71.7537 27.9072 72.2159 28.1227C72.678 28.3381 73.0576 28.5948 73.3545 28.8927C73.6513 29.1868 73.8712 29.5201 74.0141 29.8927C74.1608 30.2652 74.2399 30.673 74.2514 31.116C74.261 31.8811 74.081 32.5321 73.7115 33.0689C73.3421 33.6058 72.8075 34.0186 72.1079 34.3073C71.4121 34.596 70.5718 34.749 69.5871 34.7662C68.5759 34.7838 67.6908 34.6496 66.932 34.3636C66.1768 34.0775 65.5856 33.6275 65.1581 33.0137C64.7344 32.396 64.5121 31.6005 64.4914 30.6272L67.4909 30.5748C67.5161 30.9305 67.6103 31.2282 67.7736 31.4678C67.9369 31.7074 68.1635 31.8872 68.4536 32.0071C68.7474 32.127 69.095 32.1835 69.4964 32.1764C69.8335 32.1706 70.1149 32.124 70.3407 32.0367C70.5665 31.9494 70.7368 31.8309 70.8516 31.6811C70.9665 31.5314 71.0241 31.3618 71.0246 31.1723C71.0177 30.9944 70.9563 30.8402 70.8404 30.7096C70.7282 30.5752 70.5442 30.4571 70.2886 30.3555C70.033 30.2501 69.6884 30.1538 69.255 30.0667L68.0918 29.837C67.0577 29.6315 66.2388 29.2726 65.6351 28.7604C65.0351 28.2442 64.729 27.5317 64.717 26.6226C64.7003 25.8842 64.886 25.235 65.274 24.6751C65.6657 24.1114 66.213 23.6681 66.9158 23.3451C67.6224 23.0221 68.4358 22.8526 69.3561 22.8366C70.2954 22.8202 71.1105 22.9632 71.8015 23.2655C72.4925 23.5679 73.0286 24.0018 73.4097 24.5672C73.7946 25.1288 73.9955 25.7901 74.0126 26.5513L70.9903 26.6041ZM78.4683 22.8366L78.6714 34.4712L75.5128 34.5263L75.3097 22.8918L78.4683 22.8366ZM91.3378 28.4311C91.3604 29.7263 91.1276 30.8233 90.6395 31.7222C90.1512 32.6172 89.4831 33.3013 88.6352 33.7745C87.7872 34.2439 86.8368 34.4878 85.7839 34.5062C84.7235 34.5247 83.7613 34.3123 82.8973 33.869C82.0371 33.4218 81.3474 32.7595 80.8283 31.882C80.3128 31.0008 80.0438 29.9163 80.0214 28.6286C79.9988 27.3333 80.2297 26.2382 80.7141 25.3433C81.2023 24.4445 81.8685 23.7604 82.7127 23.291C83.5606 22.8178 84.5148 22.572 85.5753 22.5535C86.6281 22.5351 87.5865 22.7475 88.4505 23.1909C89.3143 23.6304 90.0059 24.2908 90.5251 25.172C91.0443 26.0494 91.3152 27.1358 91.3378 28.4311ZM88.0883 28.4878C88.0762 27.7909 87.9731 27.2055 87.7792 26.7315C87.589 26.2537 87.3119 25.8949 86.9478 25.655C86.5874 25.4112 86.1459 25.2939 85.6233 25.303C85.1006 25.3122 84.6616 25.4448 84.3061 25.7011C83.9544 25.9535 83.69 26.3218 83.5128 26.806C83.3393 27.2864 83.2587 27.875 83.2709 28.5719C83.283 29.2687 83.3842 29.8561 83.5744 30.3339C83.7683 30.8078 84.0454 31.1667 84.4058 31.4104C84.7699 31.6503 85.2133 31.7657 85.7359 31.7566C86.2586 31.7475 86.6957 31.6167 87.0474 31.3643C87.4029 31.1081 87.6673 30.7398 87.8408 30.2594C88.018 29.7752 88.1005 29.1846 88.0883 28.4878ZM102.764 22.4125L102.967 34.0471L100.331 34.0931L96.0209 28.0538L95.9527 28.055L96.0594 34.1677L92.9008 34.2228L92.6977 22.5882L95.3791 22.5414L99.6212 28.5592L99.712 28.5576L99.6057 22.4677L102.764 22.4125ZM104.462 34.021L104.258 22.3865L112.644 22.2401L112.688 24.7852L107.461 24.8764L107.496 26.8761L112.291 26.7924L112.336 29.3375L107.541 29.4212L107.576 31.4208L112.779 31.33L112.824 33.8751L104.462 34.021ZM120.545 25.7391C120.508 25.3609 120.361 25.068 120.104 24.8603C119.85 24.6526 119.468 24.5532 118.956 24.5621C118.631 24.5678 118.364 24.6122 118.157 24.6954C117.954 24.7747 117.805 24.8815 117.708 25.0158C117.612 25.15 117.564 25.3024 117.563 25.4729C117.558 25.6132 117.585 25.7396 117.643 25.8522C117.706 25.961 117.802 26.0597 117.933 26.1484C118.063 26.2332 118.229 26.3099 118.431 26.3784C118.633 26.4468 118.873 26.507 119.15 26.559L120.108 26.7469C120.754 26.872 121.309 27.0422 121.771 27.2577C122.233 27.4732 122.613 27.7298 122.909 28.0277C123.206 28.3218 123.426 28.6552 123.569 29.0277C123.716 29.4002 123.795 29.808 123.806 30.251C123.816 31.0161 123.636 31.6671 123.266 32.2039C122.897 32.7408 122.362 33.1536 121.663 33.4423C120.967 33.731 120.127 33.884 119.142 33.9012C118.131 33.9188 117.246 33.7846 116.487 33.4986C115.732 33.2125 115.141 32.7625 114.713 32.1487C114.289 31.531 114.067 30.7355 114.046 29.7622L117.046 29.7099C117.071 30.0655 117.165 30.3632 117.329 30.6028C117.492 30.8424 117.719 31.0222 118.009 31.1421C118.302 31.262 118.65 31.3185 119.051 31.3115C119.388 31.3056 119.67 31.259 119.896 31.1717C120.121 31.0844 120.292 30.9659 120.407 30.8161C120.521 30.6664 120.579 30.4968 120.58 30.3074C120.573 30.1294 120.511 29.9752 120.395 29.8446C120.283 29.7102 120.099 29.5922 119.844 29.4905C119.588 29.3851 119.243 29.2889 118.81 29.2017L117.647 28.972C116.613 28.7665 115.794 28.4076 115.19 27.8954C114.59 27.3793 114.284 26.6667 114.272 25.7577C114.255 25.0192 114.441 24.37 114.829 23.8101C115.221 23.2464 115.768 22.8031 116.471 22.4802C117.177 22.1572 117.991 21.9876 118.911 21.9716C119.85 21.9552 120.665 22.0982 121.356 22.4006C122.047 22.7029 122.584 23.1368 122.965 23.7022C123.35 24.2638 123.55 24.9251 123.568 25.6863L120.545 25.7391Z" fill="white"/>
</g>
<defs>
<filter id="filter0_d_156_2092" x="0" y="0" width="224.874" height="59.8318" filterUnits="userSpaceOnUse" color-interpolation-filters="sRGB">
<feFlood flood-opacity="0" result="BackgroundImageFix"/>
<feColorMatrix in="SourceAlpha" type="matrix" values="0 0 0 0 0 0 0 0 0 0 0 0 0 0 0 0 0 0 127 0" result="hardAlpha"/>
<feOffset dx="4" dy="4"/>
<feComposite in2="hardAlpha" operator="out"/>
<feColorMatrix type="matrix" values="0 0 0 0 0 0 0 0 0 0 0 0 0 0 0 0 0 0 1 0"/>
<feBlend mode="normal" in2="BackgroundImageFix" result="effect1_dropShadow_156_2092"/>
<feBlend mode="normal" in="SourceGraphic" in2="effect1_dropShadow_156_2092" result="shape"/>
</filter>
</defs>
</svg>
