<svg width="220" height="48" viewBox="0 0 220 48" fill="none" xmlns="http://www.w3.org/2000/svg">
<path d="M25 21.9V20.2C25.55 19.9667 26.1125 19.7917 26.6875 19.675C27.2625 19.5583 27.8667 19.5 28.5 19.5C28.9333 19.5 29.3583 19.5333 29.775 19.6C30.1917 19.6667 30.6 19.75 31 19.85V21.45C30.6 21.3 30.1958 21.1875 29.7875 21.1125C29.3792 21.0375 28.95 21 28.5 21C27.8667 21 27.2583 21.0792 26.675 21.2375C26.0917 21.3958 25.5333 21.6167 25 21.9V21.9M25 27.4V25.7C25.55 25.4667 26.1125 25.2917 26.6875 25.175C27.2625 25.0583 27.8667 25 28.5 25C28.9333 25 29.3583 25.0333 29.775 25.1C30.1917 25.1667 30.6 25.25 31 25.35V26.95C30.6 26.8 30.1958 26.6875 29.7875 26.6125C29.3792 26.5375 28.95 26.5 28.5 26.5C27.8667 26.5 27.2583 26.575 26.675 26.725C26.0917 26.875 25.5333 27.1 25 27.4V27.4M25 24.65V22.95C25.55 22.7167 26.1125 22.5417 26.6875 22.425C27.2625 22.3083 27.8667 22.25 28.5 22.25C28.9333 22.25 29.3583 22.2833 29.775 22.35C30.1917 22.4167 30.6 22.5 31 22.6V24.2C30.6 24.05 30.1958 23.9375 29.7875 23.8625C29.3792 23.7875 28.95 23.75 28.5 23.75C27.8667 23.75 27.2583 23.8292 26.675 23.9875C26.0917 24.1458 25.5333 24.3667 25 24.65V24.65M17.5 28C18.2833 28 19.0458 28.0875 19.7875 28.2625C20.5292 28.4375 21.2667 28.7 22 29.05V19.2C21.3167 18.8 20.5917 18.5 19.825 18.3C19.0583 18.1 18.2833 18 17.5 18C16.9 18 16.3042 18.0583 15.7125 18.175C15.1208 18.2917 14.55 18.4667 14 18.7V18.7V18.7V28.6V28.6V28.6C14.5833 28.4 15.1625 28.25 15.7375 28.15C16.3125 28.05 16.9 28 17.5 28V28M24 29.05C24.7333 28.7 25.4708 28.4375 26.2125 28.2625C26.9542 28.0875 27.7167 28 28.5 28C29.1 28 29.6875 28.05 30.2625 28.15C30.8375 28.25 31.4167 28.4 32 28.6V28.6V28.6V18.7V18.7V18.7C31.45 18.4667 30.8792 18.2917 30.2875 18.175C29.6958 18.0583 29.1 18 28.5 18C27.7167 18 26.9417 18.1 26.175 18.3C25.4083 18.5 24.6833 18.8 24 19.2V29.05V29.05M23 32C22.2 31.3667 21.3333 30.875 20.4 30.525C19.4667 30.175 18.5 30 17.5 30C16.8 30 16.1125 30.0917 15.4375 30.275C14.7625 30.4583 14.1167 30.7167 13.5 31.05C13.15 31.2333 12.8125 31.225 12.4875 31.025C12.1625 30.825 12 30.5333 12 30.15V18.1C12 17.9167 12.0458 17.7417 12.1375 17.575C12.2292 17.4083 12.3667 17.2833 12.55 17.2C13.3167 16.8 14.1167 16.5 14.95 16.3C15.7833 16.1 16.6333 16 17.5 16C18.4667 16 19.4125 16.125 20.3375 16.375C21.2625 16.625 22.15 17 23 17.5C23.85 17 24.7375 16.625 25.6625 16.375C26.5875 16.125 27.5333 16 28.5 16C29.3667 16 30.2167 16.1 31.05 16.3C31.8833 16.5 32.6833 16.8 33.45 17.2C33.6333 17.2833 33.7708 17.4083 33.8625 17.575C33.9542 17.7417 34 17.9167 34 18.1V30.15C34 30.5333 33.8375 30.825 33.5125 31.025C33.1875 31.225 32.85 31.2333 32.5 31.05C31.8833 30.7167 31.2375 30.4583 30.5625 30.275C29.8875 30.0917 29.2 30 28.5 30C27.5 30 26.5333 30.175 25.6 30.525C24.6667 30.875 23.8 31.3667 23 32V32M18 23.65V23.65V23.65V23.65V23.65V23.65V23.65V23.65V23.65V23.65V23.65V23.65V23.65V23.65V23.65V23.65" fill="#94A3B8"/>
<path d="M46.75 30V18.3636H51.7955C52.6818 18.3636 53.4261 18.483 54.0284 18.7216C54.6345 18.9602 55.0909 19.2973 55.3977 19.733C55.7083 20.1686 55.8636 20.6818 55.8636 21.2727C55.8636 21.7008 55.7689 22.0909 55.5795 22.4432C55.3939 22.7955 55.1326 23.0909 54.7955 23.3295C54.4583 23.5644 54.0644 23.7273 53.6136 23.8182V23.9318C54.1136 23.9508 54.5682 24.0777 54.9773 24.3125C55.3864 24.5436 55.7121 24.8636 55.9545 25.2727C56.197 25.678 56.3182 26.1553 56.3182 26.7045C56.3182 27.3409 56.1515 27.9072 55.8182 28.4034C55.4886 28.8996 55.0189 29.2898 54.4091 29.5739C53.7992 29.858 53.072 30 52.2273 30H46.75ZM49.9091 27.4773H51.3864C51.9167 27.4773 52.3144 27.3788 52.5795 27.1818C52.8447 26.9811 52.9773 26.6856 52.9773 26.2955C52.9773 26.0227 52.9148 25.7917 52.7898 25.6023C52.6648 25.4129 52.4867 25.2689 52.2557 25.1705C52.0284 25.072 51.7538 25.0227 51.4318 25.0227H49.9091V27.4773ZM49.9091 23.0682H51.2045C51.4811 23.0682 51.7254 23.0246 51.9375 22.9375C52.1496 22.8504 52.3144 22.7254 52.4318 22.5625C52.553 22.3958 52.6136 22.1932 52.6136 21.9545C52.6136 21.5947 52.4848 21.3201 52.2273 21.1307C51.9697 20.9375 51.6439 20.8409 51.25 20.8409H49.9091V23.0682ZM60.5966 18.3636V30H57.4375V18.3636H60.5966ZM61.7756 20.9091V18.3636H71.8892V20.9091H68.3892V30H65.2756V20.9091H61.7756ZM74.6321 30H71.223L75.0639 18.3636H79.3821L83.223 30H79.8139L77.2685 21.5682H77.1776L74.6321 30ZM73.9957 25.4091H80.4048V27.7727H73.9957V25.4091ZM76.1776 17.2727L77.2685 14.7273H79.9503L78.2457 17.2727H76.1776ZM94.6605 22.7273H91.456C91.4332 22.4621 91.3726 22.2216 91.2741 22.0057C91.1795 21.7898 91.0469 21.6042 90.8764 21.4489C90.7098 21.2898 90.5071 21.1686 90.2685 21.0852C90.0298 20.9981 89.759 20.9545 89.456 20.9545C88.9257 20.9545 88.4768 21.0833 88.1094 21.3409C87.7457 21.5985 87.4692 21.9678 87.2798 22.4489C87.0942 22.9299 87.0014 23.5076 87.0014 24.1818C87.0014 24.8939 87.0961 25.4905 87.2855 25.9716C87.4787 26.4489 87.7571 26.8087 88.1207 27.0511C88.4844 27.2898 88.9219 27.4091 89.4332 27.4091C89.7249 27.4091 89.9863 27.3731 90.2173 27.3011C90.4484 27.2254 90.6491 27.1174 90.8196 26.9773C90.9901 26.8371 91.1283 26.6686 91.2344 26.4716C91.3442 26.2708 91.4181 26.0455 91.456 25.7955L94.6605 25.8182C94.6226 26.3106 94.4844 26.8125 94.2457 27.3239C94.0071 27.8314 93.6681 28.3011 93.2287 28.733C92.7931 29.161 92.2533 29.5057 91.6094 29.767C90.9654 30.0284 90.2173 30.1591 89.3651 30.1591C88.2969 30.1591 87.3385 29.9299 86.4901 29.4716C85.6454 29.0133 84.9768 28.339 84.4844 27.4489C83.9957 26.5587 83.7514 25.4697 83.7514 24.1818C83.7514 22.8864 84.0014 21.7955 84.5014 20.9091C85.0014 20.0189 85.6757 19.3466 86.5241 18.892C87.3726 18.4337 88.3196 18.2045 89.3651 18.2045C90.0999 18.2045 90.776 18.3049 91.3935 18.5057C92.0109 18.7064 92.5526 19 93.0185 19.3864C93.4844 19.7689 93.8594 20.2405 94.1435 20.8011C94.4276 21.3617 94.5999 22.0038 94.6605 22.7273ZM107.366 24.1818C107.366 25.4773 107.115 26.5701 106.611 27.4602C106.107 28.3466 105.427 29.0189 104.571 29.4773C103.715 29.9318 102.76 30.1591 101.707 30.1591C100.647 30.1591 99.6884 29.9299 98.8324 29.4716C97.9801 29.0095 97.3021 28.3352 96.7983 27.4489C96.2983 26.5587 96.0483 25.4697 96.0483 24.1818C96.0483 22.8864 96.2983 21.7955 96.7983 20.9091C97.3021 20.0189 97.9801 19.3466 98.8324 18.892C99.6884 18.4337 100.647 18.2045 101.707 18.2045C102.76 18.2045 103.715 18.4337 104.571 18.892C105.427 19.3466 106.107 20.0189 106.611 20.9091C107.115 21.7955 107.366 22.8864 107.366 24.1818ZM104.116 24.1818C104.116 23.4848 104.024 22.8977 103.838 22.4205C103.656 21.9394 103.385 21.5758 103.026 21.3295C102.67 21.0795 102.23 20.9545 101.707 20.9545C101.185 20.9545 100.743 21.0795 100.384 21.3295C100.027 21.5758 99.7566 21.9394 99.571 22.4205C99.3892 22.8977 99.2983 23.4848 99.2983 24.1818C99.2983 24.8788 99.3892 25.4678 99.571 25.9489C99.7566 26.4261 100.027 26.7898 100.384 27.0398C100.743 27.286 101.185 27.4091 101.707 27.4091C102.23 27.4091 102.67 27.286 103.026 27.0398C103.385 26.7898 103.656 26.4261 103.838 25.9489C104.024 25.4678 104.116 24.8788 104.116 24.1818ZM108.828 30V18.3636H113.851C114.714 18.3636 115.47 18.5208 116.118 18.8352C116.766 19.1496 117.269 19.6023 117.629 20.1932C117.989 20.7841 118.169 21.4924 118.169 22.3182C118.169 23.1515 117.983 23.8542 117.612 24.4261C117.245 24.9981 116.728 25.4299 116.061 25.7216C115.398 26.0133 114.624 26.1591 113.737 26.1591H110.737V23.7045H113.101C113.472 23.7045 113.788 23.6591 114.05 23.5682C114.315 23.4735 114.518 23.3239 114.658 23.1193C114.802 22.9148 114.874 22.6477 114.874 22.3182C114.874 21.9848 114.802 21.714 114.658 21.5057C114.518 21.2936 114.315 21.1383 114.05 21.0398C113.788 20.9375 113.472 20.8864 113.101 20.8864H111.987V30H108.828ZM115.646 24.6591L118.555 30H115.124L112.283 24.6591H115.646ZM122.538 30H119.129L122.97 18.3636H127.288L131.129 30H127.72L125.175 21.5682H125.084L122.538 30ZM121.902 25.4091H128.311V27.7727H121.902V25.4091Z" fill="#94A3B8"/>
</svg>
