<svg width="220" height="48" viewBox="0 0 220 48" fill="none" xmlns="http://www.w3.org/2000/svg">
<path d="M24 33L18 30.9L13.35 32.7C13.0167 32.8333 12.7083 32.7958 12.425 32.5875C12.1417 32.3792 12 32.1 12 31.75V17.75C12 17.5333 12.0625 17.3417 12.1875 17.175C12.3125 17.0083 12.4833 16.8833 12.7 16.8L18 15L24 17.1L28.65 15.3C28.9833 15.1667 29.2917 15.2042 29.575 15.4125C29.8583 15.6208 30 15.9 30 16.25V30.25C30 30.4667 29.9375 30.6583 29.8125 30.825C29.6875 30.9917 29.5167 31.1167 29.3 31.2L24 33V33M23 30.55V18.85L19 17.45V29.15L23 30.55V30.55M25 30.55L28 29.55V17.7L25 18.85V30.55V30.55M14 30.3L17 29.15V17.45L14 18.45V30.3V30.3M25 18.85V18.85V30.55V30.55V18.85V18.85M17 17.45V17.45V29.15V29.15V17.45V17.45" fill="#94A3B8"/>
<path d="M42.75 30V18.3594H47.7344L48.7812 22C48.8698 22.3125 48.9714 22.7266 49.0859 23.2422C49.2005 23.7578 49.3138 24.3112 49.4258 24.9023C49.5378 25.4935 49.6406 26.0612 49.7344 26.6055C49.8281 27.1497 49.901 27.6094 49.9531 27.9844H49.3672C49.4193 27.6094 49.4909 27.1497 49.582 26.6055C49.6732 26.0612 49.7747 25.4935 49.8867 24.9023C49.9987 24.3112 50.1107 23.7578 50.2227 23.2422C50.3346 22.7266 50.4349 22.3125 50.5234 22L51.5547 18.3594H56.5469V30H53.3594V25.5C53.3594 25.2344 53.3659 24.8815 53.3789 24.4414C53.3919 24.0013 53.4062 23.5182 53.4219 22.9922C53.4375 22.4661 53.4518 21.9375 53.4648 21.4062C53.4779 20.875 53.4844 20.3854 53.4844 19.9375H53.6641C53.5703 20.4323 53.4635 20.9466 53.3438 21.4805C53.224 22.0143 53.1016 22.5352 52.9766 23.043C52.8516 23.5508 52.7318 24.0169 52.6172 24.4414C52.5026 24.8659 52.4036 25.2188 52.3203 25.5L50.9688 30H48.3438L46.9688 25.5C46.8854 25.2188 46.7852 24.8659 46.668 24.4414C46.5508 24.0169 46.4271 23.5508 46.2969 23.043C46.1667 22.5352 46.0404 22.0143 45.918 21.4805C45.7956 20.9466 45.6849 20.4323 45.5859 19.9375H45.8125C45.8125 20.3854 45.819 20.875 45.832 21.4062C45.8451 21.9375 45.8594 22.4661 45.875 22.9922C45.8906 23.5182 45.9049 24.0013 45.918 24.4414C45.931 24.8815 45.9375 25.2344 45.9375 25.5V30H42.75ZM57.6562 30L61.4297 18.3594H65.7422L69.6562 30H66.0781L64.7266 25.4844C64.4349 24.5052 64.1615 23.4883 63.9062 22.4336C63.651 21.3789 63.4089 20.3307 63.1797 19.2891H63.8984C63.6797 20.3307 63.4583 21.3789 63.2344 22.4336C63.0104 23.4883 62.7578 24.5052 62.4766 25.4844L61.1875 30H57.6562ZM60.4531 27.7656V25.4062H66.8594V27.7656H60.4531ZM70.7656 30V18.3594H75.7812C76.6458 18.3594 77.4023 18.5299 78.0508 18.8711C78.6992 19.2122 79.2044 19.6927 79.5664 20.3125C79.9284 20.9323 80.1094 21.6562 80.1094 22.4844C80.1094 23.3177 79.9245 24.0378 79.5547 24.6445C79.1849 25.2513 78.6667 25.7201 78 26.0508C77.3333 26.3815 76.5573 26.5469 75.6719 26.5469H72.6719V24.0938H75.0312C75.4062 24.0938 75.7266 24.0273 75.9922 23.8945C76.2578 23.7617 76.4609 23.5755 76.6016 23.3359C76.7422 23.0964 76.8125 22.8125 76.8125 22.4844C76.8125 22.1458 76.7422 21.8581 76.6016 21.6211C76.4609 21.3841 76.2578 21.2031 75.9922 21.0781C75.7266 20.9531 75.4062 20.8906 75.0312 20.8906H73.9219V30H70.7656ZM79.4219 30L83.1953 18.3594H87.5078L91.4219 30H87.8438L86.4922 25.4844C86.2005 24.5052 85.9271 23.4883 85.6719 22.4336C85.4167 21.3789 85.1745 20.3307 84.9453 19.2891H85.6641C85.4453 20.3307 85.224 21.3789 85 22.4336C84.776 23.4883 84.5234 24.5052 84.2422 25.4844L82.9531 30H79.4219ZM82.2188 27.7656V25.4062H88.625V27.7656H82.2188Z" fill="#94A3B8"/>
</svg>
