<svg width="936" height="98" viewBox="0 0 936 98" fill="none" xmlns="http://www.w3.org/2000/svg">
<g clip-path="url(#clip0_156_1757)">
<path d="M-0.588 28L0.144 24.52C0.248 24.408 0.512 24.196 0.936 23.884C1.368 23.572 1.888 23.208 2.496 22.792C3.112 22.376 3.748 21.948 4.404 21.508C5.068 21.06 5.68 20.648 6.24 20.272C6.968 19.776 7.676 19.264 8.364 18.736C9.052 18.2 9.624 17.62 10.08 16.996C10.536 16.372 10.764 15.68 10.764 14.92C10.764 14.424 10.628 14.028 10.356 13.732C10.092 13.428 9.66 13.276 9.06 13.276C8.452 13.276 7.944 13.412 7.536 13.684C7.136 13.956 6.812 14.332 6.564 14.812C6.324 15.292 6.136 15.852 6 16.492H1.704C1.992 15.148 2.476 13.992 3.156 13.024C3.836 12.056 4.704 11.312 5.76 10.792C6.816 10.272 8.056 10.012 9.48 10.012C10.712 10.012 11.744 10.212 12.576 10.612C13.408 11.012 14.036 11.552 14.46 12.232C14.884 12.912 15.096 13.68 15.096 14.536C15.096 15.656 14.824 16.66 14.28 17.548C13.736 18.428 13.04 19.224 12.192 19.936C11.344 20.64 10.464 21.296 9.552 21.904C8.704 22.464 7.984 22.944 7.392 23.344C6.8 23.736 6.332 24.056 5.988 24.304C5.644 24.544 5.412 24.72 5.292 24.832H12.852L12.18 28H-0.588ZM20.0469 28L23.8149 10.3H29.8629C31.2629 10.3 32.4349 10.596 33.3789 11.188C34.3309 11.78 35.0469 12.584 35.5269 13.6C36.0149 14.616 36.2589 15.76 36.2589 17.032C36.2589 18.568 35.9949 20.004 35.4669 21.34C34.9469 22.668 34.2269 23.832 33.3069 24.832C32.3869 25.824 31.3189 26.6 30.1029 27.16C28.8949 27.72 27.5989 28 26.2149 28H20.0469ZM24.6189 26.692L23.0949 24.616H26.3109C27.1109 24.616 27.8469 24.412 28.5189 24.004C29.1989 23.588 29.7909 23.036 30.2949 22.348C30.7989 21.66 31.1909 20.884 31.4709 20.02C31.7589 19.156 31.9029 18.272 31.9029 17.368C31.9029 16.616 31.7789 15.964 31.5309 15.412C31.2909 14.86 30.9349 14.436 30.4629 14.14C29.9909 13.836 29.4109 13.684 28.7229 13.684H25.4949L27.8349 11.596L24.6189 26.692ZM41.3132 13.54L43.6652 11.56L42.1412 18.676L41.4332 17.5H47.8772L47.1932 20.74H40.7492L41.9492 19.576L40.4372 26.74L38.9252 24.76H47.6732L46.9772 28H35.8532L39.6212 10.3H50.7452L50.0492 13.54H41.3132ZM65.9996 18.676C66.6236 18.7 67.1316 18.86 67.5236 19.156C67.9236 19.452 68.2196 19.84 68.4116 20.32C68.6036 20.792 68.6996 21.308 68.6996 21.868C68.6996 22.828 68.5076 23.7 68.1236 24.484C67.7476 25.26 67.2236 25.924 66.5516 26.476C65.8796 27.028 65.0956 27.452 64.1996 27.748C63.3036 28.044 62.3316 28.192 61.2836 28.192C59.8756 28.192 58.7556 28 57.9236 27.616C57.0996 27.224 56.5116 26.7 56.1596 26.044C55.8076 25.388 55.6316 24.656 55.6316 23.848C55.6316 23.408 55.6596 23.036 55.7156 22.732C55.7716 22.428 55.8076 22.24 55.8236 22.168H60.1076C60.0916 22.24 60.0596 22.4 60.0116 22.648C59.9716 22.888 59.9516 23.132 59.9516 23.38C59.9516 24.02 60.1196 24.46 60.4556 24.7C60.7916 24.932 61.2356 25.048 61.7876 25.048C62.2276 25.048 62.6116 24.964 62.9396 24.796C63.2756 24.62 63.5516 24.388 63.7676 24.1C63.9916 23.804 64.1596 23.464 64.2716 23.08C64.3836 22.688 64.4396 22.276 64.4396 21.844C64.4396 21.492 64.3676 21.2 64.2236 20.968C64.0796 20.728 63.8516 20.552 63.5396 20.44C63.2276 20.328 62.8196 20.272 62.3156 20.272H61.7156L62.3396 17.344H62.9396C63.5396 17.344 64.0676 17.232 64.5236 17.008C64.9876 16.776 65.3476 16.46 65.6036 16.06C65.8676 15.652 65.9996 15.18 65.9996 14.644C65.9996 14.172 65.8476 13.828 65.5436 13.612C65.2396 13.388 64.8436 13.276 64.3556 13.276C63.6916 13.276 63.0916 13.464 62.5556 13.84C62.0276 14.216 61.6596 14.892 61.4516 15.868H57.1676C57.3916 14.852 57.7916 13.908 58.3676 13.036C58.9436 12.164 59.7516 11.46 60.7916 10.924C61.8316 10.388 63.1396 10.12 64.7156 10.12C66.0836 10.12 67.1796 10.308 68.0036 10.684C68.8356 11.052 69.4356 11.54 69.8036 12.148C70.1796 12.756 70.3676 13.412 70.3676 14.116C70.3676 14.932 70.1716 15.68 69.7796 16.36C69.3876 17.04 68.8596 17.588 68.1956 18.004C67.5396 18.42 66.8076 18.644 65.9996 18.676ZM80.2101 13.54L82.5621 11.56L81.0381 18.676L80.3301 17.5H86.7741L86.0901 20.74H79.6461L80.8461 19.576L79.3341 26.74L77.8221 24.76H86.5701L85.8741 28H74.7501L78.5181 10.3H89.6421L88.9461 13.54H80.2101ZM94.3725 28.3C93.2765 28.3 92.2845 28.132 91.3965 27.796C90.5085 27.46 89.8045 26.972 89.2845 26.332C88.7725 25.684 88.5165 24.892 88.5165 23.956C88.5165 23.572 88.5405 23.24 88.5885 22.96C88.6445 22.68 88.7085 22.392 88.7805 22.096H93.0645C93.0005 22.344 92.9525 22.568 92.9205 22.768C92.8885 22.968 92.8725 23.152 92.8725 23.32C92.8725 23.824 93.0405 24.22 93.3765 24.508C93.7205 24.796 94.2325 24.94 94.9125 24.94C95.4405 24.94 95.9245 24.876 96.3645 24.748C96.8045 24.62 97.1565 24.42 97.4205 24.148C97.6845 23.876 97.8165 23.52 97.8165 23.08C97.8165 22.552 97.5045 22.092 96.8805 21.7C96.2565 21.3 95.4565 20.92 94.4805 20.56C93.7925 20.296 93.1245 19.98 92.4765 19.612C91.8365 19.236 91.3085 18.772 90.8925 18.22C90.4765 17.668 90.2685 16.988 90.2685 16.18C90.2685 15.228 90.4685 14.372 90.8685 13.612C91.2685 12.852 91.8165 12.204 92.5125 11.668C93.2085 11.132 94.0085 10.724 94.9125 10.444C95.8245 10.156 96.7885 10.012 97.8045 10.012C98.9325 10.012 99.9365 10.184 100.816 10.528C101.696 10.864 102.384 11.348 102.88 11.98C103.384 12.604 103.636 13.352 103.636 14.224C103.636 14.552 103.608 14.876 103.552 15.196C103.504 15.508 103.452 15.76 103.396 15.952H99.1125C99.1445 15.824 99.1765 15.66 99.2085 15.46C99.2485 15.252 99.2685 15.052 99.2685 14.86C99.2685 14.388 99.1045 14.02 98.7765 13.756C98.4485 13.492 97.9525 13.36 97.2885 13.36C96.7445 13.36 96.2605 13.436 95.8365 13.588C95.4205 13.732 95.0885 13.952 94.8405 14.248C94.6005 14.536 94.4805 14.912 94.4805 15.376C94.4805 15.888 94.7765 16.32 95.3685 16.672C95.9605 17.024 96.7285 17.388 97.6725 17.764C98.5205 18.1 99.2765 18.468 99.9405 18.868C100.612 19.26 101.14 19.732 101.524 20.284C101.908 20.828 102.1 21.508 102.1 22.324C102.1 23.604 101.752 24.692 101.056 25.588C100.36 26.476 99.4285 27.152 98.2605 27.616C97.0925 28.072 95.7965 28.3 94.3725 28.3ZM119.11 21.424C118.942 22.208 118.634 23.004 118.186 23.812C117.738 24.62 117.15 25.364 116.422 26.044C115.694 26.716 114.83 27.26 113.83 27.676C112.83 28.092 111.694 28.3 110.422 28.3C108.934 28.3 107.71 27.992 106.75 27.376C105.798 26.752 105.09 25.904 104.626 24.832C104.17 23.752 103.942 22.528 103.942 21.16C103.942 19.568 104.182 18.096 104.662 16.744C105.142 15.384 105.818 14.204 106.69 13.204C107.57 12.196 108.614 11.412 109.822 10.852C111.03 10.292 112.362 10.012 113.818 10.012C115.282 10.012 116.47 10.28 117.382 10.816C118.302 11.344 118.974 12.024 119.398 12.856C119.83 13.688 120.046 14.568 120.046 15.496C120.046 15.736 120.034 15.972 120.01 16.204C119.986 16.436 119.946 16.66 119.89 16.876H115.594C115.626 16.748 115.65 16.584 115.666 16.384C115.69 16.184 115.702 16.012 115.702 15.868C115.702 15.364 115.618 14.928 115.45 14.56C115.29 14.192 115.038 13.904 114.694 13.696C114.35 13.488 113.902 13.384 113.35 13.384C112.51 13.384 111.774 13.624 111.142 14.104C110.51 14.584 109.978 15.216 109.546 16C109.122 16.784 108.802 17.648 108.586 18.592C108.378 19.528 108.274 20.448 108.274 21.352C108.274 22.496 108.498 23.38 108.946 24.004C109.402 24.628 110.046 24.94 110.878 24.94C111.382 24.94 111.85 24.848 112.282 24.664C112.714 24.48 113.098 24.228 113.434 23.908C113.778 23.58 114.066 23.204 114.298 22.78C114.538 22.356 114.71 21.904 114.814 21.424H119.11ZM124.84 13.54L127.192 11.56L125.668 18.676L124.96 17.5H131.404L130.72 20.74H124.276L125.476 19.576L123.964 26.74L122.452 24.76H131.2L130.504 28H119.38L123.148 10.3H134.272L133.576 13.54H124.84ZM136.854 28H132.678L136.446 10.3H143.418L144.462 26.608L144.162 26.776L147.666 10.3H151.83L148.062 28H141.042L139.986 11.752L140.346 11.584L136.854 28ZM149.403 28L157.443 10.288H164.235L164.715 28H160.515L160.479 12.868H160.503L153.987 28H149.403ZM153.627 24.088L154.323 20.812H162.891L162.207 24.088H153.627ZM172.372 28.3C171.276 28.3 170.284 28.132 169.396 27.796C168.508 27.46 167.804 26.972 167.284 26.332C166.772 25.684 166.516 24.892 166.516 23.956C166.516 23.572 166.54 23.24 166.588 22.96C166.644 22.68 166.708 22.392 166.78 22.096H171.064C171 22.344 170.952 22.568 170.92 22.768C170.888 22.968 170.872 23.152 170.872 23.32C170.872 23.824 171.04 24.22 171.376 24.508C171.72 24.796 172.232 24.94 172.912 24.94C173.44 24.94 173.924 24.876 174.364 24.748C174.804 24.62 175.156 24.42 175.42 24.148C175.684 23.876 175.816 23.52 175.816 23.08C175.816 22.552 175.504 22.092 174.88 21.7C174.256 21.3 173.456 20.92 172.48 20.56C171.792 20.296 171.124 19.98 170.476 19.612C169.836 19.236 169.308 18.772 168.892 18.22C168.476 17.668 168.268 16.988 168.268 16.18C168.268 15.228 168.468 14.372 168.868 13.612C169.268 12.852 169.816 12.204 170.512 11.668C171.208 11.132 172.008 10.724 172.912 10.444C173.824 10.156 174.788 10.012 175.804 10.012C176.932 10.012 177.936 10.184 178.816 10.528C179.696 10.864 180.384 11.348 180.88 11.98C181.384 12.604 181.636 13.352 181.636 14.224C181.636 14.552 181.608 14.876 181.552 15.196C181.504 15.508 181.452 15.76 181.396 15.952H177.112C177.144 15.824 177.176 15.66 177.208 15.46C177.248 15.252 177.268 15.052 177.268 14.86C177.268 14.388 177.104 14.02 176.776 13.756C176.448 13.492 175.952 13.36 175.288 13.36C174.744 13.36 174.26 13.436 173.836 13.588C173.42 13.732 173.088 13.952 172.84 14.248C172.6 14.536 172.48 14.912 172.48 15.376C172.48 15.888 172.776 16.32 173.368 16.672C173.96 17.024 174.728 17.388 175.672 17.764C176.52 18.1 177.276 18.468 177.94 18.868C178.612 19.26 179.14 19.732 179.524 20.284C179.908 20.828 180.1 21.508 180.1 22.324C180.1 23.604 179.752 24.692 179.056 25.588C178.36 26.476 177.428 27.152 176.26 27.616C175.092 28.072 173.796 28.3 172.372 28.3ZM186.106 28L189.874 10.3H195.922C197.322 10.3 198.494 10.596 199.438 11.188C200.39 11.78 201.106 12.584 201.586 13.6C202.074 14.616 202.318 15.76 202.318 17.032C202.318 18.568 202.054 20.004 201.526 21.34C201.006 22.668 200.286 23.832 199.366 24.832C198.446 25.824 197.378 26.6 196.162 27.16C194.954 27.72 193.658 28 192.274 28H186.106ZM190.678 26.692L189.154 24.616H192.37C193.17 24.616 193.906 24.412 194.578 24.004C195.258 23.588 195.85 23.036 196.354 22.348C196.858 21.66 197.25 20.884 197.53 20.02C197.818 19.156 197.962 18.272 197.962 17.368C197.962 16.616 197.838 15.964 197.59 15.412C197.35 14.86 196.994 14.436 196.522 14.14C196.05 13.836 195.47 13.684 194.782 13.684H191.554L193.894 11.596L190.678 26.692ZM207.373 13.54L209.725 11.56L208.201 18.676L207.493 17.5H213.937L213.253 20.74H206.809L208.009 19.576L206.497 26.74L204.985 24.76H213.733L213.037 28H201.913L205.681 10.3H216.805L216.109 13.54H207.373ZM221.535 28.3C220.439 28.3 219.447 28.132 218.559 27.796C217.671 27.46 216.967 26.972 216.447 26.332C215.935 25.684 215.679 24.892 215.679 23.956C215.679 23.572 215.703 23.24 215.751 22.96C215.807 22.68 215.871 22.392 215.943 22.096H220.227C220.163 22.344 220.115 22.568 220.083 22.768C220.051 22.968 220.035 23.152 220.035 23.32C220.035 23.824 220.203 24.22 220.539 24.508C220.883 24.796 221.395 24.94 222.075 24.94C222.603 24.94 223.087 24.876 223.527 24.748C223.967 24.62 224.319 24.42 224.583 24.148C224.847 23.876 224.979 23.52 224.979 23.08C224.979 22.552 224.667 22.092 224.043 21.7C223.419 21.3 222.619 20.92 221.643 20.56C220.955 20.296 220.287 19.98 219.639 19.612C218.999 19.236 218.471 18.772 218.055 18.22C217.639 17.668 217.431 16.988 217.431 16.18C217.431 15.228 217.631 14.372 218.031 13.612C218.431 12.852 218.979 12.204 219.675 11.668C220.371 11.132 221.171 10.724 222.075 10.444C222.987 10.156 223.951 10.012 224.967 10.012C226.095 10.012 227.099 10.184 227.979 10.528C228.859 10.864 229.547 11.348 230.043 11.98C230.547 12.604 230.799 13.352 230.799 14.224C230.799 14.552 230.771 14.876 230.715 15.196C230.667 15.508 230.615 15.76 230.559 15.952H226.275C226.307 15.824 226.339 15.66 226.371 15.46C226.411 15.252 226.431 15.052 226.431 14.86C226.431 14.388 226.267 14.02 225.939 13.756C225.611 13.492 225.115 13.36 224.451 13.36C223.907 13.36 223.423 13.436 222.999 13.588C222.583 13.732 222.251 13.952 222.003 14.248C221.763 14.536 221.643 14.912 221.643 15.376C221.643 15.888 221.939 16.32 222.531 16.672C223.123 17.024 223.891 17.388 224.835 17.764C225.683 18.1 226.439 18.468 227.103 18.868C227.775 19.26 228.303 19.732 228.687 20.284C229.071 20.828 229.263 21.508 229.263 22.324C229.263 23.604 228.915 24.692 228.219 25.588C227.523 26.476 226.591 27.152 225.423 27.616C224.255 28.072 222.959 28.3 221.535 28.3ZM241.005 10.3C242.269 10.3 243.237 10.456 243.909 10.768C244.589 11.08 245.057 11.484 245.313 11.98C245.569 12.476 245.697 13 245.697 13.552C245.697 14.368 245.553 15.096 245.265 15.736C244.977 16.368 244.609 16.908 244.161 17.356C243.713 17.804 243.241 18.152 242.745 18.4C242.249 18.64 241.789 18.772 241.365 18.796C241.885 18.812 242.373 18.96 242.829 19.24C243.285 19.52 243.653 19.896 243.933 20.368C244.221 20.832 244.365 21.372 244.365 21.988C244.365 23.1 244.081 24.112 243.513 25.024C242.953 25.928 242.141 26.652 241.077 27.196C240.013 27.732 238.729 28 237.225 28H229.869L233.637 10.3H241.005ZM235.953 18.496L234.273 17.332H238.281C238.857 17.332 239.365 17.232 239.805 17.032C240.245 16.824 240.589 16.532 240.837 16.156C241.085 15.78 241.209 15.344 241.209 14.848C241.209 14.4 241.069 14.064 240.789 13.84C240.517 13.608 239.993 13.492 239.217 13.492H235.113L237.453 11.596L235.953 18.496ZM237.069 24.796C237.925 24.796 238.625 24.564 239.169 24.1C239.721 23.628 239.997 22.988 239.997 22.18C239.997 21.844 239.933 21.552 239.805 21.304C239.677 21.048 239.461 20.852 239.157 20.716C238.861 20.572 238.449 20.5 237.921 20.5H233.625L235.761 19.456L234.237 26.692L232.701 24.796H237.069ZM244.972 28L248.74 10.3H253.036L249.544 26.728L248.056 24.556H256.444L255.712 28H244.972ZM264.167 28.3C262.879 28.3 261.715 28.028 260.675 27.484C259.643 26.932 258.827 26.124 258.227 25.06C257.627 23.988 257.327 22.672 257.327 21.112C257.327 19.56 257.567 18.116 258.047 16.78C258.527 15.436 259.211 14.26 260.099 13.252C260.987 12.236 262.047 11.444 263.279 10.876C264.519 10.3 265.895 10.012 267.407 10.012C268.719 10.012 269.887 10.284 270.911 10.828C271.943 11.364 272.759 12.16 273.359 13.216C273.959 14.264 274.259 15.568 274.259 17.128C274.259 18.664 274.015 20.108 273.527 21.46C273.047 22.804 272.359 23.992 271.463 25.024C270.567 26.048 269.503 26.852 268.271 27.436C267.039 28.012 265.671 28.3 264.167 28.3ZM264.551 24.928C265.471 24.928 266.267 24.696 266.939 24.232C267.611 23.768 268.167 23.156 268.607 22.396C269.047 21.628 269.375 20.784 269.591 19.864C269.807 18.936 269.915 18.012 269.915 17.092C269.915 16.172 269.787 15.444 269.531 14.908C269.275 14.364 268.927 13.976 268.487 13.744C268.055 13.504 267.563 13.384 267.011 13.384C266.091 13.384 265.295 13.608 264.623 14.056C263.951 14.496 263.395 15.088 262.955 15.832C262.515 16.576 262.191 17.404 261.983 18.316C261.775 19.228 261.671 20.156 261.671 21.1C261.671 22.508 261.943 23.5 262.487 24.076C263.039 24.644 263.727 24.928 264.551 24.928ZM279.685 27.76L283.321 27.772C283.321 28.132 283.429 28.424 283.645 28.648C283.869 28.88 284.133 29.06 284.437 29.188C284.749 29.324 285.045 29.42 285.325 29.476C285.613 29.532 285.821 29.572 285.949 29.596L284.245 32.44C284.109 32.432 283.869 32.404 283.525 32.356C283.189 32.308 282.801 32.2 282.361 32.032C281.929 31.872 281.509 31.624 281.101 31.288C280.693 30.952 280.353 30.5 280.081 29.932C279.817 29.364 279.685 28.64 279.685 27.76ZM281.989 28.3C280.701 28.3 279.537 28.028 278.497 27.484C277.465 26.932 276.649 26.124 276.049 25.06C275.449 23.988 275.149 22.672 275.149 21.112C275.149 19.56 275.389 18.116 275.869 16.78C276.349 15.436 277.033 14.26 277.921 13.252C278.809 12.236 279.869 11.444 281.101 10.876C282.341 10.3 283.717 10.012 285.229 10.012C286.541 10.012 287.709 10.284 288.733 10.828C289.765 11.364 290.581 12.16 291.181 13.216C291.781 14.264 292.081 15.568 292.081 17.128C292.081 18.664 291.837 20.108 291.349 21.46C290.869 22.804 290.181 23.992 289.285 25.024C288.389 26.048 287.325 26.852 286.093 27.436C284.861 28.012 283.493 28.3 281.989 28.3ZM282.373 24.928C283.293 24.928 284.089 24.696 284.761 24.232C285.433 23.768 285.989 23.156 286.429 22.396C286.869 21.628 287.197 20.784 287.413 19.864C287.629 18.936 287.737 18.012 287.737 17.092C287.737 16.172 287.609 15.444 287.353 14.908C287.097 14.364 286.749 13.976 286.309 13.744C285.877 13.504 285.385 13.384 284.833 13.384C283.913 13.384 283.117 13.608 282.445 14.056C281.773 14.496 281.217 15.088 280.777 15.832C280.337 16.576 280.013 17.404 279.805 18.316C279.597 19.228 279.493 20.156 279.493 21.1C279.493 22.508 279.765 23.5 280.309 24.076C280.861 24.644 281.549 24.928 282.373 24.928ZM306.782 21.652C306.31 23.876 305.378 25.54 303.986 26.644C302.594 27.748 300.898 28.3 298.898 28.3C296.986 28.3 295.514 27.896 294.482 27.088C293.45 26.272 292.934 25.068 292.934 23.476C292.934 22.932 292.982 22.388 293.078 21.844C293.174 21.292 293.318 20.572 293.51 19.684L295.55 10.3H299.834L297.662 20.332C297.566 20.788 297.486 21.176 297.422 21.496C297.366 21.816 297.322 22.1 297.29 22.348C297.266 22.588 297.254 22.836 297.254 23.092C297.254 23.716 297.41 24.18 297.722 24.484C298.042 24.788 298.55 24.94 299.246 24.94C300.158 24.94 300.866 24.676 301.37 24.148C301.882 23.62 302.25 22.82 302.474 21.748L304.91 10.3H309.194L306.782 21.652ZM313.071 13.54L315.423 11.56L313.899 18.676L313.191 17.5H319.635L318.951 20.74H312.507L313.707 19.576L312.195 26.74L310.683 24.76H319.431L318.735 28H307.611L311.379 10.3H322.503L321.807 13.54H313.071ZM319.765 28L327.805 10.288H334.597L335.077 28H330.877L330.841 12.868H330.865L324.349 28H319.765ZM323.989 24.088L324.685 20.812H333.253L332.569 24.088H323.989ZM336.388 28L340.156 10.3H346.204C347.604 10.3 348.776 10.596 349.72 11.188C350.672 11.78 351.388 12.584 351.868 13.6C352.356 14.616 352.6 15.76 352.6 17.032C352.6 18.568 352.336 20.004 351.808 21.34C351.288 22.668 350.568 23.832 349.648 24.832C348.728 25.824 347.66 26.6 346.444 27.16C345.236 27.72 343.94 28 342.556 28H336.388ZM340.96 26.692L339.436 24.616H342.652C343.452 24.616 344.188 24.412 344.86 24.004C345.54 23.588 346.132 23.036 346.636 22.348C347.14 21.66 347.532 20.884 347.812 20.02C348.1 19.156 348.244 18.272 348.244 17.368C348.244 16.616 348.12 15.964 347.872 15.412C347.632 14.86 347.276 14.436 346.804 14.14C346.332 13.836 345.752 13.684 345.064 13.684H341.836L344.176 11.596L340.96 26.692ZM350.628 28L358.668 10.288H365.46L365.94 28H361.74L361.704 12.868H361.728L355.212 28H350.628ZM354.852 24.088L355.548 20.812H364.116L363.432 24.088H354.852ZM373.597 28.3C372.501 28.3 371.509 28.132 370.621 27.796C369.733 27.46 369.029 26.972 368.509 26.332C367.997 25.684 367.741 24.892 367.741 23.956C367.741 23.572 367.765 23.24 367.813 22.96C367.869 22.68 367.933 22.392 368.005 22.096H372.289C372.225 22.344 372.177 22.568 372.145 22.768C372.113 22.968 372.097 23.152 372.097 23.32C372.097 23.824 372.265 24.22 372.601 24.508C372.945 24.796 373.457 24.94 374.137 24.94C374.665 24.94 375.149 24.876 375.589 24.748C376.029 24.62 376.381 24.42 376.645 24.148C376.909 23.876 377.041 23.52 377.041 23.08C377.041 22.552 376.729 22.092 376.105 21.7C375.481 21.3 374.681 20.92 373.705 20.56C373.017 20.296 372.349 19.98 371.701 19.612C371.061 19.236 370.533 18.772 370.117 18.22C369.701 17.668 369.493 16.988 369.493 16.18C369.493 15.228 369.693 14.372 370.093 13.612C370.493 12.852 371.041 12.204 371.737 11.668C372.433 11.132 373.233 10.724 374.137 10.444C375.049 10.156 376.013 10.012 377.029 10.012C378.157 10.012 379.161 10.184 380.041 10.528C380.921 10.864 381.609 11.348 382.105 11.98C382.609 12.604 382.861 13.352 382.861 14.224C382.861 14.552 382.833 14.876 382.777 15.196C382.729 15.508 382.677 15.76 382.621 15.952H378.337C378.369 15.824 378.401 15.66 378.433 15.46C378.473 15.252 378.493 15.052 378.493 14.86C378.493 14.388 378.329 14.02 378.001 13.756C377.673 13.492 377.177 13.36 376.513 13.36C375.969 13.36 375.485 13.436 375.061 13.588C374.645 13.732 374.313 13.952 374.065 14.248C373.825 14.536 373.705 14.912 373.705 15.376C373.705 15.888 374.001 16.32 374.593 16.672C375.185 17.024 375.953 17.388 376.897 17.764C377.745 18.1 378.501 18.468 379.165 18.868C379.837 19.26 380.365 19.732 380.749 20.284C381.133 20.828 381.325 21.508 381.325 22.324C381.325 23.604 380.977 24.692 380.281 25.588C379.585 26.476 378.653 27.152 377.485 27.616C376.317 28.072 375.021 28.3 373.597 28.3Z" fill="white"/>
<path d="M902.49 29.25C901.23 29.25 900.21 28.9633 899.43 28.39C898.65 27.81 898.077 26.9833 897.71 25.91C897.343 24.8367 897.16 23.5567 897.16 22.07C897.16 20.8433 897.273 19.7367 897.5 18.75C897.727 17.7567 898.067 16.91 898.52 16.21C898.98 15.5033 899.553 14.96 900.24 14.58C900.927 14.2 901.727 14.01 902.64 14.01C903.587 14.01 904.367 14.1733 904.98 14.5C905.6 14.82 906.08 15.2167 906.42 15.69C906.76 16.1633 907 16.6433 907.14 17.13C907.28 17.6167 907.35 18.0267 907.35 18.36C907.35 18.38 907.35 18.3933 907.35 18.4C907.35 18.4067 907.35 18.42 907.35 18.44H904.04C904.04 18.42 904.04 18.4067 904.04 18.4C904.04 18.3933 904.04 18.38 904.04 18.36C904.04 18.22 904.02 18.0567 903.98 17.87C903.94 17.6767 903.87 17.4933 903.77 17.32C903.67 17.1467 903.527 17.0033 903.34 16.89C903.153 16.7767 902.917 16.72 902.63 16.72C902.177 16.72 901.803 16.9233 901.51 17.33C901.223 17.73 901.013 18.32 900.88 19.1C900.753 19.88 900.69 20.83 900.69 21.95L900.2 21.96C900.233 21.6267 900.37 21.29 900.61 20.95C900.857 20.6033 901.227 20.3133 901.72 20.08C902.22 19.84 902.85 19.72 903.61 19.72C904.557 19.72 905.34 19.9267 905.96 20.34C906.58 20.7467 907.043 21.2867 907.35 21.96C907.663 22.6267 907.82 23.35 907.82 24.13C907.82 25.1033 907.62 25.9767 907.22 26.75C906.827 27.5233 906.233 28.1333 905.44 28.58C904.653 29.0267 903.67 29.25 902.49 29.25ZM902.53 26.54C902.91 26.54 903.223 26.46 903.47 26.3C903.723 26.14 903.913 25.9 904.04 25.58C904.167 25.2533 904.23 24.85 904.23 24.37C904.23 23.8967 904.163 23.5 904.03 23.18C903.903 22.8533 903.72 22.6067 903.48 22.44C903.24 22.2667 902.953 22.18 902.62 22.18C902.28 22.18 901.977 22.2633 901.71 22.43C901.45 22.59 901.247 22.83 901.1 23.15C900.953 23.4633 900.88 23.85 900.88 24.31C900.88 24.7633 900.95 25.1567 901.09 25.49C901.23 25.8233 901.42 26.0833 901.66 26.27C901.907 26.45 902.197 26.54 902.53 26.54ZM915.38 29.25C914.12 29.25 913.1 28.9633 912.32 28.39C911.54 27.81 910.967 26.9833 910.6 25.91C910.234 24.8367 910.05 23.5567 910.05 22.07C910.05 20.8433 910.164 19.7367 910.39 18.75C910.617 17.7567 910.957 16.91 911.41 16.21C911.87 15.5033 912.444 14.96 913.13 14.58C913.817 14.2 914.617 14.01 915.53 14.01C916.477 14.01 917.257 14.1733 917.87 14.5C918.49 14.82 918.97 15.2167 919.31 15.69C919.65 16.1633 919.89 16.6433 920.03 17.13C920.17 17.6167 920.24 18.0267 920.24 18.36C920.24 18.38 920.24 18.3933 920.24 18.4C920.24 18.4067 920.24 18.42 920.24 18.44H916.93C916.93 18.42 916.93 18.4067 916.93 18.4C916.93 18.3933 916.93 18.38 916.93 18.36C916.93 18.22 916.91 18.0567 916.87 17.87C916.83 17.6767 916.76 17.4933 916.66 17.32C916.56 17.1467 916.417 17.0033 916.23 16.89C916.044 16.7767 915.807 16.72 915.52 16.72C915.067 16.72 914.694 16.9233 914.4 17.33C914.114 17.73 913.904 18.32 913.77 19.1C913.644 19.88 913.58 20.83 913.58 21.95L913.09 21.96C913.124 21.6267 913.26 21.29 913.5 20.95C913.747 20.6033 914.117 20.3133 914.61 20.08C915.11 19.84 915.74 19.72 916.5 19.72C917.447 19.72 918.23 19.9267 918.85 20.34C919.47 20.7467 919.934 21.2867 920.24 21.96C920.554 22.6267 920.71 23.35 920.71 24.13C920.71 25.1033 920.51 25.9767 920.11 26.75C919.717 27.5233 919.124 28.1333 918.33 28.58C917.544 29.0267 916.56 29.25 915.38 29.25ZM915.42 26.54C915.8 26.54 916.114 26.46 916.36 26.3C916.614 26.14 916.804 25.9 916.93 25.58C917.057 25.2533 917.12 24.85 917.12 24.37C917.12 23.8967 917.054 23.5 916.92 23.18C916.794 22.8533 916.61 22.6067 916.37 22.44C916.13 22.2667 915.844 22.18 915.51 22.18C915.17 22.18 914.867 22.2633 914.6 22.43C914.34 22.59 914.137 22.83 913.99 23.15C913.844 23.4633 913.77 23.85 913.77 24.31C913.77 24.7633 913.84 25.1567 913.98 25.49C914.12 25.8233 914.31 26.0833 914.55 26.27C914.797 26.45 915.087 26.54 915.42 26.54ZM934.751 15.43L923.591 28.69L922.371 27.64L933.521 14.39L934.751 15.43ZM925.271 19.42C924.764 19.42 924.291 19.3167 923.851 19.11C923.411 18.8967 923.058 18.5933 922.791 18.2C922.524 17.8067 922.391 17.3433 922.391 16.81C922.391 16.27 922.524 15.8033 922.791 15.41C923.058 15.0167 923.411 14.7133 923.851 14.5C924.291 14.2867 924.764 14.18 925.271 14.18C925.784 14.18 926.264 14.2867 926.711 14.5C927.164 14.7133 927.524 15.0167 927.791 15.41C928.064 15.8033 928.201 16.27 928.201 16.81C928.201 17.3433 928.064 17.8067 927.791 18.2C927.524 18.5933 927.164 18.8967 926.711 19.11C926.264 19.3167 925.784 19.42 925.271 19.42ZM925.271 17.98C925.491 17.98 925.701 17.94 925.901 17.86C926.101 17.78 926.264 17.6533 926.391 17.48C926.524 17.3067 926.591 17.0833 926.591 16.81C926.591 16.5233 926.524 16.2933 926.391 16.12C926.264 15.9467 926.101 15.8233 925.901 15.75C925.701 15.67 925.491 15.63 925.271 15.63C925.058 15.63 924.854 15.67 924.661 15.75C924.468 15.8233 924.308 15.9467 924.181 16.12C924.061 16.2933 924.001 16.5233 924.001 16.81C924.001 17.0833 924.061 17.3067 924.181 17.48C924.308 17.6533 924.468 17.78 924.661 17.86C924.854 17.94 925.058 17.98 925.271 17.98ZM931.621 28.96C931.121 28.96 930.651 28.8567 930.211 28.65C929.771 28.4367 929.414 28.1367 929.141 27.75C928.874 27.3567 928.741 26.89 928.741 26.35C928.741 25.81 928.874 25.3433 929.141 24.95C929.414 24.5567 929.771 24.2567 930.211 24.05C930.651 23.8367 931.121 23.73 931.621 23.73C932.141 23.73 932.624 23.8367 933.071 24.05C933.518 24.2567 933.878 24.5567 934.151 24.95C934.424 25.3433 934.561 25.81 934.561 26.35C934.561 26.89 934.424 27.3567 934.151 27.75C933.878 28.1367 933.518 28.4367 933.071 28.65C932.624 28.8567 932.141 28.96 931.621 28.96ZM931.621 27.53C931.841 27.53 932.051 27.49 932.251 27.41C932.451 27.33 932.614 27.2033 932.741 27.03C932.874 26.8567 932.941 26.63 932.941 26.35C932.941 26.07 932.874 25.8433 932.741 25.67C932.614 25.4967 932.451 25.37 932.251 25.29C932.051 25.21 931.841 25.17 931.621 25.17C931.414 25.17 931.211 25.21 931.011 25.29C930.818 25.37 930.658 25.4967 930.531 25.67C930.411 25.8433 930.351 26.07 930.351 26.35C930.351 26.63 930.411 26.8567 930.531 27.03C930.658 27.2033 930.818 27.33 931.011 27.41C931.211 27.49 931.414 27.53 931.621 27.53Z" fill="#0546ED"/>
<g filter="url(#filter0_d_156_1757)">
<rect y="53" width="936" height="40" fill="#DBDDE0" shape-rendering="crispEdges"/>
<rect x="3" y="56" width="930" height="34" stroke="white" stroke-width="6" shape-rendering="crispEdges"/>
<mask id="path-5-inside-1_156_1757" fill="white">
<path d="M6 58.7002H546V86.7002H6V58.7002Z"/>
</mask>
<path d="M6 58.7002H546V86.7002H6V58.7002Z" fill="url(#paint0_linear_156_1757)"/>
<path d="M546 58.7002H540V86.7002H546H552V58.7002H546Z" fill="black" mask="url(#path-5-inside-1_156_1757)"/>
</g>
</g>
<defs>
<filter id="filter0_d_156_1757" x="0" y="53" width="940" height="44" filterUnits="userSpaceOnUse" color-interpolation-filters="sRGB">
<feFlood flood-opacity="0" result="BackgroundImageFix"/>
<feColorMatrix in="SourceAlpha" type="matrix" values="0 0 0 0 0 0 0 0 0 0 0 0 0 0 0 0 0 0 127 0" result="hardAlpha"/>
<feOffset dx="4" dy="4"/>
<feComposite in2="hardAlpha" operator="out"/>
<feColorMatrix type="matrix" values="0 0 0 0 0 0 0 0 0 0 0 0 0 0 0 0 0 0 1 0"/>
<feBlend mode="normal" in2="BackgroundImageFix" result="effect1_dropShadow_156_1757"/>
<feBlend mode="normal" in="SourceGraphic" in2="effect1_dropShadow_156_1757" result="shape"/>
</filter>
<linearGradient id="paint0_linear_156_1757" x1="128.483" y1="155.195" x2="269.054" y2="-96.1742" gradientUnits="userSpaceOnUse">
<stop stop-color="#849AFF"/>
<stop offset="0.0428576" stop-color="#849AFF"/>
<stop offset="0.0428576" stop-color="#0546ED"/>
<stop offset="0.0857151" stop-color="#0546ED"/>
</linearGradient>
<clipPath id="clip0_156_1757">
<rect width="936" height="98" fill="white"/>
</clipPath>
</defs>
</svg>
