<svg width="296" height="340" viewBox="0 0 296 340" fill="none" xmlns="http://www.w3.org/2000/svg">
<g filter="url(#filter0_d_156_2175)">
<rect y="6.10352e-05" width="288" height="332" fill="#F6F6F9" shape-rendering="crispEdges"/>
<rect x="4" y="4.00006" width="280" height="324" stroke="white" stroke-width="8" shape-rendering="crispEdges"/>
<path d="M97.0053 55.0001V37.3001H101.301V53.7281L99.3693 51.5561H107.745V55.0001H97.0053ZM116.5 55.3001C115.38 55.3001 114.32 55.1041 113.32 54.7121C112.328 54.3121 111.452 53.7241 110.692 52.9481C109.932 52.1721 109.332 51.2161 108.892 50.0801C108.46 48.9361 108.244 47.6201 108.244 46.1321C108.244 44.6441 108.46 43.3321 108.892 42.1961C109.324 41.0601 109.916 40.1081 110.668 39.3401C111.428 38.5721 112.304 37.9921 113.296 37.6001C114.296 37.2081 115.364 37.0121 116.5 37.0121C117.636 37.0121 118.7 37.2081 119.692 37.6001C120.692 37.9921 121.572 38.5721 122.332 39.3401C123.092 40.1081 123.684 41.0601 124.108 42.1961C124.54 43.3321 124.756 44.6441 124.756 46.1321C124.756 47.6201 124.536 48.9361 124.096 50.0801C123.664 51.2161 123.064 52.1721 122.296 52.9481C121.536 53.7241 120.656 54.3121 119.656 54.7121C118.664 55.1041 117.612 55.3001 116.5 55.3001ZM116.5 51.9281C117.172 51.9281 117.804 51.7481 118.396 51.3881C118.988 51.0201 119.468 50.4121 119.836 49.5641C120.212 48.7161 120.4 47.5721 120.4 46.1321C120.4 44.6841 120.212 43.5441 119.836 42.7121C119.46 41.8721 118.976 41.2761 118.384 40.9241C117.792 40.5641 117.164 40.3841 116.5 40.3841C115.836 40.3841 115.204 40.5641 114.604 40.9241C114.012 41.2761 113.528 41.8721 113.152 42.7121C112.784 43.5441 112.6 44.6841 112.6 46.1321C112.6 47.5801 112.784 48.7281 113.152 49.5761C113.528 50.4161 114.012 51.0201 114.604 51.3881C115.204 51.7481 115.836 51.9281 116.5 51.9281ZM134.288 55.3001C132.864 55.3001 131.564 54.9561 130.388 54.2681C129.22 53.5721 128.292 52.5521 127.604 51.2081C126.916 49.8561 126.572 48.1881 126.572 46.2041C126.572 44.2281 126.936 42.5561 127.664 41.1881C128.4 39.8201 129.384 38.7841 130.616 38.0801C131.856 37.3681 133.236 37.0121 134.756 37.0121C136.036 37.0121 137.12 37.2161 138.008 37.6241C138.904 38.0241 139.628 38.5401 140.18 39.1721C140.74 39.8041 141.144 40.4681 141.392 41.1641C141.648 41.8601 141.776 42.4961 141.776 43.0721C141.776 43.0961 141.776 43.1201 141.776 43.1441C141.776 43.1681 141.776 43.1921 141.776 43.2161H137.612C137.612 43.1921 137.612 43.1681 137.612 43.1441C137.612 43.1201 137.612 43.0961 137.612 43.0721C137.612 42.7361 137.548 42.4081 137.42 42.0881C137.3 41.7681 137.116 41.4801 136.868 41.2241C136.62 40.9681 136.32 40.7641 135.968 40.6121C135.616 40.4601 135.212 40.3841 134.756 40.3841C134.14 40.3841 133.536 40.5641 132.944 40.9241C132.36 41.2761 131.876 41.8761 131.492 42.7241C131.116 43.5641 130.928 44.7241 130.928 46.2041C130.928 47.3241 131.036 48.2561 131.252 49.0001C131.468 49.7361 131.752 50.3201 132.104 50.7521C132.464 51.1841 132.868 51.4921 133.316 51.6761C133.764 51.8521 134.22 51.9401 134.684 51.9401C135.332 51.9401 135.88 51.8321 136.328 51.6161C136.784 51.4001 137.144 51.1321 137.408 50.8121C137.672 50.4921 137.84 50.1801 137.912 49.8761V48.9641H134.684V45.9401H141.704V55.0001H139.592L139.184 53.0441C139.128 53.2041 138.992 53.4121 138.776 53.6681C138.568 53.9241 138.272 54.1761 137.888 54.4241C137.504 54.6721 137.012 54.8801 136.412 55.0481C135.82 55.2161 135.112 55.3001 134.288 55.3001ZM144.56 55.0001V37.3001H152.072C154.008 37.3001 155.444 37.7361 156.38 38.6081C157.324 39.4721 157.796 40.6961 157.796 42.2801C157.796 43.1921 157.624 43.9681 157.28 44.6081C156.936 45.2401 156.508 45.7321 155.996 46.0841C155.484 46.4281 154.984 46.6201 154.496 46.6601C155 46.6921 155.472 46.8161 155.912 47.0321C156.36 47.2401 156.72 47.5801 156.992 48.0521C157.272 48.5161 157.412 49.1401 157.412 49.9241C157.412 50.4681 157.412 50.9961 157.412 51.5081C157.412 52.0121 157.412 52.5361 157.412 53.0801C157.412 53.4881 157.444 53.8721 157.508 54.2321C157.572 54.5841 157.668 54.8401 157.796 55.0001H153.512C153.4 54.8161 153.308 54.5521 153.236 54.2081C153.172 53.8641 153.14 53.4881 153.14 53.0801C153.14 52.6001 153.14 52.1561 153.14 51.7481C153.14 51.3401 153.14 50.8961 153.14 50.4161C153.14 49.7521 152.98 49.2321 152.66 48.8561C152.348 48.4801 151.816 48.2921 151.064 48.2921H147.62L148.748 46.9601V55.0001H144.56ZM148.748 46.5761L147.62 45.0521H151.112C151.552 45.0521 151.944 44.9561 152.288 44.7641C152.632 44.5721 152.9 44.3001 153.092 43.9481C153.292 43.5881 153.392 43.1681 153.392 42.6881C153.392 42.0481 153.184 41.5281 152.768 41.1281C152.36 40.7281 151.792 40.5281 151.064 40.5281H147.512L148.748 39.1961V46.5761ZM167.969 55.3001C166.849 55.3001 165.789 55.1041 164.789 54.7121C163.797 54.3121 162.921 53.7241 162.161 52.9481C161.401 52.1721 160.801 51.2161 160.361 50.0801C159.929 48.9361 159.713 47.6201 159.713 46.1321C159.713 44.6441 159.929 43.3321 160.361 42.1961C160.793 41.0601 161.385 40.1081 162.137 39.3401C162.897 38.5721 163.773 37.9921 164.765 37.6001C165.765 37.2081 166.833 37.0121 167.969 37.0121C169.105 37.0121 170.169 37.2081 171.161 37.6001C172.161 37.9921 173.041 38.5721 173.801 39.3401C174.561 40.1081 175.153 41.0601 175.577 42.1961C176.009 43.3321 176.225 44.6441 176.225 46.1321C176.225 47.6201 176.005 48.9361 175.565 50.0801C175.133 51.2161 174.533 52.1721 173.765 52.9481C173.005 53.7241 172.125 54.3121 171.125 54.7121C170.133 55.1041 169.081 55.3001 167.969 55.3001ZM167.969 51.9281C168.641 51.9281 169.273 51.7481 169.865 51.3881C170.457 51.0201 170.937 50.4121 171.305 49.5641C171.681 48.7161 171.869 47.5721 171.869 46.1321C171.869 44.6841 171.681 43.5441 171.305 42.7121C170.929 41.8721 170.445 41.2761 169.853 40.9241C169.261 40.5641 168.633 40.3841 167.969 40.3841C167.305 40.3841 166.673 40.5641 166.073 40.9241C165.481 41.2761 164.997 41.8721 164.621 42.7121C164.253 43.5441 164.069 44.6841 164.069 46.1321C164.069 47.5801 164.253 48.7281 164.621 49.5761C164.997 50.4161 165.481 51.0201 166.073 51.3881C166.673 51.7481 167.305 51.9281 167.969 51.9281ZM184.725 55.3001C183.437 55.3001 182.289 55.0921 181.281 54.6761C180.273 54.2601 179.481 53.6441 178.905 52.8281C178.329 52.0041 178.041 50.9801 178.041 49.7561C178.041 49.6441 178.041 49.5361 178.041 49.4321C178.041 49.3281 178.041 49.2161 178.041 49.0961H182.325C182.325 49.2001 182.325 49.3001 182.325 49.3961C182.325 49.4841 182.325 49.5761 182.325 49.6721C182.325 50.3681 182.525 50.9201 182.925 51.3281C183.333 51.7361 183.945 51.9401 184.761 51.9401C185.569 51.9401 186.193 51.8161 186.633 51.5681C187.081 51.3201 187.305 50.9121 187.305 50.3441C187.305 49.9361 187.117 49.5681 186.741 49.2401C186.373 48.9121 185.873 48.6121 185.241 48.3401C184.609 48.0601 183.897 47.8001 183.105 47.5601C182.241 47.2881 181.433 46.9281 180.681 46.4801C179.929 46.0241 179.321 45.4441 178.857 44.7401C178.393 44.0281 178.161 43.1481 178.161 42.1001C178.161 41.0281 178.449 40.1161 179.025 39.3641C179.609 38.6041 180.393 38.0241 181.377 37.6241C182.369 37.2161 183.481 37.0121 184.713 37.0121C185.985 37.0121 187.117 37.2121 188.109 37.6121C189.109 38.0121 189.897 38.6041 190.473 39.3881C191.049 40.1721 191.337 41.1401 191.337 42.2921C191.337 42.4121 191.337 42.5241 191.337 42.6281C191.337 42.7321 191.337 42.8401 191.337 42.9521H187.065C187.065 42.8961 187.065 42.8241 187.065 42.7361C187.065 42.6401 187.065 42.5601 187.065 42.4961C187.065 41.8481 186.885 41.3321 186.525 40.9481C186.165 40.5561 185.577 40.3601 184.761 40.3601C183.969 40.3601 183.357 40.5041 182.925 40.7921C182.493 41.0801 182.277 41.5121 182.277 42.0881C182.277 42.5041 182.445 42.8601 182.781 43.1561C183.117 43.4521 183.577 43.7241 184.161 43.9721C184.745 44.2121 185.409 44.4641 186.153 44.7281C187.217 45.0961 188.149 45.5041 188.949 45.9521C189.749 46.4001 190.369 46.9601 190.809 47.6321C191.249 48.3041 191.469 49.1641 191.469 50.2121C191.469 51.3001 191.181 52.2241 190.605 52.9841C190.037 53.7361 189.245 54.3121 188.229 54.7121C187.213 55.1041 186.045 55.3001 184.725 55.3001ZM81.2084 87.0001V69.3001H88.7204C90.6564 69.3001 92.0924 69.7361 93.0284 70.6081C93.9724 71.4721 94.4444 72.6961 94.4444 74.2801C94.4444 75.1921 94.2724 75.9681 93.9284 76.6081C93.5844 77.2401 93.1564 77.7321 92.6444 78.0841C92.1324 78.4281 91.6324 78.6201 91.1444 78.6601C91.6484 78.6921 92.1204 78.8161 92.5604 79.0321C93.0084 79.2401 93.3684 79.5801 93.6404 80.0521C93.9204 80.5161 94.0604 81.1401 94.0604 81.9241C94.0604 82.4681 94.0604 82.9961 94.0604 83.5081C94.0604 84.0121 94.0604 84.5361 94.0604 85.0801C94.0604 85.4881 94.0924 85.8721 94.1564 86.2321C94.2204 86.5841 94.3164 86.8401 94.4444 87.0001H90.1604C90.0484 86.8161 89.9564 86.5521 89.8844 86.2081C89.8204 85.8641 89.7884 85.4881 89.7884 85.0801C89.7884 84.6001 89.7884 84.1561 89.7884 83.7481C89.7884 83.3401 89.7884 82.8961 89.7884 82.4161C89.7884 81.7521 89.6284 81.2321 89.3084 80.8561C88.9964 80.4801 88.4644 80.2921 87.7124 80.2921H84.2684L85.3964 78.9601V87.0001H81.2084ZM85.3964 78.5761L84.2684 77.0521H87.7604C88.2004 77.0521 88.5924 76.9561 88.9364 76.7641C89.2804 76.5721 89.5484 76.3001 89.7404 75.9481C89.9404 75.5881 90.0404 75.1681 90.0404 74.6881C90.0404 74.0481 89.8324 73.5281 89.4164 73.1281C89.0084 72.7281 88.4404 72.5281 87.7124 72.5281H84.1604L85.3964 71.1961V78.5761ZM99.2172 72.5401L101.149 70.5601V77.6761L100.189 76.5001H106.633V79.7401H100.189L101.149 78.5761V85.7401L99.2172 83.7601H107.965V87.0001H96.8412V69.3001H107.965V72.5401H99.2172ZM124.825 80.4241C124.825 81.2081 124.673 82.0041 124.369 82.8121C124.073 83.6201 123.621 84.3641 123.013 85.0441C122.405 85.7161 121.633 86.2601 120.697 86.6761C119.769 87.0921 118.669 87.3001 117.397 87.3001C115.709 87.3001 114.265 86.9121 113.065 86.1361C111.865 85.3521 110.949 84.2721 110.317 82.8961C109.685 81.5201 109.369 79.9361 109.369 78.1441C109.369 76.3521 109.685 74.7721 110.317 73.4041C110.949 72.0281 111.865 70.9521 113.065 70.1761C114.265 69.4001 115.709 69.0121 117.397 69.0121C118.797 69.0121 119.993 69.2601 120.985 69.7561C121.977 70.2521 122.773 70.8961 123.373 71.6881C123.973 72.4801 124.385 73.3201 124.609 74.2081C124.753 74.7841 124.825 75.3401 124.825 75.8761H120.529C120.529 75.6281 120.513 75.4001 120.481 75.1921C120.401 74.6401 120.229 74.1561 119.965 73.7401C119.701 73.3161 119.353 72.9841 118.921 72.7441C118.489 72.5041 117.981 72.3841 117.397 72.3841C116.693 72.3841 116.065 72.5881 115.513 72.9961C114.969 73.3961 114.533 74.0201 114.205 74.8681C113.885 75.7161 113.725 76.8081 113.725 78.1441C113.725 79.4801 113.885 80.5761 114.205 81.4321C114.533 82.2881 114.969 82.9201 115.513 83.3281C116.065 83.7361 116.693 83.9401 117.397 83.9401C117.893 83.9401 118.333 83.8481 118.717 83.6641C119.109 83.4801 119.437 83.2281 119.701 82.9081C119.973 82.5801 120.177 82.2041 120.313 81.7801C120.457 81.3561 120.529 80.9041 120.529 80.4241H124.825ZM127.098 87.0001V69.3001H131.322V87.0001H127.098ZM136.436 72.5401L138.368 70.5601V77.6761L137.408 76.5001H143.852V79.7401H137.408L138.368 78.5761V85.7401L136.436 83.7601H145.184V87.0001H134.06V69.3001H145.184V72.5401H136.436ZM152.134 87.0001H147.958V69.3001H154.546L159.958 85.6081L159.178 85.7761V69.3001H163.342V87.0001H156.706L151.294 70.7521L152.134 70.5841V87.0001ZM178.254 72.5401H172.17L174.006 70.5601V87.0001H169.734V70.5601L171.594 72.5401H165.498V69.3001H178.254V72.5401ZM182.795 72.5401L184.727 70.5601V77.6761L183.767 76.5001H190.211V79.7401H183.767L184.727 78.5761V85.7401L182.795 83.7601H191.543V87.0001H180.419V69.3001H191.543V72.5401H182.795ZM200.522 87.3001C199.234 87.3001 198.086 87.0921 197.078 86.6761C196.07 86.2601 195.278 85.6441 194.702 84.8281C194.126 84.0041 193.838 82.9801 193.838 81.7561C193.838 81.6441 193.838 81.5361 193.838 81.4321C193.838 81.3281 193.838 81.2161 193.838 81.0961H198.122C198.122 81.2001 198.122 81.3001 198.122 81.3961C198.122 81.4841 198.122 81.5761 198.122 81.6721C198.122 82.3681 198.322 82.9201 198.722 83.3281C199.13 83.7361 199.742 83.9401 200.558 83.9401C201.366 83.9401 201.99 83.8161 202.43 83.5681C202.878 83.3201 203.102 82.9121 203.102 82.3441C203.102 81.9361 202.914 81.5681 202.538 81.2401C202.17 80.9121 201.67 80.6121 201.038 80.3401C200.406 80.0601 199.694 79.8001 198.902 79.5601C198.038 79.2881 197.23 78.9281 196.478 78.4801C195.726 78.0241 195.118 77.4441 194.654 76.7401C194.19 76.0281 193.958 75.1481 193.958 74.1001C193.958 73.0281 194.246 72.1161 194.822 71.3641C195.406 70.6041 196.19 70.0241 197.174 69.6241C198.166 69.2161 199.278 69.0121 200.51 69.0121C201.782 69.0121 202.914 69.2121 203.906 69.6121C204.906 70.0121 205.694 70.6041 206.27 71.3881C206.846 72.1721 207.134 73.1401 207.134 74.2921C207.134 74.4121 207.134 74.5241 207.134 74.6281C207.134 74.7321 207.134 74.8401 207.134 74.9521H202.862C202.862 74.8961 202.862 74.8241 202.862 74.7361C202.862 74.6401 202.862 74.5601 202.862 74.4961C202.862 73.8481 202.682 73.3321 202.322 72.9481C201.962 72.5561 201.374 72.3601 200.558 72.3601C199.766 72.3601 199.154 72.5041 198.722 72.7921C198.29 73.0801 198.074 73.5121 198.074 74.0881C198.074 74.5041 198.242 74.8601 198.578 75.1561C198.914 75.4521 199.374 75.7241 199.958 75.9721C200.542 76.2121 201.206 76.4641 201.95 76.7281C203.014 77.0961 203.946 77.5041 204.746 77.9521C205.546 78.4001 206.166 78.9601 206.606 79.6321C207.046 80.3041 207.266 81.1641 207.266 82.2121C207.266 83.3001 206.978 84.2241 206.402 84.9841C205.834 85.7361 205.042 86.3121 204.026 86.7121C203.01 87.1041 201.842 87.3001 200.522 87.3001Z" fill="#2D2F31"/>
<g filter="url(#filter1_d_156_2175)">
<rect x="32" y="120" width="224" height="84" fill="white" shape-rendering="crispEdges"/>
<rect x="34" y="122" width="220" height="80" stroke="black" stroke-width="4" shape-rendering="crispEdges"/>
<rect x="50.2363" y="137.891" width="43.56" height="46" transform="rotate(3 50.2363 137.891)" fill="#0546ED"/>
<rect x="50.2363" y="137.891" width="43.56" height="46" transform="rotate(3 50.2363 137.891)" stroke="black" stroke-width="2"/>
<path d="M62.3752 169.57C61.826 169.541 61.366 169.321 60.9954 168.909C60.6248 168.498 60.4538 168.017 60.4826 167.468L61.1107 155.484C61.1394 154.935 61.3597 154.475 61.7713 154.104C62.1829 153.734 62.6633 153.563 63.2126 153.592L79.1907 154.429C79.7399 154.458 80.1999 154.678 80.5705 155.09C80.9411 155.501 81.112 155.982 81.0833 156.531L80.4552 168.515C80.4264 169.064 80.2062 169.524 79.7946 169.894C79.383 170.265 78.9025 170.436 78.3533 170.407L62.3752 169.57V169.57M62.4799 167.572L78.458 168.41V168.41V168.41L78.9813 158.424L63.0032 157.586L62.4799 167.572V167.572V167.572V167.572M66.0274 166.757L64.7026 165.286L67.4102 162.824L64.9498 160.092L66.4461 158.768L70.2313 162.972L66.0274 166.757V166.757M70.5213 166.993L70.6259 164.995L76.6177 165.309L76.513 167.307L70.5213 166.993V166.993" fill="white"/>
<path d="M113.158 150H110.33V139.675H114.285C115.069 139.675 115.753 139.83 116.336 140.141C116.919 140.451 117.372 140.874 117.694 141.411C118.016 141.948 118.177 142.554 118.177 143.231C118.177 143.908 118.016 144.523 117.694 145.076C117.372 145.629 116.919 146.07 116.336 146.399C115.753 146.728 115.069 146.892 114.285 146.892H113.158V150ZM113.158 146.073L111.884 144.799H113.998C114.231 144.799 114.45 144.742 114.653 144.628C114.856 144.513 115.02 144.339 115.146 144.106C115.272 143.873 115.335 143.581 115.335 143.231C115.335 142.881 115.272 142.599 115.146 142.384C115.02 142.169 114.856 142.014 114.653 141.919C114.45 141.823 114.231 141.775 113.998 141.775H111.884L113.158 140.501V146.073ZM119.36 150V139.675H122.146V150H119.36ZM128.355 150.182C127.688 150.182 127.054 150.068 126.455 149.839C125.855 149.61 125.324 149.27 124.862 148.817C124.4 148.364 124.036 147.804 123.77 147.137C123.504 146.47 123.371 145.7 123.371 144.827C123.371 143.95 123.503 143.18 123.767 142.517C124.03 141.854 124.392 141.299 124.852 140.851C125.311 140.403 125.841 140.066 126.441 139.84C127.04 139.613 127.678 139.5 128.355 139.5C129.032 139.5 129.671 139.613 130.273 139.84C130.875 140.066 131.406 140.403 131.866 140.851C132.325 141.299 132.686 141.854 132.947 142.517C133.208 143.18 133.339 143.95 133.339 144.827C133.339 145.7 133.206 146.47 132.94 147.137C132.674 147.804 132.309 148.364 131.845 148.817C131.38 149.27 130.848 149.61 130.249 149.839C129.649 150.068 129.018 150.182 128.355 150.182ZM128.355 147.998C128.7 147.998 129.035 147.904 129.36 147.715C129.684 147.526 129.95 147.2 130.158 146.738C130.365 146.276 130.469 145.639 130.469 144.827C130.469 144.01 130.364 143.375 130.154 142.92C129.944 142.465 129.678 142.145 129.356 141.961C129.034 141.776 128.7 141.684 128.355 141.684C128.014 141.684 127.682 141.776 127.358 141.961C127.033 142.145 126.766 142.465 126.556 142.92C126.346 143.375 126.241 144.01 126.241 144.827C126.241 145.644 126.346 146.282 126.556 146.742C126.766 147.201 127.033 147.526 127.358 147.715C127.682 147.904 128.014 147.998 128.355 147.998ZM137.35 150H134.599V139.675H138.911L141.76 149.153L141.214 149.265V139.675H143.965V150H139.618L136.769 140.557L137.35 140.445V150ZM147.073 141.775L148.347 140.501V144.526L147.717 143.77H151.427V145.87H147.717L148.347 145.121V149.174L147.073 147.9H152.204V150H145.505V139.675H152.204V141.775H147.073ZM153.744 150V139.675H158.322C159.498 139.675 160.367 139.935 160.93 140.456C161.492 140.976 161.773 141.7 161.773 142.629C161.773 143.152 161.673 143.597 161.472 143.966C161.271 144.335 161.022 144.619 160.723 144.82C160.424 145.021 160.128 145.133 159.834 145.156C160.137 145.175 160.42 145.247 160.681 145.373C160.942 145.499 161.154 145.701 161.315 145.979C161.476 146.256 161.556 146.631 161.556 147.102C161.556 147.401 161.556 147.685 161.556 147.956C161.556 148.227 161.556 148.511 161.556 148.81C161.556 149.057 161.576 149.292 161.616 149.514C161.655 149.735 161.717 149.897 161.801 150H158.973C158.898 149.883 158.841 149.718 158.802 149.503C158.762 149.288 158.742 149.057 158.742 148.81C158.742 148.553 158.742 148.322 158.742 148.117C158.742 147.912 158.742 147.681 158.742 147.424C158.742 147.051 158.663 146.756 158.504 146.539C158.345 146.322 158.058 146.213 157.643 146.213H155.767L156.502 145.352V150H153.744ZM156.502 145.1L155.767 144.113H157.671C157.909 144.113 158.118 144.064 158.298 143.966C158.477 143.868 158.617 143.727 158.718 143.543C158.818 143.358 158.868 143.142 158.868 142.895C158.868 142.592 158.76 142.328 158.543 142.104C158.326 141.88 158.03 141.768 157.657 141.768H155.697L156.502 140.928V145.1ZM167.765 150.182C167.098 150.182 166.464 150.068 165.865 149.839C165.265 149.61 164.734 149.27 164.272 148.817C163.81 148.364 163.446 147.804 163.18 147.137C162.914 146.47 162.781 145.7 162.781 144.827C162.781 143.95 162.913 143.18 163.177 142.517C163.44 141.854 163.802 141.299 164.262 140.851C164.721 140.403 165.251 140.066 165.851 139.84C166.45 139.613 167.088 139.5 167.765 139.5C168.442 139.5 169.081 139.613 169.683 139.84C170.285 140.066 170.816 140.403 171.276 140.851C171.735 141.299 172.096 141.854 172.357 142.517C172.618 143.18 172.749 143.95 172.749 144.827C172.749 145.7 172.616 146.47 172.35 147.137C172.084 147.804 171.719 148.364 171.255 148.817C170.79 149.27 170.258 149.61 169.659 149.839C169.059 150.068 168.428 150.182 167.765 150.182ZM167.765 147.998C168.11 147.998 168.445 147.904 168.77 147.715C169.094 147.526 169.36 147.2 169.568 146.738C169.775 146.276 169.879 145.639 169.879 144.827C169.879 144.01 169.774 143.375 169.564 142.92C169.354 142.465 169.088 142.145 168.766 141.961C168.444 141.776 168.11 141.684 167.765 141.684C167.424 141.684 167.092 141.776 166.768 141.961C166.443 142.145 166.176 142.465 165.966 142.92C165.756 143.375 165.651 144.01 165.651 144.827C165.651 145.644 165.756 146.282 165.966 146.742C166.176 147.201 166.443 147.526 166.768 147.715C167.092 147.904 167.424 147.998 167.765 147.998ZM177.509 150V139.675H181.345C182.04 139.675 182.677 139.803 183.256 140.06C183.835 140.317 184.334 140.676 184.754 141.138C185.174 141.6 185.498 142.144 185.727 142.769C185.956 143.394 186.07 144.076 186.07 144.813C186.07 145.55 185.956 146.234 185.727 146.864C185.498 147.494 185.174 148.044 184.754 148.513C184.334 148.982 183.835 149.347 183.256 149.608C182.677 149.869 182.04 150 181.345 150H177.509ZM180.337 149.174L179.063 147.9H180.967C181.368 147.9 181.738 147.775 182.077 147.526C182.415 147.276 182.687 146.92 182.892 146.458C183.097 145.996 183.2 145.448 183.2 144.813C183.2 144.174 183.097 143.628 182.892 143.175C182.687 142.722 182.415 142.376 182.077 142.136C181.738 141.895 181.368 141.775 180.967 141.775H179.063L180.337 140.501V149.174ZM187.295 150V139.675H190.081V150H187.295ZM195.891 150.182C195.042 150.182 194.269 149.983 193.574 149.584C192.879 149.185 192.327 148.592 191.919 147.806C191.51 147.019 191.306 146.043 191.306 144.876C191.306 143.709 191.525 142.727 191.964 141.929C192.403 141.131 192.992 140.527 193.732 140.116C194.471 139.705 195.296 139.5 196.206 139.5C196.976 139.5 197.628 139.619 198.163 139.857C198.697 140.095 199.131 140.4 199.465 140.771C199.798 141.142 200.041 141.53 200.193 141.936C200.344 142.342 200.42 142.713 200.42 143.049C200.42 143.063 200.42 143.077 200.42 143.091C200.42 143.105 200.42 143.119 200.42 143.133H197.676C197.676 143.119 197.676 143.105 197.676 143.091C197.676 143.077 197.676 143.063 197.676 143.049C197.676 142.872 197.642 142.701 197.575 142.538C197.507 142.375 197.409 142.229 197.281 142.101C197.152 141.972 196.997 141.871 196.815 141.796C196.633 141.721 196.43 141.684 196.206 141.684C195.898 141.684 195.588 141.775 195.275 141.957C194.962 142.139 194.701 142.46 194.491 142.92C194.281 143.379 194.176 144.031 194.176 144.876C194.176 145.511 194.236 146.032 194.355 146.441C194.474 146.849 194.63 147.166 194.824 147.393C195.017 147.619 195.232 147.778 195.468 147.869C195.703 147.96 195.938 148.005 196.171 148.005C196.507 148.005 196.795 147.95 197.036 147.841C197.276 147.731 197.467 147.596 197.61 147.435C197.752 147.274 197.842 147.116 197.879 146.962V146.57H196.157V144.617H200.378V150H199.062L198.775 148.859C198.742 148.962 198.664 149.088 198.541 149.237C198.417 149.386 198.241 149.533 198.012 149.678C197.783 149.823 197.494 149.943 197.144 150.039C196.794 150.134 196.376 150.182 195.891 150.182ZM201.925 150V139.675H204.711V150H201.925ZM213.524 141.775H209.828L211.102 140.501V150H208.281V140.501L209.555 141.775H205.866V139.675H213.524V141.775ZM213.174 150L215.575 139.675H220.062L222.449 150H219.558L217.815 141.362H217.829L216.065 150H213.174ZM215.274 147.83V145.709H220.37V147.83H215.274ZM223.499 150V139.675H226.327V149.167L225.053 147.753H230.009V150H223.499Z" fill="#2D2F31"/>
<path d="M112.159 167H110.294V158.15H113.322C113.999 158.15 114.578 158.281 115.058 158.542C115.539 158.803 115.907 159.157 116.162 159.604C116.418 160.052 116.545 160.554 116.545 161.112C116.545 161.669 116.416 162.179 116.159 162.641C115.901 163.103 115.532 163.473 115.05 163.75C114.568 164.027 113.992 164.166 113.322 164.166H112.159V167ZM112.159 163.593L111.319 162.729H113.124C113.436 162.729 113.708 162.666 113.939 162.539C114.171 162.412 114.351 162.228 114.479 161.986C114.607 161.745 114.671 161.453 114.671 161.112C114.671 160.768 114.608 160.484 114.482 160.258C114.357 160.033 114.179 159.865 113.948 159.755C113.717 159.645 113.442 159.59 113.124 159.59H111.319L112.159 158.702V163.593ZM117.709 167V160.628H119.572V162.825L119.189 162.583C119.234 162.284 119.315 162.009 119.43 161.756C119.545 161.503 119.695 161.284 119.88 161.098C120.064 160.912 120.284 160.767 120.538 160.665C120.793 160.562 121.083 160.51 121.408 160.51C121.666 160.51 121.868 160.529 122.013 160.566C122.158 160.603 122.248 160.633 122.284 160.654L121.98 162.322C121.942 162.299 121.862 162.266 121.739 162.223C121.616 162.181 121.456 162.159 121.261 162.159C120.941 162.159 120.673 162.213 120.456 162.319C120.239 162.426 120.066 162.569 119.936 162.748C119.807 162.927 119.714 163.124 119.657 163.341C119.6 163.557 119.572 163.774 119.572 163.993V167H117.709ZM123.156 167V160.628H124.996V167H123.156ZM124.076 159.592C123.788 159.592 123.536 159.516 123.321 159.363C123.106 159.21 122.999 158.995 122.999 158.718C122.999 158.439 123.106 158.224 123.321 158.073C123.536 157.921 123.788 157.845 124.076 157.845C124.365 157.845 124.617 157.921 124.831 158.073C125.045 158.224 125.152 158.439 125.152 158.718C125.152 158.998 125.045 159.213 124.831 159.365C124.617 159.517 124.365 159.592 124.076 159.592ZM130.352 167V164.532C130.352 164.298 130.352 164.094 130.352 163.919C130.352 163.744 130.352 163.598 130.352 163.482C130.352 163.321 130.343 163.16 130.325 162.998C130.306 162.836 130.266 162.687 130.204 162.55C130.142 162.414 130.047 162.304 129.919 162.222C129.791 162.139 129.617 162.098 129.396 162.098C129.19 162.098 129.014 162.141 128.867 162.228C128.721 162.315 128.6 162.433 128.506 162.582C128.411 162.73 128.342 162.902 128.298 163.096C128.254 163.29 128.232 163.493 128.232 163.705L127.725 163.287C127.725 162.745 127.822 162.265 128.017 161.849C128.213 161.433 128.491 161.105 128.853 160.867C129.215 160.629 129.645 160.51 130.143 160.51C130.672 160.51 131.086 160.623 131.384 160.848C131.682 161.072 131.892 161.372 132.015 161.746C132.137 162.12 132.198 162.533 132.198 162.986C132.198 163.158 132.198 163.39 132.198 163.682C132.198 163.974 132.198 164.323 132.198 164.73V167H130.352ZM126.373 167V160.628H128.232V167H126.373ZM134.309 167V164.539C134.309 164.296 134.309 164.086 134.309 163.911C134.309 163.735 134.309 163.589 134.309 163.472C134.309 163.297 134.299 163.128 134.279 162.964C134.259 162.801 134.217 162.654 134.154 162.524C134.091 162.394 133.995 162.29 133.867 162.213C133.738 162.136 133.565 162.098 133.346 162.098C133.139 162.098 132.963 162.141 132.817 162.227C132.671 162.313 132.552 162.43 132.461 162.577C132.371 162.724 132.304 162.892 132.262 163.081C132.219 163.271 132.198 163.466 132.198 163.669L131.691 163.256C131.691 162.723 131.787 162.251 131.98 161.838C132.173 161.426 132.449 161.101 132.808 160.865C133.167 160.629 133.596 160.51 134.095 160.51C134.615 160.51 135.026 160.62 135.328 160.838C135.629 161.056 135.845 161.349 135.974 161.716C136.103 162.083 136.168 162.492 136.168 162.945C136.168 163.125 136.168 163.357 136.168 163.641C136.168 163.925 136.168 164.27 136.168 164.676V167H134.309ZM138.278 164.373V163.144H142.502L142.322 163.452C142.322 163.423 142.322 163.393 142.322 163.361C142.322 163.329 142.322 163.301 142.322 163.276C142.322 163.048 142.268 162.828 142.16 162.618C142.051 162.408 141.884 162.236 141.658 162.103C141.432 161.969 141.142 161.902 140.788 161.902C140.436 161.902 140.134 161.977 139.882 162.126C139.629 162.274 139.435 162.489 139.301 162.769C139.166 163.05 139.099 163.388 139.099 163.783C139.099 164.191 139.164 164.54 139.294 164.832C139.423 165.123 139.617 165.346 139.874 165.501C140.132 165.655 140.452 165.733 140.836 165.733C141.085 165.733 141.3 165.71 141.481 165.666C141.662 165.621 141.809 165.562 141.923 165.488C142.037 165.414 142.124 165.334 142.183 165.247C142.241 165.16 142.276 165.074 142.288 164.989H144.128C144.104 165.259 144.011 165.523 143.851 165.78C143.69 166.036 143.468 166.268 143.183 166.474C142.898 166.68 142.553 166.843 142.147 166.963C141.742 167.084 141.28 167.144 140.762 167.144C140.058 167.144 139.443 167.003 138.919 166.722C138.395 166.441 137.989 166.051 137.7 165.551C137.411 165.051 137.267 164.477 137.267 163.828C137.267 163.167 137.414 162.587 137.708 162.09C138.003 161.592 138.413 161.204 138.94 160.927C139.467 160.649 140.075 160.51 140.765 160.51C141.474 160.51 142.086 160.651 142.603 160.932C143.119 161.213 143.517 161.607 143.797 162.112C144.077 162.617 144.217 163.207 144.217 163.882C144.217 163.98 144.215 164.075 144.211 164.167C144.207 164.259 144.201 164.328 144.193 164.373H138.278ZM145.375 167V160.628H147.238V162.825L146.855 162.583C146.9 162.284 146.981 162.009 147.096 161.756C147.211 161.503 147.361 161.284 147.546 161.098C147.73 160.912 147.95 160.767 148.204 160.665C148.459 160.562 148.749 160.51 149.074 160.51C149.332 160.51 149.534 160.529 149.679 160.566C149.824 160.603 149.914 160.633 149.95 160.654L149.646 162.322C149.608 162.299 149.528 162.266 149.405 162.223C149.282 162.181 149.122 162.159 148.927 162.159C148.607 162.159 148.339 162.213 148.122 162.319C147.905 162.426 147.732 162.569 147.603 162.748C147.473 162.927 147.38 163.124 147.323 163.341C147.266 163.557 147.238 163.774 147.238 163.993V167H145.375ZM153.822 167V160.628H155.662V167H153.822ZM154.742 159.592C154.454 159.592 154.202 159.516 153.987 159.363C153.772 159.21 153.665 158.995 153.665 158.718C153.665 158.439 153.772 158.224 153.987 158.073C154.202 157.921 154.454 157.845 154.742 157.845C155.031 157.845 155.283 157.921 155.497 158.073C155.711 158.224 155.818 158.439 155.818 158.718C155.818 158.998 155.711 159.213 155.497 159.365C155.283 159.517 155.031 159.592 154.742 159.592ZM161.524 167V164.292C161.524 164.141 161.524 164.004 161.524 163.88C161.524 163.756 161.524 163.645 161.524 163.546C161.524 163.282 161.49 163.04 161.422 162.82C161.355 162.601 161.233 162.426 161.056 162.295C160.88 162.164 160.626 162.098 160.296 162.098C160.009 162.098 159.76 162.164 159.551 162.296C159.341 162.428 159.18 162.612 159.067 162.847C158.954 163.082 158.898 163.355 158.898 163.666L158.385 163.29C158.385 162.739 158.505 162.256 158.745 161.839C158.985 161.423 159.309 161.097 159.718 160.863C160.126 160.628 160.581 160.51 161.082 160.51C161.605 160.51 162.037 160.615 162.376 160.823C162.715 161.031 162.967 161.323 163.133 161.698C163.299 162.074 163.382 162.511 163.382 163.01C163.382 163.212 163.382 163.44 163.382 163.694C163.382 163.948 163.382 164.205 163.382 164.467V167H161.524ZM157.039 167V160.628H158.898V167H157.039ZM164.706 167V160.628H166.546V167H164.706ZM165.626 159.592C165.338 159.592 165.086 159.516 164.871 159.363C164.656 159.21 164.549 158.995 164.549 158.718C164.549 158.439 164.656 158.224 164.871 158.073C165.086 157.921 165.338 157.845 165.626 157.845C165.915 157.845 166.167 157.921 166.381 158.073C166.595 158.224 166.702 158.439 166.702 158.718C166.702 158.998 166.595 159.213 166.381 159.365C166.167 159.517 165.915 159.592 165.626 159.592ZM171.134 167.142C170.433 167.142 169.818 167.001 169.291 166.719C168.764 166.438 168.355 166.045 168.064 165.542C167.772 165.039 167.627 164.456 167.627 163.794C167.627 163.129 167.772 162.551 168.064 162.06C168.355 161.568 168.764 161.187 169.291 160.917C169.818 160.646 170.433 160.51 171.134 160.51C171.658 160.51 172.122 160.587 172.524 160.74C172.926 160.892 173.264 161.095 173.536 161.346C173.809 161.598 174.015 161.874 174.157 162.174C174.298 162.474 174.368 162.772 174.368 163.069C174.368 163.075 174.368 163.083 174.368 163.092C174.368 163.101 174.368 163.11 174.368 163.118H172.526C172.526 163.096 172.525 163.073 172.522 163.051C172.519 163.028 172.515 163.006 172.508 162.982C172.476 162.813 172.406 162.654 172.296 162.506C172.186 162.358 172.035 162.237 171.842 162.144C171.649 162.051 171.407 162.004 171.118 162.004C170.813 162.004 170.539 162.072 170.297 162.207C170.055 162.342 169.864 162.543 169.724 162.808C169.584 163.074 169.514 163.402 169.514 163.794C169.514 164.178 169.584 164.51 169.723 164.787C169.862 165.065 170.053 165.278 170.295 165.426C170.537 165.574 170.811 165.648 171.118 165.648C171.434 165.648 171.693 165.599 171.892 165.501C172.092 165.404 172.242 165.272 172.343 165.106C172.445 164.94 172.504 164.757 172.523 164.557H174.368C174.368 164.854 174.299 165.156 174.16 165.461C174.021 165.766 173.817 166.045 173.546 166.299C173.275 166.552 172.938 166.756 172.535 166.91C172.132 167.064 171.665 167.142 171.134 167.142ZM175.452 167V160.628H177.292V167H175.452ZM176.372 159.592C176.084 159.592 175.832 159.516 175.617 159.363C175.402 159.21 175.295 158.995 175.295 158.718C175.295 158.439 175.402 158.224 175.617 158.073C175.832 157.921 176.084 157.845 176.372 157.845C176.661 157.845 176.913 157.921 177.127 158.073C177.341 158.224 177.448 158.439 177.448 158.718C177.448 158.998 177.341 159.213 177.127 159.365C176.913 159.517 176.661 159.592 176.372 159.592ZM181.86 167.136C181.172 167.136 180.566 166.994 180.043 166.712C179.519 166.43 179.11 166.039 178.815 165.54C178.52 165.04 178.373 164.466 178.373 163.815C178.373 163.165 178.52 162.591 178.815 162.094C179.11 161.598 179.519 161.21 180.043 160.931C180.566 160.652 181.172 160.513 181.86 160.513C182.548 160.513 183.154 160.652 183.677 160.931C184.201 161.21 184.61 161.598 184.905 162.094C185.2 162.591 185.347 163.165 185.347 163.815C185.347 164.466 185.2 165.04 184.905 165.54C184.61 166.039 184.201 166.43 183.677 166.712C183.154 166.994 182.548 167.136 181.86 167.136ZM181.861 165.663C182.185 165.663 182.467 165.587 182.707 165.434C182.947 165.281 183.133 165.066 183.266 164.79C183.398 164.513 183.464 164.188 183.464 163.816C183.464 163.444 183.398 163.121 183.266 162.847C183.133 162.573 182.947 162.362 182.707 162.213C182.467 162.063 182.185 161.989 181.861 161.989C181.54 161.989 181.258 162.063 181.016 162.213C180.774 162.362 180.587 162.573 180.454 162.847C180.322 163.121 180.256 163.444 180.256 163.816C180.256 164.188 180.322 164.513 180.454 164.79C180.587 165.066 180.774 165.281 181.016 165.434C181.258 165.587 181.54 165.663 181.861 165.663ZM192.202 167.142C191.673 167.142 191.184 167.015 190.735 166.761C190.285 166.507 189.925 166.13 189.653 165.631C189.381 165.133 189.245 164.518 189.245 163.786C189.245 163.084 189.384 162.489 189.662 162.001C189.941 161.513 190.305 161.142 190.756 160.89C191.206 160.637 191.688 160.51 192.202 160.51C192.706 160.51 193.167 160.638 193.586 160.892C194.006 161.146 194.341 161.495 194.593 161.939C194.845 162.383 194.971 162.892 194.971 163.466C194.971 163.485 194.971 163.504 194.971 163.522C194.971 163.54 194.971 163.558 194.971 163.578L194.167 163.59C194.167 163.578 194.167 163.565 194.167 163.551C194.167 163.537 194.167 163.524 194.167 163.512C194.167 163.212 194.095 162.954 193.95 162.739C193.805 162.524 193.619 162.357 193.391 162.239C193.164 162.121 192.926 162.062 192.677 162.062C192.267 162.062 191.912 162.199 191.612 162.473C191.312 162.747 191.162 163.185 191.162 163.786C191.162 164.386 191.313 164.827 191.614 165.109C191.914 165.39 192.269 165.531 192.677 165.531C192.934 165.531 193.177 165.47 193.403 165.347C193.63 165.224 193.814 165.051 193.955 164.827C194.097 164.603 194.167 164.34 194.167 164.037L194.971 164.08C194.971 164.651 194.848 165.167 194.6 165.63C194.353 166.093 194.021 166.461 193.603 166.733C193.186 167.005 192.718 167.142 192.202 167.142ZM194.167 167V157.622H196.032V167H194.167ZM198.17 164.373V163.144H202.394L202.214 163.452C202.214 163.423 202.214 163.393 202.214 163.361C202.214 163.329 202.214 163.301 202.214 163.276C202.214 163.048 202.16 162.828 202.052 162.618C201.943 162.408 201.776 162.236 201.55 162.103C201.324 161.969 201.034 161.902 200.68 161.902C200.328 161.902 200.026 161.977 199.774 162.126C199.521 162.274 199.327 162.489 199.193 162.769C199.058 163.05 198.991 163.388 198.991 163.783C198.991 164.191 199.056 164.54 199.186 164.832C199.315 165.123 199.509 165.346 199.766 165.501C200.024 165.655 200.344 165.733 200.728 165.733C200.977 165.733 201.192 165.71 201.373 165.666C201.554 165.621 201.701 165.562 201.815 165.488C201.929 165.414 202.016 165.334 202.075 165.247C202.133 165.16 202.168 165.074 202.18 164.989H204.02C203.996 165.259 203.903 165.523 203.743 165.78C203.582 166.036 203.36 166.268 203.075 166.474C202.79 166.68 202.445 166.843 202.039 166.963C201.634 167.084 201.172 167.144 200.654 167.144C199.95 167.144 199.335 167.003 198.811 166.722C198.287 166.441 197.881 166.051 197.592 165.551C197.303 165.051 197.159 164.477 197.159 163.828C197.159 163.167 197.306 162.587 197.6 162.09C197.895 161.592 198.305 161.204 198.832 160.927C199.359 160.649 199.967 160.51 200.657 160.51C201.366 160.51 201.978 160.651 202.495 160.932C203.011 161.213 203.409 161.607 203.689 162.112C203.969 162.617 204.109 163.207 204.109 163.882C204.109 163.98 204.107 164.075 204.103 164.167C204.099 164.259 204.093 164.328 204.085 164.373H198.17ZM112.936 183.142C112.556 183.142 112.191 183.098 111.84 183.011C111.489 182.925 111.174 182.795 110.896 182.623C110.618 182.45 110.398 182.235 110.235 181.976C110.072 181.718 109.991 181.417 109.991 181.074C109.991 181.056 109.991 181.037 109.991 181.016C109.991 180.996 109.991 180.978 109.991 180.964H111.838C111.838 180.978 111.838 180.992 111.838 181.006C111.838 181.019 111.838 181.035 111.838 181.052C111.838 181.283 111.941 181.452 112.147 181.561C112.354 181.67 112.634 181.724 112.988 181.724C113.169 181.724 113.345 181.705 113.515 181.666C113.686 181.627 113.826 181.565 113.936 181.48C114.046 181.395 114.101 181.286 114.101 181.153C114.101 180.941 113.984 180.791 113.751 180.701C113.518 180.612 113.142 180.525 112.625 180.44C112.332 180.392 112.036 180.323 111.737 180.236C111.438 180.148 111.162 180.031 110.911 179.883C110.66 179.735 110.458 179.549 110.305 179.324C110.152 179.1 110.076 178.825 110.076 178.501C110.076 178.068 110.207 177.703 110.468 177.408C110.729 177.113 111.078 176.889 111.514 176.738C111.951 176.586 112.43 176.51 112.954 176.51C113.454 176.51 113.92 176.593 114.353 176.759C114.786 176.925 115.136 177.163 115.404 177.473C115.672 177.782 115.806 178.154 115.806 178.588C115.806 178.599 115.806 178.612 115.806 178.628C115.806 178.644 115.806 178.659 115.806 178.672H113.976C113.976 178.659 113.976 178.646 113.976 178.634C113.976 178.622 113.976 178.611 113.976 178.6C113.976 178.44 113.925 178.31 113.824 178.21C113.723 178.111 113.594 178.036 113.437 177.988C113.28 177.939 113.117 177.914 112.948 177.914C112.799 177.914 112.643 177.931 112.479 177.963C112.315 177.995 112.178 178.051 112.066 178.129C111.954 178.208 111.898 178.318 111.898 178.459C111.898 178.594 111.958 178.704 112.079 178.789C112.201 178.875 112.369 178.945 112.586 179.001C112.802 179.057 113.051 179.108 113.332 179.154C113.601 179.197 113.885 179.258 114.184 179.338C114.482 179.417 114.762 179.527 115.022 179.668C115.283 179.809 115.495 179.995 115.659 180.226C115.823 180.457 115.904 180.747 115.904 181.096C115.904 181.463 115.82 181.776 115.652 182.034C115.483 182.292 115.256 182.503 114.97 182.666C114.684 182.83 114.366 182.95 114.014 183.026C113.663 183.103 113.304 183.142 112.936 183.142ZM117.776 180.373V179.144H122L121.82 179.452C121.82 179.423 121.82 179.393 121.82 179.361C121.82 179.329 121.82 179.301 121.82 179.276C121.82 179.048 121.766 178.828 121.658 178.618C121.549 178.408 121.382 178.236 121.156 178.103C120.93 177.969 120.64 177.902 120.286 177.902C119.934 177.902 119.632 177.977 119.38 178.126C119.127 178.274 118.933 178.489 118.799 178.769C118.664 179.05 118.597 179.388 118.597 179.783C118.597 180.191 118.662 180.54 118.792 180.832C118.921 181.123 119.115 181.346 119.372 181.501C119.63 181.655 119.95 181.733 120.334 181.733C120.583 181.733 120.798 181.71 120.979 181.666C121.16 181.621 121.307 181.562 121.421 181.488C121.535 181.414 121.622 181.334 121.681 181.247C121.739 181.16 121.774 181.074 121.786 180.989H123.626C123.602 181.259 123.509 181.523 123.349 181.78C123.188 182.036 122.966 182.268 122.681 182.474C122.396 182.68 122.051 182.843 121.645 182.963C121.24 183.084 120.778 183.144 120.26 183.144C119.556 183.144 118.941 183.003 118.417 182.722C117.893 182.441 117.487 182.051 117.198 181.551C116.909 181.051 116.765 180.477 116.765 179.828C116.765 179.167 116.912 178.587 117.206 178.09C117.501 177.592 117.911 177.204 118.438 176.927C118.965 176.649 119.573 176.51 120.263 176.51C120.972 176.51 121.584 176.651 122.101 176.932C122.617 177.213 123.015 177.607 123.295 178.112C123.575 178.617 123.715 179.207 123.715 179.882C123.715 179.98 123.713 180.075 123.709 180.167C123.705 180.259 123.699 180.328 123.691 180.373H117.776ZM127.522 183.142C127.142 183.142 126.777 183.098 126.426 183.011C126.075 182.925 125.76 182.795 125.482 182.623C125.204 182.45 124.984 182.235 124.821 181.976C124.658 181.718 124.577 181.417 124.577 181.074C124.577 181.056 124.577 181.037 124.577 181.016C124.577 180.996 124.577 180.978 124.577 180.964H126.424C126.424 180.978 126.424 180.992 126.424 181.006C126.424 181.019 126.424 181.035 126.424 181.052C126.424 181.283 126.527 181.452 126.733 181.561C126.94 181.67 127.22 181.724 127.574 181.724C127.755 181.724 127.931 181.705 128.101 181.666C128.272 181.627 128.412 181.565 128.522 181.48C128.632 181.395 128.687 181.286 128.687 181.153C128.687 180.941 128.57 180.791 128.337 180.701C128.104 180.612 127.728 180.525 127.211 180.44C126.918 180.392 126.622 180.323 126.323 180.236C126.024 180.148 125.748 180.031 125.497 179.883C125.246 179.735 125.044 179.549 124.891 179.324C124.738 179.1 124.662 178.825 124.662 178.501C124.662 178.068 124.793 177.703 125.054 177.408C125.315 177.113 125.664 176.889 126.1 176.738C126.537 176.586 127.016 176.51 127.54 176.51C128.04 176.51 128.506 176.593 128.939 176.759C129.372 176.925 129.722 177.163 129.99 177.473C130.258 177.782 130.392 178.154 130.392 178.588C130.392 178.599 130.392 178.612 130.392 178.628C130.392 178.644 130.392 178.659 130.392 178.672H128.562C128.562 178.659 128.562 178.646 128.562 178.634C128.562 178.622 128.562 178.611 128.562 178.6C128.562 178.44 128.511 178.31 128.41 178.21C128.309 178.111 128.18 178.036 128.023 177.988C127.866 177.939 127.703 177.914 127.534 177.914C127.385 177.914 127.229 177.931 127.065 177.963C126.901 177.995 126.764 178.051 126.652 178.129C126.54 178.208 126.484 178.318 126.484 178.459C126.484 178.594 126.544 178.704 126.665 178.789C126.787 178.875 126.955 178.945 127.172 179.001C127.388 179.057 127.637 179.108 127.918 179.154C128.187 179.197 128.471 179.258 128.77 179.338C129.068 179.417 129.348 179.527 129.608 179.668C129.869 179.809 130.081 179.995 130.245 180.226C130.409 180.457 130.49 180.747 130.49 181.096C130.49 181.463 130.406 181.776 130.238 182.034C130.069 182.292 129.842 182.503 129.556 182.666C129.27 182.83 128.952 182.95 128.6 183.026C128.249 183.103 127.89 183.142 127.522 183.142ZM131.574 183V176.628H133.414V183H131.574ZM132.494 175.592C132.206 175.592 131.954 175.516 131.739 175.363C131.524 175.21 131.417 174.995 131.417 174.718C131.417 174.439 131.524 174.224 131.739 174.073C131.954 173.921 132.206 173.845 132.494 173.845C132.783 173.845 133.035 173.921 133.249 174.073C133.463 174.224 133.57 174.439 133.57 174.718C133.57 174.998 133.463 175.213 133.249 175.365C133.035 175.517 132.783 175.592 132.494 175.592ZM137.982 183.136C137.294 183.136 136.688 182.994 136.165 182.712C135.641 182.43 135.232 182.039 134.937 181.54C134.642 181.04 134.495 180.466 134.495 179.815C134.495 179.165 134.642 178.591 134.937 178.094C135.232 177.598 135.641 177.21 136.165 176.931C136.688 176.652 137.294 176.513 137.982 176.513C138.67 176.513 139.276 176.652 139.799 176.931C140.323 177.21 140.732 177.598 141.027 178.094C141.322 178.591 141.469 179.165 141.469 179.815C141.469 180.466 141.322 181.04 141.027 181.54C140.732 182.039 140.323 182.43 139.799 182.712C139.276 182.994 138.67 183.136 137.982 183.136ZM137.983 181.663C138.307 181.663 138.589 181.587 138.829 181.434C139.069 181.281 139.255 181.066 139.388 180.79C139.52 180.513 139.586 180.188 139.586 179.816C139.586 179.444 139.52 179.121 139.388 178.847C139.255 178.573 139.069 178.362 138.829 178.213C138.589 178.063 138.307 177.989 137.983 177.989C137.662 177.989 137.38 178.063 137.138 178.213C136.896 178.362 136.709 178.573 136.576 178.847C136.444 179.121 136.378 179.444 136.378 179.816C136.378 180.188 136.444 180.513 136.576 180.79C136.709 181.066 136.896 181.281 137.138 181.434C137.38 181.587 137.662 181.663 137.983 181.663ZM136.992 175.781L138.419 174.15H139.843L138.212 175.781H136.992ZM147.112 183V180.292C147.112 180.141 147.112 180.004 147.112 179.88C147.112 179.756 147.112 179.645 147.112 179.546C147.112 179.282 147.078 179.04 147.01 178.82C146.943 178.601 146.821 178.426 146.644 178.295C146.468 178.164 146.214 178.098 145.884 178.098C145.597 178.098 145.348 178.164 145.139 178.296C144.929 178.428 144.768 178.612 144.655 178.847C144.542 179.082 144.486 179.355 144.486 179.666L143.973 179.29C143.973 178.739 144.093 178.256 144.333 177.839C144.573 177.423 144.897 177.097 145.306 176.863C145.715 176.628 146.169 176.51 146.67 176.51C147.193 176.51 147.625 176.615 147.964 176.823C148.303 177.031 148.555 177.323 148.721 177.698C148.887 178.074 148.97 178.511 148.97 179.01C148.97 179.212 148.97 179.44 148.97 179.694C148.97 179.948 148.97 180.205 148.97 180.467V183H147.112ZM142.627 183V176.628H144.486V183H142.627Z" fill="#6B7280"/>
</g>
<g filter="url(#filter2_d_156_2175)">
<rect x="32" y="220" width="224" height="80" fill="white" shape-rendering="crispEdges"/>
<rect x="34" y="222" width="220" height="76" stroke="black" stroke-width="4" shape-rendering="crispEdges"/>
<rect x="47.8308" y="238.236" width="46" height="46" transform="rotate(-3 47.8308 238.236)" fill="#8C4A00"/>
<rect x="47.8308" y="238.236" width="46" height="46" transform="rotate(-3 47.8308 238.236)" stroke="black" stroke-width="2"/>
<path d="M63.12 262.469L63.0154 260.472L70.0058 260.106L70.1104 262.103L63.12 262.469V262.469M62.9107 258.475L62.806 256.478L73.791 255.902L73.8956 257.899L62.9107 258.475V258.475M62.7014 254.48L62.5967 252.483L73.5816 251.907L73.6863 253.905L62.7014 254.48V254.48M72.4217 267.99L72.2608 264.919L77.4904 259.138C77.6323 258.98 77.7931 258.863 77.9727 258.787C78.1523 258.711 78.3336 258.668 78.5167 258.658C78.7164 258.648 78.9098 258.675 79.0968 258.741C79.2838 258.806 79.4561 258.909 79.6138 259.051L80.5859 259.927C80.7269 260.07 80.8397 260.231 80.9242 260.41C81.0086 260.589 81.0557 260.77 81.0653 260.953C81.0749 261.136 81.0514 261.325 80.9949 261.52C80.9383 261.715 80.8391 261.891 80.6971 262.049L75.4925 267.829L72.4217 267.99V267.99M79.5673 261.032V261.032L78.5952 260.156V260.156L79.5673 261.032V261.032M73.8412 266.414L74.7899 266.364L77.6511 263.16L77.1769 262.709L76.679 262.284L73.7914 265.465L73.8412 266.414V266.414M77.1769 262.709L76.679 262.284V262.284L77.6511 263.16V263.16L77.1769 262.709V262.709" fill="white"/>
<path d="M115.598 256H112.77V245.675H116.725C117.509 245.675 118.193 245.83 118.776 246.141C119.359 246.451 119.812 246.874 120.134 247.411C120.456 247.948 120.617 248.554 120.617 249.231C120.617 249.908 120.456 250.522 120.134 251.076C119.812 251.629 119.359 252.07 118.776 252.398C118.193 252.727 117.509 252.892 116.725 252.892H115.598V256ZM115.598 252.073L114.324 250.799H116.438C116.671 250.799 116.89 250.742 117.093 250.628C117.296 250.513 117.46 250.339 117.586 250.106C117.712 249.873 117.775 249.581 117.775 249.231C117.775 248.881 117.712 248.599 117.586 248.384C117.46 248.169 117.296 248.014 117.093 247.918C116.89 247.823 116.671 247.775 116.438 247.775H114.324L115.598 246.501V252.073ZM121.835 256V245.675H126.413C127.589 245.675 128.458 245.935 129.02 246.456C129.583 246.976 129.864 247.7 129.864 248.629C129.864 249.152 129.764 249.597 129.563 249.966C129.362 250.335 129.113 250.619 128.814 250.82C128.515 251.021 128.219 251.133 127.925 251.156C128.228 251.175 128.511 251.247 128.772 251.373C129.033 251.499 129.244 251.701 129.405 251.978C129.566 252.256 129.647 252.631 129.647 253.102C129.647 253.401 129.647 253.685 129.647 253.956C129.647 254.227 129.647 254.511 129.647 254.81C129.647 255.057 129.667 255.292 129.706 255.514C129.746 255.735 129.808 255.897 129.892 256H127.064C126.989 255.883 126.932 255.718 126.892 255.503C126.853 255.288 126.833 255.057 126.833 254.81C126.833 254.553 126.833 254.322 126.833 254.117C126.833 253.912 126.833 253.681 126.833 253.424C126.833 253.051 126.754 252.755 126.595 252.538C126.436 252.321 126.149 252.213 125.734 252.213H123.858L124.593 251.352V256H121.835ZM124.593 251.1L123.858 250.113H125.762C126 250.113 126.209 250.064 126.388 249.966C126.568 249.868 126.708 249.727 126.808 249.542C126.909 249.358 126.959 249.142 126.959 248.895C126.959 248.592 126.85 248.328 126.633 248.104C126.416 247.88 126.121 247.768 125.748 247.768H123.788L124.593 246.928V251.1ZM131.117 256V245.675H133.903V256H131.117ZM142.849 245.675H147.602V256H144.921V247.18L144.97 247.208L143.367 256H139.769L138.117 247.187L138.166 247.159V256H135.478V245.675H140.231L141.673 254.922H141.386L142.849 245.675ZM150.78 247.775L152.054 246.501V250.526L151.424 249.77H155.134V251.87H151.424L152.054 251.121V255.174L150.78 253.9H155.911V256H149.212V245.675H155.911V247.775H150.78ZM157.451 256V245.675H162.029C163.205 245.675 164.074 245.935 164.636 246.456C165.199 246.976 165.48 247.7 165.48 248.629C165.48 249.152 165.38 249.597 165.179 249.966C164.978 250.335 164.729 250.619 164.43 250.82C164.131 251.021 163.835 251.133 163.541 251.156C163.844 251.175 164.127 251.247 164.388 251.373C164.649 251.499 164.86 251.701 165.021 251.978C165.182 252.256 165.263 252.631 165.263 253.102C165.263 253.401 165.263 253.685 165.263 253.956C165.263 254.227 165.263 254.511 165.263 254.81C165.263 255.057 165.283 255.292 165.323 255.514C165.362 255.735 165.424 255.897 165.508 256H162.68C162.605 255.883 162.548 255.718 162.508 255.503C162.469 255.288 162.449 255.057 162.449 254.81C162.449 254.553 162.449 254.322 162.449 254.117C162.449 253.912 162.449 253.681 162.449 253.424C162.449 253.051 162.37 252.755 162.211 252.538C162.052 252.321 161.765 252.213 161.35 252.213H159.474L160.209 251.352V256H157.451ZM160.209 251.1L159.474 250.113H161.378C161.616 250.113 161.825 250.064 162.004 249.966C162.184 249.868 162.324 249.727 162.424 249.542C162.525 249.358 162.575 249.142 162.575 248.895C162.575 248.592 162.466 248.328 162.249 248.104C162.032 247.88 161.737 247.768 161.364 247.768H159.404L160.209 246.928V251.1ZM169.778 256L172.179 245.675H176.666L179.053 256H176.162L174.419 247.362H174.433L172.669 256H169.778ZM171.878 253.83V251.709H176.974V253.83H171.878ZM182.931 256H180.103V245.675H184.058C184.842 245.675 185.526 245.83 186.109 246.141C186.692 246.451 187.145 246.874 187.467 247.411C187.789 247.948 187.95 248.554 187.95 249.231C187.95 249.908 187.789 250.522 187.467 251.076C187.145 251.629 186.692 252.07 186.109 252.398C185.526 252.727 184.842 252.892 184.058 252.892H182.931V256ZM182.931 252.073L181.657 250.799H183.771C184.004 250.799 184.223 250.742 184.426 250.628C184.629 250.513 184.793 250.339 184.919 250.106C185.045 249.873 185.108 249.581 185.108 249.231C185.108 248.881 185.045 248.599 184.919 248.384C184.793 248.169 184.629 248.014 184.426 247.918C184.223 247.823 184.004 247.775 183.771 247.775H181.657L182.931 246.501V252.073ZM197.344 252.325C197.344 253.608 196.977 254.572 196.242 255.216C195.507 255.86 194.509 256.182 193.249 256.182C191.989 256.182 190.994 255.86 190.264 255.216C189.533 254.572 189.168 253.608 189.168 252.325C189.168 252.162 189.168 251.99 189.168 251.81C189.168 251.631 189.168 251.445 189.168 251.254V245.675H191.996V251.695C191.996 251.826 191.996 251.949 191.996 252.066C191.996 252.183 191.996 252.292 191.996 252.395C191.996 252.918 192.086 253.317 192.266 253.592C192.445 253.867 192.773 254.005 193.249 254.005C193.725 254.005 194.055 253.867 194.24 253.592C194.424 253.317 194.516 252.918 194.516 252.395V245.675H197.344V252.325ZM201.635 256H198.884V245.675H203.196L206.045 255.153L205.499 255.265V245.675H208.25V256H203.903L201.054 246.557L201.635 246.445V256ZM217.098 247.775H213.402L214.676 246.501V256H211.855V246.501L213.129 247.775H209.44V245.675H217.098V247.775ZM219.856 247.775L221.13 246.501V250.526L220.5 249.77H224.21V251.87H220.5L221.13 251.121V255.174L219.856 253.9H224.987V256H218.288V245.675H224.987V247.775H219.856Z" fill="#2D2F31"/>
<path d="M116.232 264.15C116.85 264.15 117.358 264.236 117.755 264.409C118.153 264.582 118.448 264.829 118.642 265.149C118.836 265.469 118.932 265.849 118.932 266.288C118.932 266.723 118.846 267.093 118.673 267.399C118.5 267.705 118.282 267.941 118.019 268.108C117.755 268.274 117.486 268.368 117.213 268.388C117.498 268.396 117.79 268.469 118.089 268.607C118.389 268.744 118.641 268.966 118.844 269.27C119.048 269.575 119.15 269.983 119.15 270.494C119.15 270.974 119.053 271.403 118.86 271.781C118.668 272.159 118.357 272.457 117.927 272.674C117.498 272.891 116.927 273 116.213 273H112.734V264.15H116.232ZM114.513 268.247L113.898 267.726H115.662C116.134 267.726 116.488 267.625 116.723 267.422C116.957 267.219 117.075 266.946 117.075 266.603C117.075 266.37 117.025 266.179 116.927 266.03C116.828 265.882 116.68 265.771 116.483 265.699C116.286 265.626 116.044 265.59 115.756 265.59H113.673L114.513 264.702V268.247ZM115.85 271.556C116.309 271.556 116.657 271.451 116.895 271.239C117.133 271.027 117.252 270.742 117.252 270.383C117.252 270.181 117.217 270.004 117.147 269.851C117.076 269.698 116.977 269.571 116.847 269.468C116.718 269.366 116.563 269.288 116.382 269.236C116.201 269.183 115.999 269.156 115.778 269.156H113.898L114.513 268.636V272.444L113.673 271.556H115.85ZM120.346 273V266.628H122.186V273H120.346ZM121.266 265.592C120.978 265.592 120.726 265.516 120.511 265.363C120.296 265.21 120.189 264.995 120.189 264.718C120.189 264.439 120.296 264.224 120.511 264.073C120.726 263.921 120.978 263.845 121.266 263.845C121.555 263.845 121.807 263.921 122.021 264.073C122.235 264.224 122.342 264.439 122.342 264.718C122.342 264.998 122.235 265.213 122.021 265.365C121.807 265.517 121.555 265.592 121.266 265.592ZM126.695 273.132C126.451 273.132 126.2 273.111 125.941 273.068C125.682 273.025 125.442 272.941 125.222 272.816C125.001 272.692 124.822 272.507 124.686 272.264C124.55 272.02 124.482 271.698 124.482 271.296C124.482 271.207 124.482 271.117 124.482 271.026C124.482 270.935 124.482 270.843 124.482 270.75V268.068H123.008V266.628H123.424C123.666 266.628 123.857 266.618 123.999 266.597C124.141 266.576 124.247 266.525 124.316 266.443C124.384 266.362 124.429 266.233 124.451 266.058C124.472 265.883 124.482 265.641 124.482 265.332V264.53H126.347V266.628H128.199V268.068H126.347V270.359C126.347 270.43 126.347 270.5 126.347 270.568C126.347 270.637 126.347 270.703 126.347 270.768C126.347 271.043 126.38 271.267 126.447 271.44C126.513 271.613 126.677 271.699 126.939 271.699C127.072 271.699 127.197 271.687 127.316 271.662C127.434 271.637 127.523 271.612 127.582 271.588V272.99C127.5 273.024 127.382 273.056 127.229 273.086C127.075 273.117 126.898 273.132 126.695 273.132ZM131.328 273.134C130.861 273.134 130.447 273.06 130.086 272.912C129.726 272.763 129.443 272.549 129.238 272.267C129.033 271.986 128.931 271.646 128.931 271.246C128.931 270.796 129.055 270.429 129.303 270.145C129.552 269.861 129.881 269.644 130.291 269.492C130.701 269.341 131.146 269.243 131.625 269.198C132.325 269.13 132.808 269.068 133.076 269.01C133.343 268.952 133.476 268.855 133.476 268.717C133.476 268.716 133.476 268.714 133.476 268.712C133.476 268.71 133.476 268.708 133.476 268.706C133.476 268.47 133.363 268.284 133.136 268.148C132.909 268.011 132.594 267.943 132.189 267.943C131.76 267.943 131.433 268.02 131.208 268.173C130.984 268.326 130.871 268.562 130.871 268.88H129.039C129.039 268.368 129.178 267.936 129.455 267.584C129.733 267.232 130.11 266.965 130.587 266.783C131.065 266.601 131.603 266.51 132.202 266.51C132.763 266.51 133.281 266.595 133.757 266.764C134.232 266.932 134.615 267.187 134.906 267.529C135.196 267.87 135.341 268.301 135.341 268.822C135.341 268.906 135.341 268.989 135.341 269.072C135.341 269.156 135.341 269.239 135.341 269.323V271.58C135.341 271.742 135.346 271.898 135.356 272.05C135.365 272.201 135.388 272.338 135.423 272.462C135.464 272.599 135.514 272.714 135.575 272.807C135.636 272.901 135.685 272.965 135.723 273H133.894C133.864 272.97 133.821 272.912 133.764 272.825C133.708 272.738 133.659 272.637 133.618 272.522C133.571 272.382 133.536 272.241 133.514 272.097C133.492 271.953 133.481 271.787 133.481 271.597L133.865 271.862C133.751 272.124 133.569 272.35 133.319 272.54C133.069 272.731 132.773 272.877 132.431 272.98C132.089 273.083 131.721 273.134 131.328 273.134ZM131.825 271.738C132.115 271.738 132.387 271.685 132.641 271.579C132.895 271.474 133.102 271.307 133.262 271.079C133.422 270.852 133.502 270.554 133.502 270.186V269.543L133.964 269.995C133.703 270.09 133.399 270.169 133.052 270.231C132.704 270.293 132.359 270.342 132.015 270.377C131.608 270.416 131.303 270.485 131.1 270.585C130.897 270.685 130.796 270.849 130.796 271.078C130.796 271.298 130.882 271.464 131.055 271.573C131.228 271.683 131.484 271.738 131.825 271.738ZM131.306 265.781L132.732 264.15H134.157L132.526 265.781H131.306ZM139.914 273.142C139.213 273.142 138.598 273.001 138.071 272.719C137.544 272.438 137.135 272.045 136.844 271.542C136.552 271.039 136.407 270.456 136.407 269.794C136.407 269.129 136.552 268.551 136.844 268.06C137.135 267.568 137.544 267.187 138.071 266.917C138.598 266.646 139.213 266.51 139.914 266.51C140.438 266.51 140.902 266.587 141.304 266.74C141.706 266.892 142.044 267.095 142.316 267.346C142.589 267.598 142.795 267.874 142.937 268.174C143.078 268.474 143.148 268.772 143.148 269.069C143.148 269.075 143.148 269.083 143.148 269.092C143.148 269.101 143.148 269.11 143.148 269.118H141.306C141.306 269.096 141.305 269.073 141.302 269.051C141.299 269.028 141.295 269.006 141.288 268.982C141.256 268.813 141.186 268.654 141.076 268.506C140.966 268.358 140.815 268.237 140.622 268.144C140.429 268.051 140.187 268.004 139.898 268.004C139.593 268.004 139.319 268.072 139.077 268.207C138.835 268.342 138.644 268.543 138.504 268.808C138.364 269.074 138.294 269.402 138.294 269.794C138.294 270.178 138.364 270.51 138.503 270.787C138.642 271.065 138.833 271.278 139.075 271.426C139.317 271.574 139.591 271.648 139.898 271.648C140.214 271.648 140.473 271.599 140.672 271.501C140.872 271.404 141.022 271.272 141.123 271.106C141.225 270.94 141.284 270.757 141.303 270.557H143.148C143.148 270.854 143.079 271.156 142.94 271.461C142.801 271.766 142.597 272.045 142.326 272.299C142.055 272.552 141.718 272.756 141.315 272.91C140.912 273.064 140.445 273.142 139.914 273.142ZM147.496 273.136C146.808 273.136 146.202 272.994 145.679 272.712C145.155 272.43 144.746 272.039 144.451 271.54C144.156 271.04 144.009 270.466 144.009 269.815C144.009 269.165 144.156 268.591 144.451 268.094C144.746 267.598 145.155 267.21 145.679 266.931C146.202 266.652 146.808 266.513 147.496 266.513C148.184 266.513 148.79 266.652 149.313 266.931C149.837 267.21 150.246 267.598 150.541 268.094C150.836 268.591 150.983 269.165 150.983 269.815C150.983 270.466 150.836 271.04 150.541 271.54C150.246 272.039 149.837 272.43 149.313 272.712C148.79 272.994 148.184 273.136 147.496 273.136ZM147.497 271.663C147.821 271.663 148.103 271.587 148.343 271.434C148.583 271.281 148.769 271.066 148.902 270.79C149.034 270.513 149.1 270.188 149.1 269.816C149.1 269.444 149.034 269.121 148.902 268.847C148.769 268.573 148.583 268.362 148.343 268.213C148.103 268.063 147.821 267.989 147.497 267.989C147.175 267.989 146.894 268.063 146.652 268.213C146.41 268.362 146.223 268.573 146.09 268.847C145.958 269.121 145.892 269.444 145.892 269.816C145.892 270.188 145.958 270.513 146.09 270.79C146.223 271.066 146.41 271.281 146.652 271.434C146.894 271.587 147.175 271.663 147.497 271.663ZM152.141 273V266.628H154.004V268.825L153.621 268.583C153.666 268.284 153.747 268.009 153.862 267.756C153.977 267.503 154.127 267.284 154.311 267.098C154.496 266.912 154.715 266.767 154.97 266.665C155.225 266.562 155.515 266.51 155.84 266.51C156.098 266.51 156.3 266.529 156.445 266.566C156.59 266.603 156.68 266.633 156.716 266.654L156.412 268.322C156.374 268.299 156.294 268.266 156.171 268.223C156.048 268.181 155.888 268.159 155.693 268.159C155.373 268.159 155.105 268.213 154.888 268.319C154.671 268.426 154.498 268.569 154.368 268.748C154.239 268.927 154.146 269.124 154.089 269.341C154.032 269.557 154.004 269.774 154.004 269.993V273H152.141ZM159.702 273.134C159.235 273.134 158.821 273.06 158.46 272.912C158.1 272.763 157.817 272.549 157.612 272.267C157.407 271.986 157.305 271.646 157.305 271.246C157.305 270.796 157.429 270.429 157.677 270.145C157.926 269.861 158.255 269.644 158.665 269.492C159.075 269.341 159.52 269.243 159.999 269.198C160.699 269.13 161.182 269.068 161.45 269.01C161.717 268.952 161.85 268.855 161.85 268.717C161.85 268.716 161.85 268.714 161.85 268.712C161.85 268.71 161.85 268.708 161.85 268.706C161.85 268.47 161.737 268.284 161.51 268.148C161.283 268.011 160.968 267.943 160.563 267.943C160.134 267.943 159.807 268.02 159.582 268.173C159.358 268.326 159.245 268.562 159.245 268.88H157.413C157.413 268.368 157.552 267.936 157.829 267.584C158.107 267.232 158.484 266.965 158.961 266.783C159.439 266.601 159.977 266.51 160.576 266.51C161.137 266.51 161.655 266.595 162.131 266.764C162.606 266.932 162.989 267.187 163.28 267.529C163.57 267.87 163.715 268.301 163.715 268.822C163.715 268.906 163.715 268.989 163.715 269.072C163.715 269.156 163.715 269.239 163.715 269.323V271.58C163.715 271.742 163.72 271.898 163.73 272.05C163.739 272.201 163.762 272.338 163.797 272.462C163.838 272.599 163.888 272.714 163.949 272.807C164.01 272.901 164.059 272.965 164.097 273H162.268C162.238 272.97 162.195 272.912 162.138 272.825C162.082 272.738 162.033 272.637 161.992 272.522C161.945 272.382 161.91 272.241 161.888 272.097C161.866 271.953 161.855 271.787 161.855 271.597L162.239 271.862C162.125 272.124 161.943 272.35 161.693 272.54C161.443 272.731 161.147 272.877 160.805 272.98C160.463 273.083 160.095 273.134 159.702 273.134ZM160.199 271.738C160.489 271.738 160.761 271.685 161.015 271.579C161.269 271.474 161.476 271.307 161.636 271.079C161.796 270.852 161.876 270.554 161.876 270.186V269.543L162.338 269.995C162.077 270.09 161.773 270.169 161.426 270.231C161.078 270.293 160.733 270.342 160.389 270.377C159.982 270.416 159.677 270.485 159.474 270.585C159.271 270.685 159.17 270.849 159.17 271.078C159.17 271.298 159.256 271.464 159.429 271.573C159.602 271.683 159.858 271.738 160.199 271.738ZM170.274 273.134C169.807 273.134 169.393 273.06 169.032 272.912C168.672 272.763 168.389 272.549 168.184 272.267C167.979 271.986 167.877 271.646 167.877 271.246C167.877 270.796 168.001 270.429 168.249 270.145C168.498 269.861 168.827 269.644 169.237 269.492C169.647 269.341 170.092 269.243 170.571 269.198C171.271 269.13 171.754 269.068 172.022 269.01C172.289 268.952 172.422 268.855 172.422 268.717C172.422 268.716 172.422 268.714 172.422 268.712C172.422 268.71 172.422 268.708 172.422 268.706C172.422 268.47 172.309 268.284 172.082 268.148C171.855 268.011 171.54 267.943 171.135 267.943C170.706 267.943 170.379 268.02 170.154 268.173C169.93 268.326 169.817 268.562 169.817 268.88H167.985C167.985 268.368 168.124 267.936 168.401 267.584C168.679 267.232 169.056 266.965 169.533 266.783C170.011 266.601 170.549 266.51 171.148 266.51C171.709 266.51 172.227 266.595 172.703 266.764C173.178 266.932 173.561 267.187 173.852 267.529C174.142 267.87 174.287 268.301 174.287 268.822C174.287 268.906 174.287 268.989 174.287 269.072C174.287 269.156 174.287 269.239 174.287 269.323V271.58C174.287 271.742 174.292 271.898 174.302 272.05C174.311 272.201 174.334 272.338 174.369 272.462C174.41 272.599 174.46 272.714 174.521 272.807C174.582 272.901 174.631 272.965 174.669 273H172.84C172.81 272.97 172.767 272.912 172.71 272.825C172.654 272.738 172.605 272.637 172.564 272.522C172.517 272.382 172.482 272.241 172.46 272.097C172.438 271.953 172.427 271.787 172.427 271.597L172.811 271.862C172.697 272.124 172.515 272.35 172.265 272.54C172.015 272.731 171.719 272.877 171.377 272.98C171.035 273.083 170.667 273.134 170.274 273.134ZM170.771 271.738C171.061 271.738 171.333 271.685 171.587 271.579C171.841 271.474 172.048 271.307 172.208 271.079C172.368 270.852 172.448 270.554 172.448 270.186V269.543L172.91 269.995C172.649 270.09 172.345 270.169 171.998 270.231C171.65 270.293 171.305 270.342 170.961 270.377C170.554 270.416 170.249 270.485 170.046 270.585C169.843 270.685 169.742 270.849 169.742 271.078C169.742 271.298 169.828 271.464 170.001 271.573C170.174 271.683 170.43 271.738 170.771 271.738ZM178.86 273.142C178.159 273.142 177.544 273.001 177.017 272.719C176.49 272.438 176.081 272.045 175.79 271.542C175.498 271.039 175.353 270.456 175.353 269.794C175.353 269.129 175.498 268.551 175.79 268.06C176.081 267.568 176.49 267.187 177.017 266.917C177.544 266.646 178.159 266.51 178.86 266.51C179.384 266.51 179.848 266.587 180.25 266.74C180.652 266.892 180.99 267.095 181.262 267.346C181.535 267.598 181.741 267.874 181.883 268.174C182.024 268.474 182.094 268.772 182.094 269.069C182.094 269.075 182.094 269.083 182.094 269.092C182.094 269.101 182.094 269.11 182.094 269.118H180.252C180.252 269.096 180.251 269.073 180.248 269.051C180.245 269.028 180.241 269.006 180.234 268.982C180.202 268.813 180.132 268.654 180.022 268.506C179.912 268.358 179.761 268.237 179.568 268.144C179.375 268.051 179.133 268.004 178.844 268.004C178.539 268.004 178.265 268.072 178.023 268.207C177.781 268.342 177.59 268.543 177.45 268.808C177.31 269.074 177.24 269.402 177.24 269.794C177.24 270.178 177.31 270.51 177.449 270.787C177.588 271.065 177.779 271.278 178.021 271.426C178.263 271.574 178.537 271.648 178.844 271.648C179.16 271.648 179.419 271.599 179.618 271.501C179.818 271.404 179.968 271.272 180.069 271.106C180.171 270.94 180.23 270.757 180.249 270.557H182.094C182.094 270.854 182.025 271.156 181.886 271.461C181.747 271.766 181.543 272.045 181.272 272.299C181.001 272.552 180.664 272.756 180.261 272.91C179.858 273.064 179.391 273.142 178.86 273.142ZM186.329 273.132C186.085 273.132 185.834 273.111 185.575 273.068C185.316 273.025 185.076 272.941 184.856 272.816C184.635 272.692 184.456 272.507 184.32 272.264C184.184 272.02 184.116 271.698 184.116 271.296C184.116 271.207 184.116 271.117 184.116 271.026C184.116 270.935 184.116 270.843 184.116 270.75V268.068H182.642V266.628H183.058C183.3 266.628 183.491 266.618 183.633 266.597C183.775 266.576 183.881 266.525 183.95 266.443C184.018 266.362 184.063 266.233 184.085 266.058C184.106 265.883 184.116 265.641 184.116 265.332V264.53H185.981V266.628H187.833V268.068H185.981V270.359C185.981 270.43 185.981 270.5 185.981 270.568C185.981 270.637 185.981 270.703 185.981 270.768C185.981 271.043 186.014 271.267 186.081 271.44C186.147 271.613 186.311 271.699 186.573 271.699C186.706 271.699 186.831 271.687 186.95 271.662C187.068 271.637 187.157 271.612 187.216 271.588V272.99C187.134 273.024 187.016 273.056 186.863 273.086C186.709 273.117 186.532 273.132 186.329 273.132ZM191.219 273.121C190.768 273.121 190.396 273.048 190.103 272.9C189.809 272.753 189.579 272.556 189.412 272.309C189.245 272.062 189.127 271.786 189.059 271.483C188.991 271.179 188.957 270.871 188.957 270.558C188.957 270.413 188.957 270.261 188.957 270.101C188.957 269.942 188.957 269.779 188.957 269.612V266.628H190.818V269.315C190.818 269.453 190.818 269.586 190.818 269.713C190.818 269.84 190.818 269.958 190.818 270.067C190.818 270.334 190.848 270.579 190.907 270.803C190.965 271.028 191.076 271.208 191.237 271.345C191.399 271.481 191.63 271.549 191.931 271.549C192.222 271.549 192.47 271.466 192.674 271.299C192.878 271.132 193.034 270.919 193.143 270.659C193.253 270.4 193.307 270.133 193.307 269.858L193.826 270.281C193.826 270.683 193.765 271.056 193.645 271.4C193.525 271.744 193.352 272.045 193.127 272.303C192.901 272.561 192.628 272.762 192.307 272.906C191.986 273.049 191.623 273.121 191.219 273.121ZM193.307 273V266.628H195.166V273H193.307ZM198.72 273.134C198.253 273.134 197.839 273.06 197.478 272.912C197.118 272.763 196.835 272.549 196.63 272.267C196.425 271.986 196.323 271.646 196.323 271.246C196.323 270.796 196.447 270.429 196.695 270.145C196.944 269.861 197.273 269.644 197.683 269.492C198.093 269.341 198.538 269.243 199.017 269.198C199.717 269.13 200.2 269.068 200.468 269.01C200.735 268.952 200.868 268.855 200.868 268.717C200.868 268.716 200.868 268.714 200.868 268.712C200.868 268.71 200.868 268.708 200.868 268.706C200.868 268.47 200.755 268.284 200.528 268.148C200.301 268.011 199.986 267.943 199.581 267.943C199.152 267.943 198.825 268.02 198.6 268.173C198.376 268.326 198.263 268.562 198.263 268.88H196.431C196.431 268.368 196.57 267.936 196.847 267.584C197.125 267.232 197.502 266.965 197.979 266.783C198.457 266.601 198.995 266.51 199.594 266.51C200.155 266.51 200.673 266.595 201.149 266.764C201.624 266.932 202.007 267.187 202.298 267.529C202.588 267.87 202.733 268.301 202.733 268.822C202.733 268.906 202.733 268.989 202.733 269.072C202.733 269.156 202.733 269.239 202.733 269.323V271.58C202.733 271.742 202.738 271.898 202.748 272.05C202.757 272.201 202.78 272.338 202.815 272.462C202.856 272.599 202.906 272.714 202.967 272.807C203.028 272.901 203.077 272.965 203.115 273H201.286C201.256 272.97 201.213 272.912 201.156 272.825C201.1 272.738 201.051 272.637 201.01 272.522C200.963 272.382 200.928 272.241 200.906 272.097C200.884 271.953 200.873 271.787 200.873 271.597L201.257 271.862C201.143 272.124 200.961 272.35 200.711 272.54C200.461 272.731 200.165 272.877 199.823 272.98C199.481 273.083 199.113 273.134 198.72 273.134ZM199.217 271.738C199.507 271.738 199.779 271.685 200.033 271.579C200.287 271.474 200.494 271.307 200.654 271.079C200.814 270.852 200.894 270.554 200.894 270.186V269.543L201.356 269.995C201.095 270.09 200.791 270.169 200.444 270.231C200.096 270.293 199.751 270.342 199.407 270.377C199 270.416 198.695 270.485 198.492 270.585C198.289 270.685 198.188 270.849 198.188 271.078C198.188 271.298 198.274 271.464 198.447 271.573C198.62 271.683 198.876 271.738 199.217 271.738ZM206.018 263.622V273H204.185V263.622H206.018ZM207.43 273V266.628H209.27V273H207.43ZM208.35 265.592C208.062 265.592 207.81 265.516 207.595 265.363C207.38 265.21 207.273 264.995 207.273 264.718C207.273 264.439 207.38 264.224 207.595 264.073C207.81 263.921 208.062 263.845 208.35 263.845C208.639 263.845 208.891 263.921 209.105 264.073C209.319 264.224 209.426 264.439 209.426 264.718C209.426 264.998 209.319 265.213 209.105 265.365C208.891 265.517 208.639 265.592 208.35 265.592ZM212.27 271.542H215.729V273H210.28V271.621L213.654 268.015L213.696 268.082H210.401V266.628H215.657V268.007L212.312 271.601L212.27 271.542ZM218.814 273.134C218.347 273.134 217.933 273.06 217.572 272.912C217.212 272.763 216.929 272.549 216.724 272.267C216.519 271.986 216.417 271.646 216.417 271.246C216.417 270.796 216.541 270.429 216.789 270.145C217.038 269.861 217.367 269.644 217.777 269.492C218.187 269.341 218.632 269.243 219.111 269.198C219.811 269.13 220.294 269.068 220.562 269.01C220.829 268.952 220.962 268.855 220.962 268.717C220.962 268.716 220.962 268.714 220.962 268.712C220.962 268.71 220.962 268.708 220.962 268.706C220.962 268.47 220.849 268.284 220.622 268.148C220.395 268.011 220.08 267.943 219.675 267.943C219.246 267.943 218.919 268.02 218.694 268.173C218.47 268.326 218.357 268.562 218.357 268.88H216.525C216.525 268.368 216.664 267.936 216.941 267.584C217.219 267.232 217.596 266.965 218.073 266.783C218.551 266.601 219.089 266.51 219.688 266.51C220.249 266.51 220.767 266.595 221.243 266.764C221.718 266.932 222.101 267.187 222.392 267.529C222.682 267.87 222.827 268.301 222.827 268.822C222.827 268.906 222.827 268.989 222.827 269.072C222.827 269.156 222.827 269.239 222.827 269.323V271.58C222.827 271.742 222.832 271.898 222.842 272.05C222.851 272.201 222.874 272.338 222.909 272.462C222.95 272.599 223 272.714 223.061 272.807C223.122 272.901 223.171 272.965 223.209 273H221.38C221.35 272.97 221.307 272.912 221.25 272.825C221.194 272.738 221.145 272.637 221.104 272.522C221.057 272.382 221.022 272.241 221 272.097C220.978 271.953 220.967 271.787 220.967 271.597L221.351 271.862C221.237 272.124 221.055 272.35 220.805 272.54C220.555 272.731 220.259 272.877 219.917 272.98C219.575 273.083 219.207 273.134 218.814 273.134ZM219.311 271.738C219.601 271.738 219.873 271.685 220.127 271.579C220.381 271.474 220.588 271.307 220.748 271.079C220.908 270.852 220.988 270.554 220.988 270.186V269.543L221.45 269.995C221.189 270.09 220.885 270.169 220.538 270.231C220.19 270.293 219.845 270.342 219.501 270.377C219.094 270.416 218.789 270.485 218.586 270.585C218.383 270.685 218.282 270.849 218.282 271.078C218.282 271.298 218.368 271.464 218.541 271.573C218.714 271.683 218.97 271.738 219.311 271.738ZM226.85 273.142C226.321 273.142 225.832 273.015 225.383 272.761C224.933 272.507 224.573 272.13 224.301 271.631C224.029 271.133 223.893 270.518 223.893 269.786C223.893 269.084 224.032 268.489 224.31 268.001C224.589 267.513 224.953 267.142 225.404 266.89C225.854 266.637 226.336 266.51 226.85 266.51C227.354 266.51 227.815 266.638 228.234 266.892C228.654 267.146 228.989 267.495 229.241 267.939C229.493 268.383 229.619 268.892 229.619 269.466C229.619 269.485 229.619 269.504 229.619 269.522C229.619 269.54 229.619 269.558 229.619 269.578L228.815 269.59C228.815 269.578 228.815 269.565 228.815 269.551C228.815 269.537 228.815 269.524 228.815 269.512C228.815 269.212 228.743 268.954 228.598 268.739C228.453 268.524 228.267 268.357 228.039 268.239C227.812 268.121 227.574 268.062 227.325 268.062C226.915 268.062 226.56 268.199 226.26 268.473C225.96 268.747 225.81 269.185 225.81 269.786C225.81 270.386 225.961 270.827 226.262 271.109C226.562 271.39 226.917 271.531 227.325 271.531C227.582 271.531 227.825 271.47 228.051 271.347C228.278 271.224 228.462 271.051 228.603 270.827C228.745 270.603 228.815 270.34 228.815 270.037L229.619 270.08C229.619 270.651 229.496 271.167 229.248 271.63C229.001 272.093 228.669 272.461 228.251 272.733C227.834 273.005 227.366 273.142 226.85 273.142ZM228.815 273V263.622H230.68V273H228.815ZM234.264 273.134C233.797 273.134 233.383 273.06 233.022 272.912C232.662 272.763 232.379 272.549 232.174 272.267C231.969 271.986 231.867 271.646 231.867 271.246C231.867 270.796 231.991 270.429 232.239 270.145C232.488 269.861 232.817 269.644 233.227 269.492C233.637 269.341 234.082 269.243 234.561 269.198C235.261 269.13 235.744 269.068 236.012 269.01C236.279 268.952 236.412 268.855 236.412 268.717C236.412 268.716 236.412 268.714 236.412 268.712C236.412 268.71 236.412 268.708 236.412 268.706C236.412 268.47 236.299 268.284 236.072 268.148C235.845 268.011 235.53 267.943 235.125 267.943C234.696 267.943 234.369 268.02 234.144 268.173C233.92 268.326 233.807 268.562 233.807 268.88H231.975C231.975 268.368 232.114 267.936 232.391 267.584C232.669 267.232 233.046 266.965 233.523 266.783C234.001 266.601 234.539 266.51 235.138 266.51C235.699 266.51 236.217 266.595 236.693 266.764C237.168 266.932 237.551 267.187 237.842 267.529C238.132 267.87 238.277 268.301 238.277 268.822C238.277 268.906 238.277 268.989 238.277 269.072C238.277 269.156 238.277 269.239 238.277 269.323V271.58C238.277 271.742 238.282 271.898 238.292 272.05C238.301 272.201 238.324 272.338 238.359 272.462C238.4 272.599 238.45 272.714 238.511 272.807C238.572 272.901 238.621 272.965 238.659 273H236.83C236.8 272.97 236.757 272.912 236.7 272.825C236.644 272.738 236.595 272.637 236.554 272.522C236.507 272.382 236.472 272.241 236.45 272.097C236.428 271.953 236.417 271.787 236.417 271.597L236.801 271.862C236.687 272.124 236.505 272.35 236.255 272.54C236.005 272.731 235.709 272.877 235.367 272.98C235.025 273.083 234.657 273.134 234.264 273.134ZM234.761 271.738C235.051 271.738 235.323 271.685 235.577 271.579C235.831 271.474 236.038 271.307 236.198 271.079C236.358 270.852 236.438 270.554 236.438 270.186V269.543L236.9 269.995C236.639 270.09 236.335 270.169 235.988 270.231C235.64 270.293 235.295 270.342 234.951 270.377C234.544 270.416 234.239 270.485 234.036 270.585C233.833 270.685 233.732 270.849 233.732 271.078C233.732 271.298 233.818 271.464 233.991 271.573C234.164 271.683 234.42 271.738 234.761 271.738Z" fill="#6B7280"/>
</g>
</g>
<defs>
<filter id="filter0_d_156_2175" x="0" y="0" width="296" height="340" filterUnits="userSpaceOnUse" color-interpolation-filters="sRGB">
<feFlood flood-opacity="0" result="BackgroundImageFix"/>
<feColorMatrix in="SourceAlpha" type="matrix" values="0 0 0 0 0 0 0 0 0 0 0 0 0 0 0 0 0 0 127 0" result="hardAlpha"/>
<feOffset dx="8" dy="8"/>
<feComposite in2="hardAlpha" operator="out"/>
<feColorMatrix type="matrix" values="0 0 0 0 0 0 0 0 0 0 0 0 0 0 0 0 0 0 1 0"/>
<feBlend mode="normal" in2="BackgroundImageFix" result="effect1_dropShadow_156_2175"/>
<feBlend mode="normal" in="SourceGraphic" in2="effect1_dropShadow_156_2175" result="shape"/>
</filter>
<filter id="filter1_d_156_2175" x="32" y="120" width="228" height="88" filterUnits="userSpaceOnUse" color-interpolation-filters="sRGB">
<feFlood flood-opacity="0" result="BackgroundImageFix"/>
<feColorMatrix in="SourceAlpha" type="matrix" values="0 0 0 0 0 0 0 0 0 0 0 0 0 0 0 0 0 0 127 0" result="hardAlpha"/>
<feOffset dx="4" dy="4"/>
<feComposite in2="hardAlpha" operator="out"/>
<feColorMatrix type="matrix" values="0 0 0 0 0 0 0 0 0 0 0 0 0 0 0 0 0 0 1 0"/>
<feBlend mode="normal" in2="BackgroundImageFix" result="effect1_dropShadow_156_2175"/>
<feBlend mode="normal" in="SourceGraphic" in2="effect1_dropShadow_156_2175" result="shape"/>
</filter>
<filter id="filter2_d_156_2175" x="32" y="220" width="228" height="84" filterUnits="userSpaceOnUse" color-interpolation-filters="sRGB">
<feFlood flood-opacity="0" result="BackgroundImageFix"/>
<feColorMatrix in="SourceAlpha" type="matrix" values="0 0 0 0 0 0 0 0 0 0 0 0 0 0 0 0 0 0 127 0" result="hardAlpha"/>
<feOffset dx="4" dy="4"/>
<feComposite in2="hardAlpha" operator="out"/>
<feColorMatrix type="matrix" values="0 0 0 0 0 0 0 0 0 0 0 0 0 0 0 0 0 0 1 0"/>
<feBlend mode="normal" in2="BackgroundImageFix" result="effect1_dropShadow_156_2175"/>
<feBlend mode="normal" in="SourceGraphic" in2="effect1_dropShadow_156_2175" result="shape"/>
</filter>
</defs>
</svg>
