<svg width="264" height="1505" viewBox="0 0 264 1505" fill="none" xmlns="http://www.w3.org/2000/svg">
<g filter="url(#filter0_d_156_2085)">
<mask id="path-1-inside-1_156_2085" fill="white">
<path d="M0 0H256V1505H0V0Z"/>
</mask>
<path d="M0 0H256V1505H0V0Z" fill="#0F172A" shape-rendering="crispEdges"/>
<path d="M256 0H252V1505H256H260V0H256Z" fill="black" mask="url(#path-1-inside-1_156_2085)"/>
<path d="M40 78L34 75.9L29.35 77.7C29.0167 77.8333 28.7083 77.7958 28.425 77.5875C28.1417 77.3792 28 77.1 28 76.75V62.75C28 62.5333 28.0625 62.3417 28.1875 62.175C28.3125 62.0083 28.4833 61.8833 28.7 61.8L34 60L40 62.1L44.65 60.3C44.9833 60.1667 45.2917 60.2042 45.575 60.4125C45.8583 60.6208 46 60.9 46 61.25V75.25C46 75.4667 45.9375 75.6583 45.8125 75.825C45.6875 75.9917 45.5167 76.1167 45.3 76.2L40 78V78M39 75.55V63.85L35 62.45V74.15L39 75.55V75.55M41 75.55L44 74.55V62.7L41 63.85V75.55V75.55M30 75.3L33 74.15V62.45L30 63.45V75.3V75.3M41 63.85V63.85V75.55V75.55V63.85V63.85M33 62.45V62.45V74.15V74.15V62.45V62.45" fill="#94A3B8"/>
<path d="M58.75 75V63.3594H63.7344L64.7812 67C64.8698 67.3125 64.9714 67.7266 65.0859 68.2422C65.2005 68.7578 65.3138 69.3112 65.4258 69.9023C65.5378 70.4935 65.6406 71.0612 65.7344 71.6055C65.8281 72.1497 65.901 72.6094 65.9531 72.9844H65.3672C65.4193 72.6094 65.4909 72.1497 65.582 71.6055C65.6732 71.0612 65.7747 70.4935 65.8867 69.9023C65.9987 69.3112 66.1107 68.7578 66.2227 68.2422C66.3346 67.7266 66.4349 67.3125 66.5234 67L67.5547 63.3594H72.5469V75H69.3594V70.5C69.3594 70.2344 69.3659 69.8815 69.3789 69.4414C69.3919 69.0013 69.4062 68.5182 69.4219 67.9922C69.4375 67.4661 69.4518 66.9375 69.4648 66.4062C69.4779 65.875 69.4844 65.3854 69.4844 64.9375H69.6641C69.5703 65.4323 69.4635 65.9466 69.3438 66.4805C69.224 67.0143 69.1016 67.5352 68.9766 68.043C68.8516 68.5508 68.7318 69.0169 68.6172 69.4414C68.5026 69.8659 68.4036 70.2188 68.3203 70.5L66.9688 75H64.3438L62.9688 70.5C62.8854 70.2188 62.7852 69.8659 62.668 69.4414C62.5508 69.0169 62.4271 68.5508 62.2969 68.043C62.1667 67.5352 62.0404 67.0143 61.918 66.4805C61.7956 65.9466 61.6849 65.4323 61.5859 64.9375H61.8125C61.8125 65.3854 61.819 65.875 61.832 66.4062C61.8451 66.9375 61.8594 67.4661 61.875 67.9922C61.8906 68.5182 61.9049 69.0013 61.918 69.4414C61.931 69.8815 61.9375 70.2344 61.9375 70.5V75H58.75ZM73.6562 75L77.4297 63.3594H81.7422L85.6562 75H82.0781L80.7266 70.4844C80.4349 69.5052 80.1615 68.4883 79.9062 67.4336C79.651 66.3789 79.4089 65.3307 79.1797 64.2891H79.8984C79.6797 65.3307 79.4583 66.3789 79.2344 67.4336C79.0104 68.4883 78.7578 69.5052 78.4766 70.4844L77.1875 75H73.6562ZM76.4531 72.7656V70.4062H82.8594V72.7656H76.4531ZM86.7656 75V63.3594H91.7812C92.6458 63.3594 93.4023 63.5299 94.0508 63.8711C94.6992 64.2122 95.2044 64.6927 95.5664 65.3125C95.9284 65.9323 96.1094 66.6562 96.1094 67.4844C96.1094 68.3177 95.9245 69.0378 95.5547 69.6445C95.1849 70.2513 94.6667 70.7201 94 71.0508C93.3333 71.3815 92.5573 71.5469 91.6719 71.5469H88.6719V69.0938H91.0312C91.4062 69.0938 91.7266 69.0273 91.9922 68.8945C92.2578 68.7617 92.4609 68.5755 92.6016 68.3359C92.7422 68.0964 92.8125 67.8125 92.8125 67.4844C92.8125 67.1458 92.7422 66.8581 92.6016 66.6211C92.4609 66.3841 92.2578 66.2031 91.9922 66.0781C91.7266 65.9531 91.4062 65.8906 91.0312 65.8906H89.9219V75H86.7656ZM95.4219 75L99.1953 63.3594H103.508L107.422 75H103.844L102.492 70.4844C102.201 69.5052 101.927 68.4883 101.672 67.4336C101.417 66.3789 101.174 65.3307 100.945 64.2891H101.664C101.445 65.3307 101.224 66.3789 101 67.4336C100.776 68.4883 100.523 69.5052 100.242 70.4844L98.9531 75H95.4219ZM98.2188 72.7656V70.4062H104.625V72.7656H98.2188Z" fill="#94A3B8"/>
<g filter="url(#filter1_d_156_2085)">
<rect x="15.5601" y="106.92" width="220" height="52" transform="rotate(-0.999999 15.5601 106.92)" fill="#2563EB" shape-rendering="crispEdges"/>
<rect x="16.5774" y="107.902" width="218" height="50" transform="rotate(-0.999999 16.5774 107.902)" stroke="black" stroke-width="2" shape-rendering="crispEdges"/>
<path d="M32.1859 142.635C31.636 142.645 31.1618 142.457 30.7634 142.073C30.3649 141.688 30.1609 141.22 30.1513 140.67L29.907 126.673C29.8974 126.123 30.085 125.649 30.4697 125.25C30.8545 124.852 31.3218 124.648 31.8718 124.638L36.0711 124.565C36.2773 123.961 36.6313 123.471 37.1331 123.096C37.635 122.72 38.2026 122.527 38.8358 122.516C39.469 122.505 40.043 122.678 40.5576 123.036C41.0723 123.394 41.4432 123.871 41.6703 124.467L45.8696 124.394C46.4195 124.384 46.8937 124.572 47.2922 124.956C47.6906 125.341 47.8946 125.809 47.9042 126.358L48.1486 140.356C48.1582 140.906 47.9706 141.38 47.5858 141.779C47.201 142.177 46.7337 142.381 46.1838 142.391L32.1859 142.635V142.635M32.151 140.636L46.1489 140.391V140.391V140.391L45.9045 126.393V126.393V126.393L31.9067 126.638V126.638V126.638L32.151 140.636V140.636V140.636V140.636M34.1158 138.601L41.1147 138.479L41.0798 136.479L34.0809 136.601L34.1158 138.601V138.601M34.046 134.602L44.0445 134.427L44.0096 132.427L34.0111 132.602L34.046 134.602V134.602M33.9762 130.602L43.9746 130.428L43.9397 128.428L33.9413 128.603L33.9762 130.602V130.602M38.8925 125.766C39.1091 125.762 39.287 125.688 39.4262 125.544C39.5654 125.4 39.6331 125.219 39.6293 125.003C39.6255 124.786 39.5516 124.608 39.4075 124.469C39.2633 124.33 39.083 124.262 38.8663 124.266C38.6497 124.27 38.4718 124.344 38.3326 124.488C38.1934 124.632 38.1258 124.812 38.1295 125.029C38.1333 125.246 38.2073 125.423 38.3514 125.563C38.4955 125.702 38.6759 125.769 38.8925 125.766V125.766M32.151 140.636V140.636V140.636L31.9067 126.638V126.638V126.638V126.638V126.638V126.638L32.151 140.636V140.636V140.636V140.636V140.636" fill="white"/>
<path d="M60.6556 126.5L64.5868 126.431L67.406 132.974L67.5423 132.971L70.1315 126.334L74.0627 126.266L74.2658 137.9L71.1753 137.954L71.0579 131.228L70.967 131.229L68.4923 137.91L66.629 137.943L63.9218 131.307L63.8309 131.309L63.9491 138.08L60.8587 138.134L60.6556 126.5ZM78.7182 126.184L78.9213 137.819L75.7627 137.874L75.5596 126.239L78.7182 126.184ZM86.5504 129.685C86.5135 129.306 86.3663 129.013 86.1088 128.806C85.8552 128.598 85.4727 128.499 84.9614 128.508C84.6357 128.513 84.3694 128.558 84.1625 128.641C83.9593 128.72 83.8096 128.827 83.7135 128.961C83.6173 129.095 83.5688 129.248 83.568 129.418C83.5629 129.559 83.5897 129.685 83.6485 129.798C83.711 129.906 83.8075 130.005 83.9378 130.094C84.0681 130.179 84.2342 130.255 84.4362 130.324C84.6382 130.392 84.8779 130.452 85.1554 130.504L86.1134 130.692C86.7596 130.817 87.3138 130.988 87.7759 131.203C88.2381 131.419 88.6176 131.675 88.9146 131.973C89.2114 132.267 89.4313 132.601 89.5742 132.973C89.7208 133.346 89.7999 133.753 89.8114 134.196C89.821 134.962 89.6411 135.613 89.2716 136.149C88.9021 136.686 88.3676 137.099 87.668 137.388C86.9721 137.676 86.1319 137.829 85.1472 137.847C84.136 137.864 83.2509 137.73 82.492 137.444C81.7369 137.158 81.1456 136.708 80.7182 136.094C80.2945 135.476 80.0722 134.681 80.0514 133.708L83.051 133.655C83.0761 134.011 83.1703 134.309 83.3336 134.548C83.4969 134.788 83.7236 134.968 84.0136 135.088C84.3074 135.207 84.655 135.264 85.0565 135.257C85.3936 135.251 85.675 135.204 85.9008 135.117C86.1266 135.03 86.2969 134.911 86.4117 134.762C86.5265 134.612 86.5842 134.442 86.5847 134.253C86.5778 134.075 86.5164 133.921 86.4004 133.79C86.2882 133.656 86.1043 133.538 85.8487 133.436C85.593 133.331 85.2485 133.234 84.8151 133.147L83.6518 132.917C82.6178 132.712 81.7989 132.353 81.1952 131.841C80.5951 131.325 80.2891 130.612 80.277 129.703C80.2603 128.965 80.446 128.315 80.834 127.756C81.2258 127.192 81.773 126.749 82.4758 126.426C83.1824 126.103 83.9959 125.933 84.9162 125.917C85.8555 125.901 86.6706 126.044 87.3616 126.346C88.0526 126.648 88.5886 127.082 88.9698 127.648C89.3546 128.209 89.5556 128.871 89.5727 129.632L86.5504 129.685ZM94.0284 125.917L94.2315 137.552L91.0729 137.607L90.8698 125.972L94.0284 125.917ZM106.898 131.512C106.92 132.807 106.688 133.904 106.2 134.803C105.711 135.698 105.043 136.382 104.195 136.855C103.347 137.324 102.397 137.568 101.344 137.587C100.284 137.605 99.3213 137.393 98.4574 136.949C97.5972 136.502 96.9075 135.84 96.3883 134.963C95.8729 134.081 95.6039 132.997 95.5814 131.709C95.5588 130.414 95.7897 129.319 96.2742 128.424C96.7624 127.525 97.4286 126.841 98.2728 126.371C99.1207 125.898 100.075 125.652 101.135 125.634C102.188 125.616 103.147 125.828 104.011 126.271C104.874 126.711 105.566 127.371 106.085 128.252C106.604 129.13 106.875 130.216 106.898 131.512ZM103.648 131.568C103.636 130.871 103.533 130.286 103.339 129.812C103.149 129.334 102.872 128.975 102.508 128.735C102.147 128.492 101.706 128.374 101.183 128.383C100.661 128.393 100.222 128.525 99.8662 128.782C99.5145 129.034 99.2501 129.402 99.0729 129.886C98.8994 130.367 98.8188 130.955 98.8309 131.652C98.8431 132.349 98.9443 132.937 99.1344 133.414C99.3284 133.888 99.6055 134.247 99.9659 134.491C100.33 134.731 100.773 134.846 101.296 134.837C101.819 134.828 102.256 134.697 102.608 134.445C102.963 134.189 103.227 133.82 103.401 133.34C103.578 132.856 103.661 132.265 103.648 131.568ZM118.324 125.493L118.527 137.128L115.892 137.174L111.581 131.134L111.513 131.135L111.619 137.248L108.461 137.303L108.258 125.669L110.939 125.622L115.181 131.64L115.272 131.638L115.166 125.548L118.324 125.493ZM120.022 137.102L119.819 125.467L128.204 125.321L128.248 127.866L123.022 127.957L123.056 129.957L127.851 129.873L127.896 132.418L123.101 132.502L123.136 134.501L128.34 134.41L128.384 136.956L120.022 137.102ZM136.105 128.82C136.068 128.441 135.921 128.148 135.664 127.941C135.41 127.733 135.028 127.634 134.516 127.643C134.191 127.648 133.924 127.693 133.717 127.776C133.514 127.855 133.365 127.962 133.268 128.096C133.172 128.23 133.124 128.383 133.123 128.553C133.118 128.694 133.145 128.82 133.203 128.933C133.266 129.041 133.362 129.14 133.493 129.229C133.623 129.314 133.789 129.39 133.991 129.459C134.193 129.527 134.433 129.587 134.71 129.639L135.668 129.827C136.315 129.952 136.869 130.123 137.331 130.338C137.793 130.554 138.173 130.81 138.47 131.108C138.766 131.402 138.986 131.736 139.129 132.108C139.276 132.481 139.355 132.888 139.366 133.332C139.376 134.097 139.196 134.748 138.827 135.284C138.457 135.821 137.923 136.234 137.223 136.523C136.527 136.812 135.687 136.964 134.702 136.982C133.691 136.999 132.806 136.865 132.047 136.579C131.292 136.293 130.701 135.843 130.273 135.229C129.849 134.611 129.627 133.816 129.606 132.843L132.606 132.79C132.631 133.146 132.725 133.444 132.889 133.683C133.052 133.923 133.279 134.103 133.569 134.223C133.862 134.342 134.21 134.399 134.611 134.392C134.949 134.386 135.23 134.339 135.456 134.252C135.682 134.165 135.852 134.046 135.967 133.897C136.081 133.747 136.139 133.577 136.14 133.388C136.133 133.21 136.071 133.056 135.955 132.925C135.843 132.791 135.659 132.673 135.404 132.571C135.148 132.466 134.803 132.369 134.37 132.282L133.207 132.052C132.173 131.847 131.354 131.488 130.75 130.976C130.15 130.46 129.844 129.747 129.832 128.838C129.815 128.1 130.001 127.45 130.389 126.891C130.781 126.327 131.328 125.884 132.031 125.561C132.737 125.238 133.551 125.068 134.471 125.052C135.41 125.036 136.226 125.179 136.917 125.481C137.608 125.783 138.144 126.217 138.525 126.783C138.91 127.344 139.111 128.006 139.128 128.767L136.105 128.82Z" fill="white"/>
</g>
<path d="M30 203C29.45 203 28.9792 202.804 28.5875 202.413C28.1958 202.021 28 201.55 28 201V189C28 188.067 28.2833 187.25 28.85 186.55C29.4167 185.85 30.1333 185.383 31 185.15V183H34V185H38V183H41V185.15C41.8667 185.383 42.5833 185.85 43.15 186.55C43.7167 187.25 44 188.067 44 189V201C44 201.55 43.8042 202.021 43.4125 202.413C43.0208 202.804 42.55 203 42 203H30V203M30 201H42V201V201V189C42 188.45 41.8042 187.979 41.4125 187.588C41.0208 187.196 40.55 187 40 187H32C31.45 187 30.9792 187.196 30.5875 187.588C30.1958 187.979 30 188.45 30 189V201V201V201V201M38.5 197H40.5V193H31.5V195H38.5V197V197M36 194V194V194V194V194V194V194V194V194V194V194V194V194V194" fill="#94A3B8"/>
<path d="M56.75 187.364H60.6818L63.3864 193.955H63.5227L66.2273 187.364H70.1591V199H67.0682V192.273H66.9773L64.3864 198.909H62.5227L59.9318 192.227H59.8409V199H56.75V187.364ZM82.929 193.182C82.929 194.477 82.6771 195.57 82.1733 196.46C81.6695 197.347 80.9896 198.019 80.1335 198.477C79.2775 198.932 78.3229 199.159 77.2699 199.159C76.2093 199.159 75.2509 198.93 74.3949 198.472C73.5426 198.009 72.8646 197.335 72.3608 196.449C71.8608 195.559 71.6108 194.47 71.6108 193.182C71.6108 191.886 71.8608 190.795 72.3608 189.909C72.8646 189.019 73.5426 188.347 74.3949 187.892C75.2509 187.434 76.2093 187.205 77.2699 187.205C78.3229 187.205 79.2775 187.434 80.1335 187.892C80.9896 188.347 81.6695 189.019 82.1733 189.909C82.6771 190.795 82.929 191.886 82.929 193.182ZM79.679 193.182C79.679 192.485 79.5862 191.898 79.4006 191.42C79.2188 190.939 78.9479 190.576 78.5881 190.33C78.232 190.08 77.7926 189.955 77.2699 189.955C76.7472 189.955 76.3059 190.08 75.946 190.33C75.59 190.576 75.3191 190.939 75.1335 191.42C74.9517 191.898 74.8608 192.485 74.8608 193.182C74.8608 193.879 74.9517 194.468 75.1335 194.949C75.3191 195.426 75.59 195.79 75.946 196.04C76.3059 196.286 76.7472 196.409 77.2699 196.409C77.7926 196.409 78.232 196.286 78.5881 196.04C78.9479 195.79 79.2188 195.426 79.4006 194.949C79.5862 194.468 79.679 193.879 79.679 193.182ZM95.2543 191.727H92.0497C92.027 191.462 91.9664 191.222 91.8679 191.006C91.7732 190.79 91.6406 190.604 91.4702 190.449C91.3035 190.29 91.1009 190.169 90.8622 190.085C90.6236 189.998 90.3527 189.955 90.0497 189.955C89.5194 189.955 89.0705 190.083 88.7031 190.341C88.3395 190.598 88.063 190.968 87.8736 191.449C87.688 191.93 87.5952 192.508 87.5952 193.182C87.5952 193.894 87.6899 194.491 87.8793 194.972C88.0724 195.449 88.3509 195.809 88.7145 196.051C89.0781 196.29 89.5156 196.409 90.027 196.409C90.3187 196.409 90.58 196.373 90.8111 196.301C91.0421 196.225 91.2429 196.117 91.4134 195.977C91.5838 195.837 91.7221 195.669 91.8281 195.472C91.938 195.271 92.0118 195.045 92.0497 194.795L95.2543 194.818C95.2164 195.311 95.0781 195.812 94.8395 196.324C94.6009 196.831 94.2618 197.301 93.8224 197.733C93.3868 198.161 92.8471 198.506 92.2031 198.767C91.5592 199.028 90.8111 199.159 89.9588 199.159C88.8906 199.159 87.9323 198.93 87.0838 198.472C86.2391 198.013 85.5705 197.339 85.0781 196.449C84.5895 195.559 84.3452 194.47 84.3452 193.182C84.3452 191.886 84.5952 190.795 85.0952 189.909C85.5952 189.019 86.2694 188.347 87.1179 187.892C87.9664 187.434 88.9134 187.205 89.9588 187.205C90.6937 187.205 91.3698 187.305 91.9872 187.506C92.6046 187.706 93.1463 188 93.6122 188.386C94.0781 188.769 94.4531 189.241 94.7372 189.801C95.0213 190.362 95.1937 191.004 95.2543 191.727ZM96.6875 199V187.364H99.8466V191.909H104.028V187.364H107.188V199H104.028V194.455H99.8466V199H96.6875ZM111.847 187.364V199H108.688V187.364H111.847ZM113.344 199V187.364H116.503V196.455H121.207V199H113.344ZM125.507 199H122.098L125.939 187.364H130.257L134.098 199H130.689L128.143 190.568H128.053L125.507 199ZM124.871 194.409H131.28V196.773H124.871V194.409Z" fill="#94A3B8"/>
<path d="M41 250.9V249.2C41.55 248.967 42.1125 248.792 42.6875 248.675C43.2625 248.558 43.8667 248.5 44.5 248.5C44.9333 248.5 45.3583 248.533 45.775 248.6C46.1917 248.667 46.6 248.75 47 248.85V250.45C46.6 250.3 46.1958 250.188 45.7875 250.113C45.3792 250.038 44.95 250 44.5 250C43.8667 250 43.2583 250.079 42.675 250.238C42.0917 250.396 41.5333 250.617 41 250.9V250.9M41 256.4V254.7C41.55 254.467 42.1125 254.292 42.6875 254.175C43.2625 254.058 43.8667 254 44.5 254C44.9333 254 45.3583 254.033 45.775 254.1C46.1917 254.167 46.6 254.25 47 254.35V255.95C46.6 255.8 46.1958 255.688 45.7875 255.613C45.3792 255.538 44.95 255.5 44.5 255.5C43.8667 255.5 43.2583 255.575 42.675 255.725C42.0917 255.875 41.5333 256.1 41 256.4V256.4M41 253.65V251.95C41.55 251.717 42.1125 251.542 42.6875 251.425C43.2625 251.308 43.8667 251.25 44.5 251.25C44.9333 251.25 45.3583 251.283 45.775 251.35C46.1917 251.417 46.6 251.5 47 251.6V253.2C46.6 253.05 46.1958 252.938 45.7875 252.863C45.3792 252.788 44.95 252.75 44.5 252.75C43.8667 252.75 43.2583 252.829 42.675 252.988C42.0917 253.146 41.5333 253.367 41 253.65V253.65M33.5 257C34.2833 257 35.0458 257.087 35.7875 257.262C36.5292 257.437 37.2667 257.7 38 258.05V248.2C37.3167 247.8 36.5917 247.5 35.825 247.3C35.0583 247.1 34.2833 247 33.5 247C32.9 247 32.3042 247.058 31.7125 247.175C31.1208 247.292 30.55 247.467 30 247.7V247.7V247.7V257.6V257.6V257.6C30.5833 257.4 31.1625 257.25 31.7375 257.15C32.3125 257.05 32.9 257 33.5 257V257M40 258.05C40.7333 257.7 41.4708 257.437 42.2125 257.262C42.9542 257.087 43.7167 257 44.5 257C45.1 257 45.6875 257.05 46.2625 257.15C46.8375 257.25 47.4167 257.4 48 257.6V257.6V257.6V247.7V247.7V247.7C47.45 247.467 46.8792 247.292 46.2875 247.175C45.6958 247.058 45.1 247 44.5 247C43.7167 247 42.9417 247.1 42.175 247.3C41.4083 247.5 40.6833 247.8 40 248.2V258.05V258.05M39 261C38.2 260.367 37.3333 259.875 36.4 259.525C35.4667 259.175 34.5 259 33.5 259C32.8 259 32.1125 259.092 31.4375 259.275C30.7625 259.458 30.1167 259.717 29.5 260.05C29.15 260.233 28.8125 260.225 28.4875 260.025C28.1625 259.825 28 259.533 28 259.15V247.1C28 246.917 28.0458 246.742 28.1375 246.575C28.2292 246.408 28.3667 246.283 28.55 246.2C29.3167 245.8 30.1167 245.5 30.95 245.3C31.7833 245.1 32.6333 245 33.5 245C34.4667 245 35.4125 245.125 36.3375 245.375C37.2625 245.625 38.15 246 39 246.5C39.85 246 40.7375 245.625 41.6625 245.375C42.5875 245.125 43.5333 245 44.5 245C45.3667 245 46.2167 245.1 47.05 245.3C47.8833 245.5 48.6833 245.8 49.45 246.2C49.6333 246.283 49.7708 246.408 49.8625 246.575C49.9542 246.742 50 246.917 50 247.1V259.15C50 259.533 49.8375 259.825 49.5125 260.025C49.1875 260.225 48.85 260.233 48.5 260.05C47.8833 259.717 47.2375 259.458 46.5625 259.275C45.8875 259.092 45.2 259 44.5 259C43.5 259 42.5333 259.175 41.6 259.525C40.6667 259.875 39.8 260.367 39 261V261M34 252.65V252.65V252.65V252.65V252.65V252.65V252.65V252.65V252.65V252.65V252.65V252.65V252.65V252.65V252.65V252.65" fill="#94A3B8"/>
<path d="M62.75 259V247.364H67.7955C68.6818 247.364 69.4261 247.483 70.0284 247.722C70.6345 247.96 71.0909 248.297 71.3977 248.733C71.7083 249.169 71.8636 249.682 71.8636 250.273C71.8636 250.701 71.7689 251.091 71.5795 251.443C71.3939 251.795 71.1326 252.091 70.7955 252.33C70.4583 252.564 70.0644 252.727 69.6136 252.818V252.932C70.1136 252.951 70.5682 253.078 70.9773 253.312C71.3864 253.544 71.7121 253.864 71.9545 254.273C72.197 254.678 72.3182 255.155 72.3182 255.705C72.3182 256.341 72.1515 256.907 71.8182 257.403C71.4886 257.9 71.0189 258.29 70.4091 258.574C69.7992 258.858 69.072 259 68.2273 259H62.75ZM65.9091 256.477H67.3864C67.9167 256.477 68.3144 256.379 68.5795 256.182C68.8447 255.981 68.9773 255.686 68.9773 255.295C68.9773 255.023 68.9148 254.792 68.7898 254.602C68.6648 254.413 68.4867 254.269 68.2557 254.17C68.0284 254.072 67.7538 254.023 67.4318 254.023H65.9091V256.477ZM65.9091 252.068H67.2045C67.4811 252.068 67.7254 252.025 67.9375 251.938C68.1496 251.85 68.3144 251.725 68.4318 251.562C68.553 251.396 68.6136 251.193 68.6136 250.955C68.6136 250.595 68.4848 250.32 68.2273 250.131C67.9697 249.938 67.6439 249.841 67.25 249.841H65.9091V252.068ZM76.5966 247.364V259H73.4375V247.364H76.5966ZM77.7756 249.909V247.364H87.8892V249.909H84.3892V259H81.2756V249.909H77.7756ZM90.6321 259H87.223L91.0639 247.364H95.3821L99.223 259H95.8139L93.2685 250.568H93.1776L90.6321 259ZM89.9957 254.409H96.4048V256.773H89.9957V254.409ZM92.1776 246.273L93.2685 243.727H95.9503L94.2457 246.273H92.1776ZM110.661 251.727H107.456C107.433 251.462 107.373 251.222 107.274 251.006C107.179 250.79 107.047 250.604 106.876 250.449C106.71 250.29 106.507 250.169 106.268 250.085C106.03 249.998 105.759 249.955 105.456 249.955C104.926 249.955 104.477 250.083 104.109 250.341C103.746 250.598 103.469 250.968 103.28 251.449C103.094 251.93 103.001 252.508 103.001 253.182C103.001 253.894 103.096 254.491 103.286 254.972C103.479 255.449 103.757 255.809 104.121 256.051C104.484 256.29 104.922 256.409 105.433 256.409C105.725 256.409 105.986 256.373 106.217 256.301C106.448 256.225 106.649 256.117 106.82 255.977C106.99 255.837 107.128 255.669 107.234 255.472C107.344 255.271 107.418 255.045 107.456 254.795L110.661 254.818C110.623 255.311 110.484 255.812 110.246 256.324C110.007 256.831 109.668 257.301 109.229 257.733C108.793 258.161 108.253 258.506 107.609 258.767C106.965 259.028 106.217 259.159 105.365 259.159C104.297 259.159 103.339 258.93 102.49 258.472C101.645 258.013 100.977 257.339 100.484 256.449C99.9957 255.559 99.7514 254.47 99.7514 253.182C99.7514 251.886 100.001 250.795 100.501 249.909C101.001 249.019 101.676 248.347 102.524 247.892C103.373 247.434 104.32 247.205 105.365 247.205C106.1 247.205 106.776 247.305 107.393 247.506C108.011 247.706 108.553 248 109.018 248.386C109.484 248.769 109.859 249.241 110.143 249.801C110.428 250.362 110.6 251.004 110.661 251.727ZM123.366 253.182C123.366 254.477 123.115 255.57 122.611 256.46C122.107 257.347 121.427 258.019 120.571 258.477C119.715 258.932 118.76 259.159 117.707 259.159C116.647 259.159 115.688 258.93 114.832 258.472C113.98 258.009 113.302 257.335 112.798 256.449C112.298 255.559 112.048 254.47 112.048 253.182C112.048 251.886 112.298 250.795 112.798 249.909C113.302 249.019 113.98 248.347 114.832 247.892C115.688 247.434 116.647 247.205 117.707 247.205C118.76 247.205 119.715 247.434 120.571 247.892C121.427 248.347 122.107 249.019 122.611 249.909C123.115 250.795 123.366 251.886 123.366 253.182ZM120.116 253.182C120.116 252.485 120.024 251.898 119.838 251.42C119.656 250.939 119.385 250.576 119.026 250.33C118.67 250.08 118.23 249.955 117.707 249.955C117.185 249.955 116.743 250.08 116.384 250.33C116.027 250.576 115.757 250.939 115.571 251.42C115.389 251.898 115.298 252.485 115.298 253.182C115.298 253.879 115.389 254.468 115.571 254.949C115.757 255.426 116.027 255.79 116.384 256.04C116.743 256.286 117.185 256.409 117.707 256.409C118.23 256.409 118.67 256.286 119.026 256.04C119.385 255.79 119.656 255.426 119.838 254.949C120.024 254.468 120.116 253.879 120.116 253.182ZM124.828 259V247.364H129.851C130.714 247.364 131.47 247.521 132.118 247.835C132.766 248.15 133.269 248.602 133.629 249.193C133.989 249.784 134.169 250.492 134.169 251.318C134.169 252.152 133.983 252.854 133.612 253.426C133.245 253.998 132.728 254.43 132.061 254.722C131.398 255.013 130.624 255.159 129.737 255.159H126.737V252.705H129.101C129.472 252.705 129.788 252.659 130.05 252.568C130.315 252.473 130.518 252.324 130.658 252.119C130.802 251.915 130.874 251.648 130.874 251.318C130.874 250.985 130.802 250.714 130.658 250.506C130.518 250.294 130.315 250.138 130.05 250.04C129.788 249.937 129.472 249.886 129.101 249.886H127.987V259H124.828ZM131.646 253.659L134.555 259H131.124L128.283 253.659H131.646ZM138.538 259H135.129L138.97 247.364H143.288L147.129 259H143.72L141.175 250.568H141.084L138.538 259ZM137.902 254.409H144.311V256.773H137.902V254.409Z" fill="#94A3B8"/>
</g>
<defs>
<filter id="filter0_d_156_2085" x="0" y="0" width="264" height="1505" filterUnits="userSpaceOnUse" color-interpolation-filters="sRGB">
<feFlood flood-opacity="0" result="BackgroundImageFix"/>
<feColorMatrix in="SourceAlpha" type="matrix" values="0 0 0 0 0 0 0 0 0 0 0 0 0 0 0 0 0 0 127 0" result="hardAlpha"/>
<feOffset dx="8"/>
<feComposite in2="hardAlpha" operator="out"/>
<feColorMatrix type="matrix" values="0 0 0 0 0 0 0 0 0 0 0 0 0 0 0 0 0 0 1 0"/>
<feBlend mode="normal" in2="BackgroundImageFix" result="effect1_dropShadow_156_2085"/>
<feBlend mode="normal" in="SourceGraphic" in2="effect1_dropShadow_156_2085" result="shape"/>
</filter>
<filter id="filter1_d_156_2085" x="15.5601" y="103.08" width="224.874" height="59.8318" filterUnits="userSpaceOnUse" color-interpolation-filters="sRGB">
<feFlood flood-opacity="0" result="BackgroundImageFix"/>
<feColorMatrix in="SourceAlpha" type="matrix" values="0 0 0 0 0 0 0 0 0 0 0 0 0 0 0 0 0 0 127 0" result="hardAlpha"/>
<feOffset dx="4" dy="4"/>
<feComposite in2="hardAlpha" operator="out"/>
<feColorMatrix type="matrix" values="0 0 0 0 0 0 0 0 0 0 0 0 0 0 0 0 0 0 1 0"/>
<feBlend mode="normal" in2="BackgroundImageFix" result="effect1_dropShadow_156_2085"/>
<feBlend mode="normal" in="SourceGraphic" in2="effect1_dropShadow_156_2085" result="shape"/>
</filter>
</defs>
</svg>
