<?xml version="1.0" encoding="UTF-8"?>
<svg id="Capa_2" data-name="Capa 2" xmlns="http://www.w3.org/2000/svg" viewBox="0 0 832.67 74.88">
  <defs>
    <style>
      .cls-1 {
        fill: #ea982a;
      }

      .cls-2 {
        fill: #2c2f38;
      }

      .cls-3 {
        fill: #959595;
      }

      .cls-4 {
        fill: #facd1a;
      }
    </style>
  </defs>
  <g id="Capa_1-2" data-name="Capa 1">
    <g>
      <g>
        <g>
          <polygon class="cls-2" points="817.35 2.77 818.53 3.3 820.25 3.29 817.35 2.77"/>
          <path class="cls-2" d="M822.27,5.01l-3.74-1.71-277.91,1.79c.01-.28-.03-.57-.17-.79-.26-.41-.91-.5-2.59-.59l-513.68.02L7.89,67.55h342.79c.27.73.86,1.27,1.59,1.27h465.69s0,0,0,0h-.44l.44-1.58v-.33h.09l8.94-58.39c.24-.87-5.47-3.5-4.72-3.5Z"/>
        </g>
        <path d="M830.54,2.73c-1.47-1.75-4.47-2.69-8.55-2.69L25.02,0c-5.75,0-9.48,2.88-10.38,6.5L.25,64.68c-1.21,4.89,1.97,9.25,8.34,10.2l582.49-.46h213.83v-.17h5.49c4.15,0,7.54-3.67,8.31-6.9l13.81-57.97c.56-2.33-.66-5.06-2-6.66ZM181.62,74.01c4.54-.05,9.08-.09,13.62-.14-4.68.41-9.19.37-13.62.14ZM811.79,56.58l2.18,1.21c.07,2.43-.17,4.51-.72,6.25.22-2.02.24-4.19.72-6.25l-2.92.28c-.47,3.12-1.29,6.08-2.47,8.87l-112.85.44-.08.19h-19.96l-.15-.19c-29.84.06-56.02.12-78.57.16-.01,0-.02.02-.03.03h-219.73c-23.43.01-46.86,0-70.29,0H9.8s.07-.25.07-.25c-.02,0-.05,0-.07,0,4.57-20.04,9.4-39.98,14.5-59.81h4.05s.01-.05.01-.05l555.49-.02c.74,0,1.48,0,2.22,0h27.66c.07,0,.12,0,.19,0,69.81.01,139.6.09,209.38.24l-11.51,48.89Z"/>
      </g>
      <polygon class="cls-3" points="510.63 7.44 24.18 7.46 7.89 67.34 502.49 67.36 510.63 7.44"/>
      <g>
        <polygon class="cls-4" points="16.8 34.6 506.94 34.6 510.63 7.44 24.18 7.46 16.8 34.6"/>
        <polygon class="cls-1" points="16.8 34.6 7.89 67.34 502.49 67.36 506.94 34.6 16.8 34.6"/>
      </g>
    </g>
  </g>
</svg>