<?xml version="1.0" encoding="UTF-8"?>
<svg id="Capa_2" data-name="Capa 2" xmlns="http://www.w3.org/2000/svg" viewBox="0 0 481 534.11">
  <defs>
    <style>
      .cls-1 {
        fill: #b6b6b6;
      }

      .cls-2 {
        fill: #010101;
      }

      .cls-3 {
        fill: #272727;
      }

      .cls-4 {
        fill: #020202;
      }

      .cls-5 {
        fill: #fdfdfd;
      }

      .cls-6 {
        fill: #d4d6db;
      }

      .cls-7 {
        fill: #060606;
      }

      .cls-8 {
        fill: #494949;
      }

      .cls-9 {
        fill: #cfd3d7;
      }

      .cls-10 {
        fill: #d4d7db;
      }

      .cls-11 {
        fill: #e3e3e3;
      }

      .cls-12 {
        fill: #6d6d6d;
      }

      .cls-13 {
        fill: #d0d3d7;
      }

      .cls-14 {
        fill: #fefefe;
      }

      .cls-15 {
        fill: #d1d3d7;
      }

      .cls-16 {
        fill: #080808;
      }

      .cls-17 {
        fill: #050505;
      }

      .cls-18 {
        fill: #898989;
      }
    </style>
  </defs>
  <g id="Capa_1-2" data-name="Capa 1">
    <g>
      <g>
        <path class="cls-7" d="M395.81,527.16c-.52,3.21.38,4.97-1.79,6.95l-394.02-.07,29.51-183.27L85.21.17l395.79-.17-4.66,28.93-37.7,233.05-42.84,265.18Z"/>
        <path class="cls-5" d="M390.74,529.15l-385.02.03,13.7-83.68L61.77,180.76l16.81-107.11L89.38,5.11h385.62s-11.1,67.76-11.1,67.76l-68,421.05c-1.89,11.69-4,22.99-5.17,35.24Z"/>
        <g>
          <path class="cls-17" d="M33.3,434.14c-1.4-.09-1.82-.23-2.15-.6-.31-.34-.4-.9-.29-1.65l7.66-51.34,34.32-234.04,190.06-24.59,190.28-23.85-25.49,160.74-24.57,153.72-241.98,14.19-127.83,7.44Z"/>
          <polygon class="cls-11" points="166.72 423.44 34.18 431.13 48.73 332.43 75.54 149.13 247.62 126.86 449.5 101.52 412.65 333.29 400.69 409.73 166.72 423.44"/>
        </g>
        <g>
          <path class="cls-17" d="M243.78,116.38l-122.15,14.67-50.5,5.94L91.81,11.76l171.62-1.7-16.51,103.51c-.25,1.7-1.01,2.43-3.14,2.8Z"/>
          <g>
            <path class="cls-1" d="M241.79,113.59l-111.24,13.35-55.79,6.52L94.28,14.85l165.46-1.77-15.02,95.83c-.19,2.16-.39,3.9-2.94,4.67Z"/>
            <g>
              <path class="cls-18" d="M236.42,114.28c-.16,0-.35-.48-.22-.51.14-.04.49-.11.62-.12l.59-.03c.14,0,.08-.41.12-.59-.05.24-1.92-1.24-2.41-2.21-.41-.82-.4-2.52,0-3.35s1.26-1.42,1.83-2.07c.53-.61,1.18-.86,1.96-.88h.49c.13-.01.07-.44.09-.57-.04.28-2.01-1.15-2.46-2.44-.29-.84-.37-2.29-.03-3.13.2-.5,2.72-3.4,3.82-2.89l.08-.59c-.04.28-2.18-1.28-2.6-2.45-.3-.85-.29-2.2-.02-3.01.32-.98,1.37-1.47,1.95-2.23.52-.69,1.56-.95,2.28-.83,1.43.24-1.59-1.45-2.25-2.86-.33-.7-.36-2.36-.04-3.08.52-1.17,1.72-2.09,2.66-2.89.29-.25.97-.08,1.26-.47-1.03-.88-2.18-1.63-2.64-2.92-.26-.74-.31-2.2.04-2.92.56-1.15,1.6-1.92,2.57-2.75.38-.32,2.81-.11,1.9-.77-.13-.09-.48-.17-.6-.28-.65-.63-1.54-1.28-1.93-2.13-.33-.73-.38-2.45,0-3.16.62-1.18,1.86-1.96,2.71-2.9.71-.11,1.15-.03,1.88-.44-1.62-.27-2.36-1.18-2.97-2.46-.4-.84-.86-1.79-.32-2.81l.74-1.38c.72-1.35,2.27-1.61,3.75-2.37-1.64-.45-2.49-1.58-3.11-3.03l-.22-.5c-.41-.97-1.22,1.6-2.32,1.82-.95.19-2.39.37-3.27-.07-.72-.36-1.62-1.35-2.01-2.1-.41-.79-.4-2.45,0-3.24.38-.73,1.3-1.76,2-2.09.93-.44,2.43-.27,3.38-.04.15.04,2.74,2.18,2.16,3.11l.77.14c.29-2.34,4.34-3.07,4.34-2.82v-.49c.01-.15-.44-.06-.59-.09-1.16-.19-1.57-1.38-2.06-2.13-.76-1.16-.77-2.28-.05-3.41.6-.94,1.04-2.15,2.46-2.33.47-.49.96-.54,1.83-.95-1.63-.11-2.22-1.24-2.91-2.33-.72-1.14-.86-2.22-.15-3.4.81-1.34,1.78-2.56,3.6-2.78l.04-.91c-1.19.16-1.1-.83-1.53-1.43-.64-.9-1.19-2.37.04-3.19-.16-2.35,5.07-3.35,3.88-3.56l-.59-.1-.49-.08c-.14-.02-.14-.56.02-.56.93-.04,2.59-.07,3.6-.03.28.01.29.9.13,1.11-.25.32-2.56.4-1.27.73.12.03.64.06.64.18.16,6.34-.45,2.64-.7,4.18-.18,1.11.36,2.66-.07,3.7-.34.85-.85,1.48-.52,2.56.29.95-.11,1.51-.59,2.22s.46,2.59-.44,3.71c-.22.27-1.02.41-1.37.37-.15-.02-.25.63-.1.63l1.23.04c.32,4.12-1.04,3.01-.73,4.85.56,3.32-.99,1.5-.49,3.64l-1.76.03c-2.78.05,2.56.39,1.57,2.24-.13.24-.61.52-.65.85-.12,1.15.41,2.44-.03,3.47l-.79,1.82c-.29.67-1.16.41-1.76.94l1.99.92c.14.06.13.63-.02.66s-.57.1-.6.24c-.26,1.03.27,2.89-.08,3.93-.22.63-.88.78-.63,1.63.29.99-1.11,1.31-1.31,1.45-.11.08-.05.54.08.54l.7.02-.06,4.02c0,.3-.51.72-.69.97-.04.99.13,2.4-.03,3.22-.07.37-1.09.22-1.42.27l-.47.06c-.14.02.04.49.22.53.73.15,1.18,1.1,1.16,1.96-.06,3.62-.97.04-.66,4.54.08,1.18-.63,1.94-1.72,1.97-.13,0-.44.17-.4.28.25.69,1.52.35,1.52,2.11,0,.83-.27,1.28-.68,1.93-.68,1.09.89,1.98-1.03,4.58-.22.3-1.19.13-1.55.17-1.25.15,1.32,1.05,1.88,2.35.28.64-.55.84-.63,1.28-.19,1.13-.03,2.29.03,3.48l-.76-.04c-.04.6-.07,1.18-.36,1.55-.32.4-.93.46-1.61.46l-.04.57c.34.15,1.42.53,1.41.95-.05,1.46.18,3.11-.13,4.5-.15.67-.73,1.09-.67,2.04.06.79-1.43,1.05-2.05,1.06h-.4c-.11.01-.11.47-.02.52.59.32,1.76.91,1.87,1.86.51,4.43-.31,2.04-.67,4.94-.11.93-3.02,2.41-3.38,2.4l-2.8-.06Z"/>
              <path class="cls-18" d="M234.09,101.75c-.98.45-2.56.41-3.52.02-.69-.28-1.65-1.36-1.97-2.06-.37-.83-.4-2.52.02-3.34.33-.66,1.37-1.74,2.05-2.01.86-.34,2.42-.37,3.28-.01.69.29,1.73,1.35,2.07,2.03.42.84.38,2.51.02,3.35-.29.68-1.24,1.71-1.94,2.03Z"/>
              <path class="cls-18" d="M232.07,110.85c-.85.43-2.54.42-3.36.02-.76-.37-1.7-1.37-2.07-2.07-.53-.99-.02-2.19-.16-3.25,2.73-2.89,1.37-2.23,5.62-2.28l2.15,2.3c-.14,1.04.36,2.26-.15,3.24-.35.67-1.24,1.63-2.04,2.04Z"/>
              <path class="cls-18" d="M240.58,66.34c-1.21-.13-2.43.35-3.5-.19-.63-.32-1.58-1.27-1.94-1.99-.43-.86-.47-2.66,0-3.49.37-.65,1.23-1.51,1.88-1.88.84-.47,2.64-.45,3.5-.01.7.36,1.68,1.29,1.99,1.97.4.88.33,2.47.04,3.33-.32.95-1.43,1.3-1.98,2.27Z"/>
              <path class="cls-18" d="M235.42,93.57c-1.2-.17-2.44.4-3.5-.17-.66-.35-1.71-1.35-2.04-2.08-.39-.87-.37-2.47,0-3.34.3-.69,1.28-1.61,1.98-1.96.87-.43,2.66-.48,3.5,0,.66.38,1.5,1.23,1.89,1.88.5.83.35,2.52.07,3.41-.3.97-1.41,1.25-1.91,2.27Z"/>
              <path class="cls-18" d="M237.31,84.2c-.88.48-2.72.51-3.54.02-.67-.4-1.56-1.29-1.92-1.97-.42-.78-.4-2.53,0-3.32.36-.72,1.3-1.75,2-2.07.87-.4,2.48-.39,3.34-.02.72.31,1.69,1.27,2.04,1.99.44.88.39,2.49.03,3.44-.25.66-1.22,1.53-1.95,1.93Z"/>
              <path class="cls-18" d="M238.71,75.4h-3.57c-.59-.83-1.61-1.25-2-2.21-.35-.85-.36-2.51,0-3.36.41-.95,1.39-1.38,2.02-2.21,1.1.16,2.4-.4,3.43.18.66.37,1.61,1.37,1.97,2.09.41.83.33,2.4.04,3.2-.35.95-1.4,1.3-1.89,2.3Z"/>
              <path class="cls-18" d="M245,38.9c-.84.43-2.71.45-3.44-.01-.67-.42-1.47-1.3-1.9-1.98-.48-.75-.47-2.7,0-3.46.4-.65,1.24-1.52,1.88-1.9.8-.47,2.54-.43,3.41-.05.73.32,1.78,1.29,2.07,2,.38.9.4,2.47,0,3.36-.3.67-1.29,1.65-2.03,2.03Z"/>
              <path class="cls-18" d="M241.93,57.16c-1.22-.04-2.51.46-3.58-.16-.63-.37-1.64-1.25-1.97-1.97-.37-.79-.41-2.54,0-3.32.38-.73,1.36-1.74,2.08-2.08.81-.38,2.45-.39,3.25,0,.72.35,1.71,1.36,2.09,2.08.43.83.31,2.51.03,3.32-.32.91-1.4,1.19-1.9,2.14Z"/>
              <path class="cls-18" d="M248.35,20.95c-1.18-.17-2.46.38-3.5-.19-.64-.35-1.57-1.3-1.93-2.01-.44-.86-.44-2.54,0-3.4.36-.71,1.3-1.65,1.94-2,1.03-.56,2.33-.04,3.43-.19.61.84,1.46,1.29,1.95,2.17s.42,2.47.05,3.36c-.39.94-1.36,1.27-1.93,2.26Z"/>
              <path class="cls-18" d="M246.44,29.75c-.8.52-2.57.42-3.42.07-.75-.31-1.69-1.24-2.04-1.97-.44-.91-.44-2.49,0-3.39.36-.75,1.24-1.64,1.99-2.01.83-.41,2.43-.45,3.32-.02.7.34,1.66,1.34,2.03,2.06.42.8.43,2.65-.02,3.38-.41.66-1.18,1.42-1.87,1.88Z"/>
              <path class="cls-18" d="M223.96,100.28c-.22.06-.57.43-.75.42s-.5-.33-.71-.4c-1.32-.45-2.39-1.45-2.79-2.81-.06-.2-.36-.52-.36-.71s.29-.5.35-.71c.42-1.35,1.48-2.36,2.8-2.79.21-.07.52-.41.71-.42s.52.37.73.43c2.66.74,3.05,3.79,3.24,3.49l-.43.73c-.68,1.15-1.32,2.34-2.78,2.77Z"/>
              <path class="cls-18" d="M237.92,28.05c-1.11.02-2.37.15-3.35-.09-.53-.13-1.38-.98-1.5-1.5-.22-.96-.21-2.36,0-3.25.13-.54.98-1.39,1.52-1.52.87-.2,2.3-.22,3.24,0,.52.12,1.38.98,1.5,1.49.22.98.22,2.29.01,3.27-.13.62-.95,1.07-1.42,1.59Z"/>
              <path class="cls-18" d="M226.12,90.86c-.97.2-2.35.22-3.24,0-.49-.13-1.3-.95-1.45-1.42-.3-.94-.27-2.47,0-3.34.15-.49.9-1.34,1.38-1.49.93-.31,2.51-.31,3.45,0,.47.15,1.22,1,1.37,1.48.28.91.26,2.47,0,3.34-.15.49-1,1.34-1.52,1.45Z"/>
              <path class="cls-18" d="M223.08,108.95c-1,.37-2.51.36-3.42.02-.48-.18-1.31-.98-1.49-1.45-.37-1.01-.12-2.35-.11-3.43.52-.4.99-1.13,1.6-1.33.92-.31,2.45-.27,3.34.01.49.16,1.3.99,1.43,1.47.23.84.23,2.33,0,3.16-.13.47-.89,1.37-1.37,1.55Z"/>
              <path class="cls-18" d="M231.45,63.55c-.93.37-2.53.31-3.38.04-.5-.16-1.3-.99-1.47-1.47-.3-.84-.28-2.31,0-3.2.16-.5.94-1.39,1.45-1.55.9-.29,2.45-.3,3.37,0,.5.17,1.29,1.08,1.44,1.58.25.87.28,2.29,0,3.15-.14.45-.89,1.24-1.41,1.45Z"/>
              <path class="cls-18" d="M232.74,54.5c-.98.35-2.56.33-3.41.03-.51-.19-1.3-1.07-1.46-1.59-.27-.85-.29-2.32.01-3.13.17-.48.95-1.32,1.44-1.48.9-.3,2.44-.33,3.35,0,.47.17,1.28.98,1.44,1.45.3.85.28,2.34.02,3.19-.15.48-.91,1.36-1.4,1.54Z"/>
              <path class="cls-18" d="M228.21,81.73c-1.02.36-2.47.3-3.41.03-.53-.15-1.3-1.08-1.44-1.59-.25-.95-.26-2.36.04-3.23.16-.46.94-1.25,1.4-1.4.92-.29,2.44-.3,3.37,0,.46.14,1.22.96,1.39,1.4.34.88.26,2.31.05,3.23-.11.49-.88,1.39-1.39,1.57Z"/>
              <path class="cls-18" d="M234.72,45.38c-.95.37-2.38.32-3.27.07-.54-.15-1.47-.91-1.62-1.43-.29-1-.26-2.42,0-3.37.14-.52,1.08-1.29,1.61-1.44.92-.26,2.35-.28,3.22.04.46.17,1.26.94,1.41,1.41.28.87.26,2.48,0,3.35-.13.44-.92,1.2-1.36,1.37Z"/>
              <path class="cls-18" d="M229.37,72.65c-1.02.3-2.42.28-3.29-.01-.46-.16-1.26-.94-1.41-1.4-.29-.9-.28-2.45,0-3.36.14-.45.95-1.23,1.4-1.39.9-.31,2.29-.31,3.24-.05.51.14,1.44.92,1.6,1.43.29.97.27,2.42,0,3.37-.14.48-1.03,1.26-1.54,1.41Z"/>
              <path class="cls-18" d="M235.99,36.33c-.98.36-2.51.3-3.41.03-.47-.14-1.24-.95-1.41-1.42-.3-.84-.35-2.29-.02-3.21.18-.49.9-1.44,1.42-1.6.96-.29,2.42-.29,3.37,0,.52.16,1.3,1.08,1.44,1.6.26.94.27,2.36-.03,3.22-.15.43-.91,1.21-1.36,1.38Z"/>
              <path class="cls-18" d="M239.16,18.84c-.95.37-2.31.31-3.26.02-.51-.15-1.28-1.02-1.52-1.5s-.34-3.01.2-3.67c.33-.4.88-.55,1.42-.55h3.04c.93,0,1.74.51,1.73,1.56,0,.76.15,1.87-.12,2.63-.17.47-.97,1.31-1.49,1.51Z"/>
              <path class="cls-18" d="M226.02,43.18c-.75.73-1.13,1.26-2.19,1.22-.88-.04-1.41-.53-2.08-1.21s-1.18-1.2-1.21-2.08c-.04-1.07.49-1.44,1.18-2.15.64-.66,1.24-1.2,2.13-1.24.99-.04,1.49.53,2.17,1.21s1.18,1.13,1.2,2.02c.02.95-.49,1.55-1.2,2.24Z"/>
              <path class="cls-18" d="M223.93,59c.15,1.52-1.95,3.48-3.21,3.51-.95.03-1.54-.48-2.19-1.16s-1.21-1.25-1.17-2.21c.06-1.36,1.91-3.26,3.21-3.31,1.48-.05,3.25,1.98,3.37,3.17Z"/>
              <path class="cls-18" d="M216.33,97.61c-.72.72-1.23,1.21-2.13,1.24-1.1.04-1.5-.54-2.23-1.28-.62-.63-1.09-1.18-1.14-2.02-.06-.99.48-1.4,1.11-2.08s1.14-1.3,2.1-1.31,1.58.54,2.27,1.24c.65.65,1.18,1.08,1.2,1.99.03.97-.47,1.5-1.19,2.22Z"/>
              <path class="cls-18" d="M214.42,105.97c-.74.7-1.15,1.3-2.1,1.31-1.01.01-1.56-.51-2.26-1.23s-1.18-1.18-1.21-2.08c-.03-1.09.55-1.5,1.29-2.23.63-.62,1.17-1.1,2.01-1.14.98-.05,1.41.47,2.08,1.11s1.26,1.1,1.31,1.95c.05.98-.4,1.62-1.12,2.31Z"/>
              <path class="cls-18" d="M217.71,88.4c-.7.72-1.17,1.36-2.14,1.35s-1.55-.49-2.2-1.17-1.26-1.11-1.28-2.06c-.02-1.01.52-1.55,1.24-2.26.67-.67,1.21-1.16,2.09-1.2,1.09-.05,1.5.54,2.23,1.29.57.59,1.06,1.14,1.13,1.84.11,1.07-.37,1.5-1.06,2.21Z"/>
              <path class="cls-18" d="M219.67,79.34c-.71.77-1.29,1.28-2.21,1.32-1.06.05-1.5-.52-2.22-1.25-.61-.61-1.16-1.21-1.16-2.08s.54-1.47,1.16-2.08c.73-.72,1.17-1.29,2.23-1.24.92.04,1.49.55,2.17,1.28.57.61,1.07,1.11,1.12,1.87.07.99-.42,1.46-1.08,2.17Z"/>
              <path class="cls-18" d="M220.86,70.38c-.72.68-1.24,1.23-2.16,1.24s-1.43-.56-2.11-1.21-1.17-1.23-1.21-2.09c-.05-1.02.48-1.46,1.17-2.15.64-.64,1.24-1.23,2.15-1.23s1.5.59,2.15,1.23,1.16,1.1,1.17,1.99c.01.94-.43,1.53-1.17,2.22Z"/>
              <path class="cls-18" d="M214.24,112.97c.02,1.68-2.29,3.35-3.32,3.34-1.12,0-3.26-1.72-3.32-3.17-.05-1.09.53-1.63,1.29-2.35.64-.61,1.15-1.13,2.04-1.15s1.37.54,2.03,1.15c.73.68,1.27,1.23,1.29,2.19Z"/>
              <path class="cls-18" d="M219.23,116.17c-.71.83-1.61.94-2.58.72.41-.88-.03-1.29-.55-1.75-.47-.41.46-.71.52-.98.57-2.77,3.78-2.97,3.36-3.1,1.54.46,2.84,1.29,3.5,2.93.21.53.54.93.24,1.45-.28.48-.68.87-1.31.84l-3.18-.12Z"/>
              <path class="cls-18" d="M224.19,52.12c-.73.77-1.28,1.3-2.22,1.32-1.05.03-1.52-.52-2.22-1.28-.59-.63-1.13-1.18-1.13-2.04s.55-1.41,1.13-2.04c.7-.76,1.16-1.31,2.22-1.28.93.03,1.49.56,2.18,1.28.58.6,1.08,1.13,1.14,1.88.08.99-.44,1.47-1.1,2.17Z"/>
              <path class="cls-18" d="M226.16,34.79l-.96.52c-.23.12-.67-.53-.94-.58-.99-.18-1.35-1.11-1.83-1.82l-.58-.87c-.14-.21.45-.74.52-1.02.25-1,.89-1.54,1.89-1.79.26-.07.7-.63.97-.61s.73.55,1.05.61c.78.15,1.46.81,1.63,1.67.06.3.62.74.63,1.02s-.55.69-.64.97c-.27.91-.78,1.38-1.74,1.89Z"/>
              <path class="cls-18" d="M228.28,25.69c-.99.5-1.38.45-2.3.02-.86-.39-1.38-1.05-1.63-1.93-.07-.26-.54-.68-.59-.91-.06-.27.63-.64.68-.95.12-.79.66-1.45,1.44-1.81.96-.44,1.38-.57,2.34-.06.79.42,1.28.92,1.71,1.72.49.91.5,1.32,0,2.23-.42.74-.84,1.28-1.65,1.69Z"/>
              <path class="cls-18" d="M202.34,104.87c-.85-.68-1.22-1.31-1.24-2.16-.03-1.02.37-1.58,1.21-2.3,1.01-.86,2.58-.53,3.45.4s.94,2.57.07,3.56-2.39,1.38-3.49.51Z"/>
              <path class="cls-18" d="M214.99,49.72c-.71.73-1.19,1.14-2.03,1.16-.98.03-1.45-.4-2.16-1.11-.84-.84-.85-2.37,0-3.21.67-.67,1.14-1.09,1.99-1.11.98-.03,1.44.4,2.16,1.11.79.79.87,2.3.04,3.15Z"/>
              <path class="cls-18" d="M209.81,73.23c.72.65,1.17,1.31,1.2,2.09.03.91-.45,1.52-1.17,2.22-.96.94-2.58.65-3.4-.27-.98-1.08-1.07-2.44-.14-3.58.81-1,2.39-1.47,3.51-.46Z"/>
              <path class="cls-18" d="M207.27,92.03c.95,1,.56,2.63-.36,3.44-1.11.97-2.51.97-3.64,0-.95-.81-1.28-2.51-.32-3.49.67-.67,1.26-1.11,2.06-1.13.92-.03,1.53.4,2.26,1.18Z"/>
              <path class="cls-18" d="M200.65,109.34c1.49-.72,2.96-.11,3.62,1.25s.08,2.78-1.27,3.53c-1.26.69-2.75.09-3.55-1.26-.66-1.13-.18-2.85,1.2-3.52Z"/>
              <path class="cls-18" d="M208.21,68.5c-.82-.66-1.26-1.32-1.27-2.19-.01-.93.46-1.48,1.23-2.16,1.02-.89,2.5-.57,3.38.33.93.95,1.02,2.45.15,3.48s-2.34,1.46-3.49.54Z"/>
              <path class="cls-18" d="M220.13,20.01c1.01,1.04.72,2.6-.24,3.51-1.01.96-2.52,1.03-3.56.08s-1.35-2.47-.35-3.56c.6-.66,1.2-1.07,1.95-1.12.96-.07,1.46.33,2.2,1.09Z"/>
              <path class="cls-18" d="M218.21,32.2c-.74.78-1.21,1.18-2.15,1.17s-1.38-.39-2.07-1.14c-.74-.82-.74-2.31,0-3.13.68-.75,1.18-1.12,2.06-1.14.97-.02,1.39.42,2.11,1.13.8.78.86,2.26.05,3.11Z"/>
              <path class="cls-18" d="M208.59,85.94c-.68.84-1.29,1.22-2.18,1.23-.96.01-1.5-.41-2.18-1.19-.89-1.03-.57-2.5.34-3.38,1-.97,2.44-1.07,3.49-.15,1,.87,1.46,2.34.53,3.5Z"/>
              <path class="cls-18" d="M213.82,58.62c-.64.84-1.28,1.29-2.1,1.32-1.05.04-1.61-.35-2.32-1.18-.98-1.16-.53-2.81.74-3.73,1.05-.76,2.36-.51,3.24.34s1.25,2.19.44,3.25Z"/>
              <path class="cls-18" d="M216.96,40.61c-.74.78-1.24,1.16-2.14,1.16s-1.4-.39-2.1-1.11c-.81-.83-.82-2.36,0-3.17.72-.7,1.17-1.1,2.1-1.1s1.38.39,2.1,1.1c.77.76.83,2.28.05,3.11Z"/>
              <path class="cls-18" d="M229.53,16.55c-.29.06-.79.53-1.05.6-.35.09-.78-.56-1.11-.61-1.67-.27-2.52-3.27-2.06-3.3,2.05-.14,4.19-.15,6.23,0,.54.04-.15,1.28-.33,1.68-.27.62-.7,1.43-1.68,1.63Z"/>
              <path class="cls-18" d="M230.19,114.93l-1.02.65c.19-.12-5.95.64-3.78-1.27.57-.5,1.32-1.54,2.13-1.82.93-.33,2.27-.27,3.18-.03.81.22,1.11,1.3,1.83,1.61l.43.18c.13.06.03.71-.11.71l-2.66-.03Z"/>
              <path class="cls-18" d="M201.25,76.16c-.82-.65-1.44.55-2.03.49-.65-.06-1.01-1.12-2.08-.49.88-1.07-.53-1.52-.51-2.15.02-.48,1.33-.93.51-1.87,1.39.57,2.26-1.48,2.49-.55.17.71,1.17.39,1.41.69.34.42.05,1.43,1.12,1.76l-.9.8c-.21.18-.05.84-.02,1.31Z"/>
              <path class="cls-18" d="M197.89,85.71c-.61.03-1.22-1.05-1.93-.46.29-1.98-.4-1.15-.67-2.02-.2-.64,1.09-.27.67-2.04.73.16,1.29-.15,1.86-.69.53.32,1.49.61,1.88,1,.29.29.71,1.16.74,1.57.04.49-.43,1.47-.79,1.8s-1.3.81-1.76.83Z"/>
              <path class="cls-18" d="M198.05,94.24c-1.05-.33-1.42.16-1.99.78l-1.71-1.12c-.43-.28-.55-1.26-1.12-1.68.74-.61,1.08-1.08.82-2,.87.54,1.46-.62,1.97-.53.67.11,1.06,1.09,2.12.45-.7,1.03.38,1.46.43,2.1.05.57-1.09,1.2-.51,2Z"/>
              <path class="cls-18" d="M196.72,103.37c-.79-.56-1.44.57-2.03.51-.64-.07-1.05-1.13-2.09-.44.65-1.06-.34-1.46-.44-2.12-.08-.51,1.09-1.09.52-1.97.94.28,1.4-.09,2-.8l1.68,1.11,1.13,1.72c-.65.55-1.09.94-.77,1.99Z"/>
              <path class="cls-18" d="M194.74,111.69c-1.69-.27-1.44.91-2.01.73-.82-.26-.13-.94-1.9-.73.03-.63-.19-1.22-.66-1.84,1.25-2.53.13-1.44,2.69-2.72.64.48,1.21.7,1.89.65-.28,1.63.47,1.21.7,1.94.19.59-1.09.35-.71,1.97Z"/>
              <path class="cls-18" d="M203.98,57.55c-.69.67-2.22.59-2.91.03-.89-.72-.88-2.55,0-3.27.71-.57,2.19-.62,2.88,0,.76.68.81,2.47.02,3.24Z"/>
              <path class="cls-18" d="M210.65,21.03c-.73.95-2.59.91-3.3.04-.6-.73-.59-2.27.09-2.95s2.4-.7,3.11,0c.63.63.69,2.15.11,2.91Z"/>
              <path class="cls-18" d="M202.19,66.51c-.47.7-2.53.67-3.19.12-.6-.5-.71-2.45,0-3.17.66-.66,2.59-.66,3.13.03.58.75.56,2.28.06,3.02Z"/>
              <path class="cls-18" d="M207.37,39.32c-.5.6-2.58.68-3.19.04-.58-.6-.62-2.33,0-3.1.52-.67,2.45-.7,3.12-.03s.59,2.48.08,3.1Z"/>
              <path class="cls-18" d="M208.57,30.25c-.74.76-2.44.7-3.11-.04s-.66-2.29,0-2.98c.72-.77,2.44-.77,3.15,0,.64.7.67,2.29-.04,3.02Z"/>
              <path class="cls-18" d="M205.26,48.42c-.82.76-2.4.72-3.08-.11-.59-.73-.61-2.29.07-2.97s2.24-.67,2.96-.07c.86.71.88,2.37.04,3.15Z"/>
              <path class="cls-18" d="M193.02,119.48l-1.19-.05c-.22,0-.28.46-.53.64-.4.29-1.33.17-1.71-.08-.35-.23-1.02-1.11-.61-1.38.47-.31.28-1.35.7-1.52l1.8-.78c.48-.21,1.23,1.32,1.98.43-.34,1.99.91,1.32.69,2.28-.11.48-.56.48-1.13.46Z"/>
              <path class="cls-18" d="M190.13,82.95c-.51.44-1.8.43-2.34.08-1.25-.82-1.24-2.78-.01-3.59.63-.41,1.56-.22,2.29-.05.95.89,1.2,2.58.06,3.56Z"/>
              <path class="cls-18" d="M186.94,92.3c-.56-.02-1.18-.13-1.5-.44-.68-.65-.73-2.34,0-3.07.64-.65,2.27-.72,3,.07.36.39.5,1.02.48,1.58-.02,1.14-.72,1.89-1.97,1.85Z"/>
              <path class="cls-18" d="M193.7,64.56c-.55.65-2.25.7-2.99.1-.31-.26-.51-.9-.56-1.39-.12-1.24.64-2.16,1.89-2.19.53-.01,1.15.11,1.5.42.81.72.79,2.34.17,3.07Z"/>
              <path class="cls-18" d="M198.17,29.44c-.69.03-1.41-.12-1.77-.53-.42-.47-.46-1.24-.4-1.92.1-1.2,1.1-1.59,2.15-1.54s1.77.77,1.82,1.81c.06,1.1-.44,2.13-1.8,2.18Z"/>
              <path class="cls-18" d="M201.31,16.74c.88.71.83,2.41.07,3.09-.84.75-2.22.63-2.89,0-.76-.73-.73-2.08-.17-2.83.61-.8,2.12-.96,2.99-.26Z"/>
              <path class="cls-18" d="M181.54,119.41c-.96-.25-1.13-1.13-1.13-1.92s.29-1.59,1.13-1.84c.91-.27,1.93-.12,2.45.55s.54,1.76.17,2.47c-.45.88-1.6,1.01-2.62.75Z"/>
              <path class="cls-18" d="M189.16,73.97c-.77-.32-.96-1.09-.97-1.76s.12-1.49.83-1.8c.87-.38,2.06-.4,2.72.34.55.62.64,1.86.11,2.66s-1.67.99-2.69.57Z"/>
              <path class="cls-18" d="M193.54,47.28c-1.19-.65-1.18-2.84-.03-3.44.93-.49,2.23-.4,2.8.39.5.69.57,1.9-.03,2.67-.53.68-1.73.94-2.74.39Z"/>
              <path class="cls-18" d="M182.58,106.7c1.07-.59,2.34-.33,2.88.65s.37,2.32-.66,2.88c-.93.51-2.22.36-2.82-.57s-.49-2.35.6-2.96Z"/>
              <path class="cls-18" d="M194.62,55.85c-.8.21-1.59.21-2.35.01-1.13-1.05-1.13-2.67,0-3.72.76-.19,1.54-.2,2.3,0,1.11,1.03,1.15,2.57.05,3.71Z"/>
              <path class="cls-18" d="M195.49,34.81c1.04-.57,2.5-.41,2.94.6.39.9.38,2.35-.64,2.85-.87.42-2.3.39-2.87-.63-.44-.78-.45-2.27.57-2.82Z"/>
              <path class="cls-18" d="M184.74,101.24c-.78-.27-1.06-1.03-1.1-1.65-.04-.79.09-1.61.87-1.96.83-.37,2.01-.38,2.63.28s.69,1.85.18,2.7c-.43.73-1.57.99-2.59.63Z"/>
              <path class="cls-18" d="M221.88,13.22c.39,0-1.04,1.97-2.55,2s-2.61-2.12-2.59-1.41c0-.14.02-.4.05-.67l5.08.08Z"/>
              <path class="cls-18" d="M175.96,108.5h-2.65c.02-.76-.35-1.93.18-2.47s1.71-.17,2.45-.16l.02,2.63Z"/>
              <polygon class="cls-18" points="174.67 116.92 171.99 116.93 171.96 114.24 174.63 114.29 174.67 116.92"/>
              <path class="cls-18" d="M177.88,99.41c-.96.07-1.69.06-2.66,0v-2.64s2.7-.05,2.7-.05l-.04,2.7Z"/>
              <path class="cls-18" d="M181.14,81.28h-2.67s.04-2.65.04-2.65c.97-.09,1.61-.09,2.58,0l.05,2.65Z"/>
              <path class="cls-18" d="M182.41,72.11c-.95.17-1.61.17-2.53,0-.17-.88-.17-1.58,0-2.48.91-.18,1.59-.18,2.5,0,.13.88.13,1.48.04,2.47Z"/>
              <path class="cls-18" d="M179.21,90.24c-.97.14-1.71.14-2.68.01v-2.48c.97-.12,1.71-.13,2.66-.02l.02,2.49Z"/>
              <path class="cls-18" d="M190.19,26.7c-.95.19-1.63.19-2.54,0-.17-.89-.17-1.59,0-2.48.91-.16,1.57-.16,2.48,0,.13.87.13,1.47.04,2.47Z"/>
              <path class="cls-18" d="M187.56,44.89c-.96.16-1.62.16-2.54,0-.16-.89-.16-1.57,0-2.47.9-.18,1.58-.18,2.49,0,.15.88.15,1.49.04,2.49Z"/>
              <path class="cls-18" d="M192.13,17.77h-2.55c-.14-.97-.14-1.7,0-2.69h2.51c.11.99.11,1.62.04,2.69Z"/>
              <polygon class="cls-18" points="184.41 63.11 181.7 63.13 181.72 60.45 184.39 60.46 184.41 63.11"/>
              <polygon class="cls-18" points="188.92 35.87 186.24 35.91 186.27 33.23 188.91 33.23 188.92 35.87"/>
              <path class="cls-18" d="M185.62,54.05l-2.56-.02c-.12-1-.12-1.71,0-2.68h2.51c.13.95.13,1.58.04,2.7Z"/>
              <path class="cls-18" d="M166.95,94.98c.69-.41,1.39.05,1.72.6.38.65.02,1.38-.59,1.73s-1.29.06-1.68-.48c-.44-.61-.21-1.41.55-1.86Z"/>
              <path class="cls-18" d="M171.46,67.76c.7-.41,1.4.02,1.72.6.35.63.04,1.38-.58,1.74s-1.29.09-1.67-.48c-.4-.6-.23-1.41.52-1.85Z"/>
              <path class="cls-18" d="M165.07,104c.7-.34,1.38.17,1.69.73.35.65-.11,1.35-.77,1.7-.6.31-1.25-.02-1.61-.66-.33-.58-.1-1.38.69-1.76Z"/>
              <path class="cls-18" d="M168.16,85.94c.71-.37,1.49-.02,1.82.57.34.63.06,1.36-.6,1.69-.59.3-1.33.14-1.74-.49-.35-.55-.23-1.38.52-1.77Z"/>
              <path class="cls-18" d="M181.22,13.93c.75-.36,1.48.08,1.72.69.26.66-.03,1.39-.65,1.68s-1.36.02-1.67-.59-.13-1.43.61-1.78Z"/>
              <path class="cls-18" d="M163.64,113.16c.72-.37,1.5-.02,1.79.59s.04,1.36-.58,1.68-1.37.12-1.74-.49c-.34-.56-.22-1.4.52-1.78Z"/>
              <path class="cls-18" d="M173.28,58.73c.69-.4,1.5-.14,1.81.42.34.62.2,1.46-.43,1.81-.57.32-1.35.22-1.74-.33s-.36-1.49.36-1.9Z"/>
              <path class="cls-18" d="M170.22,76.8c.72-.4,1.43.08,1.7.67.29.66-.05,1.37-.66,1.71s-1.29-.06-1.67-.65-.1-1.32.64-1.74Z"/>
              <path class="cls-18" d="M174.69,50.28c.72-.39,1.46-.01,1.79.62.31.6-.05,1.28-.62,1.66-.61.41-1.27.07-1.68-.51s-.27-1.35.51-1.77Z"/>
              <path class="cls-18" d="M176.72,41.14c.72-.34,1.43.19,1.71.72.34.67-.13,1.32-.69,1.63-.66.36-1.34,0-1.66-.57-.35-.63-.11-1.43.64-1.78Z"/>
              <path class="cls-18" d="M179.24,23.06c.7-.45,1.39.04,1.72.63s-.02,1.28-.59,1.65c-.61.4-1.29.07-1.69-.52s-.17-1.31.55-1.76Z"/>
              <path class="cls-18" d="M177.99,32.11c.71-.44,1.35.02,1.65.59.36.67.08,1.41-.59,1.74-.57.28-1.28,0-1.67-.54-.42-.57-.12-1.34.61-1.79Z"/>
              <path class="cls-18" d="M162.45,66.46c.65-.41,1.28.16,1.63.64.46.62-.07,1.26-.65,1.65s-1.16-.02-1.58-.53c-.47-.58-.16-1.29.59-1.76Z"/>
              <path class="cls-18" d="M161.19,75.51c.68-.43,1.29.14,1.62.64.44.65-.11,1.28-.63,1.67-.62.47-1.18-.04-1.6-.55-.48-.59-.15-1.28.61-1.75Z"/>
              <path class="cls-18" d="M156.92,105.1c-.78.45-1.53-.32-1.67-1.05-.13-.65.48-1.49,1.29-1.45.51.02,1,.55,1.14.97.17.52-.15,1.19-.75,1.54Z"/>
              <path class="cls-18" d="M154.66,111.85c.65-.45,1.27.17,1.65.67.44.6-.06,1.25-.64,1.64s-1.17,0-1.59-.52c-.47-.58-.16-1.28.58-1.79Z"/>
              <path class="cls-18" d="M153.42,120.28c.67-.45,1.27.16,1.62.66.44.63-.09,1.26-.64,1.64-.6.42-1.18-.05-1.59-.53-.51-.6-.12-1.28.61-1.78Z"/>
              <path class="cls-18" d="M157.93,93.7c.66-.41,1.29.13,1.62.63.42.63-.07,1.28-.63,1.65-.6.4-1.18-.01-1.58-.52-.46-.58-.16-1.3.59-1.76Z"/>
              <path class="cls-18" d="M166.77,48.34c.8.67.88,1.33.35,1.91-.62.68-1.24.68-1.86,0-.54-.59-.42-1.22.28-1.87.31-.28.87-.34,1.22-.05Z"/>
              <path class="cls-18" d="M168.95,32.48c-.41-.31-.9-.94-.8-1.31.12-.46.7-1.05,1.14-1.14.49-.11,1.06.4,1.38.92.24.38-.08.89-.35,1.19-.34.39-.78.79-1.37.34Z"/>
              <path class="cls-18" d="M167.71,39.23c.66-.37,1.33.22,1.6.75.31.6-.18,1.25-.71,1.57-.6.37-1.22-.09-1.56-.63-.36-.57-.05-1.28.67-1.68Z"/>
              <path class="cls-18" d="M159.69,87.2c-.51-.34-1.21-.83-1.29-1.39-.09-.6.81-1.33,1.38-1.31.49.02,1.21.7,1.2,1.14-.02.72-.6,1.22-1.29,1.55Z"/>
              <path class="cls-18" d="M165,59.83c-.71.13-1.36-.79-1.36-1.38,0-.48.68-1.18,1.15-1.18.62,0,1.46.67,1.41,1.31-.03.42-.74,1.15-1.2,1.24Z"/>
              <path class="cls-18" d="M171.5,23.5c-.63.07-1.5-.7-1.43-1.31.05-.45.8-1.22,1.24-1.26.66-.06,1.34.78,1.33,1.38,0,.44-.63,1.14-1.14,1.19Z"/>
              <path class="cls-18" d="M163.65,123.35l-2.64.03c-.05-.81.6-1.29,1.23-1.32s1.28.31,1.42,1.29Z"/>
              <rect class="cls-18" x="144.11" y="119.44" width="1.38" height="1.37" transform="translate(24.29 264.61) rotate(-89.85)"/>
              <rect class="cls-18" x="148.65" y="92.22" width="1.34" height="1.35" transform="translate(-.6 .98) rotate(-.37)"/>
              <rect class="cls-18" x="159.69" y="29.37" width="1.36" height="1.31" transform="translate(-.41 2.27) rotate(-.81)"/>
              <rect class="cls-18" x="155.17" y="56.6" width="1.32" height="1.31" transform="translate(-.79 2.21) rotate(-.81)"/>
              <path class="cls-18" d="M147.47,101.47c.17-.26.95-.28,1.15-.08s.26.87.08,1.1-.82.26-1.12.17c-.33-.1-.42-.73-.12-1.19Z"/>
              <rect class="cls-18" x="156.44" y="47.51" width="1.32" height="1.33" transform="translate(-.19 .62) rotate(-.23)"/>
              <rect class="cls-18" x="142.86" y="72.78" width="1.28" height="1.35"/>
              <rect class="cls-18" x="151.94" y="74.09" width="1.29" height="1.34" transform="translate(77.42 227.14) rotate(-89.85)"/>
              <rect class="cls-18" x="136.36" y="109.12" width="1.33" height="1.28"/>
              <rect class="cls-18" x="153.24" y="64.98" width="1.29" height="1.37"/>
              <rect class="cls-18" x="144.14" y="63.73" width="1.33" height="1.28"/>
              <rect class="cls-18" x="138.29" y="100.03" width="1.35" height="1.32" transform="translate(37.73 239.25) rotate(-89.77)"/>
              <path class="cls-18" d="M158.49,38.51c.21-.26,1.02-.27,1.18-.03s.16.92-.03,1.16-.87.25-1.12.1-.3-.9-.03-1.23Z"/>
              <rect class="cls-18" x="147.4" y="45.56" width="1.28" height="1.33"/>
              <rect class="cls-18" x="152.58" y="18.34" width="1.28" height="1.33"/>
              <path class="cls-18" d="M201.87,118.86l-2.65-.02c-.01-.15-.02-.61.08-.62l2.49-.07.07.71Z"/>
              <rect class="cls-18" x="149.35" y="36.5" width="1.28" height="1.28"/>
              <rect class="cls-18" x="140.91" y="81.89" width="1.28" height="1.28"/>
              <rect class="cls-18" x="135.08" y="62.45" width="1.28" height="1.28"/>
              <rect class="cls-18" x="133.8" y="70.85" width="1.28" height="1.32"/>
              <rect class="cls-18" x="145.45" y="110.39" width="1.3" height="1.29" transform="translate(34.83 256.97) rotate(-89.91)"/>
              <rect class="cls-18" x="150.63" y="27.44" width="1.28" height="1.28"/>
              <rect class="cls-18" x="161.64" y="20.28" width="1.33" height="1.32" transform="translate(141.1 183.21) rotate(-89.91)"/>
              <rect class="cls-18" x="139.63" y="90.95" width="1.28" height="1.28"/>
              <rect class="cls-18" x="135.08" y="118.18" width="1.28" height="1.28"/>
              <rect class="cls-18" x="138.31" y="44.28" width="1.32" height="1.28"/>
              <rect class="cls-18" x="149.99" y="83.16" width="1.29" height="1.33" transform="translate(66.39 234.22) rotate(-89.84)"/>
              <rect class="cls-18" x="146.09" y="54.67" width="1.32" height="1.28"/>
              <rect class="cls-18" x="126.02" y="116.24" width="1.28" height="1.27"/>
              <rect class="cls-18" x="129.25" y="98.07" width="1.28" height="1.33"/>
              <rect class="cls-18" x="127.3" y="107.18" width="1.28" height="1.28"/>
              <rect class="cls-18" x="140.25" y="35.22" width="1.31" height="1.28"/>
              <rect class="cls-18" x="141.57" y="26.12" width="1.28" height="1.31"/>
              <rect class="cls-18" x="143.52" y="17.05" width="1.28" height="1.29"/>
              <path class="cls-18" d="M130.62,89.21c.22-.3.85-.29,1.07-.1.2.17.26.74.09.97s-.7.31-.97.19c-.29-.13-.48-.67-.2-1.06Z"/>
              <rect class="cls-18" x="124.07" y="125.3" width="1.28" height="1.32"/>
              <rect class="cls-18" x="132.48" y="79.95" width="1.31" height="1.27"/>
              <rect class="cls-18" x="137.03" y="53.35" width="1.28" height="1.31" transform="translate(-.11 .27) rotate(-.11)"/>
              <rect class="cls-18" x="172.36" y="13.5" width=".61" height="1.28" transform="translate(157.85 186.75) rotate(-89.77)"/>
            </g>
          </g>
        </g>
        <g>
          <g>
            <polygon class="cls-17" points="344.08 101.74 254.76 111.42 271.75 9.92 467.47 8.69 454.36 89.74 344.08 101.74"/>
            <polygon class="cls-12" points="258.34 108.13 274.21 13.04 463.84 11.61 451.67 87.13 258.34 108.13"/>
          </g>
          <g>
            <path class="cls-8" d="M445.26,78.45c-.62-1.22-.29-1.9.12-2.83.52-1.16,1.16-1.95,2.48-2.51,2.38-1.03,2.41-.04,2.26-.99-.03-.17-.58-.03-.74-.12-1.28-.74-2.56-2.37-2.46-3.94.16-2.57,2.14-3.98,4.61-4.79-1.6-.35-2.24-1.51-2.9-2.58-.82-1.33-.51-2.34.13-3.6.93-1.84,1.73-1.79,3.37-2.59.12-.06.05-.48.06-.63-.01.23-1.64-.74-2.43-2.24-.99-1.89-1.07,1.3-2.2.87-.77-.29-1.41.78-1.85.63-.61-.22-1.56-.57-2.27-.77-.5-.13-1.42-.97-1.51-1.48-.12-.68-.71-1.68-.66-2.26s.51-1.53.66-2.2c.11-.52,1.01-1.31,1.49-1.5.83-.32,1.82-.16,2.57-1.13l.37,1.13c1.13-.47,1.72-.04,2.38.62.71.69.86,1.3.92,2.58l2.43-2.44c.28-.28,1.09-.26,1.5-.31l.46-.05c.1-.01.14-.39.05-.42l-.54-.15c-.38-.11-.86-.31-1.14-.51-.25-.18-.26-.91-.35-1.26-.05-.19-.62-.26-.63-.47l-.05-1.05-.03-.63c0-.14-.52,0-.52.19-.05,1.28-1.61,2.67-2.95,2.63-.29,0-.76.49-1,.51-3.21.22-4.71-4.88-3.97-3.58l-.56-.99c-.12-.21.47-.74.52-1.02.2-1.22.7-2.49,2.05-2.78,2.33-.5,2.33-1.38,1.97-1.4-2-.1-2.44-1.47-3.07-3.26-.04-.12-.84-.18-.86-.05l-.08.56c-.42.38-1.01,1.23-1.65,1.35-.89.17-2.25.37-3.11-.08-.71-.37-1.65-1.32-2.07-2.07s-.4-2.55,0-3.29,1.35-1.7,2.08-2.06c.8-.4,2.39-.35,3.17-.03.85.35,1.5,1.27,2.15,1.86s-.41,2.12.78,1.84c.38-.09-.84-1.3,2.47-2.77,1.35-.6,2.11-.47,2.11-.5l.02-.44c0-.14-.42-.09-.56-.12-1.21-.25-1.72-1.49-2.28-2.34-.74-1.12-.59-2.17.02-3.19s1.2-1.92,2.45-2.45l1.49-.63c.09-.04.15-.32.06-.33-1.84-.27-3.44-2.79-3.14-4.68h16.62c.23,0,.4.47.29.53-.14.08-.61.21-.62.37l-.16,3.22c.08-1.54-.92,3.09-.57,2.87-.13.08-.4.19-.57.26-.09.04-.2.38-.1.4l.47.12c.15.04.25.36.26.55,0,.15-.63.14-.65.3-.12,1,0,2.48.07,3.6l-.85.2c-.11,1.97.69,2.89-.57,4.2-.24,1.18.39,2.51-.08,3.61-.32.75-.89,1.36-.55,2.35.13.39-.04,1.18-.27,1.5-.52.71-1.59.35-1.7.74-.19.72,1.06.3,1.16.66.73,2.63-.39,3.1-.41,3.5l-.14,3.04c-.03.55-.91.86-.53,1.73h-1.82c-.1,0-.27.3-.26.39.02.13.33.16.48.29l1.48,1.31c.08.07.05.47-.05.5l-.55.19c-.3,1.31.46,2.78-.11,3.98l-.83,1.77c-.35.75-1.44.6-2.09.6-.19,0-.21.63-.01.64.31.02,1.05.1,1.31.31.28.23.47.75.47,1.18v3.19s-.68,1.01-.68,1.01l.03,1.96-2.83,1.1c.84.35,1.4.42,1.76.74.52.47.38,1.22.47,1.8.17,1-.28,1.43-.65,2.22s.17,2.12-.08,3.03c-.07.23-.73.31-.94.46-1.32.98-1.15.3-2.25.62-.13.04.01.5.18.49,1.04-.11,2.29,1.36,2.44,2.18.11.62-.41.95-.64,1.53-.6,1.53,1.1,3.37-1.52,4.17-.58.18-.92,1-1.86.52l.02.85c1.22-.88,2.68,1.98,2.61,1.21l.05.59c.01.16-.71.07-.71.26l.02,3c-4.38-.19-2.49.28-3.63.57-.87.22-2.25.17-3.14.04-.97-.14-.98-1.46-1.16-2.05-.23-.78.56-.92.62-1.25.27-1.37,1.31-2.27,2.5-2.69.37-.13,1.05-.62,1.4-.49.16.06.21-.41.19-.56-.09-.75-.9,1.42-2.98-2.68ZM455.47,20.5c.82-1.73,2.49-1.69,2.5-1.76.15-1.04-2.34-.77-2.02-3.94-1.4-.27-1.73,2.11-4.38,2.07-.15,0-.24.68-.1.68,3.12-.09,2.96,5.14,4,2.95ZM453.4,29.74c-.02-.41.08-1.22.64-1.48l2.06-.98c.14-.07.11-.64-.04-.67-2.04-.44-.99-2.34-1.59-3.41-.97,1.15-1.7,1.86-2.87,2.46-1.45.74-2.17.07-2.15.54.04.86,1.84-.48,2.99,3.18l.18.56c.05.15.8-.05.79-.21ZM453.1,37.17l1.61-.87c.13-.07.52-.08.64-.11.1-.02-.1-.39-.23-.39-2.02.04-2.64-4.02-2.49-4.02h-.42c-.29-.02.62,1.5-2.44,2.8-.55.23-.96.71-1.71.51-.16-.04-.48.05-.55.18-.47.92,1.3-.27,2.58,1.26.59.7.9,1.2.68,2.36.33.08,1.26.34,1.36,0,.07-.26-.05-1.03.13-1.21.17-.16.45-.29.84-.51Z"/>
            <path class="cls-8" d="M442.02,61.52c-.61-.39-.9-.7-1.72-.48.59-.89-.37-1.19-.46-1.75-.45-2.63.03-3.05.78-4.62.19-.39.98-.28,1.51-.69.74-.57,2.35.11,3.24-.25.25.44.27.78.49.77l1.04-.07c-.07.66.14,1.07.55,1.63.08.1.66,3.15-.76,4.63s-4.53.94-4.68.85Z"/>
            <path class="cls-8" d="M444.07,70.51c-.84.44-2.52.41-3.35.02-.77-.36-1.7-1.37-2.07-2.07-.53-.98-.02-2.2-.17-3.26,2.75-2.9,1.37-2.23,5.64-2.29l2.16,2.3c-.16,1.04.36,2.27-.16,3.25-.37.68-1.24,1.62-2.05,2.04Z"/>
            <path class="cls-8" d="M442.09,79.56c-.85.46-2.45.42-3.27.02-.77-.37-1.74-1.28-2.11-2-.53-1.04-.03-2.31-.15-3.43.84-.66,1.37-1.65,2.35-2.02.8-.3,2.25-.31,3.04,0,.98.38,1.53,1.36,2.37,2.01-.13,1.13.35,2.39-.16,3.45-.33.68-1.29,1.54-2.07,1.96Z"/>
            <path class="cls-8" d="M442.88,23.78c-.74.51-2.6.44-3.41.06-.73-.34-1.78-1.29-2.08-1.99-.39-.92-.37-2.44-.01-3.36.29-.74,1.33-1.77,2.07-2.07.92-.37,2.44-.38,3.36.01.7.3,1.65,1.35,1.99,2.08.39.83.44,2.65-.02,3.38-.42.67-1.17,1.39-1.89,1.88Z"/>
            <path class="cls-8" d="M440.86,88.58c-.94.49-2.54.45-3.44.02-.73-.34-1.67-1.28-1.97-2.03-.36-.87-.43-2.59.05-3.4.38-.64,1.26-1.49,1.9-1.88.76-.47,2.7-.47,3.45-.01.66.4,1.49,1.21,1.92,1.86.54.82.47,2.59.06,3.48-.34.73-1.2,1.57-1.96,1.97Z"/>
            <path class="cls-8" d="M439.48,41.92c-.96.45-2.55.47-3.41-.02-.73-.42-1.53-1.23-1.92-1.98-.41-.79-.45-2.44,0-3.23s1.27-1.72,2.04-2.11,2.43-.39,3.19-.02,1.71,1.28,2.1,2.05c.44.85.41,2.43.05,3.3-.33.78-1.24,1.64-2.06,2.02Z"/>
            <path class="cls-8" d="M438.55,50.04c-1.45.79-2.63.94-3.91-.03-.6-.46-1.12-.3-1.43-1.34-.25-.85-1.22-2.04-.39-3.12.25-.32.63-.78.66-1.28.03-.68.88-.55,1.15-.79,1.26-1.14,2.59-.79,3.84-.11.85.47,1.08.62,1.48,1.61.21.52.64.98.66,1.73.02.82-.46,1.21-.67,1.74-.38.92-.58,1.16-1.39,1.6Z"/>
            <path class="cls-8" d="M437.98,57.63c-1.05,1.86-3.16,2.65-5.22,1.57-.75-.39-1.14-.85-1.54-1.57-.72-1.28-.72-2.38,0-3.67.95-1.69,3.73-3.09,5.13-1.43.94-.03,1.22.83,1.6,1.43.82,1.26.73,2.42.03,3.66Z"/>
            <path class="cls-8" d="M435.22,68.19c-1.45.75-2.43.81-3.81,0-.78-.46-1.22-.83-1.59-1.67-.55-1.24-.49-2.1,0-3.33.37-.93.84-1.18,1.66-1.66,1.33-.78,2.32-.74,3.63-.02.87.47,1.3.52,1.62,1.71.13.46.67.96.67,1.62,0,.76-.47,1.1-.69,1.65-.36.95-.6,1.26-1.48,1.71Z"/>
            <path class="cls-8" d="M433.25,77.25c-1.37.88-2.44.91-3.71-.05-.55-.42-1.59-.48-1.42-1.69-.98-.76-1.02-2.4.01-3.13-.19-1.2.83-1.29,1.39-1.7,1.3-.94,2.38-.93,3.66-.08.69.46,1.13.79,1.55,1.56.71,1.3.72,2.24,0,3.55-.39.7-.79,1.09-1.48,1.54Z"/>
            <path class="cls-8" d="M430.09,21.48c-.89-.46-1.22-.84-1.5-1.77-.15-.49-.91-1-.56-1.85.06-.15.02-.65.15-.75s.41-.14.74-.21l-.28-1.35c1.79-.33,3.24-2.48,4.98-.61,1.13-.08,1.37.8,1.75,1.5.68,1.27.73,2.21.07,3.46-.42.79-.89,1.21-1.61,1.65-1.34.82-2.32.64-3.73-.08Z"/>
            <path class="cls-8" d="M430.01,86.74c-1.95-.11-2.85-1.67-3.53-2.86-.48-.84-.19-1.02.06-1.72.48-1.4,1.29-2.17,2.67-2.69.71-.27.89-.5,1.71-.04,1.23.68,2.72,1.59,2.88,3.49.13,1.61-2.1,3.92-3.8,3.82Z"/>
            <path class="cls-8" d="M431.66,30.69c-.28.09-.72.52-.96.57s-.63-.51-.9-.58c-1.14-.3-2.04-1.26-2.57-2.34-.46-.94-.46-1.22,0-2.15.54-1.08,1.56-2.08,2.5-2.33.34-.09.75-.55.99-.59s.63.53.96.6c.95.22,1.98,1.24,2.52,2.32.46.92.47,1.23,0,2.15-.55,1.06-1.26,1.96-2.54,2.36Z"/>
            <path class="cls-8" d="M429.76,39.85c-.91.38-1.09.37-1.92.03-1.18-.48-2.27-1.56-2.47-2.74-.04-.25-.54-.61-.6-.81-.07-.23.56-.59.61-.83.3-1.24,1.21-2.27,2.51-2.61.22-.06.61-.43.83-.46.25-.04.67.42.95.48,1.28.26,2.19,1.4,2.52,2.54.07.24.5.6.59.79.1.22-.55.61-.6.89-.19,1.14-1.22,2.21-2.41,2.71Z"/>
            <path class="cls-8" d="M427.3,57.54c-1.01.37-2.46.33-3.42.04-.49-.15-1.31-.97-1.47-1.46-.29-.9-.29-2.36,0-3.26.16-.49.99-1.31,1.47-1.46.96-.3,2.44-.29,3.37,0,.48.15,1.22,1.01,1.39,1.48.31.83.27,2.39,0,3.22-.14.45-.9,1.28-1.35,1.44Z"/>
            <path class="cls-8" d="M429.1,48.51c-.92.36-2.38.3-3.25.02-.48-.16-1.29-.98-1.49-1.47-.33-.87-.32-2.43,0-3.31.17-.47.97-1.26,1.42-1.42.92-.33,2.41-.35,3.33,0,.49.18,1.29,1,1.46,1.48.3.85.28,2.34.01,3.2-.15.49-.96,1.31-1.49,1.51Z"/>
            <path class="cls-8" d="M425.9,66.63c-.95.38-2.48.34-3.38.03-.46-.16-1.18-.99-1.38-1.43-.37-.83-.3-2.43-.02-3.33.15-.49,1-1.25,1.46-1.43.88-.33,2.3-.31,3.19-.01.49.17,1.4.93,1.57,1.44.28.86.27,2.47,0,3.34-.14.46-.96,1.19-1.46,1.39Z"/>
            <path class="cls-8" d="M424.74,27.64c-.43,1.36-3,2.11-4.73,1.38-.48-.2-1.29-.97-1.46-1.46-.32-.88-.32-2.2,0-3.09.18-.5.95-1.42,1.45-1.59.94-.31,2.32-.34,3.26-.01.5.17,1.31,1.02,1.48,1.52.31.92.3,2.35.01,3.25Z"/>
            <path class="cls-8" d="M424.68,19.95c-1.04.39-2.47.33-3.41.04-.49-.16-1.26-1.04-1.41-1.52-.29-.92-.31-2.35,0-3.22.18-.5.99-1.31,1.49-1.46.85-.26,2.31-.28,3.17-.01.49.15,1.29.99,1.49,1.5.3.77.27,2.32.01,3.18-.14.47-.88,1.32-1.35,1.5Z"/>
            <path class="cls-8" d="M423.81,75.72c-.91.31-2.26.3-3.08.03-.51-.17-1.31-.98-1.5-1.45-.36-.9-.33-2.19-.05-3.12.16-.52.91-1.45,1.44-1.63.96-.31,2.28-.32,3.26-.02.51.16,1.34,1.02,1.51,1.53.31.95.32,2.3,0,3.24-.16.48-1.04,1.23-1.58,1.42Z"/>
            <path class="cls-8" d="M422.11,84.87c-.72.19-1.52.19-2.24,0-.39-.55-.98-.58-1.57-.47.11-.59.08-1.17-.46-1.57-.18-.72-.18-1.52-.01-2.24.57-.38.59-.97.48-1.55.59.1,1.16.05,1.57-.47.72-.19,1.52-.19,2.24,0,.4.54.98.57,1.57.46-.11.59-.09,1.18.47,1.57.17.73.17,1.52,0,2.25-.55.4-.58.98-.46,1.58-.6-.11-1.18-.09-1.58.45Z"/>
            <path class="cls-8" d="M417.03,37.65c.37-2.27-1.06-.05-.6-3.73.02-.16.53-.21.78-.23l-.17-1.21c1.49.17,1.94-1.89,4.74.02,1.61,1.1,1.62,3.98,0,5.09-2.88,1.96-3.32-.29-4.75.06Z"/>
            <path class="cls-8" d="M419.43,47.22c-.35.42-1.62.3-2.1.05-.21-.11-.31-.6-.51-.59l-1.02.06c.15-.7-.04-1.09-.48-1.58-.36-.39-.41-1.71.01-2.03.55-.42.32-1.2.6-1.49s1.05-.02,1.48-.59c.31-.42,1.65-.37,2.04-.02.47.42.89.65,1.57.46l-.05,1.02c0,.2.45.31.56.53.25.47.4,1.78-.04,2.09-.55.39-.34,1.16-.63,1.45s-1.02.11-1.45.63Z"/>
            <path class="cls-8" d="M418.61,54.71c-.73.7-1.25,1.17-2.21,1.16s-1.43-.55-2.11-1.2c-.73-.7-1.19-1.14-1.19-2.13s.47-1.43,1.2-2.13c.67-.65,1.18-1.18,2.11-1.19s1.48.45,2.17,1.12,1.17,1.19,1.21,2.05c.06,1.02-.42,1.59-1.17,2.31Z"/>
            <path class="cls-8" d="M417.27,63.76c-.65.64-1.25,1.19-2.12,1.19s-1.47-.53-2.08-1.15c-.71-.73-1.29-1.18-1.24-2.23.04-.93.56-1.5,1.29-2.18.65-.61,1.16-1.1,2.04-1.12s1.36.52,2.03,1.12,1.2,1.21,1.28,2.01c.11,1.13-.42,1.58-1.2,2.36Z"/>
            <path class="cls-8" d="M414.39,73.38c-.43.1-.91.88-1.45.57l-1.85-1.08c-.6-.35-.76-1.69-1.26-2.28.73-.56.66-1.38,1.17-1.92.43-.46,1.58-1.18,2.23-1.17s1.82.69,2.21,1.19.68,1.3,1.04,1.89c.18.29-.45.93-.54,1.28-.2.76-.59,1.3-1.53,1.52Z"/>
            <path class="cls-8" d="M414.84,17.77c-.26.06-.74.45-.97.52-.26.08-.66-.53-.96-.58-.96-.18-1.34-1.11-1.82-1.82l-.58-.86c-.14-.2.44-.73.52-1.05.23-.92,1.02-1.56,1.83-1.74.33-.08.76-.64,1.03-.62s.73.55,1.03.61c.86.18,1.46.77,1.66,1.69.06.27.62.72.63.99s-.55.69-.64.97c-.26.9-.67,1.62-1.73,1.89Z"/>
            <path class="cls-8" d="M413.08,82.56c-1.02.6-1.34.36-2.26,0-.86-.34-1.46-.97-1.61-1.8-.06-.32-.64-.73-.66-1s.64-.65.69-.96c.12-.89.71-1.5,1.59-1.81s1.23-.62,2.2-.04c.7.42,1.36.87,1.65,1.76.1.31.51.79.49,1.07s-.39.77-.48,1.04c-.33.92-.87,1.32-1.61,1.75Z"/>
            <path class="cls-8" d="M412.6,27.21c-.64.18-1.37-1.18-2.22-.76-.46-1.89-1.06-2.06-1.16-2.41-.06-.21.4-.53.5-.75l.68-1.51,2.13-1.05c3.09,1.62,1.6.38,3.38,3.28-.72.56-.59,1.8-1.31,2.21-.54.3-1.4.82-2.01.99Z"/>
            <path class="cls-8" d="M412.71,35.37c-.83.32-1.37.56-2.06,1.04-1.23-1.04-2.24-.67-2.42-1.52-.15-.71-.43-1.17-.96-1.78.12-.24.7-.75.74-1.07.24-1.83,1.14-1.01,2.66-2.25.59.44,1.11.75,1.75.89,1.13.25.12,1.19,1.68,2.49-1.58,1-.56,1.9-1.38,2.21Z"/>
            <path class="cls-8" d="M411.87,43.65c-.31,1.68-4.63,1.59-5.05.14-.26-.91-.25-2.39,0-3.3.3-1.06,1.63-.91,2.49-.93.93-.02,2.28-.1,2.53,1.02.19.85.19,2.13.01,3.07Z"/>
            <path class="cls-8" d="M412.47,90.42c-.27,1.21-1.6,1.06-2.5,1.07-.82,0-1.56.02-2.09-.46-.6-.53-.57-1.31-.55-2.18s-.13-2.19,1.01-2.48c.73-.18,4.09-.6,4.19.97.07,1,.15,2.11-.06,3.08Z"/>
            <path class="cls-8" d="M409.01,53.68c-.94.29-2.31.26-3.22.01-1.14-.31-1.07-1.51-1.06-2.48s-.06-2.16,1.08-2.46c.9-.23,2.24-.24,3.14,0,1.12.29,1.1,1.54,1.08,2.47s.14,2.1-1.02,2.46Z"/>
            <path class="cls-8" d="M407.67,57.84c1.45.42,1.49,4.55-.01,4.97-.91.26-2.29.25-3.19,0-1.18-.34-1-1.59-1.02-2.55s-.05-2.18,1.13-2.44c.9-.19,2.2-.23,3.08.02Z"/>
            <path class="cls-8" d="M402.94,67.02c1.32-.72,2.99-.07,3.59,1.21.66,1.4.16,2.89-1.25,3.59-1.24.62-2.74.15-3.52-1.15s-.25-2.87,1.18-3.65Z"/>
            <path class="cls-8" d="M403.03,33.96c-1.17.96-2.63.53-3.61-.55-.77-.85-.81-2.43.06-3.21.68-.61,1.21-1.03,1.99-1.07.88-.04,1.37.4,2.05.97s.72,1.13.72,2.07c0,.66-.49,1.21-1.2,1.79Z"/>
            <path class="cls-8" d="M405.7,24.15c-.65.83-1.32,1.27-2.21,1.27s-1.55-.45-2.18-1.22c-.89-1.09-.59-2.5.36-3.4s2.44-1.02,3.47-.15,1.49,2.3.56,3.5Z"/>
            <path class="cls-8" d="M403.64,89.13c-.72.68-1.23,1.09-2.01,1.12-.93.04-1.42-.41-2.14-1.07-.87-.79-.88-2.47,0-3.26.68-.61,1.18-1.05,1.97-1.08.93-.04,1.41.42,2.14,1.08.83.74.89,2.4.04,3.21Z"/>
            <path class="cls-8" d="M404.91,76.89c1.01,1.05.71,2.6-.23,3.52-1,.97-2.51,1.01-3.57.07s-1.34-2.46-.35-3.55c.61-.67,1.18-1.09,1.94-1.13.96-.06,1.47.34,2.21,1.1Z"/>
            <path class="cls-8" d="M402.37,42.4c-.74.8-1.24,1.17-2.15,1.18s-1.36-.41-2.08-1.14c-.79-.8-.79-2.34,0-3.15.7-.72,1.17-1.12,2.08-1.13s1.39.41,2.1,1.14.8,2.27.05,3.09Z"/>
            <path class="cls-8" d="M399.67,58.3c.04,1.36-1.45,2.77-2.57,2.76-1.37-.01-2.7-1.31-2.73-2.61-.04-1.4,1.32-2.74,2.73-2.74,1.15,0,2.54,1.39,2.57,2.59Z"/>
            <path class="cls-8" d="M396.89,52.12c-.76-.67-1.26-1.24-1.27-2.06-.01-.92.43-1.55,1.18-2.21,1.01-.89,2.51-.59,3.37.32.96,1.01,1.01,2.42.17,3.38-.9,1.03-2.35,1.54-3.44.57Z"/>
            <path class="cls-8" d="M406.58,11.89c1.36.63.92,2.59.32,3.37-.88,1.15-2.42,1.5-3.56.6-.64-.5-1.21-1.15-1.19-1.77.02-.79-.13-1.96.82-2.23s2.66-.42,3.61.02Z"/>
            <path class="cls-8" d="M444.17,14.94c-4.42.08-3.23.32-5.61-2.29-.15-.17-.21-.95.09-.95h7.51c.29,0,.14.88.05,1.02l-2.04,2.21Z"/>
            <path class="cls-8" d="M397.69,69.45c-1.36-.34-1.59.96-2.13.68-.99-.52-.23-.85-1.82-.7.35-1.33-1.03-1.65-.72-2.1.73-1.04.9-.13.65-1.95.77.43,1.35-.43,1.99-.48s1.28.95,2.07.47c-.32,1.95.25,1.05.66,1.99.28.65-1.11.56-.71,2.09Z"/>
            <path class="cls-8" d="M396.52,22.77c-1.71-.4-1.7.93-2.21.7-.94-.43-.16-.91-1.89-.68.1-.68-.16-1.24-.68-1.84,1.37-2.93.09-1.45,2.79-2.87.23.88,1.5.38,1.67.8,1.78,4.3-.03.86.31,3.89Z"/>
            <path class="cls-8" d="M418.45,90.68l-.13.87-2.34-.09c-.52-.83-.03-1.52.2-2.25s.53-.9,1.12-1.2c1.22-.62,2.16-.63,3.41-.06,1.44.66,1.79,2.67,1.4,2.75-1.19.27-2.31.02-3.66-.01Z"/>
            <path class="cls-8" d="M395.51,78.27c-.26.35-1.23.71-1.67.76-.51.06-1.54-.4-1.86-.8-.27-.34-.74-1.22-.73-1.65,0-.47.44-1.41.8-1.7s1.24-.92,1.71-.88,1.34.55,1.71.85.77,1.25.79,1.72c.02.44-.48,1.33-.76,1.7Z"/>
            <path class="cls-8" d="M394.49,87.69c-.93-.64-1.46.55-1.98.46-.46-.08-1.41-.45-1.71-.82s-.86-1.24-.86-1.72.56-1.34.86-1.71,1.24-.75,1.71-.83c.51-.09,1.04,1.1,1.97.45-.51.91.56,1.42.55,2.08s-1.03,1.17-.54,2.08Z"/>
            <path class="cls-8" d="M394.57,32.01c-.93-.88-1.59.53-2.08.37-.58-.2-1.38-.53-1.84-.75-.44-.21.14-1.54-1.09-1.67,2.47-2.75-.73-.51,2.93-2.87.58.63.98,1.06,2.02.76-.58.79.57,1.43.5,2-.08.67-1.1,1.03-.44,2.15Z"/>
            <path class="cls-8" d="M392.65,40.53c-.69.67-2.22.59-2.91.03-.89-.72-.88-2.55,0-3.27.71-.57,2.19-.62,2.88,0,.76.68.81,2.47.02,3.24Z"/>
            <path class="cls-8" d="M391.5,49.52c-.56.66-2.54.66-3.18.07s-.65-2.49-.02-3.14,2.48-.67,3.13,0,.56,2.47.06,3.06Z"/>
            <path class="cls-8" d="M389.49,58.56c-.74.81-2.36.76-3.08.03s-.73-2.35,0-3.04,2.32-.68,3.04,0,.73,2.27.04,3.01Z"/>
            <path class="cls-8" d="M386.22,76.74c-.72.73-2.36.71-3.06.01s-.69-2.31-.02-3.02c.71-.76,2.33-.72,3.05,0s.77,2.26.02,3.02Z"/>
            <path class="cls-8" d="M384.96,85.78c-.72.82-2.36.76-3.09.04s-.74-2.34.01-3.04,2.32-.68,3.02.02c.67.66.71,2.23.05,2.98Z"/>
            <path class="cls-8" d="M384.94,30.05c-.71.76-2.34.71-3.05.05-.75-.71-.74-2.33-.01-3.04s2.34-.75,3.05,0c.64.68.7,2.24.01,2.99Z"/>
            <path class="cls-8" d="M388.18,67.69c-.61.67-2.46.63-3.04.01-.69-.73-.68-2.38,0-3.09.58-.62,2.26-.64,2.95-.05.76.65.77,2.39.09,3.13Z"/>
            <path class="cls-8" d="M385.42,21.51c-.58-.01-1.21-.13-1.54-.42-.78-.68-.75-2.44-.08-3.13.61-.63,2.28-.65,2.94-.1.44.37.58,1.02.61,1.6.05,1.18-.63,2.06-1.92,2.04Z"/>
            <path class="cls-8" d="M383.69,39.01c-.76.91-2.42.88-3.15.05-.64-.72-.66-2.16.01-2.87.73-.78,2.37-.78,3.09,0,.63.68.68,2.08.06,2.83Z"/>
            <path class="cls-8" d="M382.28,48.22c-.78.74-2.21.66-2.92-.03-.76-.74-.76-2.22,0-2.95s2.13-.77,2.87-.09c.78.72.86,2.29.05,3.06Z"/>
            <path class="cls-8" d="M382.99,94.8c-.73.84-2.2.74-2.95.12s-.8-1.93-.29-2.75c.55-.88,2.01-1.08,2.98-.45.87.57,1,2.23.26,3.08Z"/>
            <path class="cls-8" d="M380.85,55.68c.12.72-1.42,2.06-1.96,2.07-.6,0-1.98-1.2-1.98-1.94,0-.77,1.47-1.99,2-2.01s1.86,1.41,1.94,1.88Z"/>
            <path class="cls-8" d="M378.23,17.41c.12.69-1.44,2.12-1.97,2.12-.57,0-1.99-1.43-1.98-1.99s1.42-1.98,1.98-1.98,1.89,1.39,1.97,1.86Z"/>
            <path class="cls-8" d="M379.5,64.08c.13.85-1.54,2.16-1.97,2.1-.38-.05-1.97-1.25-1.97-1.97s1.63-1.92,1.97-1.97c.49-.06,1.88,1.21,1.97,1.84Z"/>
            <path class="cls-8" d="M377.57,73.26c.07.67-1.46,1.92-1.95,1.98-.56.07-1.93-1.47-1.98-1.87-.07-.47,1.37-2,1.88-2.06.62-.07,2,1.38,2.05,1.95Z"/>
            <path class="cls-8" d="M374.24,91.44c.01.66-1.16,1.86-1.82,1.89-.72.03-1.97-1.21-1.93-1.93.04-.66,1.18-1.78,1.84-1.85s1.9,1.2,1.91,1.89Z"/>
            <path class="cls-8" d="M376.83,26.69c-.06.76-1.21,1.81-1.9,1.81s-1.83-1.17-1.84-1.84,1.04-1.81,1.74-1.9c.77-.1,2.06,1.09,1.99,1.94Z"/>
            <path class="cls-8" d="M374.92,35.68c-.07.94-1.21,1.57-1.87,2-.8-.33-1.86-1.19-1.87-2-.02-.72,1.16-1.92,1.85-1.85s1.94,1.17,1.89,1.85Z"/>
            <path class="cls-8" d="M376.17,82.29c.06.76-1.16,1.97-1.85,1.97s-1.88-1.21-1.88-1.92,1.19-1.84,1.87-1.85,1.81,1.12,1.86,1.8Z"/>
            <path class="cls-8" d="M396.18,14.17c-.76.84-1.05-.83-2.45-.48,0-.37.08-1.04-.15-1.16l-.51-.27c-.12-.06.09-.58.29-.58h4.42c.24,0,.54.12.56.26.03.18-.16.36-.46.52-.26.14-.25.78-.21,1.23-.54-.06-1.08,0-1.5.47Z"/>
            <path class="cls-8" d="M371.06,55.07c-.91.22-1.61.19-2.51.02-.18-.87-.19-1.59.02-2.47.71-.09,1.82-.42,2.35.12.48.49.18,1.54.14,2.33Z"/>
            <polygon class="cls-8" points="373.08 46.08 370.37 46.12 370.38 43.42 373.07 43.45 373.08 46.08"/>
            <path class="cls-8" d="M369.77,64.25h-2.54c-.1-1-.1-1.73,0-2.68h2.5c.1.93.09,1.57.03,2.68Z"/>
            <path class="cls-8" d="M367.25,26.59c-.9.11-1.71.1-2.67-.03l.02-2.53,2.62-.04.03,2.6Z"/>
            <path class="cls-8" d="M366.61,82.42l-2.59-.09c-.08-.73-.42-1.84.15-2.35s1.62-.21,2.36-.17l.08,2.61Z"/>
            <path class="cls-8" d="M368.46,17.47c-.99.15-1.62.16-2.57.03l-.03-2.57c.99-.04,1.59-.04,2.58.03.1.91.09,1.48.02,2.51Z"/>
            <path class="cls-8" d="M430.54,90.16l-4.97.02-.2-.7,2.78-1.31,2.21,1.13c.08.04.26.08.34.07.12-.02-.04.79-.17.79Z"/>
            <path class="cls-8" d="M364.58,91.38c-1.01.11-1.61.11-2.58.03l-.03-2.58,2.59.02c.06.93.06,1.48.01,2.54Z"/>
            <polygon class="cls-8" points="367.86 73.32 365.23 73.31 365.21 70.67 367.84 70.67 367.86 73.32"/>
            <path class="cls-8" d="M365.18,35.66l-2.6.13.06-2.66c.72,0,1.85-.31,2.36.17.57.53.23,1.51.18,2.37Z"/>
            <path class="cls-8" d="M360.13,51.39c.7-.38,1.42,0,1.73.57.36.65.05,1.4-.58,1.74s-1.3.09-1.68-.47-.23-1.43.52-1.84Z"/>
            <path class="cls-8" d="M362,42.34c.72-.47,1.49-.08,1.79.56s.14,1.37-.5,1.73c-.59.34-1.36.15-1.71-.41-.37-.59-.26-1.44.42-1.88Z"/>
            <path class="cls-8" d="M357.65,13.1c.7-.4,1.38.17,1.67.71.35.66-.14,1.32-.67,1.66-.64.41-1.28-.07-1.66-.62-.41-.6-.08-1.32.67-1.74Z"/>
            <path class="cls-8" d="M356.26,22.24c.7-.42,1.39.04,1.72.61.35.62-.01,1.29-.59,1.65-.61.38-1.28.07-1.68-.51s-.18-1.31.54-1.75Z"/>
            <path class="cls-8" d="M355.7,77.92c.6-.36,1.25.19,1.64.68.49.62-.12,1.23-.63,1.65-.66.54-1.25-.02-1.66-.57-.47-.65-.06-1.33.65-1.76Z"/>
            <path class="cls-8" d="M357.01,68.89c.71-.38,1.36.15,1.67.75s-.15,1.27-.78,1.6c-.54.29-1.25-.14-1.62-.68-.41-.58,0-1.27.73-1.67Z"/>
            <path class="cls-8" d="M436.59,12.3c-.31-.43-2.96,1.91-4.27.12-.13-.17-.72-.02-.87-.05-.18-.04-.08-.67.14-.67h4.81c.13,0,.12.51.18.6Z"/>
            <path class="cls-8" d="M353.13,40.37c.67-.45,1.28.17,1.62.68.42.62-.09,1.27-.63,1.63-.62.42-1.2-.05-1.59-.52-.51-.6-.12-1.31.61-1.8Z"/>
            <path class="cls-8" d="M358.89,60.48c.66-.42,1.31.1,1.65.63.4.62-.04,1.28-.64,1.67s-1.16,0-1.58-.53c-.46-.58-.18-1.3.57-1.77Z"/>
            <path class="cls-8" d="M353.76,87.05c.67-.46,1.26.17,1.63.68.43.61-.08,1.26-.63,1.63-.61.41-1.19-.04-1.59-.52-.51-.6-.14-1.29.6-1.8Z"/>
            <path class="cls-8" d="M354.38,31.27c.67-.42,1.3.14,1.63.64.42.63-.09,1.28-.62,1.68-.61.45-1.18-.01-1.6-.56s-.17-1.28.59-1.75Z"/>
            <path class="cls-8" d="M392.38,94.04c-.96.02-2.7.03-3.94-.03.51-1.77,2.53-1.62,3.64-.89l.43.11c.11.03-.02.8-.13.81Z"/>
            <path class="cls-8" d="M354.07,97.73c-.4.42-1.29-.04-1.32.89-.53-.17-1.17-.97-1.05-1.51.16-.74.89-1.24,1.48-1.07s1.39,1.17.89,1.7Z"/>
            <path class="cls-8" d="M351.06,49.96c.22-.26,1.11-.24,1.22.05s.18.99-.03,1.22-.94.26-1.2.07-.26-1.03,0-1.34Z"/>
            <rect class="cls-8" x="348.37" y="12.35" width="1.33" height="1.37" transform="translate(333.72 361.97) rotate(-89.63)"/>
            <path class="cls-8" d="M349.14,69.45l-1.56.02.16-1.33c.04-.29.87-.21,1.13-.09.3.14.31.71.27,1.39Z"/>
            <path class="cls-8" d="M349.78,59.11c.27-.26,1.01-.24,1.16,0,.18.26.19,1.02-.05,1.25-.21.19-.8.1-1.12-.04-.29-.13-.31-.91,0-1.21Z"/>
            <rect class="cls-8" x="344.47" y="86.25" width="1.36" height="1.31" transform="translate(-1.19 4.88) rotate(-.81)"/>
            <rect class="cls-8" x="343.85" y="39.59" width="1.32" height="1.31" transform="translate(-.53 4.87) rotate(-.81)"/>
            <rect class="cls-8" x="340.59" y="57.72" width="1.33" height="1.33"/>
            <rect class="cls-8" x="341.92" y="48.62" width="1.28" height="1.34"/>
            <rect class="cls-8" x="345.12" y="30.49" width="1.32" height="1.33" transform="translate(-.12 1.36) rotate(-.23)"/>
            <path class="cls-8" d="M347.17,21.49c.22-.28.99-.22,1.15.02.17.26.19.91-.01,1.12s-.88.25-1.13.09-.28-.89,0-1.23Z"/>
            <path class="cls-8" d="M343.27,95.39c.21-.26,1.02-.27,1.18-.03s.16.92-.03,1.16-.87.25-1.12.1-.3-.9-.03-1.23Z"/>
            <rect class="cls-8" x="337.37" y="75.22" width="1.28" height="1.33"/>
            <rect class="cls-8" x="336.08" y="28.55" width="1.28" height="1.33"/>
            <rect class="cls-8" x="385.32" y="11.71" width="2.66" height=".67"/>
            <rect class="cls-8" x="334.76" y="37.65" width="1.32" height="1.28"/>
            <rect class="cls-8" x="338.65" y="66.81" width="1.32" height="1.29"/>
            <rect class="cls-8" x="336.08" y="84.33" width="1.28" height="1.28"/>
            <rect class="cls-8" x="338.03" y="19.48" width="1.28" height="1.28"/>
            <rect class="cls-8" x="334.14" y="93.39" width="1.28" height="1.28"/>
            <rect class="cls-8" x="346.42" y="77.16" width="1.34" height="1.33" transform="translate(268.71 424.79) rotate(-89.91)"/>
            <rect class="cls-8" x="331.53" y="55.78" width="1.28" height="1.32"/>
            <rect class="cls-8" x="332.82" y="46.71" width="1.31" height="1.29"/>
          </g>
        </g>
        <g>
          <g>
            <path class="cls-16" d="M15.57,521.55l11.98-79.31,80.42-4.11,195.5-10.53,95.61-5.35c.8-.04,1.28.18,1.66.4s.79.91.64,1.85l-15.23,94.14-94.91.88-275.67,2.03Z"/>
            <polygon class="cls-12" points="383.57 515.91 18.84 518.63 30.02 445.17 398.16 425.26 383.57 515.91"/>
          </g>
          <g>
            <path class="cls-8" d="M376.22,493.17c-1.06-.93-1.84-1.77-2.71-2.8-.25-.98.35-1.97-.42-3.02-.32,1.24-.13,1.89-.98,2.55-.75.58-1.32,1.19-2.39.86-.2.41-.44.65-.77.7-.49.07-.65-.18-.76-.73-1.08.29-1.59-.09-2.25-.69-.7-.64-1.13-1.29-.83-2.39-.55-.11-.72-.25-.75-.62-.05-.58.16-.75.74-.84-.18-1.06,0-1.76.74-2.43.66-.61,1.27-.92,2.29-.81.17-.33.44-.65.7-.66.4-.02.66.3.92.68,4.21.04,2.38,3.82,4.22,3.89.57-1.17,1.72-1.72,2.37-2.59.66.03,1.23.03,1.9-.13-1.1-.97-1.93-1.82-2.81-2.82-.21-.97.37-1.95-.41-3.01-.31,1.35-.06,1.8-.92,2.48-.79.63-1.25,1.18-2.39.91-.17.47-.45.7-.86.7-.37,0-.65-.27-.85-.68-1.03.1-1.52-.12-2.17-.76-.7-.69-1.01-1.18-.86-2.27-.43-.19-.68-.48-.68-.87s.26-.64.7-.9c-.02-3.86,3.48-2.41,4.05-4.22-1.73.25-2.44-1.57-3.01-2.48-1.17-1.86.42-4.13,1.79-5.31.65,0,1.59-.43,1.7-1.2-.8-.44-1.34-1.35-1.69-2.27-.99-2.65,1.53-5.3,4.53-5.89-1.6-.62-2.66-1.51-3.24-3.18-1-2.87,1.8-5.62,5.08-5.9-1.91-.73-3.35-2.4-3.36-4.26,0-2.58,2.1-4.03,4.67-4.9-2.32-.61-4.04-3.26-3.2-5.36s2.38-3.25,4.54-3.52l-1.7-1.78,6.8-.04c-.92,1.73-2.21,2.1-4.17,2.08,4.29,2.16,1.84,2.88,3.61,3.16.59.1,1.18-2.45,3.81-2.07-.68-.87-1.22-1.4-1.97-2.06-.15-.42-.13-1.09-.03-1.77h12.68c.23,0,.32.48.22.53l-.57.25c-.39,1.4.39,3.23-.33,4.3-1.13,1.15.27,2.81-.74,4-.92,1.07.37,2.8-.63,3.88s.35,2.81-.64,3.88.3,2.75-.66,3.93c-.97,1.19.35,3.26-.57,4.44-1.08,1.19.29,2.89-.72,3.98s.32,2.79-.66,3.91.36,2.81-.63,3.88c-.99,1.07.33,2.78-.66,3.92s.32,3.22-.59,4.42c-1.02,1.15.29,2.87-.65,3.91-1.04,1.15.3,2.86-.7,3.95s.31,2.76-.67,3.95.4,3.25-.6,4.38.32,2.87-.66,3.94.3,2.81-.63,3.88.3,2.83-.62,3.88c-1.04,1.18.31,2.82-.73,4.01-.98,1.17.37,3.22-.61,4.44s.33,2.81-.64,3.92c-.86.97.01,2.6-.4,3.82-.2.08-.6.15-.6.33l.03,1.03h-14.26c-.24-2.88,1.89-4.65,4.69-5.43-2.3-.7-4.04-3.22-3.24-5.33s2.38-3.3,4.57-3.61l-2.7-2.66c-.46-.94.52-2.23-.55-3.3-.23,1.21-.19,1.96-.93,2.67s-1.26,1.07-2.46.79c-.03.58-.21.72-.57.74-.49.03-.75-.12-.78-.71-1.11.17-1.62,0-2.37-.72-.7-.67-1.11-1.26-.89-2.36-.38-.18-.64-.43-.66-.7-.03-.43.21-.71.65-.9-.13-1.06.13-1.61.81-2.27.77-.73,1.32-1.02,2.45-.79.02-.65.28-.71.78-.73.43-.02.53.23.6.79,1.18-.33,1.63-.03,2.34.67.64.63.96,1.4.85,2.33.36.15.68.51.92.93,1.14-1.15,2.03-2.7,3.75-2.91ZM392.48,433.19l2.02-1.97-1.89-2.21c-.42,1.15-1.14.71-2.43.91l1.93,2.02.36,1.25ZM385.36,438.73c-1.41-1.28-2.42-2-2.29-3.99-1.26,1.78-2.64,2.47-4.61,3.19,3.49,1.03,2.45,2.91,3.29,2.97,1.39.09,1.27-2.01,3.6-2.17ZM391.19,442.36c.94-1.04,1.2-1.63,2.48-1.71-1.3-.81-1.36-2.05-2.37-3.19-.54,1-1.32,1.48-2.51,1.63,1.16,1.16,2.23,1.67,2.4,3.28ZM384.07,447.84l-2.18-2.22c.01-.61.12-1.31-.35-1.67-1.2,1.86-2.79,2.77-5.06,2.9,4.43,2.3,1.56,2.18,4.03,3.82-.24-1.88,1.93-2.41,3.56-2.83ZM389.39,451.46c.6-1.14,1.19-1.51,2.45-1.67-.48-1.22-1.03-2.19-1.77-3.35-.87,1.31-1.54,1.7-3.17,1.64l1.5,1.53c.09.76.49,1.1.99,1.83ZM381.19,457.52c.14-.99,1.24.1,1.45-1.03-.75-.06-1.18-.1-1.54-.48-.45-.46-.59-.7-.48-1.46-.34-.1-.67-.27-.66-.48.02-.34,0-.58-.21-1.15-1.16,1.73-2.61,2.42-4.55,3.2,1.64.33,2.8,1.52,2.99,2.82l1.02.88c.11-.92.08-1.14.6-1.63.35-.32.82-.46,1.39-.67ZM388.64,459.13c.42-.22,1.18-.01,1.12-.85-.03-.41-.26-.47-.61-.9-.14-.31-.13-.96-.42-1.18-.41-.32-.59-.74-.94-.1l-2.78,1.35c1.44.33,2.06,1.07,2.23,2.14.24.16.55.41.67.55.19.21.54-.08.5-.29-.02-.14.08-.64.24-.72ZM377.18,468.85c.23-2.02,2.22-2.58,4.23-3-2.17-.45-2.57-2.4-2.99-4.45-.58,1.22-1.25,2.67-2.52,2.79-.35.18-.88.73-1.23,1.05.9.57,1.72,1.09,1.37,2.1.4.15.66.27.72.48.08.32-.38.7.42,1.03ZM386.22,469.49c.74-1.23,1.57-2.12,2.98-2.19-.53-.68-.8-.97-.87-1.52-.2-.17-.58-.34-.58-.55,0-.28-.04-.72-.17-1.23-1.17,1.54-2.63,2-4.56,2.42,1.31.5,2.28,1.03,2.19,2.21l1.01.87ZM375.89,477.72c.26-.57,3.36-3.41,3.42-2.57l-.04-.51c.04.53-3.15-1.07-2.47-4.48-.22-.19-.65-.3-.68-.13-.39,2.61-2.35,2.73-4.72,3.61,4.83.7,2.45,3.58,4.49,4.07ZM384.91,478.56c.63-1.13,1.67-2.09,3.02-2.28-1.22-1-2.16-1.72-2.39-3.23-1.02,1.32-2.21,2.03-3.76,2.32l3.13,3.18ZM382.96,487.71c.97-1.46,1.74-2.48,3.55-2.22l-2.07-2.23c-.02-3.31-1.87,1.85-4.69,1.11,1.26,1.17,2.21,2.2,3.21,3.34ZM381.62,496.74c2.44-3.02,2.16-1.74,2.85-2.14s-2.44-1.36-2-3.95l-2.89,2.75h-.86c-.7.01,2.55,2.67,2.9,3.34ZM379.87,506.46c.1-1.05.02-1.19.61-1.69.36-.3.75-.39,1.31-.52.12-.96,1.11-.17,1.61-.81-1.34-1.04-2.46-1.95-2.24-3.75l-2.81,2.68c-.73.26-1.65-.22-2.41.41,1.48.4,2.78,1.47,2.9,2.71l1.04.96ZM378.66,514.32l2.82-1.83c-.81-.55-1.72-1.07-1.51-1.99-.18-.22-.66-.36-.65-.59.01-.31-.01-.67-.22-1.21-1.08,1.75-2.55,2.35-4.51,3.19,2.45-.12,3.99,5.19,4.05,3.3l.03-.86Z"/>
            <path class="cls-8" d="M372.69,428.21c1.47,1.64.82,5.26-.14,6-1.75,1.36-5.19.99-6.02-.13-1.34-1.82-1.17-4.88.17-6.03,1.67-1.44,4.98-.97,5.99.16Z"/>
            <path class="cls-8" d="M368.75,502.07c1.38,1.31,1.04,5.01-.05,6-1.42,1.29-5.02,1.16-6-.03-1.32-1.59-1.32-4.73.04-6.03,1.46-1.4,4.7-1.2,6.01.06Z"/>
            <path class="cls-8" d="M371.16,443.28c-1.59,1.36-4.75,1.12-5.91-.17-1.44-1.61-1.07-4.83.18-6,1.41-1.31,5-1,5.87.13,1.37,1.78,1.23,4.86-.15,6.03Z"/>
            <path class="cls-8" d="M369.25,446.26c1.46,1.34,1.39,4.78.02,6.02-1.23,1.11-3.91,1.41-5.59.17-1.77-1.31-1.77-5.02,0-6.34s4.4-.92,5.57.15Z"/>
            <path class="cls-8" d="M366.86,462.14c-.97.13-2.39.11-3.45.06l-2.18-2.09c-.08-1.08-.1-2.52.04-3.56l2.03-2.01c1.04-.18,2.55-.15,3.59,0l1.94,2.04c.22.98.16,2.5.06,3.53-.75.67-1.27,1.21-2.04,2.04Z"/>
            <path class="cls-8" d="M364.87,471.11c-.91.5-2.54.24-3.51.07-2.35-1.5-2.96-4.36-1.34-6.29,1.61-1.92,4.57-1.98,6.25.03,1.51,1.81,1.12,4.81-1.4,6.19Z"/>
            <path class="cls-8" d="M360.08,480.3l-2.08-2.06c-.15-.95-.12-2.42-.04-3.43l2.13-2.14c1.05-.1,2.54-.09,3.49.02,1.46,1.43,2.21,2.04,2.22,3.74.02,1.8-.7,2.43-2.23,3.88-.92.11-2.48.16-3.49-.01Z"/>
            <path class="cls-8" d="M358.9,499.97c1.87,1.34,2.67,2.52,2.29,4.66-.29,1.66-2.14,3.07-3.73,3.11-1.88.05-3.57-1.15-4.01-2.89-.55-2.16.31-3.53,2.08-4.85.93-.24,2.43-.26,3.36-.03Z"/>
            <path class="cls-8" d="M356.22,487.34c-.51-.87-.3-2.56-.05-3.49,1.51-2.37,4.18-3.02,6.17-1.41s2.04,4.58.17,6.16-4.76,1.31-6.29-1.25Z"/>
            <path class="cls-8" d="M361.51,517.25c-1.64-2-1.21-4.89,0-6.2.78-.86,1.98-.82,3.03-.87,1.65-.08,2.87.48,3.57,2.12.43,1,.11,2.52.19,3.76-.35.11-.62.17-.63.32l-.1.91c-1.98.08-4.26.16-6.05-.03Z"/>
            <path class="cls-8" d="M360.29,490.9c1.74,1.43,2.62,2.65,2.16,4.73-.38,1.7-2.12,3.07-3.87,3.06s-3.39-1.26-3.83-2.93c-.55-2.11.35-3.42,2.07-4.82.96-.26,2.48-.23,3.47-.04Z"/>
            <path class="cls-8" d="M356.03,444.29c2.07-.75,4.13.46,4.92,2.42s-.42,4.14-2.44,4.98c-1.9.79-4.11-.47-4.9-2.44s.33-4.2,2.42-4.96Z"/>
            <path class="cls-8" d="M359.04,514.05c-.78,1.71-2.3,2.85-4.19,2.62-1.75-.22-3.14-1.63-3.37-3.37-.25-1.9.91-3.42,2.61-4.19,1.31-.59,2.88-.05,3.91.96s1.64,2.67,1.04,3.99Z"/>
            <path class="cls-8" d="M362.93,440.15c-.78,1.71-2.3,2.85-4.19,2.62-1.75-.22-3.14-1.63-3.37-3.37-.25-1.9.91-3.42,2.61-4.19,1.31-.59,2.88-.05,3.91.96s1.64,2.67,1.04,3.99Z"/>
            <path class="cls-8" d="M357.28,460.64c-1.27.9-3.64-.07-4.44-1.33-1.11-1.75-.98-3.49.38-4.93s3.13-1.58,4.89-.55c1.24.73,2.39,3.16,1.45,4.47-.44.62-.24,1.09-.73,1.49-.52.42-.94.42-1.55.85Z"/>
            <path class="cls-8" d="M352.79,469.78c-1.52-.67-2.65-1.93-2.67-3.64s1.17-2.94,2.65-3.68c1.38-.69,3.37.05,4.24,1.25,1.18,1.61,1.21,3.03.19,4.65-.84,1.32-2.94,2.07-4.41,1.43Z"/>
            <path class="cls-8" d="M355.62,477.27c.04-.06-2.91,2.19-4.32.69-.4-.42-.96-.01-1.37-.62-.32-.47-.35-.9-.78-1.48-.83-1.13,0-3.5,1.16-4.28,1.75-1.18,3.02-1.21,4.8-.06,1.17.75,2.1,3.18,1.22,4.34-.4.53-.44,1.01-.71,1.4Z"/>
            <path class="cls-8" d="M355.15,484.76c-.74,1.7-2.21,2.92-4.04,2.74s-3.13-1.56-3.46-3.21c-.39-1.91.9-3.62,2.51-4.32,1.33-.58,2.94-.1,3.95.95.97,1.01,1.6,2.58,1.05,3.84Z"/>
            <path class="cls-8" d="M353.15,493.94c-.68,1.35-1.09,1.71-2.34,2.37s-2.92.18-3.96-.89-1.59-2.7-.99-3.95c.65-1.34,1.06-1.75,2.4-2.4,1.26-.61,2.81-.05,3.88.91,1.08.97,1.63,2.71,1,3.95Z"/>
            <path class="cls-8" d="M349.61,505.35c-1.35.7-2.92.19-4.11-.89-1.04-.95-1.51-2.74-.92-3.97.64-1.32.94-1.58,2.29-2.28,1.25-.65,2.87-.21,4.02.89.96.92,1.48,2.7.95,3.83-.66,1.4-.98,1.77-2.23,2.42Z"/>
            <path class="cls-8" d="M356.87,431.58c-.61-.99-.02-2.31-.26-3.65l4.42-.08c.21-1.02,1.22-.52,2.04-.65.52-.08,1.2.74,1.32,1.38.38,2.19-.25,4.02-2.24,4.9s-4.04.12-5.28-1.9Z"/>
            <path class="cls-8" d="M345.95,514.53c-1.73-.35-2.94-1.58-3.08-2.78-.05-.24-.6-.55-.58-.78.04-.33.33-.67.6-.9.1-1.19,1.36-2.69,2.64-2.49-.24-1.52,3.69.13,4.38,2.91.46,1.82-2.14,4.42-3.97,4.05Z"/>
            <path class="cls-8" d="M349.84,440.63c-1.73-.35-2.94-1.59-3.08-2.78-.05-.25-.61-.55-.58-.78.04-.33.34-.67.59-.9.11-1.18,1.36-2.69,2.65-2.49-.25-1.52,3.68.13,4.38,2.91.46,1.82-2.14,4.42-3.97,4.05Z"/>
            <path class="cls-8" d="M347.47,449.37c-1.25.03-2.7-1.38-2.58-2.67-.6-.1-.63-.31-.63-.8,0-.3.33-.48.61-.65.08-1.16,1.39-2.65,2.52-2.56.35-1.52,4.56,1.16,4.19,2.61.37.16.6.5.53.8-.04.2-.3.46-.58.68.1,1.28-1.42,2.52-2.63,2.61-.13.46-.28.56-.59.59-.45.03-.66-.08-.85-.61Z"/>
            <path class="cls-8" d="M347.61,458.47c-.19.34-.42.59-.72.59-.24,0-.55-.37-.76-.61-1.17.03-2.52-1.49-2.6-2.55-.12-.19-.52-.45-.58-.65-.08-.26.29-.68.55-.87.16-1.16,1.39-2.62,2.7-2.61.18-.38.4-.58.7-.61.24-.02.56.44.78.57,1.09.16,2.62,1.42,2.56,2.67.39.19.59.4.6.72,0,.24-.35.55-.59.75-.09,1.19-1.44,2.59-2.65,2.59Z"/>
            <path class="cls-8" d="M348.17,461.74c1.03,1.01,1.06,3.59-.04,4.92-1.03,1.25-3.96,1.11-4.96.06-.74-.78-.95-1.2-.86-2.36.09-1.22-.16-1.86.71-2.61,1.4-1.2,3.88-1.27,5.15-.02Z"/>
            <path class="cls-8" d="M342.88,488.9c1.19,1,1.26,3.7-.02,5.06-.82.88-1.5.69-2.71.76s-1.55-.16-2.34-.96-.62-1.31-.67-2.46c-.06-1.26.05-1.6.83-2.43.99-1.05,3.56-1.09,4.9.03Z"/>
            <path class="cls-8" d="M346.22,470.88c1,1.08,1.17,3.53-.07,4.87-.87.94-1.45.73-2.74.8-1.21.07-1.51-.14-2.37-.93-.96-.89-1.07-3.35.14-4.84.79-.98,1.46-.73,2.68-.8s1.58.07,2.36.91Z"/>
            <path class="cls-8" d="M344.81,484.86c-.92.99-3.45,1.29-5.05-.2-.87-.8-.58-1.49-.68-2.72-.09-1.17.33-1.44,1-2.23s3.29-1.18,4.83.22c1.02.93,1.22,3.49-.1,4.92Z"/>
            <path class="cls-8" d="M341.62,498.01c1.1,1.21,1.06,3.97.12,4.81-.82.73-1.05,1.05-2.23.95-1.3-.1-1.96.15-2.81-.72-1.25-1.28-1.18-3.73.04-5.15.81-.95,3.73-1.16,4.89.11Z"/>
            <path class="cls-8" d="M340.84,447.98c-2.01.43-4.2-.5-4.32-2.34-.1-1.58-.15-2.49.85-3.43.93-.87,1.95-.81,3.49-.69,1.44.11,2.25,1.82,2.26,3.16,0,1.47-.62,2.94-2.28,3.3Z"/>
            <path class="cls-8" d="M341.03,452.72c.2,1.59.19,2.62-.66,3.5-.97,1-1.84.93-3.42.85-1.8-.09-2.72-2.2-2.4-4.09.26-1.52,1.62-2.48,3.04-2.51s3.23.6,3.44,2.25Z"/>
            <path class="cls-8" d="M339.63,507.07c1.2,1.11,1.08,3.96.1,4.91-1.3,1.25-3.85,1.17-4.99.09-1.23-1.16-1.06-3.98-.1-4.9,1.29-1.24,3.83-1.18,5-.1Z"/>
            <path class="cls-8" d="M343.52,433.16c1.2,1.11,1.08,3.96.1,4.91-1.3,1.25-3.85,1.17-4.99.09-1.23-1.16-1.06-3.98-.1-4.9,1.29-1.24,3.83-1.18,5-.1Z"/>
            <path class="cls-8" d="M333.4,468.93c1.75-.69,3.58.16,4.26,1.86s-.17,3.55-1.92,4.28c-1.52.62-3.53-.21-4.2-1.85s.08-3.59,1.86-4.29Z"/>
            <path class="cls-8" d="M332.16,477.34c1.72-.68,3.52.24,4.2,1.89s-.22,3.56-1.9,4.23-3.49-.2-4.19-1.81c-.71-1.64.07-3.59,1.89-4.31Z"/>
            <path class="cls-8" d="M335.29,459.85c1.87-.66,3.56.1,4.31,1.84.66,1.53-.16,3.61-1.73,4.22-1.8.7-3.64-.06-4.33-1.66s-.01-3.78,1.75-4.4Z"/>
            <path class="cls-8" d="M327.63,496.15c.15-.24.68-.14.9-.2.19-.04.25-.38.35-.58,1.86-.45,3.38.35,4.15,1.83s0,3.29-1.37,4.17-3.06.42-4.24-.85-.56-3.16.21-4.37Z"/>
            <path class="cls-8" d="M330.19,486.44c1.65-.66,3.52.21,4.17,1.8.69,1.7-.1,3.58-1.78,4.27s-3.6-.15-4.25-1.79c-.66-1.68.12-3.59,1.86-4.29Z"/>
            <path class="cls-8" d="M332.46,437.01c-2.47.06-3.78-2.36-3.81-3.2-.04-1.12,1.55-3.38,3.48-3.38,1.42,0,3.12,2.06,3.16,3.22.05,1.5-2.04,3.35-2.84,3.37Z"/>
            <path class="cls-8" d="M328.57,510.91c-2.47.06-3.78-2.35-3.81-3.2-.04-1.12,1.55-3.38,3.48-3.38,1.42,0,3.12,2.06,3.16,3.22.05,1.5-2.04,3.35-2.84,3.37Z"/>
            <path class="cls-8" d="M332.73,445.02c-.8.91-1.12,1.12-2.34,1.09-.86-.03-3.07-1.78-3-3.47.05-1.2,1.66-3,3.31-3.15,1.16-.11,3.18,1.67,3.32,3.32.1,1.15-.57,1.4-1.3,2.22Z"/>
            <path class="cls-8" d="M332.08,452c0,1.12-1.97,3.27-3.55,3.18-.79-.05-3.14-1.62-3.09-3.5.02-.94,1.71-3.04,3.41-3.13,1.09-.06,3.22,1.95,3.23,3.45Z"/>
            <path class="cls-8" d="M330.76,461.03c.01,1.25-1.95,3.27-3.46,3.2-.96-.04-3.13-1.68-3.13-3.37,0-1.33,2.01-3.19,3.29-3.21,1.17-.02,3.29,1.71,3.3,3.37Z"/>
            <path class="cls-8" d="M326.4,472.78c-.2.18-.41.56-.79.55-.59-.01-.8-.16-.96-.64-.61-.08-.89-.09-1.28-.5-.41-.43-.46-.72-.6-1.34-.25-.18-.54-.44-.55-.8-.01-.43.32-.66.6-.86-.48-1.37,2.87-2.48,2.6-2.47.08,0,3.19,1.09,2.81,2.46.23.22.59.45.58.88-.01.4-.34.65-.59.86-.09.63-.16.89-.57,1.29-.37.36-.7.38-1.25.58Z"/>
            <path class="cls-8" d="M325.07,481.79c-.24.34-.5.59-.88.62.26-.02-3.16-1.05-2.65-2.55-.4-.13-.64-.34-.63-.78s.2-.68.66-.77c.02-.67.07-.92.46-1.32.43-.44.74-.49,1.36-.59.16-.35.36-.62.79-.62.48,0,.68.19.77.66,1.52-.6,2.55,2.9,2.57,2.61-.03.4-.27.65-.62.89.05.95-.89,1.87-1.83,1.83Z"/>
            <path class="cls-8" d="M323.08,490.86c-.2.21-.52.54-.75.6.05-.01-1.94-.89-2.2-1.13s-1.2-2.53-1.16-2.09c-.03-.34.4-.7.58-.92.16-.49.2-.94.52-1.24.44-.43.77-.57,1.35-.61.18-1.28,3.04.53,2.97.46.41.47.54.75.5,1.46.4.13.67.3.68.68.02.52-.17.72-.63.82-.07.66-.12.99-.47,1.4-.39.47-.79.52-1.39.56Z"/>
            <path class="cls-8" d="M321.75,499.85c-.14.38-.31.68-.64.7-.57.05-.73-.25-.85-.69-.75.03-1.04-.02-1.49-.52-.35-.39-.38-.76-.46-1.42-.43-.11-.65-.31-.62-.83.02-.33.32-.52.67-.65.02-.65.08-.92.49-1.35-.1.11,2.87-1.94,2.91-.57.97.07,1.98.92,1.91,1.94.37.17.66.5.62.82-.04.25-.44.57-.55.78-.18.47-.23.96-.54,1.25-.5.47-.67.67-1.43.56Z"/>
            <path class="cls-8" d="M319.78,508.94c-.13.31-.35.71-.73.68-.3-.02-.59-.42-.77-.63-.51-.12-.99-.13-1.34-.51-.42-.45-.56-.75-.52-1.45-.31-.14-.67-.37-.68-.73s.38-.58.67-.73c0-.63.12-.98.45-1.35.45-.49.73-.57,1.48-.51.11-.3.3-.65.54-.69.42-.08.75.24.8.62.64.08,1.05.09,1.43.49.45.47.59.7.49,1.48.41.09.71.25.72.68,0,.4-.32.55-.69.68.02.67,0,1.06-.44,1.44s-.72.57-1.43.52Z"/>
            <path class="cls-8" d="M323.63,435.08c-.1.33-.34.65-.69.64-.3,0-.57-.35-.71-.64-.59-.06-1.03-.13-1.4-.5-.44-.43-.55-.79-.53-1.44-.28-.16-.66-.39-.67-.74-.01-.37.37-.57.68-.73-.07-.72.19-1.06.63-1.54.47-.51,3.59-.36,3.86-.1.54.53.92.85.7,1.69.45.12.72.25.73.69.01.41-.31.56-.7.67.05.75,0,1.07-.51,1.52-.39.34-.74.45-1.39.49Z"/>
            <path class="cls-8" d="M323.73,439.34c.81.83.74,3.59.06,4.27-.83.82-3.6.73-4.27.05-.83-.83-.72-3.59-.06-4.26.8-.81,3.59-.76,4.27-.06Z"/>
            <path class="cls-8" d="M321.95,452.6c-.77.93-3.89.78-4.47.09-.66-.78-.65-3.54.01-4.21.79-.79,3.61-.71,4.28-.1.86.78.65,3.65.18,4.22Z"/>
            <path class="cls-8" d="M320.5,457.46c.71.92.7,3.48.01,4.34-.52.65-3.4.74-4.27-.05-.75-.68-.7-3.48,0-4.22s3.8-.67,4.27-.07Z"/>
            <path class="cls-8" d="M318.55,466.61c.74.8.73,3.47,0,4.24s-3.17.75-4.14.03c-.9-.66-.82-3.73-.07-4.25,1.16-.81,3.52-.76,4.2-.02Z"/>
            <path class="cls-8" d="M315.34,484.12c.7.72.71,3.51,0,4.22-.78.78-3.58.74-4.26.01-.73-.79-.72-3.45,0-4.23.68-.73,3.5-.77,4.25,0Z"/>
            <path class="cls-8" d="M317.15,475.59c.93.67.82,3.61.11,4.28-.9.84-3.74.78-4.27.01-.67-.96-.64-3.53-.02-4.17.75-.78,3.42-.67,4.18-.12Z"/>
            <path class="cls-8" d="M320.35,517.32h-5.23c0-1.33-.05-2.67.08-3.62.77-1.34,4.26-1.34,5.06-.01.12.93.08,2.15.09,3.63Z"/>
            <path class="cls-8" d="M309.17,501.83c1.51-.5,2.93.48,3.34,1.67.53,1.54-.41,2.95-1.71,3.4-1.43.5-2.85-.35-3.35-1.58-.6-1.48.23-3.01,1.72-3.5Z"/>
            <path class="cls-8" d="M310.76,492.93c1.33-.74,2.83-.06,3.55,1.24s.07,2.79-1.25,3.53c-1.24.7-2.78.1-3.52-1.15s-.2-2.83,1.23-3.63Z"/>
            <path class="cls-8" d="M304.97,473.49c1.32-.74,2.73-.01,3.49,1.26.8,1.34.03,2.7-1.32,3.51-1.21.72-2.58.02-3.43-1.19s-.16-2.78,1.26-3.57Z"/>
            <path class="cls-8" d="M308.78,455.1c1.39-.38,2.71.83,3.1,1.97.48,1.43-.72,2.84-1.86,3.19-1.56.48-2.94-.62-3.29-1.88-.41-1.49.64-2.89,2.05-3.28Z"/>
            <path class="cls-8" d="M309.5,446.26c1.28-.72,2.81-.1,3.51,1.23.68,1.29.06,2.78-1.33,3.57-1.21.69-2.56.01-3.41-1.25-.79-1.17-.23-2.73,1.23-3.55Z"/>
            <path class="cls-8" d="M307.52,511.07c1.2-.73,2.8-.06,3.49,1.17.75,1.33.15,2.82-1.16,3.58s-2.66.17-3.5-1.11c-.8-1.21-.29-2.75,1.18-3.64Z"/>
            <path class="cls-8" d="M311.41,437.17c1.2-.73,2.8-.06,3.49,1.17.75,1.33.15,2.82-1.16,3.58s-2.66.17-3.5-1.11c-.8-1.21-.29-2.75,1.18-3.64Z"/>
            <path class="cls-8" d="M306.24,464.42c1.31-.79,2.69-.09,3.49,1.2s.09,2.75-1.18,3.54-2.66.11-3.48-1.12-.27-2.75,1.17-3.62Z"/>
            <path class="cls-8" d="M302.99,482.59c1.3-.82,2.62-.08,3.5,1.2.78,1.15.05,2.76-1.2,3.5s-2.63.1-3.42-1.05c-.88-1.28-.38-2.71,1.12-3.65Z"/>
            <path class="cls-8" d="M301.74,491.63c1.22-.77,2.73,0,3.45,1.25.75,1.3.04,2.7-1.16,3.46-1.33.84-2.61.15-3.48-1.08s-.26-2.71,1.19-3.63Z"/>
            <path class="cls-8" d="M298.47,509.81c1.21-.78,2.66-.02,3.48,1.2s.03,2.71-1.21,3.46-2.6.17-3.39-1.02c-.86-1.27-.37-2.69,1.12-3.65Z"/>
            <path class="cls-8" d="M302.36,435.91c1.21-.78,2.66-.02,3.48,1.2.82,1.22.03,2.71-1.21,3.46s-2.6.17-3.39-1.02c-.86-1.27-.37-2.69,1.12-3.65Z"/>
            <path class="cls-8" d="M300.8,500.58c1.44-.53,2.72.54,3.23,1.71.6,1.4-.51,2.79-1.77,3.31s-2.71-.47-3.22-1.72.33-2.77,1.77-3.3Z"/>
            <path class="cls-8" d="M300.46,444.97c1.4-.83,2.58.02,3.42,1.29.78,1.18-.02,2.69-1.28,3.49s-2.61-.04-3.39-1.27c-.73-1.16-.15-2.67,1.25-3.5Z"/>
            <path class="cls-8" d="M329.95,517.35h-6.29c-.52-1.47.41-2.22,1.3-3.12.77-.78,2.29-1.24,3.12-.45,1.16,1.09,2.54,1.89,1.87,3.57Z"/>
            <path class="cls-8" d="M352.26,431.19c-.19,1.87-4.82-1.35-4.15-2.61l1.12-.02c.21,0,.28-.35.42-.68l5.8.04c-.87,1.4-1.4,3.45-3.18,3.27Z"/>
            <path class="cls-8" d="M300.2,467.28c.02-.19-1.76.85-1.81.85-.58.05-.77-.27-1.05-.62l-.89-.15c.36.06-.82-1.73-.83-1.8.01.11.99-2.57,1.64-2.11.3-.23.62-.59.95-.62.39-.03,2.11,1.19,1.94.86.09.17.06.72.17.88.2.27.64.48.65.79,0,.59-.22.79-.66,1.02l-.1.9Z"/>
            <path class="cls-8" d="M302.16,458.2c.05-.23-1.89.86-1.93.87-.81.06.22-.21-1.86-.8-.19-.05,0-.83-.14-.98-.18-.2-.62-.49-.67-.78-.08-.51.39-.78.66-1.01-.65-.97,2.45-1.75,2.01-1.73.07,0,2.05,1.14,1.9.78.08.19-.01.8.13.95.23.24.64.42.65.86.05,2.01-.04-1.18-.76,1.85Z"/>
            <path class="cls-8" d="M297.93,476.58c-.27.06-.5.66-.79.66-.67-.01-.81-.24-1.02-.71l-.98-.07c-.2-.02,0-.79-.14-.94-.22-.24-.64-.49-.67-.79-.06-.58.27-.82.67-1.03l.1-.96c-.08.75,2.34-2.03,2.71-.14l1,.04c-.24-.01.82,1.79.83,1.92.06,1.09-.58-.03-.71,1.75-.01.2-.55.16-1,.26Z"/>
            <path class="cls-8" d="M297.7,484.47c.64.96-2.33,1.87-1.97,1.82-.47.07-.11-.25-1.84-.8.21.07-.86-1.95-.82-1.75-.08-.37.54-.69.6-1.02l.16-.95c-.07.42,1.76-.79,1.91-.79-.39,0,1.63.69,1.8.75.22.07,0,.85.15,1.03.27.29.65.47.68.8.07.62-.37.65-.66.91Z"/>
            <path class="cls-8" d="M294.39,502.87c.01-.28-1.8.92-1.95.93-.48.03-.62-.62-.97-.68l-.91-.18c-.18-.03.02-.83-.12-.99-.22-.24-.65-.48-.68-.77-.07-.58.44-.66.66-.89.14-.15.03-.79.1-.99-.12.34,1.91-.82,1.91-.82.44-.01.63.37.88.62.15.15.77.04.97.12.23.09-.04.9.17,1.06,1.61,1.24.02.6-.07,2.58Z"/>
            <path class="cls-8" d="M296.4,491.99c-.03-.27-1.21,2.71-.79,1.85.14-.28-2.1.97-1.75.89.18-.04-2.66-1.24-1.87-.82.18.1-.93-2.08-.87-1.76.04.2,1.12-2.51.79-1.85-.13.26,1.97-.89,1.78-.89-.32,0,2.7,1.28,1.85.81-.3-.16.88,1.93.86,1.78Z"/>
            <path class="cls-8" d="M292.42,511.96c.02-.21-2.02.91-1.81.89-.16.02-2.01-1.14-1.94-.8l-.19-1.03-.61-.7c.09.1.69-1.52.8-1.83-.1.29,1.88-.95,1.73-.93-.02,0,2.72,1.41,1.89.86-.28-.19.87,1.98.88,1.78-.04,1.08-.54-.44-.75,1.78Z"/>
            <path class="cls-8" d="M296.3,438.06c.02-.21-2.02.91-1.81.89-.16.02-2.01-1.14-1.94-.8l-.19-1.03-.6-.7c.04.05.57-1.19.79-1.84-.1.29,1.88-.95,1.74-.93.08,0,2.61,1.46,1.88.85-.3-.25.87,2,.88,1.78-.05,1.1-.53-.45-.75,1.78Z"/>
            <path class="cls-8" d="M286.76,470.84c.92-.43,2.5-.41,2.93.6.38.88.4,2.54-.64,3-.83.37-2.4.34-2.92-.62-.44-.81-.47-2.45.63-2.97Z"/>
            <path class="cls-8" d="M285.99,479.7c1.26-.16,2.39.14,2.57,1.25.21,1.28-.03,2.53-1.23,2.68-1.26.16-2.54-.03-2.69-1.26s.08-2.51,1.34-2.67Z"/>
            <path class="cls-8" d="M291.28,443.62c.94-.46,2.55-.39,2.96.6.39.92.39,2.5-.61,2.98-.83.4-2.48.38-2.92-.55s-.49-2.51.57-3.02Z"/>
            <path class="cls-8" d="M288.63,461.81c.91-.44,2.56-.48,3.01.52.37.82.42,2.47-.56,3-.84.45-2.34.37-2.89-.45-.5-.75-.64-2.55.44-3.07Z"/>
            <path class="cls-8" d="M290.5,452.46c1.24-.15,2.43.16,2.6,1.25.2,1.27,0,2.58-1.24,2.7s-2.53.06-2.68-1.33c-.12-1.12.06-2.46,1.32-2.62Z"/>
            <path class="cls-8" d="M283.48,489.03c.93-.45,2.56-.4,2.98.58s.37,2.41-.66,2.96c-.82.44-2.29.37-2.84-.55-.47-.79-.54-2.47.51-2.98Z"/>
            <path class="cls-8" d="M316.37,429.83c.59,1.56-.66,3.03-2.13,3.29s-3.28-1.1-2.99-2.63c.87-.14,1.85.49,2.03-.63l3.09-.03Z"/>
            <path class="cls-8" d="M282.85,442.35c.9-.43,2.48-.42,2.93.52.41.88.4,2.48-.54,2.98-.87.46-2.34.4-2.9-.49-.5-.79-.59-2.48.51-3.01Z"/>
            <path class="cls-8" d="M280.24,507.18c.91-.5,2.4-.41,2.94.55.46.81.47,2.43-.56,2.94-.78.38-2.36.45-2.89-.45-.45-.77-.54-2.47.51-3.04Z"/>
            <path class="cls-8" d="M284.12,433.28c.91-.5,2.4-.41,2.94.55.46.81.47,2.43-.56,2.94-.78.38-2.36.45-2.89-.45-.45-.77-.54-2.47.51-3.04Z"/>
            <path class="cls-8" d="M279.6,460.51c.91-.48,2.42-.42,2.93.55.44.84.43,2.44-.56,2.93-.83.41-2.31.43-2.89-.47-.49-.76-.55-2.46.52-3.01Z"/>
            <path class="cls-8" d="M282.72,497.89c1.27-.24,2.41.17,2.61,1.25.22,1.2-.09,2.4-1.2,2.64s-2.36-.05-2.63-1.1c-.33-1.24.04-2.56,1.22-2.79Z"/>
            <path class="cls-8" d="M277.69,469.59c.96-.47,2.49-.39,2.94.65.4.92.33,2.28-.64,2.82-.87.48-2.33.42-2.91-.63-.41-.75-.42-2.33.62-2.84Z"/>
            <path class="cls-8" d="M276.97,478.43c1.29-.18,2.35.27,2.54,1.41s-.2,2.32-1.4,2.5c-1.12.17-2.28-.12-2.49-1.24-.24-1.25.12-2.5,1.35-2.67Z"/>
            <path class="cls-8" d="M281.49,451.21c1.29-.2,2.36.25,2.53,1.41s-.19,2.34-1.39,2.52c-1.1.17-2.29-.16-2.5-1.26-.25-1.25.12-2.49,1.36-2.68Z"/>
            <path class="cls-8" d="M274.45,487.74c.89-.51,2.36-.38,2.91.59.47.83.4,2.36-.55,2.85-.86.44-2.32.49-2.89-.42-.5-.79-.55-2.4.52-3.02Z"/>
            <path class="cls-8" d="M273.18,496.17c.96-.47,2.4-.42,2.89.62.4.85.37,2.42-.66,2.91-.84.4-2.28.34-2.86-.63-.47-.78-.47-2.35.63-2.9Z"/>
            <path class="cls-8" d="M271.7,505.04c1.17-.27,2.23.2,2.53,1.2.34,1.13-.14,2.39-1.08,2.62-1.27.3-2.49-.06-2.72-1.15-.26-1.21.1-2.4,1.27-2.67Z"/>
            <path class="cls-8" d="M271.96,449.49c.97-.55,2.2-.31,2.79.66.54.89.31,2.24-.68,2.82-.89.52-2.14.32-2.76-.6-.57-.84-.47-2.25.65-2.88Z"/>
            <path class="cls-8" d="M271.07,458.37c1.21-.25,2.23.21,2.54,1.22.34,1.13-.15,2.32-1.1,2.58-1.26.35-2.47-.07-2.7-1.13-.26-1.2.11-2.43,1.26-2.67Z"/>
            <path class="cls-8" d="M273.82,440.44c.94-.52,2.38-.36,2.88.6s.34,2.26-.65,2.85c-.84.5-2.17.36-2.75-.54-.54-.84-.57-2.31.52-2.91Z"/>
            <path class="cls-8" d="M269.93,514.34c.94-.52,2.38-.37,2.88.61.47.92.35,2.27-.65,2.85-.85.49-2.18.37-2.75-.54-.54-.84-.57-2.31.52-2.92Z"/>
            <path class="cls-8" d="M278,432.44c.35,1.03.32,2.13-.29,2.73-.69.67-2.04.72-2.74.21-.94-.7-.73-1.71-.59-2.93h3.62Z"/>
            <path class="cls-8" d="M270.08,471.4c-1.04.01-2.26-1.27-2.34-2.33l1.73-1.76c1.15.22,2.08,1.34,2.37,2.36l-1.76,1.73Z"/>
            <path class="cls-8" d="M268.77,480.51c-1.05-.17-2.11-1.34-2.41-2.29l1.89-1.86c.99.28,2.09,1.29,2.29,2.35l-1.77,1.8Z"/>
            <path class="cls-8" d="M266.79,489.52c-1.15-.14-1.92-1.2-2.41-2.15l1.99-1.99c.99.5,2.11,1.37,2.12,2.45-.45.59-1.07,1.21-1.71,1.69Z"/>
            <path class="cls-8" d="M267.22,496.48c0,.48-1.38,2.15-2,2.15-.7,0-1.99-1.84-1.99-1.95-.03-.5,1.39-2.07,2-2.06.7.01,2,1.7,2,1.86Z"/>
            <path class="cls-8" d="M262.19,516.81c-.99-.22-1.88-1.25-2.31-2.19l1.83-1.98c1.08.27,2.09,1.47,2.32,2.39l-1.84,1.78Z"/>
            <path class="cls-8" d="M264.14,452.01c-1.11-.19-1.81-1.4-2.31-2.25l1.92-1.93c.93.47,1.91,1.24,2.31,2.25l-1.92,1.93Z"/>
            <path class="cls-8" d="M339.21,517.25c-2.3.14-4.25.15-6.67.01l1.63-1.77c1.04-.15,2.49-.14,3.51,0l1.53,1.76Z"/>
            <path class="cls-8" d="M266.1,442.94c-.91-.34-1.55-1.1-2.23-1.79.1-1.04,1.33-2.18,2.31-2.37l1.89,2.09-1.97,2.06Z"/>
            <path class="cls-8" d="M262.88,461.09c-1.03-.37-2.02-1.33-2.35-2.34l2.15-1.97,2.17,2.14-1.97,2.17Z"/>
            <path class="cls-8" d="M263.31,507.9l-2.25-2.16,1.94-2.13c.97.2,2.05,1.33,2.38,2.29l-2.07,2Z"/>
            <polygon class="cls-8" points="257.45 488.45 255.24 486.27 257.39 484.01 259.66 486.16 257.45 488.45"/>
            <path class="cls-8" d="M256.17,497.51l-2.21-2.17,1.98-2.16c1.06.55,1.85,1.28,2.33,2.32l-2.1,2.01Z"/>
            <path class="cls-8" d="M260.71,470.27l-2.25-2.16,2.07-2.07c.94.29,1.79,1.24,2.24,2.21l-2.06,2.01Z"/>
            <path class="cls-8" d="M261.38,477.03c.04.47-1.49,2.05-1.9,2.11-.68.09-2.08-1.83-2.08-1.9-.02-.54,1.61-2.01,1.91-2.05.53-.07,2.06,1.69,2.08,1.85Z"/>
            <polygon class="cls-8" points="255.51 505.69 252.9 505.68 252.89 503.07 255.5 503.06 255.51 505.69"/>
            <polygon class="cls-8" points="254.22 514.13 251.61 514.13 251.62 511.5 254.22 511.52 254.22 514.13"/>
            <polygon class="cls-8" points="256.19 449.28 253.54 449.28 253.57 446.67 256.16 446.67 256.19 449.28"/>
            <polygon class="cls-8" points="258.12 440.85 255.51 440.85 255.5 438.28 258.1 438.26 258.12 440.85"/>
            <polygon class="cls-8" points="251.63 476.51 249 476.49 249.01 473.91 251.6 473.89 251.63 476.51"/>
            <polygon class="cls-8" points="247.08 503.73 244.49 503.73 244.5 501.13 247.05 501.13 247.08 503.73"/>
            <polygon class="cls-8" points="252.91 467.45 250.32 467.44 250.33 464.84 252.89 464.83 252.91 467.45"/>
            <polygon class="cls-8" points="254.85 458.35 252.27 458.33 252.28 455.77 254.83 455.77 254.85 458.35"/>
            <polygon class="cls-8" points="248.39 494.66 245.79 494.68 245.79 492.07 248.37 492.06 248.39 494.66"/>
            <path class="cls-8" d="M242.53,475.13c-1.04.1-1.68.1-2.59.02v-2.52s2.54-.01,2.54-.01l.05,2.52Z"/>
            <path class="cls-8" d="M243.55,457.06c-.63-.21-.56-2.2-.07-2.55.71-.05,1.76-.21,2.09.11.36.35.21,1.5.19,2.01-.04.79-1.18.3-2.21.43Z"/>
            <path class="cls-8" d="M281.87,516.88c.23,1.42-2.39,1.19-3.55,1.12-.23-.02-.17-.67-.16-.94,0-.23.39-.42.66-.69.62-.62,2.88-.55,3.05.52Z"/>
            <path class="cls-8" d="M244.74,445.57c.41-.33,1.85-.41,2.16.02.32.45.34,1.8-.06,2.19s-1.77.4-2.14-.02-.4-1.84.04-2.19Z"/>
            <path class="cls-8" d="M241.23,484.26l-2.56.03v-2.52c.93-.09,1.63-.1,2.53,0l.03,2.5Z"/>
            <path class="cls-8" d="M243.84,466.11h-2.53c-.1-.93-.1-1.61,0-2.53l2.5-.02.02,2.55Z"/>
            <polygon class="cls-8" points="249.68 485.55 247.07 485.56 247.08 483.02 249.64 483 249.68 485.55"/>
            <rect class="cls-8" x="246.43" y="436.32" width="2.58" height="2.59" transform="translate(-2.29 1.31) rotate(-.3)"/>
            <rect class="cls-8" x="242.54" y="510.22" width="2.58" height="2.59" transform="translate(-2.68 1.29) rotate(-.3)"/>
            <path class="cls-8" d="M345,428.55c.14,1.76-5.13,1.91-5.3.02l5.3-.02Z"/>
            <path class="cls-8" d="M238.11,435.13c.64-.53,1.15.09,1.65.57.64.61-.01,1.2-.54,1.73-.63.62-1.19.01-1.72-.56-.57-.6-.01-1.22.62-1.75Z"/>
            <path class="cls-8" d="M234.22,509.03c.64-.53,1.15.09,1.65.57.64.61-.01,1.2-.54,1.73-.63.62-1.19.01-1.72-.56-.57-.6-.01-1.22.62-1.75Z"/>
            <path class="cls-8" d="M232.97,461.72c.58-.49,1.18.1,1.64.59.6.63-.01,1.22-.56,1.7-.65.57-1.2,0-1.72-.54-.61-.63,0-1.23.64-1.75Z"/>
            <path class="cls-8" d="M236.21,499.98c.63-.57,1.14.07,1.63.6.56.61,0,1.2-.54,1.69-.67.62-1.19-.04-1.73-.55-.65-.62.02-1.19.63-1.75Z"/>
            <path class="cls-8" d="M237.45,490.9c.61-.43,1.29.03,1.72.59.47.62,0,1.25-.54,1.68-.61.48-1.23.12-1.74-.46s-.15-1.31.56-1.81Z"/>
            <path class="cls-8" d="M236.18,444.25c.64-.44,1.26-.03,1.68.55.46.62.04,1.31-.58,1.77-.57.42-1.28-.04-1.75-.59-.55-.65-.01-1.28.64-1.72Z"/>
            <path class="cls-8" d="M222.67,469.49c.55-.5,1.15.22,1.59.67.6.61-.16,1.2-.7,1.7s-1.15-.21-1.66-.7c-.63-.6.2-1.15.77-1.67Z"/>
            <path class="cls-8" d="M228.45,488.94c.59-.51,1.16.22,1.62.67.64.62-.16,1.15-.63,1.63-.61.63-1.12-.06-1.64-.54-.66-.6,0-1.21.64-1.76Z"/>
            <path class="cls-8" d="M227.19,442.27c.58-.52,1.16.2,1.62.67.6.62-.17,1.16-.63,1.63-.62.63-1.11-.08-1.63-.53-.72-.62,0-1.2.64-1.77Z"/>
            <path class="cls-8" d="M225.82,451.38c.61-.61,1.11.13,1.63.62.61.58-.06,1.11-.53,1.63-.62.68-1.1.03-1.63-.46-.67-.61-.12-1.14.53-1.79Z"/>
            <path class="cls-8" d="M230.34,479.88c.63-.6,1.11.13,1.65.61.68.6-.07,1.09-.53,1.62-.63.73-1.08.05-1.65-.44-.7-.61-.14-1.15.53-1.78Z"/>
            <path class="cls-8" d="M225.21,507.08c.56-.56,1.1.25,1.62.66.74.58-.2,1.1-.53,1.51-.71.87-1.07.08-1.66-.38-.77-.6-.07-1.16.57-1.79Z"/>
            <path class="cls-8" d="M231.69,470.82c.61-.61,1.07.16,1.57.61.68.6-.07,1.09-.55,1.65-.6.71-1.08-.07-1.64-.55-.66-.57.04-1.13.61-1.71Z"/>
            <path class="cls-8" d="M234.97,452.64c.6-.62,1.04.22,1.54.62.74.6-.11,1.1-.54,1.62-.61.75-1.13-.07-1.66-.54-.71-.62.08-1.11.66-1.71Z"/>
            <path class="cls-8" d="M227.18,498.05c.63-.64,1.02.21,1.56.63.72.56-.09,1.1-.55,1.63-.63.72-1.07-.11-1.64-.55-.73-.57.06-1.13.63-1.7Z"/>
            <path class="cls-8" d="M219.31,489.87c-.44-.59-1.32-.99-.54-1.6.51-.4,1.04-1.29,1.62-.58.45.56,1.3,1.05.58,1.64-.58.47-1.04,1.35-1.65.54Z"/>
            <path class="cls-8" d="M224.56,460.43c.61-.64,1.02.23,1.54.61.8.59-.11,1.07-.54,1.63-.6.78-1.07-.1-1.64-.56-.71-.57.09-1.1.64-1.68Z"/>
            <path class="cls-8" d="M221.3,478.61c.63-.68,1,.21,1.57.6.8.55-.1,1.06-.56,1.64-.57.71-1.08-.09-1.63-.56-.69-.59.09-1.1.63-1.69Z"/>
            <path class="cls-8" d="M216.15,505.83c.6-.67,1.01.21,1.54.63.73.57-.08,1.08-.54,1.63-.6.72-1.08-.09-1.64-.56-.68-.57.1-1.09.64-1.69Z"/>
            <path class="cls-8" d="M218,496.78c.59-.54,1.12.04,1.6.49.63.59.09,1.17-.42,1.68-.63.63-1.16.12-1.68-.42-.59-.62-.14-1.17.5-1.75Z"/>
            <path class="cls-8" d="M215.37,460.64c-.22-.33-.74-.68-.77-1.01-.03-.4.59-.63.78-.96.51-.91.98-.09,1.39.21.72.54.73.88.02,1.5-.35.31-.79,1.2-1.42.25Z"/>
            <path class="cls-8" d="M214.91,514.86c.51-.57,1.03.33,1.51.66.84.58-.21,1.09-.53,1.51-.71.92-1.04-.03-1.64-.48-.78-.58.1-1.08.66-1.7Z"/>
            <path class="cls-8" d="M218.8,440.96c.51-.57,1.03.33,1.51.66.84.58-.21,1.09-.53,1.51-.71.92-1.04-.03-1.64-.48-.78-.58.1-1.08.66-1.7Z"/>
            <path class="cls-8" d="M216.65,452.23c-.5-.63-1.24-.99-.41-1.6.58-.42.88-1.21,1.56-.42.44.51,1.26.9.54,1.51-.61.51-1.04,1.32-1.69.51Z"/>
            <path class="cls-8" d="M225.53,517.99h-2.33c-.41-.94.08-1.11.47-1.59.44-.54.99-.51,1.45,0,.39.44.93.83.41,1.59Z"/>
            <path class="cls-8" d="M306.85,430.5c-.61,1.04-1.15,1.34-2.1,1.32-.82-.02-1.48-.3-2.05-1.31h4.15Z"/>
            <path class="cls-8" d="M347.08,517.28l-4.1.04c0-.41.02-.63.2-.63,1.95-.03,1.22-1.55,2.6-.1.38.4,1.13-.48,1.3.69Z"/>
            <path class="cls-8" d="M268.59,432.49c-.47.68-.95,1.35-1.51,1.26-.45-.07-1.06-.79-1.26-1.27,1.06-.05,1.63-.05,2.78,0Z"/>
            <path class="cls-8" d="M207.65,448.65c.24-.14,1.12-.2,1.15.08s.14,1.04-.09,1.21-.94.14-1.13-.06c-.22-.22-.2-1.07.07-1.23Z"/>
            <path class="cls-8" d="M208.95,495.36c.19-.21,1.06-.26,1.14.02s.18.98-.01,1.18-.88.17-1.13.04-.19-1.04,0-1.24Z"/>
            <path class="cls-8" d="M212.16,477.23c.22-.17,1.05-.21,1.19.03s.16.92-.02,1.13-.92.12-1.18.01c-.29-.11-.23-.99.01-1.18Z"/>
            <path class="cls-8" d="M213.52,468.09c.31-.13,1.11-.18,1.14.1.03.31.15,1.03-.09,1.18s-.95.17-1.13-.05c-.19-.24-.21-1.11.08-1.23Z"/>
            <path class="cls-8" d="M210.21,486.31c.16-.21.91-.23,1.13-.07.24.18.17.92.05,1.2-.1.24-.85.04-1.12.07-.3.03-.25-.95-.06-1.2Z"/>
            <rect class="cls-8" x="182.88" y="481.67" width="1.33" height="1.35"/>
            <rect class="cls-8" x="206.2" y="457.69" width="1.36" height="1.36" transform="translate(-253.1 661.65) rotate(-89.55)"/>
            <path class="cls-8" d="M209.59,439.64c.15-.21.9-.21,1.1-.04.22.2.2.9.05,1.15-.13.23-.84.09-1.1.09-.29,0-.23-.95-.05-1.2Z"/>
            <path class="cls-8" d="M205.7,513.54c.15-.21.9-.21,1.09-.03.22.2.2.9.05,1.15-.13.23-.84.09-1.1.09-.29,0-.23-.94-.05-1.2Z"/>
            <path class="cls-8" d="M206.94,504.52c.13-.23.9-.22,1.13-.1.26.13.1.89.03,1.2-.06.25-.75.05-1.06.06-.29,0-.26-.88-.1-1.15Z"/>
            <path class="cls-8" d="M194.03,474.03c.14-.21.91-.23,1.09-.05.2.21.17.88.03,1.13-.12.23-.8.14-1.05.1-.28-.04-.23-.94-.07-1.18Z"/>
            <rect class="cls-8" x="198.43" y="447.29" width="1.34" height="1.33" transform="translate(-4.59 2.07) rotate(-.59)"/>
            <rect class="cls-8" x="195.18" y="465.48" width="1.34" height="1.31" transform="translate(-3.04 1.29) rotate(-.37)"/>
            <rect class="cls-8" x="197.81" y="503.07" width="1.32" height="1.33" transform="translate(-.56 .22) rotate(-.06)"/>
            <rect class="cls-8" x="190.66" y="492.06" width="1.33" height="1.29"/>
            <rect class="cls-8" x="200.38" y="438.27" width="1.34" height="1.33" transform="translate(-239.06 637.39) rotate(-89.66)"/>
            <rect class="cls-8" x="204.26" y="466.75" width="1.35" height="1.33" transform="translate(-263.28 670.51) rotate(-89.77)"/>
            <rect class="cls-8" x="188.06" y="454.48" width="1.35" height="1.28" transform="translate(-266.88 642.66) rotate(-89.85)"/>
            <rect class="cls-8" x="202.97" y="475.84" width="1.33" height="1.34" transform="translate(-273.1 679.6) rotate(-89.94)"/>
            <rect class="cls-8" x="199.72" y="493.99" width="1.36" height="1.29" transform="translate(-294.51 694.35) rotate(-89.92)"/>
            <rect class="cls-8" x="178.99" y="453.17" width="1.33" height="1.28"/>
            <rect class="cls-8" x="188.72" y="501.12" width="1.32" height="1.35"/>
            <rect class="cls-8" x="196.49" y="512.17" width="1.34" height="1.33" transform="translate(-316.82 706.97) rotate(-89.66)"/>
            <rect class="cls-8" x="177.05" y="462.23" width="1.32" height="1.33"/>
            <rect class="cls-8" x="201.01" y="484.95" width="1.36" height="1.29" transform="translate(-284.76 685.23) rotate(-89.76)"/>
            <rect class="cls-8" x="187.43" y="510.23" width="1.29" height="1.29"/>
            <rect class="cls-8" x="171.21" y="497.9" width="1.33" height="1.28"/>
            <rect class="cls-8" x="178.37" y="508.9" width="1.28" height="1.33"/>
            <path class="cls-8" d="M230.81,434.5c.3.22-1,1.27-1.34,1.21-.41-.07-.69-.18-.47-.51.5-.76,1.33-1.05,1.81-.7Z"/>
            <rect class="cls-8" x="174.48" y="479.74" width="1.28" height="1.32"/>
            <rect class="cls-8" x="180.32" y="499.84" width="1.28" height="1.28"/>
            <rect class="cls-8" x="186.15" y="463.56" width="1.28" height="1.28"/>
            <rect class="cls-8" x="189.38" y="445.39" width="1.28" height="1.28"/>
            <rect class="cls-8" x="191.99" y="483" width="1.28" height="1.29"/>
            <rect class="cls-8" x="184.83" y="472.62" width="1.32" height="1.28"/>
            <rect class="cls-8" x="168.65" y="460.29" width="1.28" height="1.32"/>
            <rect class="cls-8" x="175.77" y="471.33" width="1.28" height="1.28"/>
            <rect class="cls-8" x="197.14" y="456.41" width="1.33" height="1.29" transform="translate(-259.57 654.13) rotate(-89.91)"/>
            <rect class="cls-8" x="180.32" y="444.11" width="1.28" height="1.28"/>
            <rect class="cls-8" x="172.54" y="488.83" width="1.28" height="1.28"/>
            <rect class="cls-8" x="169.27" y="506.96" width="1.32" height="1.32"/>
            <rect class="cls-8" x="181.6" y="490.78" width="1.28" height="1.29"/>
            <path class="cls-8" d="M165.47,478.62c.13-.22.91-.26,1.1-.09s.18.79.07,1.03-.74.19-1.04.16c-.26-.03-.33-.77-.13-1.1Z"/>
            <path class="cls-8" d="M163.57,487.65c.17-.21.99-.25,1.11-.02s.15.86,0,1.07-.81.16-1.06.08-.26-.87-.05-1.13Z"/>
            <rect class="cls-8" x="169.93" y="451.23" width="1.28" height="1.28"/>
            <rect class="cls-8" x="158.93" y="514.74" width="1.28" height="1.32"/>
            <rect class="cls-8" x="162.15" y="496.62" width="1.28" height="1.28"/>
            <rect class="cls-8" x="162.82" y="440.84" width="1.28" height="1.32"/>
            <rect class="cls-8" x="166.71" y="469.39" width="1.27" height="1.27" transform="translate(-.92 .33) rotate(-.11)"/>
            <rect class="cls-8" x="160.21" y="505.68" width="1.28" height="1.27" transform="translate(-1 .32) rotate(-.11)"/>
            <rect class="cls-8" x="171.22" y="442.17" width="1.31" height="1.27"/>
            <rect class="cls-8" x="167.99" y="516.07" width="1.27" height="1.28" transform="translate(-348.41 684.32) rotate(-89.89)"/>
            <rect class="cls-8" x="191.32" y="436.97" width="1.29" height=".65" transform="translate(-3.62 1.61) rotate(-.47)"/>
            <path class="cls-8" d="M234.16,517.72c.04.45-1.35.42-1.38.05-.05-.59,1.31-.67,1.38-.05Z"/>
            <rect class="cls-8" x="177.05" y="518.01" width="1.31" height=".62"/>
          </g>
        </g>
      </g>
      <g>
        <polygon class="cls-8" points="376.28 487.48 376.65 487.64 377.19 487.64 376.28 487.48"/>
        <path class="cls-8" d="M377.83,488.18l-1.18-.54-87.29.56c0-.09-.01-.18-.05-.25-.08-.13-.29-.16-.81-.18H127.14s-5.12,20.05-5.12,20.05h107.68c.08.23.27.4.5.4h146.28s0,0,0,0h-.14l.14-.5v-.11h.03l2.81-18.34c.08-.27-1.72-1.1-1.48-1.1Z"/>
      </g>
      <path d="M380.43,487.46c-.46-.55-1.4-.84-2.69-.84H127.4c-1.81-.01-2.98.89-3.26,2.03l-4.52,18.28c-.38,1.54.62,2.9,2.62,3.2l182.97-.14h67.17v-.05h1.72c1.3,0,2.37-1.15,2.61-2.17l4.34-18.21c.17-.73-.21-1.59-.63-2.09ZM176.6,509.85c1.43-.01,2.85-.03,4.28-.05-1.47.13-2.89.12-4.28.05ZM374.54,504.38l.69.38c.02.76-.05,1.42-.23,1.96.07-.64.08-1.32.23-1.96l-.92.09c-.15.98-.41,1.91-.78,2.78l-35.45.14-.03.06h-6.27l-.05-.06c-9.37.02-17.6.04-24.68.05,0,0,0,0,0,0h-69.02c-7.36,0-14.72,0-22.08,0h-93.33s.02-.08.02-.08c0,0-.02,0-.02,0,1.43-6.3,2.95-12.56,4.55-18.79h1.27s0-.02,0-.02h174.49c.23,0,.46,0,.7,0h8.69s.04,0,.06,0c21.93,0,43.85.03,65.77.08l-3.61,15.36Z"/>
      <g>
        <path class="cls-2" d="M264.93,312.62l-46.62-.09c-5.02,0-9.27-4.48-9.27-9.52l-.04-38.66c0-4.97,3.4-8.76,8.3-9.61l.11-11.35c.07-7.39,3.48-14.29,9.45-18.78,9.36-7.04,22.77-6.66,31.63,1.01,5.21,4.52,8.11,10.92,8.18,17.75l.13,11.4c4.64.78,8.2,4.33,8.2,9.16v39.06c0,5.5-4.6,9.65-10.06,9.64Z"/>
        <path class="cls-14" d="M249.19,222.56c8.47,3.39,12.53,10.92,13.4,19.62.47,4.67.12,9.41-.22,14.08l2.31.02c.22.44.68.47,1.11.49.62.01,1.25.2,1.86.34,1.98,1.1,2.8,3.59,3.05,5.75l.04,33.62c-.58,5.73-3.28,8.16-8.93,8.86l-43.81-.03c-2.74-.32-5.41-.94-6.66-3.69-.24-1.08-.37-2.06-.37-3.35l.06-34.14c0-4.53,3.78-7.79,8.33-7.33l-.04-12.62c-.02-7.08,3.03-13.85,8.69-18.13,6.11-4.62,14.03-5.65,21.19-3.5Z"/>
        <g>
          <path class="cls-9" d="M211.33,301.62c1.86,1.97,4.05,3.19,6.97,3.19l42.95.03c4.94,0,8.98-3.26,8.97-8.38l-.02-33.07c0-2.5-1.22-4.45-2.56-6.29,2.94.68,5.37,3.48,5.37,6.78v36.13c0,4.26-3.69,7.45-7.86,7.45l-46.38-.02c-3.69,0-6.7-2.5-7.44-5.83Z"/>
          <path class="cls-13" d="M265.79,256.77c-1.24-.03-2.44.15-3.94,0,1.06-14.63,1.42-26.33-12.66-34.21,8.41,2.53,14.25,9.7,15.32,18.68.58,4.83.03,9.67.21,14.6.03.69.54.9,1.07.94Z"/>
          <path class="cls-6" d="M223.96,259.81c-9.16,2.16-7.26,8-9.97,14.41-.8-5.28-.59-13.06,5.52-14.41,1.46-.32,2.93-.95,4.45,0Z"/>
          <path class="cls-10" d="M225.11,234.51c-.57-.56-.22-1.41.08-2.03,2.11-4.34,6.39-7.28,11.33-7.75-4.31,2.94-8.18,5.7-11.41,9.78Z"/>
          <g>
            <path class="cls-4" d="M248.26,274.06c1.71,3.24.59,7.23-2.31,9.33l1.8,11.37-11.37-.11-.47-.25,1.7-10.77c-3.38-2.79-4.43-8.05-.77-11.55,3.36-3.21,9.8-2.7,11.42,1.97Z"/>
            <path class="cls-15" d="M248.26,274.06c-1.35-2.56-4.57-3.77-7.14-3.46-2.93.35-5.18,2.5-5.85,5.15-.76,3.04.43,5.76,2.88,7.68l-1.77,11.23c-.43,0-.93.19-1.39-.07l1.84-11.43c-4.15-3.08-4.46-8.93-.84-12.29,3.51-3.26,9.26-2.55,11.89,1.63.33.53.46,1.04.38,1.56Z"/>
            <path class="cls-3" d="M245.42,292.95l-6.83.02,1.45-8.43c.61-3.56-2.78-2.23-2.95-6.01-.07-1.43.66-2.67,1.88-3.5,1.54-1.04,3.21-1.38,5-.62,1.37.59,2.81,1.79,3.04,3.61.44,3.42-3.51,3.42-3.07,6.03l1.48,8.89Z"/>
          </g>
          <g>
            <path class="cls-2" d="M253.75,256.75l-24.62-.11c-.1-4.51-.11-9.04,0-13.58.71-5.58,3.65-10.18,9.52-11.15,4.05-.76,7.99-.21,11.25,2.32,2.8,2.18,4.59,5.81,4.62,9.75l.08,12.33c0,.42-.6.45-.83.45Z"/>
            <path class="cls-9" d="M238.63,231.91c-5.22,1.74-9,6.09-9.03,11.82l-.07,12.84,24.22.19c-6.63.04-20.18.04-26.51.03-1.36-3.79-.34-7.33-.56-11.05-.39-6.63,4.92-13.89,11.96-13.83Z"/>
            <path class="cls-3" d="M252.74,254.77h-21.35s.13-8.62.13-8.62c.08-5.59,4.88-9.78,10.29-9.9s10.59,4.01,10.72,9.65l.21,8.88Z"/>
          </g>
        </g>
      </g>
    </g>
  </g>
</svg>