<?xml version="1.0" encoding="UTF-8"?>
<svg id="Capa_2" data-name="Capa 2" xmlns="http://www.w3.org/2000/svg" viewBox="0 0 741.99 823.92">
  <defs>
    <style>
      .cls-1 {
        fill: #286b89;
      }

      .cls-2 {
        fill: #fdfdfd;
      }

      .cls-3 {
        fill: #369ed6;
      }

      .cls-4 {
        fill: #aa2517;
      }

      .cls-5 {
        fill: #060606;
      }

      .cls-6 {
        fill: #e6462c;
      }

      .cls-7 {
        fill: #e3e3e3;
      }

      .cls-8 {
        fill: #080808;
      }

      .cls-9 {
        fill: #050505;
      }
    </style>
  </defs>
  <g id="Capa_1-2" data-name="Capa 1">
    <g>
      <path class="cls-5" d="M610.57,813.2c-.8,4.96.58,7.67-2.76,10.72l-607.81-.1,45.52-282.72L131.44.27l610.55-.27-7.18,44.63-58.16,359.51-66.08,409.06Z"/>
      <path class="cls-2" d="M602.75,816.27l-593.93.05,21.13-129.08,65.35-408.4,25.93-165.23L137.88,7.88h594.86s-17.12,104.52-17.12,104.52l-104.9,649.51c-2.91,18.04-6.17,35.46-7.97,54.36Z"/>
      <g>
        <path class="cls-9" d="M51.36,669.71c-2.16-.14-2.8-.35-3.32-.92-.47-.52-.61-1.38-.45-2.55l11.81-79.2,52.94-361.03,293.18-37.94,293.53-36.8-39.32,247.95-37.9,237.13-373.28,21.89-197.19,11.48Z"/>
        <polygon class="cls-7" points="257.18 653.2 52.73 665.05 75.17 512.8 116.52 230.04 381.98 195.69 693.39 156.61 636.54 514.13 618.1 632.04 257.18 653.2"/>
      </g>
      <path class="cls-8" d="M24.01,804.54l18.47-122.35,124.06-6.34,301.57-16.25,147.48-8.25c1.23-.07,1.98.28,2.56.62s1.22,1.4.99,2.85l-23.49,145.23-146.4,1.35-425.24,3.13Z"/>
      <polygon class="cls-3" points="591.69 795.84 29.06 800.04 46.31 686.71 614.19 656.01 591.69 795.84"/>
      <path class="cls-9" d="M376.05,179.53l-188.43,22.63-77.9,9.16,31.91-193.18,264.73-2.62-25.47,159.68c-.39,2.62-1.56,3.75-4.84,4.32Z"/>
      <path class="cls-6" d="M373.02,175.22l-171.59,20.6-86.06,10.06,30.12-182.97,255.24-2.73-23.17,147.83c-.3,3.34-.59,6.02-4.53,7.21Z"/>
      <polygon class="cls-9" points="530.77 156.95 392.99 171.88 419.2 15.31 721.12 13.41 700.89 138.43 530.77 156.95"/>
      <polygon class="cls-3" points="398.51 166.81 422.99 20.11 715.52 17.91 696.74 134.41 398.51 166.81"/>
      <g>
        <path class="cls-4" d="M367.32,175.08c-.25,0-.54-.73-.34-.79.22-.06.75-.17.96-.18l.9-.04c.22-.01.13-.63.19-.92-.07.36-2.96-1.92-3.71-3.42-.63-1.26-.62-3.89,0-5.17s1.94-2.19,2.82-3.19c.82-.93,1.82-1.32,3.02-1.35l.76-.02c.2,0,.11-.67.14-.87-.06.43-3.1-1.78-3.8-3.76-.45-1.3-.57-3.54-.05-4.82.31-.76,4.2-5.24,5.89-4.45l.13-.92c-.06.43-3.37-1.97-4.02-3.77-.47-1.31-.44-3.39-.03-4.64.5-1.51,2.12-2.27,3.01-3.45.81-1.06,2.41-1.47,3.52-1.28,2.2.38-2.45-2.23-3.48-4.42-.51-1.08-.55-3.64-.06-4.75.8-1.8,2.65-3.22,4.11-4.46.46-.38,1.5-.12,1.95-.72-1.58-1.36-3.36-2.52-4.07-4.5-.41-1.14-.48-3.4.07-4.51.87-1.77,2.46-2.96,3.97-4.24.59-.5,4.34-.17,2.93-1.19-.2-.14-.74-.25-.92-.43-1-.97-2.37-1.98-2.97-3.29-.52-1.13-.58-3.78,0-4.87.96-1.82,2.87-3.03,4.18-4.48,1.09-.18,1.77-.05,2.9-.68-2.51-.42-3.64-1.82-4.58-3.79-.62-1.3-1.33-2.76-.49-4.33l1.14-2.13c1.11-2.08,3.5-2.48,5.79-3.66-2.53-.69-3.84-2.44-4.8-4.68l-.33-.78c-.64-1.5-1.88,2.47-3.58,2.8-1.46.29-3.69.57-5.05-.1-1.11-.55-2.5-2.09-3.1-3.24-.63-1.21-.62-3.77,0-4.99.58-1.13,2-2.71,3.09-3.22,1.43-.67,3.74-.42,5.21-.07.22.05,4.22,3.36,3.33,4.79l1.19.22c.44-3.61,6.7-4.73,6.69-4.35l.02-.75c0-.23-.69-.1-.92-.13-1.78-.29-2.42-2.13-3.18-3.29-1.17-1.79-1.19-3.52-.08-5.26.92-1.44,1.61-3.31,3.79-3.6.72-.75,1.47-.83,2.83-1.47-2.52-.18-3.42-1.92-4.48-3.59-1.11-1.76-1.33-3.42-.23-5.24,1.25-2.07,2.74-3.96,5.55-4.3l.06-1.41c-1.83.25-1.7-1.27-2.36-2.21-.99-1.39-1.84-3.66.06-4.93-.24-3.62,7.83-5.17,5.99-5.49l-.92-.16-.76-.13c-.21-.04-.21-.86.03-.87,1.44-.06,3.99-.11,5.55-.05.43.02.45,1.39.2,1.71-.39.5-3.95.62-1.96,1.12.18.05.99.09.99.28.25,9.77-.69,4.07-1.08,6.45-.28,1.71.55,4.1-.1,5.71-.53,1.31-1.3,2.28-.8,3.95.44,1.47-.17,2.32-.91,3.43s.71,4-.68,5.72c-.34.42-1.57.63-2.11.57-.24-.03-.39.97-.15.98l1.89.06c.49,6.36-1.61,4.65-1.13,7.48.86,5.11-1.52,2.32-.76,5.61l-2.71.05c-4.29.08,3.95.61,2.42,3.45-.2.37-.94.8-1,1.31-.18,1.78.63,3.77-.05,5.35l-1.22,2.8c-.45,1.03-1.78.64-2.71,1.46l3.07,1.42c.21.1.2.98-.03,1.02s-.88.16-.93.38c-.4,1.59.42,4.46-.12,6.06-.33.97-1.36,1.2-.97,2.52.45,1.52-1.72,2.02-2.03,2.24-.17.12-.08.83.13.84l1.08.02-.1,6.2c0,.46-.79,1.11-1.06,1.49-.05,1.53.2,3.7-.05,4.96-.12.57-1.68.35-2.19.41l-.73.09c-.21.03.06.76.34.82,1.13.22,1.82,1.69,1.79,3.02-.1,5.58-1.49.06-1.02,7,.12,1.82-.97,2.99-2.65,3.03-.2,0-.68.26-.62.43.39,1.07,2.34.55,2.35,3.26,0,1.28-.42,1.97-1.04,2.98-1.05,1.68,1.37,3.05-1.58,7.06-.34.46-1.83.2-2.39.27-1.93.23,2.03,1.62,2.9,3.62.43.99-.86,1.3-.97,1.97-.29,1.74-.04,3.54.05,5.37l-1.18-.06c-.06.92-.11,1.83-.56,2.4-.49.62-1.43.71-2.48.71l-.07.87c.52.23,2.2.82,2.17,1.47-.08,2.25.28,4.8-.19,6.94-.23,1.03-1.13,1.68-1.03,3.15.08,1.22-2.21,1.62-3.16,1.64h-.61c-.16.02-.18.73-.03.81.92.49,2.71,1.41,2.88,2.86.78,6.83-.48,3.14-1.03,7.62-.18,1.44-4.65,3.71-5.21,3.7l-4.32-.09Z"/>
        <path class="cls-4" d="M363.73,155.74c-1.52.69-3.95.64-5.43.04-1.06-.43-2.55-2.09-3.04-3.18-.57-1.28-.62-3.88.03-5.16.52-1.02,2.11-2.69,3.16-3.11,1.33-.52,3.74-.57,5.06-.02,1.06.44,2.67,2.09,3.19,3.13.65,1.29.59,3.87.03,5.17-.45,1.04-1.91,2.64-3,3.13Z"/>
        <path class="cls-4" d="M360.61,169.79c-1.31.67-3.92.64-5.18.04-1.18-.57-2.62-2.12-3.19-3.19-.81-1.52-.04-3.38-.24-5.02,4.2-4.47,2.11-3.45,8.67-3.52l3.32,3.54c-.21,1.6.56,3.48-.24,5-.54,1.03-1.92,2.52-3.14,3.15Z"/>
        <path class="cls-4" d="M373.75,101.12c-1.87-.2-3.75.54-5.4-.29-.98-.49-2.44-1.97-2.99-3.07-.66-1.33-.73-4.1.01-5.39.58-1,1.9-2.33,2.9-2.9,1.29-.73,4.07-.69,5.4-.02,1.08.55,2.59,1.98,3.07,3.03.62,1.36.51,3.81.06,5.13-.5,1.47-2.2,2.01-3.05,3.5Z"/>
        <path class="cls-4" d="M365.78,143.12c-1.85-.27-3.76.61-5.4-.26-1.02-.54-2.64-2.08-3.14-3.21-.59-1.35-.57-3.82.01-5.16.46-1.06,1.98-2.49,3.06-3.02,1.35-.67,4.11-.74,5.4,0,1.01.58,2.32,1.9,2.91,2.89.77,1.28.54,3.89.11,5.26-.47,1.5-2.18,1.93-2.95,3.5Z"/>
        <path class="cls-4" d="M368.69,128.67c-1.35.74-4.2.78-5.46.03-1.03-.62-2.41-1.99-2.96-3.03-.64-1.2-.62-3.9,0-5.12.55-1.11,2.01-2.7,3.09-3.2,1.34-.62,3.82-.6,5.16-.03,1.11.48,2.6,1.96,3.15,3.07.67,1.36.61,3.84.05,5.3-.39,1.02-1.89,2.36-3.01,2.97Z"/>
        <path class="cls-4" d="M370.86,115.09h-5.5c-.91-1.28-2.48-1.93-3.09-3.41-.54-1.31-.56-3.87,0-5.18.63-1.46,2.14-2.13,3.12-3.4,1.7.25,3.7-.62,5.29.27,1.02.57,2.49,2.11,3.04,3.23.63,1.29.51,3.71.06,4.94-.54,1.46-2.17,2-2.92,3.55Z"/>
        <path class="cls-4" d="M380.57,58.79c-1.3.66-4.19.69-5.31-.02-1.04-.66-2.27-2.01-2.93-3.05-.73-1.15-.72-4.16,0-5.33.61-1,1.91-2.34,2.91-2.93,1.23-.72,3.91-.67,5.25-.07,1.12.5,2.74,1.99,3.2,3.08.58,1.39.62,3.8,0,5.18-.46,1.03-1.99,2.55-3.13,3.13Z"/>
        <path class="cls-4" d="M375.83,86.96c-1.88-.06-3.86.71-5.52-.25-.98-.57-2.54-1.93-3.04-3.03-.56-1.23-.63-3.91,0-5.13.58-1.12,2.1-2.68,3.22-3.21,1.24-.59,3.78-.6,5.01,0,1.11.54,2.64,2.1,3.22,3.2.67,1.28.48,3.88.05,5.12-.49,1.41-2.16,1.84-2.93,3.3Z"/>
        <path class="cls-4" d="M385.73,31.1c-1.81-.26-3.79.59-5.39-.29-.98-.54-2.42-2-2.98-3.1-.68-1.33-.68-3.92,0-5.25.56-1.09,2-2.55,2.99-3.09,1.59-.86,3.6-.06,5.29-.3.94,1.29,2.25,1.99,3,3.35s.65,3.82.08,5.19c-.6,1.44-2.1,1.96-2.98,3.48Z"/>
        <path class="cls-4" d="M382.78,44.68c-1.23.81-3.96.65-5.28.11-1.16-.48-2.6-1.92-3.14-3.05-.67-1.4-.67-3.84,0-5.22.56-1.16,1.91-2.54,3.07-3.1,1.29-.63,3.75-.7,5.13-.03,1.08.53,2.56,2.07,3.14,3.18.65,1.23.66,4.09-.03,5.22-.63,1.03-1.81,2.19-2.89,2.89Z"/>
        <path class="cls-4" d="M348.11,153.48c-.34.1-.87.66-1.16.65s-.78-.51-1.1-.62c-2.04-.69-3.68-2.23-4.3-4.34-.09-.31-.56-.81-.56-1.09s.44-.78.54-1.09c.65-2.08,2.28-3.65,4.32-4.31.32-.1.81-.63,1.1-.65s.8.57,1.13.66c4.1,1.14,4.71,5.85,4.99,5.38l-.67,1.13c-1.05,1.77-2.04,3.61-4.29,4.27Z"/>
        <path class="cls-4" d="M369.64,42.06c-1.72.03-3.65.23-5.16-.14-.81-.19-2.13-1.51-2.32-2.31-.34-1.48-.33-3.64,0-5.01.2-.83,1.52-2.15,2.35-2.34,1.35-.31,3.55-.34,5,0,.8.19,2.13,1.51,2.31,2.3.35,1.51.34,3.54.02,5.04-.2.96-1.46,1.65-2.2,2.45Z"/>
        <path class="cls-4" d="M351.44,138.95c-1.5.31-3.63.34-4.99-.01-.75-.19-2-1.46-2.23-2.19-.46-1.45-.41-3.82,0-5.16.23-.75,1.4-2.06,2.12-2.3,1.44-.47,3.88-.47,5.32,0,.72.23,1.89,1.54,2.12,2.28.43,1.4.41,3.81.01,5.14-.22.76-1.55,2.07-2.35,2.23Z"/>
        <path class="cls-4" d="M346.74,166.85c-1.55.57-3.88.56-5.27.03-.73-.28-2.03-1.51-2.29-2.24-.56-1.56-.18-3.62-.16-5.28.81-.62,1.53-1.74,2.47-2.05,1.41-.47,3.77-.42,5.15.02.76.24,2.01,1.53,2.21,2.26.35,1.29.36,3.6.01,4.88-.2.73-1.37,2.12-2.11,2.39Z"/>
        <path class="cls-4" d="M359.66,96.82c-1.43.57-3.9.48-5.22.06-.77-.25-2-1.53-2.26-2.27-.46-1.3-.43-3.56,0-4.93.25-.77,1.45-2.15,2.23-2.4,1.39-.45,3.78-.46,5.2,0,.78.26,1.99,1.67,2.22,2.44.39,1.35.43,3.53,0,4.86-.22.7-1.37,1.91-2.17,2.23Z"/>
        <path class="cls-4" d="M361.65,82.85c-1.51.54-3.95.51-5.26.04-.79-.29-2-1.66-2.25-2.45-.41-1.31-.44-3.57.02-4.83.27-.73,1.47-2.04,2.23-2.29,1.38-.46,3.77-.5,5.17-.01.72.26,1.97,1.51,2.23,2.24.46,1.32.43,3.61.03,4.93-.23.74-1.4,2.09-2.17,2.37Z"/>
        <path class="cls-4" d="M354.66,124.87c-1.57.55-3.8.46-5.27.04-.81-.23-2.01-1.67-2.22-2.46-.39-1.47-.4-3.65.07-4.98.25-.71,1.45-1.93,2.16-2.16,1.42-.45,3.76-.46,5.19-.01.71.22,1.88,1.47,2.15,2.16.53,1.36.41,3.56.08,4.99-.18.76-1.36,2.14-2.15,2.42Z"/>
        <path class="cls-4" d="M364.7,68.79c-1.46.57-3.67.49-5.04.11-.83-.23-2.26-1.41-2.49-2.21-.45-1.55-.4-3.73,0-5.2.22-.81,1.67-1.99,2.48-2.22,1.42-.39,3.63-.43,4.97.06.7.26,1.94,1.44,2.17,2.17.44,1.34.41,3.82,0,5.16-.2.67-1.42,1.86-2.1,2.12Z"/>
        <path class="cls-4" d="M356.44,110.86c-1.57.46-3.73.44-5.07-.02-.71-.24-1.95-1.44-2.17-2.16-.44-1.39-.43-3.78,0-5.19.22-.7,1.47-1.9,2.16-2.14,1.4-.48,3.53-.48,5-.08.79.22,2.23,1.42,2.46,2.21.45,1.49.41,3.74,0,5.2-.21.75-1.59,1.94-2.38,2.17Z"/>
        <path class="cls-4" d="M366.66,54.83c-1.51.56-3.87.46-5.26.05-.72-.21-1.91-1.47-2.17-2.19-.47-1.29-.54-3.53-.04-4.96.27-.76,1.39-2.22,2.19-2.46,1.48-.45,3.73-.45,5.19,0,.81.24,2,1.67,2.22,2.46.39,1.44.41,3.65-.05,4.97-.23.67-1.4,1.87-2.09,2.12Z"/>
        <path class="cls-4" d="M371.55,27.84c-1.47.57-3.57.48-5.03.03-.78-.24-1.97-1.58-2.34-2.32s-.52-4.64.31-5.66c.51-.62,1.36-.85,2.19-.85h4.69c1.44-.01,2.69.78,2.67,2.4-.01,1.17.23,2.88-.19,4.06-.26.73-1.49,2.02-2.31,2.33Z"/>
        <path class="cls-4" d="M351.27,65.39c-1.16,1.12-1.74,1.95-3.38,1.88-1.36-.06-2.18-.82-3.22-1.87s-1.81-1.85-1.87-3.21c-.06-1.65.75-2.22,1.83-3.32.99-1.02,1.91-1.86,3.28-1.92,1.53-.07,2.3.82,3.35,1.86s1.83,1.74,1.85,3.12c.03,1.47-.75,2.39-1.85,3.45Z"/>
        <path class="cls-4" d="M348.06,89.8c.23,2.35-3.01,5.36-4.95,5.41-1.46.04-2.38-.75-3.38-1.79s-1.87-1.93-1.81-3.41c.09-2.1,2.95-5.03,4.94-5.1,2.29-.08,5.02,3.06,5.2,4.88Z"/>
        <path class="cls-4" d="M336.33,149.35c-1.12,1.11-1.9,1.87-3.28,1.92-1.69.06-2.31-.83-3.44-1.98-.96-.98-1.69-1.82-1.76-3.11-.09-1.53.74-2.16,1.71-3.21s1.76-2,3.24-2.03,2.44.84,3.51,1.91c1,1.01,1.81,1.67,1.85,3.07.04,1.5-.73,2.32-1.84,3.42Z"/>
        <path class="cls-4" d="M333.39,162.25c-1.14,1.08-1.78,2-3.24,2.02-1.56.02-2.41-.79-3.48-1.9s-1.83-1.83-1.87-3.21c-.05-1.69.85-2.32,2-3.44.97-.95,1.81-1.7,3.1-1.76,1.52-.07,2.17.73,3.2,1.72s1.94,1.7,2.02,3.01c.08,1.51-.61,2.5-1.73,3.57Z"/>
        <path class="cls-4" d="M338.47,135.16c-1.08,1.11-1.81,2.09-3.3,2.08s-2.39-.76-3.4-1.81-1.95-1.71-1.97-3.17c-.02-1.56.81-2.38,1.91-3.48,1.04-1.03,1.86-1.79,3.22-1.86,1.68-.08,2.31.83,3.43,1.98.89.91,1.63,1.76,1.74,2.84.17,1.65-.58,2.32-1.64,3.42Z"/>
        <path class="cls-4" d="M341.49,121.18c-1.1,1.18-1.98,1.97-3.41,2.04-1.64.08-2.31-.8-3.43-1.92-.94-.94-1.78-1.87-1.78-3.2s.84-2.26,1.78-3.2c1.12-1.11,1.8-1.99,3.43-1.92,1.42.07,2.31.86,3.35,1.97.88.95,1.65,1.72,1.73,2.89.11,1.53-.65,2.25-1.67,3.34Z"/>
        <path class="cls-4" d="M343.32,107.35c-1.11,1.04-1.91,1.9-3.33,1.92s-2.2-.87-3.26-1.86-1.8-1.89-1.86-3.22c-.07-1.57.75-2.25,1.81-3.32.99-.99,1.92-1.9,3.32-1.9s2.32.92,3.32,1.9,1.78,1.69,1.8,3.07c.02,1.45-.66,2.36-1.8,3.42Z"/>
        <path class="cls-4" d="M333.11,173.05c.04,2.59-3.53,5.16-5.12,5.15-1.73-.01-5.03-2.65-5.12-4.9-.07-1.68.81-2.51,1.99-3.63.99-.94,1.78-1.74,3.14-1.77s2.12.83,3.13,1.77c1.12,1.04,1.96,1.89,1.99,3.37Z"/>
        <path class="cls-4" d="M340.8,177.99c-1.1,1.28-2.48,1.45-3.99,1.12.63-1.36-.04-2-.85-2.7-.72-.63.71-1.09.8-1.51.88-4.27,5.82-4.59,5.18-4.78,2.38.72,4.39,1.98,5.41,4.52.33.82.84,1.44.38,2.24-.43.75-1.05,1.34-2.02,1.3l-4.9-.19Z"/>
        <path class="cls-4" d="M348.46,79.18c-1.12,1.18-1.97,2-3.42,2.04-1.62.04-2.34-.81-3.42-1.98-.9-.98-1.74-1.81-1.75-3.15s.84-2.17,1.75-3.15c1.07-1.17,1.8-2.02,3.42-1.97,1.43.04,2.3.86,3.36,1.97.89.93,1.66,1.74,1.76,2.9.13,1.52-.68,2.27-1.7,3.35Z"/>
        <path class="cls-4" d="M351.5,52.45l-1.49.8c-.36.19-1.03-.81-1.46-.89-1.53-.28-2.09-1.71-2.82-2.81l-.89-1.34c-.21-.32.69-1.14.8-1.57.38-1.54,1.37-2.37,2.92-2.76.41-.1,1.07-.96,1.49-.94s1.13.85,1.62.95c1.2.23,2.26,1.26,2.52,2.57.09.47.96,1.14.98,1.57s-.85,1.06-.98,1.5c-.41,1.4-1.21,2.12-2.68,2.92Z"/>
        <path class="cls-4" d="M354.77,38.41c-1.53.77-2.13.69-3.54.04-1.32-.61-2.14-1.62-2.51-2.98-.11-.4-.83-1.04-.92-1.41-.09-.42.98-.98,1.05-1.47.19-1.21,1.02-2.23,2.22-2.79,1.49-.68,2.13-.88,3.62-.09,1.22.65,1.97,1.42,2.64,2.65.76,1.41.77,2.03-.01,3.44-.64,1.15-1.3,1.97-2.54,2.6Z"/>
        <path class="cls-4" d="M314.76,160.56c-1.32-1.04-1.88-2.02-1.92-3.33-.05-1.57.56-2.44,1.87-3.55,1.55-1.33,3.98-.81,5.32.61s1.45,3.96.11,5.49-3.68,2.13-5.38.79Z"/>
        <path class="cls-4" d="M334.26,75.49c-1.09,1.12-1.84,1.75-3.14,1.79-1.51.04-2.24-.61-3.33-1.71-1.29-1.3-1.31-3.66,0-4.94,1.04-1.03,1.76-1.68,3.07-1.71,1.51-.04,2.23.61,3.34,1.72,1.23,1.22,1.34,3.55.06,4.87Z"/>
        <path class="cls-4" d="M326.28,111.75c1.11,1,1.81,2.02,1.85,3.23.05,1.41-.7,2.34-1.8,3.42-1.48,1.45-3.98,1-5.25-.41-1.51-1.67-1.65-3.76-.22-5.52,1.25-1.54,3.69-2.27,5.41-.72Z"/>
        <path class="cls-4" d="M322.35,140.75c1.46,1.55.86,4.06-.55,5.3-1.71,1.5-3.88,1.5-5.62,0-1.46-1.26-1.98-3.87-.49-5.38,1.03-1.04,1.94-1.7,3.18-1.75,1.41-.05,2.36.62,3.49,1.82Z"/>
        <path class="cls-4" d="M312.15,167.46c2.29-1.11,4.57-.18,5.59,1.93s.12,4.29-1.97,5.44c-1.95,1.07-4.25.14-5.47-1.95-1.02-1.74-.27-4.4,1.85-5.42Z"/>
        <path class="cls-4" d="M323.81,104.46c-1.27-1.02-1.94-2.04-1.96-3.39-.02-1.43.72-2.29,1.9-3.33,1.57-1.38,3.85-.88,5.22.51,1.44,1.47,1.58,3.78.24,5.37s-3.61,2.26-5.39.83Z"/>
        <path class="cls-4" d="M342.19,29.65c1.55,1.61,1.11,4.02-.37,5.41-1.56,1.47-3.89,1.59-5.5.13s-2.08-3.82-.54-5.49c.93-1.02,1.85-1.65,3.01-1.73,1.48-.11,2.26.51,3.39,1.68Z"/>
        <path class="cls-4" d="M339.24,48.45c-1.15,1.2-1.86,1.82-3.32,1.81s-2.13-.6-3.19-1.76c-1.14-1.26-1.14-3.57,0-4.82,1.05-1.16,1.82-1.74,3.18-1.76,1.5-.03,2.15.65,3.26,1.74,1.23,1.2,1.33,3.49.07,4.8Z"/>
        <path class="cls-4" d="M324.4,131.35c-1.05,1.3-2,1.89-3.36,1.9-1.48.02-2.32-.63-3.36-1.84-1.38-1.59-.88-3.86.52-5.22,1.55-1.5,3.76-1.65,5.39-.24,1.54,1.34,2.25,3.62.81,5.39Z"/>
        <path class="cls-4" d="M332.46,89.2c-.99,1.3-1.97,1.99-3.24,2.04-1.61.06-2.49-.55-3.58-1.83-1.52-1.78-.82-4.33,1.14-5.75,1.62-1.17,3.65-.79,5.01.52s1.92,3.38.68,5.02Z"/>
        <path class="cls-4" d="M337.3,61.43c-1.14,1.21-1.91,1.79-3.3,1.79s-2.15-.61-3.23-1.71c-1.25-1.27-1.27-3.64,0-4.88,1.1-1.09,1.8-1.7,3.23-1.69s2.12.59,3.24,1.69c1.19,1.17,1.29,3.52.07,4.8Z"/>
        <path class="cls-4" d="M356.69,24.32c-.45.09-1.21.82-1.62.93-.54.14-1.21-.87-1.71-.95-2.58-.41-3.89-5.04-3.18-5.09,3.16-.22,6.47-.22,9.61,0,.84.06-.24,1.98-.5,2.59-.41.96-1.08,2.2-2.59,2.52Z"/>
        <path class="cls-4" d="M357.72,176.08l-1.58,1c.29-.18-9.18.99-5.83-1.96.88-.78,2.04-2.37,3.28-2.81,1.43-.5,3.5-.42,4.91-.04,1.24.33,1.72,2.01,2.82,2.48l.66.28c.2.09.05,1.1-.17,1.09l-4.1-.05Z"/>
        <path class="cls-4" d="M313.07,116.28c-1.26-1-2.23.84-3.13.76-1.01-.09-1.56-1.72-3.2-.76,1.35-1.65-.82-2.35-.78-3.32.03-.74,2.05-1.44.78-2.88,2.14.87,3.49-2.28,3.84-.85.26,1.09,1.8.6,2.18,1.07.52.64.08,2.2,1.73,2.72l-1.38,1.23c-.32.28-.07,1.3-.03,2.03Z"/>
        <path class="cls-4" d="M307.89,130.99c-.94.05-1.89-1.62-2.98-.71.44-3.06-.61-1.78-1.03-3.12-.31-.98,1.68-.42,1.03-3.14,1.13.24,1.98-.24,2.88-1.06.82.49,2.29.95,2.9,1.55.45.45,1.09,1.8,1.15,2.42.07.75-.67,2.26-1.22,2.78s-2,1.24-2.72,1.28Z"/>
        <path class="cls-4" d="M308.14,144.16c-1.62-.51-2.2.25-3.07,1.2l-2.64-1.72c-.66-.43-.85-1.94-1.73-2.59,1.15-.93,1.66-1.66,1.26-3.08,1.34.83,2.25-.96,3.04-.82,1.03.18,1.63,1.68,3.27.69-1.08,1.59.58,2.25.67,3.24.08.88-1.68,1.85-.79,3.09Z"/>
        <path class="cls-4" d="M306.08,158.24c-1.22-.87-2.22.88-3.13.78-.99-.11-1.61-1.74-3.22-.67,1.01-1.63-.53-2.25-.69-3.27-.12-.79,1.68-1.68.81-3.03,1.44.43,2.16-.13,3.08-1.24l2.6,1.71,1.74,2.65c-1,.84-1.69,1.46-1.19,3.07Z"/>
        <path class="cls-4" d="M303.02,171.08c-2.6-.42-2.22,1.41-3.1,1.13-1.27-.39-.19-1.45-2.94-1.13.05-.97-.3-1.87-1.01-2.84,1.93-3.91.21-2.22,4.15-4.2.98.74,1.87,1.08,2.91,1-.43,2.51.72,1.87,1.08,2.99.29.91-1.68.55-1.09,3.04Z"/>
        <path class="cls-4" d="M317.28,87.56c-1.06,1.04-3.43.91-4.5.05-1.38-1.1-1.36-3.93,0-5.04,1.09-.88,3.38-.96,4.45,0,1.18,1.05,1.24,3.81.04,4.99Z"/>
        <path class="cls-4" d="M327.57,31.23c-1.12,1.47-4,1.4-5.1.06-.93-1.13-.9-3.5.14-4.55s3.7-1.08,4.79,0c.98.97,1.06,3.32.17,4.48Z"/>
        <path class="cls-4" d="M314.52,101.38c-.72,1.08-3.9,1.03-4.93.18-.93-.77-1.1-3.78.01-4.89,1.02-1.02,4-1.01,4.82.05.9,1.15.86,3.51.09,4.66Z"/>
        <path class="cls-4" d="M322.51,59.45c-.77.93-3.98,1.04-4.93.06-.9-.93-.95-3.59-.02-4.79.81-1.04,3.77-1.08,4.82-.04s.91,3.82.12,4.77Z"/>
        <path class="cls-4" d="M324.36,45.45c-1.14,1.18-3.76,1.08-4.79-.05s-1.02-3.53,0-4.6c1.11-1.18,3.77-1.19,4.86,0,.99,1.08,1.03,3.53-.06,4.65Z"/>
        <path class="cls-4" d="M319.26,73.47c-1.26,1.18-3.71,1.11-4.75-.17-.91-1.13-.94-3.53.11-4.58s3.46-1.03,4.57-.11c1.33,1.09,1.36,3.65.06,4.87Z"/>
        <path class="cls-4" d="M300.37,183.09l-1.84-.08c-.35-.01-.43.71-.81.98-.62.44-2.05.26-2.63-.12-.54-.36-1.58-1.72-.94-2.13.73-.48.44-2.07,1.07-2.35l2.78-1.21c.73-.32,1.89,2.04,3.05.67-.53,3.08,1.4,2.04,1.07,3.52-.17.75-.87.75-1.74.71Z"/>
        <path class="cls-4" d="M295.92,126.74c-.79.68-2.77.67-3.6.12-1.93-1.27-1.91-4.29-.02-5.53.97-.64,2.41-.33,3.53-.07,1.47,1.37,1.86,3.97.09,5.48Z"/>
        <path class="cls-4" d="M291,141.17c-.87-.02-1.82-.2-2.32-.67-1.05-1-1.13-3.61-.01-4.74.99-1,3.51-1.11,4.63.11.56.61.76,1.58.75,2.44-.04,1.76-1.11,2.91-3.04,2.86Z"/>
        <path class="cls-4" d="M301.43,98.37c-.84,1-3.47,1.07-4.62.15-.49-.39-.79-1.39-.87-2.15-.19-1.91.99-3.33,2.92-3.38.81-.02,1.77.17,2.31.65,1.24,1.11,1.21,3.61.26,4.74Z"/>
        <path class="cls-4" d="M308.31,44.2c-1.07.04-2.18-.19-2.73-.81-.64-.73-.71-1.92-.62-2.96.16-1.85,1.69-2.45,3.31-2.38s2.73,1.19,2.81,2.79c.09,1.7-.69,3.28-2.78,3.36Z"/>
        <path class="cls-4" d="M313.16,24.61c1.35,1.1,1.28,3.72.11,4.77-1.29,1.15-3.43.98-4.46-.01-1.16-1.12-1.13-3.21-.27-4.36.93-1.24,3.27-1.48,4.62-.4Z"/>
        <path class="cls-4" d="M282.66,182.98c-1.48-.38-1.74-1.75-1.74-2.97s.45-2.45,1.75-2.84c1.41-.42,2.98-.18,3.78.85s.83,2.71.26,3.8c-.7,1.35-2.47,1.56-4.04,1.15Z"/>
        <path class="cls-4" d="M294.42,112.88c-1.18-.49-1.48-1.68-1.5-2.72s.18-2.29,1.28-2.77c1.34-.58,3.18-.61,4.19.52.86.96.99,2.87.17,4.1s-2.58,1.53-4.14.87Z"/>
        <path class="cls-4" d="M301.18,71.71c-1.83-1-1.82-4.38-.05-5.31,1.44-.76,3.44-.62,4.32.6.77,1.06.89,2.94-.04,4.12-.82,1.04-2.67,1.44-4.23.6Z"/>
        <path class="cls-4" d="M284.28,163.39c1.66-.91,3.61-.51,4.44,1s.56,3.57-1.02,4.44c-1.43.78-3.43.56-4.35-.87s-.76-3.63.93-4.56Z"/>
        <path class="cls-4" d="M302.84,84.94c-1.23.33-2.46.33-3.62.02-1.74-1.62-1.75-4.12,0-5.73,1.17-.3,2.38-.31,3.55-.01,1.71,1.58,1.77,3.96.07,5.72Z"/>
        <path class="cls-4" d="M304.18,52.48c1.61-.89,3.86-.64,4.54.93.6,1.39.59,3.62-.99,4.39-1.34.65-3.54.61-4.43-.96-.68-1.2-.69-3.49.88-4.36Z"/>
        <path class="cls-4" d="M287.61,154.96c-1.2-.42-1.64-1.58-1.69-2.55-.06-1.22.14-2.49,1.34-3.02,1.29-.57,3.1-.59,4.06.43s1.06,2.85.29,4.17c-.67,1.13-2.43,1.53-3.99.98Z"/>
        <path class="cls-4" d="M344.9,19.17c.59,0-1.61,3.04-3.94,3.09s-4.03-3.27-3.99-2.18c0-.22.03-.61.08-1.04l7.84.13Z"/>
        <path class="cls-4" d="M274.06,166.16h-4.09c.03-1.17-.54-2.97.28-3.82s2.63-.27,3.78-.25l.03,4.06Z"/>
        <polygon class="cls-4" points="272.07 179.15 267.93 179.15 267.88 175 272 175.09 272.07 179.15"/>
        <path class="cls-4" d="M277.02,152.13c-1.47.1-2.6.1-4.1,0v-4.08s4.17-.08,4.17-.08l-.07,4.17Z"/>
        <path class="cls-4" d="M282.05,124.16h-4.11s.06-4.09.06-4.09c1.5-.14,2.49-.14,3.98,0l.07,4.08Z"/>
        <path class="cls-4" d="M284,110.02c-1.47.27-2.49.27-3.91,0-.27-1.36-.26-2.44,0-3.82,1.4-.27,2.45-.28,3.85,0,.2,1.36.2,2.28.06,3.82Z"/>
        <path class="cls-4" d="M279.07,137.99c-1.49.22-2.64.22-4.14.02v-3.83c1.5-.19,2.64-.19,4.11-.03l.03,3.84Z"/>
        <path class="cls-4" d="M296.01,39.97c-1.46.29-2.51.29-3.91,0-.27-1.37-.27-2.45.02-3.83,1.4-.25,2.42-.25,3.83,0,.2,1.34.2,2.27.07,3.81Z"/>
        <path class="cls-4" d="M291.96,68.03c-1.49.24-2.5.24-3.91-.01-.25-1.37-.24-2.42,0-3.82,1.38-.28,2.44-.28,3.85-.01.23,1.36.23,2.3.06,3.84Z"/>
        <path class="cls-4" d="M299.01,26.19h-3.94c-.22-1.49-.22-2.62,0-4.16h3.88c.17,1.53.17,2.49.06,4.16Z"/>
        <polygon class="cls-4" points="287.09 96.13 282.91 96.17 282.94 92.03 287.07 92.05 287.09 96.13"/>
        <polygon class="cls-4" points="294.05 54.12 289.92 54.18 289.96 50.04 294.03 50.05 294.05 54.12"/>
        <path class="cls-4" d="M288.97,82.16l-3.94-.03c-.18-1.54-.18-2.64.01-4.14h3.87c.21,1.47.2,2.44.06,4.17Z"/>
        <path class="cls-4" d="M260.16,145.3c1.07-.63,2.15.07,2.65.93.59,1,.03,2.13-.91,2.67s-1.99.1-2.6-.74c-.68-.95-.32-2.18.85-2.87Z"/>
        <path class="cls-4" d="M267.12,103.3c1.08-.63,2.16.03,2.66.92.55.97.07,2.13-.89,2.68s-1.99.13-2.58-.74c-.62-.92-.36-2.17.81-2.86Z"/>
        <path class="cls-4" d="M257.25,159.21c1.08-.52,2.13.26,2.6,1.12.54,1-.18,2.09-1.18,2.62-.92.48-1.93-.03-2.49-1.02-.51-.9-.15-2.13,1.07-2.72Z"/>
        <path class="cls-4" d="M262.03,131.35c1.09-.57,2.31-.03,2.8.88.52.97.09,2.09-.93,2.61-.91.46-2.06.22-2.68-.75-.54-.84-.36-2.13.81-2.74Z"/>
        <path class="cls-4" d="M282.17,20.27c1.16-.55,2.28.13,2.65,1.06.4,1.01-.05,2.14-1,2.59s-2.1.03-2.58-.91-.2-2.21.93-2.75Z"/>
        <path class="cls-4" d="M255.06,173.35c1.11-.57,2.31-.04,2.76.91s.07,2.1-.89,2.59-2.11.19-2.68-.75c-.52-.86-.33-2.15.81-2.74Z"/>
        <path class="cls-4" d="M269.93,89.38c1.07-.61,2.31-.22,2.79.65.53.95.3,2.25-.67,2.79-.87.49-2.09.33-2.68-.51s-.56-2.29.56-2.93Z"/>
        <path class="cls-4" d="M265.2,117.26c1.11-.62,2.21.13,2.61,1.04.45,1.01-.08,2.12-1.02,2.64s-1.99-.09-2.58-1-.16-2.04.99-2.68Z"/>
        <path class="cls-4" d="M272.11,76.35c1.11-.6,2.26-.02,2.77.95.48.92-.08,1.98-.96,2.56-.95.63-1.96.1-2.59-.78s-.42-2.08.79-2.73Z"/>
        <path class="cls-4" d="M275.23,62.25c1.11-.53,2.21.29,2.63,1.11.53,1.03-.2,2.04-1.06,2.52-1.01.56-2.07,0-2.56-.88-.54-.97-.17-2.2.99-2.75Z"/>
        <path class="cls-4" d="M279.13,34.35c1.08-.69,2.15.06,2.66.97s-.02,1.97-.9,2.54c-.94.61-1.99.1-2.6-.8s-.25-2.02.84-2.72Z"/>
        <path class="cls-4" d="M277.19,48.31c1.1-.67,2.09.03,2.55.91.55,1.03.13,2.17-.92,2.69-.88.43-1.97,0-2.58-.84-.65-.88-.19-2.07.95-2.76Z"/>
        <path class="cls-4" d="M253.22,101.31c1-.63,1.97.25,2.52.99.71.96-.11,1.94-1,2.55s-1.8-.03-2.44-.81c-.73-.89-.24-1.99.92-2.72Z"/>
        <path class="cls-4" d="M251.28,115.27c1.05-.66,1.98.22,2.5.98.68,1-.17,1.97-.97,2.58-.96.72-1.82-.06-2.48-.85-.75-.9-.22-1.98.94-2.71Z"/>
        <path class="cls-4" d="M244.69,160.91c-1.2.69-2.36-.5-2.58-1.62-.2-1.01.73-2.3,1.99-2.24.78.04,1.55.84,1.75,1.49.26.81-.23,1.84-1.16,2.37Z"/>
        <path class="cls-4" d="M241.2,171.32c1-.69,1.96.26,2.54,1.04.68.92-.09,1.93-.99,2.53s-1.8-.01-2.45-.81c-.73-.89-.24-1.98.9-2.76Z"/>
        <path class="cls-4" d="M239.28,184.32c1.03-.7,1.95.24,2.5,1.02.68.97-.14,1.94-.99,2.54-.93.65-1.82-.07-2.45-.82-.79-.92-.19-1.98.94-2.74Z"/>
        <path class="cls-4" d="M246.24,143.33c1.01-.63,1.99.21,2.5.98.64.97-.1,1.97-.97,2.54-.92.61-1.82-.02-2.44-.81-.7-.9-.25-2,.91-2.71Z"/>
        <path class="cls-4" d="M259.88,73.35c1.23,1.04,1.36,2.05.55,2.95-.96,1.05-1.91,1.04-2.87,0-.84-.9-.64-1.89.44-2.88.47-.43,1.35-.53,1.88-.08Z"/>
        <path class="cls-4" d="M263.24,48.88c-.63-.47-1.38-1.45-1.23-2.02.19-.71,1.08-1.61,1.75-1.76.76-.17,1.63.62,2.14,1.41.37.58-.13,1.37-.54,1.84-.52.6-1.2,1.22-2.12.52Z"/>
        <path class="cls-4" d="M261.33,59.3c1.02-.58,2.05.34,2.47,1.15.47.93-.28,1.92-1.09,2.42-.93.57-1.89-.14-2.41-.98-.55-.88-.07-1.97,1.03-2.59Z"/>
        <path class="cls-4" d="M248.96,133.3c-.79-.52-1.86-1.29-1.99-2.14-.13-.93,1.25-2.06,2.12-2.02.75.03,1.87,1.09,1.86,1.76-.03,1.12-.92,1.88-1.99,2.4Z"/>
        <path class="cls-4" d="M257.16,91.09c-1.09.2-2.1-1.21-2.09-2.12,0-.74,1.05-1.82,1.78-1.82.96,0,2.25,1.03,2.17,2.02-.05.64-1.13,1.78-1.86,1.92Z"/>
        <path class="cls-4" d="M267.18,35.04c-.97.1-2.31-1.08-2.21-2.03.07-.7,1.24-1.88,1.92-1.94,1.01-.09,2.06,1.2,2.05,2.13,0,.68-.97,1.75-1.76,1.83Z"/>
        <path class="cls-4" d="M255.08,189.07l-4.08.04c-.07-1.25.93-1.99,1.9-2.04s1.97.47,2.18,2Z"/>
        <rect class="cls-4" x="224.93" y="183.04" width="2.12" height="2.11" transform="translate(41.31 409.6) rotate(-89.85)"/>
        <rect class="cls-4" x="231.94" y="141.04" width="2.07" height="2.08" transform="translate(-.92 1.53) rotate(-.37)"/>
        <rect class="cls-4" x="248.96" y="44.09" width="2.09" height="2.02" transform="translate(-.61 3.54) rotate(-.81)"/>
        <rect class="cls-4" x="242" y="86.1" width="2.04" height="2.01" transform="translate(-1.21 3.44) rotate(-.81)"/>
        <path class="cls-4" d="M230.11,155.31c.27-.41,1.47-.44,1.78-.12s.4,1.34.13,1.7-1.26.4-1.72.26c-.5-.15-.65-1.12-.19-1.84Z"/>
        <rect class="cls-4" x="243.95" y="72.07" width="2.04" height="2.04" transform="translate(-.29 .96) rotate(-.23)"/>
        <rect class="cls-4" x="222.99" y="111.06" width="1.98" height="2.08"/>
        <rect class="cls-4" x="237" y="113.07" width="1.99" height="2.06" transform="translate(123.26 351.79) rotate(-89.85)"/>
        <rect class="cls-4" x="212.97" y="167.11" width="2.05" height="1.98"/>
        <rect class="cls-4" x="239.01" y="99.03" width="1.98" height="2.11"/>
        <rect class="cls-4" x="224.97" y="97.09" width="2.05" height="1.98"/>
        <rect class="cls-4" x="215.95" y="153.08" width="2.08" height="2.04" transform="translate(62.04 370.49) rotate(-89.77)"/>
        <path class="cls-4" d="M247.11,58.19c.32-.4,1.57-.42,1.82-.04s.24,1.42-.04,1.78-1.34.39-1.73.15-.46-1.38-.05-1.9Z"/>
        <rect class="cls-4" x="230.01" y="69.07" width="1.98" height="2.04"/>
        <rect class="cls-4" x="238" y="27.07" width="1.98" height="2.04"/>
        <path class="cls-4" d="M314.03,182.13l-4.09-.04c-.02-.22-.04-.95.13-.95l3.84-.11.11,1.09Z"/>
        <rect class="cls-4" x="233.02" y="55.09" width="1.98" height="1.98"/>
        <rect class="cls-4" x="220" y="125.11" width="1.98" height="1.98"/>
        <rect class="cls-4" x="210.99" y="95.11" width="1.98" height="1.98"/>
        <rect class="cls-4" x="209.02" y="108.07" width="1.98" height="2.03"/>
        <rect class="cls-4" x="227" y="169.08" width="2.01" height="1.99" transform="translate(57.57 397.81) rotate(-89.91)"/>
        <rect class="cls-4" x="234.99" y="41.11" width="1.98" height="1.98"/>
        <rect class="cls-4" x="251.97" y="30.07" width="2.05" height="2.04" transform="translate(221.5 284.03) rotate(-89.91)"/>
        <rect class="cls-4" x="218.01" y="139.09" width="1.98" height="1.98"/>
        <rect class="cls-4" x="210.99" y="181.09" width="1.98" height="1.98"/>
        <rect class="cls-4" x="215.98" y="67.09" width="2.03" height="1.98"/>
        <rect class="cls-4" x="234" y="127.06" width="1.99" height="2.05" transform="translate(106.25 362.71) rotate(-89.84)"/>
        <rect class="cls-4" x="227.98" y="83.11" width="2.03" height="1.98"/>
        <rect class="cls-4" x="197.02" y="178.1" width="1.98" height="1.97"/>
        <rect class="cls-4" x="202" y="150.07" width="1.97" height="2.04"/>
        <rect class="cls-4" x="198.99" y="164.12" width="1.98" height="1.97"/>
        <rect class="cls-4" x="218.98" y="53.11" width="2.03" height="1.98"/>
        <rect class="cls-4" x="221.02" y="39.08" width="1.98" height="2.03"/>
        <rect class="cls-4" x="224.02" y="25.09" width="1.97" height="1.98"/>
        <path class="cls-4" d="M204.11,136.39c.34-.47,1.31-.45,1.66-.15.31.27.4,1.13.14,1.49s-1.08.48-1.49.3c-.44-.19-.75-1.03-.3-1.64Z"/>
        <rect class="cls-4" x="194.02" y="192.07" width="1.97" height="2.04"/>
        <rect class="cls-4" x="206.98" y="122.12" width="2.03" height="1.96"/>
        <rect class="cls-4" x="214" y="81.08" width="1.97" height="2.02" transform="translate(-.16 .42) rotate(-.11)"/>
        <rect class="cls-4" x="268.51" y="19.61" width=".95" height="1.97" transform="translate(247.33 289.49) rotate(-89.77)"/>
      </g>
      <g>
        <path class="cls-1" d="M687.63,120.14c-.96-1.89-.45-2.93.19-4.36.8-1.79,1.79-3,3.83-3.88,3.67-1.58,3.71-.07,3.49-1.53-.04-.26-.89-.04-1.15-.19-1.98-1.15-3.94-3.65-3.79-6.07.25-3.96,3.3-6.14,7.11-7.38-2.46-.53-3.45-2.33-4.48-3.98-1.27-2.05-.79-3.6.2-5.55,1.44-2.84,2.66-2.75,5.2-4,.19-.09.08-.74.09-.97-.02.35-2.53-1.13-3.74-3.46-1.52-2.92-1.64,2.01-3.4,1.35-1.19-.45-2.17,1.21-2.85.97-.94-.33-2.4-.88-3.5-1.18-.77-.21-2.19-1.5-2.33-2.29-.18-1.05-1.1-2.59-1.02-3.48s.79-2.37,1.02-3.39c.18-.8,1.55-2.02,2.3-2.31,1.29-.49,2.81-.24,3.96-1.74l.58,1.74c1.74-.72,2.65-.05,3.68.95,1.09,1.07,1.32,2,1.42,3.98l3.75-3.76c.43-.43,1.69-.4,2.31-.47l.71-.08c.15-.02.22-.61.08-.65l-.83-.23c-.58-.16-1.32-.48-1.76-.79-.39-.27-.4-1.4-.54-1.94-.08-.3-.95-.41-.96-.72l-.07-1.62-.05-.97c-.01-.21-.8,0-.81.29-.07,1.98-2.48,4.11-4.55,4.06-.45-.01-1.17.76-1.55.78-4.96.34-7.26-7.53-6.12-5.53l-.87-1.52c-.18-.32.73-1.14.8-1.58.31-1.88,1.07-3.84,3.17-4.28,3.59-.76,3.59-2.13,3.04-2.16-3.08-.15-3.76-2.27-4.73-5.03-.07-.19-1.3-.29-1.33-.08l-.12.86c-.65.58-1.55,1.89-2.54,2.09-1.38.27-3.47.57-4.79-.12-1.09-.57-2.55-2.04-3.19-3.2s-.61-3.94,0-5.08,2.08-2.63,3.2-3.18c1.23-.61,3.69-.54,4.89-.05,1.31.54,2.32,1.96,3.32,2.86s-.63,3.27,1.21,2.84c.59-.14-1.29-2.01,3.81-4.27,2.08-.92,3.25-.72,3.25-.77l.04-.67c.01-.21-.65-.14-.87-.19-1.87-.38-2.65-2.3-3.52-3.61-1.14-1.72-.91-3.34.04-4.92s1.85-2.96,3.78-3.78l2.3-.97c.14-.06.23-.49.09-.51-2.84-.41-5.3-4.3-4.85-7.22h25.64c.35,0,.62.72.44.82-.22.12-.94.32-.95.57l-.25,4.97c.12-2.38-1.42,4.77-.87,4.43-.2.13-.62.3-.88.4-.14.06-.3.58-.16.62l.73.19c.23.06.39.55.4.84.01.24-.97.22-1,.47-.19,1.55-.01,3.83.1,5.55l-1.31.31c-.17,3.04,1.07,4.45-.88,6.48-.37,1.82.61,3.87-.12,5.57-.49,1.16-1.37,2.1-.84,3.63.21.61-.06,1.83-.42,2.32-.8,1.09-2.46.55-2.62,1.14-.3,1.1,1.63.47,1.78,1.01,1.12,4.06-.6,4.78-.63,5.4l-.22,4.69c-.04.85-1.4,1.32-.81,2.67h-2.8c-.15-.01-.42.46-.4.61.03.2.51.24.74.45l2.28,2.02c.12.11.07.72-.08.77l-.84.29c-.46,2.02.7,4.29-.17,6.14l-1.29,2.73c-.54,1.16-2.21.93-3.22.93-.29,0-.33.97-.02.99.47.04,1.62.15,2.01.48.43.36.72,1.15.72,1.82v4.93s-1.05,1.56-1.05,1.56l.05,3.03-4.36,1.7c1.29.54,2.16.64,2.72,1.14.81.72.58,1.89.73,2.78.26,1.55-.43,2.2-1.01,3.42s.27,3.28-.13,4.68c-.1.36-1.13.47-1.45.71-2.04,1.51-1.77.47-3.47.96-.21.06.02.78.28.75,1.6-.18,3.54,2.1,3.76,3.36.17.96-.63,1.46-.99,2.36-.93,2.36,1.7,5.2-2.34,6.44-.89.27-1.41,1.54-2.87.8l.03,1.3c1.88-1.36,4.13,3.06,4.03,1.87l.08.91c.02.25-1.09.11-1.09.4l.04,4.63c-6.75-.29-3.85.43-5.6.88-1.34.34-3.48.26-4.84.06-1.5-.22-1.52-2.26-1.79-3.17-.36-1.2.86-1.42.96-1.92.41-2.12,2.03-3.5,3.86-4.15.58-.2,1.62-.95,2.15-.75.24.09.32-.63.29-.86-.15-1.15-1.38,2.19-4.59-4.14ZM703.38,30.74c1.27-2.67,3.85-2.61,3.86-2.71.23-1.61-3.61-1.19-3.12-6.08-2.17-.42-2.67,3.25-6.76,3.2-.23,0-.38,1.05-.15,1.05,4.82-.14,4.56,7.94,6.17,4.54ZM700.19,44.99c-.03-.63.13-1.88.99-2.28l3.17-1.5c.22-.1.17-.98-.07-1.03-3.14-.67-1.52-3.61-2.45-5.27-1.49,1.77-2.62,2.87-4.43,3.79-2.24,1.14-3.35.11-3.32.84.06,1.32,2.84-.74,4.61,4.91l.27.86c.07.23,1.24-.08,1.22-.32ZM699.73,56.46l2.48-1.34c.19-.1.8-.13.99-.17.15-.03-.15-.61-.36-.61-3.12.06-4.07-6.21-3.83-6.2l-.65-.02c-.45-.01.96,2.33-3.76,4.33-.84.36-1.49,1.1-2.64.78-.25-.07-.74.08-.84.27-.73,1.41,2.01-.41,3.98,1.95.9,1.08,1.38,1.86,1.04,3.63.5.12,1.95.53,2.1.01.11-.4-.08-1.58.21-1.86.26-.24.69-.45,1.3-.78Z"/>
        <path class="cls-1" d="M682.64,94.01c-.94-.6-1.39-1.07-2.65-.75.92-1.37-.57-1.84-.71-2.7-.7-4.06.04-4.7,1.21-7.13.29-.6,1.51-.43,2.33-1.07,1.14-.89,3.62.17,5-.39.39.68.42,1.2.75,1.18l1.61-.11c-.1,1.03.22,1.65.85,2.51.12.16,1.02,4.86-1.17,7.15s-6.99,1.45-7.22,1.31Z"/>
        <path class="cls-1" d="M685.8,107.88c-1.3.68-3.89.63-5.16.04-1.19-.56-2.62-2.12-3.2-3.19-.82-1.51-.03-3.4-.26-5.03,4.24-4.48,2.11-3.44,8.7-3.54l3.34,3.55c-.25,1.6.56,3.51-.25,5.01-.56,1.05-1.92,2.5-3.17,3.15Z"/>
        <path class="cls-1" d="M682.75,121.84c-1.31.7-3.79.64-5.05.04-1.19-.57-2.69-1.98-3.25-3.08-.81-1.6-.05-3.57-.23-5.29,1.29-1.02,2.11-2.55,3.63-3.12,1.23-.46,3.46-.47,4.68,0,1.52.58,2.35,2.1,3.66,3.11-.21,1.74.54,3.69-.25,5.33-.51,1.05-1.99,2.37-3.2,3.03Z"/>
        <path class="cls-1" d="M683.97,35.8c-1.14.79-4.02.68-5.27.09-1.12-.53-2.75-1.98-3.21-3.07-.61-1.42-.58-3.77-.02-5.19.45-1.15,2.05-2.73,3.2-3.19,1.42-.56,3.76-.59,5.19.02,1.08.46,2.54,2.09,3.06,3.21.6,1.29.68,4.08-.04,5.22-.65,1.04-1.8,2.14-2.91,2.9Z"/>
        <path class="cls-1" d="M680.85,135.76c-1.44.75-3.92.69-5.31.03-1.12-.53-2.57-1.98-3.05-3.14-.55-1.34-.67-4,.07-5.24.59-.99,1.94-2.29,2.93-2.9,1.17-.72,4.16-.73,5.32-.02,1.02.62,2.3,1.86,2.96,2.87.83,1.27.73,4,.09,5.36-.53,1.13-1.85,2.42-3.03,3.04Z"/>
        <path class="cls-1" d="M678.72,63.78c-1.48.69-3.94.72-5.26-.04-1.13-.65-2.36-1.9-2.96-3.06-.63-1.23-.69-3.76,0-4.98s1.96-2.65,3.15-3.26,3.75-.61,4.93-.04,2.64,1.98,3.24,3.16c.68,1.32.63,3.75.07,5.09-.5,1.2-1.92,2.53-3.18,3.12Z"/>
        <path class="cls-1" d="M677.27,76.3c-2.24,1.22-4.06,1.45-6.03-.05-.92-.7-1.73-.46-2.2-2.07-.39-1.32-1.88-3.14-.6-4.82.38-.5.98-1.2,1.01-1.97.05-1.04,1.35-.84,1.77-1.22,1.95-1.76,3.99-1.22,5.92-.17,1.32.72,1.67.96,2.28,2.49.32.8.99,1.52,1.02,2.67.04,1.26-.7,1.87-1.04,2.68-.59,1.42-.9,1.79-2.14,2.47Z"/>
        <path class="cls-1" d="M676.41,88.01c-1.62,2.87-4.88,4.09-8.05,2.42-1.15-.61-1.76-1.31-2.38-2.41-1.11-1.97-1.11-3.68,0-5.65,1.46-2.6,5.75-4.76,7.91-2.2,1.44-.05,1.88,1.28,2.47,2.2,1.26,1.95,1.13,3.73.05,5.64Z"/>
        <path class="cls-1" d="M672.14,104.31c-2.23,1.15-3.74,1.25-5.88-.01-1.2-.71-1.88-1.28-2.46-2.58-.85-1.92-.76-3.24-.01-5.13.56-1.44,1.29-1.82,2.56-2.56,2.05-1.2,3.58-1.14,5.6-.03,1.34.73,2,.81,2.5,2.64.19.71,1.04,1.48,1.04,2.5,0,1.17-.73,1.69-1.06,2.54-.56,1.47-.93,1.94-2.28,2.64Z"/>
        <path class="cls-1" d="M669.11,118.28c-2.12,1.36-3.76,1.4-5.73-.08-.85-.64-2.45-.75-2.18-2.6-1.51-1.17-1.58-3.7.02-4.82-.29-1.85,1.28-1.99,2.15-2.62,2.01-1.46,3.68-1.43,5.65-.12,1.07.71,1.74,1.22,2.39,2.4,1.1,2,1.12,3.45,0,5.47-.6,1.08-1.22,1.69-2.29,2.37Z"/>
        <path class="cls-1" d="M664.23,32.25c-1.38-.71-1.89-1.29-2.32-2.72-.23-.75-1.4-1.54-.86-2.85.1-.24.03-1,.23-1.16s.62-.22,1.13-.32l-.43-2.09c2.77-.5,5-3.82,7.67-.94,1.75-.13,2.12,1.23,2.71,2.32,1.06,1.95,1.12,3.41.1,5.33-.64,1.21-1.37,1.86-2.49,2.55-2.07,1.27-3.58.99-5.75-.12Z"/>
        <path class="cls-1" d="M664.1,132.92c-3-.16-4.39-2.58-5.44-4.41-.74-1.29-.29-1.57.09-2.65.75-2.15,2-3.35,4.12-4.15,1.09-.41,1.37-.77,2.64-.06,1.89,1.06,4.2,2.45,4.44,5.38.2,2.49-3.24,6.04-5.85,5.9Z"/>
        <path class="cls-1" d="M666.64,46.46c-.42.13-1.1.8-1.48.88s-.97-.79-1.39-.9c-1.76-.46-3.14-1.94-3.97-3.61-.72-1.44-.7-1.89,0-3.32.83-1.66,2.41-3.21,3.86-3.6.52-.14,1.15-.85,1.53-.91s.97.81,1.49.93c1.46.33,3.06,1.91,3.88,3.58.7,1.42.73,1.9,0,3.32-.85,1.64-1.94,3.02-3.92,3.64Z"/>
        <path class="cls-1" d="M663.72,60.59c-1.41.59-1.68.57-2.97.05-1.82-.75-3.5-2.4-3.82-4.23-.07-.39-.83-.94-.93-1.25-.11-.36.86-.91.95-1.28.46-1.91,1.86-3.5,3.86-4.02.35-.09.95-.66,1.28-.71.38-.05,1.04.65,1.46.74,1.98.4,3.38,2.16,3.89,3.92.11.37.77.93.91,1.23.16.34-.85.94-.92,1.38-.3,1.76-1.88,3.41-3.72,4.19Z"/>
        <path class="cls-1" d="M659.92,87.88c-1.55.58-3.79.51-5.27.05-.76-.23-2.03-1.49-2.28-2.25-.45-1.39-.44-3.64,0-5.03.24-.76,1.52-2.02,2.27-2.25,1.48-.47,3.76-.45,5.2,0,.74.23,1.88,1.56,2.15,2.28.48,1.27.42,3.69.01,4.97-.22.69-1.39,1.97-2.08,2.23Z"/>
        <path class="cls-1" d="M662.71,73.94c-1.42.55-3.68.46-5.01.02-.74-.24-2-1.51-2.29-2.27-.52-1.34-.49-3.74.01-5.1.26-.72,1.5-1.94,2.19-2.2,1.41-.52,3.71-.54,5.14,0,.75.28,1.99,1.55,2.26,2.29.47,1.31.43,3.62.02,4.93-.24.76-1.49,2.01-2.3,2.33Z"/>
        <path class="cls-1" d="M657.76,101.89c-1.47.59-3.83.52-5.21.05-.71-.24-1.82-1.53-2.12-2.2-.57-1.28-.46-3.74-.02-5.14.24-.76,1.54-1.93,2.26-2.2,1.35-.51,3.55-.48,4.91-.02.76.26,2.17,1.43,2.43,2.22.44,1.33.42,3.81,0,5.15-.22.71-1.48,1.83-2.25,2.14Z"/>
        <path class="cls-1" d="M655.98,41.75c-.66,2.09-4.63,3.25-7.3,2.13-.75-.31-1.98-1.5-2.26-2.26-.49-1.35-.5-3.39,0-4.77.28-.78,1.46-2.19,2.24-2.45,1.46-.48,3.59-.52,5.03-.02.76.26,2.03,1.58,2.28,2.35.48,1.43.46,3.62.02,5.02Z"/>
        <path class="cls-1" d="M655.88,29.89c-1.61.61-3.81.51-5.26.06-.76-.24-1.94-1.6-2.17-2.35-.45-1.42-.48-3.62,0-4.97.28-.77,1.53-2.01,2.3-2.25,1.31-.4,3.57-.44,4.89-.02.76.24,1.99,1.53,2.3,2.31.46,1.18.42,3.58.02,4.9-.22.73-1.35,2.04-2.08,2.31Z"/>
        <path class="cls-1" d="M654.54,115.93c-1.4.48-3.48.47-4.75.04-.78-.26-2.02-1.51-2.32-2.24-.56-1.38-.51-3.38-.07-4.82.25-.8,1.4-2.24,2.22-2.51,1.48-.48,3.51-.5,5.03-.03.78.24,2.07,1.57,2.32,2.36.47,1.47.49,3.55,0,5-.25.75-1.61,1.9-2.44,2.18Z"/>
        <path class="cls-1" d="M651.92,130.03c-1.11.29-2.34.29-3.46,0-.61-.85-1.51-.9-2.42-.72.16-.91.12-1.81-.71-2.43-.28-1.11-.28-2.34-.02-3.46.87-.59.92-1.5.74-2.4.9.16,1.79.08,2.42-.73,1.11-.29,2.34-.29,3.45,0,.62.83,1.51.88,2.42.71-.17.91-.14,1.82.73,2.42.26,1.12.26,2.35,0,3.47-.86.61-.89,1.52-.71,2.44-.92-.17-1.82-.13-2.44.69Z"/>
        <path class="cls-1" d="M644.08,57.19c.57-3.5-1.63-.08-.93-5.75.03-.25.82-.32,1.2-.35l-.26-1.86c2.3.26,2.99-2.92,7.31.02,2.49,1.7,2.51,6.14,0,7.84-4.45,3.03-5.11-.45-7.33.1Z"/>
        <path class="cls-1" d="M647.78,71.96c-.53.65-2.5.46-3.23.08-.33-.17-.48-.93-.79-.91l-1.58.1c.23-1.07-.06-1.68-.73-2.43-.55-.61-.63-2.64.02-3.14.86-.65.49-1.85.93-2.3s1.62-.03,2.28-.91c.48-.65,2.54-.58,3.15-.03.72.65,1.37,1,2.42.72l-.08,1.57c-.02.31.69.49.87.82.38.73.62,2.74-.06,3.23-.85.6-.52,1.79-.97,2.23s-1.57.16-2.23.97Z"/>
        <path class="cls-1" d="M646.52,83.51c-1.12,1.09-1.93,1.81-3.41,1.79s-2.21-.85-3.25-1.85c-1.12-1.07-1.84-1.75-1.84-3.28s.73-2.21,1.85-3.29c1.03-1,1.82-1.82,3.25-1.83s2.28.7,3.34,1.73,1.8,1.84,1.87,3.16c.09,1.57-.65,2.45-1.81,3.57Z"/>
        <path class="cls-1" d="M644.45,97.46c-1,.99-1.93,1.84-3.26,1.83s-2.27-.82-3.21-1.78c-1.1-1.13-1.98-1.82-1.92-3.44.06-1.43.87-2.31,1.98-3.36,1-.94,1.79-1.7,3.15-1.73s2.1.8,3.13,1.73,1.85,1.86,1.97,3.1c.17,1.74-.64,2.44-1.85,3.63Z"/>
        <path class="cls-1" d="M640.01,112.3c-.67.16-1.4,1.36-2.23.88l-2.86-1.67c-.93-.55-1.16-2.6-1.95-3.51,1.13-.87,1.01-2.13,1.8-2.96.66-.7,2.43-1.83,3.43-1.8s2.81,1.06,3.41,1.84,1.04,2,1.6,2.91c.28.45-.7,1.44-.84,1.97-.31,1.17-.9,2-2.37,2.35Z"/>
        <path class="cls-1" d="M640.71,26.53c-.4.1-1.14.69-1.5.8-.4.12-1.03-.81-1.48-.9-1.48-.27-2.07-1.71-2.8-2.81l-.89-1.33c-.21-.32.68-1.13.81-1.63.35-1.41,1.57-2.4,2.82-2.69.5-.12,1.17-.98,1.59-.95s1.13.85,1.58.94c1.33.27,2.26,1.18,2.55,2.61.09.41.95,1.1.98,1.53s-.85,1.06-.98,1.5c-.4,1.39-1.03,2.51-2.67,2.91Z"/>
        <path class="cls-1" d="M637.98,126.48c-1.57.92-2.07.55-3.49,0-1.33-.52-2.25-1.49-2.49-2.77-.09-.5-.98-1.13-1.02-1.55s.99-1,1.06-1.48c.19-1.37,1.09-2.31,2.46-2.8s1.9-.96,3.39-.06c1.08.65,2.1,1.34,2.55,2.71.16.47.78,1.22.76,1.65s-.6,1.19-.74,1.6c-.51,1.41-1.34,2.03-2.49,2.7Z"/>
        <path class="cls-1" d="M637.25,41.09c-.99.28-2.12-1.82-3.43-1.17-.7-2.91-1.63-3.18-1.78-3.71-.09-.32.62-.82.77-1.16l1.05-2.32,3.29-1.62c4.77,2.5,2.47.59,5.22,5.06-1.11.87-.91,2.78-2.02,3.41-.83.47-2.16,1.26-3.1,1.53Z"/>
        <path class="cls-1" d="M637.41,53.68c-1.28.49-2.12.86-3.18,1.6-1.89-1.6-3.46-1.03-3.74-2.35-.23-1.1-.66-1.81-1.48-2.75.19-.37,1.08-1.15,1.14-1.66.37-2.83,1.76-1.56,4.1-3.47.91.69,1.71,1.15,2.7,1.37,1.74.38.19,1.84,2.59,3.84-2.44,1.55-.86,2.94-2.12,3.42Z"/>
        <path class="cls-1" d="M636.12,66.44c-.48,2.59-7.14,2.45-7.78.22-.4-1.4-.38-3.69.01-5.1.46-1.64,2.51-1.41,3.84-1.43,1.43-.02,3.51-.15,3.91,1.58.3,1.3.29,3.29.02,4.74Z"/>
        <path class="cls-1" d="M637.04,138.6c-.41,1.87-2.47,1.63-3.85,1.65-1.27.02-2.41.02-3.23-.71-.92-.83-.88-2.02-.85-3.36s-.21-3.38,1.55-3.82c1.12-.28,6.31-.92,6.47,1.5.1,1.54.23,3.26-.1,4.76Z"/>
        <path class="cls-1" d="M631.7,81.93c-1.45.45-3.57.4-4.96.02-1.76-.48-1.65-2.34-1.64-3.83s-.09-3.34,1.67-3.79c1.39-.36,3.46-.38,4.85-.01,1.73.45,1.69,2.37,1.67,3.8s.22,3.24-1.58,3.8Z"/>
        <path class="cls-1" d="M629.64,88.33c2.24.65,2.29,7.01-.02,7.67-1.4.4-3.53.39-4.92-.01-1.81-.52-1.54-2.45-1.57-3.93s-.08-3.36,1.75-3.76c1.38-.3,3.4-.36,4.76.03Z"/>
        <path class="cls-1" d="M622.35,102.49c2.03-1.11,4.61-.1,5.54,1.86,1.01,2.16.24,4.46-1.93,5.54-1.92.95-4.23.23-5.42-1.77s-.39-4.42,1.81-5.63Z"/>
        <path class="cls-1" d="M622.49,51.49c-1.8,1.48-4.06.81-5.57-.85-1.19-1.31-1.25-3.75.09-4.96,1.04-.94,1.87-1.59,3.07-1.65,1.36-.06,2.11.62,3.16,1.5s1.12,1.74,1.11,3.2c0,1.02-.76,1.86-1.85,2.76Z"/>
        <path class="cls-1" d="M626.6,36.37c-1,1.28-2.03,1.96-3.41,1.96s-2.39-.7-3.36-1.89c-1.37-1.68-.91-3.86.55-5.24s3.77-1.58,5.36-.22,2.31,3.54.86,5.39Z"/>
        <path class="cls-1" d="M623.43,136.61c-1.1,1.05-1.9,1.68-3.11,1.73-1.44.06-2.18-.64-3.3-1.65-1.34-1.22-1.36-3.81,0-5.03,1.05-.94,1.81-1.61,3.03-1.66,1.44-.05,2.18.65,3.31,1.67,1.27,1.15,1.38,3.7.07,4.95Z"/>
        <path class="cls-1" d="M625.39,117.72c1.56,1.62,1.1,4.01-.36,5.42-1.55,1.49-3.87,1.56-5.5.11s-2.07-3.8-.54-5.48c.94-1.03,1.82-1.68,3-1.75,1.48-.09,2.27.52,3.41,1.69Z"/>
        <path class="cls-1" d="M621.47,64.52c-1.14,1.23-1.91,1.8-3.31,1.82s-2.1-.64-3.21-1.75c-1.22-1.23-1.22-3.61,0-4.85,1.08-1.11,1.81-1.73,3.21-1.75s2.14.64,3.25,1.75,1.24,3.5.07,4.77Z"/>
        <path class="cls-1" d="M617.31,89.05c.06,2.1-2.24,4.27-3.97,4.26-2.11-.02-4.16-2.02-4.21-4.02-.06-2.15,2.04-4.22,4.21-4.23,1.78,0,3.92,2.15,3.97,3.99Z"/>
        <path class="cls-1" d="M613.02,79.52c-1.17-1.03-1.94-1.91-1.96-3.18-.02-1.43.66-2.39,1.81-3.41,1.56-1.38,3.88-.91,5.2.49,1.48,1.56,1.55,3.74.26,5.22-1.39,1.59-3.62,2.38-5.31.88Z"/>
        <path class="cls-1" d="M627.96,17.46c2.09.97,1.42,3.99.49,5.2-1.36,1.78-3.73,2.32-5.49.93-.98-.78-1.87-1.78-1.84-2.73.03-1.22-.2-3.03,1.26-3.45s4.1-.64,5.57.04Z"/>
        <path class="cls-1" d="M685.94,22.16c-6.82.12-4.98.5-8.65-3.53-.24-.26-.32-1.46.13-1.46h11.58c.44,0,.21,1.36.08,1.58l-3.15,3.41Z"/>
        <path class="cls-1" d="M614.25,106.24c-2.1-.53-2.46,1.49-3.29,1.05-1.53-.8-.36-1.32-2.81-1.08.54-2.06-1.6-2.55-1.11-3.24,1.12-1.6,1.38-.21,1.01-3.02,1.18.67,2.08-.67,3.08-.74s1.98,1.46,3.2.73c-.49,3,.39,1.62,1.01,3.07.43,1.01-1.71.87-1.09,3.22Z"/>
        <path class="cls-1" d="M612.45,34.23c-2.63-.62-2.62,1.44-3.41,1.08-1.45-.66-.24-1.41-2.91-1.05.15-1.05-.25-1.91-1.05-2.84,2.11-4.52.14-2.23,4.31-4.43.36,1.35,2.32.58,2.58,1.23,2.74,6.63-.04,1.33.48,6Z"/>
        <path class="cls-1" d="M646.28,139l-.19,1.34-3.62-.14c-.81-1.28-.05-2.35.3-3.47s.83-1.39,1.73-1.85c1.88-.96,3.33-.97,5.26-.1,2.23,1.01,2.76,4.11,2.16,4.25-1.84.42-3.57.03-5.65-.02Z"/>
        <path class="cls-1" d="M610.89,119.86c-.4.54-1.9,1.09-2.57,1.17-.78.1-2.37-.61-2.86-1.23-.42-.53-1.14-1.88-1.13-2.55.01-.72.68-2.17,1.23-2.63s1.91-1.42,2.64-1.36,2.07.85,2.64,1.32,1.18,1.93,1.22,2.66c.03.68-.74,2.05-1.17,2.62Z"/>
        <path class="cls-1" d="M609.31,134.38c-1.44-.99-2.25.85-3.06.71-.71-.12-2.17-.7-2.63-1.26s-1.32-1.92-1.32-2.66.87-2.07,1.33-2.64,1.91-1.15,2.63-1.27c.79-.13,1.61,1.7,3.04.7-.78,1.4.86,2.19.84,3.22s-1.59,1.81-.83,3.22Z"/>
        <path class="cls-1" d="M609.44,48.49c-1.43-1.36-2.45.82-3.2.57-.89-.3-2.13-.81-2.85-1.16-.68-.32.22-2.38-1.67-2.57,3.81-4.25-1.13-.79,4.51-4.42.89.97,1.52,1.63,3.11,1.18-.89,1.21.88,2.21.78,3.09-.12,1.03-1.69,1.58-.68,3.31Z"/>
        <path class="cls-1" d="M606.48,61.64c-1.06,1.04-3.43.91-4.5.05-1.38-1.1-1.36-3.93,0-5.04,1.09-.88,3.38-.96,4.45,0,1.18,1.05,1.24,3.81.04,4.99Z"/>
        <path class="cls-1" d="M604.7,75.5c-.86,1.01-3.91,1.02-4.9.12s-1-3.85-.02-4.84,3.83-1.03,4.82,0,.87,3.81.1,4.72Z"/>
        <path class="cls-1" d="M601.59,89.45c-1.15,1.24-3.64,1.18-4.76.05s-1.12-3.62.02-4.7,3.58-1.05,4.68,0,1.12,3.5.06,4.65Z"/>
        <path class="cls-1" d="M596.56,117.49c-1.11,1.13-3.64,1.1-4.72.02s-1.06-3.57-.03-4.66c1.1-1.17,3.59-1.12,4.71-.01s1.2,3.48.04,4.66Z"/>
        <path class="cls-1" d="M594.62,131.43c-1.11,1.27-3.65,1.17-4.77.06s-1.14-3.61.02-4.69,3.58-1.06,4.67.02c1.03,1.02,1.09,3.44.08,4.6Z"/>
        <path class="cls-1" d="M594.58,45.46c-1.09,1.17-3.61,1.1-4.7.08-1.16-1.09-1.14-3.59-.02-4.69s3.6-1.15,4.71.01c.99,1.05,1.08,3.46.02,4.61Z"/>
        <path class="cls-1" d="M599.58,103.53c-.95,1.04-3.79.97-4.69.02-1.06-1.12-1.04-3.67,0-4.77.9-.95,3.48-.99,4.55-.08,1.17,1,1.18,3.68.14,4.83Z"/>
        <path class="cls-1" d="M595.32,32.29c-.89-.02-1.86-.2-2.38-.65-1.2-1.04-1.16-3.76-.13-4.83.94-.97,3.51-1.01,4.53-.15.68.57.9,1.57.94,2.47.07,1.82-.97,3.19-2.96,3.15Z"/>
        <path class="cls-1" d="M592.65,59.29c-1.18,1.41-3.73,1.36-4.86.07-.98-1.12-1.02-3.33.02-4.43,1.12-1.2,3.65-1.21,4.76,0,.97,1.05,1.05,3.21.09,4.37Z"/>
        <path class="cls-1" d="M590.47,73.49c-1.2,1.14-3.41,1.02-4.5-.04-1.17-1.14-1.17-3.42,0-4.55s3.29-1.19,4.43-.14c1.21,1.11,1.33,3.53.07,4.72Z"/>
        <path class="cls-1" d="M591.57,145.36c-1.13,1.29-3.39,1.13-4.55.19s-1.23-2.98-.44-4.24c.85-1.35,3.11-1.66,4.59-.69,1.34.88,1.55,3.43.4,4.75Z"/>
        <path class="cls-1" d="M588.27,85.01c.19,1.12-2.19,3.18-3.02,3.19-.92.01-3.05-1.86-3.06-2.99-.01-1.19,2.27-3.08,3.09-3.1s2.87,2.17,2.99,2.9Z"/>
        <path class="cls-1" d="M584.23,25.97c.19,1.07-2.22,3.27-3.05,3.26-.87,0-3.07-2.21-3.06-3.07s2.18-3.06,3.06-3.06,2.91,2.15,3.04,2.86Z"/>
        <path class="cls-1" d="M586.19,97.97c.2,1.31-2.37,3.34-3.04,3.25-.59-.08-3.03-1.93-3.04-3.05s2.51-2.97,3.04-3.04c.76-.1,2.9,1.87,3.04,2.84Z"/>
        <path class="cls-1" d="M583.21,112.12c.1,1.03-2.25,2.97-3,3.06-.86.11-2.97-2.26-3.06-2.88-.11-.72,2.11-3.09,2.9-3.18.95-.1,3.08,2.13,3.17,3Z"/>
        <path class="cls-1" d="M578.07,140.17c.02,1.02-1.79,2.87-2.81,2.92-1.11.05-3.04-1.87-2.98-2.98.06-1.02,1.83-2.74,2.84-2.85s2.92,1.86,2.94,2.92Z"/>
        <path class="cls-1" d="M582.07,40.28c-.09,1.18-1.86,2.8-2.93,2.79s-2.82-1.8-2.83-2.84,1.6-2.8,2.69-2.94c1.18-.15,3.17,1.67,3.08,2.99Z"/>
        <path class="cls-1" d="M579.13,54.16c-.11,1.45-1.87,2.42-2.88,3.09-1.23-.5-2.86-1.84-2.89-3.09-.03-1.11,1.79-2.96,2.86-2.85s2.99,1.81,2.91,2.85Z"/>
        <path class="cls-1" d="M581.06,126.05c.09,1.16-1.79,3.04-2.86,3.03s-2.9-1.87-2.9-2.96,1.84-2.83,2.88-2.85,2.79,1.72,2.87,2.78Z"/>
        <path class="cls-1" d="M611.92,20.97c-1.17,1.3-1.62-1.29-3.77-.73,0-.58.13-1.6-.23-1.79l-.79-.41c-.19-.1.14-.89.45-.89h6.82c.37,0,.83.19.87.39.05.28-.25.56-.71.8-.4.21-.38,1.21-.33,1.9-.84-.09-1.67.01-2.31.73Z"/>
        <path class="cls-1" d="M573.17,84.06c-1.41.34-2.48.3-3.87.03-.28-1.34-.3-2.45.03-3.8,1.09-.13,2.81-.65,3.62.18.74.76.27,2.38.22,3.59Z"/>
        <polygon class="cls-1" points="576.28 70.2 572.11 70.26 572.13 66.09 576.28 66.13 576.28 70.2"/>
        <path class="cls-1" d="M571.17,98.22h-3.91c-.16-1.54-.16-2.67,0-4.13h3.85c.15,1.44.14,2.43.05,4.13Z"/>
        <path class="cls-1" d="M567.29,40.12c-1.39.16-2.64.15-4.12-.04l.04-3.91,4.04-.06.05,4.02Z"/>
        <path class="cls-1" d="M566.3,126.26l-3.99-.14c-.12-1.13-.64-2.83.23-3.63s2.49-.33,3.64-.26l.12,4.03Z"/>
        <path class="cls-1" d="M569.16,26.06c-1.52.23-2.5.25-3.96.05l-.05-3.97c1.53-.07,2.45-.06,3.99.04.16,1.4.15,2.28.02,3.87Z"/>
        <path class="cls-1" d="M664.92,138.19l-7.66.04-.3-1.08,4.29-2.02,3.4,1.75c.12.06.4.12.53.1.19-.03-.06,1.22-.26,1.22Z"/>
        <path class="cls-1" d="M563.17,140.07c-1.56.16-2.49.18-3.98.04l-.04-3.98,4,.02c.09,1.44.09,2.28.02,3.91Z"/>
        <polygon class="cls-1" points="568.24 112.21 564.18 112.21 564.15 108.13 568.21 108.13 568.24 112.21"/>
        <path class="cls-1" d="M564.1,54.12l-4.02.2.1-4.11c1.11,0,2.85-.47,3.63.26.88.82.36,2.32.28,3.65Z"/>
        <path class="cls-1" d="M556.31,78.39c1.08-.58,2.19,0,2.67.88.55,1,.08,2.16-.89,2.69s-2.01.14-2.59-.73-.36-2.2.81-2.83Z"/>
        <path class="cls-1" d="M559.19,64.42c1.11-.73,2.29-.12,2.76.86s.21,2.12-.77,2.67c-.9.52-2.1.24-2.64-.63-.56-.91-.4-2.21.65-2.91Z"/>
        <path class="cls-1" d="M552.48,19.33c1.08-.62,2.13.26,2.57,1.09.55,1.02-.21,2.03-1.04,2.56-.99.63-1.98-.11-2.56-.96-.63-.93-.12-2.03,1.03-2.69Z"/>
        <path class="cls-1" d="M550.33,33.42c1.07-.65,2.15.06,2.65.94.54.96-.02,1.99-.9,2.54-.94.59-1.98.11-2.59-.78s-.27-2.02.84-2.7Z"/>
        <path class="cls-1" d="M549.48,119.31c.93-.56,1.93.3,2.53,1.05.75.95-.19,1.9-.97,2.55-1.02.84-1.93-.02-2.56-.88-.73-1-.1-2.06,1-2.72Z"/>
        <path class="cls-1" d="M551.5,105.39c1.09-.59,2.1.23,2.58,1.15s-.24,1.96-1.21,2.47c-.83.44-1.92-.21-2.5-1.05-.63-.9-.01-1.96,1.13-2.57Z"/>
        <path class="cls-1" d="M674.25,18.09c-.48-.67-4.56,2.94-6.58.19-.19-.26-1.11-.03-1.34-.08-.28-.06-.12-1.04.22-1.04h7.42c.2.01.18.79.28.93Z"/>
        <path class="cls-1" d="M545.5,61.39c1.03-.69,1.97.27,2.49,1.05.64.96-.14,1.96-.97,2.52-.96.64-1.85-.07-2.45-.79-.78-.93-.19-2.02.93-2.77Z"/>
        <path class="cls-1" d="M554.4,92.42c1.02-.64,2.02.16,2.55.98.62.96-.06,1.97-.99,2.58s-1.79,0-2.44-.82c-.72-.89-.28-2,.88-2.74Z"/>
        <path class="cls-1" d="M546.48,133.39c1.03-.71,1.95.26,2.51,1.05.66.93-.12,1.94-.98,2.52-.94.63-1.84-.06-2.46-.8-.78-.93-.22-1.99.92-2.77Z"/>
        <path class="cls-1" d="M547.43,47.36c1.03-.64,2,.21,2.51.98.65.98-.13,1.98-.95,2.59-.94.7-1.82-.02-2.47-.86s-.26-1.98.91-2.7Z"/>
        <path class="cls-1" d="M606.06,144.17c-1.48.03-4.17.04-6.08-.04.78-2.73,3.9-2.51,5.62-1.37l.67.17c.17.04-.03,1.24-.21,1.25Z"/>
        <path class="cls-1" d="M546.96,149.88c-.62.65-2-.07-2.03,1.37-.82-.26-1.8-1.5-1.62-2.34.25-1.14,1.38-1.92,2.28-1.66s2.15,1.81,1.37,2.62Z"/>
        <path class="cls-1" d="M542.32,76.17c.34-.41,1.71-.37,1.89.08s.28,1.52-.05,1.88-1.45.4-1.84.11-.4-1.58,0-2.07Z"/>
        <rect class="cls-1" x="538.16" y="18.16" width="2.05" height="2.11" transform="translate(516.45 558.26) rotate(-89.63)"/>
        <path class="cls-1" d="M539.35,106.25l-2.41.04.25-2.04c.05-.45,1.35-.32,1.75-.14.47.22.48,1.1.42,2.15Z"/>
        <path class="cls-1" d="M540.34,90.29c.42-.4,1.55-.37,1.8,0,.27.41.3,1.58-.08,1.92-.32.29-1.23.16-1.72-.06-.45-.2-.48-1.4,0-1.86Z"/>
        <rect class="cls-1" x="532.16" y="132.17" width="2.09" height="2.02" transform="translate(-1.83 7.55) rotate(-.81)"/>
        <rect class="cls-1" x="531.2" y="60.18" width="2.04" height="2.01" transform="translate(-.81 7.52) rotate(-.81)"/>
        <rect class="cls-1" x="526.17" y="88.15" width="2.05" height="2.04"/>
        <rect class="cls-1" x="528.21" y="74.12" width="1.98" height="2.07"/>
        <rect class="cls-1" x="533.15" y="46.15" width="2.04" height="2.04" transform="translate(-.18 2.1) rotate(-.23)"/>
        <path class="cls-1" d="M536.32,32.26c.34-.43,1.53-.35,1.77.04.26.41.3,1.4-.02,1.73s-1.36.39-1.74.14-.43-1.37-.01-1.91Z"/>
        <path class="cls-1" d="M530.31,146.27c.32-.4,1.57-.42,1.82-.04s.24,1.42-.04,1.78-1.34.39-1.73.15-.46-1.38-.05-1.9Z"/>
        <rect class="cls-1" x="521.2" y="115.15" width="1.98" height="2.04"/>
        <rect class="cls-1" x="519.21" y="43.15" width="1.98" height="2.04"/>
        <rect class="cls-1" x="595.16" y="17.17" width="4.1" height="1.03"/>
        <rect class="cls-1" x="517.18" y="57.19" width="2.03" height="1.98"/>
        <rect class="cls-1" x="523.18" y="102.18" width="2.03" height="1.98"/>
        <rect class="cls-1" x="519.21" y="129.19" width="1.98" height="1.98"/>
        <rect class="cls-1" x="522.21" y="29.17" width="1.98" height="1.97"/>
        <rect class="cls-1" x="516.22" y="143.17" width="1.98" height="1.97"/>
        <rect class="cls-1" x="535.16" y="118.15" width="2.06" height="2.05" transform="translate(416.18 655.18) rotate(-89.91)"/>
        <rect class="cls-1" x="512.19" y="85.16" width="1.98" height="2.03"/>
        <rect class="cls-1" x="514.18" y="71.17" width="2.03" height="1.99"/>
      </g>
      <g>
        <path class="cls-1" d="M580.33,758.79c-1.63-1.44-2.84-2.73-4.18-4.33-.38-1.51.54-3.04-.65-4.65-.49,1.91-.19,2.92-1.52,3.94-1.15.89-2.04,1.83-3.68,1.33-.3.63-.68,1-1.19,1.08-.76.11-1.01-.27-1.17-1.13-1.67.44-2.46-.15-3.47-1.07-1.09-.99-1.74-2-1.27-3.68-.85-.18-1.1-.39-1.15-.96-.08-.9.25-1.16,1.14-1.3-.28-1.64.01-2.72,1.14-3.75,1.02-.93,1.96-1.41,3.53-1.25.26-.52.68-1,1.08-1.02.61-.02,1.02.46,1.43,1.05,6.5.06,3.67,5.9,6.51,6,.88-1.8,2.65-2.66,3.65-4,1.02.05,1.89.04,2.93-.2-1.7-1.5-2.98-2.81-4.33-4.36-.32-1.5.58-3.01-.63-4.64-.48,2.09-.09,2.77-1.41,3.83-1.22.97-1.93,1.82-3.68,1.4-.27.72-.69,1.08-1.32,1.08-.58,0-1.01-.42-1.3-1.04-1.59.15-2.35-.18-3.35-1.17-1.08-1.06-1.56-1.82-1.33-3.5-.66-.29-1.05-.74-1.05-1.33s.39-.99,1.07-1.4c-.03-5.95,5.37-3.72,6.25-6.51-2.68.39-3.77-2.43-4.64-3.82-1.8-2.87.64-6.37,2.76-8.19,1,0,2.45-.66,2.62-1.86-1.24-.67-2.07-2.08-2.6-3.51-1.52-4.09,2.37-8.17,6.99-9.09-2.47-.96-4.11-2.33-5-4.9-1.54-4.43,2.78-8.66,7.84-9.1-2.94-1.13-5.17-3.7-5.18-6.58,0-3.98,3.24-6.22,7.21-7.56-3.58-.94-6.23-5.03-4.94-8.26s3.66-5.01,7-5.43l-2.62-2.75,10.49-.06c-1.41,2.67-3.41,3.24-6.43,3.2,6.61,3.34,2.84,4.44,5.56,4.88.92.15,1.82-3.77,5.88-3.19-1.04-1.35-1.88-2.16-3.03-3.18-.24-.65-.2-1.68-.04-2.73h19.56c.35,0,.5.75.33.82l-.87.39c-.6,2.16.6,4.98-.51,6.63-1.74,1.78.42,4.34-1.15,6.17-1.42,1.66.58,4.32-.98,5.99s.54,4.34-.98,5.98.47,4.24-1.01,6.07.54,5.02-.89,6.85c-1.66,1.83.45,4.46-1.11,6.14s.49,4.31-1.01,6.03.55,4.33-.97,5.98.52,4.28-1.02,6.05.5,4.96-.91,6.81c-1.57,1.78.44,4.42-1.01,6.03-1.6,1.78.46,4.41-1.08,6.09s.48,4.25-1.03,6.09.62,5.01-.93,6.76.49,4.43-1.02,6.07.46,4.34-.98,5.98.46,4.37-.96,5.98c-1.61,1.82.47,4.36-1.13,6.18-1.52,1.8.57,4.97-.94,6.84s.51,4.34-.99,6.04c-1.32,1.49.02,4-.62,5.89-.3.12-.93.23-.92.5l.04,1.59h-21.99c-.37-4.44,2.92-7.17,7.24-8.38-3.55-1.08-6.23-4.97-5.01-8.23s3.66-5.09,7.04-5.56l-4.16-4.11c-.71-1.45.8-3.44-.85-5.09-.35,1.87-.3,3.03-1.43,4.12s-1.95,1.65-3.79,1.21c-.05.9-.32,1.11-.88,1.15-.75.04-1.15-.18-1.2-1.1-1.71.26-2.5,0-3.65-1.12-1.07-1.04-1.71-1.95-1.38-3.64-.59-.28-.99-.66-1.02-1.07-.05-.66.33-1.1,1-1.39-.21-1.63.19-2.49,1.26-3.5,1.19-1.13,2.03-1.58,3.79-1.22.03-1.01.43-1.1,1.21-1.13.67-.03.81.35.92,1.22,1.82-.52,2.52-.04,3.61,1.03.99.97,1.49,2.17,1.31,3.6.55.24,1.05.79,1.41,1.43,1.75-1.78,3.13-4.16,5.78-4.48ZM605.41,666.27l3.12-3.03-2.91-3.41c-.65,1.78-1.76,1.1-3.75,1.4l2.98,3.11.56,1.92ZM594.43,674.82c-2.17-1.97-3.74-3.08-3.53-6.15-1.94,2.75-4.07,3.81-7.11,4.93,5.39,1.58,3.77,4.5,5.08,4.58,2.14.13,1.96-3.11,5.56-3.35ZM603.43,680.41c1.44-1.61,1.84-2.51,3.82-2.64-2.01-1.25-2.1-3.16-3.66-4.92-.84,1.54-2.03,2.28-3.87,2.51,1.79,1.79,3.44,2.58,3.71,5.05ZM592.45,688.87l-3.37-3.42c.02-.95.19-2.03-.54-2.58-1.86,2.87-4.3,4.28-7.8,4.48,6.83,3.54,2.41,3.37,6.22,5.89-.37-2.9,2.97-3.72,5.49-4.37ZM600.64,694.45c.93-1.76,1.83-2.32,3.78-2.57-.73-1.89-1.59-3.37-2.74-5.16-1.34,2.02-2.37,2.62-4.9,2.54l2.32,2.37c.13,1.17.75,1.7,1.53,2.83ZM588.01,703.81c.21-1.53,1.92.15,2.24-1.58-1.16-.09-1.82-.16-2.37-.74-.69-.72-.91-1.07-.75-2.26-.53-.15-1.03-.41-1.02-.74.02-.52,0-.9-.32-1.77-1.78,2.67-4.03,3.73-7.03,4.94,2.53.52,4.32,2.34,4.61,4.35l1.57,1.36c.17-1.43.12-1.76.93-2.51.54-.5,1.27-.71,2.14-1.04ZM599.49,706.29c.64-.34,1.82-.02,1.72-1.3-.05-.64-.4-.72-.95-1.39-.22-.47-.21-1.48-.64-1.82-.63-.49-.91-1.14-1.45-.15l-4.29,2.08c2.22.51,3.17,1.66,3.43,3.3.37.24.85.64,1.03.84.3.32.83-.12.77-.44-.04-.22.12-.98.37-1.11ZM581.82,721.29c.35-3.11,3.43-3.98,6.52-4.63-3.35-.7-3.97-3.7-4.61-6.87-.9,1.88-1.93,4.11-3.89,4.31-.53.28-1.36,1.12-1.89,1.62,1.39.88,2.66,1.69,2.11,3.24.62.23,1.02.42,1.1.74.13.49-.59,1.08.66,1.59ZM595.75,722.26c1.14-1.9,2.43-3.27,4.6-3.37-.82-1.05-1.23-1.49-1.35-2.35-.3-.27-.89-.52-.9-.85,0-.44-.07-1.12-.26-1.9-1.81,2.37-4.05,3.09-7.04,3.73,2.03.76,3.51,1.6,3.38,3.41l1.56,1.34ZM579.82,734.96c.39-.88,5.18-5.26,5.28-3.96l-.06-.78c.07.82-4.86-1.65-3.81-6.9-.34-.29-1.01-.46-1.05-.2-.59,4.02-3.63,4.22-7.29,5.57,7.45,1.08,3.77,5.52,6.92,6.28ZM593.73,736.26c.97-1.74,2.58-3.23,4.66-3.51-1.89-1.54-3.34-2.66-3.69-4.98-1.58,2.04-3.41,3.13-5.8,3.59l4.83,4.9ZM590.74,750.37c1.49-2.26,2.68-3.82,5.48-3.43l-3.19-3.44c-.04-5.1-2.89,2.86-7.24,1.72,1.95,1.81,3.41,3.39,4.95,5.15ZM588.66,764.3c3.77-4.65,3.34-2.68,4.4-3.29s-3.76-2.09-3.08-6.09l-4.46,4.24h-1.33c-1.08.02,3.93,4.12,4.47,5.15ZM585.96,779.29c.15-1.62.03-1.84.94-2.6.55-.46,1.16-.61,2.02-.8.18-1.49,1.71-.26,2.48-1.25-2.06-1.61-3.8-3.01-3.46-5.78l-4.34,4.14c-1.12.4-2.54-.34-3.72.63,2.28.62,4.29,2.26,4.47,4.19l1.6,1.48ZM584.09,791.42l4.34-2.83c-1.25-.85-2.66-1.65-2.34-3.07-.27-.34-1.02-.56-1-.91.02-.48-.02-1.04-.34-1.86-1.66,2.69-3.94,3.62-6.95,4.92,3.79-.18,6.15,8.01,6.25,5.1l.04-1.33Z"/>
        <path class="cls-1" d="M574.88,658.59c2.26,2.54,1.26,8.11-.21,9.25-2.7,2.09-8.01,1.53-9.28-.2-2.06-2.8-1.81-7.52.26-9.3,2.58-2.22,7.68-1.49,9.24.25Z"/>
        <path class="cls-1" d="M568.81,772.52c2.12,2.03,1.6,7.73-.07,9.25-2.19,1.98-7.75,1.79-9.26-.04-2.04-2.46-2.03-7.29.06-9.3,2.26-2.16,7.25-1.85,9.27.08Z"/>
        <path class="cls-1" d="M572.53,681.84c-2.46,2.1-7.33,1.73-9.11-.26-2.22-2.48-1.65-7.45.28-9.25,2.17-2.03,7.71-1.55,9.06.21,2.11,2.74,1.89,7.49-.23,9.31Z"/>
        <path class="cls-1" d="M569.58,686.44c2.25,2.07,2.15,7.37.03,9.28-1.9,1.71-6.03,2.17-8.62.26-2.73-2.02-2.73-7.75,0-9.77,2.61-1.93,6.79-1.42,8.59.23Z"/>
        <path class="cls-1" d="M565.89,710.94c-1.49.2-3.69.16-5.32.09l-3.37-3.22c-.12-1.67-.15-3.89.07-5.5l3.13-3.1c1.61-.27,3.93-.23,5.54-.02l2.99,3.14c.34,1.51.25,3.86.09,5.44-1.16,1.03-1.97,1.87-3.14,3.15Z"/>
        <path class="cls-1" d="M562.82,724.77c-1.4.77-3.92.38-5.42.1-3.63-2.32-4.56-6.73-2.06-9.7s7.05-3.05,9.64.05c2.33,2.79,1.73,7.41-2.16,9.55Z"/>
        <path class="cls-1" d="M555.44,738.94l-3.2-3.17c-.24-1.47-.19-3.73-.07-5.28l3.28-3.3c1.61-.15,3.91-.13,5.38.02,2.26,2.2,3.41,3.14,3.43,5.77.03,2.77-1.08,3.74-3.44,5.99-1.42.17-3.83.25-5.38-.02Z"/>
        <path class="cls-1" d="M553.62,769.28c2.89,2.06,4.12,3.89,3.54,7.19-.45,2.56-3.3,4.73-5.75,4.8-2.91.08-5.5-1.77-6.19-4.46-.85-3.32.48-5.45,3.22-7.49,1.43-.37,3.75-.39,5.18-.04Z"/>
        <path class="cls-1" d="M549.47,749.8c-.78-1.34-.46-3.95-.08-5.39,2.33-3.66,6.45-4.66,9.52-2.18s3.15,7.06.25,9.5-7.35,2.02-9.7-1.93Z"/>
        <path class="cls-1" d="M557.63,795.95c-2.53-3.08-1.86-7.54,0-9.57,1.21-1.32,3.06-1.27,4.68-1.34,2.54-.12,4.43.73,5.51,3.27.66,1.54.16,3.89.29,5.8-.53.17-.95.26-.98.49l-.15,1.4c-3.06.12-6.57.24-9.34-.04Z"/>
        <path class="cls-1" d="M555.75,755.3c2.68,2.21,4.05,4.08,3.33,7.3-.58,2.62-3.27,4.73-5.98,4.72s-5.23-1.94-5.91-4.52c-.86-3.25.53-5.28,3.2-7.44,1.47-.4,3.82-.35,5.36-.06Z"/>
        <path class="cls-1" d="M549.19,683.4c3.2-1.16,6.37.7,7.6,3.73s-.65,6.38-3.77,7.68c-2.93,1.22-6.34-.72-7.57-3.76s.5-6.48,3.74-7.65Z"/>
        <path class="cls-1" d="M553.83,791.01c-1.2,2.64-3.54,4.4-6.47,4.04-2.7-.34-4.85-2.52-5.2-5.2-.39-2.93,1.4-5.27,4.03-6.46,2.02-.91,4.44-.08,6.04,1.47s2.54,4.12,1.61,6.15Z"/>
        <path class="cls-1" d="M559.83,677.01c-1.2,2.64-3.54,4.4-6.47,4.04-2.7-.34-4.85-2.52-5.2-5.2-.39-2.93,1.4-5.27,4.03-6.46,2.02-.91,4.44-.08,6.04,1.47s2.54,4.12,1.61,6.15Z"/>
        <path class="cls-1" d="M551.12,708.62c-1.96,1.39-5.62-.11-6.85-2.05-1.71-2.7-1.52-5.39.58-7.61s4.82-2.44,7.54-.85c1.92,1.12,3.68,4.87,2.24,6.9-.68.95-.37,1.68-1.12,2.29-.8.65-1.46.65-2.39,1.31Z"/>
        <path class="cls-1" d="M544.18,722.72c-2.35-1.04-4.09-2.97-4.12-5.61s1.8-4.53,4.08-5.68c2.13-1.07,5.2.08,6.54,1.92,1.81,2.49,1.87,4.67.29,7.17-1.29,2.04-4.54,3.2-6.8,2.2Z"/>
        <path class="cls-1" d="M548.55,734.27c.06-.09-4.5,3.38-6.67,1.07-.62-.65-1.47-.02-2.11-.95-.49-.72-.54-1.39-1.21-2.29-1.29-1.74.01-5.4,1.79-6.6,2.69-1.82,4.65-1.87,7.41-.1,1.8,1.16,3.24,4.9,1.88,6.7-.62.82-.68,1.56-1.1,2.17Z"/>
        <path class="cls-1" d="M547.83,745.83c-1.15,2.62-3.41,4.51-6.23,4.22s-4.83-2.41-5.34-4.95c-.6-2.95,1.39-5.59,3.86-6.67,2.05-.9,4.54-.15,6.1,1.47s2.46,3.98,1.61,5.92Z"/>
        <path class="cls-1" d="M544.74,759.99c-1.05,2.08-1.68,2.64-3.6,3.66s-4.5.28-6.1-1.37-2.46-4.17-1.53-6.09c1-2.07,1.63-2.7,3.7-3.7,1.95-.94,4.34-.08,5.99,1.41s2.51,4.18,1.55,6.1Z"/>
        <path class="cls-1" d="M539.29,777.59c-2.08,1.08-4.51.3-6.34-1.37-1.6-1.47-2.33-4.23-1.41-6.12.99-2.04,1.45-2.44,3.54-3.52,1.92-1,4.43-.32,6.2,1.38,1.48,1.42,2.28,4.17,1.47,5.9-1.02,2.17-1.51,2.73-3.45,3.74Z"/>
        <path class="cls-1" d="M550.48,663.79c-.93-1.53-.03-3.57-.4-5.63l6.81-.12c.33-1.58,1.88-.8,3.15-1,.81-.13,1.86,1.14,2.03,2.13.59,3.39-.39,6.19-3.46,7.56s-6.23.18-8.14-2.94Z"/>
        <path class="cls-1" d="M533.64,791.74c-2.68-.54-4.54-2.44-4.75-4.29-.07-.38-.93-.85-.89-1.21.06-.5.51-1.03.92-1.38.15-1.83,2.1-4.15,4.08-3.85-.38-2.34,5.69.2,6.76,4.48.7,2.8-3.3,6.82-6.12,6.25Z"/>
        <path class="cls-1" d="M539.64,677.74c-2.68-.54-4.54-2.45-4.75-4.29-.08-.38-.94-.86-.9-1.21.06-.51.53-1.03.92-1.39.17-1.81,2.1-4.16,4.09-3.84-.38-2.35,5.68.2,6.76,4.48.7,2.8-3.3,6.82-6.12,6.25Z"/>
        <path class="cls-1" d="M535.99,691.23c-1.93.04-4.17-2.13-3.98-4.12-.92-.16-.96-.48-.98-1.23,0-.46.51-.74.95-1,.13-1.79,2.14-4.08,3.89-3.95.54-2.35,7.03,1.8,6.47,4.03.56.25.92.77.82,1.23-.07.31-.46.7-.89,1.04.15,1.98-2.19,3.88-4.05,4.03-.21.72-.43.87-.92.91-.7.05-1.02-.12-1.31-.94Z"/>
        <path class="cls-1" d="M536.2,705.26c-.29.53-.65.91-1.1.92-.37,0-.85-.57-1.17-.95-1.8.04-3.89-2.3-4-3.93-.18-.29-.8-.69-.89-1-.12-.39.44-1.05.85-1.34.25-1.78,2.14-4.04,4.16-4.03.28-.58.62-.89,1.08-.94.37-.03.87.69,1.2.88,1.68.25,4.04,2.19,3.95,4.12.61.29.92.62.93,1.11,0,.37-.54.84-.91,1.16-.14,1.83-2.22,3.99-4.09,3.99Z"/>
        <path class="cls-1" d="M537.07,710.31c1.6,1.56,1.64,5.54-.06,7.59-1.6,1.93-6.1,1.72-7.65.1-1.14-1.2-1.46-1.86-1.33-3.64.14-1.88-.24-2.87,1.09-4.02,2.15-1.85,5.98-1.96,7.95-.03Z"/>
        <path class="cls-1" d="M528.9,752.21c1.84,1.55,1.94,5.71-.02,7.81-1.27,1.35-2.31,1.06-4.18,1.17s-2.39-.25-3.6-1.47-.95-2.02-1.03-3.8c-.09-1.94.08-2.47,1.29-3.75,1.52-1.62,5.5-1.68,7.55.04Z"/>
        <path class="cls-1" d="M534.05,724.41c1.55,1.67,1.8,5.45-.1,7.51-1.34,1.45-2.24,1.13-4.23,1.23-1.87.1-2.33-.21-3.65-1.44-1.48-1.37-1.65-5.16.21-7.47,1.21-1.51,2.26-1.12,4.14-1.23s2.44.1,3.63,1.4Z"/>
        <path class="cls-1" d="M531.87,745.98c-1.41,1.53-5.32,1.98-7.79-.3-1.34-1.24-.9-2.29-1.05-4.19-.14-1.8.51-2.22,1.55-3.45s5.08-1.82,7.46.34c1.58,1.44,1.89,5.38-.16,7.6Z"/>
        <path class="cls-1" d="M526.96,766.27c1.7,1.87,1.63,6.13.18,7.42-1.26,1.12-1.62,1.62-3.44,1.47-2.01-.16-3.03.23-4.34-1.12-1.93-1.98-1.82-5.76.06-7.95,1.25-1.46,5.75-1.79,7.54.18Z"/>
        <path class="cls-1" d="M525.75,689.08c-3.09.67-6.49-.77-6.66-3.61-.15-2.44-.23-3.84,1.31-5.29,1.43-1.34,3-1.25,5.38-1.07,2.23.17,3.47,2.81,3.48,4.88.01,2.27-.96,4.53-3.52,5.09Z"/>
        <path class="cls-1" d="M526.05,696.4c.3,2.45.29,4.05-1.02,5.4-1.5,1.54-2.84,1.43-5.27,1.31-2.78-.14-4.19-3.39-3.7-6.31.4-2.35,2.5-3.83,4.7-3.87s4.98.92,5.3,3.47Z"/>
        <path class="cls-1" d="M523.89,780.23c1.86,1.72,1.66,6.11.15,7.57-2.01,1.93-5.94,1.8-7.71.14-1.9-1.78-1.64-6.14-.16-7.56,1.99-1.91,5.9-1.82,7.71-.15Z"/>
        <path class="cls-1" d="M529.89,666.23c1.86,1.72,1.66,6.11.15,7.57-2.01,1.93-5.94,1.8-7.71.14-1.9-1.78-1.64-6.14-.16-7.56,1.99-1.91,5.9-1.82,7.71-.15Z"/>
        <path class="cls-1" d="M514.28,721.41c2.7-1.06,5.52.25,6.58,2.87s-.26,5.48-2.96,6.6c-2.34.96-5.45-.33-6.48-2.85s.12-5.54,2.87-6.61Z"/>
        <path class="cls-1" d="M512.36,734.38c2.65-1.04,5.43.37,6.48,2.92s-.34,5.49-2.92,6.53-5.38-.3-6.47-2.8.11-5.55,2.91-6.65Z"/>
        <path class="cls-1" d="M517.19,707.39c2.89-1.02,5.5.15,6.65,2.84,1.02,2.36-.25,5.57-2.68,6.52-2.78,1.08-5.62-.09-6.67-2.57s-.02-5.83,2.7-6.79Z"/>
        <path class="cls-1" d="M505.38,763.39c.24-.37,1.04-.22,1.38-.3.29-.07.39-.59.54-.89,2.87-.69,5.22.53,6.41,2.82s0,5.08-2.12,6.43-4.72.65-6.54-1.31-.87-4.88.32-6.74Z"/>
        <path class="cls-1" d="M509.33,748.41c2.54-1.01,5.44.33,6.43,2.78,1.06,2.63-.16,5.53-2.75,6.59s-5.56-.23-6.56-2.76.18-5.54,2.88-6.61Z"/>
        <path class="cls-1" d="M512.83,672.16c-3.82.1-5.83-3.63-5.88-4.93-.06-1.73,2.39-5.22,5.37-5.22,2.19,0,4.82,3.18,4.88,4.96.08,2.31-3.14,5.16-4.38,5.19Z"/>
        <path class="cls-1" d="M506.83,786.16c-3.81.1-5.83-3.63-5.88-4.93-.06-1.73,2.39-5.22,5.37-5.22,2.19,0,4.82,3.18,4.88,4.96.08,2.31-3.14,5.16-4.38,5.19Z"/>
        <path class="cls-1" d="M513.25,684.53c-1.23,1.4-1.72,1.73-3.61,1.68-1.33-.04-4.74-2.75-4.62-5.35.08-1.85,2.57-4.63,5.11-4.86,1.78-.17,4.91,2.58,5.13,5.12.15,1.77-.88,2.15-2,3.43Z"/>
        <path class="cls-1" d="M512.24,695.28c.02,1.72-3.04,5.05-5.48,4.91-1.22-.07-4.84-2.5-4.77-5.4.04-1.45,2.64-4.69,5.26-4.83,1.68-.09,4.96,3.01,4.98,5.33Z"/>
        <path class="cls-1" d="M510.2,709.22c.02,1.92-3.02,5.04-5.34,4.94-1.48-.06-4.83-2.6-4.83-5.2,0-2.05,3.1-4.92,5.08-4.95,1.8-.03,5.07,2.64,5.09,5.21Z"/>
        <path class="cls-1" d="M503.48,727.35c-.31.28-.63.86-1.22.85-.91-.02-1.23-.25-1.49-.99-.94-.13-1.38-.14-1.97-.76-.63-.66-.71-1.11-.93-2.07-.38-.27-.83-.68-.84-1.24-.02-.66.5-1.02.93-1.33-.74-2.11,4.43-3.83,4.01-3.81.12,0,4.92,1.69,4.34,3.79.35.33.92.69.9,1.35-.02.62-.52,1-.92,1.33-.13.97-.24,1.37-.87,1.99-.57.56-1.09.58-1.93.89Z"/>
        <path class="cls-1" d="M501.43,741.24c-.38.53-.77.9-1.35.96.4-.04-4.87-1.62-4.08-3.93-.61-.2-.98-.52-.98-1.21s.31-1.04,1.02-1.18c.04-1.04.11-1.41.71-2.03.66-.67,1.14-.76,2.1-.9.24-.54.56-.96,1.21-.95.74,0,1.04.3,1.19,1.02,2.34-.92,3.93,4.48,3.96,4.03-.05.62-.41,1-.96,1.37.08,1.46-1.37,2.88-2.82,2.83Z"/>
        <path class="cls-1" d="M498.36,755.24c-.31.33-.8.83-1.15.93.08-.02-3-1.37-3.4-1.74s-1.85-3.9-1.8-3.22c-.04-.52.62-1.08.9-1.41.25-.76.31-1.44.8-1.92.68-.66,1.19-.89,2.09-.94.28-1.98,4.68.82,4.59.71.63.72.84,1.16.77,2.25.61.2,1.03.46,1.05,1.04.03.8-.27,1.11-.97,1.27-.11,1.02-.18,1.53-.72,2.17-.61.72-1.22.8-2.15.87Z"/>
        <path class="cls-1" d="M496.31,769.11c-.22.59-.48,1.04-.99,1.08-.88.07-1.13-.39-1.31-1.07-1.16.04-1.61-.03-2.31-.8-.54-.59-.59-1.17-.72-2.19-.66-.17-1-.47-.95-1.29.03-.51.5-.8,1.03-1.01.03-1,.13-1.41.76-2.09-.16.17,4.43-2.99,4.48-.88,1.5.11,3.06,1.42,2.95,2.99.57.26,1.02.76.95,1.26-.06.38-.67.88-.86,1.2-.28.73-.36,1.48-.83,1.92-.77.72-1.03,1.04-2.21.86Z"/>
        <path class="cls-1" d="M493.27,783.12c-.21.48-.54,1.09-1.13,1.05-.46-.03-.9-.65-1.18-.98-.79-.18-1.52-.2-2.07-.78-.65-.69-.86-1.16-.81-2.24-.48-.22-1.03-.58-1.05-1.13s.58-.9,1.04-1.12c0-.98.18-1.5.7-2.08.69-.76,1.13-.89,2.29-.78.17-.47.46-1,.84-1.07.64-.12,1.15.37,1.24.96.99.13,1.62.14,2.21.76.69.72.91,1.08.76,2.29.63.14,1.09.39,1.11,1.05.01.62-.5.86-1.07,1.04.02,1.04,0,1.63-.68,2.22s-1.11.87-2.2.8Z"/>
        <path class="cls-1" d="M499.21,669.18c-.16.52-.52,1-1.06.99-.47,0-.88-.54-1.09-.98-.91-.1-1.58-.2-2.16-.78-.67-.67-.84-1.22-.82-2.22-.44-.25-1.02-.61-1.03-1.14-.02-.57.57-.89,1.05-1.13-.1-1.11.29-1.64.97-2.38.72-.78,5.54-.56,5.95-.16.83.82,1.42,1.31,1.08,2.6.69.18,1.11.39,1.13,1.06.02.63-.48.86-1.08,1.04.08,1.16,0,1.65-.78,2.34-.6.53-1.14.69-2.15.75Z"/>
        <path class="cls-1" d="M499.36,675.76c1.25,1.28,1.14,5.54.09,6.58-1.28,1.27-5.55,1.12-6.59.08-1.28-1.28-1.11-5.54-.09-6.58,1.23-1.25,5.54-1.17,6.59-.09Z"/>
        <path class="cls-1" d="M496.62,696.21c-1.18,1.43-6,1.21-6.9.14-1.01-1.2-1-5.46.02-6.49,1.22-1.22,5.57-1.1,6.6-.16,1.33,1.2,1,5.63.28,6.51Z"/>
        <path class="cls-1" d="M494.39,703.71c1.09,1.41,1.08,5.37.02,6.7-.8,1-5.25,1.14-6.59-.08-1.15-1.05-1.08-5.38-.01-6.51s5.86-1.04,6.58-.11Z"/>
        <path class="cls-1" d="M491.36,717.82c1.15,1.24,1.13,5.35.01,6.54s-4.89,1.15-6.39.05c-1.4-1.02-1.26-5.75-.1-6.56,1.79-1.25,5.43-1.17,6.48-.03Z"/>
        <path class="cls-1" d="M486.42,744.83c1.08,1.11,1.1,5.42,0,6.51-1.21,1.2-5.53,1.15-6.56.02-1.13-1.23-1.11-5.33,0-6.53,1.04-1.12,5.39-1.19,6.55,0Z"/>
        <path class="cls-1" d="M489.21,731.68c1.43,1.03,1.27,5.57.17,6.6-1.4,1.3-5.76,1.2-6.58.02-1.03-1.48-.98-5.44-.03-6.43,1.16-1.21,5.28-1.03,6.44-.19Z"/>
        <path class="cls-1" d="M494.15,796.04h-8.07c-.01-2.06-.08-4.12.13-5.59,1.19-2.07,6.58-2.07,7.81-.02.18,1.43.12,3.32.13,5.6Z"/>
        <path class="cls-1" d="M476.9,772.16c2.33-.76,4.52.74,5.15,2.58.81,2.37-.63,4.54-2.64,5.25-2.2.77-4.39-.54-5.16-2.43-.93-2.28.35-4.64,2.66-5.4Z"/>
        <path class="cls-1" d="M479.35,758.42c2.04-1.14,4.37-.09,5.48,1.92s.11,4.3-1.93,5.45c-1.91,1.07-4.29.16-5.44-1.77s-.31-4.37,1.89-5.59Z"/>
        <path class="cls-1" d="M470.43,728.43c2.04-1.14,4.21-.02,5.38,1.94,1.23,2.06.05,4.17-2.03,5.41-1.87,1.11-3.99.03-5.28-1.84s-.25-4.29,1.94-5.51Z"/>
        <path class="cls-1" d="M476.3,700.07c2.14-.58,4.19,1.27,4.78,3.04.74,2.21-1.11,4.37-2.87,4.92-2.41.75-4.53-.95-5.07-2.9-.63-2.3.98-4.46,3.16-5.06Z"/>
        <path class="cls-1" d="M477.4,686.43c1.97-1.11,4.33-.15,5.41,1.89s.09,4.28-2.05,5.51c-1.86,1.06-3.95.02-5.25-1.92-1.21-1.81-.35-4.22,1.89-5.48Z"/>
        <path class="cls-1" d="M474.35,786.41c1.85-1.13,4.32-.09,5.38,1.81,1.15,2.05.23,4.35-1.8,5.52s-4.1.27-5.4-1.71c-1.23-1.87-.45-4.24,1.82-5.62Z"/>
        <path class="cls-1" d="M480.35,672.41c1.85-1.13,4.32-.09,5.38,1.81,1.15,2.05.23,4.35-1.8,5.52s-4.1.27-5.4-1.71c-1.23-1.87-.45-4.24,1.82-5.62Z"/>
        <path class="cls-1" d="M472.39,714.44c2.03-1.21,4.15-.14,5.38,1.84s.13,4.25-1.82,5.46-4.11.17-5.37-1.72-.42-4.25,1.81-5.58Z"/>
        <path class="cls-1" d="M467.37,742.48c2.01-1.26,4.05-.13,5.4,1.85,1.21,1.77.07,4.25-1.86,5.4s-4.05.15-5.27-1.62c-1.36-1.97-.58-4.18,1.73-5.63Z"/>
        <path class="cls-1" d="M465.43,756.42c1.89-1.19,4.21.01,5.31,1.92,1.16,2.01.06,4.17-1.79,5.34-2.05,1.29-4.03.22-5.37-1.66s-.4-4.18,1.84-5.6Z"/>
        <path class="cls-1" d="M460.39,784.47c1.87-1.2,4.1-.04,5.37,1.86s.05,4.19-1.87,5.34-4,.27-5.24-1.57c-1.32-1.97-.57-4.14,1.74-5.62Z"/>
        <path class="cls-1" d="M466.39,670.47c1.87-1.2,4.1-.04,5.37,1.86s.05,4.19-1.87,5.34-4,.27-5.24-1.57c-1.32-1.97-.57-4.14,1.74-5.62Z"/>
        <path class="cls-1" d="M464,770.23c2.22-.82,4.2.83,4.98,2.63.93,2.16-.78,4.31-2.73,5.11s-4.18-.72-4.97-2.65.5-4.27,2.72-5.1Z"/>
        <path class="cls-1" d="M463.47,684.44c2.16-1.28,3.98.03,5.27,1.98,1.2,1.82-.03,4.16-1.98,5.38s-4.03-.06-5.22-1.96c-1.12-1.79-.23-4.11,1.93-5.4Z"/>
        <path class="cls-1" d="M508.96,796.1l-9.7-.02c-.8-2.25.64-3.41,2.01-4.8,1.19-1.21,3.53-1.91,4.82-.69,1.78,1.68,3.91,2.91,2.88,5.51Z"/>
        <path class="cls-1" d="M543.37,663.18c-.29,2.89-7.44-2.09-6.4-4.03l1.72-.04c.33,0,.43-.53.64-1.05l8.94.06c-1.35,2.16-2.16,5.32-4.9,5.05Z"/>
        <path class="cls-1" d="M463.06,718.86c.03-.3-2.71,1.31-2.8,1.31-.89.07-1.18-.41-1.62-.96l-1.38-.22c.56.09-1.27-2.67-1.28-2.78.02.16,1.53-3.97,2.52-3.26.47-.35.96-.91,1.47-.96.6-.05,3.26,1.84,3,1.32.13.26.09,1.12.27,1.35.32.41.99.74,1,1.22.01.91-.35,1.22-1.02,1.58l-.15,1.39Z"/>
        <path class="cls-1" d="M466.08,704.86c.08-.36-2.91,1.33-2.97,1.34-1.26.09.34-.33-2.87-1.23-.3-.08,0-1.27-.21-1.52-.28-.31-.96-.76-1.03-1.21-.12-.79.6-1.21,1.01-1.57-1.01-1.5,3.78-2.71,3.09-2.67.1,0,3.17,1.75,2.94,1.2.12.3-.02,1.23.2,1.47.36.37.99.65,1.01,1.33.08,3.1-.05-1.82-1.17,2.86Z"/>
        <path class="cls-1" d="M459.56,733.2c-.42.1-.77,1.02-1.21,1.01-1.03-.02-1.24-.37-1.58-1.09l-1.51-.11c-.32-.02-.01-1.22-.22-1.45-.34-.38-.99-.76-1.03-1.22-.09-.89.42-1.27,1.03-1.59l.16-1.47c-.12,1.16,3.61-3.13,4.18-.21l1.54.07c-.37-.02,1.27,2.75,1.28,2.97.1,1.68-.89-.04-1.09,2.7-.02.31-.84.24-1.55.41Z"/>
        <path class="cls-1" d="M459.2,745.38c.98,1.49-3.59,2.89-3.05,2.81-.72.1-.16-.39-2.85-1.24.32.1-1.33-3.01-1.27-2.7-.12-.57.83-1.07.92-1.57l.25-1.47c-.11.65,2.72-1.21,2.94-1.21-.6,0,2.51,1.07,2.77,1.16.34.11-.01,1.32.23,1.58.41.45,1,.72,1.06,1.23.1.95-.57,1.01-1.01,1.41Z"/>
        <path class="cls-1" d="M454.11,773.76c.02-.44-2.77,1.43-3,1.44-.74.05-.96-.95-1.49-1.05l-1.4-.27c-.27-.05.03-1.29-.19-1.52-.34-.38-1-.74-1.05-1.19-.1-.89.68-1.02,1.03-1.38.22-.22.05-1.22.15-1.53-.18.53,2.94-1.26,2.95-1.26.68-.02.97.57,1.35.96.23.23,1.19.07,1.49.19.35.14-.06,1.38.26,1.63,2.49,1.91.04.93-.11,3.98Z"/>
        <path class="cls-1" d="M457.21,756.98c-.04-.42-1.87,4.19-1.22,2.85.21-.43-3.24,1.5-2.7,1.37.28-.07-4.11-1.91-2.88-1.27.28.15-1.44-3.2-1.34-2.72.06.3,1.73-3.87,1.22-2.85-.2.41,3.04-1.37,2.74-1.37-.49,0,4.17,1.97,2.85,1.25-.46-.25,1.35,2.98,1.33,2.74Z"/>
        <path class="cls-1" d="M451.06,787.79c.03-.32-3.11,1.41-2.79,1.37-.25.03-3.09-1.76-3-1.24l-.3-1.58-.94-1.08c.14.16,1.06-2.35,1.23-2.83-.16.45,2.91-1.47,2.68-1.44-.03,0,4.19,2.17,2.91,1.32-.44-.29,1.34,3.05,1.35,2.74-.06,1.67-.83-.68-1.15,2.74Z"/>
        <path class="cls-1" d="M457.05,673.79c.03-.32-3.11,1.41-2.78,1.37-.25.03-3.1-1.76-3-1.24l-.3-1.58-.93-1.08c.07.08.88-1.84,1.22-2.84-.15.45,2.89-1.46,2.68-1.44.13-.01,4.03,2.25,2.91,1.32-.46-.38,1.34,3.08,1.36,2.74-.08,1.69-.82-.69-1.16,2.74Z"/>
        <path class="cls-1" d="M442.33,724.36c1.41-.67,3.86-.63,4.52.92.58,1.35.62,3.92-.99,4.63-1.28.56-3.7.53-4.5-.96-.67-1.25-.73-3.78.97-4.58Z"/>
        <path class="cls-1" d="M441.15,738.02c1.95-.25,3.68.22,3.96,1.92.33,1.98-.05,3.91-1.89,4.14-1.94.24-3.91-.05-4.15-1.95s.12-3.87,2.07-4.11Z"/>
        <path class="cls-1" d="M449.3,682.35c1.45-.71,3.93-.6,4.57.92.6,1.42.59,3.85-.94,4.59-1.28.61-3.83.58-4.51-.84s-.76-3.87.88-4.67Z"/>
        <path class="cls-1" d="M445.22,710.42c1.41-.68,3.95-.74,4.64.81.57,1.27.64,3.81-.86,4.62-1.29.69-3.6.57-4.46-.7-.78-1.16-.99-3.93.69-4.73Z"/>
        <path class="cls-1" d="M448.11,696c1.91-.24,3.74.24,4.02,1.93.31,1.95,0,3.97-1.92,4.16s-3.91.09-4.13-2.05c-.18-1.73.1-3.8,2.03-4.04Z"/>
        <path class="cls-1" d="M437.27,752.41c1.43-.69,3.94-.62,4.6.89s.57,3.72-1.01,4.56c-1.26.67-3.54.57-4.38-.86-.73-1.23-.83-3.81.79-4.6Z"/>
        <path class="cls-1" d="M488.01,661.09c.91,2.41-1.03,4.68-3.28,5.07s-5.06-1.7-4.62-4.06c1.35-.22,2.86.75,3.13-.97l4.77-.04Z"/>
        <path class="cls-1" d="M436.31,680.41c1.38-.67,3.83-.65,4.51.8.64,1.36.61,3.83-.84,4.59-1.34.71-3.61.62-4.47-.75-.77-1.22-.91-3.82.79-4.64Z"/>
        <path class="cls-1" d="M432.27,780.41c1.41-.78,3.7-.63,4.53.85.71,1.25.73,3.76-.86,4.54-1.2.59-3.64.69-4.45-.69-.7-1.19-.83-3.81.78-4.69Z"/>
        <path class="cls-1" d="M438.27,666.41c1.41-.78,3.7-.63,4.53.85.71,1.25.73,3.76-.86,4.54-1.2.59-3.64.69-4.45-.69-.7-1.19-.83-3.81.78-4.69Z"/>
        <path class="cls-1" d="M431.29,708.42c1.41-.74,3.74-.65,4.52.85.67,1.29.67,3.77-.86,4.52-1.28.63-3.56.67-4.45-.73-.75-1.17-.85-3.79.8-4.64Z"/>
        <path class="cls-1" d="M436.1,766.09c1.96-.38,3.72.26,4.03,1.93.34,1.85-.14,3.69-1.85,4.07s-3.64-.08-4.06-1.69c-.51-1.91.06-3.95,1.89-4.3Z"/>
        <path class="cls-1" d="M428.34,722.42c1.48-.73,3.85-.6,4.53,1,.61,1.42.51,3.52-.99,4.36-1.34.74-3.6.65-4.49-.98-.64-1.16-.65-3.59.95-4.38Z"/>
        <path class="cls-1" d="M427.23,736.06c1.99-.27,3.63.42,3.92,2.18s-.32,3.58-2.16,3.86c-1.72.26-3.52-.19-3.84-1.91-.37-1.93.18-3.86,2.08-4.12Z"/>
        <path class="cls-1" d="M434.2,694.06c1.99-.3,3.64.39,3.91,2.18s-.3,3.61-2.15,3.89c-1.7.26-3.53-.24-3.86-1.94-.38-1.93.19-3.84,2.1-4.13Z"/>
        <path class="cls-1" d="M423.35,750.41c1.37-.79,3.64-.58,4.49.91.73,1.28.61,3.65-.84,4.4-1.32.68-3.57.75-4.46-.64-.78-1.22-.85-3.7.81-4.66Z"/>
        <path class="cls-1" d="M421.38,763.42c1.48-.73,3.71-.65,4.46.95.61,1.31.57,3.73-1.02,4.49-1.29.61-3.52.52-4.4-.97-.72-1.21-.72-3.63.97-4.47Z"/>
        <path class="cls-1" d="M419.1,777.11c1.81-.42,3.44.31,3.9,1.85.52,1.74-.21,3.69-1.67,4.04-1.97.47-3.84-.09-4.2-1.77-.41-1.87.15-3.71,1.96-4.12Z"/>
        <path class="cls-1" d="M419.5,691.42c1.5-.85,3.4-.48,4.3,1.02.83,1.37.48,3.46-1.04,4.35-1.37.8-3.3.49-4.26-.92-.88-1.29-.72-3.47,1-4.44Z"/>
        <path class="cls-1" d="M418.12,705.11c1.86-.39,3.45.32,3.92,1.88.53,1.74-.24,3.58-1.69,3.98-1.94.54-3.81-.11-4.17-1.75-.41-1.85.17-3.74,1.94-4.12Z"/>
        <path class="cls-1" d="M422.37,677.46c1.44-.8,3.68-.56,4.44.93s.52,3.49-1.01,4.4c-1.29.77-3.35.55-4.24-.84-.83-1.3-.88-3.56.81-4.5Z"/>
        <path class="cls-1" d="M416.37,791.46c1.45-.8,3.67-.57,4.44.94.72,1.41.54,3.5-1.01,4.39-1.3.75-3.36.56-4.24-.83-.83-1.3-.88-3.57.81-4.5Z"/>
        <path class="cls-1" d="M428.81,665.12c.55,1.58.5,3.29-.45,4.2-1.07,1.03-3.14,1.12-4.22.32-1.46-1.08-1.12-2.64-.91-4.52h5.58Z"/>
        <path class="cls-1" d="M416.61,725.21c-1.61.02-3.48-1.97-3.61-3.6l2.67-2.71c1.77.34,3.22,2.06,3.66,3.65l-2.72,2.66Z"/>
        <path class="cls-1" d="M414.59,739.27c-1.61-.27-3.26-2.06-3.71-3.53l2.91-2.87c1.52.44,3.22,1.99,3.53,3.62l-2.73,2.78Z"/>
        <path class="cls-1" d="M411.52,753.17c-1.77-.22-2.96-1.85-3.71-3.31l3.07-3.07c1.53.76,3.25,2.12,3.27,3.77-.7.91-1.65,1.86-2.64,2.61Z"/>
        <path class="cls-1" d="M412.2,763.9c0,.75-2.13,3.32-3.09,3.31-1.08,0-3.07-2.84-3.07-3.01-.04-.77,2.14-3.19,3.09-3.18,1.07.02,3.08,2.62,3.08,2.87Z"/>
        <path class="cls-1" d="M404.44,795.26c-1.53-.33-2.9-1.93-3.57-3.38l2.82-3.05c1.67.42,3.23,2.26,3.58,3.69l-2.84,2.74Z"/>
        <path class="cls-1" d="M407.44,695.3c-1.72-.3-2.79-2.16-3.57-3.47l2.96-2.97c1.43.73,2.95,1.91,3.57,3.47l-2.96,2.97Z"/>
        <path class="cls-1" d="M523.24,795.95c-3.55.22-6.56.22-10.29.02l2.52-2.73c1.61-.23,3.85-.21,5.41,0l2.36,2.72Z"/>
        <path class="cls-1" d="M410.47,681.32c-1.4-.52-2.39-1.7-3.44-2.75.15-1.61,2.04-3.37,3.56-3.65l2.92,3.22-3.04,3.19Z"/>
        <path class="cls-1" d="M405.49,709.31c-1.6-.56-3.12-2.06-3.63-3.6l3.32-3.05,3.35,3.3-3.04,3.34Z"/>
        <path class="cls-1" d="M406.16,781.52l-3.47-3.34,2.99-3.28c1.5.32,3.16,2.05,3.67,3.53l-3.19,3.09Z"/>
        <polygon class="cls-1" points="397.13 751.52 393.7 748.15 397.03 744.67 400.52 747.99 397.13 751.52"/>
        <path class="cls-1" d="M395.14,765.48l-3.41-3.34,3.06-3.34c1.63.85,2.85,1.98,3.59,3.58l-3.24,3.11Z"/>
        <path class="cls-1" d="M402.15,723.47l-3.47-3.33,3.2-3.19c1.45.45,2.77,1.91,3.45,3.41l-3.18,3.11Z"/>
        <path class="cls-1" d="M403.18,733.9c.06.73-2.3,3.16-2.93,3.25-1.05.14-3.2-2.82-3.21-2.94-.03-.83,2.49-3.11,2.94-3.17.82-.11,3.18,2.61,3.2,2.86Z"/>
        <polygon class="cls-1" points="394.13 778.1 390.1 778.09 390.09 774.06 394.11 774.05 394.13 778.1"/>
        <polygon class="cls-1" points="392.14 791.12 388.11 791.12 388.13 787.07 392.14 787.11 392.14 791.12"/>
        <polygon class="cls-1" points="395.18 691.09 391.09 691.1 391.13 687.06 395.13 687.06 395.18 691.09"/>
        <polygon class="cls-1" points="398.15 678.08 394.12 678.09 394.1 674.13 398.13 674.1 398.15 678.08"/>
        <polygon class="cls-1" points="388.13 733.1 384.08 733.07 384.1 729.08 388.09 729.06 388.13 733.1"/>
        <polygon class="cls-1" points="381.12 775.08 377.12 775.09 377.14 771.08 381.07 771.07 381.12 775.08"/>
        <polygon class="cls-1" points="390.12 719.12 386.12 719.11 386.13 715.09 390.09 715.08 390.12 719.12"/>
        <polygon class="cls-1" points="393.11 705.09 389.12 705.06 389.14 701.11 393.08 701.11 393.11 705.09"/>
        <polygon class="cls-1" points="383.15 761.09 379.14 761.12 379.13 757.1 383.11 757.08 383.15 761.09"/>
        <path class="cls-1" d="M374.11,730.97c-1.6.16-2.6.15-3.99.02v-3.89s3.92-.02,3.92-.02l.07,3.89Z"/>
        <path class="cls-1" d="M375.67,703.1c-.97-.32-.86-3.4-.11-3.94,1.1-.08,2.71-.33,3.23.17.55.54.32,2.32.29,3.11-.05,1.23-1.82.46-3.41.66Z"/>
        <path class="cls-1" d="M434.79,795.37c.36,2.2-3.69,1.84-5.47,1.72-.36-.02-.26-1.03-.25-1.45,0-.36.6-.65,1.01-1.07.95-.95,4.44-.85,4.71.8Z"/>
        <path class="cls-1" d="M377.5,685.37c.63-.51,2.86-.63,3.33.03.5.7.52,2.78-.09,3.38s-2.74.62-3.3-.04-.61-2.84.06-3.38Z"/>
        <path class="cls-1" d="M372.1,745.05l-3.95.05v-3.89c1.43-.14,2.51-.16,3.9-.01l.05,3.85Z"/>
        <path class="cls-1" d="M376.13,717.05h-3.9c-.15-1.43-.15-2.49,0-3.9l3.86-.04.04,3.93Z"/>
        <polygon class="cls-1" points="385.13 747.04 381.11 747.05 381.11 743.14 385.07 743.11 385.13 747.04"/>
        <rect class="cls-1" x="380.12" y="671.1" width="3.98" height="3.99" transform="translate(-3.53 2.01) rotate(-.3)"/>
        <rect class="cls-1" x="374.12" y="785.1" width="3.98" height="3.99" transform="translate(-4.13 1.99) rotate(-.3)"/>
        <path class="cls-1" d="M532.16,659.11c.22,2.72-7.91,2.95-8.17.03l8.17-.03Z"/>
        <path class="cls-1" d="M367.29,669.27c.99-.82,1.77.14,2.55.88.98.94-.02,1.86-.84,2.67-.96.96-1.83.02-2.66-.86-.88-.93-.02-1.89.95-2.69Z"/>
        <path class="cls-1" d="M361.29,783.27c.99-.82,1.77.14,2.55.88.98.94-.02,1.86-.84,2.67-.96.96-1.83.02-2.66-.86-.88-.93-.02-1.89.95-2.69Z"/>
        <path class="cls-1" d="M359.35,710.28c.9-.75,1.82.16,2.54.91.93.97-.02,1.89-.86,2.62-1.01.88-1.85.01-2.66-.83-.94-.97,0-1.89.98-2.71Z"/>
        <path class="cls-1" d="M364.36,769.3c.98-.88,1.76.1,2.52.93.86.94-.01,1.86-.83,2.61-1.04.96-1.83-.06-2.66-.85-1.01-.95.03-1.84.98-2.69Z"/>
        <path class="cls-1" d="M366.26,755.3c.95-.66,1.98.04,2.65.91.73.96,0,1.93-.83,2.59-.94.75-1.9.18-2.68-.71s-.23-2.02.86-2.79Z"/>
        <path class="cls-1" d="M364.3,683.33c.99-.68,1.94-.05,2.6.84.71.96.07,2.03-.89,2.72-.88.64-1.98-.06-2.69-.9-.84-1-.02-1.97.99-2.66Z"/>
        <path class="cls-1" d="M343.47,722.26c.85-.77,1.77.33,2.46,1.03.93.95-.24,1.84-1.08,2.62s-1.77-.33-2.57-1.08c-.98-.92.31-1.77,1.19-2.57Z"/>
        <path class="cls-1" d="M352.38,752.26c.91-.78,1.79.34,2.5,1.04.98.96-.25,1.78-.96,2.51-.94.97-1.72-.09-2.53-.83-1.02-.93,0-1.87.99-2.72Z"/>
        <path class="cls-1" d="M350.44,680.27c.9-.8,1.8.31,2.5,1.04.92.95-.26,1.79-.97,2.51-.95.97-1.71-.13-2.51-.82-1.1-.96,0-1.85.99-2.73Z"/>
        <path class="cls-1" d="M348.32,694.33c.95-.94,1.71.2,2.52.96.95.89-.09,1.71-.82,2.51-.96,1.04-1.69.04-2.52-.71-1.03-.94-.19-1.75.82-2.76Z"/>
        <path class="cls-1" d="M355.29,738.29c.97-.93,1.71.2,2.55.93,1.05.92-.11,1.68-.82,2.5-.97,1.12-1.67.08-2.54-.68-1.08-.95-.21-1.78.81-2.75Z"/>
        <path class="cls-1" d="M347.39,780.26c.87-.86,1.7.39,2.5,1.02,1.14.9-.3,1.7-.82,2.33-1.09,1.34-1.65.12-2.56-.59-1.18-.92-.11-1.78.88-2.76Z"/>
        <path class="cls-1" d="M357.38,724.32c.94-.94,1.64.25,2.42.94,1.04.93-.11,1.68-.85,2.54-.93,1.09-1.67-.11-2.52-.85-1.01-.88.07-1.75.95-2.63Z"/>
        <path class="cls-1" d="M362.44,696.28c.92-.95,1.61.34,2.38.96,1.15.92-.18,1.7-.83,2.5-.95,1.16-1.74-.12-2.56-.83-1.09-.96.13-1.72,1.01-2.63Z"/>
        <path class="cls-1" d="M350.42,766.32c.97-.99,1.57.32,2.41.97,1.11.86-.14,1.7-.85,2.51-.98,1.11-1.65-.16-2.53-.85-1.13-.88.1-1.74.97-2.63Z"/>
        <path class="cls-1" d="M338.28,753.71c-.68-.9-2.03-1.53-.84-2.47.79-.62,1.6-1.99,2.5-.89.7.86,2.01,1.62.89,2.53-.9.72-1.6,2.09-2.55.83Z"/>
        <path class="cls-1" d="M346.39,708.29c.94-.99,1.58.35,2.37.94,1.24.92-.17,1.65-.84,2.52-.92,1.2-1.64-.16-2.52-.87-1.1-.89.14-1.69.99-2.59Z"/>
        <path class="cls-1" d="M341.35,736.34c.97-1.05,1.54.33,2.41.93,1.23.85-.15,1.63-.87,2.53-.87,1.1-1.66-.13-2.52-.86-1.06-.91.14-1.7.97-2.6Z"/>
        <path class="cls-1" d="M333.4,778.33c.93-1.04,1.56.33,2.37.96,1.13.88-.13,1.66-.83,2.51-.92,1.11-1.66-.14-2.53-.86-1.05-.88.15-1.69.99-2.61Z"/>
        <path class="cls-1" d="M336.27,764.37c.92-.84,1.73.07,2.47.75.97.91.14,1.81-.65,2.59-.96.97-1.79.18-2.59-.65-.91-.95-.21-1.8.77-2.69Z"/>
        <path class="cls-1" d="M332.21,708.62c-.34-.51-1.15-1.05-1.19-1.56-.05-.62.91-.96,1.2-1.48.79-1.4,1.51-.14,2.14.33,1.11.83,1.13,1.35.04,2.32-.54.47-1.22,1.84-2.19.39Z"/>
        <path class="cls-1" d="M331.49,792.25c.79-.87,1.59.51,2.33,1.02,1.29.89-.32,1.69-.81,2.33-1.1,1.42-1.6-.04-2.54-.73-1.2-.89.16-1.67,1.02-2.62Z"/>
        <path class="cls-1" d="M337.49,678.25c.79-.87,1.59.51,2.33,1.02,1.29.9-.32,1.69-.81,2.33-1.1,1.42-1.6-.04-2.54-.73-1.2-.89.16-1.67,1.02-2.62Z"/>
        <path class="cls-1" d="M334.18,695.64c-.77-.97-1.92-1.53-.63-2.46.9-.65,1.35-1.87,2.4-.65.68.79,1.94,1.39.84,2.33-.93.79-1.61,2.04-2.61.79Z"/>
        <path class="cls-1" d="M347.87,797.08h-3.6c-.64-1.45.12-1.72.72-2.45.68-.83,1.53-.79,2.24,0,.61.68,1.44,1.27.64,2.45Z"/>
        <path class="cls-1" d="M473.31,662.13c-.94,1.6-1.77,2.07-3.24,2.03-1.27-.03-2.29-.46-3.16-2.03h6.4Z"/>
        <path class="cls-1" d="M535.39,795.99l-6.33.06c0-.63.04-.96.3-.97,3.01-.05,1.88-2.38,4.02-.16.59.62,1.75-.73,2.01,1.06Z"/>
        <path class="cls-1" d="M414.3,665.2c-.73,1.05-1.47,2.08-2.34,1.95-.7-.11-1.63-1.22-1.95-1.97,1.64-.08,2.52-.08,4.28.01Z"/>
        <path class="cls-1" d="M320.3,690.12c.37-.22,1.73-.31,1.77.12s.22,1.61-.13,1.86-1.44.22-1.75-.09c-.34-.35-.31-1.65.11-1.89Z"/>
        <path class="cls-1" d="M322.3,762.17c.3-.32,1.63-.39,1.76.02s.28,1.51-.02,1.82-1.36.27-1.75.07-.29-1.6.01-1.92Z"/>
        <path class="cls-1" d="M327.25,734.21c.34-.27,1.62-.33,1.83.05s.24,1.41-.04,1.75-1.42.18-1.82.02c-.45-.17-.36-1.52.02-1.82Z"/>
        <path class="cls-1" d="M329.36,720.11c.48-.2,1.72-.28,1.75.15.04.48.23,1.59-.14,1.81s-1.47.27-1.74-.07c-.3-.38-.33-1.71.12-1.9Z"/>
        <path class="cls-1" d="M324.24,748.22c.24-.33,1.41-.35,1.74-.11.37.28.26,1.43.08,1.85-.16.38-1.31.07-1.73.11-.46.05-.38-1.46-.09-1.85Z"/>
        <rect class="cls-1" x="282.09" y="741.06" width="2.05" height="2.07"/>
        <rect class="cls-1" x="318.06" y="704.06" width="2.09" height="2.1" transform="translate(-388.48 1018.68) rotate(-89.55)"/>
        <path class="cls-1" d="M323.28,676.22c.23-.33,1.4-.33,1.69-.06.33.31.3,1.38.08,1.78-.19.35-1.3.13-1.7.13-.45,0-.35-1.47-.08-1.85Z"/>
        <path class="cls-1" d="M317.28,790.21c.23-.33,1.39-.32,1.69-.05.33.3.3,1.38.08,1.78-.19.35-1.3.14-1.7.13-.45,0-.35-1.45-.08-1.86Z"/>
        <path class="cls-1" d="M319.21,776.3c.2-.35,1.39-.33,1.75-.16.41.2.16,1.37.05,1.85-.09.39-1.16.07-1.64.08-.45.01-.4-1.36-.16-1.78Z"/>
        <path class="cls-1" d="M299.28,729.27c.22-.33,1.4-.36,1.68-.08.31.32.26,1.35.05,1.74-.19.35-1.24.22-1.63.16-.44-.07-.35-1.44-.1-1.82Z"/>
        <rect class="cls-1" x="306.08" y="688.02" width="2.07" height="2.06" transform="translate(-7.06 3.19) rotate(-.59)"/>
        <rect class="cls-1" x="301.06" y="716.08" width="2.07" height="2.02" transform="translate(-4.68 1.99) rotate(-.37)"/>
        <rect class="cls-1" x="305.12" y="774.07" width="2.03" height="2.05" transform="translate(-.86 .34) rotate(-.06)"/>
        <rect class="cls-1" x="294.09" y="757.09" width="2.05" height="1.99"/>
        <rect class="cls-1" x="309.08" y="674.1" width="2.06" height="2.04" transform="translate(-366.83 981.26) rotate(-89.66)"/>
        <rect class="cls-1" x="315.07" y="718.04" width="2.09" height="2.05" transform="translate(-404.19 1032.34) rotate(-89.77)"/>
        <rect class="cls-1" x="290.08" y="699.11" width="2.08" height="1.98" transform="translate(-409.74 989.37) rotate(-89.85)"/>
        <rect class="cls-1" x="313.07" y="732.06" width="2.05" height="2.06" transform="translate(-419.34 1046.37) rotate(-89.94)"/>
        <rect class="cls-1" x="308.07" y="760.07" width="2.1" height="1.99" transform="translate(-452.37 1069.11) rotate(-89.92)"/>
        <rect class="cls-1" x="276.09" y="697.09" width="2.05" height="1.98"/>
        <rect class="cls-1" x="291.09" y="771.07" width="2.04" height="2.08"/>
        <rect class="cls-1" x="303.08" y="788.1" width="2.06" height="2.04" transform="translate(-486.79 1088.58) rotate(-89.66)"/>
        <rect class="cls-1" x="273.1" y="711.07" width="2.03" height="2.04"/>
        <rect class="cls-1" x="310.06" y="746.12" width="2.09" height="1.99" transform="translate(-437.33 1055.05) rotate(-89.76)"/>
        <rect class="cls-1" x="289.1" y="785.11" width="2" height="1.99"/>
        <rect class="cls-1" x="264.09" y="766.1" width="2.05" height="1.98"/>
        <rect class="cls-1" x="275.13" y="783.07" width="1.98" height="2.04"/>
        <path class="cls-1" d="M356.02,668.29c.46.34-1.54,1.96-2.06,1.87-.64-.11-1.06-.28-.73-.78.76-1.17,2.06-1.63,2.79-1.08Z"/>
        <rect class="cls-1" x="269.13" y="738.07" width="1.98" height="2.04"/>
        <rect class="cls-1" x="278.13" y="769.09" width="1.98" height="1.97"/>
        <rect class="cls-1" x="287.13" y="713.11" width="1.98" height="1.98"/>
        <rect class="cls-1" x="292.11" y="685.09" width="1.98" height="1.98"/>
        <rect class="cls-1" x="296.13" y="743.11" width="1.98" height="2"/>
        <rect class="cls-1" x="285.09" y="727.09" width="2.04" height="1.97"/>
        <rect class="cls-1" x="260.14" y="708.07" width="1.98" height="2.03"/>
        <rect class="cls-1" x="271.12" y="725.11" width="1.98" height="1.98"/>
        <rect class="cls-1" x="304.08" y="702.1" width="2.05" height="1.98" transform="translate(-398.47 1007.08) rotate(-89.91)"/>
        <rect class="cls-1" x="278.14" y="683.11" width="1.98" height="1.98"/>
        <rect class="cls-1" x="266.14" y="752.11" width="1.98" height="1.98"/>
        <rect class="cls-1" x="261.1" y="780.07" width="2.03" height="2.03"/>
        <rect class="cls-1" x="280.11" y="755.11" width="1.98" height="1.99"/>
        <path class="cls-1" d="M255.24,736.34c.2-.35,1.4-.4,1.7-.13s.28,1.22.11,1.59-1.14.3-1.6.24c-.4-.05-.5-1.19-.2-1.7Z"/>
        <path class="cls-1" d="M252.29,750.29c.27-.33,1.53-.39,1.71-.02s.24,1.33,0,1.65-1.24.25-1.63.12-.4-1.34-.07-1.75Z"/>
        <rect class="cls-1" x="262.11" y="694.1" width="1.98" height="1.97"/>
        <rect class="cls-1" x="245.14" y="792.07" width="1.97" height="2.04"/>
        <rect class="cls-1" x="250.11" y="764.12" width="1.98" height="1.97"/>
        <rect class="cls-1" x="251.14" y="678.07" width="1.97" height="2.04"/>
        <rect class="cls-1" x="257.14" y="722.12" width="1.97" height="1.96" transform="translate(-1.42 .51) rotate(-.11)"/>
        <rect class="cls-1" x="247.12" y="778.1" width="1.97" height="1.96" transform="translate(-1.53 .49) rotate(-.11)"/>
        <rect class="cls-1" x="264.1" y="680.12" width="2.03" height="1.96"/>
        <rect class="cls-1" x="259.12" y="794.12" width="1.96" height="1.97" transform="translate(-535.51 1053.64) rotate(-89.89)"/>
        <rect class="cls-1" x="295.1" y="672.1" width="2" height="1.01" transform="translate(-5.56 2.48) rotate(-.47)"/>
        <path class="cls-1" d="M361.19,796.66c.06.69-2.08.65-2.13.08-.07-.91,2.02-1.04,2.13-.08Z"/>
        <rect class="cls-1" x="273.1" y="797.11" width="2.02" height=".96"/>
      </g>
    </g>
  </g>
</svg>