<?xml version="1.0" encoding="UTF-8"?>
<svg id="Capa_2" data-name="Capa 2" xmlns="http://www.w3.org/2000/svg" viewBox="0 0 716.03 911.27">
  <defs>
    <style>
      .cls-1 {
        fill: #eadbc6;
      }

      .cls-2 {
        fill: #b1a698;
      }

      .cls-3 {
        fill: #d9c3a8;
      }

      .cls-4 {
        fill: #c3b19d;
      }

      .cls-5 {
        fill: #a0968d;
      }

      .cls-6 {
        fill: #534940;
      }

      .cls-7 {
        fill: #44352d;
      }

      .cls-8 {
        fill: #070504;
      }

      .cls-9 {
        fill: #dec9aa;
      }

      .cls-10 {
        fill: #898179;
      }

      .cls-11 {
        fill: #aba096;
      }

      .cls-12 {
        fill: #8e857d;
      }

      .cls-13 {
        fill: #aca198;
      }

      .cls-14 {
        fill: #5c544c;
      }

      .cls-15 {
        fill: #e1ccb3;
      }

      .cls-16 {
        fill: #63574e;
      }

      .cls-17 {
        fill: #140302;
      }

      .cls-18 {
        fill: #8c8681;
      }

      .cls-19 {
        fill: #c6b59d;
      }

      .cls-20 {
        fill: #665e57;
      }

      .cls-21 {
        fill: #878178;
      }

      .cls-22 {
        fill: #100907;
      }

      .cls-23 {
        fill: #5b5147;
      }

      .cls-24 {
        fill: #bca990;
      }

      .cls-25 {
        fill: #474137;
      }

      .cls-26 {
        fill: #453c33;
      }

      .cls-27 {
        fill: #332d28;
      }

      .cls-28 {
        fill: #160403;
      }
    </style>
  </defs>
  <g id="Capa_1-2" data-name="Capa 1">
    <g>
      <path class="cls-28" d="M687.43,23.4c-.36,1.07-.79,1.11-1.29.1-1.74,2.52-3.5,1.38-5.11-.88l-.36-12.09c-1.32.17-2.26-.5-2.84-2.01l-62.53,2.49-6.53-1.76-.91,2.4c-5.28-1.48-10.45-1.86-15.51-1.15l-.68,2.39c-97.29,5.6-194.85,10.28-292.68,14.04l-1.54-2.29c-6.7.73-13.45,1.1-20.25,1.13l-1.24,1.91c-11.83,1.14-29.48,2.15-41.16,1.76-.35-.01-.67-.72-.98-1.64l-17.52.12c-2.31,2.01-7.97,2.68-10.85.82-1.38,4.26-10.13,2.3-12.69.43-.8,3.51-3.42,2.92-4.62,0-3.2.32-5.42,1.25-6.67,2.78-3.98,1.16-14.37,1.13-18.27.08-2.03,2.66-7.49,4.79-9.03.99l-2.36,1.3c-4.75-2.54-10.29-.67-14.93,1.34L49.49,613.64l-2.54,1.09-3.59,34.21c-2.77,23.06-6.49,46.11-11.16,69.16-5.51,41.31-11.57,82.55-18.18,123.73l-2.54,1.04c-1.53,10.69-2.37,21.35-2.51,31.98l-1.8,1.97c4.29,1.89,9,5.11,12.98,8.14,4.41,2.08,8.27,4.52,11.58,7.3,0,1.15-.81,1.47-2.43.96-.43.73-.87,1.29-1.31,1.3-2.86.04-10.61-4.26-11.81-6.96-1-.08-1.3.34-.9,1.26,7.08,3.38,14.25,6.74,21.53,10.09l-.32,1.68c-13.86-1.96-26.52-10.2-36.49-20.08v-7.05c2.24-2.23,1.7-5.86,2.26-9.41l12.57-79.61,75.67-491.64,16.41-110.6,22.29-146.88c.92-6.06,5.25-7.4,10.27-8.71,5.92-1.54,10.13-1.61,15.85.44,3.5,1.26,8.07-1.72,11.78-1.91l90.31-4.75,89.84-3.24,101.61-4.41,120.72-6.2,73.38-4.78L677.09.02c3.19-.16,6.1.8,7.7,2.37,5.23,5.15-2.63,14.09,2.64,21.01Z"/>
      <path class="cls-17" d="M688.9,24.81l1.23,1.3c.81,6.25,3.54,9.73,8.18,10.44,6.61-.68,18.97-2.19,17.62,6.1l-46.81,288.97-13.41,80.97-15.17,92.98-23.52,144.42-18.79,114.01-13.07,81.11-10.06,60.1c-.56,3.35-2.52,6.09-6.09,6.04l-67.79-.88-66.99-1.24-58.55-1.16-68.51-1.04-128.42-2.68-60.05-1.2-63.28-.78c-6.8-.08-12.96-.88-18.94-1.73-5.36-3.87-14.65-4.6-21.21-11.77-1.93-1.26-1.34-2.05.9-1.26,4.05,2.17,8.72,4.71,13.12,5.67,1.87-.07,4.95.3,4.73,2.48l5.93,1.25.1-1.48s175.3,2.86,525.89,8.58c2.89,2.02,3.52,1.87,4.2-1.34l-2.3-1.77c62.56-384.39,93.84-576.59,93.84-576.59l2.54-1.01c-.88-3.81-1.32-5.72-1.32-5.72,11.04-63.2,21.95-128.76,32.35-193.29,4.23-26.27,8.46-52.83,12.17-78.9.08-.34.12-.65,0-.89-.18-.37-7.08-.81-6.76,0,.1,2.79-1.25,2.81-3.54,2.52-1.64,1.15-1.66.59-1.31-1.26-2.26-1.97-3.76-4.23-4.51-6.79l-1.41.91c-1.2-2.48-1.95-5.64-2.25-9.46-2.47.82-3.03-.39-1.07-2.09-2.26-1.41-2.97-3.21-.45-4.87.38.12.89-.16,1.29-.1.32.42.98,1.29,1.48,1.42Z"/>
      <path class="cls-28" d="M698.31,36.56c-3.24.33-5.72.15-7.2-3.74-1.02-2.67-2.97-5.2-2.21-8,3.62.36,4.34,4.31,4.48,8.06,1.04,2.38,3.87,1.93,4.93,3.68Z"/>
      <g>
        <path class="cls-1" d="M680.67,10.53c0,3.78.22,7.53.64,11.23-26.96,173.72-54.22,346.86-81.79,519.44-.27,4.59-1.87,7.63-4.81,9.12-.96,4.38-3.85,2.23-6.19-.37-3.63,2.93-8.01,1.08-7.29-3.75,4.15-1.14,1.38-11.58.37-11.83-.24-.06-3.98.88-4.9,1.16-18.22,12.02-19.39-12.81.23-7.98-2.5-2.65-4.1-5.72-4.8-9.2-3.34,5.31-6.45,6.32-11.73,2.56-.52,6.82-2.86,11.74-7.03,14.76,9.63,7.38.21,14.29-6.88,19,1.19,3.03,4.23,5.42,9.14,7.17,4.63.91,1.7,22.55.86,23.64-6.31,8.18-17.22-9.61-18.33-16.11-.41-2.38-.54-4.23,2.09-4.95.09-.38-4.78-5.74-5.41-4.18-2.92,7.14-2.42,17.58-.15,24.53,4.79-2.2,6.61.05,9.46,3.57,7.06,3.15,5.85,8.56-.76,11.32l-1.31,2.37c2.28,4.05,4.06,8.61,5.34,13.68-3.83,3.77-4.95,7.93-3.38,12.5,4,7.78,4.71,14.71,2.11,20.8-3.24,2.92-7.23,3.4-11.97,1.42-4.87,3.32-9.63,3.95-14.41.1.85,2.98-.25,5.64-2.69,7.54,1.8,3.63,1.77,6.27-.02,9.8-1.93,3.82-9.72,12.95-14.33,12.62,1.58,6.81,1.27,12.81-.92,18-3.24-.57-3.33-.48-.21.27l-3.93,9.65c4.75-.47,9.27-.38,13.56.27.21,6.33-2.09,12.52-6.89,18.55.6,7.02-4.04,10.64-9.25,4.81-6.28,3.48-9.1-.07-8.47-10.63-5.09,1.63-4.65,3.52-2.95,8.04l-1.36,3.58c8.74,6.84,11.69,19.74-3.36,19.31l-2.23,8.9c4.07,1.35,7.75,3.33,11.03,5.93,8.89-7.39,15.59-1.3,13.14,9.77,16.1,10.56-1.23,21.58-10.47,6.03-7.3-1.45-8.06,4.31-2.29,17.28-1.16,5.99-.65,11.5,1.54,16.53,8.02,5.18-.63,10.86-6.98,7.12,2.18,14.59-13.74,10.29-13.75-1.93-7.02-1.64-13.51,5.5-17.47,10.95-7.59,1.61-9.41,6.49-5.44,14.65-1.07,5.02-4.56,8.92-10.46,11.69-.73,4.03-2.26,6.47-4.58,7.33-7.57-.25-9.1-1.45-14.59-5.8-.2-.16-.93.45-1.04.86.65,6.19-4.03,7.65-9.44,7.19-6.84-.57-8.48-4.55-10.68-10.42-6.87,7.61-13.96-1.75-4.74-6.68-1.93-.92-3.93-1.61-5.98-2.08-4.2,9.96-9.5,12.82-18.49,6.71-2.85,5.34-.19,8.59,7.96,9.76,3.13,1.83,6.19,3.68,3.36,7.07l-.35,1.57c-64.36.84-130.24.65-195.27.04-.27,0-.54-.59-.81-1.35-1.7-1.16-2.27-3.09-1.71-5.76l-.76-3.66c-10.21,10.84-23.76.19-8.47-9.39-3.1-4.85-1.12-9.12,5.94-12.8-4.01.22-7.88.06-11.26-2.6-.1,4.86-2.79,6.93-7.4,7.3-2.52,11.09-20.61,6.96-18.85-5.25,3.87-2.82-.01-20.14-1.61-22.29s-9.6-3.57-10.58.77l-1.2,20.44c-.66,3.45-8.86,18.01-11.64,19.39-8.35,4.14-17-9.57-4.39-12.12-1.79-3.24-2.54-6.89-1.44-10.52-2.03,1.31-4.29,2.11-6.78,2.38-2.98,5.72-7.15,5.39-9.02-.97.42-10.57-1.28-13.42-5.11-8.55.09,5.69-.17,23.53-2.72,28.01-3.49,6.13-8.87,3.06-11.37-1.99-3-.56-6-.57-9-.04-8.23,3.73-16.71,4.5-12.16-7.41.6-4.71.34-9.07-.78-13.08-9.42-7.21-5.35-17.56,6.51-17.17-2.67-5.74-4.42-8.09-9.45-11.99.29-5-.77-8.44-3.17-10.33.21-4.7.21-9.44,0-14.21-.96-.04-2.28-.49-2.19-1.12,3.98-27.88,8.3-56.31,14.46-83.92,1.67-12.32,3.21-24.6,4.64-36.83,12.31-67.15,23.19-134.67,32.65-202.58l2.35-2.14.12-5.43c1.35-2.91,1.15-4.99-.59-6.26,17.29-109.69,25.94-164.54,25.94-164.54l2.58-1.34,3.63-6.37,15.69-103.43c-.52-.33-.92-.64-.88-.89.47-3.41,3.36-21.3,4.73-22.81,4.84-1.93,5.89-3.91,3.15-5.94l1.67-3.84c-4.04-2.89-4.28-7.06-.71-12.52-1.81-7.23-1.65-22.74,8.92-17.47,4.21,1.29,6.76.63,7.65-1.97-10.08-8.26-3.62-10.95,4.64-13.95.48-.18,1.99-1.1,1.78-1.14-4.45-.91-8.97-2.29-5.66-8.19.58-1.03,1.43-1.77,2.54-2.2,5.86.48,8.6-.03,10.69-6.05-4.32-1.97-6.65-4.67-4.28-9.47-3.98-19.51,6.89-27.58,16.92-7.64-.88,6.27-.52,12.18,1.07,17.73,9.84-6.46,11.96,8.27,2.48,12.1-1.7,4.44-4.28,7.54-7.74,9.3-10.02-.2-12.83,3.61-8.45,11.43-.88-10.06,10.68-7.09,14.9-1.89.59,11.1,7.64,10.78,7.89.34,3-3.65,7.99-5.04,14.98-4.18-12.44-2.69-14.81-11.29-13.99-22.79,3.98-4.25,7.81-8.66,11.48-13.23-2.27-2.42-4.41-4.91-6.44-7.47l1.22-4.89c-7.87-15.95,14.97-21.77,16.24-4.79,4.04-.75,6.68,1.4,9.25,4.15,4.28-7.26,10.39-8.21,15.28-.62,7.8-3.57,16.27-6.08,25.4-7.53l9.1,2.84-1.21-2.55c1.22-2.61,1.37-4.51.44-5.7-10.85,1.29-14.94-1.91-12.27-9.6,7.66-.51,15.26-1.04,22.83-1.6l174.57-7.52,120.32-6.63,5.63-.43c4.42,1.23,8.02.96,10.79-.82,15.83-1.68,31.82-1.69,48.37-2.31l22.99-.86c1.24,1.01.18,3.67.54,4.45Z"/>
        <path class="cls-15" d="M154.17,33.02l1.24,10.53c-13.35,90.33-27.31,179.9-41.86,268.71-6.65,43.6-13.55,87.19-20.67,130.78l-2.54,1,1.55,5.39c-14.56,97.22-29.51,193.89-44.84,290.04l-2.53,1.02-.77,6.07c3.8-.02,3.18,3.99-.31,4.5l-1.22,7.16c1.62,1.71,1,2.45-1.11,1.29-9.13,12.75-16.84-3.67-7.88-11.64,2.98-.48,3.27-2.95.89-7.41,1.85-4.99,1.94-9.69.26-14.07-3.31-4.78-3.23-8.75.23-11.93,2.98-19.86,5.5-39.85,7.55-59.98,3.96-.18,4.31-1.58,1.06-4.21l3.72-35.56,53.62-352.8,34.21-228.05c7.15-2.87,13.49-4.95,19.39-.85Z"/>
        <path class="cls-8" d="M686.14,23.49c.64,1.58,1.59,3.34.45,4.87-45.37,284.51-91.25,568.05-137.64,850.61.74.9,1.1,1.89,1.07,2.96,1.37-.48,2.19.62,2.48,3.3,2.86-1.03,3.54.56,2.3,3.3,1.98-1.48,2.79-1,2.4,1.43,7.85,1.9.24,9.05-5.43,2.94l-76.17-1.28c-1.28-1.44-.73-3.11.31-4.72l68.55-.62c1.01.17.93-.22-.25-1.18-171.64-1.26-343.55-1.23-515.75.08,2.1,1.69,4.74,2.82,7.45,2.99,78.05,1.73,156.5,3.06,235.35,3.98l3.81,2.44c-1.32.74-2.66,1.34-4.01,1.39-15.09.57-30.32.63-45.36-.21l-.21,1.57c-50.52.02-102.43-.36-153-1.44-.27,0-.52-.57-.77-1.3-11.65-.38-23.4-.77-35.26-1.18-1.22,1.87-4.36.92-4.7-1.16-6.21-2.15-11.89-5.45-17.89-8.91-3.15-1.82-6.35-2.82-6.68-6.52-.64-4.85,8.61-3.74,11.67-1.5,3.91-1.19,7.5-1.41,10.76-.64,130.44-.06,261.86.25,394.26.93,10.28,1.3,20.55,1.79,30.82,1.46.78-2.17,1.47-1.99,2.08.35l81.7.1c1.97-.08,3.15-1.46,3.52-4.14-1.24-4.24-.94-8.95.89-14.13,3.94-22.49,7.52-45.06,10.74-67.7l4.83-12.2-1.97-3.23c1.82-9.72,3.53-19.45,5.14-29.17l1.62-1.54c1.11-3.3.94-5.84-.52-7.63l1.68-13.2c2.02-7.22,4.02-14.42,6.01-21.6l-2.1-1.71c3.08-18.08,6-36.24,8.75-54.48l2.58-1.3c.34-1.48-.13-2.23-1.98-2.45l5.57-33.58c.2-2.29,1.35-4.43,3.45-6.41l-1.7-3.92,3.95-24.33,2.54-3.37c0-6.53.33-13.1.96-19.71l2.3-1.39c.19-2.74,2.04-6.09,2.56-9.51l10.63-68.91,17.43-108.35,12.77-80.27,17.62-111.66,24.94-161.1c2.98,2.61-1.62,10.74,5.47,12.96Z"/>
        <path class="cls-19" d="M163.2,32.03l-3.89,8.72-6.8,47.47-5.97,40.98-12.76,87.89-9.26,60.4-4.69,30.69-8.19,54.21-15.17,92.67c-2.32-.09-3.32-1.82-3-5.18,1.6-2.81.56-4.75-3.12-5.82l6.36-40.84c2.53-16.23,6.9-31.66,7.84-48.28l6.68-43.03,28.91-181.3c5.29-33.17,10.79-65.01,14.03-97.57,2.94.31,6.05-2.01,9.03-.99Z"/>
        <path class="cls-3" d="M41.1,759.53c1.52.99,2.59,2.19,2.12,3.93-5.11,35.78-10.5,71.41-16.17,106.89l-2.54.99c4.74,4.33-8.62,5.71-9.8,1.54-5.99,1.82-6.67-3.15-5.98-8.02,1.48-7.27,2.4-14.6,2.75-22l12.33-81.08,23.14-147.07c.88,4.12-.61,8.29-.72,12.68l-.43,17.93c-.04,1.81-1.28,3.19-.48,4.52.71,1.19,3.07,1.73,3.65,2.93,1.52,3.15-3.28,3.07-5.55,3.11-1.92,5.93-.37,13.53-1.21,20.11l-4.49,35.33c-.42,3.31-.98,5.93-4.73,7.29,10.29,16.98,1.57,17.44,3.85,23.47.64,1.69,1.89,3.15,1.73,4.8-.29,2.99-9.48.63-6.07,15.06,3.96-.15,5.94-1.96,8.6-2.42Z"/>
        <path class="cls-21" d="M31.74,892.25c1.55.54,3.09.86,4.7,1.16,11.82.41,23.58.8,35.26,1.18l48.28.74,105.71.43c108.98.46,218.24,1.77,327.59,3.55l1.54,1.15c1.42-1.65,7.17-1.72,9.44-1.05,2.32-2.51,5.11,3.89,4.76,3.82-2.68-.56-1.67-1.5,1.13-.53.02.96.38,3.5-.71,3.27-1.46-.31-2.54.51-4.16.48l-190.21-3.61-107.3-1.89-62.05-1.36-52.92-1.23-59.99-1.03-52.84-.38-5.93-1.25c-1.19-.9-3.92-.87-4.73-2.48-.55-.95.13-.94.51-.93.88.02,1.52-.11,1.93-.02Z"/>
        <path class="cls-2" d="M541.97,873.37c-.38,1.2.59,2.91-.38,4.75l-103.31-.33-282.84-1.77-62.47-.72c-6.22-.07-11.59-.15-17.93-.06l-59.72.87c-3.09.05-5.87-.7-8.15.7-.07-.83-.92-1.65-.82-3.21.69-10.74,3.61-20.76,5.12-30.74.07,4.65,1.34,9.92-.31,14.8-1.8,5.32-1.05,11.59.32,13.18.91,1.05,2.92-.9,4.24-.43,1.86.67,1.05,4.48,3.6,4.15,2.39-.31,4.77-.76,5.18-3.24,2.15-3.72,4.64-1.57,5.02,2.09l1.34-2.36c9.46-.05,18.92-.11,28.39-.16l1.7,2.34c2.6-2.75,11.63-3.86,13.07.17l4.4-2.38c53.18.24,79.78.35,79.78.35l1.67,2.38c3.65-2.43,9.28-2.8,12.8-.12.35-3.57,7.49-3.55,8.27-.16l129.29.16,67.14-.42c0-.91.24-2.32.81-2.35,13.3-.58,33.26-1,46.24.28,8.42,1.68,16.86,2.86,25.31,3.56l.09-3.01c13.57-11.17,27.19-22.32,40.87-33.48,4.26.68,5.29,2.15,2.13,5.46-11.06,10.48-22.26,20.63-33.59,30.46,25.97.54,52.12.67,78.44.4,1.28-1.71,2.72-2.1,4.3-1.18Z"/>
        <path class="cls-4" d="M608.76,9.25c-1.05,2.57,1.39,3.72,3.33,5.35,2.04,1.72,2.57,5.13,5.34,6.24,7.35,2.94,13.37,7.64,20.14,11.47,9.05,5.12,27.34,13.13,30.6,22.6-7.25-2.59-12.22-6.78-18.19-10.36-5.64-3.38-12.12-5.51-17.07-9.96-3.11-2.8-5.36-6.19-9.56-7.78-10.95-4.15-13.71-17.26-31.01-16.31-3-1.45,14.38-1.03,16.42-1.25Z"/>
        <path class="cls-8" d="M16.19,887.54l-.9,1.26c-1.42-1.56-5.73-1.07-5.68-4.81,3.22-.34,4.52,2.45,6.58,3.55Z"/>
        <path class="cls-5" d="M664.24,323.34l-9.37,60.05-8.66,52.97-49.17,301.71-15.45,96.28c-1.77,11.03-4.09,21.32-5.77,32.06l-4,25.6c-.6,3.83-1.74,7.23-1.67,10.7-.58.49-.81,1.22-1.77,2.51-1.71-1.73-2.77-3.85-4.12-5.79-1.06-.23-1.06-.64-.07-1.2l1.16-6.08-1.11-2.34c18.95-116.93,38.54-233.66,58.77-350.2.14-2.37-.25-3.16-1.18-2.35-7.68,54.85-17,110.36-26.76,165.44-.05.27-.69.43-1.5.56-4.38,7.45-3.99-1.23-2.3-6.13l-1.24-.18c-10.71,63.69-21.68,127.33-32.89,190.9-.4,1.42-1.18,1.74-2.34.69-.91-1.02-1.56-2.17-2.3-3.3l-1.07-2.73c30.83-185,46.25-277.51,46.25-277.51l.94-.66c-.49-3-.96-6.09-.49-9.12,10.36-65.73,20.56-130.33,31.78-194.48l2.55-1.03c-.82-2.83-.75-7.1,1.37-9.13.27-1.06.7-1.08,1.29-.12.83-.18,1.77-.42,1.88-.94.91-4.32,4.57-25.38,4.29-28.5-1.63-1.36-1.79-2.64-1.83-4.79-.41-7.29,1.27-17.14,3.26-24.57.14-.52.73-.92,1.44-1.29l1.67.24c.73,3.08,1.22,6.43,1.48,10.05l1.6.34-2.23,13.54,1.06.52,1.18-.73c2.79-11.37,5.36-22.87,7.71-34.51l2.62-2.49c4.68-3.69,5.48,1.72,4.99,6.03Z"/>
        <path class="cls-18" d="M686.59,28.36c.61.5.56,1.57,1.07,2.09.38,2.82.95,5.55,1.7,8.18-16.84,107.51-34.03,214.54-51.57,321.09l.56,2.37c1.83.56,2.14,1.27,2.32,2.79.3,2.57-2.76,19.77-3.58,23.55-.21.96-1.08,1.57-1.98,2.02l-1.29.12c-.93.09-1.15-.43-.66-1.55-1.09,3.69-1.32,7.25-.7,10.68l-19.73,121.18c-4.64,28.5-8.1,56.06-14.11,83.45l-.88.29s-15.45,92.25-46.35,276.75l-1.36.55c-2.96-.13-3.46-3.94-2.99-6.86l10.22-62.93,8.44-48.99,14.67-89.59,6.5-41.01,13.14-79.98,28.25-174.81,12.22-77.07,31.95-200.51,11.4-69.86c.27-1.64,1.67-2.22,2.78-1.96Z"/>
        <path class="cls-13" d="M695.83,45.79c-14.12,97.37-29.25,196.8-47.02,294.29-.05.27-.69.43-1.5.56-2.76-2.94-2.16-6.52-3.14-10.29l-1.17-.39c15.39-97.13,30.84-194.07,46.34-290.82l1.99-.14c1.19.79,2.78,1,3.58,1.68,1.28,1.09,1.54,3.85.93,5.11Z"/>
        <path class="cls-11" d="M700.68,44.54c.69-1.09,1.74-1.26,2.77-.71,5.31,2.82,1.5,19.04-.01,24.52l-2.92,3.4c-.58,13.97-3.1,28.77-7.32,42.12-.39,1.67-.18,3.07.62,4.2l-1.57.7c.95,2.49.97,5.22.06,8.21l-25.11,146.21-.98.66c.44.97.84,1.96,1.07,2.98.98,4.21-3.7,28.81-5.13,35.28-.44,1.97-1.66,3.65-2.9,5.2-.44,4.99-1.35,10.55-2.95,15.76l-2.44,7.91c-1.61,5.24-1.55,10.59-4.83,15.23.51,1.48-.76,1.51-.86.47-.07-.68-.41-1.16-.43-1.63l-1.08-.39c17.38-102.12,33.85-204.44,49.41-306.95l1.07-.65c-.05-2.11,1.92-2.24,3.54-2.52Z"/>
        <path class="cls-12" d="M664.24,323.34c.13-3.03-2.19-5.24-4.99-6.03,1.28-14.64,4.5-29.05,6.95-43.46.94-.26,1.21.28.82,1.61,8.59-51.04,17.26-102.25,25.99-153.62l-.78-3.07c-.05-2.17.52-3.06.96-4.9,1.06,3.66,1.38,3.58.97-.24,3.25-13.94,5.37-27.9,6.36-41.88,1.13-6.86,1.99-13.86,3.65-21.29.61-2.73-2.03-4.64-3.49-5.92-.29-.34-.81-1.92.08-2.08,3.11-.56,5.95-.58,9.51.19l-41.53,256.73-4.5,23.97Z"/>
        <path class="cls-6" d="M691.33,39c-2.25,2.72-1.86,6.63-2.48,10.42l-9.26,56.8-17.68,112.58-17.74,111.55c-1.36,8.53-4.11,17.11-4.7,25.86,2.14,2.71,2.47,4.78-1.11,5.88-.75.22-1.61-1.17-1.4-2.43l13-80.1,34.63-219.11c1.7-10.73,4.05-19.93,3.08-30,2.65,2.72-.76,5.62,3.67,8.55Z"/>
        <path class="cls-26" d="M697.14,47.06l-17.87,117.37-12.87,77.79-18.66,112.83c-1.83-.21-.62,1.99-1.79,3.6-2.7-1.62,3.88-15.32,1.37-18l17.96-104.29,18.74-115.22,9-58.1c.93-6.01.35-12.06,2.82-17.23.4.46.83.89,1.31,1.26Z"/>
        <path class="cls-28" d="M39.97,896.94c-2.44-.02-3.95.26-5.93-1.25,1.97.23,4.78-.77,5.93,1.25Z"/>
        <path class="cls-24" d="M96.46,455.06c.29,8.16-3,16.26-3.76,24.74l-.92,10.37c-.22,2.45-8.66,52.95-8.91,57.5-.49,9.01-2.5,17.2-4.01,25.99l-4.01,23.46-3.54,23.52-5.24,28.99c-1,5.54-3.13,10.95-2.63,16.94s-4.26,15.26-4.18,28.21c.02,3.42-.88,4.84-1.76,7.89-2.5,8.72-5.27,30.49-6.99,41.66l-4.1,26.65-1.87,10.66-12.26,77.44c-.82,5.17-2.91,9.61-2.76,14.36-1.54-.5-3.16-2.27-5.02-2.09l6.14-37.88,8-56.23c.89-6.23,2.4-11.97,2.46-17.7.5-.11.72-1,1.11-1.29l1.22-7.16c-.03-1.28.84-3.34.31-4.5l.77-6.07,7.32-48.06,8.07-49.4,10.53-67.14,14.98-98.47c1.79-11.77,3.23-22.42,4.93-33.38,1.51-2.33,8.14.32,6.85,2.17-2.54,3.64-.84,5.59-.72,8.84Z"/>
        <path class="cls-3" d="M42.22,758.24c.31-2.38-.74-5.45,1.22-7.16.06,2.44.94,5.55-1.22,7.16Z"/>
        <path class="cls-3" d="M43.74,746.58c-1.11-2.39.47-4.09.77-6.07.02,2.01.85,4.59-.77,6.07Z"/>
        <path class="cls-20" d="M598.62,604.33l-9.84,60.77-10.22,63.85-16.67,98.52-4.89,29.57c-1.59,9.63-4.63,18.8-4.51,28.18-.74-1.14-1.9-2.03-2.48-3.3l8.68-48.16,10.28-60.26,12.96-77.57,15.4-94.04c1.53.2.76,1.63,1.27,2.43Z"/>
        <path class="cls-28" d="M71.7,894.59c-11.75-.18-23.9.96-35.26-1.18l34.02.02c.82,0,1.38.7,1.24,1.15Z"/>
        <g>
          <path class="cls-15" d="M297.45,24.65c1.57,2.69-18.74.18-20.51,1.75-4.01,15.28,10.56-.06,13.32,10.99.23.93-1.2,2.56-1.46,3.24-.23.6-.19,2.26,1.73,2.23,2.35-.03,3.75-3.35,7.18-2.63l-.86,7.19c2.36,2.51-19.44-3.25-18.48-3.95-6.11,1.66-12.44,3.68-18.91,4.55-2.79.37-6.04,5.97-9.02,1.07-.93-1.53-2.48-3.03-4.3-3.19-5.02-.46-4.45,4.84-7.12,5.65-4.69,1.42-3.51-6.27-12.22-3.43l-1.93-8.66c-2.47-3.52-11.83-1.84-11.98,2.65-.12,3.68,4.12,7.66.17,12.42,3.63,2.75,5.6,5.85,9.1,7.9,1.27.75,3.32.09,4.03,1.2.66,1.04.77,2.34.35,3.77-.34,1.17-2.21,2.55-4.02,1.33-1.35-.91-1.55-4.22-4.29-4.26-6.02,5.86-3.54,8.73-10.22,12.18.37,4.6.92,11.55,3.55,15.29,2.31,3.28,10.52,1.92,11.3,7.11-1.84,4.52-11.21.59-13.67,2.34-5.06,3.59.64,8.4-6.05,10.84-2.74,1-5.11.58-7.09-2.78-1.62.18-2.6,1.78-4.06,1.73-.41-.01-2.92-1.57-1.34-3.48.76-.93,2.64.84,3.8.79,2.43-.11,1.36-3.98.37-5.89-.87-1.68-9.54-2.91-8.45-3.26-2.85.93-.75,5.94-2.24,6.71-1.25.65-2.89.63-3.76.33.39.13-5.85-12.1,1.16-14.36,3.24-1.05,10.21-.21,12.01-4.23,1.9-4.23,2.97-6.89,7.75-9.08,2-.92,1.01-6.84-1.13-7.63l-4.86,4.35c-8.1-16.52,3.36-19.17-7.32-28.11-1.58-1.32-5.37-4.71-6.37-3.07-2.64,6.04-1.87,11.26-1.17,16.65.21,1.6-2,4.44-.58,5.43l4.05,2.83c2.72,1.9-3.1,10.19-6.68,10.09-2.52-.07-4.67-1.41-6.01.76-.73,1.18-.67,5.3,1.28,4.97l5.79-1c-1.27,10.62-10.51,4.21-12.27,10.96-.66,2.52.88,3.99,3.59,4.73,4.92,1.35-.38,3.38-1.19,7.79-.43,2.36,2.39,2.65,3.45,4.38,1.55,2.53,0,8.27-2.85,9.46-1.43.59-3.58-1.45-4.82.27-2.24,3.12,2.4,5.92.97,8.94-.6,1.26-3.62,3.66-4.46,1.94-2.02-4.11-.43-8.77-1.67-12.87,2.86-.13,4.41-.05,5.14-.8,2.13-2.18-1.06-5.75,1.83-11.93-3.99-.03-6.63.18-10.31-2.3-6.8,14.6,1.63,13.03-2.88,20.71-.72,1.22-1.59,3.18-1.23,4.56s2.09,2.25,3.69,3.48c.07,1.93-1.49,2.77-2.49,4.52l4.51,3.99c-3.46,1.29-6.36,2.12-7.9,3.79-2.68,2.89-.87,6.38-1.64,9.52l-3.16,12.86c2.86-11.62-1.67,23.36-1.66,23.34-1.28,3.99-3.2,7.43-2.72,12.08.49,4.64-2.03,8.85-2.34,12.95-.53,6.98-1.19,13.26-2.32,20.07l-1.8,10.91c-2.45,14.89,0,27.22-9.22,30.19l-2.16-1.42c11.92-78.35,23.43-156.67,34.53-234.95.85-4.82,2.95-7.85,6.32-9.08.76-.92,1.95-1.41,3.61-1.51l21.33-1.35c2.89,4.05,4.04,4.24,4.62,0,4.1-1.34,8.44-.09,12.69-.43,5.06.77,10.37,1.25,15.92,1.41-2.71.12-4.4-.63-5.06-2.23l51.75-2.33,29.41-.95Z"/>
          <g>
            <path class="cls-1" d="M216.29,27.93l17.84.56c2.14,4.19-12.6,3.79-12.82,3.75-3.65-.69-6.47-2.69-10.57-1.1-2.02.78-4.94-.5-5.3-2.38,3.6-.29,7.19-.93,10.85-.82Z"/>
            <path class="cls-1" d="M192.75,29.18c.54.29,1.43.51,1.68,1.04.35.74-.12,1.56-.23,2.66-2.11,2.8-3.29,5.5-4.47,8.3,0-2.64,1.3-4.97-.03-7.32-2.58-1.69-5.23-1.44-7.63-2.76,2.52-1.02,4.84-.03,6.07-1.93,1.4-.65,3.27.45,4.62,0Z"/>
            <path class="cls-1" d="M267.77,40.9c.14,5.77-8.45-5.52-10.55-5.12,13-1.55,7.24,1.11,11.75-4.69,1-1.29,3.76.16,3.02,1.63-1.47,2.9-4.31,4.3-4.22,8.18Z"/>
            <path class="cls-1" d="M234.93,42.23c9.78-3.32,3.23-4.36,10.3-13.51,2.61,1.3,2.49,3.84,2.48,5.63-.02,3.25-7.58,10.58-12.78,7.87Z"/>
            <path class="cls-1" d="M202.15,86.65c3.04,1.99-3.03,9.63-3.85,9.89-2.2.69-3.05-2.56-3.13-4.27-.15-3.34,4.85-7.02,6.98-5.62Z"/>
          </g>
        </g>
        <path class="cls-7" d="M623.01,539.59c.03-.94-.22-1.98-1.18-2.35l15.18-90.61,9.09-51.77c-.03,13.14-2.76,26.03-5.1,39.41l-6.29,35.88-11.7,69.45Z"/>
        <path class="cls-13" d="M635.11,390.46c-1.09-9.29,3.74-19.99,3.24-28.36-.13-2.07.98-3.89,1.11-5.88,1.04,1.17,4.12,2.65,4.17,4.79l-4.55,28.1c-.18,1.1-.22,2.2-.73,2.94-.33.47-1.37,1.01-2.19.08-.37-.42-.55-.93-1.05-1.66Z"/>
        <path class="cls-6" d="M633.83,390.58c-.67,3.03-.87,6.1-1.37,9.13-3.46.88.92-18.78,1.37-9.13Z"/>
        <path class="cls-21" d="M564.2,898.22c.14-2.02-.66-4.75,1.16-6.08-.2,1.99.97,4.9-1.16,6.08Z"/>
        <path class="cls-16" d="M666.2,273.84l22.77-133.74c1.31-7.68,3.42-14.34,3.26-21.34,1.08-.05,1.86,1.95,1.57,3.63l-14.71,87.86-6.63,38-4.98,28.09c-1.65-.86-.81-2-1.29-2.5Z"/>
        <path class="cls-23" d="M693.19,113.87c3.3-13.85,5.01-28.08,7.32-42.12,1.09,0,1.75,2.04,1.48,3.56l-7.66,42.35c-1.48-1.38-.65-2.85-1.14-3.79Z"/>
        <g>
          <path class="cls-3" d="M180.94,873.49l-8.27.16c-3.52-2.27-8.71-2.51-12.8.12l-31.76-.48c-6.06-.09-11.56-.18-17.62-.14l-36.47.27-1-1.31c4.06-6.51,3.34-7.17-2.17-1.99-3.51.62-6.81,1.66-9.89,3.13l-31.43.18-2.24-2.6c5.52-29.22,10.43-58.61,14.72-88.18l2.54-1.01c-.25,2.45,1.5,4.6,1.89,7.38.22,1.57-.92,4.24-.02,5.57.6.87,3.23,1.43,3.43,2.48.04,2.66-1.23,5.2-.03,8.14.76,1.86,3.84,2.39,5.68,4.49,1.53,1.76,1.05,5,2.81,6.09,5.66,3.5,15.44-6.56,17.83,1.9.29,1.04-.74,3.86-2.14,3.65-5.18-.8-22.59-2.31-25.23,1.79-1.25,1.94-1.27,6.83,1.04,8.38,4.67,3.12,4.2,5.79,4.03,10.67-.15,4.08.74,8.38-2.2,12.17,5.29,5.51,7.59-4.15,22.12-.45l4.07,4.9c.95,1.14,3.35-1.02,4.08-1.95.06-.08,3.71-21.62,2.57-25.9-.86-3.21,2.85-5.94,5.22-5.7,8.17.83.78,13.78,6.95,16.21l3.47-5.41c6.36,3.13,9.29-8.76,10.45-.24-2.37,4.74-.92,8.82,2.41,13.55-4.06.17-9.02,1.47-8.03,5.2.46,1.72,4.72,3.93,6.41,3.36,5.23-1.77,5.15-8.03,7.52-11.08,2.07-2.67,3.68-3.59,3.87-7.44.31-6.24,1.36-12.36,1.05-18.78-.12-2.61,2.22-4.59,3.92-5.6,2.94-1.75,10.77,1.38,11.19,3.05l2.57,10.17c.94,3.71,2.76,7.09.35,10.73-1.79,2.7-1.27,5.56-.33,7.83,1.89,4.55,11.08,3.97,12.47,2.56.73-.74.52-2.74,1.4-4.11,1.23-1.94,5.2-.68,6.27-2.87s-.02-5.27,2.77-6.44c7.23,6.85,11.65,1.03,13.8,5.17,1.59,3.06-7.26,5.71-7.61,8.67-.21,1.8,2.1,3.58,1.67,5.2-1.21,4.55-9.4,5.84-6.98,9.24,1.99,2.79,7.19,2.85,9.25.68,1.77-1.87,2.75-3.59,5.16-4.23,2.07,4.23,2.46,8.66,1.25,12.79Z"/>
          <path class="cls-1" d="M74.01,873.42l-13.07-.17c2.07-7.66,7.44-.02,14.35-10.63,2.82.17,2.71,4.06,2.22,6.39-.32,1.52-2.4,2.63-3.51,4.41Z"/>
          <path class="cls-1" d="M172.67,873.65c-4.29.08-8.49.19-12.8.12-1.37-3.89,8.63-3.82,10.74-3.37,1.15.24,1.92,1.45,2.06,3.25Z"/>
          <path class="cls-1" d="M102.81,854.36c.89,2.28-1.79,3.33-2.9,3.64-1.31.36-3.28-.06-3.99-.99-1.19-1.54-1.46-4.55.96-5.55,1.58-.65,5.13.84,5.94,2.89Z"/>
          <path class="cls-1" d="M162.22,850.02c-2.63-.92-1.06-4.84,1.39-5.31,1.14-.22,1.19,1.66,1.24,2.35.06.93-1.04,3.51-2.64,2.95Z"/>
        </g>
        <g>
          <path class="cls-10" d="M593.57,703.24l1.31.54c-10.33,63.18-20.85,126.41-31.57,189.7.71,6.22-4.4,7.7-8.49,4.64-1.5.68-2.99,1.21-4.49,1.2-91.76-.77-180.91-1.94-272.77-3.52-.84-.01-1.68-.54-2.51-1.21-11.48-.42-23.17.74-35.16-.4-4.3-.41-8.13-.53-12.36-.57l-72.31-.7-83.86-1.43-35.61-.96c-5.69-.15-10.74-5.05-15.83-7.62l170.54-1.25,268.51.72,86.06.63c2.06,1.33,4.01,3.56,4.78,5.58l-74.99.68,65.74.8,11.87.64,5.12,3.01c1.6.94-.09-2.87-.37-3.74,10.96-64.57,21.83-128.9,32.58-192.98l1.48.12c.45,2.23.21,4.57-1.2,6.88,1.75.25,2.49-.56,3.5-.75Z"/>
          <path class="cls-27" d="M554.83,898.12c3.12.37,2.99,1.46,0,2.35-7.11.38-14.14-.54-21.82-.63l-98.77-1.11-102.1-1.18-105.15-.79c-.94,0-1.44-.39-1.31-1,16.59.07,33.12-.05,49.37-1.18,16.33-1.13,33.01.56,49.94.74l105.86,1.1,78.74,1.13c15.49.22,30.31.43,45.23.56Z"/>
          <path class="cls-14" d="M591.27,697.11c-.89.17-.96,1.13-1.16,2.32l-10.27,62.66-14.24,85.45c-2.35,14.12-4.17,29.8-8.4,42.43-1.24.26-1.73-.68-2.4-1.43,2.45-.16,1.76-2.47,2.28-4.52,4.02-15.78,5.61-31.29,8.21-47.24l7.93-48.73c3.33-20.46,6.96-39.53,10.52-60.74l17.57-104.58c1,12.1-11.3,68.12-10.05,74.39Z"/>
          <path class="cls-22" d="M623.01,539.59l-1.36,10.22c-1.53,11.47-3.85,22.68-5.69,34.3l-6.42,40.67-17.05,101.61-4.83,30.51-10.2,60.37-6.21,39.74c-1.89,12.11-4.73,23.51-5.89,35.13l-1.16,6.08c-.03.4.07.8.07,1.2-2.73,2.05-6.25.88-9.44,1.05v-2.35c1.73.02,4.58.5,6.81-.68l14.08-87.94,14.77-84.91,3.08-21.34,14.09-82.34,7.31-43.73,6.86-39.92c1.13-.4,1.53.38,1.18,2.35Z"/>
          <path class="cls-25" d="M166.92,886.94l-128.13.02,128.13-.02Z"/>
        </g>
        <g>
          <path class="cls-9" d="M594.71,550.33c.5.67-1.98,23.21-3.26,21.11-1.69-1.64-2.53-2.46-2.53-2.46-1.03,3.59-4.21,4.86-7.69,3.99,6.94,5.62,7.65,13.69,2.14,24.2.11,3.19,1.21,5.15,3.3,5.89l-7.04,42.44c-2.02-.82-2.59-.81-1.71.04l-13.06,6.23c1.88,4.05,2.45,8.14,1.71,12.25,1.66,6.79,3.38,13.53,5.18,20.22-1.8,6.29-3.11,12.66-3.94,19.12l2.59-.37c-.62,5.67-.95,11.69-2.68,17.6-2.46,8.43-1.58,17.14-4.49,24.83-2.02-.37-2.8-1.91-2.34-4.61-3.89-1.41-3.76-.15.41,3.76-1.5,8.59-2.7,17.32-3.59,26.19-1.69,2.33-4.8,3.55-9.33,3.67,1.46,5.36,1.32,10.42-.42,15.2l4.23-3.8c1.65-4.3,3.74-6.45,6.26-6.47-2.7,9.21-2.99,18.89-4.63,28.61l-6.58,39.11c-1.54,9.14-2.58,17.99-5.26,26.31l-2.87,3.53-83.03.07c.08-3.17,1.73-5.22,3.73-6.92l19.12-16.26c5.4-4.59,10.28-9.27,14.5-14.44-4.42,2.32-6.85,5.68-10.23,8.36l-32.07,25.42c12.98,5.68-10.56,3.84-13.3,2.88-4.36-1.52-8.44-2.48-13.45-2.51l-47-.28c-1.35-5.31-7.57-5.94-12.21-7.73-4.08-1.57-2.71-11.39.81-11.36,3.47.03,6.48,4.73,10.05,2.97,4.27-2.12,5.36-7.24,7.87-10.99,4.57,3.38,9.93,2.5,8.93,6.81-.15.65-4.67,2.38-4.68,4.63,0,.84,1.91,1.8,2.71,1.65,1.68-.31,3.64-4.2,4.86-4.54s3.3.25,3.61,1.52c.24.97-2.7,2.3-1.65,3.68l5,6.57c3.33.39,7.05-.35,10.39-.67-.7-3.79-.03-6.2,2.52-7.21s2.94,2.19,4.99,3.44c3.39,2.08,8.13,1.34,11.69,2.7-1.41-11.23,9.69-7.99,11.44-16.41.23-3.62-4.57-11.72-.09-14.09,12.17-4.93,1.15-1.21,15.86-12.54,2.84-2.18,7.68-2.2,10.96-3.16l2.67,9.69c.69,2.52,4.89,3.05,6.4,2.02,5.93-4.03-7.82-13.76.92-21.22,3.58,3.36,1.31,7.69,2.38,11.22s6.34,3.69,8.89.21c-9.16-1.12-5.83-20.26-5.77-18.75-.24-5.74-5.65-12.01-3.52-18.35,1.15-3.44,4.97-3.24,8.19-2.67,4.07.72,6.23,8.82,10.54,8.17,2.11-.32,4.64-2.11,4.16-4.53-.63-3.2-4.58-3.47-6.08-5.59-2.04-2.89.07-6.6-.22-9.83-.25-2.67-4.01-2.11-5.93-2.42-2.45-.39-3.09,2.23-5.55,4.9-4.08-5.03-7.96-7.73-13.82-7.63l3.46-13.81,9.86-1.02c.68-6.34-2.33-13.55-8.85-14.95,1.37-2.69,3.04-3.28,3.27-4.61s-1.7-2.52-1.58-3.95c.36-4.39,5.53-6.8,9.29-6.49,1.37,4.16-1.08,8.11.6,11.48,1.34,2.7,4.38-1.12,5.83-1s2.97,4.58,5.21,3.19c2.08-1.29.51-4.82,1.63-6.74,2.98-5.11,6.47-9.73,7.53-15.97-4.64.3-8.24,1.47-12.69,1.28-6.04-.26,4.21-15.92,1.92-13.01,2.75-3.5,3.04-4.77,1.85-8.99-.79-2.81.4-6.86-1.43-9.89,2.84-1.75,5.98-.83,7.59-2.54,5.69-9.39,12.43-10.07,6.8-19.15,1.68-1.27,3.06-2.37,3.46-3.51.61-1.76.28-4.12-1.85-4.76-1.66-.49-3.21-.7-4.22-2.04-.42-.56-1.28-7.33,3.02-7.78,6.78-.71-.78,5.82,9.33,10.75,3.52,1.71,5.35.3,9.36-1.8,2.32-1.21,5.81,1.96,8.97.64,12.28-5.13-10.39-25.65,3.63-33.28-2.91-2.04-2.47-5.42-2.98-8.39-.38-2.21-3.37-3.69-2.87-5.86,1.32-5.82,6.73-4.46,6.66-7.25-.13-5.3-1.45.59-7.39-8.33l-4.63,1.38c-.73.22-2.65-1.49-2.84-3.22l-1.4-12.77c.24,2.14,1.19-13.83,4.09-14.04.95-.07,3.13.11,3.74,1.35,3.85,7.84,7.97,1.02,10.21,6.79,1.98,5.11-9.3-1.33-8.27,2.03,1.76,5.73,4.72,10.83,7.68,15.64,1.13,1.84,5.13,1.3,7.31,1.52-.75-5.88.76-10.47,1.24-15.6.82-8.66-11.47-6.34-12.09-13.57-.21-2.48,1.6-3.5,4.03-4.86,3.81-2.12,9.03-7.93,6.46-10.41l-4.4-4.26c-1.67-1.62,3.93-2.8,4.9-4.44,2.34-3.96,1.29-11.17,4.28-12.6s4.43,2.97,7.54,1.91c1.65-.56,2.92-5.34,5.75-4.69,3.82.88-.76,5.06,6.8,9.13.31,9.72-8.9.44-13.75,6.07-1.4,1.62-.33,6.36,1.69,5.87,3.97-.96,6.84-4.02,10.82-4.34,7.45-.6,4.22-9.13,15.2-7.96,2,.21,2.26,3.1,1.52,4.01-2.6,3.2-7.75,1.35-10.12,4.95-2.22,3.38,4.98,6.95-1.59,13.18-.96.91,1.62,2.59,2.48,2.12.71-.39,1.76-1.93,2.75-1.9,2.47.83,3.8,4.78,6.21,3.1Z"/>
          <g>
            <path class="cls-1" d="M579.62,645.48l-4.17,26.52-5.06,30.98c-.53,3.25-2.27,6.25-3.65,10.43-3.54-7.38.53-22.67,3.25-29.01-3.8-3.62-2.42-8.2-3.34-12.41-.94-4.33-3.98-7.46-1.61-12.54l-3.34-8.78,14.66-7.12c1.03-.5,2.47-.39,3.02.13.38.36.03,1.44.24,1.81Z"/>
            <path class="cls-1" d="M563.22,745.4c-.29,12.57-3.57,22.7-4.79,33.94-4.67,9.45-3.92,7.79-12.64,15.53-1.48-4.28.63-7.47,1.47-11.13.73-3.14-2.55-6.87-1.22-10,1.25-2.95,6.4-1.98,9.54-2.84,3.93-15.39-2.57-11.82,4.37-24.4-1.64-2.31-3.87-3.27-5.16-6.24,1.26-2.49,5.43-2.76,8.34-1.88.15,2.14.14,5.13.09,7.02Z"/>
            <path class="cls-1" d="M591.45,571.43c-.32,10.66-3.05,21.13-4.79,31.61-.78.56-1.15,1.38-3.21,2.28-.59-2.81-3.49-6.74-2.01-10.42,2.1-5.23,5.48-12.43,1.43-17.93,1.3,1.77-10.38-7.75-8.19-8.88,4.12-2.14,6.49,4.93,10.72,2.2,2.61-1.69.4-5.66,1.83-8.88,2.98,2.25,4.32,6.54,4.21,10.02Z"/>
            <path class="cls-1" d="M526.68,678.59c1.2,2.65-.61,7.62-4,8.05-3.36.43-2.22-5.07-2.44-7.58l-.66-7.62,8.39-10.42c1.7-2.11,1.32-4.81,4.1-5.17,1.82-.24,6.68,1.66,4.6,4.26-2.74,3.43-4.39,7.13-5.12,11.23-.69.92-3.86,1.03-4.46,2.16-.65,1.23-1.43,2.82-.4,5.08Z"/>
            <path class="cls-1" d="M575.31,630.5c.98,1.56,2.45,2.05,3.59,3.48-.55,2.62-2.6,4.34-4.26,4.99-1.82.71-7.24,1.12-7.46-.97-.71-6.64,1.83-12.68,3.5-18.83,2.42,4.86,5.1,6.98,10.27,7.5-.96,2.27-2.56,1.65-5.64,3.83Z"/>
            <path class="cls-1" d="M558.46,557.77c.79-.59,17.05,1.3,13.45.42,2.01.49.81,1.68.84,3.17.04,1.83-6.74,6.78-11.68,4.35-2.13-1.05-5.14-6.06-2.61-7.94Z"/>
            <path class="cls-1" d="M565.5,724.76c.39,3.28-.49,4.92-2.63,5.92-1.57.73-4.76,1.01-6.22-.49-1.19-1.22-2.58-4.59-.81-6.14,2.83-2.48,6.4-.92,9.66.72Z"/>
            <path class="cls-1" d="M483.56,762.35c-2.1.86-3.5-3.14-3.42-4.76.12-2.54,3.37-4.81,6.17-3.49,1.69.8,1.56,2.96,1.51,4.71-.04,1.18-1.31,2.33-4.25,3.54Z"/>
            <path class="cls-1" d="M505.17,762.14c-2.74-3.4.7-5.94,1.79-10.57,2.33,2.89,2.81,7.96-1.79,10.57Z"/>
            <path class="cls-1" d="M512.59,695.99c-3.21.47-2.86-6.87-.07-7.03,2.77-.16,3.65,6.51.07,7.03Z"/>
            <path class="cls-1" d="M530.32,760.67c.14,3.16-2.85,3.16-2.71,0,.08-1.77,2.63-1.77,2.71,0Z"/>
            <path class="cls-1" d="M570.29,607.86c.14,3.16-2.85,3.16-2.71,0,.08-1.77,2.63-1.77,2.71,0Z"/>
          </g>
        </g>
      </g>
    </g>
  </g>
</svg>